<svg width="398" height="256" viewBox="0 0 398 256" fill="none" xmlns="http://www.w3.org/2000/svg">
<path d="M184.094 219.136C183.898 216.877 184.334 214.609 185.356 212.568C186.379 210.527 187.95 208.788 189.907 207.533C191.863 206.278 194.133 205.552 196.479 205.432C198.825 205.311 201.162 205.8 203.245 206.848C204.254 204.247 205.288 201.6 207.071 199.424C208.854 197.248 211.55 195.579 214.426 195.681V219.136H184.094Z" fill="#EBEBEB"/>
<path d="M104.175 128.271L88.6691 158.459L93.3018 158.628L80.1572 182.615H87.0612L76.2939 203.925H136.482L123.226 182.615L129.578 182.349L116.879 158.372L121.57 158.106L104.175 128.271Z" fill="#EBEBEB"/>
<path d="M106.802 163.287C106.876 163.287 106.744 176.087 106.505 191.836C106.266 207.585 106.011 220.385 105.932 220.38C105.852 220.375 105.99 207.58 106.229 191.831C106.468 176.082 106.722 163.287 106.802 163.287Z" fill="#E0E0E0"/>
<path d="M114.178 170.327C113.88 170.817 113.541 171.283 113.164 171.72C112.512 172.559 111.572 173.691 110.511 174.93L107.805 178.089C107.448 178.541 107.06 178.969 106.643 179.369C106.936 178.876 107.274 178.408 107.651 177.971C108.309 177.137 109.243 176 110.304 174.761L113.011 171.602C113.366 171.149 113.756 170.723 114.178 170.327Z" fill="#E0E0E0"/>
<path d="M106.664 179.369C105.481 178.644 104.347 177.847 103.268 176.983C102.133 176.185 101.053 175.316 100.036 174.382C101.222 175.107 102.358 175.904 103.438 176.768C104.573 177.564 105.651 178.433 106.664 179.369Z" fill="#E0E0E0"/>
<path d="M106.245 194.171C105.838 193.918 105.458 193.626 105.11 193.301C104.43 192.743 103.518 191.975 102.456 191.145C101.395 190.316 100.429 189.584 99.7287 189.056C99.3311 188.789 98.9583 188.489 98.6143 188.16C99.0474 188.368 99.4581 188.616 99.8401 188.903C100.578 189.415 101.57 190.106 102.631 190.951C103.693 191.795 104.611 192.579 105.258 193.173C105.62 193.474 105.95 193.808 106.245 194.171Z" fill="#E0E0E0"/>
<path d="M114.821 185.021C114.744 185.168 114.65 185.306 114.539 185.431C114.348 185.682 114.057 186.035 113.685 186.455C112.937 187.31 111.854 188.447 110.628 189.681C109.403 190.915 108.304 192.021 107.524 192.845C107.123 193.305 106.696 193.745 106.245 194.161C106.314 194.013 106.407 193.876 106.521 193.756C106.712 193.5 107.004 193.147 107.375 192.732C108.124 191.872 109.206 190.735 110.432 189.507C111.658 188.278 112.756 187.162 113.536 186.337C113.939 185.876 114.367 185.436 114.821 185.021Z" fill="#E0E0E0"/>
<path d="M230.421 162.621H293.305L305.054 146.524L317.371 163.077L331.842 162.852L316.246 142.582L246.129 142.863L230.421 162.621Z" fill="#E0E0E0"/>
<path d="M261.868 162.852V219.279H324.662V162.852H317.466L305.054 146.524L293.268 162.606L261.868 162.852Z" fill="#F5F5F5"/>
<path d="M285.43 194.816H270.741V219.28H285.43V194.816Z" fill="#E0E0E0"/>
<path d="M317.37 194.125H294.233V207.954H317.37V194.125Z" fill="#E0E0E0"/>
<path d="M301.18 194.125H300.649V208.082H301.18V194.125Z" fill="#EBEBEB"/>
<path d="M310.801 194.125H310.271V208.082H310.801V194.125Z" fill="#EBEBEB"/>
<path d="M310.535 201.267H300.914V201.779H310.535V201.267Z" fill="#EBEBEB"/>
<path d="M317.37 166.451H294.233V180.281H317.37V166.451Z" fill="#E0E0E0"/>
<path d="M301.18 166.451H300.649V180.409H301.18V166.451Z" fill="#EBEBEB"/>
<path d="M310.801 166.451H310.271V180.409H310.801V166.451Z" fill="#EBEBEB"/>
<path d="M310.535 173.594H300.914V174.106H310.535V173.594Z" fill="#EBEBEB"/>
<path d="M283.896 166.574H269.303V179.907H283.896V166.574Z" fill="#E0E0E0"/>
<path d="M261.874 162.852H236.386V219.274H261.874V162.852Z" fill="#E0E0E0"/>
<path d="M276.865 166.574H276.334V179.907H276.865V166.574Z" fill="#EBEBEB"/>
<path d="M283.896 173.312H269.303V173.824H283.896V173.312Z" fill="#EBEBEB"/>
<path d="M305.021 160.282C306.73 160.282 308.115 158.945 308.115 157.297C308.115 155.648 306.73 154.312 305.021 154.312C303.313 154.312 301.928 155.648 301.928 157.297C301.928 158.945 303.313 160.282 305.021 160.282Z" fill="#E0E0E0"/>
<path d="M282.952 153.636L286.852 148.987V137.81H278.68V153.723L282.952 153.636Z" fill="#F5F5F5"/>
<path d="M282.951 153.636V137.81H286.852V148.987L282.951 153.636Z" fill="#EBEBEB"/>
<path d="M287.404 136.167H277.767V137.81H287.404V136.167Z" fill="#EBEBEB"/>
<path d="M261.868 187.535H214.447V219.279H261.868V187.535Z" fill="#F5F5F5"/>
<path d="M244.138 187.535H214.447V219.279H244.138V187.535Z" fill="#E0E0E0"/>
<path d="M239.718 197.77H220.301V219.223H239.718V197.77Z" fill="#F5F5F5"/>
<path d="M259.257 197.683H246.749V200.755H259.257V197.683Z" fill="#EBEBEB"/>
<path d="M230.421 162.622V164.255H293.268V162.606L230.421 162.622Z" fill="#EBEBEB"/>
<path d="M293.268 164.255L305.022 148.337L305.054 146.524L293.305 162.621L293.268 164.255Z" fill="#EBEBEB"/>
<path d="M331.539 162.852H317.466V163.907H331.539V162.852Z" fill="#EBEBEB"/>
<path d="M280.42 191.068H275.225V192.973H280.42V191.068Z" fill="#E0E0E0"/>
<path d="M358.29 219.279C358.29 219.351 286.969 219.412 199.005 219.412C111.042 219.412 39.71 219.351 39.71 219.279C39.71 219.208 111.016 219.136 199 219.136C286.985 219.136 358.29 219.203 358.29 219.279Z" fill="#263238"/>
<path d="M235.048 70.7685C223.294 55.1679 206.206 47.8975 188.349 47.8975C188.349 47.8975 144.681 47.8975 131.748 85.6165C126.972 99.5173 128.034 114.611 133.818 128.148C135.989 133.295 138.726 138.202 141.979 142.786C153.277 158.505 188.386 201.416 188.386 201.416H196.017C205.813 188.288 230.473 144.681 237.86 130.698C247.12 113.152 248.543 88.6783 235.048 70.7685ZM195.656 140.539C188.278 140.539 181.065 138.428 174.93 134.472C168.795 130.517 164.013 124.895 161.19 118.318C158.366 111.741 157.628 104.503 159.068 97.5213C160.508 90.539 164.061 84.1256 169.279 79.092C174.497 74.0584 181.145 70.6308 188.382 69.2425C195.619 67.8543 203.12 68.5678 209.936 71.2929C216.753 74.0179 222.579 78.6321 226.678 84.5519C230.776 90.4717 232.963 97.4312 232.962 104.55C232.961 114.095 229.03 123.249 222.034 129.998C215.038 136.747 205.55 140.539 195.656 140.539Z" fill="#E94235"/>
<path opacity="0.4" d="M235.048 70.7685C223.294 55.1679 206.206 47.8975 188.349 47.8975C188.349 47.8975 144.681 47.8975 131.748 85.6165C126.972 99.5173 128.034 114.611 133.818 128.148C135.989 133.295 138.726 138.202 141.979 142.786C153.277 158.505 188.386 201.416 188.386 201.416H196.017C205.813 188.288 230.473 144.681 237.86 130.698C247.12 113.152 248.543 88.6783 235.048 70.7685ZM195.656 140.539C188.278 140.539 181.065 138.428 174.93 134.472C168.795 130.517 164.013 124.895 161.19 118.318C158.366 111.741 157.628 104.503 159.068 97.5213C160.508 90.539 164.061 84.1256 169.279 79.092C174.497 74.0584 181.145 70.6308 188.382 69.2425C195.619 67.8543 203.12 68.5678 209.936 71.2929C216.753 74.0179 222.579 78.6321 226.678 84.5519C230.776 90.4717 232.963 97.4312 232.962 104.55C232.961 114.095 229.03 123.249 222.034 129.998C215.038 136.747 205.55 140.539 195.656 140.539Z" fill="black"/>
<path d="M242.726 71.0603C230.972 55.4647 213.884 48.1943 196.027 48.1943C196.027 48.1943 152.359 48.1943 139.427 85.9134C134.651 99.8142 135.712 114.908 141.501 128.445C143.67 133.592 146.405 138.499 149.658 143.083C160.956 158.797 196.049 201.728 196.049 201.728C196.049 201.728 236.597 147.911 245.523 131.015C254.799 113.438 256.226 88.9751 242.726 71.0603ZM195.704 140.836C188.325 140.836 181.113 138.725 174.978 134.77C168.843 130.815 164.061 125.193 161.238 118.616C158.414 112.039 157.675 104.802 159.115 97.82C160.554 90.8379 164.107 84.4245 169.324 79.3907C174.542 74.3569 181.189 70.9289 188.426 69.54C195.662 68.1512 203.163 68.864 209.98 71.5883C216.797 74.3125 222.623 78.9259 226.722 84.845C230.822 90.7642 233.01 97.7232 233.01 104.842C233.046 109.579 232.106 114.275 230.245 118.658C228.383 123.041 225.636 127.023 222.165 130.372C218.693 133.722 214.566 136.372 210.023 138.168C205.481 139.964 200.613 140.871 195.704 140.836Z" fill="#E94235"/>
<path d="M195.656 68.5566C187.947 68.5566 180.427 70.8609 174.13 75.1526C167.834 79.4444 163.07 85.5128 160.494 92.5234C163.372 86.3857 168.255 81.3263 174.395 78.1185C180.534 74.9107 187.594 73.7309 194.494 74.7595C201.395 75.7881 207.756 78.9686 212.606 83.8147C217.457 88.6608 220.528 94.9059 221.353 101.595C222.177 108.285 220.708 115.051 217.171 120.859C213.633 126.667 208.222 131.198 201.764 133.759C195.305 136.319 188.156 136.769 181.408 135.04C174.659 133.31 168.684 129.496 164.395 124.18C167.921 129.406 172.794 133.658 178.536 136.52C184.278 139.382 190.692 140.755 197.15 140.505C203.608 140.255 209.887 138.39 215.373 135.093C220.859 131.797 225.364 127.182 228.444 121.7C231.525 116.218 233.077 110.059 232.947 103.824C232.818 97.5899 231.012 91.495 227.706 86.1368C224.4 80.7787 219.708 76.3412 214.089 73.2593C208.471 70.1775 202.119 68.557 195.656 68.5566Z" fill="#E94235"/>
<path opacity="0.4" d="M195.656 68.5566C187.947 68.5566 180.427 70.8609 174.13 75.1526C167.834 79.4444 163.07 85.5128 160.494 92.5234C163.372 86.3857 168.255 81.3263 174.395 78.1185C180.534 74.9107 187.594 73.7309 194.494 74.7595C201.395 75.7881 207.756 78.9686 212.606 83.8147C217.457 88.6608 220.528 94.9059 221.353 101.595C222.177 108.285 220.708 115.051 217.171 120.859C213.633 126.667 208.222 131.198 201.764 133.759C195.305 136.319 188.156 136.769 181.408 135.04C174.659 133.31 168.684 129.496 164.395 124.18C167.921 129.406 172.794 133.658 178.536 136.52C184.278 139.382 190.692 140.755 197.15 140.505C203.608 140.255 209.887 138.39 215.373 135.093C220.859 131.797 225.364 127.182 228.444 121.7C231.525 116.218 233.077 110.059 232.947 103.824C232.818 97.5899 231.012 91.495 227.706 86.1368C224.4 80.7787 219.708 76.3412 214.089 73.2593C208.471 70.1775 202.119 68.557 195.656 68.5566Z" fill="black"/>
<path d="M270.04 121.052C268.539 120.057 266.718 119.616 264.908 119.808C261.851 120.146 257.42 120.581 257.42 120.581V120.719L236.019 121.989L229.465 109.163L219.536 115.476C219.536 115.476 220.842 117.494 226.408 127.411C227.495 129.347 229.171 130.914 231.211 131.901C233.25 132.888 235.554 133.247 237.812 132.93L263.014 129.346V129.3C265.619 129.162 268.437 128.927 268.851 128.563C269.636 127.877 270.347 125.368 270.347 125.368C270.347 125.368 274.837 127.928 275.702 128C276.567 128.072 276.726 127.36 277.262 126.623C277.644 126.167 273.017 123.008 270.04 121.052Z" fill="#FFBE9D"/>
<path d="M230.802 108.344C230.802 108.344 226.642 100.618 222.842 93.3222C218.162 84.3673 207.84 82.5702 207.84 82.5702L192.886 80.6758C192.886 80.6758 180.373 75.223 168.751 88.7654L159.199 99.0617L161.232 100.828L170.704 109.02L172.577 110.648L176.865 106.388L174.875 117.176L171.357 132.219L178.961 131.333L184.103 100.997L213.099 103.224L210.785 122.368C211.252 122.301 214.76 121.636 215.901 117.038C216.268 115.571 216.268 114.041 215.901 112.573L217.578 116.716L230.802 108.344Z" fill="#F7F8FA"/>
<path d="M184.067 101.012L178.925 131.348L171.32 132.234C176.4 136.463 182.568 139.289 189.175 140.416C195.781 141.542 202.58 140.927 208.854 138.634L210.786 122.368L213.063 103.24L184.067 101.012Z" fill="#263238"/>
<path d="M185.786 79.1705L185.16 103.813L189.979 104.55L190.626 79.5749C190.626 79.5749 188.944 78.8069 185.786 79.1705Z" fill="#263238"/>
<path d="M206.248 103.936L210.233 82.7697C210.462 82.5342 213.73 83.6657 214.717 84.7409L211.141 104.376L206.248 103.936Z" fill="#263238"/>
<path d="M190.17 100.925C190.221 101.06 190.246 101.202 190.244 101.345C190.28 101.734 190.28 102.124 190.244 102.513C190.207 103.108 189.999 103.683 189.644 104.172C189.426 104.464 189.136 104.699 188.8 104.858C188.43 105.019 188.017 105.067 187.617 104.996C187.242 104.919 186.888 104.77 186.576 104.556C186.264 104.341 186 104.068 185.802 103.752C185.495 103.24 185.314 102.667 185.272 102.077C185.236 101.689 185.236 101.298 185.272 100.91C185.269 100.765 185.296 100.62 185.351 100.485C185.399 100.485 185.351 101.1 185.463 102.057C185.537 102.601 185.726 103.123 186.02 103.593C186.203 103.876 186.444 104.12 186.728 104.311C187.011 104.501 187.332 104.635 187.67 104.704C188.005 104.761 188.351 104.725 188.665 104.6C188.98 104.475 189.252 104.266 189.448 103.997C189.787 103.545 189.997 103.016 190.058 102.461C190.175 101.54 190.116 100.925 190.17 100.925Z" fill="#455A64"/>
<path d="M187.324 103.101C187.052 102.997 186.834 102.792 186.718 102.532C186.602 102.273 186.598 101.979 186.706 101.716C186.815 101.454 187.027 101.243 187.296 101.131C187.565 101.02 187.869 101.015 188.142 101.12C188.277 101.172 188.4 101.249 188.504 101.346C188.608 101.444 188.691 101.56 188.748 101.689C188.806 101.818 188.836 101.956 188.838 102.096C188.84 102.236 188.814 102.375 188.76 102.505C188.706 102.635 188.627 102.754 188.525 102.854C188.424 102.954 188.304 103.035 188.17 103.09C188.037 103.145 187.894 103.175 187.749 103.177C187.603 103.179 187.459 103.153 187.324 103.101Z" fill="#455A64"/>
<path d="M209.995 103.234C209.997 103.446 209.932 103.654 209.811 103.83C209.69 104.007 209.517 104.145 209.315 104.227C209.112 104.308 208.889 104.33 208.673 104.29C208.458 104.249 208.26 104.147 208.104 103.998C207.948 103.849 207.842 103.658 207.799 103.45C207.756 103.242 207.777 103.027 207.861 102.831C207.945 102.635 208.087 102.468 208.27 102.35C208.452 102.232 208.667 102.169 208.886 102.169C209.18 102.169 209.461 102.281 209.669 102.481C209.877 102.681 209.994 102.951 209.995 103.234Z" fill="#455A64"/>
<path d="M211.475 102.497C211.466 102.923 211.382 103.343 211.226 103.741C211.077 104.194 210.825 104.608 210.488 104.955C210.273 105.17 210.011 105.335 209.72 105.437C209.43 105.54 209.119 105.578 208.811 105.549C208.197 105.485 207.629 105.202 207.219 104.755C206.9 104.391 206.688 103.95 206.604 103.48C206.542 103.171 206.531 102.855 206.572 102.543C206.578 102.427 206.611 102.313 206.667 102.21C206.675 102.624 206.717 103.037 206.795 103.444C206.898 103.87 207.11 104.264 207.41 104.591C207.784 104.98 208.291 105.225 208.838 105.282C209.108 105.31 209.381 105.278 209.636 105.189C209.892 105.1 210.123 104.957 210.313 104.77C210.634 104.459 210.884 104.085 211.045 103.675C211.321 102.963 211.428 102.482 211.475 102.497Z" fill="#455A64"/>
<path d="M187.235 112.64C187.198 112.64 187.182 112.435 187.193 112.128C187.193 111.969 187.193 111.775 187.219 111.565C187.219 111.452 187.219 111.34 187.246 111.232V111.058V110.966V110.879L187.4 110.746C188.023 110.766 188.64 110.875 189.23 111.068C188.61 111.135 187.982 111.114 187.368 111.007C187.336 111.037 187.66 110.756 187.522 110.879V110.956V111.048V111.227C187.522 111.34 187.495 111.447 187.479 111.565C187.479 111.78 187.421 111.969 187.394 112.133C187.325 112.425 187.272 112.64 187.235 112.64Z" fill="#455A64"/>
<path d="M186.46 119.675C186.39 119.083 186.41 118.484 186.518 117.898C186.538 117.302 186.649 116.712 186.847 116.147C186.924 116.738 186.906 117.337 186.794 117.924C186.77 118.52 186.657 119.109 186.46 119.675Z" fill="#455A64"/>
<path d="M187.537 125.783C186.931 125.639 186.35 125.409 185.813 125.102C185.813 125.133 185.669 124.851 185.733 124.969V124.892V124.8V124.621L185.781 124.288C185.813 124.078 185.845 123.883 185.871 123.725C185.935 123.407 185.988 123.213 186.025 123.213C186.062 123.213 186.078 123.423 186.067 123.725C186.067 123.888 186.057 124.078 186.036 124.293C186.036 124.411 186.036 124.518 186.004 124.631V124.805V124.897V124.979C186.073 125.097 185.914 124.815 185.929 124.846C186.51 125.081 187.052 125.396 187.537 125.783Z" fill="#455A64"/>
<path d="M192.441 128.133C191.548 127.91 190.711 127.516 189.979 126.976C190.435 127.048 190.872 127.208 191.263 127.447C191.699 127.598 192.099 127.831 192.441 128.133Z" fill="#455A64"/>
<path d="M198.277 129.428C197.764 129.772 197.201 130.041 196.606 130.227H196.473H196.431L196.346 130.186L196.181 130.104L195.874 129.951L195.343 129.669C195.056 129.505 194.886 129.387 194.902 129.351C194.918 129.316 195.12 129.351 195.433 129.5C195.587 129.561 195.773 129.638 195.964 129.73L196.277 129.874L196.447 129.951L196.532 129.986H196.574H196.484C197.05 129.716 197.654 129.527 198.277 129.428Z" fill="#455A64"/>
<path d="M202.242 127.877C202.269 127.949 201.85 128.174 201.303 128.389C200.757 128.604 200.29 128.722 200.242 128.655C200.194 128.589 200.635 128.358 201.181 128.143C201.728 127.928 202.211 127.81 202.242 127.877Z" fill="#455A64"/>
<path d="M206.137 124.646C206.207 125.245 206.189 125.85 206.084 126.443L205.994 126.556H205.951L205.861 126.592L205.691 126.658L205.368 126.776C205.155 126.848 204.97 126.914 204.805 126.96C204.487 127.063 204.274 127.109 204.274 127.073C204.274 127.037 204.444 126.935 204.741 126.786L205.272 126.546L205.596 126.413L205.766 126.346L205.851 126.31H205.898L205.813 126.423C205.828 125.818 205.937 125.219 206.137 124.646Z" fill="#455A64"/>
<path d="M206.843 118.011C206.913 119.128 206.793 120.249 206.487 121.329C206.413 120.773 206.427 120.21 206.529 119.659C206.544 119.097 206.65 118.541 206.843 118.011Z" fill="#455A64"/>
<path d="M205.543 112.722C206.164 112.655 206.791 112.675 207.406 112.783L207.528 112.927V113.009V113.101V113.275C207.528 113.387 207.501 113.495 207.485 113.608C207.453 113.823 207.427 114.012 207.395 114.176C207.337 114.493 207.278 114.688 207.241 114.688C207.204 114.688 207.193 114.478 207.199 114.176C207.199 114.012 207.199 113.817 207.231 113.602L207.257 113.27V113.09V112.921L207.379 113.065C206.753 113.038 206.134 112.923 205.543 112.722Z" fill="#455A64"/>
<path d="M199.031 112.046C200.129 111.98 201.231 112.094 202.29 112.384C201.743 112.458 201.187 112.446 200.644 112.348C200.094 112.331 199.549 112.229 199.031 112.046Z" fill="#455A64"/>
<path d="M192.52 111.365C193.067 111.29 193.623 111.303 194.165 111.401C194.709 111.42 195.246 111.522 195.757 111.703C194.659 111.769 193.558 111.655 192.499 111.365H192.52Z" fill="#455A64"/>
<path d="M158.404 102.692C158.367 103.306 158.351 103.926 158.351 104.55C158.349 106.982 158.603 109.408 159.109 111.79V111.862C159.173 112.159 159.247 112.451 159.322 112.742C159.608 113.899 159.953 115.041 160.335 116.168C160.383 116.306 160.431 116.449 160.484 116.587C161.853 116.291 165.822 112.973 170.391 108.831L160.924 100.639C159.614 101.888 158.834 102.548 158.404 102.692Z" fill="#FFBE9D"/>
<path d="M218.167 49.5154C218.496 53.0533 222.672 56.0331 226.355 55.9256C228.382 55.8642 230.436 54.9938 232.384 55.5365C235.652 56.453 236.974 60.8511 240.344 61.4399C242.848 61.8802 245.157 59.9039 247.699 59.7912C249.567 59.6939 251.328 60.5951 252.878 61.6088C254.427 62.6226 255.903 63.7951 257.654 64.3736C259.405 64.9522 261.05 63.9282 262.839 63.4008C263.279 64.4965 263.571 65.8482 264.139 66.9848C264.706 68.1215 265.396 70.2258 264.388 70.6763C264.388 70.6763 261.57 72.0843 259.941 72.0075C260.599 72.6477 261.421 73.1089 262.323 73.3444C263.225 73.58 264.175 73.5815 265.078 73.349C265.529 75.9807 265.869 79.0168 264.017 80.9983C263.151 81.8572 262.045 82.4534 260.833 82.7135C254.921 84.188 248.739 80.1995 242.737 81.285C240.275 81.7355 238.019 83.0155 235.53 83.333C234.303 83.4797 233.058 83.3882 231.867 83.0638C230.677 82.7393 229.566 82.1885 228.6 81.4437C226.233 79.5954 224.604 76.5029 221.6 76.0165C220.268 75.8066 218.921 76.1752 217.615 76.5285C216.31 76.8818 214.962 77.2197 213.63 76.9483C212.298 76.677 211.067 75.5915 211.125 74.2911" fill="#263238"/>
<path d="M206.429 83.8758C207.093 80.2918 207.857 76.5695 207.857 76.5695C207.857 76.5695 212.76 76.6156 214.846 70.7839C216.83 65.2236 218.263 51.8399 218.263 51.8399C215.118 49.9509 211.449 49.0364 207.749 49.2195C204.049 49.4026 200.495 50.6744 197.567 52.8639L192.68 81.9199C192.112 85.294 194.664 88.4479 198.411 89.006C202.184 89.5999 205.776 87.2755 206.429 83.8758Z" fill="#FFBE9D"/>
<path d="M214.596 61.8648C214.562 62.0653 214.448 62.2451 214.278 62.3657C214.109 62.4862 213.897 62.538 213.689 62.5099C213.585 62.501 213.485 62.4722 213.393 62.4251C213.301 62.378 213.22 62.3136 213.155 62.2358C213.09 62.1579 213.041 62.0682 213.013 61.9719C212.984 61.8756 212.976 61.7748 212.988 61.6753C213.023 61.4744 213.138 61.2946 213.309 61.1741C213.479 61.0537 213.692 61.0021 213.901 61.0302C214.004 61.0397 214.104 61.0691 214.195 61.1164C214.286 61.1638 214.366 61.2283 214.431 61.3061C214.496 61.3838 214.544 61.4733 214.572 61.5693C214.6 61.6653 214.609 61.7657 214.596 61.8648Z" fill="#263238"/>
<path d="M216.044 61.2247C215.927 61.3066 215.402 60.7742 214.542 60.6308C213.683 60.4874 212.982 60.7895 212.908 60.6769C212.834 60.5642 213.004 60.4567 213.311 60.3134C213.729 60.1262 214.196 60.069 214.649 60.1495C215.093 60.2275 215.501 60.4369 215.816 60.7486C216.044 60.9892 216.103 61.1838 216.044 61.2247Z" fill="#263238"/>
<path d="M205.786 60.5184C205.751 60.7193 205.636 60.8991 205.466 61.0196C205.295 61.14 205.083 61.1916 204.874 61.1635C204.771 61.154 204.671 61.1246 204.58 61.0773C204.489 61.0299 204.409 60.9654 204.344 60.8876C204.279 60.8099 204.231 60.7204 204.203 60.6244C204.174 60.5284 204.166 60.428 204.179 60.3289C204.214 60.1279 204.329 59.9481 204.499 59.8277C204.67 59.7072 204.882 59.6556 205.091 59.6838C205.194 59.6933 205.294 59.7226 205.385 59.77C205.476 59.8174 205.556 59.8818 205.621 59.9596C205.686 60.0374 205.734 60.1269 205.762 60.2229C205.791 60.3188 205.799 60.4193 205.786 60.5184Z" fill="#263238"/>
<path d="M207.04 60.0011C206.923 60.083 206.397 59.5505 205.538 59.4072C204.678 59.2638 203.978 59.571 203.898 59.4533C203.818 59.3355 203.994 59.2382 204.307 59.0897C204.723 58.907 205.188 58.8516 205.639 58.931C206.086 59.0046 206.497 59.2146 206.811 59.5301C207.04 59.7707 207.098 59.9653 207.04 60.0011Z" fill="#263238"/>
<path d="M209.029 66.6726C209.507 66.6137 209.99 66.6137 210.467 66.6726C210.69 66.6726 210.908 66.6726 210.972 66.5446C211.028 66.3296 211.017 66.1032 210.94 65.8944C210.828 65.3465 210.711 64.7731 210.584 64.174C210.101 61.7318 209.799 59.735 209.9 59.7145C210 59.694 210.473 61.6652 210.961 64.1126C211.072 64.7116 211.184 65.2851 211.285 65.8329C211.378 66.1114 211.365 66.4129 211.247 66.6828C211.202 66.7518 211.142 66.81 211.07 66.8534C210.998 66.8969 210.918 66.9243 210.834 66.9337C210.707 66.9474 210.578 66.9474 210.451 66.9337C209.968 66.9036 209.49 66.8159 209.029 66.6726Z" fill="#263238"/>
<path d="M207.835 76.5696C204.897 76.1077 202.15 74.8668 199.901 72.9856C199.901 72.9856 201.17 77.4502 207.495 77.9417L207.835 76.5696Z" fill="#EB996E"/>
<path d="M208.302 68.6078C208.174 68.3834 207.989 68.1936 207.764 68.0559C207.54 67.9182 207.283 67.8369 207.018 67.8194C206.827 67.8051 206.635 67.8276 206.452 67.8856C206.27 67.9436 206.102 68.0359 205.957 68.1573C205.817 68.2763 205.718 68.434 205.675 68.609C205.631 68.784 205.644 68.9677 205.713 69.1352C205.823 69.3043 205.982 69.4386 206.171 69.5214C206.36 69.6042 206.569 69.6319 206.774 69.6011C207.203 69.5288 207.614 69.3775 207.984 69.1557C208.093 69.1054 208.192 69.036 208.276 68.9509C208.316 68.9107 208.342 68.86 208.351 68.8052C208.361 68.7504 208.353 68.6941 208.329 68.6437" fill="#EB996E"/>
<path d="M206.429 66.8158C206.573 66.8158 206.429 67.7272 207.087 68.5003C207.745 69.2734 208.78 69.3451 208.764 69.4731C208.748 69.6011 208.51 69.6062 208.09 69.5499C207.544 69.4645 207.046 69.1963 206.684 68.7921C206.334 68.4035 206.157 67.8978 206.191 67.3841C206.196 67.0053 206.339 66.7953 206.429 66.8158Z" fill="#263238"/>
<path d="M201.775 48.5733C203.436 52.1112 208.817 56.4121 212.978 57.9378C212.596 57.2108 210.261 55.1576 209.884 54.4306C211.561 56.1868 213.986 58.5727 216.549 59.1717C216.844 59.2661 217.162 59.275 217.462 59.1973C217.628 59.1157 217.772 58.9985 217.883 58.8547C217.994 58.7109 218.07 58.5443 218.104 58.3679C218.601 56.5846 218.896 54.7546 218.985 52.91C219.072 51.3543 218.541 49.8251 217.499 48.6348C216.082 47.0988 213.784 46.3615 211.545 45.9007C209.702 45.4418 207.783 45.3374 205.899 45.5935C204.057 45.9314 202.338 46.9554 201.786 48.4658" fill="#263238"/>
<path d="M191.857 61.8905C191.826 60.5233 191.88 59.1556 192.016 57.7945C192.435 54.6713 193.449 43.3202 204.307 46.2386L203.15 49.1519C203.15 49.1519 203.983 56.4582 198.411 60.3801C198.411 60.3801 198.437 67.6761 194.574 70.3078C194.574 70.3078 191.884 65.3618 191.857 61.911" fill="#263238"/>
<path d="M198.644 59.8681C198.002 59.6171 197.301 59.5409 196.617 59.648C195.934 59.7622 195.324 60.1297 194.919 60.672C194.551 61.2427 194.42 61.9268 194.553 62.5868C194.69 63.2418 194.976 63.8592 195.391 64.3942C195.66 64.7964 196.024 65.1316 196.452 65.3721C196.671 65.4855 196.915 65.5448 197.164 65.5448C197.412 65.5448 197.656 65.4855 197.875 65.3721" fill="#FFBE9D"/>
<path d="M197.566 63.6927C197.635 63.7285 197.275 64.0664 196.696 63.8053C196.544 63.7255 196.41 63.6174 196.302 63.4873C196.193 63.3573 196.113 63.2078 196.065 63.0475C195.942 62.6864 195.895 62.3052 195.927 61.9263C195.949 61.5211 196.122 61.1373 196.415 60.8459C196.537 60.7209 196.687 60.6244 196.853 60.5641C197.02 60.5037 197.198 60.481 197.375 60.4978C198.007 60.59 198.124 61.0405 198.049 61.0405C197.975 61.0405 197.789 60.8203 197.359 60.8459C197.093 60.8969 196.854 61.0378 196.686 61.2433C196.518 61.4489 196.431 61.7055 196.441 61.9672C196.394 62.6431 196.548 63.2933 196.882 63.5032C197.216 63.7131 197.535 63.6312 197.566 63.6927Z" fill="#EB996E"/>
<path d="M261.512 60.3595C261.439 60.5141 261.341 60.6559 261.22 60.7794C260.872 61.1351 260.424 61.3844 259.93 61.4962C259.147 61.6854 258.322 61.6298 257.574 61.3375C256.613 60.9289 255.72 60.3873 254.921 59.7298C254.008 59.0642 252.989 58.2757 251.684 58.0043C251.009 57.8812 250.313 57.9093 249.651 58.0863C248.945 58.2848 248.26 58.5506 247.608 58.8799C246.929 59.2127 246.239 59.5813 245.486 59.9039C244.736 60.2584 243.921 60.4672 243.087 60.5183C242.208 60.5463 241.342 60.3043 240.614 59.8271C239.895 59.3226 239.267 58.7067 238.757 58.0043C237.695 56.6424 236.836 55.1627 235.541 54.1951C234.913 53.7187 234.163 53.4145 233.371 53.3144C232.604 53.2311 231.829 53.2639 231.073 53.4117C229.587 53.6779 228.197 54.1336 226.827 54.3026C225.557 54.4506 224.269 54.3425 223.044 53.9851C221.267 53.4748 219.678 52.4854 218.464 51.1333C218.018 50.6455 217.647 50.099 217.36 49.5103C217.392 49.5402 217.419 49.5748 217.44 49.6127C217.493 49.6997 217.562 49.8021 217.647 49.9301C218.911 51.8208 220.85 53.1981 223.097 53.8008C224.302 54.1419 225.566 54.2378 226.812 54.0824C228.149 53.9083 229.529 53.4475 231.057 53.1711C231.838 53.0114 232.641 52.9751 233.434 53.0635C234.272 53.167 235.065 53.4853 235.732 53.9851C237.091 55.0091 237.956 56.5042 239.006 57.8456C239.497 58.5247 240.101 59.12 240.795 59.6069C241.473 60.0544 242.281 60.2821 243.103 60.2571C243.903 60.2093 244.686 60.0092 245.406 59.6683C246.133 59.3611 246.818 58.9976 247.502 58.6443C248.171 58.3069 248.873 58.0359 249.598 57.8354C250.291 57.6551 251.017 57.6289 251.721 57.7586C252.95 58.1123 254.081 58.7263 255.032 59.5557C255.812 60.2109 256.684 60.7557 257.622 61.1736C258.34 61.4643 259.133 61.534 259.893 61.3733C260.373 61.2698 260.815 61.0434 261.172 60.7179C261.416 60.508 261.501 60.3544 261.512 60.3595Z" fill="#263238"/>
<path d="M139.29 162.068L129.664 180.802L132.534 180.905L124.378 195.794H128.666L121.979 209.019H159.333L151.108 195.794L155.051 195.625L147.17 180.746L150.084 180.582L139.29 162.068Z" fill="#28BB46"/>
<path d="M140.914 183.808C140.994 183.808 140.914 191.744 140.787 201.528C140.659 211.312 140.452 219.243 140.378 219.243C140.304 219.243 140.378 211.307 140.511 201.523C140.643 191.739 140.84 183.808 140.914 183.808Z" fill="#263238"/>
<path d="M145.494 188.615C145.347 188.916 145.151 189.193 144.915 189.435C144.391 190.05 143.831 190.636 143.238 191.191C142.559 191.851 141.944 192.44 141.514 192.886C141.298 193.142 141.056 193.377 140.792 193.587C140.937 193.285 141.131 193.007 141.365 192.763C141.892 192.15 142.452 191.564 143.042 191.007C143.727 190.346 144.342 189.757 144.772 189.312C144.985 189.055 145.227 188.821 145.494 188.615Z" fill="#263238"/>
<path d="M140.823 193.777C140.067 193.368 139.356 192.886 138.701 192.338C137.985 191.854 137.323 191.3 136.727 190.684C137.483 191.092 138.195 191.574 138.849 192.123C139.566 192.605 140.228 193.16 140.823 193.777Z" fill="#263238"/>
<path d="M140.568 202.967C139.735 202.398 138.936 201.785 138.175 201.129C137.354 200.541 136.57 199.909 135.824 199.234C136.734 199.696 137.582 200.261 138.35 200.919C139.174 201.51 139.92 202.198 140.568 202.967Z" fill="#263238"/>
<path d="M145.891 197.284C145.96 197.335 144.867 198.707 143.328 200.217L141.391 202.173C141.146 202.465 140.87 202.731 140.569 202.967C140.5 202.916 141.593 201.544 143.132 200.033L145.069 198.082C145.314 197.79 145.59 197.523 145.891 197.284Z" fill="#263238"/>
</svg>
