<svg width="356" height="313" viewBox="0 0 356 313" fill="none" xmlns="http://www.w3.org/2000/svg">
<path d="M222.938 99.8594C222.938 99.8594 239.068 102.579 240.368 102.929C241.668 103.279 246.778 105.699 247.038 107.259C247.173 109.307 247.173 111.362 247.038 113.409C247.038 113.409 246.108 114.159 245.538 112.659C245.155 111.202 244.99 109.695 245.048 108.189L242.188 107.089L243.748 109.859L244.008 116.349C244.008 116.349 242.008 116.169 241.618 114.619C241.372 113.54 241.245 112.437 241.238 111.329L239.158 109.569L240.718 111.679L241.238 116.349C241.238 116.349 239.718 116.849 239.238 115.809C238.886 114.461 238.712 113.073 238.718 111.679L232.838 109.619L228.948 111.789L221.678 107.729L222.938 99.8594Z" fill="#FFBE9D"/>
<path d="M166.458 59.9893C166.538 60.3093 185.898 86.9893 185.898 86.9893L224.798 99.0893L223.028 113.699L175.358 104.099L158.438 84.6793L166.458 59.9893Z" fill="#00CA90"/>
<g opacity="0.2">
<path opacity="0.2" d="M166.458 59.9893C166.538 60.3093 185.898 86.9893 185.898 86.9893L224.798 99.0893L223.028 113.699L175.358 104.099L158.438 84.6793L166.458 59.9893Z" fill="black"/>
</g>
<path d="M98.698 96.6792H19.218C17.5335 96.6792 16.168 98.0447 16.168 99.7292V109.119C16.168 110.804 17.5335 112.169 19.218 112.169H98.698C100.382 112.169 101.748 110.804 101.748 109.119V99.7292C101.748 98.0447 100.382 96.6792 98.698 96.6792Z" fill="#F5F5F5"/>
<path d="M98.7079 112.17C98.7079 112.17 98.8779 112.17 99.2079 112.1C99.8437 111.983 100.425 111.663 100.864 111.19C101.304 110.716 101.579 110.112 101.648 109.47C101.648 108.53 101.648 107.41 101.648 106.17C101.648 104.93 101.648 103.54 101.648 102.03C101.648 101.27 101.648 100.48 101.648 99.6596C101.635 99.2538 101.539 98.8549 101.367 98.4871C101.195 98.1192 100.951 97.7901 100.648 97.5196C100.319 97.2419 99.9335 97.0404 99.5179 96.9296C99.0748 96.8331 98.6199 96.8028 98.1679 96.8396H95.2479H88.8979L19.2879 96.9196C18.8985 96.9191 18.5134 96.9997 18.1569 97.1564C17.8005 97.3131 17.4807 97.5424 17.2179 97.8296C16.9581 98.1203 16.7604 98.4609 16.6366 98.8305C16.5128 99.2002 16.4656 99.5911 16.4979 99.9796C16.4979 101.66 16.4979 103.33 16.4979 104.98V108.73C16.4788 109.112 16.5124 109.496 16.5979 109.87C16.7472 110.41 17.0544 110.894 17.4801 111.259C17.9058 111.624 18.4308 111.854 18.9879 111.92C19.3379 111.92 19.7679 111.92 20.1679 111.92H38.6479L69.9379 111.98L91.0379 112.06L96.7779 112.11H98.2679H98.7779H98.2679H96.7779L91.0379 112.16L69.9379 112.24L38.6479 112.3H20.0979C19.6879 112.3 19.3079 112.3 18.8579 112.3C18.4227 112.247 18.0017 112.111 17.6179 111.9C17.2354 111.687 16.8989 111.401 16.6277 111.058C16.3565 110.715 16.156 110.321 16.0379 109.9C15.9302 109.482 15.8897 109.05 15.9179 108.62V104.91C15.9179 103.26 15.9179 101.59 15.9179 99.9096C15.8912 99.4562 15.9543 99.0019 16.1036 98.5729C16.2529 98.1439 16.4854 97.7485 16.7879 97.4096C17.0973 97.0674 17.4755 96.7944 17.8977 96.6083C18.3198 96.4222 18.7765 96.3272 19.2379 96.3296L88.8479 96.4096H98.1179C98.5977 96.3899 99.0781 96.4302 99.5479 96.5296C100.006 96.6538 100.429 96.8794 100.788 97.1896C101.126 97.4827 101.399 97.843 101.59 98.2477C101.782 98.6523 101.886 99.0923 101.898 99.5396C101.898 100.36 101.898 101.16 101.898 101.92C101.898 103.43 101.898 104.81 101.898 106.06C101.898 107.31 101.898 108.4 101.848 109.38C101.737 110.209 101.302 110.961 100.638 111.47C100.233 111.773 99.7586 111.969 99.2579 112.04C99.0826 112.112 98.897 112.156 98.7079 112.17Z" fill="#263238"/>
<path d="M314.512 310.103C337.069 309.02 354.476 289.855 353.393 267.298C352.309 244.742 333.145 227.334 310.588 228.417C288.031 229.501 270.623 248.665 271.707 271.222C272.79 293.779 291.955 311.187 314.512 310.103Z" fill="#263238"/>
<path d="M271.678 268.569C271.678 268.569 271.678 268.639 271.678 268.679C271.587 279.481 275.774 289.88 283.325 297.604C290.875 305.329 301.175 309.753 311.976 309.909C322.777 310.064 333.201 305.94 340.971 298.436C348.741 290.933 353.227 280.659 353.448 269.859C353.448 269.859 353.448 269.789 353.448 269.749L271.678 268.569Z" fill="#263238"/>
<path d="M283.848 268.85C283.765 274.527 285.368 280.102 288.454 284.869C291.54 289.636 295.97 293.38 301.185 295.629C306.399 297.878 312.163 298.53 317.748 297.503C323.332 296.476 328.487 293.816 332.56 289.859C336.633 285.902 339.441 280.826 340.629 275.274C341.817 269.721 341.332 263.94 339.235 258.663C337.138 253.386 333.523 248.85 328.847 245.627C324.172 242.405 318.646 240.641 312.968 240.56C305.355 240.45 298.01 243.369 292.549 248.674C287.088 253.98 283.958 261.237 283.848 268.85V268.85Z" fill="#FAFAFA"/>
<path d="M312.968 240.56C305.355 240.45 298.01 243.369 292.549 248.674C287.088 253.98 283.958 261.237 283.848 268.85L341.258 269.68C341.367 262.067 338.449 254.722 333.143 249.261C327.838 243.8 320.581 240.67 312.968 240.56Z" fill="#E0E0E0"/>
<path d="M295.068 269.009C295.017 272.468 295.993 275.865 297.872 278.769C299.752 281.674 302.45 283.955 305.626 285.326C308.803 286.697 312.314 287.095 315.717 286.469C319.119 285.844 322.26 284.224 324.742 281.814C327.223 279.403 328.934 276.311 329.658 272.929C330.383 269.546 330.087 266.024 328.81 262.809C327.532 259.594 325.33 256.83 322.482 254.867C319.634 252.904 316.267 251.829 312.808 251.779C308.171 251.712 303.697 253.49 300.37 256.721C297.044 259.952 295.136 264.372 295.068 269.009V269.009Z" fill="#263238"/>
<path d="M293.148 209.31C293.148 209.31 335.008 196.65 352.318 242.13L264.718 269.27L293.148 209.31Z" fill="#00CA90"/>
<path d="M62.2322 310.107C84.7891 309.024 102.197 289.859 101.113 267.302C100.03 244.745 80.8654 227.338 58.3085 228.421C35.7516 229.505 18.3439 248.669 19.4274 271.226C20.5109 293.783 39.6753 311.191 62.2322 310.107Z" fill="#263238"/>
<path d="M19.3879 268.569C19.3879 268.569 19.3879 268.639 19.3879 268.679C19.2972 279.481 23.4842 289.88 31.0347 297.604C38.5852 305.329 48.8856 309.753 59.6864 309.909C70.4873 310.064 80.9111 305.94 88.6813 298.436C96.4515 290.933 100.937 280.659 101.158 269.859V269.729L19.3879 268.569Z" fill="#263238"/>
<path d="M31.5978 268.85C31.5153 274.527 33.1184 280.102 36.2043 284.869C39.2903 289.636 43.7205 293.38 48.9347 295.629C54.1489 297.878 59.9128 298.53 65.4976 297.503C71.0824 296.476 76.2372 293.816 80.3102 289.859C84.3831 285.902 87.1912 280.826 88.3793 275.274C89.5674 269.721 89.0822 263.94 86.985 258.663C84.8878 253.386 81.2729 248.85 76.5973 245.627C71.9218 242.405 66.3956 240.641 60.7178 240.56C53.1049 240.45 45.7602 243.369 40.2993 248.674C34.8384 253.98 31.7083 261.237 31.5978 268.85V268.85Z" fill="#FAFAFA"/>
<path d="M60.6779 240.56C53.0719 240.461 45.7375 243.384 40.2853 248.689C34.833 253.993 31.7085 261.244 31.5979 268.85L89.0079 269.68C89.0621 265.907 88.3721 262.16 86.9773 258.654C85.5825 255.148 83.5103 251.952 80.8791 249.247C78.248 246.543 75.1095 244.383 71.6432 242.893C68.177 241.402 64.4508 240.609 60.6779 240.56Z" fill="#E0E0E0"/>
<path d="M42.7778 269.009C42.7267 272.468 43.7026 275.865 45.582 278.769C47.4615 281.674 50.16 283.955 53.3364 285.326C56.5127 286.697 60.0242 287.095 63.4267 286.469C66.8292 285.844 69.9699 284.224 72.4515 281.814C74.9331 279.403 76.6442 276.311 77.3684 272.929C78.0926 269.546 77.7973 266.024 76.5199 262.809C75.2424 259.594 73.0403 256.83 70.1919 254.867C67.3435 252.904 63.9769 251.829 60.5178 251.779C55.8807 251.712 51.407 253.49 48.0802 256.721C44.7535 259.952 42.8462 264.372 42.7778 269.009V269.009Z" fill="#263238"/>
<path d="M118.428 252.85C118.198 252.97 96.9079 249.56 96.9079 249.56C95.7568 251.062 94.2915 252.295 92.6143 253.173C90.9372 254.05 89.0886 254.551 87.1979 254.64C77.9979 255.08 69.0079 255.49 61.1979 255.84C57.7084 255.995 54.4229 257.528 52.0612 260.101C49.6995 262.675 48.4541 266.08 48.5979 269.57V269.57C48.7383 272.882 50.1191 276.021 52.4662 278.362C54.8133 280.704 57.9551 282.077 61.2679 282.21L106.598 284C114.048 284.29 123.948 279.77 128.598 273.94L118.428 252.85Z" fill="#455A64"/>
<path d="M7.17774 234.729C7.17774 234.729 5.23775 194.879 42.6878 186.579V181.469H173.868V193.729C173.868 193.729 154.618 216.919 160.868 236.169C167.118 255.419 169.118 257.389 169.118 257.389H243.778C249.669 249.11 252.953 239.258 253.208 229.099C253.608 212.199 246.588 183.309 241.338 164.839C236.598 147.989 233.598 133.949 233.598 133.949L255.998 126.479C255.998 126.479 297.448 180.729 299.138 183.729C300.828 186.729 306.588 193.889 305.238 209.469C303.888 225.049 266.598 273.109 256.818 278.529C247.038 283.949 238.198 284.289 229.388 285.639C221.748 286.819 165.228 286.039 150.438 285.809C145.298 285.777 140.26 284.379 135.838 281.759C131.418 279.079 128.098 274.639 124.428 267.359L116.598 252.12L7.17774 234.729Z" fill="#00CA90"/>
<path d="M17.2178 231.989L0.697847 257.869C0.207472 258.587 -0.0359872 259.444 0.00430419 260.312C0.0445956 261.18 0.366425 262.011 0.921144 262.68C1.47586 263.349 2.23331 263.819 3.07889 264.019C3.92447 264.219 4.81221 264.139 5.60785 263.789C7.66363 262.87 9.54212 261.598 11.1578 260.029C18.7078 252.839 32.1578 233.899 32.1578 233.899L17.2178 231.989Z" fill="#455A64"/>
<path d="M135.708 236.649C135.708 236.649 135.708 236.519 135.808 236.269L136.138 235.179C136.535 233.78 136.826 232.353 137.008 230.909C137.561 225.568 136.678 220.175 134.448 215.289C132.948 211.918 130.889 208.824 128.358 206.139C125.451 203.073 122.075 200.488 118.358 198.479C114.238 196.255 109.829 194.612 105.258 193.599C100.33 192.536 95.2995 192.016 90.2579 192.049C85.2388 192.086 80.2277 192.457 75.2579 193.159C70.4179 193.809 65.7779 194.609 61.3979 195.609C53.6218 197.261 46.1269 200.033 39.1479 203.839C34.4612 206.44 30.1793 209.711 26.4379 213.549C25.1179 214.909 24.1679 216.039 23.5379 216.809L22.8279 217.699C22.752 217.805 22.6648 217.902 22.5679 217.989C23.6712 216.357 24.916 214.824 26.2879 213.409C29.9972 209.498 34.2713 206.165 38.9679 203.519C45.9591 199.644 53.4833 196.821 61.2979 195.139C65.6779 194.139 70.2979 193.309 75.1879 192.649C80.1974 191.94 85.2486 191.566 90.3079 191.529C95.377 191.496 100.434 192.022 105.388 193.099C110.004 194.147 114.453 195.83 118.608 198.099C122.377 200.136 125.797 202.763 128.738 205.879C131.288 208.61 133.354 211.755 134.848 215.179C137.069 220.13 137.905 225.591 137.268 230.979C137.058 232.429 136.723 233.857 136.268 235.249C136.108 235.709 135.988 236.059 135.888 236.329C135.837 236.441 135.777 236.548 135.708 236.649V236.649Z" fill="#263238"/>
<path d="M128.158 227.73C128.098 227.73 128.368 227.1 128.648 225.96C129.022 224.319 129.073 222.62 128.798 220.96C128.408 218.518 127.582 216.167 126.358 214.02C125.665 212.734 124.855 211.516 123.938 210.38C122.978 209.144 121.888 208.014 120.688 207.01C118.348 205.083 115.714 203.544 112.888 202.45C110.575 201.542 108.176 200.872 105.728 200.45C104.072 200.17 102.403 199.98 100.728 199.88C100.112 199.872 99.4975 199.825 98.8877 199.74C99.0468 199.716 99.2086 199.716 99.3677 199.74C99.6777 199.74 100.138 199.74 100.738 199.74C102.412 199.764 104.082 199.901 105.738 200.15C108.225 200.507 110.666 201.134 113.018 202.02C115.917 203.111 118.619 204.669 121.018 206.63C122.242 207.661 123.355 208.817 124.338 210.08C125.257 211.248 126.07 212.497 126.768 213.81C128.006 216.01 128.813 218.427 129.148 220.93C129.396 222.62 129.291 224.343 128.838 225.99C128.719 226.434 128.559 226.866 128.358 227.28C128.312 227.438 128.245 227.59 128.158 227.73Z" fill="#F5F5F5"/>
<g opacity="0.4">
<path opacity="0.4" d="M102.468 192.79C109.528 194.079 116.25 196.802 122.218 200.79C128.218 204.774 132.839 210.516 135.448 217.23C138.068 223.97 137.678 232.9 134.918 238.48L144.188 239.25C147.308 228.84 143.918 216.07 136.418 207.92C132.126 203.167 126.89 199.363 121.044 196.751C115.198 194.139 108.871 192.776 102.468 192.75" fill="black"/>
</g>
<path d="M99.5079 111.39H18.4179C13.6793 111.39 9.83789 115.231 9.83789 119.97V172.92C9.83789 177.658 13.6793 181.5 18.4179 181.5H99.5079C104.247 181.5 108.088 177.658 108.088 172.92V119.97C108.088 115.231 104.247 111.39 99.5079 111.39Z" fill="#455A64"/>
<path d="M108.088 127.03C108.088 127.18 85.998 127.29 58.758 127.29C31.518 127.29 9.41797 127.18 9.41797 127.03C9.41797 126.88 31.498 126.77 58.758 126.77C86.018 126.77 108.088 126.89 108.088 127.03Z" fill="#263238"/>
<path d="M173.808 186.139C173.808 186.279 144.318 186.399 107.958 186.399C71.5979 186.399 42.1079 186.279 42.1079 186.139C42.1079 185.999 71.5879 185.879 107.958 185.879C144.328 185.879 173.808 185.999 173.808 186.139Z" fill="#263238"/>
<path d="M173.868 181.499C175.204 179.806 176.03 177.766 176.248 175.619C176.448 172.329 174.948 168.209 171.398 168.209H126.098C122.573 168.209 119.193 169.61 116.7 172.102C114.208 174.594 112.808 177.975 112.808 181.499H173.868Z" fill="#455A64"/>
<path d="M233.598 133.949L225.718 117.519C224.666 115.264 224.493 112.697 225.233 110.321C225.972 107.944 227.572 105.929 229.718 104.669L253.278 90.6193C254.507 89.8802 255.914 89.4895 257.348 89.4893H262.438L264.438 122.699L256.598 125.729L261.598 133.809L233.598 133.949Z" fill="#00CA90"/>
<path d="M262.508 90.7295C262.508 90.7295 270.568 92.5795 271.578 104.999C272.588 117.419 264.468 121.299 264.468 121.299L262.508 90.7295Z" fill="#EBEBEB"/>
<path d="M236.348 111.08C236.348 111.08 220.058 118.8 218.068 120.08C216.688 120.96 215.508 122.5 216.588 125.21C218.428 129.82 226.048 125.48 226.048 125.48L241.218 117.9C241.218 117.9 247.048 115.15 244.888 111.7C242.478 107.84 236.348 111.08 236.348 111.08Z" fill="#263238"/>
<path d="M213.288 108.27C213.288 108.27 228.598 110.89 229.898 111.27C231.198 111.65 236.298 114.04 236.558 115.6C236.693 117.647 236.693 119.702 236.558 121.75C236.558 121.75 235.638 122.5 235.058 121C234.681 119.537 234.516 118.029 234.568 116.52L231.708 115.42L233.268 118.19L233.528 124.69C233.528 124.69 231.528 124.51 231.148 122.95C230.902 121.873 230.775 120.773 230.768 119.67L228.678 117.9L230.238 120.01L230.768 124.69C230.768 124.69 229.248 125.18 228.768 124.14C228.416 122.791 228.241 121.403 228.248 120.01L222.368 117.96L218.478 120.13L212.358 116.73L213.288 108.27Z" fill="#FFBE9D"/>
<path d="M237.128 86.949C237.128 93.149 234.278 98.169 230.768 98.169C227.258 98.169 224.408 93.169 224.408 86.949C224.408 80.729 227.248 75.729 230.768 75.729C234.288 75.729 237.128 80.729 237.128 86.949Z" fill="#263238"/>
<path d="M231.808 94.6595L235.308 106.779C235.947 106.458 236.456 105.927 236.753 105.276C237.049 104.625 237.115 103.893 236.938 103.2C236.058 99.0495 235.558 96.0995 234.598 92.4595C234.478 92.0995 231.808 94.6595 231.808 94.6595" fill="#263238"/>
<g opacity="0.4">
<path opacity="0.4" d="M162.598 241.299C162.258 240.299 161.898 239.299 161.598 238.229C161.298 237.159 160.918 236.229 160.658 235.229C160.255 233.729 159.961 232.202 159.778 230.659C153.878 254.659 162.888 271.589 178.348 272.779C200.948 274.519 228.498 275.779 239.638 272.859C259.948 267.529 267.398 250.589 269.178 247.799C270.958 245.009 287.108 215.479 277.178 187.049C267.248 158.619 250.028 128.429 250.028 128.429L233.598 133.949C233.598 133.949 236.598 147.949 241.368 164.789C246.618 183.259 253.638 212.149 253.238 229.049C252.983 239.208 249.699 249.059 243.808 257.339H169.158C169.158 257.339 167.558 255.739 162.628 241.339" fill="black"/>
</g>
<path d="M4.19773 228.51L4.72772 222.81L141.008 238.51C142.829 238.724 144.587 239.308 146.175 240.226C147.762 241.145 149.145 242.378 150.239 243.85C151.333 245.322 152.114 247.002 152.535 248.787C152.956 250.572 153.008 252.424 152.688 254.23L152.078 257.68L11.0777 237.19C9.03265 236.91 7.17487 235.85 5.8927 234.233C4.61054 232.615 4.00322 230.565 4.19773 228.51V228.51Z" fill="#00CA90"/>
<g opacity="0.6">
<path opacity="0.6" d="M4.19773 228.51L4.72772 222.81L141.008 238.51C142.829 238.724 144.587 239.308 146.175 240.226C147.762 241.145 149.145 242.378 150.239 243.85C151.333 245.322 152.114 247.002 152.535 248.787C152.956 250.572 153.008 252.424 152.688 254.23L152.078 257.68L11.0777 237.19C9.03265 236.91 7.17487 235.85 5.8927 234.233C4.61054 232.615 4.00322 230.565 4.19773 228.51V228.51Z" fill="black"/>
</g>
<g opacity="0.3">
<path opacity="0.3" d="M269.178 266.629C269.178 266.629 299.178 233.629 305.368 207.689C308.478 207.671 311.584 207.902 314.658 208.379C314.658 208.379 296.918 256.609 269.178 266.629Z" fill="black"/>
</g>
<path d="M304.928 196.069C305.006 196.341 305.059 196.619 305.088 196.899C305.168 197.449 305.328 198.259 305.428 199.309C305.72 202.307 305.643 205.33 305.198 208.309C304.493 212.709 303.145 216.982 301.198 220.989C298.821 225.869 296.171 230.61 293.258 235.189C288.031 243.547 282.159 251.485 275.698 258.929C273.258 261.819 271.238 264.119 269.838 265.699L268.218 267.509C268.034 267.724 267.837 267.928 267.628 268.119C267.776 267.88 267.947 267.656 268.138 267.449L269.688 265.569L275.418 258.699C281.778 251.198 287.592 243.251 292.818 234.919C295.734 230.355 298.404 225.638 300.818 220.789C302.74 216.821 304.087 212.598 304.818 208.249C305.277 205.313 305.408 202.335 305.208 199.369C305.138 198.319 305.008 197.509 304.968 196.949C304.925 196.658 304.912 196.363 304.928 196.069V196.069Z" fill="#263238"/>
<path d="M253.068 266.389C251.35 265.075 249.741 263.623 248.258 262.049C246.656 260.598 245.172 259.024 243.818 257.339C247.14 260.102 250.234 263.128 253.068 266.389V266.389Z" fill="#263238"/>
<path d="M164.028 265.379C164.511 263.839 165.259 262.394 166.238 261.109C167.072 259.728 168.137 258.5 169.388 257.479C169.498 257.589 168.128 259.23 166.668 261.4C165.208 263.57 164.168 265.439 164.028 265.379Z" fill="#263238"/>
<path d="M106.388 284.43C108.029 282.933 109.411 281.176 110.478 279.23C111.598 277.104 112.278 274.774 112.478 272.379C112.781 269.46 112.271 266.514 111.004 263.867C109.737 261.219 107.762 258.974 105.298 257.379C103.312 256.03 101.074 255.095 98.7179 254.629C96.5346 254.235 94.3011 254.205 92.1079 254.54C92.2489 254.479 92.3966 254.435 92.5479 254.409C92.9821 254.296 93.423 254.209 93.8679 254.15C95.504 253.93 97.1644 253.971 98.7879 254.27C101.21 254.697 103.518 255.62 105.568 256.98C108.13 258.607 110.182 260.923 111.489 263.662C112.796 266.402 113.305 269.454 112.958 272.469C112.728 274.927 111.993 277.31 110.798 279.469C110.012 280.921 108.999 282.238 107.798 283.37C107.484 283.681 107.15 283.971 106.798 284.24C106.669 284.319 106.532 284.383 106.388 284.43V284.43Z" fill="#263238"/>
<path d="M56.5978 273.979C56.2547 272.403 56.0904 270.793 56.1078 269.179C55.9354 267.571 55.9354 265.948 56.1078 264.339C56.6072 267.527 56.7614 270.759 56.5678 273.979H56.5978Z" fill="#263238"/>
<path d="M60.2378 273.99C59.4894 270.822 59.0771 267.584 59.0078 264.33C59.4634 265.895 59.755 267.504 59.8778 269.13C60.1675 270.733 60.2882 272.361 60.2378 273.99V273.99Z" fill="#263238"/>
<path d="M116.448 181.499C116.448 181.639 99.8778 181.759 79.4478 181.759C59.0178 181.759 42.4478 181.639 42.4478 181.499C42.4478 181.359 59.0178 181.239 79.4478 181.239C99.8778 181.239 116.448 181.349 116.448 181.499Z" fill="#263238"/>
<path d="M62.7878 181.449C62.6378 181.449 62.5278 162.449 62.5278 139.069C62.5278 115.689 62.5978 96.7295 62.7878 96.7295C62.9778 96.7295 63.0479 115.73 63.0479 139.12C63.0479 162.51 62.9278 181.449 62.7878 181.449Z" fill="#263238"/>
<path d="M52.5977 181.379C52.4577 181.379 53.1677 162.379 54.1877 139.019C55.2077 115.659 56.1877 96.6692 56.2877 96.6792C56.3877 96.6892 55.7277 115.679 54.7077 139.039C53.6877 162.399 52.7877 181.389 52.5977 181.379Z" fill="#263238"/>
<path d="M29.6879 297.029C29.527 296.894 29.3796 296.743 29.2479 296.58C28.9879 296.28 28.5579 295.85 28.0879 295.24C26.7055 293.541 25.471 291.728 24.3979 289.819C20.7781 283.5 18.888 276.339 18.9178 269.057C18.9477 261.774 20.8965 254.629 24.5679 248.339C25.6522 246.438 26.9003 244.634 28.2979 242.949C28.7779 242.339 29.2079 241.95 29.4779 241.61C29.7479 241.27 29.9079 241.16 29.9179 241.18C29.8188 241.36 29.6979 241.528 29.5579 241.68C29.3179 242.01 28.9079 242.45 28.4579 243.08C23.3282 249.614 20.2377 257.515 19.5725 265.796C18.9074 274.077 20.697 282.37 24.7179 289.64C25.7532 291.55 26.9333 293.379 28.2479 295.11C28.6879 295.74 29.0879 296.19 29.3279 296.52C29.5679 296.85 29.7079 297.009 29.6879 297.029Z" fill="#455A64"/>
<path d="M172.948 220.839L172.638 221.419L166.598 232.729L158.158 240.849L175.028 263.309L189.078 260.979C189.078 260.979 187.508 257.769 180.448 257.149L177.778 243.729L187.688 228.369" fill="#455A64"/>
<path d="M158.178 240.879L175.048 263.339L189.098 261.009L187.168 259.159L175.638 260.419L159.978 239.149L158.178 240.879Z" fill="#E0E0E0"/>
<path d="M179.348 251.009C179.268 251.169 178.348 250.839 177.348 251.059C176.348 251.279 175.538 251.849 175.408 251.729C175.278 251.609 175.908 250.669 177.228 250.439C178.548 250.209 179.458 250.879 179.348 251.009Z" fill="#263238"/>
<path d="M178.598 247.73C178.478 247.85 177.708 247.129 176.598 247.089C175.488 247.049 174.598 247.719 174.508 247.589C174.418 247.459 174.578 247.28 174.938 246.99C175.425 246.634 176.016 246.451 176.618 246.47C177.221 246.485 177.8 246.708 178.258 247.1C178.528 247.38 178.598 247.65 178.598 247.73Z" fill="#263238"/>
<path d="M177.948 243.38C177.808 243.49 177.188 242.76 176.158 242.58C175.128 242.4 174.298 242.87 174.158 242.72C174.018 242.57 174.248 242.43 174.618 242.22C175.106 241.961 175.667 241.874 176.211 241.972C176.755 242.07 177.25 242.347 177.618 242.76C177.958 243.08 178.018 243.34 177.948 243.38Z" fill="#263238"/>
<path d="M181.148 239.43C180.998 239.51 180.468 238.78 179.498 238.36C178.528 237.94 177.648 238 177.608 237.83C177.568 237.66 178.608 237.25 179.758 237.83C180.908 238.41 181.318 239.38 181.148 239.43Z" fill="#263238"/>
<path d="M182.508 236.239C182.438 236.289 181.888 235.809 181.038 234.969L179.598 233.479C179.272 233.188 178.989 232.851 178.758 232.479C178.691 232.345 178.651 232.2 178.64 232.05C178.63 231.901 178.65 231.751 178.698 231.609C178.755 231.448 178.858 231.306 178.995 231.203C179.132 231.1 179.296 231.039 179.468 231.029C179.98 231.036 180.478 231.196 180.898 231.489C181.264 231.724 181.6 232.002 181.898 232.319C182.395 232.867 182.761 233.52 182.968 234.229C183.231 234.87 183.231 235.589 182.968 236.229C182.866 235.611 182.726 235 182.548 234.399C182.304 233.784 181.94 233.223 181.478 232.749C181.205 232.479 180.899 232.244 180.568 232.049C180.25 231.841 179.886 231.714 179.508 231.679C179.455 231.68 179.404 231.697 179.361 231.727C179.318 231.757 179.286 231.8 179.268 231.849C179.214 231.981 179.214 232.128 179.268 232.259C179.463 232.581 179.698 232.877 179.968 233.139L181.338 234.729C181.806 235.167 182.201 235.677 182.508 236.239V236.239Z" fill="#263238"/>
<path d="M183.078 236.569C183.008 236.569 182.938 235.829 183.558 234.859C183.979 234.219 184.597 233.732 185.317 233.471C186.038 233.21 186.824 233.188 187.558 233.409C187.638 233.462 187.706 233.531 187.758 233.612C187.81 233.693 187.844 233.784 187.858 233.879C187.871 234.042 187.836 234.206 187.758 234.349C187.646 234.549 187.5 234.729 187.328 234.879C187.049 235.148 186.748 235.392 186.428 235.609C185.888 235.973 185.294 236.25 184.668 236.429C184.109 236.656 183.494 236.701 182.908 236.559C182.908 236.459 183.558 236.399 184.528 236.009C185.086 235.788 185.614 235.495 186.098 235.139C186.383 234.929 186.651 234.694 186.898 234.439C187.019 234.332 187.124 234.208 187.208 234.069C187.258 233.929 187.208 233.969 187.208 233.939C187.072 233.881 186.926 233.85 186.778 233.849C186.601 233.834 186.424 233.834 186.248 233.849C185.904 233.88 185.567 233.96 185.248 234.089C184.707 234.3 184.229 234.644 183.858 235.089C183.565 235.564 183.304 236.059 183.078 236.569V236.569Z" fill="#263238"/>
<path d="M169.318 238.589C169.373 238.919 169.329 239.258 169.191 239.563C169.053 239.868 168.828 240.125 168.545 240.302C168.261 240.479 167.931 240.567 167.596 240.556C167.262 240.546 166.939 240.436 166.667 240.241C166.395 240.046 166.187 239.775 166.069 239.462C165.951 239.149 165.929 238.808 166.005 238.482C166.081 238.157 166.253 237.861 166.497 237.633C166.741 237.404 167.048 237.253 167.378 237.199C167.819 237.13 168.27 237.237 168.633 237.497C168.996 237.757 169.242 238.149 169.318 238.589V238.589Z" fill="#E0E0E0"/>
<path d="M224.148 231.639L228.658 260.919L265.128 255.499C264.388 252.049 244.488 247.859 244.488 247.859L242.368 228.979L224.148 231.639Z" fill="#455A64"/>
<path d="M232.978 247.959C232.642 248.117 232.377 248.393 232.233 248.735C232.089 249.076 232.076 249.459 232.198 249.809C232.346 250.148 232.617 250.419 232.957 250.565C233.297 250.712 233.679 250.724 234.028 250.599C234.39 250.429 234.674 250.129 234.824 249.758C234.974 249.387 234.979 248.974 234.838 248.599C234.649 248.257 234.335 248.002 233.962 247.888C233.588 247.775 233.185 247.811 232.838 247.989" fill="#E0E0E0"/>
<path d="M228.658 260.92L228.318 257.92L263.408 253.83C263.408 253.83 265.138 254.3 265.128 255.47L228.658 260.92Z" fill="#E0E0E0"/>
<path d="M245.048 247.589C245.048 247.769 244.198 247.98 243.398 248.68C242.598 249.38 242.258 250.199 242.078 250.159C241.898 250.119 242.018 249.04 242.988 248.21C243.958 247.38 245.068 247.419 245.048 247.589Z" fill="#263238"/>
<path d="M249.108 248.599C249.178 248.769 248.448 249.179 247.958 250.029C247.468 250.879 247.408 251.689 247.228 251.709C247.048 251.729 246.788 250.709 247.418 249.709C248.048 248.709 249.078 248.429 249.108 248.599Z" fill="#263238"/>
<path d="M251.968 252.85C251.808 252.92 251.428 252.06 251.738 251.02C252.048 249.98 252.828 249.46 252.928 249.6C253.028 249.74 252.588 250.34 252.338 251.2C252.088 252.06 252.138 252.81 251.968 252.85Z" fill="#263238"/>
<path d="M244.088 243.339C244.088 243.509 243.188 243.389 242.188 243.599C241.188 243.809 240.458 244.259 240.338 244.119C240.218 243.979 240.888 243.229 242.058 242.989C243.228 242.749 244.158 243.179 244.088 243.339Z" fill="#263238"/>
<path d="M242.598 239.139C242.022 239.39 241.39 239.48 240.768 239.399C240.091 239.381 239.42 239.28 238.768 239.099C238.369 239.004 237.978 238.881 237.598 238.729C237.375 238.65 237.169 238.531 236.988 238.379C236.85 238.273 236.753 238.123 236.713 237.953C236.673 237.784 236.692 237.606 236.768 237.449C236.838 237.311 236.94 237.191 237.065 237.099C237.19 237.008 237.335 236.946 237.488 236.919C237.716 236.884 237.949 236.884 238.178 236.919C238.585 236.949 238.987 237.023 239.378 237.139C240.035 237.326 240.659 237.613 241.228 237.989C242.228 238.649 242.578 239.269 242.518 239.319C242.458 239.369 241.948 238.889 240.998 238.369C240.44 238.068 239.845 237.843 239.228 237.699C238.868 237.605 238.499 237.548 238.128 237.529C237.728 237.529 237.398 237.529 237.328 237.719C237.258 237.909 237.328 237.809 237.398 237.919C237.535 238.023 237.687 238.107 237.848 238.169C238.19 238.324 238.541 238.461 238.898 238.579C239.507 238.774 240.133 238.911 240.768 238.989C241.381 238.996 241.992 239.046 242.598 239.139V239.139Z" fill="#263238"/>
<path d="M242.388 239.429C242.328 239.429 241.878 238.879 241.638 237.739C241.529 237.077 241.529 236.402 241.638 235.739C241.702 235.338 241.803 234.943 241.938 234.559C241.998 234.308 242.121 234.075 242.296 233.885C242.471 233.694 242.692 233.551 242.938 233.469C243.1 233.449 243.265 233.474 243.414 233.543C243.563 233.612 243.689 233.722 243.778 233.859C243.904 234.062 244.001 234.28 244.068 234.509C244.19 234.908 244.251 235.323 244.248 235.739C244.248 236.437 244.076 237.124 243.748 237.739C243.178 238.739 242.468 239.109 242.448 239.049C242.428 238.989 242.938 238.539 243.348 237.549C243.586 236.98 243.696 236.366 243.668 235.749C243.658 235.392 243.594 235.038 243.478 234.699C243.368 234.319 243.178 234.029 243.038 234.089C242.898 234.149 242.588 234.449 242.488 234.779C242.352 235.123 242.249 235.477 242.178 235.839C242.064 236.456 242.038 237.085 242.098 237.709C242.188 238.729 242.478 239.389 242.388 239.429Z" fill="#263238"/>
<path d="M195.458 162.859L164.188 230.999L184.838 243.399L228.078 161.409" fill="#263238"/>
<path d="M247.028 244.949L224.598 248.549L211.168 168.409L144.818 173.219C143.063 173.341 141.3 173.176 139.598 172.729C120.968 167.619 123.488 143.859 125.288 140.049L217.098 137.419C221.908 137.28 226.6 138.92 230.276 142.025C233.952 145.131 236.352 149.484 237.018 154.249L247.028 244.949Z" fill="#263238"/>
<path d="M124.358 143.809L124.688 109.929C124.688 109.929 120.318 87.929 119.018 79.239C117.018 65.799 114.258 59.409 136.278 49.859L141.098 47.999L148.548 48.099C157.428 48.769 166.788 56.799 167.008 62.099L175.598 138.469L124.358 143.809Z" fill="#00CA90"/>
<path d="M125.738 57.729C125.738 57.729 119.518 71.109 120.738 83.299L143.908 105.539C149.098 111.319 155.598 113.779 163.908 114.279L211.848 119.519L213.178 106.979L167.598 94.059C165.778 93.719 164.868 91.829 163.478 90.609L125.738 57.729Z" fill="#00CA90"/>
<path d="M121.988 61.5892C122.257 61.3318 122.568 61.1221 122.908 60.9692C123.895 60.5344 124.939 60.2415 126.008 60.0992C127.723 59.8178 129.473 59.8178 131.188 60.0992C131.718 60.1953 132.23 60.3706 132.708 60.6192C133.196 60.9257 133.667 61.2596 134.118 61.6192C135.038 62.3392 135.968 63.1692 136.918 64.0692C138.838 65.8592 140.658 68.1292 142.788 70.4292C144.918 72.7292 147.248 75.1992 149.788 77.7892C152.328 80.3792 155.058 83.0892 157.978 85.8892C159.448 87.2892 160.978 88.7092 162.568 90.0992C163.378 90.7592 164.178 91.5392 164.948 92.2692C165.673 93.0197 166.589 93.559 167.598 93.8292V93.8292L213.268 106.729L213.478 106.789V107.009C213.388 107.899 213.278 108.849 213.178 109.819C212.828 113.149 212.478 116.449 212.178 119.549V119.809H211.918L191.598 117.549L181.998 116.499L172.808 115.569C169.808 115.239 166.918 114.899 164.108 114.489C161.363 114.152 158.661 113.525 156.048 112.619C153.639 111.702 151.36 110.475 149.268 108.969C147.268 107.559 145.388 106.089 143.658 104.639C136.808 98.7992 131.778 93.5692 128.288 90.0092C126.558 88.2192 125.228 86.8092 124.338 85.8492L123.338 84.7492L123.008 84.3592C123.008 84.3592 123.138 84.4692 123.378 84.7092C123.618 84.9492 123.968 85.3192 124.378 85.7792L128.378 89.8792C131.908 93.3892 136.978 98.5792 143.838 104.369C145.568 105.799 147.418 107.259 149.428 108.649C151.506 110.124 153.764 111.327 156.148 112.229C158.743 113.115 161.425 113.725 164.148 114.049C166.958 114.449 169.858 114.789 172.838 115.109L182.028 116.009L191.628 117.059L211.928 119.269L211.638 119.499C211.968 116.399 212.318 113.099 212.638 109.759C212.748 108.759 212.848 107.839 212.938 106.949L213.128 107.229L167.528 94.2792C166.415 94.0026 165.402 93.4167 164.608 92.5892C163.798 91.8192 163.068 91.0992 162.238 90.4092C160.628 89.0092 159.118 87.5792 157.648 86.1792C154.728 83.3692 152.008 80.6392 149.478 78.0392C146.948 75.4392 144.628 72.9592 142.478 70.6292C140.328 68.2992 138.568 66.0392 136.668 64.2492C135.794 63.3822 134.872 62.5643 133.908 61.7992C133.472 61.4332 133.011 61.099 132.528 60.7992C132.075 60.5529 131.585 60.3807 131.078 60.2892C129.391 59.9802 127.664 59.9531 125.968 60.2092C124.906 60.3284 123.866 60.5943 122.878 60.9992C122.567 61.1729 122.269 61.3702 121.988 61.5892Z" fill="#263238"/>
<path d="M133.958 18.6092L136.278 51.6092C136.462 54.2037 137.624 56.6318 139.528 58.404C141.432 60.1761 143.937 61.1607 146.538 61.1592V61.1592C147.944 61.1594 149.336 60.871 150.627 60.3118C151.917 59.7526 153.079 58.9345 154.041 57.9081C155.003 56.8816 155.744 55.6688 156.218 54.3445C156.692 53.0203 156.889 51.6128 156.798 50.2092C156.588 47.0692 156.408 44.4992 156.408 44.4992C156.408 44.4992 164.408 43.2592 164.488 35.2692C164.548 30.6592 163.748 20.1992 163.068 12.1792C162.844 9.55941 161.643 7.11961 159.703 5.34469C157.764 3.56977 155.227 2.58967 152.598 2.59919H147.768C145.801 2.71863 143.878 3.23074 142.112 4.10531C140.346 4.97987 138.773 6.19919 137.486 7.69135C136.199 9.18351 135.223 10.9183 134.617 12.7934C134.012 14.6685 133.787 16.646 133.958 18.6092V18.6092Z" fill="#FFBE9D"/>
<path d="M156.418 44.3694C152.732 44.4388 149.109 43.4121 146.008 41.4194C146.008 41.4194 148.468 47.1594 156.438 46.4194L156.418 44.3694Z" fill="#EB996E"/>
<path d="M161.278 22.4292C161.281 22.7264 161.167 23.013 160.962 23.2279C160.756 23.4427 160.475 23.5688 160.178 23.5792C160.034 23.5929 159.89 23.5777 159.752 23.5346C159.614 23.4914 159.487 23.4212 159.377 23.328C159.267 23.2348 159.177 23.1205 159.112 22.9919C159.047 22.8633 159.008 22.723 158.998 22.5792C158.995 22.2809 159.108 21.9932 159.313 21.7768C159.519 21.5604 159.8 21.4321 160.098 21.4192C160.388 21.3971 160.675 21.491 160.897 21.6803C161.118 21.8697 161.255 22.1389 161.278 22.4292V22.4292Z" fill="#263238"/>
<path d="M161.698 20.1791C161.548 20.3291 160.698 19.6891 159.458 19.6891C158.218 19.6891 157.338 20.3091 157.198 20.1591C157.058 20.0091 157.278 19.8191 157.678 19.5391C158.204 19.1689 158.834 18.9731 159.478 18.9791C160.118 18.9777 160.742 19.1809 161.258 19.5591C161.598 19.8391 161.758 20.1091 161.698 20.1791Z" fill="#263238"/>
<path d="M149.758 22.4292C149.763 22.7272 149.651 23.0153 149.445 23.2307C149.239 23.4461 148.956 23.5713 148.658 23.5792C148.514 23.5929 148.37 23.5777 148.232 23.5346C148.094 23.4914 147.967 23.4212 147.857 23.328C147.747 23.2348 147.657 23.1205 147.592 22.9919C147.527 22.8633 147.488 22.723 147.478 22.5792C147.475 22.2809 147.588 21.9932 147.793 21.7768C147.999 21.5604 148.28 21.4321 148.578 21.4192C148.868 21.3971 149.155 21.491 149.377 21.6803C149.598 21.8697 149.735 22.1389 149.758 22.4292V22.4292Z" fill="#263238"/>
<path d="M149.598 20.4091C149.458 20.5591 148.598 19.9191 147.358 19.9191C146.118 19.9191 145.238 20.5391 145.108 20.3891C144.978 20.2391 145.178 20.0491 145.578 19.7691C146.105 19.3989 146.734 19.2031 147.378 19.2091C148.017 19.2047 148.64 19.4044 149.158 19.7791C149.598 20.0691 149.708 20.3391 149.598 20.4091Z" fill="#263238"/>
<path d="M154.088 29.5091C154.737 29.3064 155.409 29.1855 156.088 29.1491C156.398 29.1491 156.698 29.0491 156.748 28.8391C156.781 28.5145 156.707 28.188 156.538 27.9091L155.598 25.5291C154.736 23.5092 154.04 21.4223 153.518 19.2891C154.533 21.236 155.396 23.2587 156.098 25.3391L156.978 27.7391C157.178 28.1162 157.238 28.5519 157.148 28.9691C157.102 29.0803 157.031 29.1795 156.941 29.2592C156.851 29.339 156.744 29.397 156.628 29.4291C156.455 29.4738 156.277 29.4973 156.098 29.4991C155.431 29.5869 154.756 29.5902 154.088 29.5091Z" fill="#263238"/>
<path d="M150.478 30.3591C150.678 30.3591 150.678 31.6791 151.818 32.6191C152.958 33.5591 154.378 33.4191 154.388 33.6191C154.398 33.8191 154.068 33.8691 153.468 33.8891C152.689 33.898 151.931 33.6325 151.328 33.1391C150.762 32.6583 150.404 31.9776 150.328 31.2391C150.238 30.7291 150.388 30.3491 150.478 30.3591Z" fill="#263238"/>
<path d="M149.948 15.5993C149.828 15.9293 148.608 15.7793 147.168 15.9493C145.728 16.1193 144.558 16.5193 144.368 16.2193C144.178 15.9193 144.488 15.7593 144.958 15.4393C145.583 15.0407 146.291 14.791 147.028 14.7095C147.765 14.628 148.511 14.7169 149.208 14.9693C149.738 15.1793 150.008 15.4393 149.948 15.5993Z" fill="#263238"/>
<path d="M161.238 16.6294C161.028 16.9094 160.178 16.6294 159.168 16.6294C158.158 16.6294 157.288 16.8094 157.088 16.5194C156.888 16.2294 157.138 16.0994 157.518 15.8394C158.018 15.5112 158.61 15.3501 159.208 15.3794C159.802 15.3918 160.378 15.5874 160.858 15.9394C161.218 16.2094 161.338 16.4894 161.238 16.6294Z" fill="#263238"/>
<path d="M136.648 24.6092C136.508 24.5492 131.158 22.9792 131.338 28.4392C131.518 33.8992 136.948 32.5992 136.958 32.4392C136.968 32.2792 136.648 24.6092 136.648 24.6092Z" fill="#FFBE9D"/>
<path d="M135.218 30.4291C135.218 30.4291 135.128 30.4991 134.968 30.5791C134.739 30.666 134.486 30.666 134.258 30.5791C133.9 30.3668 133.605 30.0632 133.403 29.6996C133.201 29.3359 133.099 28.9251 133.108 28.5091C133.079 28.0418 133.154 27.5739 133.328 27.1391C133.373 26.9663 133.459 26.8069 133.58 26.6746C133.7 26.5423 133.85 26.4409 134.018 26.3791C134.127 26.3483 134.244 26.3564 134.348 26.402C134.451 26.4476 134.536 26.5279 134.588 26.6291C134.668 26.7791 134.638 26.8891 134.668 26.8991C134.698 26.9091 134.778 26.7991 134.728 26.5791C134.694 26.4419 134.613 26.3213 134.498 26.2391C134.422 26.1853 134.336 26.147 134.245 26.1264C134.154 26.1058 134.06 26.1033 133.968 26.1191C133.738 26.164 133.524 26.2691 133.349 26.4237C133.173 26.5784 133.041 26.777 132.968 26.9991C132.749 27.478 132.653 28.0038 132.688 28.5291C132.674 29.0156 132.806 29.4952 133.066 29.9066C133.326 30.318 133.702 30.6426 134.148 30.8391C134.295 30.878 134.448 30.8828 134.597 30.8534C134.746 30.8239 134.887 30.7609 135.008 30.6691C135.218 30.5591 135.238 30.4391 135.218 30.4291Z" fill="#EB996E"/>
<path d="M133.598 24.4193C134.117 24.3857 134.636 24.4934 135.099 24.7311C135.562 24.9689 135.952 25.3276 136.228 25.7693C136.578 26.5493 136.658 27.4293 137.008 28.2093C137.159 28.6102 137.435 28.952 137.795 29.1842C138.155 29.4165 138.58 29.5269 139.008 29.4994C139.291 29.4105 139.546 29.2479 139.747 29.0283C139.947 28.8087 140.085 28.5399 140.148 28.2494C140.263 27.6683 140.263 27.0704 140.148 26.4893C139.828 23.9393 139.298 21.4193 139.198 18.8493C138.984 16.2709 139.545 13.6874 140.808 11.4293C141.448 10.3108 142.379 9.3865 143.503 8.75445C144.626 8.12239 145.899 7.80618 147.188 7.83935C148.888 7.97935 150.438 8.83934 152.128 9.09934C153.131 9.23068 154.151 9.13239 155.111 8.81191C156.07 8.49143 156.945 7.95714 157.668 7.24935C157.987 6.98078 158.321 6.73039 158.668 6.49935C158.646 5.89567 158.448 5.31159 158.098 4.81934C154.748 1.71934 148.728 0.819353 144.308 1.96935C142.063 2.52256 139.965 3.5578 138.161 5.00318C136.356 6.44856 134.888 8.26944 133.858 10.3393C131.958 14.4793 132.518 20.2293 133.568 24.4193" fill="#263238"/>
<path d="M163.158 10.9393C163.158 10.9393 142.218 4.1993 133.158 22.3193C132.459 20.0405 132.003 17.6941 131.798 15.3193C131.798 13.6993 132.798 4.0293 142.718 0.989297C142.718 1.0293 157.708 -4.69069 163.158 10.9393Z" fill="#00CA90"/>
<path d="M145.158 11.3893C145.53 11.9906 146.036 12.4972 146.638 12.869C147.239 13.2409 147.919 13.4677 148.623 13.5318C149.327 13.5958 150.037 13.4952 150.695 13.2379C151.354 12.9806 151.943 12.5737 152.418 12.0493C152.624 12.57 152.989 13.0129 153.461 13.3156C153.932 13.6184 154.486 13.7658 155.046 13.7371C155.606 13.7084 156.142 13.505 156.58 13.1557C157.018 12.8063 157.335 12.3284 157.488 11.7893C158.047 12.4161 158.727 12.923 159.488 13.2793C159.88 13.4459 160.313 13.4883 160.73 13.4006C161.147 13.313 161.526 13.0996 161.818 12.7893C162.056 12.4271 162.171 11.9971 162.144 11.5642C162.117 11.1313 161.95 10.7189 161.668 10.3893C161.101 9.73263 160.369 9.23901 159.548 8.95926C157.067 7.86885 154.341 7.45483 151.648 7.75926C148.941 8.08445 146.461 9.43342 144.718 11.5293" fill="#263238"/>
<g opacity="0.4">
<path opacity="0.4" d="M163.158 10.9393C161.412 9.11237 159.023 8.03648 156.498 7.93934C150.318 7.66934 138.758 11.1393 133.158 22.3393C132.459 20.0605 132.003 17.7141 131.798 15.3393C131.798 13.7193 132.798 4.04934 142.718 1.00934C142.718 1.02934 157.708 -4.69065 163.158 10.9393Z" fill="black"/>
</g>
<path d="M134.028 20.1992C137.203 15.4704 141.365 11.4856 146.228 8.51917C151.048 5.51917 159.008 2.51918 164.488 1.07918C166.114 0.54187 167.836 0.361104 169.538 0.549186C170.386 0.656518 171.186 1.00047 171.848 1.54165C172.509 2.08283 173.005 2.79937 173.278 3.60918C173.798 5.67918 170.128 8.86918 168.398 10.1192C166.71 11.2481 164.96 12.283 163.158 13.2192C163.158 13.2192 163.208 9.37918 157.068 8.58918C148.718 7.51918 134.028 20.1992 134.028 20.1992Z" fill="#00CA90"/>
<g opacity="0.3">
<path opacity="0.3" d="M126.658 88.2495C128.818 93.4595 130.998 99.8895 134.128 104.58C137.258 109.27 141.438 113.44 146.638 115.58C153.178 118.32 160.908 118.76 167.408 115.96C167.938 115.73 168.978 115.44 168.878 114.87C168.878 114.87 166.728 114.62 166.058 114.51C152.928 112.33 151.498 110.73 145.208 105.73C141.288 102.64 132.598 93.2695 126.658 88.2495Z" fill="black"/>
</g>
<path d="M168.418 126.189C168.285 126.617 168.1 127.027 167.868 127.409C167.285 128.491 166.573 129.499 165.748 130.409C162.965 133.327 159.465 135.461 155.598 136.599C151.744 137.697 147.764 138.292 143.758 138.369C142.228 138.429 140.988 138.439 140.138 138.439C139.694 138.458 139.249 138.438 138.808 138.379C139.241 138.28 139.684 138.229 140.128 138.229L143.738 137.999C147.701 137.817 151.63 137.179 155.448 136.099C159.249 134.969 162.707 132.906 165.508 130.099C166.6 128.891 167.574 127.582 168.418 126.189Z" fill="#263238"/>
<path d="M224.988 250.939C224.945 250.841 224.918 250.736 224.908 250.629C224.908 250.399 224.808 250.089 224.728 249.709C224.578 248.869 224.358 247.709 224.088 246.169C223.538 243.049 222.768 238.599 221.808 233.109C219.938 222.049 217.358 206.819 214.508 189.999C213.238 182.379 212.028 175.099 210.918 168.449L211.178 168.659L182.468 170.729L174.228 171.289L172.028 171.419H171.468H171.268H171.458L172.028 171.349L174.218 171.149L182.448 170.449L211.138 168.159H211.358V168.379C212.478 175.029 213.708 182.309 214.988 189.919C217.778 206.749 220.298 221.989 222.138 233.059C223.018 238.559 223.738 243.059 224.248 246.139L224.788 249.709C224.848 250.089 224.888 250.399 224.918 250.629C224.954 250.729 224.977 250.833 224.988 250.939V250.939Z" fill="#455A64"/>
<path d="M217.898 161.27C217.988 161.39 216.238 162.89 214.258 164.91C212.278 166.93 210.798 168.7 210.678 168.6C212.522 165.659 214.986 163.158 217.898 161.27V161.27Z" fill="#455A64"/>
<path d="M156.598 50.899C156.598 50.899 156.658 51.009 156.718 51.229C156.817 51.5544 156.881 51.8897 156.908 52.229C157.025 53.463 156.861 54.7074 156.428 55.869C155.782 57.6049 154.633 59.1089 153.128 60.189C151.249 61.4753 148.988 62.082 146.718 61.909C144.457 61.7553 142.291 60.9417 140.488 59.569C139.035 58.4523 137.829 57.046 136.948 55.439C136.35 54.3687 135.893 53.226 135.588 52.039C135.488 51.619 135.418 51.289 135.388 51.039C135.358 50.789 135.388 50.689 135.388 50.689C135.852 52.2663 136.485 53.7886 137.278 55.229C138.183 56.7536 139.375 58.0882 140.788 59.159C142.535 60.4528 144.618 61.2166 146.788 61.359C148.945 61.5244 151.095 60.9648 152.898 59.769C154.337 58.7513 155.455 57.3423 156.118 55.709C156.571 54.6029 156.786 53.4137 156.748 52.219C156.678 51.379 156.598 50.919 156.598 50.899Z" fill="#263238"/>
<path d="M170.708 94.5691C170.594 94.246 170.52 93.9102 170.488 93.5691C170.378 92.7791 170.248 91.8191 170.088 90.7091C169.758 88.1591 169.328 84.8791 168.858 81.2491C168.388 77.6191 168.048 74.2491 167.858 71.7691C167.748 70.5591 167.678 69.5691 167.638 68.8891C167.59 68.5374 167.59 68.1808 167.638 67.8291C167.742 68.1543 167.813 68.4894 167.848 68.8291C167.958 69.6191 168.088 70.5691 168.238 71.6891C168.558 74.2391 168.968 77.5191 169.418 81.1491C169.868 84.7791 170.258 88.1491 170.498 90.6191C170.608 91.8391 170.688 92.8191 170.738 93.5091C170.769 93.8624 170.759 94.2181 170.708 94.5691V94.5691Z" fill="#263238"/>
</svg>
