<svg width="53" height="52" viewBox="0 0 53 52" fill="none" xmlns="http://www.w3.org/2000/svg">
<circle cx="26.002" cy="26" r="26" fill="#02A1FC"/>
<path d="M16.6421 24.96H26.0021V26.52H16.6421V24.96Z" fill="#F7F8FA"/>
<path d="M15.082 21.0601H22.882V22.6201H15.082V21.0601Z" fill="#F7F8FA"/>
<path d="M36.8587 25.4326L34.5187 19.9726C34.4586 19.8323 34.3587 19.7126 34.2312 19.6286C34.1038 19.5446 33.9545 19.4998 33.8018 19.4999H31.4618V17.9399C31.4618 17.733 31.3797 17.5346 31.2334 17.3884C31.0871 17.2421 30.8887 17.1599 30.6818 17.1599H18.2018V18.7199H29.9018V28.5136C29.5464 28.72 29.2354 28.9947 28.9866 29.3219C28.7379 29.649 28.5564 30.0222 28.4526 30.4199H23.5511C23.3612 29.6846 22.9097 29.0438 22.2812 28.6176C21.6527 28.1914 20.8904 28.0091 20.137 28.1048C19.3837 28.2005 18.6911 28.5676 18.1891 29.1374C17.6871 29.7072 17.4102 30.4405 17.4102 31.1999C17.4102 31.9593 17.6871 32.6926 18.1891 33.2624C18.6911 33.8322 19.3837 34.1994 20.137 34.295C20.8904 34.3907 21.6527 34.2084 22.2812 33.7822C22.9097 33.356 23.3612 32.7152 23.5511 31.9799H28.4526C28.6223 32.6493 29.0103 33.2431 29.5553 33.6672C30.1004 34.0913 30.7712 34.3216 31.4618 34.3216C32.1524 34.3216 32.8233 34.0913 33.3683 33.6672C33.9134 33.2431 34.3014 32.6493 34.4711 31.9799H36.1418C36.3487 31.9799 36.5471 31.8977 36.6934 31.7515C36.8397 31.6052 36.9218 31.4068 36.9218 31.1999V25.7399C36.9219 25.6342 36.9004 25.5297 36.8587 25.4326ZM20.5418 32.7599C20.2333 32.7599 19.9317 32.6684 19.6752 32.497C19.4186 32.3256 19.2187 32.082 19.1006 31.7969C18.9825 31.5118 18.9516 31.1982 19.0118 30.8956C19.072 30.593 19.2206 30.315 19.4388 30.0968C19.6569 29.8787 19.9349 29.7301 20.2375 29.6699C20.5401 29.6097 20.8538 29.6406 21.1388 29.7587C21.4239 29.8767 21.6675 30.0767 21.8389 30.3332C22.0104 30.5898 22.1018 30.8914 22.1018 31.1999C22.1014 31.6135 21.9369 32.0101 21.6445 32.3025C21.352 32.595 20.9555 32.7595 20.5418 32.7599ZM31.4618 21.0599H33.287L34.9594 24.9599H31.4618V21.0599ZM31.4618 32.7599C31.1533 32.7599 30.8517 32.6684 30.5952 32.497C30.3386 32.3256 30.1387 32.082 30.0206 31.7969C29.9025 31.5118 29.8716 31.1982 29.9318 30.8956C29.992 30.593 30.1406 30.315 30.3588 30.0968C30.5769 29.8787 30.8549 29.7301 31.1575 29.6699C31.4601 29.6097 31.7738 29.6406 32.0588 29.7587C32.3439 29.8767 32.5875 30.0767 32.7589 30.3332C32.9304 30.5898 33.0218 30.8914 33.0218 31.1999C33.0214 31.6135 32.8569 32.0101 32.5645 32.3025C32.272 32.595 31.8755 32.7595 31.4618 32.7599ZM35.3618 30.4199H34.4711C34.2993 29.7518 33.9106 29.1596 33.366 28.7361C32.8214 28.3126 32.1517 28.0818 31.4618 28.0799V26.5199H35.3618V30.4199Z" fill="#F7F8FA"/>
</svg>
