<svg width="72" height="72" viewBox="0 0 72 72" fill="none" xmlns="http://www.w3.org/2000/svg">
<circle cx="36" cy="36" r="36" fill="#D1D5DB"/>
<path d="M57 28.5H45C44.2044 28.5 43.4413 28.8161 42.8787 29.3787C42.3161 29.9413 42 30.7044 42 31.5V54C42 54.7956 42.3161 55.5587 42.8787 56.1213C43.4413 56.6839 44.2044 57 45 57H57C57.7956 57 58.5587 56.6839 59.1213 56.1213C59.6839 55.5587 60 54.7956 60 54V31.5C60 30.7044 59.6839 29.9413 59.1213 29.3787C58.5587 28.8161 57.7956 28.5 57 28.5ZM57 31.5V48H45V31.5H57ZM45 54V50.4H57V54H45Z" fill="#585757"/>
<path d="M39 42H15V18H51V25.5H54V18C54 17.2044 53.6839 16.4413 53.1213 15.8787C52.5587 15.3161 51.7957 15 51 15H15C14.2044 15 13.4413 15.3161 12.8787 15.8787C12.3161 16.4413 12 17.2044 12 18V42C12 42.7956 12.3161 43.5587 12.8787 44.1213C13.4413 44.6839 14.2044 45 15 45H39V42Z" fill="#585757"/>
<path d="M39 48H22.5C22.1022 48 21.7206 48.158 21.4393 48.4393C21.158 48.7206 21 49.1022 21 49.5C21 49.8978 21.158 50.2794 21.4393 50.5607C21.7206 50.842 22.1022 51 22.5 51H39V48Z" fill="#585757"/>
</svg>
