<svg width="404" height="322" viewBox="0 0 404 322" fill="none" xmlns="http://www.w3.org/2000/svg">
<path d="M55.6106 106.602C61.5294 109.583 67.637 109.401 69.2519 106.195C70.8669 102.988 67.3773 97.9727 61.4585 94.9916C55.5398 92.0104 49.4322 92.1924 47.8173 95.3987C46.2023 98.6051 49.6919 103.621 55.6106 106.602Z" fill="#153144"/>
<path d="M384.938 350.854C395.338 324.687 386.664 295.739 364.114 284.381C341.564 273.023 313.087 283.259 298.306 307.22L384.938 350.854Z" fill="#28BB46"/>
<path opacity="0.3" d="M369.372 308.399C372.307 302.572 373.377 296.215 372.883 289.959C370.387 287.951 367.699 286.187 364.737 284.695C341.863 273.174 313.118 283.274 298.306 307.22L339.338 327.886C352.147 326.623 363.639 319.781 369.372 308.399Z" fill="#6B1B2E"/>
<path d="M408.159 362.55C413.541 348.931 408.924 333.823 397.081 327.858C385.238 321.893 370.35 327.177 362.611 339.608L408.159 362.55Z" fill="#28BB46"/>
<path opacity="0.3" d="M400.209 340.543C401.742 337.5 402.288 334.229 401.959 330.918C400.638 329.851 399.181 328.916 397.644 328.142C385.508 322.03 370.379 327.192 362.611 339.608L384.411 350.588C391.185 349.985 397.225 346.469 400.209 340.543Z" fill="#6B1B2E"/>
<path d="M357.8 302.475L343.855 330.162" stroke="#153144" stroke-width="5" stroke-miterlimit="10" stroke-linecap="round" stroke-linejoin="round"/>
<path d="M341.261 299.743L351.053 315.872" stroke="#153144" stroke-width="5" stroke-miterlimit="10" stroke-linecap="round" stroke-linejoin="round"/>
<path d="M346.105 325.696L363.556 322.17" stroke="#153144" stroke-width="5" stroke-miterlimit="10" stroke-linecap="round" stroke-linejoin="round"/>
<path d="M414.313 246.963C436.755 258.267 467.939 241.639 483.964 209.825C499.988 178.01 494.784 143.055 472.342 131.752C449.899 120.448 418.715 137.075 402.691 168.89C386.666 200.704 391.87 235.659 414.313 246.963Z" fill="#28BB46"/>
<path opacity="0.3" d="M402.387 169.493C396.079 182.017 393.001 195.007 392.917 206.912C395.939 211.437 399.834 215.037 404.603 217.44C425.038 227.732 453.582 212.345 468.365 182.996C477.086 165.68 479.021 147.404 474.959 133.206C474.147 132.661 473.225 132.197 472.358 131.76C449.945 120.403 418.595 137.312 402.387 169.493Z" fill="#6B1B2E"/>
<path d="M411.731 364.349L70.227 192.342C65.5356 189.979 63.6481 184.196 66.0267 179.474C68.4053 174.751 74.1751 172.826 78.8666 175.189L89.7593 180.675C93.5341 182.576 98.1661 181.031 100.08 177.231C101.994 173.431 100.478 168.789 96.7037 166.888L57.7702 147.278C53.7258 145.241 52.1308 140.354 54.1813 136.283C56.2318 132.212 61.1077 130.585 65.1521 132.622L73.3486 136.75C79.2264 139.711 86.3777 137.324 89.3578 131.407C92.3378 125.491 89.9984 118.324 84.1206 115.363L57.8594 102.136" stroke="#153144" stroke-width="5" stroke-miterlimit="10" stroke-linecap="round" stroke-linejoin="round"/>
<path d="M77.1501 16.1384C93.1504 9.98981 110.879 18.9193 115.463 35.4358C118.643 46.9622 114.415 59.3802 104.893 66.6164L57.88 102.147L58.4427 43.2206C58.5348 31.2347 65.9959 20.4452 77.1501 16.1384Z" fill="#28BB46"/>
<path d="M71.9997 26.4224C87.9981 20.2546 105.711 29.1761 110.279 45.7026C111.704 50.9129 111.616 56.3139 110.234 61.3354C115.897 54.1137 117.955 44.5323 115.447 35.4413C110.879 18.9149 93.1665 9.99337 77.1681 16.1611C68.3703 19.5575 61.897 26.9153 59.465 35.7641C62.6773 31.6645 66.9373 28.433 71.9997 26.4224Z" fill="#28BB46"/>
<path d="M77.1501 16.1384C93.1504 9.98981 110.879 18.9193 115.463 35.4358C118.643 46.9622 114.415 59.3802 104.893 66.6164L57.88 102.147L58.4427 43.2206C58.5348 31.2347 65.9959 20.4452 77.1501 16.1384Z" stroke="#153144" stroke-width="5" stroke-miterlimit="10" stroke-linecap="round" stroke-linejoin="round"/>
<path d="M81.2513 55.6947C88.1567 59.1728 96.5745 56.3943 100.053 49.4889C103.531 42.5835 100.752 34.1657 93.8468 30.6876C86.9414 27.2095 78.5236 29.9881 75.0455 36.8934C71.5674 43.7988 74.346 52.2166 81.2513 55.6947Z" fill="white"/>
<path d="M81.2513 55.6947C88.1567 59.1728 96.5745 56.3943 100.053 49.4889C103.531 42.5835 100.752 34.1657 93.8468 30.6876C86.9414 27.2095 78.5236 29.9881 75.0455 36.8934C71.5675 43.7988 74.346 52.2166 81.2513 55.6947Z" stroke="#153144" stroke-width="5" stroke-miterlimit="10" stroke-linecap="round" stroke-linejoin="round"/>
<path d="M369.773 215.451C374.443 212.12 377.293 207.749 376.138 205.687C374.983 203.626 370.26 204.656 365.59 207.987C360.92 211.319 358.07 215.69 359.225 217.752C360.38 219.813 365.103 218.783 369.773 215.451Z" stroke="#153144" stroke-width="5" stroke-miterlimit="10" stroke-linecap="round" stroke-linejoin="round"/>
<path d="M422.856 231.112L413.971 210.961" stroke="#153144" stroke-width="5" stroke-miterlimit="10" stroke-linecap="round" stroke-linejoin="round"/>
<path d="M443.549 190.029L367.076 341.858" stroke="#153144" stroke-width="5" stroke-miterlimit="10" stroke-linecap="round" stroke-linejoin="round"/>
<path d="M249.252 147.031C249.252 147.031 238.107 153.087 236.889 153.514C235.67 153.942 213.081 146.594 213.081 146.594L206.631 153.556C206.631 153.556 233.647 164.732 237.304 163.448C240.961 162.164 252.151 156.548 252.151 156.548L249.252 147.031Z" fill="white"/>
<path d="M249.254 147.032C249.254 147.032 238.056 153.061 236.831 153.485C235.605 153.91 210.421 145.254 210.421 145.254L203.952 152.206C203.952 152.206 233.551 164.684 237.228 163.41C240.905 162.136 252.151 156.548 252.151 156.548L249.254 147.032Z" stroke="#153144" stroke-width="5" stroke-miterlimit="10" stroke-linecap="round" stroke-linejoin="round"/>
<path d="M245.613 280.679C263.37 289.623 285.015 282.479 293.959 264.722C302.903 246.965 295.758 225.319 278.001 216.376C260.244 207.432 238.599 214.577 229.655 232.333C220.711 250.09 227.856 271.736 245.613 280.679Z" fill="white"/>
<path d="M148.264 231.647C166.021 240.591 187.667 233.446 196.61 215.689C205.554 197.932 198.409 176.287 180.652 167.343C162.896 158.399 141.25 165.544 132.306 183.301C123.363 201.058 130.507 222.703 148.264 231.647Z" fill="white"/>
<path d="M148.264 231.647C166.021 240.591 187.667 233.446 196.61 215.689C205.554 197.932 198.409 176.287 180.652 167.343C162.896 158.399 141.25 165.544 132.306 183.301C123.363 201.058 130.507 222.703 148.264 231.647Z" stroke="#153144" stroke-width="5" stroke-miterlimit="10" stroke-linecap="round" stroke-linejoin="round"/>
<path d="M153.219 219.587C141.395 213.631 136.625 199.18 142.58 187.356C148.536 175.532 162.987 170.762 174.811 176.717C186.635 182.673 191.405 197.124 185.45 208.948C179.494 220.772 165.043 225.542 153.219 219.587Z" fill="#90CAF8"/>
<path d="M139.711 199.347C139.628 195.494 140.464 191.559 142.323 187.867C145.96 180.647 152.656 176.057 160.059 174.885" stroke="#153144" stroke-width="5" stroke-miterlimit="10" stroke-linecap="round" stroke-linejoin="round"/>
<path d="M181.017 195.519C181.926 199.324 181.557 203.339 179.685 207.056C178.709 208.993 177.401 210.632 175.898 211.975" stroke="#153144" stroke-width="5" stroke-miterlimit="10" stroke-linecap="round" stroke-linejoin="round"/>
<path d="M164.458 199.495L206.631 153.556" stroke="#153144" stroke-width="5" stroke-miterlimit="10" stroke-linecap="round" stroke-linejoin="round"/>
<path d="M161.766 202.618C159.826 201.641 159.119 198.981 160.217 196.799C161.316 194.618 163.875 193.603 165.814 194.58C167.753 195.556 168.461 198.216 167.362 200.398C166.263 202.58 163.705 203.594 161.766 202.618Z" fill="#28BB46"/>
<path d="M161.766 202.618C159.826 201.641 159.119 198.981 160.217 196.799C161.316 194.618 163.875 193.603 165.814 194.58C167.753 195.556 168.461 198.216 167.362 200.398C166.263 202.58 163.705 203.594 161.766 202.618Z" stroke="#153144" stroke-width="5" stroke-miterlimit="10" stroke-linecap="round" stroke-linejoin="round"/>
<path d="M245.613 280.679C263.37 289.623 285.015 282.479 293.959 264.722C302.903 246.965 295.758 225.319 278.001 216.376C260.244 207.432 238.599 214.577 229.655 232.333C220.711 250.09 227.856 271.736 245.613 280.679Z" stroke="#153144" stroke-width="5" stroke-miterlimit="10" stroke-linecap="round" stroke-linejoin="round"/>
<path d="M251.908 269.294C239.837 263.214 234.867 248.662 240.823 236.838C246.778 225.014 261.429 220.345 273.5 226.425C285.57 232.504 290.54 247.056 284.585 258.88C278.629 270.704 263.978 275.373 251.908 269.294Z" fill="#90CAF8"/>
<path d="M277.069 229.342C286.275 236.391 289.505 249.111 284.135 259.773" stroke="#153144" stroke-width="5" stroke-miterlimit="10" stroke-linecap="round" stroke-linejoin="round"/>
<path d="M251.481 262.361C247.856 259.589 245.553 255.524 244.805 251.161" stroke="#153144" stroke-width="5" stroke-miterlimit="10" stroke-linecap="round" stroke-linejoin="round"/>
<path d="M201.656 163.434L208.521 222.808L261.385 249.366L254.519 189.992L201.656 163.434Z" stroke="#153144" stroke-width="5" stroke-miterlimit="10" stroke-linecap="round" stroke-linejoin="round"/>
<path d="M252.732 140.946C260.377 144.796 269.797 141.52 273.772 133.628C277.747 125.736 274.772 116.217 267.126 112.366C259.481 108.515 250.061 111.791 246.086 119.683C242.111 127.575 245.086 137.095 252.732 140.946Z" fill="white"/>
<path d="M268.433 124.221L248.712 138.921" stroke="#153144" stroke-width="5" stroke-miterlimit="10" stroke-linecap="round" stroke-linejoin="round"/>
<path d="M252.732 140.946C260.377 144.796 269.797 141.52 273.772 133.628C277.747 125.736 274.772 116.217 267.126 112.366C259.481 108.515 250.061 111.791 246.086 119.683C242.111 127.575 245.086 137.095 252.732 140.946Z" stroke="#153144" stroke-width="5" stroke-miterlimit="10" stroke-linecap="round" stroke-linejoin="round"/>
<path d="M279.065 132.935C282.881 128.198 284.627 122.974 283.556 118.204C281.257 108.029 266.562 103.124 250.084 107.171C245.568 108.295 241.401 109.941 237.639 112L279.093 132.88L279.065 132.935Z" fill="#CE2951"/>
<path d="M283.528 118.187C282.05 111.892 275.883 107.607 267.463 106.14C271.281 108.341 273.904 111.397 274.78 115.168C275.793 119.632 274.421 124.422 271.11 128.928L279.08 132.942C282.89 128.132 284.651 122.984 283.528 118.187Z" fill="#AD254C"/>
<path d="M279.065 132.935C282.881 128.198 284.627 122.974 283.556 118.204C281.256 108.029 266.562 103.124 250.084 107.171C245.568 108.295 241.401 109.941 237.639 112L279.093 132.88L279.065 132.935Z" stroke="#153144" stroke-width="5" stroke-miterlimit="10" stroke-linecap="round" stroke-linejoin="round"/>
<path d="M234.756 188.996C234.756 188.996 228.537 190.182 226.101 190.905C223.666 191.629 209.741 221.184 209.741 221.184L218.12 225.404C218.12 225.404 232.649 203.606 234.302 203.115C235.867 202.65 243.876 201.878 243.876 201.878L234.756 188.996Z" fill="white"/>
<path d="M234.756 188.996C234.756 188.996 228.537 190.182 226.101 190.905C223.666 191.629 209.741 221.184 209.741 221.184L218.12 225.404C218.12 225.404 232.649 203.606 234.302 203.115C235.867 202.65 243.876 201.878 243.876 201.878L234.756 188.996Z" stroke="#153144" stroke-width="5" stroke-miterlimit="10" stroke-linecap="round" stroke-linejoin="round"/>
<path d="M248.993 147.256L251.44 159.926L256.721 157.674L258.378 183.2L283.869 198.057C283.869 198.057 280.824 161.741 275.716 151.566C270.608 141.391 264.881 142.005 262.095 142.889C259.362 143.8 248.993 147.256 248.993 147.256Z" fill="#90CAF8"/>
<path d="M266.457 188.167C273.291 171.011 271.252 153.025 261.921 142.215C258.996 143.282 249.194 146.859 249.194 146.859L251.298 159.591L256.503 157.2L257.548 182.924L266.457 188.167Z" fill="#74BAE8"/>
<path d="M248.993 147.256L251.44 159.926L256.721 157.674L257.568 184.809L283.869 198.057C283.869 198.057 280.824 161.741 275.716 151.566C270.608 141.391 264.881 142.005 262.095 142.889C259.362 143.8 248.993 147.256 248.993 147.256Z" stroke="#153144" stroke-width="5" stroke-miterlimit="10" stroke-linecap="round" stroke-linejoin="round"/>
<path d="M217.126 234.98L199.263 225.983L200.647 223.237C201.879 220.791 204.905 219.811 207.532 220.947L221.121 226.915L217.073 234.953L217.126 234.98Z" fill="#153144"/>
<path d="M217.126 234.98L199.263 225.983L200.647 223.237C201.879 220.791 204.905 219.811 207.532 220.947L221.121 226.915L217.073 234.953L217.126 234.98Z" stroke="#153144" stroke-width="5" stroke-miterlimit="10" stroke-linecap="round" stroke-linejoin="round"/>
<path d="M234.124 187.893L241.891 203.786C241.891 203.786 273.574 208.237 283.869 198.057C263.262 187.678 257.134 184.591 257.134 184.591L234.124 187.893Z" fill="#CE2951"/>
<path opacity="0.63" d="M266.007 189.06C259.264 185.664 256.909 184.478 256.909 184.478L234.086 187.968L235.906 191.814C236.603 192.029 237.3 192.244 238.05 192.485C249.633 195.595 260.694 194.014 266.007 189.06Z" fill="#AD254C"/>
<path d="M234.124 187.893L241.891 203.786C241.891 203.786 273.574 208.237 283.869 198.057C263.262 187.678 257.134 184.591 257.134 184.591L234.124 187.893Z" stroke="#153144" stroke-width="5" stroke-miterlimit="10" stroke-linecap="round" stroke-linejoin="round"/>
<path d="M260.005 253.218C257.823 252.119 256.911 249.356 258.01 247.175C259.109 244.993 261.871 244.081 264.053 245.18C266.235 246.279 267.147 249.042 266.048 251.223C264.949 253.405 262.186 254.317 260.005 253.218Z" fill="#28BB46"/>
<path d="M260.005 253.218C257.823 252.119 256.911 249.356 258.01 247.175C259.109 244.993 261.871 244.081 264.053 245.18C266.235 246.279 267.147 249.042 266.048 251.223C264.949 253.405 262.186 254.317 260.005 253.218Z" stroke="#153144" stroke-width="5" stroke-miterlimit="10" stroke-linecap="round" stroke-linejoin="round"/>
<path d="M310.442 134.183L314.908 136.432" stroke="#153144" stroke-width="5" stroke-miterlimit="10" stroke-linecap="round" stroke-linejoin="round"/>
<path d="M276.504 117.089L303.297 130.584" stroke="#153144" stroke-width="5" stroke-miterlimit="10" stroke-linecap="round" stroke-linejoin="round"/>
<path d="M271.598 264.656L310.002 283.999" stroke="#153144" stroke-width="5" stroke-miterlimit="10" stroke-linecap="round" stroke-linejoin="round"/>
<path d="M328.837 266.613L332.409 268.412" stroke="#153144" stroke-width="5" stroke-miterlimit="10" stroke-linecap="round" stroke-linejoin="round"/>
<path d="M306.509 255.367L320.799 262.564" stroke="#153144" stroke-width="5" stroke-miterlimit="10" stroke-linecap="round" stroke-linejoin="round"/>
<path d="M297.384 164.555L317.033 174.452" stroke="#153144" stroke-width="5" stroke-miterlimit="10" stroke-linecap="round" stroke-linejoin="round"/>
<path d="M162.353 154.767L143.598 145.321" stroke="#153144" stroke-width="5" stroke-miterlimit="10" stroke-linecap="round" stroke-linejoin="round"/>
<path d="M182.928 153.933L173.104 148.985" stroke="#153144" stroke-width="5" stroke-miterlimit="10" stroke-linecap="round" stroke-linejoin="round"/>
</svg>
