<svg width="53" height="53" viewBox="0 0 53 53" fill="none" xmlns="http://www.w3.org/2000/svg">
<circle cx="26.002" cy="26.8752" r="26" fill="#F9BE00"/>
<path d="M16.6987 24.795H18.7216C19.8704 24.795 20.8016 25.7263 20.8016 26.875V27.915C20.8016 29.0637 21.7329 29.995 22.8816 29.995C24.0304 29.995 24.9616 30.9262 24.9616 32.075V35.1378M21.8416 17.448V19.0751C21.8416 20.511 23.0057 21.6751 24.4416 21.6751H24.9616C26.1104 21.6751 27.0416 22.6063 27.0416 23.755C27.0416 24.9038 27.9729 25.835 29.1216 25.835C30.2704 25.835 31.2016 24.9038 31.2016 23.755C31.2016 22.6063 32.1329 21.6751 33.2816 21.6751L34.3887 21.675M29.1216 34.6623V32.075C29.1216 30.9262 30.0529 29.995 31.2016 29.995H34.3887M35.3616 25.835C35.3616 31.0044 31.171 35.1949 26.0016 35.1949C20.8322 35.1949 16.6416 31.0044 16.6416 25.835C16.6416 20.6657 20.8322 16.4751 26.0016 16.4751C31.171 16.4751 35.3616 20.6657 35.3616 25.835Z" stroke="#F7F8FA" stroke-width="2" stroke-linecap="round" stroke-linejoin="round"/>
</svg>
