<svg width="160" height="160" viewBox="0 0 160 160" fill="none" xmlns="http://www.w3.org/2000/svg">
<path d="M160 80.0002C160 62.3433 154.159 45.1824 143.386 31.1923C132.614 17.2023 117.515 7.16917 100.445 2.65674L94.3115 25.8598C106.261 29.0185 116.83 36.0417 124.37 45.8347C131.911 55.6277 136 67.6403 136 80.0002H160Z" fill="#E94235"/>
<path d="M100.445 2.65658C86.8094 -0.947837 72.4633 -0.88336 58.8607 2.84348C45.2581 6.57031 32.8825 13.827 22.9883 23.8781C13.0941 33.9292 6.03292 46.4174 2.52051 60.077C-0.991898 73.7365 -0.830719 88.0818 2.98774 101.659L26.0914 95.1613C23.4185 85.6573 23.3057 75.6155 25.7643 66.0539C28.223 56.4922 33.1658 47.7505 40.0918 40.7147C47.0178 33.6789 55.6807 28.5992 65.2025 25.9904C74.7243 23.3816 84.7666 23.3365 94.3115 25.8596L100.445 2.65658Z" fill="#17BF6B"/>
<path d="M2.98773 101.659C8.21934 120.261 20.0071 136.341 36.1729 146.927C52.3386 157.513 71.7898 161.89 90.932 159.25C110.074 156.609 127.614 147.129 140.31 132.562C153.006 117.994 160 99.3235 160 80H136C136 93.5265 131.104 106.596 122.217 116.793C113.33 126.99 101.052 133.626 87.6524 135.475C74.2528 137.323 60.6371 134.259 49.321 126.849C38.005 119.438 29.7536 108.183 26.0914 95.1613L2.98773 101.659Z" fill="#F9BE00"/>
</svg>
