<svg width="288" height="288" viewBox="0 0 288 288" fill="none" xmlns="http://www.w3.org/2000/svg">
<path d="M210.095 81.573H181.209V123.442H210.095V81.573Z" fill="#E0E0E0"/>
<path d="M208.65 81.573H179.764V123.442H208.65V81.573Z" fill="#F5F5F5"/>
<path d="M205.062 86.1062H183.353V118.909H205.062V86.1062Z" fill="white"/>
<path d="M205.056 118.904C205.056 118.904 205.056 118.852 205.056 118.748V118.282C205.056 117.867 205.056 117.268 205.056 116.484C205.056 114.912 205.056 112.619 205.056 109.722C205.056 103.962 205.056 95.7484 205.021 86.1062L205.09 86.1753H183.387L183.467 86.0947C183.467 98.4672 183.467 109.878 183.467 118.892L183.404 118.835H199.209H203.57H205.056H204.676H203.524H199.169H183.329H183.266V118.771C183.266 109.757 183.266 98.3462 183.266 85.9737V85.8931H205.125V85.9679C205.125 95.6332 205.096 103.824 205.09 109.636C205.09 112.516 205.09 114.82 205.09 116.375C205.09 117.153 205.09 117.752 205.09 118.161V118.616C205.089 118.713 205.077 118.809 205.056 118.904Z" fill="#E0E0E0"/>
<path d="M208.731 81.573C208.583 81.8374 208.411 82.088 208.218 82.3218C207.884 82.7653 207.406 83.3759 206.865 84.0498C206.323 84.7237 205.811 85.294 205.436 85.7087C205.241 85.9429 205.028 86.1606 204.797 86.3596C204.971 86.1056 205.163 85.8649 205.373 85.6396L206.767 83.9519L208.155 82.2642C208.326 82.0173 208.519 81.786 208.731 81.573Z" fill="#E0E0E0"/>
<path d="M205.171 118.8C206.253 120.515 207.524 122.103 208.961 123.535L205.171 118.8Z" fill="white"/>
<path d="M208.961 123.535C208.72 123.367 208.498 123.174 208.299 122.959C207.795 122.446 207.319 121.907 206.87 121.346C206.421 120.793 206.002 120.216 205.614 119.618C205.44 119.375 205.291 119.114 205.171 118.84C205.37 119.062 205.549 119.301 205.707 119.555C206.023 120.004 206.473 120.614 206.991 121.283C207.509 121.951 208.016 122.509 208.379 122.918C208.588 123.109 208.782 123.315 208.961 123.535Z" fill="#E0E0E0"/>
<path d="M179.764 123.408L183.542 118.742L179.764 123.408Z" fill="white"/>
<path d="M183.542 118.742C182.975 119.567 182.366 120.361 181.716 121.121C180.668 122.412 179.792 123.425 179.764 123.425C180.33 122.599 180.939 121.803 181.59 121.041C182.201 120.242 182.853 119.475 183.542 118.742Z" fill="#E0E0E0"/>
<path d="M179.764 81.573C180.417 82.2694 181.03 83.0021 181.601 83.7676C182.217 84.5051 182.793 85.2742 183.329 86.0716C182.676 85.3752 182.062 84.6425 181.492 83.877C180.873 83.1417 180.296 82.3725 179.764 81.573Z" fill="#E0E0E0"/>
<path d="M198.299 92.7646H191.03V113.403H198.299V92.7646Z" fill="#E0E0E0"/>
<path d="M152.64 198.72C151.326 199.154 150.113 199.848 149.074 200.762C148.035 201.675 147.19 202.789 146.592 204.036C145.411 206.542 144.82 209.285 144.864 212.054C144.794 217.394 147.104 223.085 149.788 227.698C154.713 224.392 156.591 217.78 157.334 214.364C158.486 208.961 157.334 198.495 152.645 198.72" fill="#F5F5F5"/>
<path d="M143.533 235.739C144.028 234.272 144.126 232.699 143.816 231.182C143.507 229.664 142.801 228.256 141.771 227.099C140.724 225.963 139.462 225.047 138.058 224.405C136.653 223.762 135.135 223.405 133.591 223.355C132.169 223.281 130.59 223.499 129.634 224.559C129.218 225.082 128.949 225.706 128.855 226.367C128.761 227.028 128.845 227.703 129.099 228.321C129.624 229.553 130.467 230.624 131.541 231.425C135.072 234.305 139.029 236.477 143.533 235.728" fill="#F5F5F5"/>
<path d="M147.226 248.573C147.292 247.395 147.238 246.214 147.064 245.048C146.924 243.765 146.63 242.504 146.189 241.292C145.695 239.802 145.104 238.345 144.42 236.932C143.159 234.336 141.275 232.092 138.937 230.4C138.213 229.906 137.441 229.487 136.633 229.15C136.344 229.011 136.035 228.922 135.717 228.885C135.671 228.983 136.955 229.461 138.666 230.74C140.853 232.482 142.624 234.69 143.85 237.202C144.521 238.594 145.115 240.02 145.63 241.476C146.08 242.649 146.409 243.865 146.609 245.105C146.966 247.242 147.133 248.584 147.226 248.573Z" fill="#E0E0E0"/>
<path d="M152.819 206.784C152.634 207.347 152.499 207.925 152.415 208.512C152.196 209.664 151.903 211.277 151.557 213.298C150.86 217.33 149.967 222.941 149.126 229.15C148.285 235.359 147.692 240.998 147.346 245.094C147.174 247.139 147.053 248.792 146.989 249.938C146.921 250.531 146.91 251.129 146.955 251.723C147.094 251.145 147.183 250.555 147.22 249.961C147.364 248.711 147.548 247.081 147.796 245.134C148.251 241.056 148.913 235.428 149.748 229.231C150.584 223.033 151.413 217.526 152.001 213.362C152.277 211.415 152.502 209.791 152.674 208.552C152.773 207.968 152.821 207.376 152.819 206.784Z" fill="#E0E0E0"/>
<path d="M149.962 238.608C151.322 235.646 153.369 233.051 155.932 231.038C158.496 229.024 161.502 227.651 164.702 227.031C166.326 226.731 168.33 226.789 169.223 228.183C170.116 229.576 169.333 231.431 168.348 232.79C166.24 235.531 163.368 237.587 160.095 238.699C156.821 239.811 153.291 239.93 149.95 239.04" fill="#F5F5F5"/>
<path d="M162.432 231.322C162.118 231.336 161.809 231.403 161.516 231.517C160.94 231.679 160.105 231.961 159.097 232.335C156.431 233.304 153.967 234.757 151.828 236.621C150.675 237.686 149.702 238.931 148.948 240.307C148.345 241.437 147.901 242.644 147.629 243.896C147.444 244.733 147.336 245.585 147.306 246.442C147.253 246.752 147.253 247.07 147.306 247.38C147.427 247.38 147.473 246.05 148.009 243.999C148.713 241.329 150.173 238.919 152.214 237.058C154.31 235.249 156.683 233.787 159.241 232.727C161.228 231.869 162.478 231.414 162.432 231.322Z" fill="#E0E0E0"/>
<path d="M262.42 97.7817C262.42 97.7817 256.383 96.0019 253.941 109.878C251.499 123.754 251.303 131.397 251.303 131.397C251.303 131.397 250.456 134.41 248.221 133.292C245.987 132.175 242.191 128.241 239.512 129.98C236.73 131.783 236.771 135.492 238.885 140.308C240.998 145.123 245.221 155.86 245.612 156.827C246.004 157.795 245.866 159.391 244.224 158.878C242.582 158.365 232.128 152.064 229.421 157.248C226.714 162.432 234.812 174.851 235.67 176.256C236.529 177.661 236.431 178.364 235.832 178.952C235.233 179.539 231.915 177.091 228.862 175.421C225.809 173.75 221.979 172.351 220.677 175.45C219.375 178.548 221.829 188.997 236.701 202.654L243.994 208.529L252.824 205.281C271.296 197.171 277.016 188.093 276.797 184.735C276.578 181.377 272.488 181.44 269.061 182.016C265.634 182.592 261.7 183.853 261.32 183.099C260.94 182.344 261.089 181.624 262.351 180.599C263.612 179.574 275.299 170.404 274.418 164.661C273.537 158.918 261.59 161.493 259.868 161.447C258.146 161.401 258.561 159.84 259.217 159.062C259.874 158.285 267.379 149.489 270.939 145.613C274.499 141.736 275.737 138.246 273.692 135.636C271.722 133.119 266.849 135.636 264.378 135.947C261.907 136.259 262.074 133.16 262.074 133.16C262.074 133.16 264.378 125.867 266.55 111.94C268.721 98.0121 262.287 97.7702 262.287 97.7702" fill="#28BB46"/>
<path d="M260.214 110.218C260.214 110.218 260.214 110.315 260.185 110.511L260.064 111.37C259.949 112.136 259.782 113.247 259.575 114.664C259.143 117.544 258.492 121.668 257.668 126.76C256.021 136.984 253.636 151.085 250.935 166.654C248.233 182.223 245.808 196.318 244.109 206.531C243.262 211.628 242.577 215.746 242.105 218.627C241.868 220.043 241.684 221.149 241.529 221.915C241.465 222.278 241.419 222.561 241.379 222.768C241.338 222.975 241.315 223.056 241.315 223.056C241.315 223.056 241.315 222.958 241.35 222.762C241.385 222.566 241.419 222.273 241.465 221.904C241.58 221.138 241.747 220.026 241.955 218.609C242.387 215.729 243.038 211.605 243.861 206.513C245.509 196.289 247.893 182.183 250.601 166.614C253.308 151.044 255.744 136.955 257.472 126.72C258.313 121.622 258.999 117.504 259.477 114.624L260.024 111.335L260.174 110.482C260.183 110.394 260.196 110.305 260.214 110.218Z" fill="#E0E0E0"/>
<path d="M244.604 135.717C244.761 135.88 244.9 136.059 245.018 136.253C245.272 136.61 245.594 137.134 246.044 137.785C246.89 139.092 248.013 140.924 249.212 142.969L252.259 148.228L253.186 149.812C253.318 149.988 253.424 150.182 253.503 150.388C253.342 150.228 253.201 150.05 253.082 149.858C252.835 149.501 252.506 148.977 252.069 148.32C251.233 147.001 250.133 145.152 248.935 143.107L245.853 137.871C245.485 137.249 245.168 136.719 244.915 136.287C244.786 136.112 244.682 135.92 244.604 135.717Z" fill="#E0E0E0"/>
<path d="M254.378 150.336C254.327 150.261 258.007 147.784 262.598 144.795C267.189 141.805 270.938 139.449 270.99 139.519C271.042 139.588 267.356 142.076 262.771 145.06C258.186 148.043 254.425 150.399 254.378 150.336Z" fill="#E0E0E0"/>
<path d="M249.16 174.044C249.368 173.942 249.586 173.863 249.811 173.808L251.608 173.261C253.123 172.794 255.22 172.149 257.501 171.349C259.782 170.548 261.832 169.77 263.312 169.189L265.04 168.503C265.25 168.401 265.473 168.327 265.703 168.284C265.512 168.415 265.307 168.525 265.092 168.613C264.689 168.808 264.107 169.079 263.364 169.396C261.913 170.029 259.874 170.853 257.604 171.648C255.335 172.443 253.204 173.065 251.672 173.474C250.9 173.676 250.278 173.831 249.84 173.929C249.619 173.994 249.391 174.033 249.16 174.044Z" fill="#E0E0E0"/>
<path d="M237.41 162.778C237.594 162.887 237.765 163.019 237.917 163.169C238.228 163.434 238.677 163.826 239.219 164.321C240.313 165.306 241.805 166.677 243.441 168.204C245.077 169.73 246.546 171.13 247.6 172.155C248.124 172.662 248.544 173.082 248.832 173.376C248.991 173.519 249.134 173.68 249.258 173.854C249.072 173.75 248.901 173.62 248.752 173.468C248.435 173.203 247.991 172.806 247.444 172.316C246.355 171.337 244.858 169.966 243.222 168.434C241.586 166.902 240.117 165.508 239.069 164.488C238.539 163.976 238.119 163.561 237.831 163.261C237.67 163.119 237.529 162.956 237.41 162.778Z" fill="#E0E0E0"/>
<path d="M230.141 183.133C230.373 183.278 230.59 183.448 230.786 183.64L232.462 185.109C233.867 186.359 235.791 188.098 237.911 190.04C240.031 191.981 241.943 193.749 243.297 195.039L244.904 196.583C245.114 196.755 245.307 196.948 245.48 197.159C245.25 197.009 245.034 196.84 244.834 196.652L243.158 195.183C241.753 193.933 239.829 192.188 237.709 190.253C235.59 188.317 233.677 186.543 232.329 185.253L230.705 183.744C230.496 183.561 230.307 183.356 230.141 183.133Z" fill="#E0E0E0"/>
<path d="M245.191 196.739C245.452 196.61 245.724 196.504 246.004 196.422L248.261 195.644C250.162 194.988 252.789 194.072 255.663 192.983C258.537 191.894 261.112 190.846 262.967 190.074L265.173 189.158C265.438 189.034 265.713 188.933 265.996 188.859C265.755 189.024 265.496 189.163 265.225 189.274C264.718 189.521 263.98 189.85 263.059 190.276C261.221 191.105 258.652 192.188 255.772 193.277C252.892 194.365 250.254 195.264 248.331 195.84C247.369 196.14 246.603 196.37 246.027 196.52C245.756 196.62 245.476 196.693 245.191 196.739Z" fill="#E0E0E0"/>
<path d="M59.8117 220.81C73.1115 213.218 77.4315 197.274 78.2437 182.661C78.3819 180.219 78.883 177.684 77.9211 175.444C76.9592 173.203 74.396 171.498 72.1266 172.322C70.2431 173.007 69.2466 175.035 68.0946 176.682C66.5314 178.875 64.3811 180.582 61.891 181.607C60.2667 182.269 58.3083 182.58 56.8568 181.607C54.8638 180.253 54.8811 177.333 55.1288 174.92C55.5858 170.404 56.0255 165.896 56.4479 161.395C56.684 158.982 56.9202 156.511 56.3787 154.149C55.8373 151.787 54.3685 149.495 52.1278 148.643C49.8872 147.79 46.9151 148.85 46.2123 151.177C45.9243 152.145 46.028 153.181 45.8725 154.178C45.717 155.174 45.141 156.246 44.1445 156.442C43.148 156.637 42.2495 155.866 41.5928 155.088C39.2888 152.415 37.9122 149.115 36.6162 145.837C35.3202 142.56 34.076 139.225 32.0543 136.351C30.0325 133.476 27.0949 131.086 23.6504 130.591C20.2059 130.095 16.3179 131.881 15.1314 135.199C13.9448 138.516 15.6095 142.168 17.5218 145.129C20.3741 149.51 23.8427 153.458 27.8207 156.851C28.5349 157.461 29.3067 158.123 29.5487 159.045C29.9231 160.704 28.2469 162.167 26.6111 162.553C24.7506 162.985 22.8095 162.616 20.9086 162.668C19.0079 162.72 16.8767 163.359 16.0069 165.082C14.7858 167.46 16.6175 170.266 18.4952 172.126C22.2584 175.9 26.6447 178.996 31.461 181.279C33.189 182.091 34.9976 182.834 36.3167 184.216C37.6357 185.599 38.3039 187.851 37.2843 189.475C36.2648 191.1 33.9839 191.445 32.1522 190.927C30.3205 190.408 28.748 189.245 27.0315 188.415C23.8232 186.854 19.509 186.687 17.1186 189.366C15.5461 191.128 15.1832 193.743 15.6843 196.059C16.1855 198.374 17.4411 200.448 18.8005 202.395C23.5525 209.134 29.9115 214.79 37.3823 218.171C44.853 221.553 51.9205 222.929 59.8463 220.833" fill="#28BB46"/>
<path d="M59.0168 231.627C58.9558 224.809 58.2441 218.012 56.8913 211.329C55.1972 203.169 53.0376 195.113 50.4228 187.2L48.3838 180.973C47.7156 178.929 47.0532 176.901 46.2814 174.954C44.7974 171.225 43.1071 167.581 41.2184 164.039C39.4385 160.646 37.6299 157.49 35.9134 154.552C34.1969 151.615 32.5323 148.907 30.9195 146.488C28.3883 142.692 25.5609 139.102 22.4638 135.752C21.3694 134.565 20.4939 133.672 19.8891 133.073L19.1979 132.399C19.1214 132.32 19.0386 132.247 18.9502 132.18C19.0151 132.268 19.0863 132.351 19.1633 132.428L19.8257 133.137C20.4017 133.753 21.2657 134.669 22.3371 135.873C25.3783 139.265 28.1606 142.881 30.6603 146.69C32.2558 149.092 33.8916 151.805 35.5966 154.754C37.3016 157.703 39.0987 160.859 40.8612 164.246C42.7358 167.772 44.4182 171.397 45.9012 175.104C46.6616 177.039 47.3182 179.05 47.9806 181.1C48.643 183.151 49.3169 185.224 50.0024 187.332C52.608 195.226 54.7733 203.258 56.4881 211.392C57.854 218.047 58.5945 224.816 58.7 231.61" fill="#E0E0E0"/>
<path d="M46.1777 174.925C46.3307 174.605 46.4429 174.266 46.5118 173.917C46.7019 173.261 46.9381 172.305 47.2203 171.112C47.7963 168.733 48.4472 165.427 49.1672 161.775C49.8872 158.124 50.5957 154.835 51.1947 152.473C51.4885 151.321 51.7361 150.336 51.9205 149.679C52.0329 149.343 52.1101 148.995 52.1509 148.643C51.9801 148.954 51.8467 149.285 51.7534 149.628C51.523 150.273 51.2235 151.217 50.8894 152.392C50.2097 154.737 49.4494 158.031 48.7294 161.689L46.9093 171.072C46.6846 172.195 46.4945 173.146 46.3333 173.906C46.2494 174.24 46.1973 174.581 46.1777 174.925Z" fill="#E0E0E0"/>
<path d="M15.6152 166.268C16.016 166.39 16.4264 166.477 16.8421 166.527C17.637 166.671 18.7832 166.873 20.1887 167.173C23.0111 167.749 26.876 168.659 31.0981 169.862C35.3202 171.066 39.093 172.333 41.8002 173.318C43.1538 173.802 44.2424 174.223 44.9912 174.511C45.3725 174.685 45.7699 174.822 46.1778 174.92C45.8252 174.691 45.4509 174.498 45.0604 174.344C44.3288 174.004 43.2575 173.537 41.9096 173.013C39.2255 171.942 35.4584 170.634 31.2191 169.419C27.6082 168.372 23.9457 167.513 20.2463 166.844C18.8293 166.591 17.6716 166.435 16.8709 166.343C16.456 166.276 16.0353 166.25 15.6152 166.268Z" fill="#E0E0E0"/>
<path d="M56.5576 210.724C56.6578 210.616 56.7412 210.493 56.8053 210.361L57.4447 209.284C58.0207 208.351 58.7464 206.98 59.6565 205.252C61.4824 201.83 63.8613 197.021 66.4072 191.675C68.9531 186.33 71.2802 181.503 73.037 178.047L75.1221 173.958L75.6981 172.84C75.769 172.713 75.8251 172.577 75.8651 172.437C75.7679 172.545 75.6847 172.665 75.6175 172.794L74.9839 173.871C74.4367 174.81 73.6821 176.175 72.7663 177.903C70.9403 181.33 68.5672 186.14 66.0155 191.485C63.4639 196.831 61.1426 201.652 59.3915 205.114L57.3007 209.203L56.7247 210.321C56.6506 210.447 56.5944 210.582 56.5576 210.724Z" fill="#E0E0E0"/>
<path d="M16.4561 193.617C16.5778 193.705 16.7117 193.774 16.8535 193.824L18.0055 194.337L22.2967 196.18C25.9255 197.729 30.9367 199.935 36.4087 202.378C41.8807 204.82 46.9149 206.986 50.5783 208.46C52.4042 209.203 53.8903 209.785 54.9271 210.188L56.1194 210.626C56.2564 210.682 56.3994 210.723 56.5457 210.747C56.4266 210.658 56.2945 210.588 56.154 210.54L55.002 210.027L50.6877 208.166C47.0589 206.611 42.0477 204.405 36.5757 201.963C31.1037 199.521 26.0637 197.355 22.4061 195.88C20.5802 195.143 19.0941 194.556 18.0573 194.152L16.865 193.72C16.7332 193.67 16.596 193.635 16.4561 193.617Z" fill="#E0E0E0"/>
<path d="M100.707 47.0591V94.6021H32.4282L29.9629 47.3932L100.707 47.0591Z" fill="#E0E0E0"/>
<path d="M29.9629 47.3989L29.9629 94.5042H98.2419V47.3989L29.9629 47.3989Z" fill="white"/>
<path d="M98.5706 94.8267H29.6406V47.0706H98.5706V94.8267ZM30.2915 94.1758H97.9197V47.7157H30.2915V94.1758Z" fill="#E0E0E0"/>
<path d="M90.8467 53.2454H37.3594V88.6463H90.8467V53.2454Z" fill="white"/>
<path d="M90.8527 53.2454H90.5878H89.8562H86.9186L75.894 53.2857L37.3884 53.3606L37.5439 53.2051C37.5439 64.0224 37.5439 76.0089 37.5439 88.606L37.3711 88.439L90.8642 88.4736L90.726 88.606C90.7605 77.8348 90.7836 69.022 90.8009 62.8531C90.8009 59.7772 90.8009 57.3753 90.8354 55.728C90.8354 54.9158 90.8354 54.288 90.8354 53.856C90.8354 53.424 90.8354 53.2051 90.8354 53.2051C90.8354 53.2051 90.8354 53.4124 90.8354 53.8272C90.8354 54.2419 90.8354 54.8697 90.8354 55.6761C90.8354 57.312 90.8354 59.7081 90.87 62.7667C90.87 68.9356 90.9103 77.8003 90.9391 88.606V88.7443H90.8066L37.3135 88.7788H37.1465V88.606C37.1465 76.0089 37.1465 64.0224 37.1465 53.2051V53.0496H37.2962L75.8882 53.1302L86.8783 53.1705H89.7583H90.5014L90.8527 53.2454Z" fill="#E0E0E0"/>
<path d="M29.9521 47.2607C30.3642 47.4689 30.7508 47.724 31.1041 48.0211C31.8068 48.5279 32.7572 49.2422 33.7825 50.0659C34.8078 50.8895 35.7121 51.6614 36.3515 52.2431C36.7175 52.5342 37.0447 52.871 37.3249 53.2454C37.2616 53.3203 35.5969 51.9667 33.5694 50.3251C31.5419 48.6835 29.906 47.3414 29.9521 47.2607Z" fill="#E0E0E0"/>
<path d="M98.2484 47.3933C97.125 48.4975 95.9239 49.5197 94.6541 50.4519C93.4557 51.4732 92.1852 52.4068 90.8525 53.2455C91.9833 52.1427 93.1902 51.1207 94.4641 50.1869C95.6575 49.167 96.9222 48.2334 98.2484 47.3933Z" fill="#E0E0E0"/>
<path d="M98.191 94.5099L90.582 88.3352L98.191 94.5099Z" fill="white"/>
<path d="M90.5819 88.3352C91.9489 89.2334 93.2554 90.2205 94.4929 91.2901C95.7988 92.2761 97.0345 93.352 98.1908 94.5099C96.8222 93.614 95.5155 92.6268 94.2798 91.555C92.1601 89.8558 90.5185 88.4101 90.5819 88.3352Z" fill="#E0E0E0"/>
<path d="M29.9521 94.5043C31.0648 93.4106 32.2544 92.3981 33.5118 91.4745C34.6988 90.4654 35.9557 89.5415 37.2731 88.7097C36.1633 89.8043 34.9756 90.8169 33.7192 91.7395C32.5303 92.7488 31.2715 93.6727 29.9521 94.5043Z" fill="#E0E0E0"/>
<path d="M48.2227 64.2817V76.1357H81.8784V64.2817H48.2227Z" fill="#E0E0E0"/>
<path d="M258.37 36.0115H221.863V88.9286H258.37V36.0115Z" fill="#E0E0E0"/>
<path d="M256.545 36.0115H220.038V88.9286H256.545V36.0115Z" fill="#F5F5F5"/>
<path d="M252.005 41.7427H224.57V83.1974H252.005V41.7427Z" fill="white"/>
<path d="M252.011 83.1974C252.011 83.1974 252.011 83.1283 252.011 82.9958V82.4198C252.011 81.8957 252.011 81.1353 252.011 80.1446C252.011 78.1574 252.011 75.2659 252.011 71.6083C252.011 64.2989 251.982 53.9424 251.965 41.7542L252.057 41.8464H224.57L224.674 41.7485C224.674 57.3869 224.674 71.8041 224.674 83.2205L224.593 83.1398L244.563 83.1859H250.081H251.533H252.034H251.55H250.116H244.615L224.593 83.2262H224.519V83.1456C224.519 71.7465 224.519 57.3293 224.519 41.6736V41.6448H252.167V41.7369C252.167 53.9539 252.138 64.3219 252.126 71.6486C252.126 75.2947 252.126 78.1862 252.097 80.1677C252.097 81.1469 252.097 81.8957 252.097 82.4198V82.9958C252.011 83.1341 252.011 83.1974 252.011 83.1974Z" fill="#E0E0E0"/>
<path d="M256.649 36.0115C256.463 36.347 256.245 36.6634 255.998 36.9561C255.572 37.5321 254.972 38.2982 254.27 39.1334C253.567 39.9686 252.939 40.7059 252.461 41.23C252.225 41.5252 251.962 41.7989 251.678 42.0479C251.883 41.7247 252.116 41.4202 252.375 41.1379L254.132 39.0067C254.794 38.1945 255.399 37.463 255.888 36.8697C256.117 36.5626 256.371 36.2755 256.649 36.0115Z" fill="#E0E0E0"/>
<path d="M252.149 83.0649C253.516 85.2328 255.121 87.2402 256.936 89.0496L252.149 83.0649Z" fill="white"/>
<path d="M256.937 89.0496C256.633 88.8255 256.353 88.5707 256.101 88.2893C255.612 87.7939 254.949 87.0854 254.293 86.256C253.728 85.5456 253.2 84.8074 252.709 84.0441C252.484 83.7382 252.291 83.4101 252.133 83.0649C252.381 83.3483 252.606 83.6507 252.807 83.9693C253.21 84.5453 253.774 85.3056 254.431 86.1293C255.088 86.9529 255.721 87.6787 256.188 88.1913C256.458 88.459 256.708 88.7459 256.937 89.0496Z" fill="#E0E0E0"/>
<path d="M220.032 88.8882L224.813 82.99L220.032 88.8882Z" fill="white"/>
<path d="M224.813 82.99C224.1 84.0346 223.33 85.0402 222.509 86.0025C221.184 87.6268 220.078 88.9228 220.038 88.8825C220.753 87.8388 221.522 86.8333 222.342 85.87C223.115 84.8678 223.94 83.9065 224.813 82.99Z" fill="#E0E0E0"/>
<path d="M220.032 36.0115C220.849 36.8949 221.619 37.8217 222.336 38.7878C223.109 39.7087 223.832 40.6701 224.502 41.6678C223.683 40.7861 222.914 39.8592 222.198 38.8915C221.425 37.9706 220.703 37.0092 220.032 36.0115Z" fill="#E0E0E0"/>
<path d="M243.464 50.158H234.276V76.2392H243.464V50.158Z" fill="#E0E0E0"/>
<path d="M266.072 251.712C266.072 251.798 209.958 251.862 140.763 251.862C71.5678 251.862 15.4424 251.821 15.4424 251.712C15.4424 251.603 71.539 251.562 140.763 251.562C209.986 251.562 266.072 251.654 266.072 251.712Z" fill="#263238"/>
<path d="M195.668 152.064C196.096 153.803 196.046 155.626 195.524 157.339C195.002 159.053 194.027 160.593 192.702 161.798C190.945 163.354 188.67 164.252 187.057 165.963C186.058 167.1 185.372 168.477 185.064 169.959C184.756 171.441 184.837 172.977 185.3 174.419C185.789 175.849 186.564 177.166 187.577 178.288C188.59 179.411 189.82 180.317 191.192 180.95C193.062 181.824 195.111 182.243 197.174 182.172C199.236 182.102 201.252 181.545 203.058 180.547C207.51 178.03 210.102 172.979 210.759 167.904C211.416 162.829 210.385 157.691 209.031 152.755" fill="#263238"/>
<path d="M251.822 241.545C256.43 240.791 260.75 242.196 265.312 243.204C266.525 243.564 267.806 243.633 269.05 243.406C271.026 242.899 272.432 240.975 272.737 238.959C272.984 237.193 272.574 235.397 271.585 233.913C271.188 233.274 270.648 232.735 270.007 232.341C269.32 231.997 268.568 231.8 267.8 231.765C265.005 231.54 262.2 232.069 259.679 233.297C257.165 234.519 254.884 236.173 252.94 238.182C251.972 239.149 252.26 240.261 251.834 241.563" fill="#263238"/>
<path d="M158.401 167.172C157.662 162.778 157.752 158.285 158.666 153.924C159.052 151.792 159.833 149.75 160.97 147.905C161.357 147.217 161.946 146.664 162.657 146.321C163.174 146.15 163.728 146.125 164.258 146.25C164.788 146.375 165.273 146.645 165.658 147.03C166.15 147.542 166.528 148.153 166.767 148.822C167.005 149.492 167.098 150.204 167.041 150.912C166.938 152.328 166.591 153.715 166.015 155.013C164.236 159.563 161.407 163.342 158.383 167.167" fill="#263238"/>
<path d="M247.681 183.824C248.723 184.568 271.873 234.432 271.873 234.432C270.011 233.637 267.949 233.435 265.969 233.856L264.713 234.19C262.466 234.794 260.334 235.767 258.406 237.07L251.799 241.54C251.538 241.389 251.316 241.179 251.153 240.925C250.989 240.672 250.889 240.383 250.86 240.082V239.892L232.912 209.088L247.681 183.824Z" fill="#F9BE00"/>
<path d="M160.757 104.44L166.931 139.536C168.918 144.259 192.091 172.875 192.091 172.875L184.43 197.493L153.994 155.877C151.168 152.855 149.631 148.851 149.709 144.714L150.895 107.217L160.757 104.44Z" fill="#FFBE9D"/>
<path d="M193.617 167.374L209.508 168.578L223.367 170.726C223.367 170.726 247.68 177.114 247.68 179.775C247.68 180.662 241.044 201.796 237.312 214.456C236.397 217.531 235.651 220.654 235.077 223.811L247.68 251.712H187.874V226.132C187.874 226.132 183.842 192.534 184.55 187.943C185.259 183.352 193.617 167.374 193.617 167.374Z" fill="#F9BE00"/>
<path d="M153.217 90.259C153.31 86.6843 153.676 83.122 154.311 79.603C154.398 79.1018 154.605 78.497 155.106 78.451C155.728 78.3703 156.045 79.171 156.126 79.793C156.678 84.037 156.501 88.3442 155.601 92.5284" fill="#EB996E"/>
<path d="M160.301 164.575C167.121 158.481 167.351 147.922 166.769 139.519C166.656 138.905 166.749 138.271 167.034 137.716C167.685 136.788 169.269 137.14 169.914 138.073C170.56 139.006 170.49 140.233 170.456 141.362C170.807 140.406 172.305 140.411 173.008 141.149C173.71 141.886 173.831 142.998 173.912 144.029L174.137 146.84L194.06 165.848C194.06 165.848 194.608 164.12 196.071 165.116C197.534 166.113 198.478 168.215 198.478 168.215L184.441 198.852L158.389 167.172C158.89 166.214 159.535 165.338 160.301 164.575Z" fill="#F9BE00"/>
<path d="M187.339 185.777C185.26 188.428 183.707 191.453 182.765 194.688C181.826 197.944 181.929 201.412 183.059 204.607C183.933 206.817 185.365 208.763 187.216 210.255C189.066 211.747 191.272 212.734 193.617 213.12" fill="#F9BE00"/>
<path d="M251.822 241.545L251.067 251.712H265.83L269.286 233.712C264.789 233.461 260.354 234.85 256.804 237.623L251.822 241.545Z" fill="#FFBE9D"/>
<path d="M167.242 162.322C167.326 162.043 167.433 161.771 167.565 161.51C167.795 161.003 168.106 160.254 168.458 159.321C168.809 158.388 169.183 157.259 169.535 155.992C169.9 154.609 170.19 153.207 170.404 151.793C170.603 150.378 170.725 148.953 170.767 147.525C170.767 146.206 170.767 145.019 170.687 144.023C170.606 143.026 170.531 142.226 170.456 141.673C170.407 141.385 170.38 141.095 170.376 140.803C170.469 141.08 170.535 141.365 170.571 141.655C170.721 142.433 170.83 143.217 170.9 144.006C171.012 145.177 171.06 146.354 171.044 147.531C171 150.416 170.582 153.284 169.8 156.061C169.478 157.193 169.093 158.307 168.648 159.396C168.267 160.329 167.928 161.067 167.663 161.562C167.542 161.826 167.401 162.08 167.242 162.322Z" fill="#263238"/>
<path d="M171.579 156.971C171.767 156.476 171.982 155.991 172.224 155.52C173.233 153.182 173.818 150.684 173.952 148.141C173.951 147.612 173.98 147.083 174.039 146.557C174.152 147.079 174.194 147.614 174.165 148.147C174.146 150.73 173.555 153.277 172.437 155.606C172.217 156.1 171.928 156.559 171.579 156.971Z" fill="#263238"/>
<path d="M194.976 172.903C194.93 172.875 195.172 172.5 195.31 171.821C195.472 170.932 195.42 170.018 195.16 169.154C194.887 168.283 194.554 167.433 194.164 166.608C193.982 166.266 193.846 165.902 193.761 165.525C193.989 165.833 194.182 166.165 194.337 166.516C194.793 167.327 195.161 168.184 195.437 169.073C195.712 169.983 195.734 170.951 195.5 171.872C195.428 172.259 195.246 172.617 194.976 172.903Z" fill="#263238"/>
<path d="M191.515 213.477C191.425 213.44 191.34 213.391 191.262 213.333L190.582 212.884C190.006 212.486 189.148 211.904 188.145 211.115C186.961 210.203 185.877 209.166 184.914 208.022C183.729 206.606 182.875 204.943 182.414 203.155C181.974 201.366 181.861 199.512 182.08 197.683C182.257 196.199 182.587 194.738 183.065 193.323C183.382 192.369 183.749 191.433 184.165 190.518C184.315 190.195 184.43 189.942 184.517 189.78C184.555 189.691 184.603 189.606 184.661 189.527C184.552 189.879 184.423 190.226 184.275 190.564C184.015 191.22 183.641 192.176 183.267 193.386C182.824 194.795 182.52 196.244 182.357 197.712C182.156 199.508 182.273 201.325 182.702 203.08C183.151 204.829 183.978 206.457 185.127 207.849C186.07 208.986 187.126 210.024 188.278 210.948C189.257 211.755 190.081 212.36 190.651 212.792L191.296 213.287C191.446 213.402 191.521 213.465 191.515 213.477Z" fill="#263238"/>
<path d="M224.145 219.174C224.065 219.216 223.98 219.247 223.891 219.266C223.718 219.312 223.471 219.398 223.142 219.462C222.214 219.663 221.269 219.777 220.32 219.802C217.155 219.899 214.033 219.046 211.357 217.353C208.68 215.66 206.572 213.205 205.304 210.303C204.917 209.436 204.614 208.533 204.399 207.608C204.319 207.279 204.29 207.032 204.255 206.847C204.236 206.759 204.226 206.668 204.227 206.577C204.344 206.902 204.441 207.235 204.515 207.573C205.431 211.051 207.484 214.122 210.347 216.299C213.21 218.476 216.718 219.634 220.314 219.589C221.254 219.584 222.192 219.503 223.119 219.347C223.458 219.271 223.8 219.213 224.145 219.174Z" fill="#263238"/>
<path d="M233.31 230.4C233.229 230.4 233.989 227.192 235.038 223.286C236.086 219.381 236.95 216.23 237.025 216.253C237.1 216.276 236.345 219.456 235.326 223.361C234.306 227.266 233.39 230.4 233.31 230.4Z" fill="#263238"/>
<path d="M241.344 223.609C241.275 223.649 238.96 219.865 236.16 215.153C233.361 210.441 231.172 206.588 231.247 206.548C231.322 206.507 233.632 210.286 236.431 214.998C239.23 219.709 241.442 223.563 241.344 223.609Z" fill="#263238"/>
<path d="M263.457 232.934C263.457 232.992 262.616 233.061 261.303 233.395C260.536 233.59 259.783 233.838 259.051 234.138C258.157 234.516 257.295 234.963 256.47 235.474C255.657 235.998 254.886 236.585 254.166 237.231C253.579 237.768 253.031 238.345 252.525 238.959C251.661 240.002 251.234 240.733 251.183 240.687C251.252 240.501 251.343 240.323 251.453 240.157C251.72 239.686 252.023 239.235 252.358 238.81C252.85 238.173 253.391 237.576 253.976 237.024C254.701 236.353 255.483 235.748 256.315 235.215C257.154 234.694 258.036 234.247 258.953 233.879C259.7 233.584 260.471 233.351 261.257 233.182C261.784 233.06 262.319 232.979 262.858 232.94C263.057 232.909 263.258 232.907 263.457 232.934Z" fill="#263238"/>
<path d="M266.279 229.467C266.279 229.53 265.352 229.415 263.871 229.542C263.008 229.62 262.152 229.77 261.314 229.991C259.258 230.537 257.337 231.499 255.669 232.819C254.991 233.359 254.359 233.954 253.78 234.599C252.795 235.705 252.334 236.511 252.282 236.482C252.36 236.279 252.462 236.085 252.588 235.906C252.711 235.684 252.85 235.471 253.002 235.267C253.194 234.988 253.4 234.719 253.619 234.461C254.185 233.785 254.813 233.164 255.496 232.606C256.341 231.929 257.252 231.338 258.215 230.843C259.184 230.369 260.2 229.995 261.245 229.726C262.102 229.511 262.978 229.378 263.86 229.329C264.196 229.312 264.532 229.312 264.868 229.329C265.124 229.33 265.38 229.345 265.634 229.375C265.852 229.378 266.069 229.409 266.279 229.467Z" fill="#263238"/>
<g opacity="0.3">
<path opacity="0.3" d="M204.843 207.803C203.49 210.372 204.618 213.506 205.857 216.138C206.819 218.177 207.89 220.245 209.641 221.668C210.502 222.371 211.498 222.889 212.568 223.189C213.638 223.489 214.759 223.564 215.859 223.411C216.96 223.257 218.017 222.878 218.964 222.296C219.911 221.715 220.728 220.944 221.363 220.032C217.691 219.977 214.122 218.813 211.124 216.692C208.126 214.572 205.84 211.593 204.567 208.149" fill="black"/>
</g>
<g opacity="0.3">
<path opacity="0.3" d="M231.287 206.548C230.25 209.019 231.034 212.4 232.117 214.848C233.2 217.296 234.352 220.032 233.482 222.572C233.258 223.023 233.141 223.52 233.142 224.024C233.2 224.519 233.718 224.997 234.184 224.767C234.426 224.597 234.593 224.341 234.651 224.052C235.469 221.587 236.289 219.124 237.111 216.662" fill="black"/>
</g>
<path d="M176.798 174.009C176.891 172.463 177.083 170.923 177.374 169.401C177.57 167.871 177.864 166.355 178.255 164.863C178.168 166.41 177.976 167.949 177.679 169.471C177.485 171.001 177.191 172.517 176.798 174.009Z" fill="#FAFAFA"/>
<path d="M170.733 172.737C170.658 172.783 169.667 171.4 168.296 169.811C166.925 168.221 165.716 167.028 165.773 166.965C166.806 167.72 167.732 168.612 168.527 169.615C169.394 170.555 170.136 171.605 170.733 172.737Z" fill="#FAFAFA"/>
<path d="M175.94 157.899C175.766 158.27 175.548 158.618 175.289 158.936C174.851 159.552 174.212 160.376 173.469 161.24C172.726 162.104 172.011 162.881 171.476 163.411C171.207 163.719 170.899 163.99 170.56 164.217C170.497 164.16 171.758 162.795 173.238 161.044C174.719 159.293 175.871 157.824 175.94 157.899Z" fill="#FAFAFA"/>
<path d="M173.907 150.647C173.82 150.681 173.492 149.95 172.858 149.218C172.225 148.487 171.545 148.066 171.591 147.98C172.19 148.152 172.715 148.519 173.083 149.023C173.526 149.461 173.815 150.031 173.907 150.647Z" fill="#FAFAFA"/>
<path d="M168.654 155.117C168.183 155.338 167.675 155.469 167.156 155.503C166.652 155.634 166.128 155.665 165.612 155.595C166.586 155.241 167.619 155.079 168.654 155.117Z" fill="#FAFAFA"/>
<path d="M181.907 161.516C181.92 160.619 181.857 159.723 181.717 158.838C181.479 157.973 181.165 157.13 180.778 156.321C181.432 156.992 181.86 157.849 182.005 158.774C182.252 159.677 182.218 160.633 181.907 161.516Z" fill="#FAFAFA"/>
<path d="M188.986 169.131C187.923 167.435 186.497 165.997 184.81 164.92C185.762 165.29 186.626 165.856 187.346 166.581C188.065 167.306 188.624 168.175 188.986 169.131Z" fill="#FAFAFA"/>
<path d="M177.622 182.344C175.907 182.987 174.007 182.922 172.34 182.166C172.369 182.079 173.492 182.442 174.972 182.482C176.452 182.523 177.599 182.258 177.622 182.344Z" fill="#FAFAFA"/>
<path d="M182.955 185.08C182.874 185.046 183.323 183.721 183.698 182.039C184.072 180.357 184.239 178.963 184.326 178.975C184.385 180.028 184.272 181.085 183.992 182.102C183.809 183.144 183.458 184.15 182.955 185.08Z" fill="#FAFAFA"/>
<path d="M194.607 185.524C193.696 184.754 192.854 183.906 192.09 182.989C191.247 182.141 190.477 181.224 189.786 180.248C190.694 181.022 191.534 181.871 192.298 182.788C193.14 183.636 193.912 184.551 194.607 185.524Z" fill="#FAFAFA"/>
<path d="M200.034 198.985C199.343 198.484 198.713 197.904 198.156 197.257C197.531 196.677 196.975 196.027 196.497 195.322C197.188 195.823 197.818 196.403 198.375 197.05C199.005 197.624 199.562 198.274 200.034 198.985Z" fill="#FAFAFA"/>
<path d="M189.948 200.269C189.285 200.974 188.506 201.559 187.644 201.997C186.832 202.537 185.931 202.927 184.982 203.149C184.982 203.069 186.134 202.573 187.494 201.761C188.853 200.949 189.89 200.2 189.948 200.269Z" fill="#FAFAFA"/>
<path d="M194.591 213.074C194.504 213.074 194.85 211.542 195.023 209.647C195.196 207.752 195.144 206.191 195.23 206.191C195.442 207.331 195.473 208.497 195.322 209.647C195.265 210.821 195.018 211.978 194.591 213.074Z" fill="#FAFAFA"/>
<path d="M212.049 202.666C211.098 202.083 210.254 201.341 209.555 200.471C208.785 199.667 208.163 198.733 207.718 197.712C207.793 197.66 208.582 198.91 209.78 200.275C210.978 201.64 212.107 202.591 212.049 202.666Z" fill="#FAFAFA"/>
<path d="M218.426 208.097C218.357 208.045 219.232 206.847 220.211 205.309C221.191 203.771 221.911 202.481 221.985 202.521C221.612 203.569 221.098 204.561 220.459 205.471C219.906 206.436 219.222 207.32 218.426 208.097Z" fill="#FAFAFA"/>
<path d="M217.492 194.803C215.526 194.476 213.596 193.955 211.732 193.248C212.726 193.366 213.705 193.578 214.659 193.881C215.632 194.092 216.581 194.401 217.492 194.803Z" fill="#FAFAFA"/>
<path d="M212.844 218.2C212.742 217.293 212.742 216.377 212.844 215.47C212.852 214.557 212.956 213.648 213.155 212.757C213.259 213.664 213.259 214.58 213.155 215.487C213.15 216.4 213.045 217.31 212.844 218.2Z" fill="#FAFAFA"/>
<path d="M216.864 226.212C217.166 225.282 217.408 224.334 217.59 223.373C217.67 222.398 217.685 221.418 217.636 220.441C217.933 221.399 218.018 222.411 217.885 223.406C217.752 224.401 217.403 225.354 216.864 226.201V226.212Z" fill="#FAFAFA"/>
<path d="M206.445 224.444C206.151 222.454 206.541 220.424 207.551 218.684C207.631 218.719 207.102 219.934 206.802 221.53C206.503 223.125 206.531 224.438 206.445 224.444Z" fill="#FAFAFA"/>
<path d="M196.94 228.505C196.001 227.852 195.098 227.151 194.233 226.402C193.308 225.732 192.418 225.015 191.566 224.254C192.602 224.77 193.569 225.412 194.446 226.166C195.366 226.846 196.203 227.631 196.94 228.505Z" fill="#FAFAFA"/>
<path d="M203.375 217.204C201.17 218.602 198.859 219.825 196.463 220.861C197.547 220.115 198.687 219.452 199.873 218.88C200.995 218.232 202.166 217.671 203.375 217.204Z" fill="#FAFAFA"/>
<path d="M223.367 242.565C223.245 242.605 223.12 242.636 222.993 242.657C222.745 242.703 222.382 242.795 221.91 242.859C220.576 243.063 219.227 243.149 217.878 243.118C214.393 243.067 210.959 242.278 207.801 240.803C204.644 239.327 201.836 237.199 199.561 234.559C198.24 233.038 197.108 231.363 196.192 229.57C195.567 228.369 195.05 227.114 194.648 225.821C194.492 225.366 194.417 225.003 194.348 224.761C194.31 224.637 194.285 224.51 194.273 224.381C194.329 224.497 194.373 224.619 194.406 224.743C194.492 224.98 194.584 225.319 194.757 225.786C195.862 228.944 197.563 231.859 199.768 234.374C202.049 236.954 204.831 239.041 207.946 240.508C211.061 241.975 214.443 242.79 217.884 242.905C219.23 242.955 220.578 242.901 221.916 242.744C222.394 242.697 222.757 242.623 223.004 242.6C223.124 242.574 223.245 242.563 223.367 242.565Z" fill="#263238"/>
<path d="M206.157 239.581C205.96 238.667 206.055 237.714 206.427 236.857C206.709 235.965 207.265 235.184 208.017 234.628C207.508 235.364 207.071 236.147 206.71 236.966C206.446 237.819 206.261 238.695 206.157 239.581Z" fill="#FAFAFA"/>
<path d="M201.416 237.6C200.869 238.023 200.367 238.502 199.918 239.028C199.544 239.608 199.228 240.224 198.974 240.866C198.993 240.136 199.238 239.429 199.676 238.845C200.113 238.26 200.721 237.825 201.416 237.6Z" fill="#FAFAFA"/>
<path d="M219.646 248.452C218.703 248.376 217.793 248.075 216.991 247.574C216.189 247.073 215.519 246.386 215.038 245.572C216.291 246.924 217.881 247.918 219.646 248.452Z" fill="#FAFAFA"/>
<path d="M222.48 232.497C222.359 233.343 222.001 234.139 221.448 234.791C220.895 235.443 220.168 235.926 219.353 236.183C220.026 235.718 220.651 235.188 221.219 234.599C221.71 233.943 222.133 233.239 222.48 232.497Z" fill="#FAFAFA"/>
<path d="M230.539 244.391C230.47 244.333 231.23 243.371 231.933 242.047C232.636 240.722 233.01 239.553 233.085 239.581C232.759 241.413 231.864 243.096 230.527 244.391H230.539Z" fill="#FAFAFA"/>
<path d="M241.189 245.952C241.223 246.038 240.175 246.453 239.121 247.323C238.067 248.193 237.433 249.126 237.358 249.051C237.689 248.256 238.234 247.568 238.931 247.064C239.566 246.491 240.348 246.106 241.189 245.952Z" fill="#FAFAFA"/>
<path d="M233.068 232.318C232.976 232.347 232.492 230.665 231.415 228.799C230.337 226.932 229.185 225.619 229.26 225.562C229.576 225.784 229.855 226.057 230.084 226.368C231.296 227.784 232.22 229.424 232.803 231.195C232.948 231.554 233.037 231.932 233.068 232.318Z" fill="#FAFAFA"/>
<path d="M234.657 215.17C232.864 215.79 231.01 216.216 229.127 216.443C230.92 215.826 232.774 215.399 234.657 215.17Z" fill="#FAFAFA"/>
<path d="M229.756 210.044C229.098 209.433 228.507 208.753 227.993 208.017C227.407 207.338 226.895 206.599 226.467 205.811C227.131 206.414 227.722 207.092 228.229 207.832C228.821 208.509 229.333 209.251 229.756 210.044Z" fill="#FAFAFA"/>
<path d="M241.921 206.968C240.054 206.922 238.218 206.486 236.529 205.689C237.441 205.845 238.343 206.055 239.231 206.317C240.14 206.48 241.038 206.697 241.921 206.968Z" fill="#FAFAFA"/>
<path d="M250.561 206.813C250.808 205.998 251.103 205.198 251.442 204.417C251.685 203.598 251.979 202.796 252.323 202.015C252.276 202.877 252.081 203.724 251.747 204.52C251.49 205.349 251.088 206.125 250.561 206.813Z" fill="#FAFAFA"/>
<path d="M248.59 218.517C246.804 218.118 245.19 217.162 243.982 215.787C244.04 215.718 244.95 216.512 246.212 217.255C247.473 217.999 248.619 218.431 248.59 218.517Z" fill="#FAFAFA"/>
<path d="M254.201 218.16C254.316 217.004 254.528 215.859 254.834 214.738C255.043 213.599 255.347 212.48 255.745 211.392C255.421 213.691 254.899 215.957 254.184 218.166L254.201 218.16Z" fill="#FAFAFA"/>
<path d="M249.518 231.247C248.08 229.62 246.796 227.863 245.682 225.999C246.436 226.781 247.119 227.629 247.721 228.534C248.402 229.381 249.004 230.289 249.518 231.247Z" fill="#FAFAFA"/>
<path d="M257.512 226.241C257.432 226.281 256.908 225.239 256.078 224.075C255.249 222.912 254.448 222.065 254.511 222.002C255.236 222.509 255.853 223.155 256.326 223.902C256.876 224.593 257.28 225.389 257.512 226.241Z" fill="#FAFAFA"/>
<path d="M265.013 225.118C264.356 224.347 263.741 223.541 263.169 222.705C262.515 221.934 261.9 221.13 261.326 220.297C262.859 221.647 264.111 223.285 265.013 225.118Z" fill="#FAFAFA"/>
<path d="M263.232 230.089C263.129 229.397 262.897 228.73 262.547 228.125C262.125 227.565 261.604 227.089 261.009 226.719C261.009 226.685 261.274 226.719 261.637 226.898C262.105 227.147 262.501 227.512 262.789 227.958C263.082 228.402 263.258 228.913 263.301 229.444C263.359 229.824 263.284 230.089 263.232 230.089Z" fill="#FAFAFA"/>
<path d="M257.404 236.903C257.358 236.903 257.375 236.747 257.329 236.546C257.274 236.287 257.134 236.053 256.931 235.883C256.719 235.726 256.458 235.647 256.194 235.659C255.987 235.659 255.854 235.711 255.831 235.659C255.808 235.607 255.918 235.503 256.165 235.434C256.328 235.392 256.499 235.387 256.663 235.421C256.828 235.455 256.983 235.527 257.116 235.631C257.248 235.734 257.355 235.867 257.428 236.019C257.501 236.171 257.538 236.337 257.536 236.506C257.53 236.782 257.438 236.915 257.404 236.903Z" fill="#FAFAFA"/>
<path d="M197.477 247.795C196.401 247.38 195.423 246.746 194.606 245.933C193.789 245.12 193.15 244.146 192.73 243.072C193.905 245.015 195.534 246.643 197.477 247.818V247.795Z" fill="#FAFAFA"/>
<path d="M160.814 104.832C159.886 96.0709 158.21 87.8284 157.755 79.2402C157.773 79.0249 157.746 78.8081 157.676 78.6038C157.605 78.3995 157.493 78.2121 157.346 78.0536C157.221 77.9803 157.082 77.9333 156.938 77.9154C156.793 77.8975 156.647 77.9091 156.507 77.9495C156.368 77.9899 156.238 78.0583 156.126 78.1504C156.014 78.2426 155.921 78.3566 155.854 78.4856C155.603 79.0247 155.503 79.6222 155.566 80.2136C155.576 84.7808 154.797 89.3154 153.262 93.6172C152.277 96.4108 150.958 99.0892 150.221 101.952C149.484 104.815 150.872 105.788 152.162 108.455" fill="#FFBE9D"/>
<path d="M152.179 108.443C151.038 107.568 150.153 106.402 149.617 105.068C149.081 103.733 148.914 102.279 149.132 100.858C149.426 99.1295 150.284 97.5628 150.964 95.95C151.644 94.3372 152.168 92.5458 151.753 90.8466C151.524 90.216 151.369 89.5606 151.292 88.894C151.292 88.2258 151.724 87.477 152.392 87.4482C152.645 87.4686 152.889 87.5474 153.106 87.6783C153.323 87.8093 153.507 87.9888 153.642 88.2028C154.766 89.591 155.664 93.646 155.1 96.6757" fill="#FFBE9D"/>
<path d="M155.1 96.6757C155.1 96.6757 155.157 96.2091 155.192 95.3682C155.228 94.182 155.13 92.9955 154.898 91.8315C154.743 91.0298 154.512 90.2448 154.207 89.4872C154.047 89.075 153.83 88.6873 153.562 88.3352C153.442 88.1463 153.284 87.9839 153.099 87.8581C152.914 87.7323 152.705 87.6457 152.485 87.6037C152.258 87.6145 152.042 87.6991 151.868 87.8448C151.694 87.9904 151.573 88.189 151.523 88.4101C151.399 88.9012 151.432 89.4185 151.615 89.8904C151.809 90.4174 151.944 90.964 152.018 91.5205C152.074 92.0967 152.053 92.6778 151.955 93.2485C151.552 95.587 150.308 97.4763 149.651 99.3483C149.327 100.223 149.154 101.146 149.138 102.079C149.135 102.891 149.255 103.699 149.495 104.475C149.844 105.607 150.434 106.65 151.223 107.533C151.799 108.15 152.174 108.42 152.157 108.449C152.054 108.397 151.957 108.333 151.869 108.259C151.608 108.061 151.364 107.843 151.137 107.608C150.295 106.74 149.664 105.689 149.294 104.538C149.031 103.744 148.895 102.914 148.891 102.079C148.896 101.116 149.065 100.162 149.392 99.2562C150.025 97.3439 151.252 95.4546 151.632 93.2024C151.731 92.6551 151.752 92.0967 151.696 91.5435C151.627 91.0028 151.497 90.4715 151.31 89.9595C151.111 89.4305 151.082 88.8523 151.229 88.3064C151.315 88.0339 151.472 87.7893 151.684 87.5979C151.79 87.499 151.916 87.4229 152.052 87.3743C152.189 87.3258 152.334 87.3058 152.479 87.3157C152.743 87.3506 152.996 87.441 153.223 87.581C153.449 87.721 153.643 87.9074 153.792 88.1278C154.072 88.5091 154.297 88.928 154.461 89.372C154.765 90.1456 154.989 90.9486 155.129 91.7682C155.347 92.9491 155.415 94.1529 155.33 95.3509C155.31 95.6759 155.268 95.9993 155.204 96.3186C155.186 96.4419 155.151 96.5622 155.1 96.6757Z" fill="#EB996E"/>
<path d="M230.4 143.453C230.589 144.277 231.035 145.019 231.674 145.572C232.313 146.125 233.112 146.46 233.954 146.529C234.799 146.57 235.64 146.396 236.398 146.023C237.157 145.65 237.809 145.091 238.292 144.397C239.248 142.987 239.633 141.266 239.369 139.582C239.041 137.157 237.428 134.824 235.089 134.104C232.751 133.384 229.842 134.68 229.197 137.03L226.501 140.792L230.4 143.453Z" fill="#263238"/>
<path d="M227.215 136.063C227.477 133.978 227.317 131.863 226.745 129.841C226.173 127.82 225.201 125.934 223.886 124.295C222.572 122.657 220.941 121.299 219.092 120.302C217.243 119.306 215.212 118.691 213.12 118.495C204.763 117.7 197.327 123.926 196.077 132.232C194.976 139.513 194.032 146.863 194.066 149.512C194.17 157.576 198.876 160.698 200.788 161.608C201.475 161.856 202.185 162.031 202.908 162.132C202.915 162.134 202.921 162.137 202.927 162.14C202.933 162.144 202.938 162.15 202.942 162.155C202.945 162.161 202.948 162.168 202.949 162.175C202.95 162.182 202.95 162.189 202.948 162.196L201.163 171.412C200.35 177.466 203.732 182.868 209.774 183.75C215.816 184.631 220.58 179.983 221.507 173.923L227.215 136.063Z" fill="#FFBE9D"/>
<path d="M197.465 136.938C197.597 137.128 198.657 136.558 200.022 136.76C201.387 136.961 202.28 137.791 202.453 137.641C202.539 137.577 202.418 137.261 202.032 136.88C201.503 136.385 200.833 136.065 200.114 135.965C199.405 135.862 198.682 135.985 198.047 136.316C197.568 136.575 197.396 136.852 197.465 136.938Z" fill="#263238"/>
<path d="M209.583 139.565C209.716 139.755 210.781 139.185 212.141 139.386C213.5 139.588 214.404 140.417 214.577 140.267C214.658 140.204 214.543 139.887 214.151 139.501C213.622 139.009 212.954 138.691 212.239 138.591C211.53 138.488 210.806 138.611 210.171 138.943C209.704 139.202 209.52 139.478 209.583 139.565Z" fill="#263238"/>
<path d="M204.872 146.004C204.187 145.676 203.463 145.434 202.718 145.284C202.373 145.198 202.056 145.077 202.033 144.835C202.055 144.472 202.188 144.125 202.413 143.839L203.83 141.339C205.806 137.773 207.286 134.824 207.148 134.744C207.009 134.663 205.281 137.491 203.306 141.08L201.929 143.597C201.653 143.988 201.519 144.461 201.549 144.939C201.585 145.066 201.649 145.183 201.736 145.282C201.822 145.382 201.93 145.461 202.05 145.515C202.235 145.594 202.428 145.65 202.626 145.682C203.358 145.884 204.113 145.992 204.872 146.004Z" fill="#263238"/>
<path d="M202.96 162.19C202.96 162.19 208.144 163.388 215.315 160.393C215.315 160.393 212.227 167.046 202.481 164.678L202.96 162.19Z" fill="#EB996E"/>
<path d="M204.97 149.374C205.275 149.093 205.646 148.893 206.048 148.793C206.451 148.692 206.872 148.694 207.274 148.798C207.57 148.871 207.849 149.003 208.094 149.185C208.339 149.366 208.546 149.595 208.702 149.858C208.852 150.111 208.919 150.404 208.895 150.697C208.872 150.99 208.758 151.268 208.57 151.494C208.316 151.708 208.004 151.84 207.674 151.874C207.345 151.908 207.012 151.842 206.721 151.684C206.109 151.365 205.568 150.926 205.131 150.394C204.99 150.263 204.877 150.107 204.797 149.933C204.757 149.85 204.743 149.757 204.758 149.667C204.772 149.576 204.814 149.492 204.877 149.426" fill="#EB996E"/>
<path d="M208.743 147.531C208.524 147.485 208.305 148.965 206.888 149.835C205.471 150.705 203.916 150.307 203.875 150.515C203.841 150.607 204.186 150.854 204.849 150.97C205.713 151.106 206.598 150.935 207.349 150.486C208.069 150.052 208.594 149.357 208.812 148.545C208.956 147.928 208.846 147.537 208.743 147.531Z" fill="#263238"/>
<path d="M210.522 135.129C210.603 135.521 211.991 135.544 213.558 135.97C215.125 136.397 216.363 137.019 216.622 136.719C216.737 136.575 216.565 136.195 216.098 135.757C215.466 135.216 214.719 134.826 213.913 134.616C213.108 134.407 212.265 134.383 211.45 134.548C210.816 134.697 210.493 134.945 210.522 135.129Z" fill="#263238"/>
<path d="M198.842 132.739C199.032 133.085 200.022 132.9 201.146 133.05C202.269 133.2 203.202 133.557 203.45 133.269C203.57 133.125 203.45 132.791 203.087 132.439C202.577 132.005 201.95 131.733 201.285 131.657C200.621 131.581 199.948 131.705 199.354 132.013C198.934 132.272 198.755 132.572 198.842 132.739Z" fill="#263238"/>
<path d="M194.498 130.429C196.163 132.969 201.45 131.397 204.641 129.652C206.308 130.715 208.324 131.086 210.26 130.686C212.197 130.286 213.9 129.146 215.009 127.509C216.835 129.813 220.55 129.064 221.921 126.443C223.292 123.823 222.497 120.211 220.654 117.919C218.811 115.626 216.081 114.463 213.396 113.973C207.032 112.821 200.102 115.263 196.295 121.017C194.538 123.673 193.484 127.25 194.527 130.429" fill="#263238"/>
<path d="M212.09 114.877C212.09 114.992 210.586 114.704 208.225 115.096C205.157 115.606 202.345 117.12 200.23 119.399C198.238 121.785 196.922 124.661 196.417 127.728C196.242 129.006 196.174 130.297 196.215 131.587C196.092 131.254 196.021 130.905 196.002 130.55C195.901 129.592 195.917 128.625 196.048 127.67C196.466 124.485 197.789 121.486 199.861 119.03C202.051 116.659 205.002 115.128 208.202 114.704C209.157 114.576 210.123 114.561 211.082 114.658C211.427 114.679 211.767 114.753 212.09 114.877Z" fill="#455A64"/>
<path d="M203.484 126.72C203.389 126.428 203.346 126.122 203.357 125.816C203.327 124.98 203.414 124.144 203.617 123.333C203.925 121.972 204.508 120.689 205.331 119.562C206.153 118.436 207.198 117.489 208.4 116.781C209.602 116.073 210.937 115.619 212.321 115.446C213.705 115.273 215.111 115.385 216.45 115.776C217.258 115.998 218.033 116.327 218.754 116.755C219.032 116.9 219.28 117.095 219.485 117.331C218.481 116.856 217.436 116.47 216.363 116.179C213.755 115.515 210.989 115.908 208.669 117.274C206.35 118.64 204.664 120.868 203.979 123.471C203.415 125.395 203.594 126.72 203.484 126.72Z" fill="#455A64"/>
<path d="M218.754 123.955C218.13 126.21 217.77 128.529 217.683 130.867C217.596 133.218 218.327 135.526 219.75 137.399C221.974 140.077 225.683 140.895 229.105 141.546C230.935 136.98 231.486 132.002 230.7 127.146C230.309 124.79 229.548 122.388 227.889 120.672C226.656 119.455 225.054 118.682 223.334 118.474C221.614 118.265 219.874 118.633 218.385 119.52" fill="#263238"/>
<path d="M220.654 135.106C219.756 137.053 219.819 139.305 220.13 141.442C220.441 143.579 220.982 145.67 220.959 147.813C220.936 149.956 220.257 152.231 218.575 153.573C218.065 153.913 217.587 154.299 217.146 154.725C216.929 154.941 216.784 155.22 216.73 155.522C216.676 155.824 216.717 156.135 216.847 156.413C217.169 156.931 218.143 156.92 218.281 156.326L218.195 156.476C218.11 156.619 218.064 156.783 218.062 156.949C218.06 157.116 218.102 157.28 218.184 157.426C218.266 157.571 218.384 157.692 218.528 157.777C218.671 157.862 218.834 157.908 219.001 157.91C219.59 157.882 220.166 157.734 220.695 157.474C221.224 157.215 221.694 156.849 222.077 156.401C223.177 155.128 223.615 153.417 223.903 151.793C224.79 146.707 224.617 141.425 226.022 136.466" fill="#263238"/>
<path d="M201.122 168.509C201.519 170.241 202.284 171.868 203.365 173.279C204.446 174.69 205.818 175.852 207.387 176.686C208.957 177.519 210.688 178.006 212.462 178.111C214.237 178.217 216.013 177.94 217.671 177.298C220.654 176.146 223.062 173.9 225.383 171.705C225.799 174.204 225.684 176.761 225.048 179.213C224.411 181.664 223.266 183.954 221.687 185.934C220.108 187.914 218.131 189.541 215.883 190.707C213.635 191.874 211.167 192.555 208.639 192.706C204.82 192.937 200.719 191.773 198.317 188.795C196.641 186.722 195.967 183.974 196.013 181.307C196.129 178.636 196.638 175.997 197.522 173.474C198.202 171.297 199.279 168.866 201.479 168.261" fill="#F9BE00"/>
<path d="M228.448 141.696C230.752 142.934 231.985 145.526 232.428 148.084C232.872 150.641 232.647 153.268 232.757 155.854C232.866 158.44 233.361 161.159 235.003 163.169C236.731 165.312 239.467 166.326 241.915 167.633C247.283 170.513 251.707 175.426 253.32 181.313C254.933 187.2 253.469 193.985 249.063 198.219C245.031 202.055 239.213 203.403 233.661 203.403C229.704 203.403 225.355 202.55 222.884 199.457C220.413 196.364 220.58 192.027 221.444 188.214C222.308 184.4 223.892 180.697 223.955 176.786C223.364 179.207 222.333 181.499 220.914 183.548C220.505 184.124 219.808 184.758 219.186 184.424C218.564 184.089 218.754 183.012 219.077 182.292C223.846 171.677 222.187 150.278 225.015 138.557" fill="#263238"/>
<path d="M224.519 140.492C224.663 140.446 230.233 139.392 229.513 144.899C228.793 150.405 223.419 148.55 223.431 148.395C223.442 148.239 224.519 140.492 224.519 140.492Z" fill="#FFBE9D"/>
<path d="M225.384 146.529C225.384 146.529 225.47 146.603 225.626 146.701C225.841 146.828 226.097 146.867 226.34 146.811C226.95 146.673 227.561 145.809 227.717 144.824C227.789 144.352 227.758 143.87 227.624 143.412C227.595 143.233 227.523 143.064 227.413 142.92C227.304 142.775 227.161 142.66 226.996 142.583C226.893 142.546 226.78 142.545 226.676 142.58C226.572 142.614 226.482 142.682 226.42 142.773C226.328 142.917 226.346 143.032 226.317 143.038C226.288 143.044 226.213 142.929 226.282 142.71C226.332 142.577 226.425 142.465 226.547 142.393C226.633 142.341 226.728 142.308 226.827 142.295C226.927 142.282 227.027 142.29 227.123 142.318C227.344 142.393 227.541 142.522 227.698 142.695C227.854 142.867 227.963 143.076 228.016 143.303C228.186 143.811 228.232 144.352 228.149 144.881C227.97 145.987 227.267 146.949 226.42 147.076C226.267 147.1 226.11 147.09 225.962 147.045C225.813 147 225.676 146.922 225.562 146.817C225.378 146.661 225.366 146.534 225.384 146.529Z" fill="#EB996E"/>
<path d="M195.432 180.374C195.702 179.786 196.014 179.218 196.365 178.675C197.168 177.346 197.833 175.939 198.352 174.476C198.856 173.011 199.025 171.453 198.847 169.914C198.735 169.283 198.589 168.658 198.41 168.042C198.518 168.182 198.602 168.34 198.657 168.509C198.845 168.95 198.98 169.412 199.06 169.885C199.303 171.457 199.158 173.064 198.64 174.568C198.117 176.053 197.415 177.469 196.549 178.784C196.227 179.291 195.973 179.694 195.76 179.965C195.547 180.236 195.449 180.386 195.432 180.374Z" fill="#263238"/>
<path d="M198.236 174.021C198.156 174.021 198 173.549 197.505 173.22C197.01 172.892 196.514 172.892 196.503 172.806C196.491 172.719 196.624 172.708 196.848 172.702C197.146 172.705 197.436 172.799 197.678 172.973C197.922 173.143 198.11 173.381 198.219 173.658C198.294 173.871 198.277 174.009 198.236 174.021Z" fill="#FAFAFA"/>
<path d="M201.796 174.009C201.365 173.524 200.891 173.079 200.379 172.679C199.812 172.361 199.214 172.103 198.594 171.907C198.937 171.86 199.286 171.881 199.62 171.971C199.955 172.062 200.268 172.218 200.541 172.431C201.149 172.773 201.6 173.339 201.796 174.009Z" fill="#FAFAFA"/>
<path d="M204.031 185.697C204.045 184.902 204.157 184.113 204.365 183.346C204.476 182.555 204.687 181.781 204.993 181.042C204.98 181.839 204.868 182.63 204.659 183.398C204.547 184.188 204.337 184.96 204.031 185.697Z" fill="#FAFAFA"/>
<path d="M213.017 187.459C212.873 185.806 212.925 184.141 213.172 182.5C213.324 184.153 213.272 185.819 213.017 187.459Z" fill="#FAFAFA"/>
<path d="M29.5548 213.057L20.6729 251.735L39.4562 251.793L48.1308 217.78L29.5548 213.057Z" fill="#B78876"/>
<path d="M121.796 165.537C120.01 163.146 117.959 160.848 117.021 158.014C116.566 156.643 116.387 155.192 115.903 153.832C115.419 152.473 114.538 151.148 113.19 150.636C111.842 150.123 110.817 150.636 109.942 151.603L103.496 170.456L107.211 184.936C110.921 184.101 115.563 183.11 119.031 181.549C122.498 179.989 124.791 177.489 125.033 173.693C125.2 170.715 123.581 167.933 121.796 165.537Z" fill="#263238"/>
<path d="M63.141 162.207C63.141 162.207 40.7346 171.959 37.9353 176.36C35.1359 180.76 25.9199 212.135 25.9199 212.135L49.5359 219.047L49.1327 251.712H107.021L106.543 194.112L99.285 162.282C99.285 162.282 86.5036 161.459 85.317 160.877C84.1305 160.295 63.141 162.207 63.141 162.207Z" fill="#E94235"/>
<path d="M142.768 82.3681C142.952 81.0491 142.025 79.5975 142.693 78.4398C143.135 77.8431 143.766 77.4145 144.484 77.2244C144.832 77.0655 145.208 76.9773 145.59 76.9652C145.781 76.9621 145.968 77.0151 146.129 77.1175C146.289 77.2199 146.417 77.3672 146.494 77.5412C146.536 77.7615 146.517 77.9889 146.438 78.199C146.36 78.4091 146.226 78.5939 146.051 78.7335C145.7 79.0093 145.405 79.3495 145.181 79.7358C145.025 80.6839 145.098 81.6557 145.394 82.5697C146.162 84.581 146.798 86.6396 147.301 88.7329" fill="#B78876"/>
<path d="M138.039 82.8174C138.12 80.8187 139.767 72.9448 139.825 70.946C141.178 71.3608 141.962 72.8008 142.215 74.1947C142.469 75.5886 142.336 77.0228 142.578 78.4168C142.901 80.2888 143.874 81.9764 144.853 83.6008C145.832 85.2251 146.858 86.8782 147.301 88.7214C147.745 90.5646 149.415 95.3569 148.113 96.7393" fill="#B78876"/>
<path d="M137.664 96.2957L129.652 134.358C129.37 136.086 99.2852 162.323 99.2852 162.323L105.224 186.048L144.392 147.727C147.22 144.703 148.759 140.697 148.683 136.558L148.015 100.846L137.664 96.2957Z" fill="#B78876"/>
<path d="M136.293 83.0592L137.664 96.3072L148.032 100.869C148.032 100.869 148.159 99.9303 148.608 95.3396C149.098 90.2823 143.66 88.1108 141.235 84.3955C140.198 82.8 140.469 79.8624 139.668 76.2221C139.576 75.8016 139 73.2557 138.689 71.8906C138.526 71.132 138.081 70.4633 137.445 70.0186C136.973 69.7075 136.443 69.552 136.057 70.0186C135.671 70.4851 136.293 83.0592 136.293 83.0592Z" fill="#B78876"/>
<path d="M142.768 98.4961C143.92 97.4997 144.196 95.7141 143.764 94.2337C143.235 92.7761 142.401 91.4484 141.316 90.34C140.233 89.2343 139.323 87.9722 138.615 86.596C138.177 85.6053 137.97 84.5109 137.463 83.5374C136.956 82.564 136.098 81.6712 135.015 81.6309C135.884 87.1086 135.861 90.2709 137.641 96.2728" fill="#B78876"/>
<path d="M136.091 87.8862C136.091 87.8862 136.051 87.7364 135.988 87.4484C135.924 87.1604 135.815 86.6823 135.711 86.1927C135.463 85.0407 135.135 83.5719 134.795 81.8843L134.761 81.723H134.928C135.282 81.71 135.636 81.7675 135.968 81.8921C136.3 82.0167 136.605 82.2059 136.863 82.4487C137.654 83.2014 138.217 84.1615 138.487 85.2193C138.717 86.0414 139.02 86.8413 139.392 87.6097C139.674 88.1144 140.014 88.5842 140.406 89.0094C140.548 89.1727 140.665 89.3573 140.751 89.5566C140.593 89.4104 140.447 89.2526 140.313 89.0843C139.885 88.6792 139.513 88.2181 139.207 87.7134C138.801 86.9425 138.469 86.1343 138.217 85.2999C137.949 84.2951 137.411 83.3828 136.662 82.6619C136.194 82.2235 135.574 81.9856 134.934 81.9995L135.072 81.8267C135.769 85.2942 136.218 87.8919 136.091 87.8862Z" fill="#7C5142"/>
<path d="M140.751 84.5164C140.333 82.7344 140.014 80.9307 139.795 79.1135C139.475 77.3106 139.254 75.4916 139.133 73.6646C139.554 75.4478 139.873 77.2536 140.089 79.0732C140.409 80.8742 140.63 82.6913 140.751 84.5164Z" fill="#7C5142"/>
<path d="M144.052 84.9657C144.052 84.9657 144.093 85.0233 144.127 85.1673H144.041C143.613 83.9349 143.262 82.6767 142.993 81.4003C142.745 80.2886 142.566 79.2748 142.457 78.5203C142.368 78.1255 142.333 77.7205 142.353 77.3164C142.44 77.3164 142.791 79.1078 143.286 81.3484C143.684 83.1398 144.052 84.6489 144.127 85.1558H144.041C144.035 85.0348 144.035 84.9657 144.052 84.9657Z" fill="#7C5142"/>
<path d="M146.097 92.2638C146.05 92.2638 145.843 91.9642 145.428 91.5207C144.333 90.3566 142.845 89.6386 141.252 89.5047C140.919 89.5077 140.586 89.4865 140.256 89.4414C140.575 89.3177 140.917 89.2665 141.258 89.2916C142.088 89.302 142.906 89.4947 143.653 89.856C144.401 90.2173 145.06 90.7384 145.584 91.3825C145.82 91.6333 145.995 91.9348 146.097 92.2638Z" fill="#7C5142"/>
<path d="M138.603 97.344C138.318 96.8483 138.088 96.323 137.918 95.7773C137.444 94.4848 137.048 93.1654 136.731 91.8259C136.409 90.4976 136.166 89.1512 136.005 87.7939C135.911 87.2231 135.876 86.644 135.902 86.0659C136.046 86.6163 136.15 87.1765 136.213 87.7421C136.385 88.7731 136.65 90.2016 137.019 91.7741C137.388 93.3466 137.802 94.7232 138.119 95.7254C138.318 96.2531 138.479 96.7939 138.603 97.344Z" fill="#7C5142"/>
<path d="M92.252 163.008C92.7652 162.222 93.5613 161.664 94.4751 161.449C95.3889 161.235 96.3502 161.38 97.1595 161.856C101.387 158.4 105.713 155.048 109.941 151.609C108.559 158.521 107.637 168.157 110.73 174.482C110.73 174.482 114.63 181.728 120.839 180.622L115.298 186.048L106.56 194.152" fill="#E94235"/>
<path d="M90.8818 166.234C90.8884 165.306 91.1711 164.402 91.694 163.636C92.1355 162.818 92.8088 162.149 93.6294 161.712C92.3279 162.948 91.3795 164.509 90.8818 166.234Z" fill="#263238"/>
<path d="M95.4492 170.496C95.2094 170.112 95.0452 169.686 94.9653 169.24C94.7167 168.172 94.687 167.065 94.8781 165.985C95.0691 164.905 95.477 163.874 96.077 162.956C96.3058 162.564 96.6068 162.218 96.9641 161.937C97.0044 161.971 96.6703 162.363 96.2614 163.089C95.7293 164.007 95.361 165.011 95.1727 166.055C94.9923 167.102 94.9923 168.171 95.1727 169.217C95.3167 169.966 95.4953 170.45 95.4492 170.496Z" fill="#263238"/>
<path d="M116.612 185.288C116.187 185.552 115.722 185.747 115.235 185.864C113.904 186.185 112.512 186.143 111.203 185.743C109.264 185.127 107.568 183.918 106.353 182.287C104.894 180.286 103.909 177.979 103.473 175.542C102.66 171.152 102.427 166.675 102.782 162.225C102.914 160.497 103.105 159.149 103.266 158.193C103.341 157.72 103.41 157.357 103.462 157.11C103.48 156.982 103.51 156.857 103.554 156.735C103.558 156.865 103.546 156.994 103.519 157.121L103.381 158.21C103.26 159.155 103.099 160.514 102.995 162.242C102.7 166.673 102.96 171.123 103.767 175.49C104.198 177.865 105.152 180.113 106.561 182.074C107.725 183.688 109.367 184.897 111.255 185.53C112.53 185.94 113.889 186.014 115.201 185.743C115.681 185.623 116.152 185.471 116.612 185.288Z" fill="#FAFAFA"/>
<path d="M49.6459 228.77C49.5652 228.77 49.4961 220.579 49.4961 210.482C49.4961 200.385 49.5652 192.194 49.6459 192.194C49.7265 192.194 49.7956 200.379 49.7956 210.482C49.7956 220.585 49.7322 228.77 49.6459 228.77Z" fill="#263238"/>
<path d="M49.1852 185.875C49.1219 185.875 49.1391 185.057 48.8569 183.784C48.6887 183.041 48.4476 182.315 48.1369 181.619C47.7498 180.771 47.2728 179.968 46.7142 179.223C46.14 178.488 45.4893 177.816 44.7731 177.218C44.1833 176.736 43.5488 176.312 42.878 175.951C41.726 175.346 40.9254 175.145 40.9427 175.087C41.1393 175.097 41.3333 175.136 41.5187 175.202C41.737 175.257 41.9507 175.328 42.158 175.415C42.4406 175.513 42.7158 175.63 42.9817 175.767C43.6736 176.105 44.3265 176.519 44.9286 176.999C45.668 177.603 46.3383 178.287 46.9273 179.038C47.5022 179.803 47.9855 180.632 48.3673 181.509C48.681 182.226 48.9147 182.976 49.0643 183.744C49.1234 184.037 49.1638 184.333 49.1852 184.631C49.2121 184.855 49.2237 185.08 49.2198 185.305C49.2302 185.496 49.2186 185.687 49.1852 185.875Z" fill="#263238"/>
<path d="M88.6355 161.954C88.6833 162.114 88.7161 162.278 88.7335 162.443C88.8111 162.91 88.8611 163.382 88.8832 163.855C88.952 165.602 88.7082 167.348 88.1632 169.01C87.3516 171.488 85.913 173.714 83.9872 175.473C81.5718 177.584 78.5383 178.856 75.3398 179.101C72.1414 179.346 68.9494 178.55 66.2407 176.832C64.0753 175.383 62.3213 173.399 61.1488 171.072C60.3635 169.51 59.8622 167.821 59.6685 166.084C59.6217 165.613 59.6006 165.14 59.6051 164.667C59.5913 164.502 59.5913 164.336 59.6051 164.171C59.6322 164.333 59.6457 164.497 59.6455 164.661C59.6602 165.131 59.6987 165.6 59.7607 166.066C59.9966 167.779 60.5225 169.438 61.3159 170.974C62.4911 173.254 64.2301 175.195 66.3674 176.613C69.0271 178.285 72.153 179.061 75.286 178.826C78.4191 178.59 81.394 177.357 83.7741 175.306C85.6789 173.584 87.1107 171.402 87.9328 168.97C88.4848 167.331 88.7574 165.612 88.7392 163.883C88.7392 163.273 88.6874 162.801 88.6413 162.478C88.5952 162.155 88.6298 161.96 88.6355 161.954Z" fill="#263238"/>
<path d="M49.1508 211.928C49.1508 212.008 44.3642 210.505 38.5236 208.575C32.6829 206.646 27.9655 205.016 27.9943 204.935C28.0231 204.854 32.7751 206.358 38.6215 208.287C44.4679 210.217 49.1738 211.847 49.1508 211.928Z" fill="#FAFAFA"/>
<path d="M105.984 203.933C105.984 204.019 93.2832 204.14 77.616 204.204C61.9488 204.267 49.2422 204.255 49.2422 204.204C49.2422 204.152 61.943 203.996 77.616 203.933C93.2889 203.869 105.984 203.852 105.984 203.933Z" fill="#FAFAFA"/>
<path d="M106.272 208.95C106.272 209.03 93.502 209.1 77.76 209.1C62.0179 209.1 49.2422 209.03 49.2422 208.95C49.2422 208.869 62.0064 208.8 77.76 208.8C93.5136 208.8 106.272 208.863 106.272 208.95Z" fill="#FAFAFA"/>
<path d="M98.4503 215.044C98.4114 215.204 98.3574 215.36 98.289 215.511C98.1623 215.833 97.9895 216.271 97.7764 216.824L97.3962 217.768C97.2465 218.114 97.0679 218.477 96.8836 218.874C96.5034 219.658 96.1118 220.568 95.5646 221.524L94.7351 223.033C94.4471 223.557 94.1015 224.076 93.7674 224.629C93.1108 225.74 92.3044 226.858 91.4634 228.05C89.5931 230.584 87.5327 232.971 85.3002 235.192C83.036 237.383 80.6078 239.397 78.0369 241.217C76.8273 242.024 75.6926 242.813 74.5809 243.446C74.0049 243.769 73.498 244.103 72.9681 244.385L71.4244 245.18C70.4625 245.704 69.5409 246.085 68.7518 246.447C68.3543 246.62 67.9857 246.793 67.6401 246.937L66.6839 247.3L65.3649 247.79C65.2127 247.855 65.0545 247.905 64.8926 247.939C65.0364 247.858 65.1866 247.788 65.3419 247.732L66.6436 247.19L67.5825 246.805C67.9281 246.655 68.291 246.476 68.6827 246.292C69.466 245.918 70.3761 245.526 71.3265 244.99L72.8414 244.184C73.3655 243.896 73.8897 243.556 74.4427 243.233C75.5543 242.594 76.6775 241.799 77.8987 240.993C83.0293 237.372 87.5418 232.948 91.2618 227.889C92.097 226.708 92.9092 225.585 93.5658 224.496C93.9057 223.949 94.257 223.436 94.5508 222.918L95.386 221.42C95.962 220.481 96.3479 219.577 96.7396 218.799C96.9297 218.408 97.1198 218.051 97.2753 217.711C97.4308 217.371 97.5575 217.06 97.6785 216.778C97.9146 216.236 98.1047 215.81 98.2545 215.487C98.3121 215.336 98.3775 215.188 98.4503 215.044Z" fill="#263238"/>
<g opacity="0.3">
<path opacity="0.3" d="M96.1112 220.032C92.2405 224.744 88.1854 228.159 82.5003 230.36C79.7758 231.408 76.9246 232.128 74.2865 233.378C71.6485 234.628 69.1602 236.511 67.9506 239.178C67.0347 241.24 67.4782 244.362 69.6786 244.812C70.5334 244.916 71.4005 244.783 72.1842 244.426C83.4449 240.342 90.8465 230.026 96.0766 220.032" fill="black"/>
</g>
<path d="M55.8324 117.55C53.4016 119.457 53.2404 123.022 53.3613 126.109C53.4823 129.197 53.5168 132.71 51.2647 134.842C49.4215 136.598 46.1959 137.249 45.666 139.743C45.5318 140.331 45.5855 140.946 45.8193 141.501C46.0531 142.057 46.4553 142.525 46.9693 142.84C47.4832 143.155 48.083 143.301 48.6842 143.256C49.2853 143.212 49.8574 142.981 50.32 142.595C49.5367 144.547 49.8938 147.047 51.5584 148.355C53.2231 149.662 56.1319 149.04 56.7424 147.035C56.6481 147.367 56.622 147.714 56.6659 148.056C56.7098 148.398 56.8227 148.728 56.9978 149.025C57.1728 149.322 57.4064 149.58 57.6843 149.784C57.9622 149.988 58.2786 150.134 58.6145 150.212C58.9503 150.29 59.2985 150.299 59.6379 150.239C59.9773 150.178 60.3009 150.049 60.5891 149.86C60.8772 149.671 61.1239 149.425 61.3142 149.137C61.5045 148.85 61.6344 148.527 61.696 148.187" fill="#263238"/>
<path d="M91.1061 139.905C91.2219 140.309 91.4197 140.686 91.6872 141.011C91.9547 141.335 92.2861 141.602 92.6609 141.793C93.0356 141.985 93.4458 142.097 93.8658 142.123C94.2858 142.15 94.7068 142.089 95.1025 141.946C95.4982 141.803 95.8603 141.58 96.1662 141.291C96.472 141.002 96.7152 140.653 96.8806 140.266C97.046 139.879 97.13 139.462 97.1275 139.041C97.125 138.62 97.036 138.204 96.8661 137.819C96.388 136.621 95.1381 135.717 95.1093 134.433C95.0344 132.877 96.6702 131.846 98.1045 131.242C99.5387 130.637 101.221 129.83 101.445 128.292C101.67 126.754 100.385 125.574 99.3141 124.52C98.2427 123.466 97.2117 121.864 97.9662 120.562C98.3521 119.9 99.1182 119.543 99.6136 118.961C100.731 117.671 100.282 115.505 98.9915 114.405C97.7013 113.305 95.8523 113.051 94.1646 113.253C92.4769 113.455 90.8641 114.088 89.211 114.497C86.4698 115.159 83.621 115.244 80.845 114.749C78.0689 114.253 75.4259 113.187 73.083 111.617" fill="#263238"/>
<path d="M57.4847 129.427L63.4118 163.78C63.6574 165.218 64.1851 166.593 64.9645 167.825C65.7439 169.058 66.7597 170.125 67.9532 170.963C69.1466 171.802 70.4943 172.396 71.9184 172.711C73.3425 173.026 74.8149 173.056 76.2508 172.8C78.9714 172.313 81.4109 170.825 83.0889 168.628C84.767 166.432 85.5619 163.687 85.317 160.934C85.0463 157.887 84.8159 155.365 84.8159 155.365C84.8159 155.365 93.4214 153.153 92.6783 144.421C92.3154 140.193 90.8697 131.547 89.4643 123.736C88.7356 119.694 86.5116 116.074 83.235 113.597C79.9583 111.119 75.8691 109.966 71.7811 110.367L70.9401 110.448C68.7978 110.784 66.7444 111.545 64.9011 112.688C63.0579 113.83 61.4621 115.33 60.208 117.099C58.9538 118.868 58.0667 120.87 57.599 122.987C57.1313 125.105 57.0924 127.295 57.4847 129.427Z" fill="#B78876"/>
<path d="M87.6267 129.375C87.6642 129.7 87.5722 130.027 87.3706 130.285C87.169 130.542 86.8741 130.71 86.5496 130.752C86.3924 130.781 86.2309 130.778 86.0749 130.743C85.9189 130.708 85.7715 130.642 85.6415 130.549C85.5114 130.456 85.4014 130.338 85.318 130.202C85.2345 130.065 85.1793 129.914 85.1557 129.756C85.1182 129.431 85.2102 129.104 85.4118 128.846C85.6134 128.589 85.9083 128.421 86.2328 128.379C86.39 128.35 86.5515 128.353 86.7075 128.388C86.8635 128.423 87.0109 128.489 87.1409 128.582C87.2709 128.675 87.381 128.793 87.4644 128.929C87.5479 129.066 87.6031 129.217 87.6267 129.375Z" fill="#263238"/>
<path d="M88.0068 128.183C87.8686 128.356 86.8549 127.751 85.5128 127.884C84.1707 128.016 83.2491 128.788 83.0878 128.638C83.0129 128.569 83.1397 128.264 83.5371 127.907C84.0795 127.446 84.752 127.166 85.4609 127.106C86.1586 127.036 86.8603 127.19 87.4654 127.544C87.9089 127.82 88.076 128.102 88.0068 128.183Z" fill="#263238"/>
<path d="M74.4946 130.913C74.5274 131.238 74.4327 131.562 74.2306 131.818C74.0285 132.074 73.7349 132.241 73.4117 132.284C73.2545 132.312 73.0934 132.308 72.9377 132.273C72.782 132.238 72.6349 132.172 72.505 132.079C72.3752 131.986 72.2652 131.869 72.1815 131.733C72.0978 131.597 72.0422 131.445 72.0178 131.288C71.9833 130.963 72.0764 130.638 72.2775 130.381C72.4785 130.124 72.7717 129.956 73.0949 129.911C73.2528 129.883 73.4147 129.887 73.5711 129.922C73.7275 129.958 73.8752 130.024 74.0056 130.118C74.136 130.211 74.2464 130.329 74.3304 130.466C74.4144 130.603 74.4702 130.755 74.4946 130.913Z" fill="#263238"/>
<path d="M74.834 129.715C74.6958 129.894 73.682 129.289 72.3399 129.422C70.9978 129.554 70.082 130.326 69.915 130.176C69.8401 130.107 69.9668 129.802 70.3643 129.445C70.9079 128.986 71.5797 128.707 72.2881 128.644C72.9859 128.572 73.6885 128.725 74.2926 129.082C74.7361 129.358 74.8801 129.64 74.834 129.715Z" fill="#263238"/>
<path d="M80.6806 139.202C80.6806 139.121 81.487 138.897 82.8176 138.591C83.1574 138.522 83.48 138.424 83.5145 138.182C83.5048 137.827 83.3906 137.482 83.1862 137.192L81.9132 134.68C80.1449 131.098 78.8316 128.143 78.9756 128.073C79.1196 128.004 80.6691 130.85 82.4316 134.41L83.6585 136.944C83.9138 137.335 84.022 137.805 83.9638 138.269C83.9292 138.398 83.8648 138.518 83.7758 138.618C83.6868 138.718 83.5756 138.795 83.4512 138.845C83.2651 138.913 83.0718 138.959 82.8752 138.983C82.1552 139.145 81.4183 139.218 80.6806 139.202Z" fill="#263238"/>
<path d="M74.6675 124.416C74.5696 124.796 73.216 124.75 71.6608 125.096C70.1056 125.441 68.8672 125.994 68.631 125.672C68.5216 125.528 68.7059 125.159 69.207 124.756C69.8468 124.251 70.5966 123.903 71.3958 123.742C72.1929 123.567 73.0204 123.584 73.8092 123.794C74.391 123.984 74.7078 124.243 74.6675 124.416Z" fill="#263238"/>
<path d="M87.1374 124.341C86.93 124.669 85.9854 124.445 84.8334 124.537C83.6814 124.629 82.8001 124.946 82.5294 124.646C82.4199 124.502 82.5294 124.18 82.921 123.851C83.4371 123.444 84.067 123.206 84.7239 123.172C85.3783 123.118 86.0331 123.271 86.5959 123.61C87.0625 123.886 87.2238 124.186 87.1374 124.341Z" fill="#263238"/>
<path d="M66.0327 118.921L65.9866 118.967C64.703 120.199 63.9438 121.878 63.867 123.656C63.867 123.719 63.867 123.783 63.867 123.834C63.769 126.363 64.0743 128.892 63.9534 131.415C63.8324 133.937 63.2161 136.552 61.5399 138.448C60.8545 139.225 59.5642 139.841 58.8615 139.075C58.617 138.753 58.4692 138.367 58.4353 137.964C57.387 131.996 55.2212 126.818 54.6222 120.522C54.5362 119.68 54.6529 118.83 54.9625 118.043C55.2722 117.255 55.7657 116.553 56.402 115.995C57.6231 114.918 59.138 113.783 60.6702 114.336C62.2023 114.889 64.3623 117.441 65.6122 118.489" fill="#263238"/>
<path d="M60.814 133.09C60.6585 133.044 54.6393 131.904 55.4111 137.854C56.1829 143.804 62.0005 141.805 61.989 141.633C61.9775 141.46 60.814 133.09 60.814 133.09Z" fill="#B78876"/>
<path d="M59.9043 139.617C59.9043 139.617 59.8122 139.703 59.6451 139.801C59.5307 139.871 59.4037 139.917 59.2712 139.938C59.1388 139.959 59.0036 139.953 58.8733 139.922C58.2166 139.772 57.5542 138.839 57.3872 137.773C57.3054 137.264 57.3389 136.742 57.4851 136.247C57.5179 136.054 57.5968 135.871 57.7151 135.715C57.8334 135.558 57.9877 135.433 58.1648 135.348C58.2798 135.303 58.4068 135.299 58.5243 135.337C58.6419 135.375 58.7428 135.452 58.8099 135.556C58.9136 135.711 58.8906 135.838 58.9251 135.844C58.9597 135.85 59.0403 135.729 58.9597 135.487C58.9076 135.343 58.808 135.221 58.6774 135.141C58.5018 135.044 58.296 135.018 58.1014 135.066C57.8628 135.147 57.6487 135.287 57.4794 135.473C57.31 135.66 57.1911 135.886 57.1338 136.132C56.9466 136.688 56.8972 137.281 56.9898 137.86C57.1856 139.052 57.9459 140.095 58.8387 140.233C59.0046 140.26 59.1744 140.248 59.3352 140.199C59.4959 140.15 59.6433 140.065 59.7661 139.951C59.9043 139.761 59.9043 139.622 59.9043 139.617Z" fill="#7C5142"/>
<path d="M60.5498 115.281C58.8218 113.034 62.5428 109.21 65.3997 107.994C68.2567 106.779 72.2829 107.833 75.3127 108.518C77.2193 108.956 79.1489 109.63 81.0727 109.359C82.3626 109.102 83.607 108.653 84.7649 108.029C85.9215 107.394 87.1955 107.002 88.5089 106.877C89.1667 106.827 89.8257 106.958 90.4145 107.255C91.0033 107.553 91.4996 108.005 91.8497 108.565C92.4602 109.717 91.913 111.445 90.6343 111.761C91.0276 111.491 91.4807 111.32 91.9547 111.263C92.4287 111.206 92.9094 111.265 93.3555 111.435C93.8017 111.605 94.1999 111.88 94.516 112.238C94.8321 112.596 95.0566 113.025 95.1703 113.489C95.284 113.952 95.2834 114.437 95.1686 114.9C95.0538 115.363 94.8282 115.792 94.5112 116.149C94.1943 116.506 93.7954 116.781 93.3488 116.949C92.9023 117.118 92.4214 117.176 91.9476 117.118C92.7367 116.392 94.1421 117.331 94.1421 118.397C94.1421 119.462 93.2493 120.338 92.3162 120.862C89.9316 122.198 86.994 122.129 84.3329 121.513C81.6717 120.897 79.1489 119.785 76.4993 119.094C73.8497 118.403 69.4087 117.158 66.9319 118.316C65.1117 119.163 64.0173 121.565 62.8999 121.196C62.3711 120.977 61.9013 120.636 61.5281 120.202C61.1549 119.768 60.8889 119.252 60.7514 118.696C60.4941 117.579 60.4202 116.427 60.5325 115.286" fill="#263238"/>
<path d="M60.8896 134.11C60.9639 137.274 61.3263 140.424 61.9725 143.522C62.6183 146.631 64.0931 149.507 66.2407 151.845C69.1207 154.8 72.8992 157.605 76.9888 158.302C81.4528 159.039 86.9133 158.106 90.5479 155.422C92.2759 154.149 93.5258 151.39 92.9901 149.305C93.7217 148.96 94.3478 148.425 94.8035 147.757C95.2593 147.089 95.5281 146.311 95.5821 145.503C95.6743 143.891 94.6893 141.875 93.4164 141.662C94.3725 141.5 94.649 139.98 94.2861 139.121C93.9232 138.263 92.6618 138.004 91.7056 138.188C90.7606 138.436 89.8816 138.888 89.1309 139.513C88.3846 140.139 87.5425 140.641 86.6368 140.999C83.5495 142.001 80.4218 139.271 77.1789 139.404C74.2471 139.519 71.6378 141.955 68.729 141.546C67.9215 141.392 67.1555 141.07 66.4807 140.601C65.8058 140.132 65.2374 139.525 64.8122 138.822C63.9136 137.445 64.3053 132.359 63.954 130.758" fill="#263238"/>
<g opacity="0.6">
<path opacity="0.6" d="M84.4183 147.825C84.1756 147.768 83.937 147.695 83.7041 147.606C83.14 147.445 82.5463 147.415 81.969 147.52C81.3916 147.625 80.8462 147.861 80.3748 148.211C80.0062 148.476 79.7988 148.689 79.7988 148.66C79.7988 148.631 79.914 148.378 80.2654 148.084C80.7385 147.667 81.3164 147.388 81.9368 147.277C82.5571 147.165 83.1961 147.225 83.7848 147.45C84.211 147.594 84.4356 147.796 84.4183 147.825Z" fill="#455A64"/>
</g>
<path d="M78.1111 141.206C78.33 141.172 78.474 142.629 79.8391 143.51C81.2043 144.392 82.7191 144.115 82.7537 144.317C82.7825 144.403 82.4369 144.634 81.7803 144.714C80.9293 144.814 80.0705 144.61 79.3553 144.138C78.6703 143.681 78.1908 142.974 78.019 142.168C77.8865 141.581 78.0132 141.206 78.1111 141.206Z" fill="white"/>
<path d="M73.7803 157.329C73.9105 157.358 74.0364 157.405 74.1547 157.467C74.4024 157.559 74.7652 157.686 75.2433 157.818C76.5981 158.184 77.9887 158.403 79.3905 158.469C80.3505 158.526 81.3135 158.506 82.2705 158.412C83.3742 158.313 84.4648 158.1 85.5249 157.778C86.6954 157.428 87.8119 156.919 88.8427 156.263C89.9635 155.587 90.9418 154.699 91.7227 153.648C92.6503 152.411 93.0632 150.863 92.8747 149.328V149.207L92.9783 149.161C93.6948 148.828 94.3151 148.319 94.7812 147.681C95.0073 147.38 95.2004 147.055 95.3572 146.713C95.4948 146.381 95.5803 146.029 95.6107 145.67C95.6734 145.022 95.5807 144.367 95.3403 143.761C95.0999 143.155 94.7187 142.615 94.2283 142.186L94.1419 142.116L94.211 142.03C94.4708 141.7 94.6403 141.309 94.7029 140.894C94.7655 140.479 94.7191 140.054 94.5681 139.663C94.4497 139.366 94.2708 139.097 94.0427 138.872C93.8146 138.648 93.5424 138.474 93.2433 138.361C92.8615 138.208 92.4484 138.151 92.0395 138.194C91.7572 138.228 91.619 138.28 91.6132 138.263C91.7462 138.2 91.888 138.157 92.0337 138.136C92.5809 138.048 93.142 138.143 93.6296 138.406C94.1172 138.67 94.5039 139.087 94.7294 139.594C94.9 140.016 94.9578 140.475 94.8972 140.927C94.8366 141.378 94.6597 141.806 94.3838 142.168V142.013C94.91 142.462 95.3214 143.03 95.5839 143.67C95.8463 144.311 95.9523 145.004 95.8929 145.693C95.8634 146.089 95.7721 146.478 95.6222 146.845C95.4552 147.206 95.2526 147.55 95.0174 147.871C94.527 148.555 93.8683 149.1 93.1051 149.455L93.1915 149.282C93.4227 150.895 93.0088 152.534 92.0395 153.844C91.2355 154.925 90.2278 155.839 89.0731 156.534C88.0214 157.203 86.8788 157.717 85.6804 158.06C84.6016 158.384 83.4914 158.593 82.3684 158.682C81.3927 158.76 80.4123 158.76 79.4366 158.682C78.0238 158.594 76.6261 158.341 75.2721 157.928C74.905 157.814 74.5453 157.677 74.195 157.519C74.0504 157.47 73.9113 157.407 73.7803 157.329Z" fill="#455A64"/>
<path d="M47.6697 142.128C47.5595 142.098 47.4559 142.047 47.3645 141.978C47.1049 141.784 46.9053 141.52 46.7885 141.218C46.5938 140.731 46.5516 140.197 46.6675 139.686C46.8492 139.009 47.2554 138.414 47.8195 137.998C48.4822 137.499 49.2214 137.11 50.0083 136.846C50.8902 136.569 51.7429 136.206 52.5542 135.763C53.408 135.223 54.077 134.435 54.4723 133.505C54.9059 132.505 55.137 131.428 55.152 130.337C55.1981 128.085 54.6797 125.948 54.6221 123.961C54.5645 121.974 54.9101 120.119 55.8144 118.875C56.4917 117.878 57.5201 117.172 58.6944 116.899C59.0129 116.836 59.339 116.82 59.6621 116.853C59.7748 116.866 59.8865 116.887 59.9962 116.917C59.5694 116.896 59.1418 116.929 58.7232 117.014C57.5913 117.313 56.6091 118.019 55.9641 118.996C55.1232 120.206 54.7718 122.003 54.8755 123.95C54.9792 125.896 55.4515 128.033 55.4515 130.349C55.4275 131.481 55.1789 132.597 54.72 133.632C54.2965 134.613 53.583 135.441 52.6752 136.005C51.8417 136.456 50.9633 136.819 50.0544 137.088C49.2898 137.33 48.5685 137.691 47.9174 138.159C47.3826 138.538 46.9909 139.086 46.8057 139.715C46.6802 140.194 46.7023 140.7 46.8691 141.166C47.0209 141.567 47.3028 141.906 47.6697 142.128Z" fill="#455A64"/>
<path d="M90.8529 111.663C90.9347 111.614 91.0216 111.573 91.1121 111.542C91.2216 111.494 91.3354 111.455 91.452 111.427C91.6083 111.381 91.7682 111.348 91.9301 111.329C92.4676 111.271 93.0114 111.335 93.5203 111.518C94.0293 111.7 94.49 111.996 94.8677 112.383C95.2454 112.89 95.5188 113.466 95.672 114.08C95.8253 114.693 95.8553 115.33 95.7605 115.955C95.6474 116.729 95.3802 117.474 94.9746 118.144C94.5689 118.813 94.0331 119.395 93.3989 119.854C91.9384 120.917 90.1931 121.519 88.3877 121.582C86.4304 121.659 84.4724 121.45 82.5758 120.96C79.5631 120.221 76.7045 118.955 74.1317 117.222C73.0319 116.466 71.8766 115.794 70.6757 115.212C69.6238 114.725 68.4913 114.436 67.3349 114.359C65.6503 114.243 63.9637 114.556 62.4331 115.269C61.356 115.776 60.8434 116.214 60.8203 116.179C61.2934 115.772 61.8183 115.429 62.3813 115.16C63.9209 114.398 65.6315 114.049 67.3464 114.146C68.5403 114.207 69.7123 114.49 70.8024 114.981C72.0206 115.562 73.1932 116.234 74.3102 116.991C76.8648 118.69 79.6945 119.934 82.6737 120.666C84.5411 121.156 86.4696 121.374 88.3992 121.311C90.1496 121.25 91.8429 120.673 93.2664 119.653C93.8774 119.215 94.3957 118.662 94.7912 118.023C95.1867 117.384 95.4515 116.673 95.5704 115.932C95.6719 115.331 95.6534 114.717 95.516 114.123C95.3785 113.53 95.1249 112.97 94.7697 112.476C94.4124 112.101 93.9766 111.81 93.4936 111.624C93.0106 111.438 92.4924 111.361 91.9761 111.398C91.5955 111.458 91.22 111.546 90.8529 111.663Z" fill="#455A64"/>
<path d="M87.7996 106.589C87.799 107.042 87.7069 107.491 87.5289 107.908C87.0294 109.054 86.1618 110.001 85.0636 110.598C84.3221 111.029 83.5081 111.322 82.6616 111.462C81.6914 111.603 80.7058 111.603 79.7356 111.462C77.6793 111.203 75.5538 110.396 73.3189 109.699C71.0841 109.002 68.8319 108.588 66.8505 109.014C65.0947 109.397 63.5045 110.324 62.3058 111.663C61.4893 112.557 60.864 113.607 60.4684 114.751C60.2034 115.569 60.1516 116.047 60.117 116.041C60.1029 115.926 60.1029 115.81 60.117 115.695C60.1631 115.364 60.2344 115.037 60.3301 114.716C60.6879 113.533 61.2992 112.442 62.1215 111.519C63.332 110.121 64.9593 109.148 66.7641 108.743C68.8146 108.288 71.1301 108.709 73.3765 109.411C75.6229 110.114 77.7311 110.92 79.7413 111.185C80.6867 111.323 81.6471 111.323 82.5925 111.185C83.4138 111.061 84.206 110.79 84.9311 110.385C86.0046 109.822 86.8673 108.927 87.3906 107.833C87.5599 107.43 87.6966 107.014 87.7996 106.589Z" fill="#455A64"/>
<path d="M131.397 70.1338C131.345 70.1972 128.108 67.5648 124.163 64.2528C120.217 60.9408 117.066 58.176 117.124 58.1357C117.181 58.0954 120.413 60.7047 124.358 64.0224C128.304 67.3402 131.455 70.0704 131.397 70.1338Z" fill="#263238"/>
<path d="M147.824 66.1882C147.744 66.1882 147.415 61.0733 147.099 54.7546C146.782 48.4359 146.586 43.3095 146.667 43.3037C146.747 43.298 147.076 48.4186 147.398 54.7431C147.721 61.0676 147.905 66.1882 147.824 66.1882Z" fill="#263238"/>
<path d="M137.364 62.5305C137.283 62.5305 136.275 59.6505 135.106 56.0045C133.937 52.3584 133.055 49.415 133.136 49.392C133.217 49.3689 134.225 52.272 135.394 55.9123C136.563 59.5526 137.439 62.5075 137.364 62.5305Z" fill="#263238"/>
<path d="M128.038 75.5366C126.521 75.003 125.038 74.3778 123.597 73.6646C122.114 73.0392 120.671 72.3217 119.277 71.5161C120.794 72.0497 122.277 72.6748 123.718 73.3881C125.201 74.0148 126.644 74.7323 128.038 75.5366Z" fill="#263238"/>
<path d="M112.896 68.9185C112.896 68.9992 112.406 69.0107 111.824 68.9185C111.242 68.8264 110.782 68.7227 110.793 68.642C110.805 68.5614 111.283 68.5499 111.859 68.642C112.435 68.7342 112.896 68.8379 112.896 68.9185Z" fill="#263238"/>
<path d="M133.511 45.671C133.425 45.671 133.361 45.2044 133.361 44.6227C133.361 44.0409 133.425 43.5686 133.511 43.5686C133.597 43.5686 133.661 44.0409 133.661 44.6227C133.661 45.2044 133.592 45.671 133.511 45.671Z" fill="#263238"/>
<path d="M168.191 53.8041C168.255 53.8617 165.594 56.9088 162.258 60.6125C158.923 64.3161 156.17 67.2768 156.095 67.2192C156.02 67.1616 158.693 64.1203 162.028 60.4109C165.363 56.7014 168.134 53.7523 168.191 53.8041Z" fill="#263238"/>
<path d="M172.425 49.6166C172.483 49.6742 172.177 50.0774 171.74 50.5151C171.302 50.9529 170.904 51.2524 170.847 51.1948C170.789 51.1372 171.095 50.734 171.532 50.302C171.97 49.87 172.367 49.5359 172.425 49.6166Z" fill="#263238"/>
<path d="M182.69 64.3623C182.443 64.5402 182.18 64.6963 181.906 64.8289C181.394 65.1111 180.645 65.5085 179.712 65.9809C177.84 66.9255 175.219 68.1581 172.27 69.385C169.321 70.6119 166.596 71.5911 164.603 72.265C163.612 72.5933 162.806 72.841 162.242 73.0081C161.956 73.1118 161.661 73.1871 161.36 73.2327C161.633 73.0979 161.916 72.9862 162.207 72.8986L164.511 72.0634C166.481 71.3549 169.182 70.3354 172.132 69.1258C175.081 67.9162 177.701 66.7009 179.62 65.8081L181.854 64.7482C182.123 64.5991 182.402 64.4702 182.69 64.3623Z" fill="#263238"/>
<path d="M174.268 78.5435C173.776 78.7627 173.263 78.9306 172.736 79.0446C171.78 79.3095 170.432 79.6206 168.946 79.8798C167.46 80.139 166.066 80.283 165.092 80.3521C164.559 80.4199 164.02 80.4296 163.485 80.3809C164.008 80.2603 164.54 80.1795 165.075 80.139C166.054 80.018 167.408 79.8337 168.894 79.563C170.38 79.2923 171.722 79.0331 172.69 78.8257C173.206 78.6832 173.734 78.5887 174.268 78.5435Z" fill="#263238"/>
<path d="M181.923 77.1263C180.826 77.326 179.702 77.326 178.605 77.1263C179.702 76.9266 180.826 76.9266 181.923 77.1263Z" fill="#263238"/>
<path d="M138.631 220.032C139.442 220.17 140.216 220.469 140.909 220.913C141.602 221.356 142.198 221.934 142.663 222.612C143.58 223.983 144.172 225.546 144.391 227.18C144.915 230.314 144.068 233.873 142.905 236.834C139.708 235.331 138.003 231.61 137.26 229.663C136.108 226.593 135.814 220.32 138.602 220.032" fill="#28BB46"/>
<path d="M147.646 241.263C147.164 240.478 146.9 239.58 146.878 238.659C146.857 237.738 147.08 236.828 147.525 236.022C147.981 235.223 148.592 234.523 149.322 233.963C150.051 233.403 150.886 232.995 151.776 232.762C152.174 232.61 152.6 232.546 153.025 232.576C153.449 232.606 153.862 232.728 154.235 232.934C154.546 233.183 154.784 233.51 154.926 233.882C155.067 234.253 155.107 234.656 155.042 235.048C154.899 235.832 154.553 236.565 154.039 237.174C152.369 239.328 150.364 241.102 147.646 241.263Z" fill="#28BB46"/>
<path d="M146.839 251.194C146.773 250.981 146.736 250.76 146.73 250.537C146.69 250.111 146.632 249.489 146.592 248.723C146.446 246.719 146.568 244.704 146.955 242.732C147.368 240.74 148.309 238.896 149.679 237.393C150.102 236.951 150.578 236.564 151.096 236.241C151.269 236.108 151.464 236.007 151.672 235.941C151.017 236.433 150.404 236.978 149.84 237.571C148.563 239.077 147.683 240.879 147.283 242.813C146.902 244.758 146.747 246.741 146.822 248.723C146.877 249.545 146.883 250.37 146.839 251.194Z" fill="#263238"/>
<path d="M139.392 224.807C139.553 225.138 139.688 225.48 139.795 225.832C140.031 226.501 140.371 227.468 140.751 228.672C141.54 231.08 142.571 234.432 143.631 238.147C144.691 241.863 145.543 245.261 146.131 247.726C146.425 248.959 146.649 249.955 146.793 250.652C146.889 251.007 146.955 251.369 146.989 251.735C146.848 251.396 146.738 251.045 146.661 250.687C146.459 249.938 146.2 248.959 145.889 247.807C145.238 245.359 144.334 241.978 143.285 238.262C142.237 234.547 141.246 231.189 140.521 228.764L139.674 225.884C139.55 225.534 139.456 225.173 139.392 224.807Z" fill="#263238"/>
<path d="M143.389 244.224C142.585 242.463 141.374 240.917 139.856 239.716C138.338 238.514 136.556 237.69 134.657 237.312C133.689 237.128 132.497 237.151 131.955 237.98C131.414 238.81 131.88 239.916 132.462 240.71C133.704 242.359 135.406 243.602 137.354 244.283C139.302 244.964 141.408 245.052 143.406 244.535" fill="#28BB46"/>
<path d="M135.717 240.071C135.932 240.063 136.148 240.086 136.356 240.14C136.604 240.174 136.848 240.226 137.088 240.296C137.412 240.372 137.731 240.466 138.044 240.578C138.862 240.865 139.65 241.233 140.394 241.678C142.232 242.765 143.787 244.271 144.933 246.073C145.393 246.8 145.779 247.572 146.085 248.377C146.209 248.685 146.315 249.001 146.402 249.322C146.481 249.56 146.543 249.805 146.586 250.053C146.647 250.259 146.674 250.472 146.667 250.687C146.603 250.687 146.425 249.805 145.854 248.475C145.516 247.697 145.109 246.951 144.639 246.246C144.058 245.387 143.392 244.588 142.652 243.861C141.902 243.145 141.084 242.505 140.21 241.949C139.488 241.5 138.729 241.114 137.94 240.797C136.604 240.29 135.705 240.14 135.717 240.071Z" fill="#263238"/>
</svg>
