<svg width="486" height="336" viewBox="0 0 486 336" fill="none" xmlns="http://www.w3.org/2000/svg">
<path d="M437.303 309.641H405.11V309.866H437.303V309.641Z" fill="#EBEBEB"/>
<path d="M321.946 312.089H313.499V312.314H321.946V312.089Z" fill="#EBEBEB"/>
<path d="M404.138 301.289H385.485V301.514H404.138V301.289Z" fill="#EBEBEB"/>
<path d="M92.9719 302.801H50.9912V303.026H92.9719V302.801Z" fill="#EBEBEB"/>
<path d="M107.786 302.801H101.633V303.026H107.786V302.801Z" fill="#EBEBEB"/>
<path d="M218.846 306.599H127.789V306.824H218.846V306.599Z" fill="#EBEBEB"/>
<path d="M231.725 255.02H44.0316C42.5596 255.02 41.1479 254.479 40.107 253.515C39.0662 252.551 38.4814 251.244 38.4814 249.881V5.594C38.4943 4.23886 39.0847 2.94327 40.1241 1.98923C41.1636 1.0352 42.568 0.499948 44.0316 0.5H231.725C232.454 0.5 233.175 0.632923 233.849 0.891182C234.522 1.14944 235.134 1.52798 235.649 2.00518C236.165 2.48238 236.574 3.0489 236.852 3.67239C237.131 4.29588 237.275 4.96414 237.275 5.639V249.881C237.275 250.556 237.131 251.224 236.852 251.848C236.574 252.471 236.165 253.038 235.649 253.515C235.134 253.992 234.522 254.371 233.849 254.629C233.175 254.887 232.454 255.02 231.725 255.02V255.02ZM44.0316 0.680001C42.6248 0.68238 41.2764 1.20087 40.2817 2.1219C39.287 3.04294 38.727 4.29146 38.7244 5.594V249.881C38.727 251.184 39.287 252.432 40.2817 253.353C41.2764 254.274 42.6248 254.793 44.0316 254.795H231.725C233.132 254.793 234.48 254.274 235.475 253.353C236.469 252.432 237.029 251.184 237.032 249.881V5.594C237.029 4.29146 236.469 3.04294 235.475 2.1219C234.48 1.20087 233.132 0.68238 231.725 0.680001H44.0316Z" fill="#EBEBEB"/>
<path d="M441.968 255.02H254.275C252.803 255.02 251.391 254.479 250.35 253.515C249.309 252.551 248.725 251.244 248.725 249.881V5.594C248.737 4.23886 249.328 2.94327 250.367 1.98923C251.407 1.0352 252.811 0.499948 254.275 0.5H441.968C443.44 0.5 444.852 1.04143 445.893 2.00518C446.933 2.96893 447.518 4.27605 447.518 5.639V249.881C447.518 251.244 446.933 252.551 445.893 253.515C444.852 254.479 443.44 255.02 441.968 255.02V255.02ZM254.275 0.680001C252.868 0.68238 251.52 1.20087 250.525 2.1219C249.53 3.04294 248.97 4.29146 248.968 5.594V249.881C248.97 251.184 249.53 252.432 250.525 253.353C251.52 254.274 252.868 254.793 254.275 254.795H441.968C443.375 254.793 444.723 254.274 445.718 253.353C446.713 252.432 447.273 251.184 447.275 249.881V5.594C447.273 4.29146 446.713 3.04294 445.718 2.1219C444.723 1.20087 443.375 0.68238 441.968 0.680001H254.275Z" fill="#EBEBEB"/>
<path d="M69.7759 161.066L61.0273 165.629L62.9879 168.852L71.7364 164.289L69.7759 161.066Z" fill="#E0E0E0"/>
<path d="M91.0274 207.563H84.5928V217.76H91.0274V207.563Z" fill="#E0E0E0"/>
<path d="M93.1956 208.841L88.5202 211.469C87.9779 211.775 87.374 211.975 86.7453 212.057C86.1167 212.139 85.4766 212.101 84.8642 211.946C84.2518 211.791 83.68 211.522 83.1839 211.155C82.6877 210.788 82.2776 210.332 81.9787 209.813L59.2922 170.357C58.7297 169.383 58.5925 168.246 58.909 167.181C59.2256 166.116 59.9716 165.204 60.9932 164.633V164.633C62.0102 164.06 63.2259 163.869 64.3902 164.1C65.5545 164.331 66.5789 164.966 67.2529 165.875L94.6147 202.703C94.9756 203.187 95.2258 203.734 95.35 204.31C95.4742 204.887 95.4697 205.481 95.3368 206.056C95.2038 206.631 94.9453 207.174 94.5771 207.653C94.2089 208.132 93.7387 208.537 93.1956 208.841V208.841Z" fill="#EBEBEB"/>
<path d="M68.2147 166.658L66.5234 162.77C66.4227 162.535 66.374 162.284 66.3804 162.032C66.3868 161.779 66.4481 161.53 66.5606 161.3C66.6731 161.07 66.8345 160.863 67.0352 160.692C67.2358 160.521 67.4717 160.389 67.7287 160.304L115.357 144.851C115.848 144.691 116.388 144.713 116.862 144.913C117.337 145.112 117.71 145.474 117.903 145.922V145.922C118.1 146.369 118.102 146.87 117.908 147.318C117.714 147.766 117.339 148.127 116.863 148.325L70.9557 167.666C70.7055 167.775 70.4339 167.835 70.1577 167.843C69.8814 167.851 69.6063 167.806 69.3494 167.712C69.0925 167.617 68.8593 167.475 68.6641 167.294C68.4689 167.112 68.316 166.896 68.2147 166.658V166.658Z" fill="#EBEBEB"/>
<path d="M117.971 147.488C117.063 147.271 116.261 146.774 115.699 146.079C115.137 145.383 114.848 144.531 114.88 143.663L115.094 138.263L115.638 136.463L118.895 131.837C119.012 131.67 119.167 131.528 119.348 131.42C119.528 131.312 119.732 131.241 119.944 131.21C120.157 131.18 120.374 131.191 120.582 131.243C120.789 131.295 120.983 131.387 121.15 131.513V131.513L118.632 137.696L118.292 138.884L118.127 143.762C118.121 143.944 118.182 144.123 118.3 144.268C118.419 144.414 118.587 144.518 118.778 144.563V144.563C118.967 144.606 119.166 144.589 119.343 144.514C119.519 144.439 119.663 144.31 119.75 144.149L122.151 139.811L122.481 138.614L123.453 132.08C123.664 132.045 123.881 132.052 124.089 132.1C124.296 132.148 124.491 132.236 124.66 132.358C124.828 132.481 124.968 132.634 125.068 132.81C125.168 132.985 125.227 133.178 125.242 133.376L125.64 139.208L125.096 141.008L122.608 145.508C122.189 146.273 121.503 146.886 120.662 147.245C119.82 147.604 118.872 147.69 117.971 147.488V147.488Z" fill="#E6E6E6"/>
<g opacity="0.7">
<path opacity="0.7" d="M88.5688 200.984C87.7952 200.577 86.8986 200.416 86.0167 200.526C85.1348 200.636 84.3164 201.011 83.6871 201.594C83.0578 202.177 82.6526 202.935 82.5336 203.751C82.4146 204.568 82.5884 205.398 83.0284 206.114L88.5688 200.984Z" fill="white"/>
<path opacity="0.7" d="M84.5645 207.563C85.3375 207.96 86.229 208.114 87.1044 208C87.9798 207.887 88.7916 207.513 89.4172 206.934C90.0427 206.356 90.4482 205.605 90.5722 204.795C90.6963 203.984 90.5323 203.159 90.1049 202.442L84.5645 207.563Z" fill="white"/>
</g>
<g opacity="0.7">
<path opacity="0.7" d="M73.3668 160.979C73.0476 160.731 72.6667 160.561 72.2587 160.484C71.9393 160.421 71.6096 160.418 71.2889 160.475C70.9682 160.532 70.663 160.648 70.3914 160.815C70.1197 160.983 69.8869 161.199 69.7069 161.452C69.5268 161.704 69.403 161.987 69.3427 162.284C69.2603 162.662 69.2871 163.053 69.4205 163.418L73.3668 160.979Z" fill="white"/>
<path opacity="0.7" d="M70.208 164.435C70.5272 164.683 70.9081 164.853 71.3161 164.93C71.6322 164.989 71.9578 164.988 72.2739 164.929C72.5899 164.87 72.8901 164.754 73.157 164.586C73.4239 164.419 73.6521 164.204 73.8283 163.954C74.0045 163.704 74.1253 163.424 74.1835 163.13C74.2659 162.752 74.2391 162.361 74.1057 161.996L70.208 164.435Z" fill="white"/>
</g>
<path d="M94.614 272.678H81.0352V279.599H94.614V272.678Z" fill="#E0E0E0"/>
<path d="M122.54 295.385H53.1104L54.7142 288.239C55.4116 285.122 57.2483 282.322 59.9147 280.312C62.5811 278.303 65.9142 277.205 69.3525 277.205H106.288C109.727 277.205 113.06 278.303 115.726 280.312C118.393 282.322 120.229 285.122 120.927 288.239L122.54 295.385Z" fill="#F0F0F0"/>
<path d="M90.8819 274.181H83.5238C77.5946 274.181 72.8318 270.581 73.2303 266.234L76.9142 220.883C77.235 216.914 81.7742 213.818 87.198 213.818C92.6606 213.818 97.1707 216.914 97.4915 220.883L101.166 266.234C101.516 270.545 96.8111 274.181 90.8819 274.181Z" fill="#EBEBEB"/>
<g opacity="0.7">
<path opacity="0.7" d="M89.9681 258.62C88.8317 258.031 87.5188 257.802 86.229 257.968C84.9391 258.133 83.7429 258.684 82.8222 259.536C81.9014 260.389 81.3065 261.497 81.1278 262.691C80.9492 263.885 81.1966 265.101 81.8324 266.153L89.9681 258.62Z" fill="white"/>
<path opacity="0.7" d="M84.1357 268.286C85.2721 268.875 86.585 269.104 87.8748 268.938C89.1647 268.773 90.3609 268.222 91.2816 267.37C92.2024 266.517 92.7973 265.409 92.976 264.215C93.1546 263.021 92.9072 261.805 92.2714 260.753L84.1357 268.286Z" fill="white"/>
</g>
<path d="M418.047 247.235C428.542 247.235 437.05 239.357 437.05 229.64C437.05 219.922 428.542 212.045 418.047 212.045C407.553 212.045 399.045 219.922 399.045 229.64C399.045 239.357 407.553 247.235 418.047 247.235Z" fill="#F0F0F0"/>
<path d="M418.106 247.631C415.553 247.631 413.025 247.165 410.667 246.261C408.308 245.356 406.165 244.03 404.36 242.359C402.555 240.688 401.123 238.703 400.146 236.519C399.169 234.336 398.666 231.995 398.666 229.631C398.666 227.267 399.169 224.927 400.146 222.743C401.123 220.559 402.555 218.575 404.36 216.903C406.165 215.232 408.308 213.906 410.667 213.001C413.025 212.097 415.553 211.631 418.106 211.631V212.423C413.18 212.423 408.455 214.235 404.972 217.461C401.488 220.686 399.531 225.061 399.531 229.622C399.531 234.183 401.488 238.558 404.972 241.784C408.455 245.009 413.18 246.821 418.106 246.821V247.631Z" fill="white"/>
<path d="M418.105 247.631V246.839C420.545 246.839 422.96 246.394 425.214 245.53C427.467 244.665 429.515 243.399 431.24 241.801C432.965 240.204 434.333 238.308 435.266 236.222C436.2 234.135 436.68 231.899 436.68 229.64C436.68 227.381 436.2 225.145 435.266 223.058C434.333 220.971 432.965 219.075 431.24 217.478C429.515 215.881 427.467 214.614 425.214 213.75C422.96 212.886 420.545 212.441 418.105 212.441V211.649C423.261 211.649 428.206 213.545 431.852 216.921C435.497 220.297 437.545 224.875 437.545 229.649C437.545 234.423 435.497 239.001 431.852 242.377C428.206 245.753 423.261 247.649 418.105 247.649V247.631Z" fill="white"/>
<path d="M428.029 229.64H427.174C427.174 223.817 423.986 216.014 417.872 212.387L418.339 211.712C424.705 215.501 428.029 223.601 428.029 229.64Z" fill="white"/>
<path d="M418.339 247.037L417.872 246.371C423.986 242.771 427.174 234.941 427.174 229.109H428.029C428.029 235.148 424.705 243.248 418.339 247.037Z" fill="white"/>
<path d="M409.037 229.64H408.182C408.182 223.592 411.506 215.492 417.902 211.712L418.368 212.378C412.225 216.005 409.037 223.808 409.037 229.64Z" fill="white"/>
<path d="M417.872 247.028C411.506 243.248 408.152 235.148 408.152 229.1H409.008C409.008 234.932 412.196 242.735 418.31 246.362L417.872 247.028Z" fill="white"/>
<path d="M418.533 212.045H417.678V247.235H418.533V212.045Z" fill="white"/>
<path d="M434.183 219.875H402.02V220.667H434.183V219.875Z" fill="white"/>
<path d="M437.099 229.541H399.113V230.333H437.099V229.541Z" fill="white"/>
<path d="M433.765 239.207H402.447V239.999H433.765V239.207Z" fill="white"/>
<path d="M81.5901 22.5318C81.0204 22.047 80.4129 21.6017 79.7724 21.1998L80.5209 18.2208C79.7265 17.7728 78.8981 17.3788 78.0423 17.0418L75.865 19.3368C74.4133 18.8468 72.8957 18.5439 71.3549 18.4368L70.3829 15.5118C69.451 15.4953 68.519 15.5374 67.5933 15.6378L66.9518 18.6348C65.4271 18.8788 63.9456 19.3148 62.5486 19.9307L60.1478 17.8427C59.3309 18.2618 58.545 18.7309 57.7955 19.2468L58.8647 22.0998C58.2753 22.5629 57.72 23.062 57.2026 23.5938C56.6849 24.1227 56.2044 24.6819 55.764 25.2677L52.5467 24.5748C52.0687 25.3132 51.6434 26.0799 51.2734 26.8698L53.752 28.8858C53.2228 30.233 52.8957 31.6411 52.78 33.0708L49.621 33.9708C49.603 34.8336 49.6485 35.6966 49.7571 36.5537L52.9938 37.1568C53.2684 38.5735 53.7525 39.9484 54.4324 41.2427L52.1774 43.4747C52.6209 44.2313 53.1245 44.9563 53.684 45.6438L56.8138 44.6627C57.3078 45.2135 57.8438 45.7308 58.4176 46.2108C58.9903 46.6923 59.5975 47.1373 60.2352 47.5427L59.4771 50.5127C60.2767 50.9601 61.108 51.357 61.9654 51.7007L64.1524 49.4057C65.6104 49.8863 67.1298 50.1889 68.6722 50.3057L69.6442 53.2217C70.5762 53.2429 71.5085 53.2008 72.4338 53.0958L73.0851 50.1078C74.6087 49.855 76.0893 49.4162 77.4882 48.8027L79.821 50.8997C80.636 50.4858 81.4187 50.0197 82.1635 49.5047L81.1041 46.6068C81.6966 46.1469 82.2551 45.6508 82.7759 45.1218C83.2937 44.5897 83.7742 44.0275 84.2145 43.4387L87.4221 44.1318C87.9089 43.3964 88.3377 42.6294 88.7051 41.8367L86.2265 39.8208C86.7511 38.4723 87.078 37.0647 87.1985 35.6358L90.3575 34.7358C90.3755 33.8729 90.33 33.0099 90.2214 32.1527L86.9847 31.5588C86.6992 30.1521 86.2122 28.787 85.5364 27.4998L87.7914 25.2768C87.3444 24.5193 86.841 23.7915 86.2848 23.0988L83.155 24.0797C82.6711 23.5321 82.1483 23.015 81.5901 22.5318V22.5318ZM77.1577 40.5318C75.9093 41.8044 74.2813 42.7056 72.4797 43.1217C70.6781 43.5377 68.7837 43.4498 67.036 42.8691C65.2884 42.2883 63.7659 41.2409 62.6611 39.8591C61.5563 38.4773 60.9187 36.8232 60.829 35.1059C60.7394 33.3887 61.2016 31.6854 62.1573 30.2113C63.113 28.7373 64.5192 27.5587 66.1982 26.8245C67.8772 26.0904 69.7536 25.8337 71.5901 26.0868C73.4267 26.34 75.141 27.0916 76.5162 28.2468C77.4356 29.0147 78.1819 29.9434 78.7122 30.9795C79.2424 32.0156 79.546 33.1385 79.6056 34.2837C79.6653 35.4288 79.4797 36.5736 79.0596 37.6521C78.6395 38.7306 77.9931 39.7215 77.1577 40.5677V40.5318Z" fill="#F0F0F0"/>
<path d="M110.497 28.742C110.196 28.499 109.895 28.274 109.584 28.058L110.42 24.8C109.972 24.566 109.525 24.35 109.069 24.161L106.668 26.699C105.927 26.4672 105.161 26.3133 104.383 26.24L103.324 23C102.817 22.997 102.311 23.0211 101.808 23.072L101.088 26.357C100.323 26.5038 99.5763 26.7271 98.8625 27.023L96.2284 24.71C95.8007 24.944 95.373 25.196 94.9551 25.475L96.1312 28.67C95.8383 28.9081 95.5593 29.1605 95.2953 29.426C95.0328 29.705 94.7898 29.984 94.5566 30.272L91.0088 29.498C90.756 29.912 90.5228 30.326 90.3186 30.749L93.0597 32.972C92.8094 33.6576 92.6431 34.367 92.564 35.087L89.0745 36.068C89.0713 36.537 89.0973 37.0058 89.1522 37.472L92.7195 38.129C92.878 38.8381 93.1192 39.5291 93.4388 40.19L90.9407 42.656C91.1934 43.052 91.4656 43.448 91.7572 43.835L95.2175 42.746C95.4747 43.0172 95.7472 43.2756 96.034 43.52C96.3256 43.763 96.6366 43.988 96.9477 44.204L96.1118 47.489C96.5589 47.723 97.006 47.939 97.4628 48.128L99.8637 45.59C100.604 45.8218 101.37 45.9757 102.148 46.049L103.207 49.28C103.714 49.283 104.22 49.2589 104.724 49.208L105.433 45.905C106.199 45.7582 106.945 45.5349 107.659 45.239L110.313 47.552C110.752 47.3191 111.177 47.0637 111.586 46.787L110.42 43.592C110.713 43.3539 110.992 43.1015 111.256 42.836C111.518 42.557 111.761 42.278 111.994 41.99L115.542 42.764C115.795 42.35 116.028 41.936 116.232 41.513L113.491 39.29C113.741 38.6044 113.908 37.895 113.987 37.175L117.476 36.194C117.48 35.725 117.454 35.2562 117.399 34.79L113.831 34.133C113.673 33.4239 113.432 32.7329 113.112 32.072L115.61 29.615C115.359 29.2081 115.083 28.8145 114.784 28.436L111.333 29.516C111.07 29.2443 110.791 28.9859 110.497 28.742V28.742ZM107.97 40.1C107.124 40.9638 106.021 41.5759 104.799 41.8589C103.577 42.1418 102.292 42.083 101.107 41.6898C99.9213 41.2966 98.8883 40.5866 98.1386 39.6498C97.3888 38.7129 96.956 37.5912 96.8948 36.4265C96.8336 35.2619 97.1468 34.1066 97.7948 33.1067C98.4428 32.1069 99.3965 31.3075 100.535 30.8096C101.674 30.3117 102.947 30.1376 104.192 30.3095C105.438 30.4813 106.6 30.9913 107.533 31.775C108.783 32.8254 109.531 34.2925 109.613 35.8536C109.695 37.4148 109.104 38.9422 107.97 40.1V40.1Z" fill="#F0F0F0"/>
<path opacity="0.5" d="M110.497 28.742C110.196 28.499 109.895 28.274 109.584 28.058L110.42 24.8C109.972 24.566 109.525 24.35 109.069 24.161L106.668 26.699C105.927 26.4672 105.161 26.3133 104.383 26.24L103.324 23C102.817 22.997 102.311 23.0211 101.808 23.072L101.088 26.357C100.323 26.5038 99.5763 26.7271 98.8625 27.023L96.2284 24.71C95.8007 24.944 95.373 25.196 94.9551 25.475L96.1312 28.67C95.8383 28.9081 95.5593 29.1605 95.2953 29.426C95.0328 29.705 94.7898 29.984 94.5566 30.272L91.0088 29.498C90.756 29.912 90.5228 30.326 90.3186 30.749L93.0597 32.972C92.8094 33.6576 92.6431 34.367 92.564 35.087L89.0745 36.068C89.0713 36.537 89.0973 37.0058 89.1522 37.472L92.7195 38.129C92.878 38.8381 93.1192 39.5291 93.4388 40.19L90.9407 42.656C91.1934 43.052 91.4656 43.448 91.7572 43.835L95.2175 42.746C95.4747 43.0172 95.7472 43.2756 96.034 43.52C96.3256 43.763 96.6366 43.988 96.9477 44.204L96.1118 47.489C96.5589 47.723 97.006 47.939 97.4628 48.128L99.8637 45.59C100.604 45.8218 101.37 45.9757 102.148 46.049L103.207 49.28C103.714 49.283 104.22 49.2589 104.724 49.208L105.433 45.905C106.199 45.7582 106.945 45.5349 107.659 45.239L110.313 47.552C110.752 47.3191 111.177 47.0637 111.586 46.787L110.42 43.592C110.713 43.3539 110.992 43.1015 111.256 42.836C111.518 42.557 111.761 42.278 111.994 41.99L115.542 42.764C115.795 42.35 116.028 41.936 116.232 41.513L113.491 39.29C113.741 38.6044 113.908 37.895 113.987 37.175L117.476 36.194C117.48 35.725 117.454 35.2562 117.399 34.79L113.831 34.133C113.673 33.4239 113.432 32.7329 113.112 32.072L115.61 29.615C115.359 29.2081 115.083 28.8145 114.784 28.436L111.333 29.516C111.07 29.2443 110.791 28.9859 110.497 28.742V28.742ZM107.97 40.1C107.124 40.9638 106.021 41.5759 104.799 41.8589C103.577 42.1418 102.292 42.083 101.107 41.6898C99.9213 41.2966 98.8883 40.5866 98.1386 39.6498C97.3888 38.7129 96.956 37.5912 96.8948 36.4265C96.8336 35.2619 97.1468 34.1066 97.7948 33.1067C98.4428 32.1069 99.3965 31.3075 100.535 30.8096C101.674 30.3117 102.947 30.1376 104.192 30.3095C105.438 30.4813 106.6 30.9913 107.533 31.775C108.783 32.8254 109.531 34.2925 109.613 35.8536C109.695 37.4148 109.104 38.9422 107.97 40.1V40.1Z" fill="#F0F0F0"/>
<path d="M424.919 26.987C424.629 26.7433 424.324 26.515 424.005 26.303L424.832 23.009C424.397 22.7747 423.949 22.5614 423.49 22.37L421.089 24.908C420.348 24.6805 419.582 24.5266 418.805 24.449L417.746 21.2C417.24 21.2 416.774 21.2 416.229 21.272L415.52 24.584C414.754 24.7276 414.008 24.9479 413.294 25.2409L410.631 22.9279C410.203 23.1619 409.775 23.4139 409.357 23.6929L410.534 26.888C410.241 27.1292 409.962 27.3845 409.698 27.653C409.435 27.923 409.192 28.202 408.959 28.49L405.411 27.725C405.158 28.1276 404.928 28.5422 404.721 28.967L407.462 31.199C407.21 31.884 407.043 32.5937 406.966 33.314L403.477 34.286C403.474 34.7549 403.5 35.2237 403.555 35.69L407.122 36.347C407.28 37.056 407.522 37.7471 407.841 38.408L405.324 40.892C405.576 41.297 405.848 41.684 406.14 42.071L409.6 40.982C409.855 41.2553 410.128 41.5138 410.417 41.756C410.708 41.999 411.02 42.224 411.331 42.44L410.495 45.725C410.932 45.9611 411.383 46.1744 411.846 46.364L414.247 43.826C414.987 44.0577 415.753 44.2117 416.531 44.285L417.59 47.516C418.097 47.5189 418.603 47.4949 419.107 47.444L419.816 44.141C420.582 43.9942 421.328 43.7709 422.042 43.475L424.696 45.788C425.133 45.554 425.561 45.302 425.969 45.032L424.802 41.828C425.095 41.5898 425.374 41.3375 425.638 41.072C425.901 40.802 426.144 40.514 426.377 40.226L429.925 41C430.178 40.5942 430.408 40.1767 430.615 39.749L427.874 37.526C428.124 36.8404 428.291 36.1309 428.37 35.411L431.859 34.43C431.859 33.962 431.859 33.53 431.781 33.035L428.214 32.369C428.056 31.6599 427.814 30.9688 427.495 30.308L429.993 27.851C429.741 27.444 429.466 27.0504 429.167 26.672L425.736 27.752C425.481 27.4815 425.208 27.226 424.919 26.987ZM422.392 38.3C421.546 39.1637 420.442 39.7758 419.221 40.0588C417.999 40.3418 416.714 40.283 415.529 39.8897C414.343 39.4965 413.31 38.7866 412.56 37.8497C411.811 36.9129 411.378 35.7912 411.317 34.6265C411.255 33.4618 411.569 32.3065 412.217 31.3067C412.865 30.3069 413.818 29.5075 414.957 29.0095C416.096 28.5116 417.368 28.3376 418.614 28.5094C419.859 28.6813 421.022 29.1913 421.954 29.975C423.204 31.0254 423.953 32.4925 424.035 34.0536C424.117 35.6147 423.526 37.1421 422.392 38.3V38.3Z" fill="#F0F0F0"/>
<path opacity="0.5" d="M424.919 26.987C424.629 26.7433 424.324 26.515 424.005 26.303L424.832 23.009C424.397 22.7747 423.949 22.5614 423.49 22.37L421.089 24.908C420.348 24.6805 419.582 24.5266 418.805 24.449L417.746 21.2C417.24 21.2 416.774 21.2 416.229 21.272L415.52 24.584C414.754 24.7276 414.008 24.9479 413.294 25.2409L410.631 22.9279C410.203 23.1619 409.775 23.4139 409.357 23.6929L410.534 26.888C410.241 27.1292 409.962 27.3845 409.698 27.653C409.435 27.923 409.192 28.202 408.959 28.49L405.411 27.725C405.158 28.1276 404.928 28.5422 404.721 28.967L407.462 31.199C407.21 31.884 407.043 32.5937 406.966 33.314L403.477 34.286C403.474 34.7549 403.5 35.2237 403.555 35.69L407.122 36.347C407.28 37.056 407.522 37.7471 407.841 38.408L405.324 40.892C405.576 41.297 405.848 41.684 406.14 42.071L409.6 40.982C409.855 41.2553 410.128 41.5138 410.417 41.756C410.708 41.999 411.02 42.224 411.331 42.44L410.495 45.725C410.932 45.9611 411.383 46.1744 411.846 46.364L414.247 43.826C414.987 44.0577 415.753 44.2117 416.531 44.285L417.59 47.516C418.097 47.5189 418.603 47.4949 419.107 47.444L419.816 44.141C420.582 43.9942 421.328 43.7709 422.042 43.475L424.696 45.788C425.133 45.554 425.561 45.302 425.969 45.032L424.802 41.828C425.095 41.5898 425.374 41.3375 425.638 41.072C425.901 40.802 426.144 40.514 426.377 40.226L429.925 41C430.178 40.5942 430.408 40.1767 430.615 39.749L427.874 37.526C428.124 36.8404 428.291 36.1309 428.37 35.411L431.859 34.43C431.859 33.962 431.859 33.53 431.781 33.035L428.214 32.369C428.056 31.6599 427.814 30.9688 427.495 30.308L429.993 27.851C429.741 27.444 429.466 27.0504 429.167 26.672L425.736 27.752C425.481 27.4815 425.208 27.226 424.919 26.987ZM422.392 38.3C421.546 39.1637 420.442 39.7758 419.221 40.0588C417.999 40.3418 416.714 40.283 415.529 39.8897C414.343 39.4965 413.31 38.7866 412.56 37.8497C411.811 36.9129 411.378 35.7912 411.317 34.6265C411.255 33.4618 411.569 32.3065 412.217 31.3067C412.865 30.3069 413.818 29.5075 414.957 29.0095C416.096 28.5116 417.368 28.3376 418.614 28.5094C419.859 28.6813 421.022 29.1913 421.954 29.975C423.204 31.0254 423.953 32.4925 424.035 34.0536C424.117 35.6147 423.526 37.1421 422.392 38.3V38.3Z" fill="#F0F0F0"/>
<path d="M486 295.16H0V295.385H486V295.16Z" fill="#EBEBEB"/>
<path d="M243 335.309C347.084 335.309 431.461 330.748 431.461 325.121C431.461 319.494 347.084 314.933 243 314.933C138.916 314.933 54.5391 319.494 54.5391 325.121C54.5391 330.748 138.916 335.309 243 335.309Z" fill="#F5F5F5"/>
<path opacity="0.1" d="M102.685 128.745C110.551 126.278 114.768 118.374 112.104 111.091C109.44 103.808 100.904 99.9036 93.0381 102.37C85.1724 104.837 80.9555 112.741 83.6194 120.024C86.2833 127.307 94.8193 131.211 102.685 128.745Z" fill="black"/>
<path d="M92.8553 127.166L78.5475 152.807L76.1758 151.673L90.4836 126.032L92.8553 127.166Z" fill="#02A1FC"/>
<path opacity="0.5" d="M90.4836 126.032L92.8553 127.166L78.5475 152.807L76.1758 151.673" fill="black"/>
<path d="M88.1705 139.289L81.1332 151.889C81.0069 152.117 80.8331 152.32 80.6218 152.485C80.4105 152.651 80.166 152.776 79.9022 152.854C79.6384 152.932 79.3606 152.961 79.0847 152.939C78.8089 152.917 78.5405 152.844 78.295 152.726L76.4287 151.826C75.9324 151.586 75.5587 151.174 75.3893 150.68C75.22 150.186 75.2687 149.65 75.5248 149.189L82.5621 136.589C82.855 136.082 83.3526 135.703 83.9461 135.534C84.5397 135.366 85.1812 135.421 85.7308 135.689L87.1596 136.382C87.7062 136.647 88.1184 137.1 88.3075 137.644C88.4966 138.188 88.4474 138.779 88.1705 139.289Z" fill="#02A1FC"/>
<path opacity="0.5" d="M88.1705 139.289L81.1332 151.889C81.0069 152.117 80.8331 152.32 80.6218 152.485C80.4105 152.651 80.166 152.776 79.9022 152.854C79.6384 152.932 79.3606 152.961 79.0847 152.939C78.8089 152.917 78.5405 152.844 78.295 152.726L76.4287 151.826C75.9324 151.586 75.5587 151.174 75.3893 150.68C75.22 150.186 75.2687 149.65 75.5248 149.189L82.5621 136.589C82.855 136.082 83.3526 135.703 83.9461 135.534C84.5397 135.366 85.1812 135.421 85.7308 135.689L87.1596 136.382C87.7062 136.647 88.1184 137.1 88.3075 137.644C88.4966 138.188 88.4474 138.779 88.1705 139.289Z" fill="white"/>
<path d="M103.266 129.884L102.828 130.019C98.7077 131.231 94.2364 130.886 90.3897 129.058C86.543 127.23 83.6331 124.067 82.2947 120.26C80.9563 116.453 81.2979 112.311 83.2452 108.736C85.1925 105.162 88.5873 102.445 92.6892 101.179C96.7911 99.9133 101.267 100.201 105.141 101.978C109.016 103.756 111.973 106.88 113.369 110.669C114.765 114.458 114.487 118.605 112.594 122.205C110.701 125.804 107.348 128.565 103.266 129.884ZM93.3709 103.64C90.0761 104.688 87.3459 106.874 85.7504 109.742C84.3029 112.33 83.8691 115.302 84.5228 118.153C85.1765 121.004 86.8774 123.557 89.3357 125.377C91.794 127.197 94.8577 128.172 98.005 128.135C101.152 128.099 104.189 127.053 106.597 125.176C109.005 123.3 110.636 120.708 111.212 117.843C111.788 114.978 111.274 112.016 109.757 109.463C108.24 106.909 105.813 104.922 102.891 103.839C99.9689 102.756 96.7316 102.644 93.7306 103.523L93.3709 103.64Z" fill="#02A1FC"/>
<path opacity="0.5" d="M91.3682 105.161C86.9456 107.681 83.5922 114.485 85.6917 119.939C86.3526 121.064 86.7803 121.739 87.3732 122.639C87.4077 122.698 87.4627 122.744 87.5294 122.771C87.596 122.797 87.6703 122.802 87.7402 122.784C87.8101 122.766 87.8714 122.727 87.9142 122.673C87.957 122.619 87.9787 122.553 87.9759 122.486C87.9144 115.93 90.3823 109.57 94.9354 104.549C94.9833 104.5 95.0119 104.437 95.0168 104.371C95.0216 104.304 95.0024 104.238 94.9621 104.184C94.9218 104.129 94.8628 104.088 94.7946 104.068C94.7263 104.047 94.6527 104.049 94.5855 104.072C93.5357 104.387 92.7095 104.675 91.3682 105.161Z" fill="white"/>
<g opacity="0.5">
<path opacity="0.5" d="M108.232 108.383C107.61 115.169 105.043 121.678 100.796 127.238C100.761 127.29 100.705 127.329 100.641 127.346L99.1633 127.841C99.1033 127.862 99.0376 127.865 98.9754 127.85C98.9132 127.835 98.8575 127.803 98.816 127.758C98.7744 127.712 98.7491 127.656 98.7434 127.597C98.7377 127.538 98.752 127.478 98.7843 127.427C102.592 121.229 105.241 114.48 106.619 107.465C106.637 107.367 106.686 107.277 106.761 107.206C106.835 107.135 106.931 107.086 107.035 107.065C107.14 107.045 107.249 107.054 107.348 107.092C107.447 107.129 107.531 107.193 107.591 107.276L108.145 108.077C108.211 108.166 108.242 108.274 108.232 108.383V108.383Z" fill="white"/>
</g>
<path d="M327.419 308.453L326.116 319.685L319.497 319.046L320.148 306.797L327.419 308.453Z" fill="#DD8C6A"/>
<path d="M316.367 319.163C315.66 319.184 314.969 318.967 314.423 318.551C314.36 318.452 314.333 318.337 314.343 318.223C314.353 318.109 314.402 318 314.481 317.912C314.61 317.75 314.802 317.641 315.016 317.606C316.153 317.39 318.398 318.794 318.495 318.857C318.525 318.871 318.548 318.894 318.56 318.922C318.573 318.95 318.574 318.981 318.563 319.01C318.555 319.039 318.538 319.066 318.514 319.087C318.49 319.107 318.46 319.121 318.427 319.127C317.743 319.193 317.054 319.205 316.367 319.163V319.163ZM315.395 317.876C315.295 317.863 315.193 317.863 315.094 317.876C315.026 317.88 314.961 317.9 314.903 317.933C314.846 317.966 314.797 318.011 314.763 318.065C314.627 318.236 314.666 318.326 314.705 318.38C314.987 318.803 316.649 318.929 317.932 318.875C317.161 318.397 316.301 318.059 315.395 317.876V317.876Z" fill="#02A1FC"/>
<path d="M318.408 319.1C318.398 319.104 318.386 319.107 318.374 319.107C318.363 319.107 318.351 319.104 318.34 319.1C317.573 318.713 316.066 317.255 316.26 316.571C316.26 316.4 316.445 316.211 316.882 316.193C317.042 316.19 317.201 316.216 317.349 316.27C317.498 316.324 317.633 316.405 317.747 316.508C318.308 317.228 318.608 318.095 318.603 318.983C318.603 319.01 318.595 319.036 318.58 319.058C318.564 319.081 318.542 319.098 318.515 319.109C318.498 319.117 318.479 319.12 318.461 319.118C318.442 319.116 318.424 319.11 318.408 319.1V319.1ZM316.97 316.472H316.873C316.581 316.472 316.552 316.58 316.542 316.616C316.464 317.03 317.436 318.155 318.234 318.668C318.212 317.959 317.954 317.274 317.495 316.706C317.353 316.572 317.163 316.491 316.96 316.481L316.97 316.472Z" fill="#02A1FC"/>
<path d="M319.185 318.299L326.514 318.794C326.648 318.804 326.775 318.856 326.874 318.941C326.972 319.026 327.037 319.139 327.059 319.262L327.943 324.869C327.965 324.988 327.961 325.11 327.931 325.228C327.901 325.345 327.846 325.456 327.769 325.553C327.692 325.651 327.595 325.733 327.483 325.795C327.37 325.856 327.246 325.897 327.117 325.913H326.913C324.279 325.688 321.936 325.391 318.651 325.175C314.763 324.914 315.735 325.409 311.157 325.175C308.406 325.022 308.124 322.097 309.31 322.034C314.685 321.773 315.356 320.324 317.562 318.695C318.032 318.382 318.61 318.241 319.185 318.299V318.299Z" fill="#263238"/>
<path opacity="0.2" d="M319.788 313.592L324.726 313.412L326.758 314.195L325.027 316.463L319.633 316.193L319.788 313.592Z" fill="#F9BE00"/>
<path d="M344.01 195.278L332.278 260.978L328.39 316.085L318.457 314.951C318.457 314.951 316.707 287.384 318.369 258.44C319.876 232.295 324.765 205.016 325.474 196.295L329.149 190.274L336.468 191.111L344.01 195.278Z" fill="#585757"/>
<path d="M388.956 310.865L383.941 313.268C383.941 313.268 382.784 311.396 380.937 308.345C380.519 307.67 380.072 306.932 379.596 306.149L385.641 303.701H385.719L385.894 304.07C386.196 304.736 386.477 305.357 386.75 305.933C388.101 308.957 388.956 310.865 388.956 310.865Z" fill="#DD8C6A"/>
<path d="M380.266 313.106C379.657 313.437 378.938 313.552 378.244 313.43C378.138 313.369 378.055 313.279 378.006 313.173C377.957 313.067 377.945 312.949 377.972 312.836C377.997 312.638 378.105 312.457 378.273 312.332C379.177 311.639 381.87 311.873 381.986 311.891C382.02 311.892 382.052 311.903 382.079 311.922C382.105 311.942 382.124 311.969 382.132 311.999C382.136 312.029 382.132 312.06 382.121 312.088C382.109 312.116 382.089 312.141 382.064 312.161C381.492 312.519 380.891 312.835 380.266 313.106V313.106ZM378.75 312.404C378.654 312.442 378.565 312.493 378.487 312.557C378.431 312.59 378.385 312.636 378.351 312.689C378.317 312.742 378.297 312.801 378.293 312.863C378.293 313.079 378.341 313.142 378.4 313.169C378.866 313.421 380.421 312.782 381.5 312.17C380.576 312.09 379.643 312.169 378.75 312.404Z" fill="#02A1FC"/>
<path d="M382.045 312.161C382.023 312.168 381.999 312.168 381.977 312.161C381.092 312.161 379.012 311.549 378.837 310.856C378.779 310.694 378.837 310.451 379.187 310.244C379.467 310.097 379.799 310.058 380.11 310.136C381.189 310.406 382.103 311.873 382.142 311.936C382.158 311.957 382.166 311.982 382.166 312.008C382.166 312.034 382.158 312.059 382.142 312.08C382.136 312.101 382.124 312.12 382.107 312.134C382.089 312.149 382.068 312.158 382.045 312.161V312.161ZM379.411 310.487H379.323C379.07 310.622 379.109 310.721 379.109 310.766C379.265 311.162 380.703 311.729 381.666 311.828C381.28 311.213 380.7 310.723 380.003 310.424C379.812 310.357 379.602 310.357 379.411 310.424V310.487Z" fill="#02A1FC"/>
<path d="M382.735 311L388.042 308.723C388.165 308.671 388.304 308.66 388.435 308.691C388.565 308.722 388.681 308.794 388.762 308.894L392.436 313.439C392.516 313.534 392.575 313.642 392.609 313.758C392.643 313.874 392.652 313.995 392.635 314.114C392.618 314.233 392.575 314.348 392.509 314.451C392.443 314.555 392.355 314.645 392.251 314.717C392.195 314.759 392.133 314.792 392.067 314.816C389.637 315.788 388.82 316.04 385.817 317.3C382.259 318.785 383.357 318.803 379.207 320.603C376.699 321.692 374.95 319.235 375.951 318.659C380.558 316.031 382.191 311.189 382.735 311Z" fill="#263238"/>
<path opacity="0.2" d="M386.701 305.897L380.869 308.345C380.451 307.67 380.004 306.932 379.527 306.149L385.573 303.701L385.826 304.034C386.147 304.7 386.429 305.321 386.701 305.897Z" fill="#F9BE00"/>
<path d="M333.104 194.9C333.104 194.9 345.352 249.944 351.213 263.12C356.423 274.82 379.527 307.742 379.527 307.742L386.739 304.412C386.739 304.412 378.72 283.388 371.012 269.879C368.32 265.172 365.521 261.554 364.325 259.016C362.741 255.659 363.227 200.12 354.236 194.639L333.104 194.9Z" fill="#585757"/>
<path opacity="0.2" d="M338.752 223.232L334.708 246.776C333.659 233.276 335.68 212.504 335.68 212.504L338.752 223.232Z" fill="#2E2C2C"/>
<path d="M324.434 187.106C324.728 184.755 324.796 182.385 324.638 180.023C322.568 157.568 322.539 155.372 322.743 151.421C322.76 151.074 322.89 150.74 323.115 150.462C323.341 150.184 323.651 149.976 324.007 149.864C340.774 144.545 355.422 147.047 359.212 149.018C364.267 151.646 362.255 154.418 362.196 155.273C361.72 161.933 357.084 175.118 357.016 185.873C357.016 187.457 357.191 191.273 357.307 193.379C357.333 193.794 357.197 194.204 356.924 194.534C356.651 194.865 356.26 195.093 355.82 195.179C352.049 195.908 333.96 196.079 330.859 196.025C328.805 195.986 326.755 195.851 324.716 195.62C324.46 195.587 324.215 195.505 323.995 195.381C323.775 195.256 323.585 195.09 323.437 194.894C323.289 194.698 323.187 194.476 323.136 194.242C323.085 194.007 323.087 193.766 323.141 193.532C323.598 191.606 324.298 188.51 324.434 187.106Z" fill="#F9BE00"/>
<path d="M345.06 137.462C344.428 140.945 343.835 146.039 346.528 148.262C346.528 148.262 346.528 151.808 335.991 155.885C332.025 150.908 334.834 148.55 334.834 148.55C339.004 147.524 338.839 145.949 338.042 143.276L345.06 137.462Z" fill="#DD8C6A"/>
<path opacity="0.2" d="M342.222 139.811L338.101 143.294C338.295 143.918 338.432 144.556 338.509 145.202C340.113 144.95 342.591 143.636 342.883 142.016C342.865 141.242 342.637 140.483 342.222 139.811V139.811Z" fill="#F9BE00"/>
<path d="M349.794 131.396C348.278 137.12 347.763 139.568 344.021 141.998C338.383 145.67 331.122 142.682 330.763 136.652C330.451 131.252 332.998 122.738 339.579 121.505C341.028 121.22 342.532 121.282 343.948 121.687C345.364 122.092 346.645 122.825 347.669 123.817C348.692 124.809 349.425 126.027 349.797 127.355C350.169 128.683 350.168 130.077 349.794 131.405V131.396Z" fill="#DD8C6A"/>
<path d="M339.073 130.667C338.976 131.135 338.635 131.477 338.305 131.423C337.975 131.369 337.78 130.937 337.868 130.469C337.955 130.001 338.305 129.659 338.636 129.713C338.966 129.767 339.141 130.217 339.073 130.667Z" fill="#263238"/>
<path d="M333.396 129.758C333.299 130.235 332.959 130.568 332.629 130.514C332.298 130.46 332.094 130.019 332.181 129.551C332.269 129.083 332.629 128.741 332.959 128.804C333.29 128.867 333.455 129.29 333.396 129.758Z" fill="#263238"/>
<path d="M337.139 137.057C336.881 137.048 336.624 137.021 336.371 136.976C336.333 136.969 336.299 136.95 336.276 136.922C336.253 136.894 336.242 136.858 336.245 136.823V136.823C336.258 136.788 336.283 136.759 336.317 136.739C336.35 136.719 336.39 136.711 336.429 136.715C337.06 136.835 337.712 136.816 338.334 136.659C338.955 136.503 339.528 136.214 340.006 135.815C340.036 135.792 340.073 135.78 340.112 135.781C340.15 135.782 340.187 135.796 340.214 135.821C340.242 135.845 340.259 135.879 340.262 135.914C340.265 135.95 340.253 135.985 340.23 136.013C339.815 136.369 339.329 136.644 338.798 136.823C338.267 137.003 337.703 137.082 337.139 137.057V137.057Z" fill="#263238"/>
<path d="M341.775 129.947C341.712 129.956 341.647 129.946 341.591 129.919C341.535 129.891 341.49 129.847 341.464 129.794C341.191 129.411 340.836 129.085 340.421 128.834C340.007 128.583 339.541 128.414 339.053 128.336C339.013 128.331 338.975 128.319 338.941 128.301C338.906 128.283 338.876 128.258 338.851 128.229C338.827 128.2 338.809 128.166 338.799 128.13C338.788 128.095 338.785 128.058 338.791 128.021C338.796 127.984 338.809 127.949 338.828 127.917C338.848 127.885 338.875 127.857 338.906 127.834C338.938 127.812 338.974 127.795 339.013 127.785C339.051 127.776 339.091 127.773 339.131 127.778V127.778C339.72 127.87 340.281 128.079 340.776 128.389C341.271 128.7 341.687 129.105 341.998 129.578C342.032 129.644 342.037 129.719 342.011 129.788C341.986 129.857 341.932 129.914 341.862 129.947C341.834 129.957 341.803 129.957 341.775 129.947V129.947Z" fill="#263238"/>
<path d="M332.356 127.931C332.303 127.942 332.248 127.939 332.197 127.923C332.146 127.907 332.1 127.879 332.065 127.841C332.036 127.815 332.014 127.784 331.999 127.75C331.983 127.716 331.976 127.68 331.976 127.643C331.976 127.606 331.983 127.57 331.999 127.536C332.014 127.502 332.036 127.471 332.065 127.445C332.411 127.126 332.837 126.891 333.305 126.761C333.773 126.63 334.268 126.609 334.747 126.698C334.822 126.713 334.886 126.755 334.928 126.813C334.97 126.872 334.985 126.944 334.971 127.013V127.013C334.962 127.048 334.945 127.081 334.922 127.11C334.899 127.139 334.87 127.164 334.836 127.182C334.803 127.201 334.766 127.213 334.727 127.218C334.688 127.223 334.649 127.22 334.611 127.211V127.211C334.234 127.155 333.848 127.181 333.483 127.287C333.119 127.394 332.786 127.577 332.512 127.823C332.495 127.85 332.472 127.873 332.446 127.891C332.419 127.91 332.389 127.923 332.356 127.931V127.931Z" fill="#263238"/>
<path d="M347.918 146.624L346.819 146.453L340.666 149.567L338.722 149.639L335.068 146.768L333.853 147.038C332.716 150.296 332.501 153.77 333.231 157.127L335.34 166.73L337.517 177.233L337.974 176.27L339.685 172.67L342.027 168.539L346.294 158.432L347.5 154.274C348.226 151.789 348.348 149.186 347.859 146.651L347.918 146.624Z" fill="#F9BE00"/>
<path opacity="0.1" d="M341.279 149.639C334.689 149.711 333.95 147.461 333.95 147.461V146.93C333.95 146.93 332.006 150.395 337.693 150.998C343.379 151.601 347.218 149.09 348.025 147.578C347.393 148.379 345.692 149.594 341.279 149.639Z" fill="#F9BE00"/>
<path d="M349.745 137.3C351.427 136.076 351.232 134.015 352.224 132.269C353.944 129.236 352.224 127.976 352.224 127.976C353.682 126.095 352.467 123.476 349.706 123.755C348.826 122.231 347.635 120.88 346.197 119.777C344.874 118.961 343.3 118.566 341.713 118.652C340.126 118.739 338.612 119.301 337.401 120.254C337.209 120.083 336.98 119.952 336.729 119.871C336.477 119.79 336.21 119.761 335.945 119.786C335.68 119.811 335.424 119.889 335.195 120.015C334.967 120.141 334.77 120.311 334.62 120.515C334.47 120.719 334.37 120.95 334.326 121.193C334.283 121.436 334.297 121.685 334.369 121.923C334.44 122.16 334.566 122.38 334.739 122.568C334.912 122.755 335.127 122.905 335.369 123.008C336.304 124.18 337.608 125.054 339.102 125.51C341.046 126.158 344.457 126.311 346.518 126.68C346.39 128.242 346.159 129.796 345.828 131.333C345.417 134.423 345.417 137.549 345.828 140.639C347.237 139.586 349.502 138.902 349.745 137.3Z" fill="#263238"/>
<path d="M349.541 135.5C349.265 135.951 348.896 136.347 348.454 136.666C348.011 136.984 347.506 137.218 346.965 137.354C345.517 137.714 344.807 136.508 345.225 135.23C345.604 134.096 346.819 132.53 348.277 132.719C348.596 132.772 348.895 132.898 349.148 133.086C349.4 133.273 349.598 133.516 349.724 133.792C349.849 134.068 349.898 134.369 349.866 134.668C349.834 134.966 349.723 135.252 349.541 135.5Z" fill="#DD8C6A"/>
<path d="M346.761 131.441L342.543 130.784C342.183 129.785 340.667 129.551 340.025 129.443C339.384 129.335 337.741 129.092 337.109 130.055L335.642 129.821C335.369 128.723 333.756 128.462 333.085 128.363C332.415 128.264 330.169 127.913 329.907 129.569C329.815 130.259 330.014 130.955 330.462 131.513C330.911 132.07 331.574 132.446 332.314 132.562C333.055 132.678 333.815 132.525 334.436 132.135C335.058 131.745 335.493 131.148 335.651 130.469C335.651 130.37 335.651 130.289 335.651 130.199L336.905 130.397C336.877 130.483 336.854 130.57 336.837 130.658C336.745 131.348 336.944 132.044 337.392 132.602C337.841 133.159 338.504 133.535 339.245 133.651C339.985 133.767 340.745 133.614 341.367 133.224C341.988 132.834 342.423 132.237 342.582 131.558C342.596 131.432 342.596 131.306 342.582 131.18L346.664 131.819C347.223 131.903 347.733 132.168 348.103 132.566L348.394 132.323C347.975 131.864 347.399 131.553 346.761 131.441V131.441ZM332.395 132.035C332.086 132.006 331.786 131.92 331.513 131.784C331.24 131.647 330.998 131.462 330.802 131.239C330.606 131.015 330.46 130.759 330.371 130.483C330.283 130.207 330.254 129.918 330.286 129.632C330.451 128.732 331.258 128.453 332.998 128.732C334.738 129.011 335.408 129.506 335.243 130.415C335.093 130.971 334.715 131.452 334.188 131.754C333.662 132.057 333.029 132.157 332.424 132.035H332.395ZM339.355 133.124C338.733 133.06 338.162 132.773 337.768 132.323C337.373 131.873 337.185 131.298 337.245 130.721C337.411 129.821 338.217 129.542 339.957 129.821C341.697 130.1 342.358 130.595 342.193 131.504C342.045 132.065 341.664 132.55 341.133 132.854C340.602 133.157 339.963 133.254 339.355 133.124V133.124Z" fill="white"/>
<path d="M333.97 145.499V147.749C333.97 147.749 334.708 149.999 341.299 149.936C347.889 149.873 348.443 147.173 348.443 147.173V145.544C348.445 145.266 348.381 144.991 348.255 144.739C348.129 144.487 347.944 144.265 347.713 144.087C347.482 143.91 347.212 143.782 346.921 143.713C346.63 143.644 346.327 143.637 346.032 143.69C342.777 144.164 339.461 144.164 336.205 143.69C335.928 143.663 335.648 143.689 335.382 143.766C335.116 143.844 334.87 143.972 334.66 144.142C334.45 144.312 334.281 144.52 334.162 144.754C334.043 144.987 333.978 145.241 333.97 145.499V145.499Z" fill="#F9BE00"/>
<path d="M335.72 130.469C334.858 131.755 333.812 132.927 332.609 133.952C332.904 134.226 333.258 134.439 333.649 134.576C334.04 134.712 334.457 134.77 334.874 134.744L335.72 130.469Z" fill="#F84A35"/>
<path d="M292.572 139.811C292.492 138.805 292.132 137.836 291.527 136.997C290.922 136.158 290.094 135.478 289.122 135.023C289.122 135.023 288.626 131.675 286.653 130.946C284.68 130.217 281.948 134.222 281.948 134.222C281.948 134.222 282.551 138.884 286.4 140.063L290.58 142.223L292.572 139.811Z" fill="#DD8C6A"/>
<path d="M294.682 141.512L293.545 138.929C291.153 139.397 289.039 140.682 287.625 142.529L290.308 144.581L294.682 141.512Z" fill="#02A1FC"/>
<path d="M294.652 140.981C298.566 145.803 303.411 149.914 308.94 153.104C315.237 150.799 321.985 149.742 328.75 149.999L325.008 157.892C325.008 157.892 312.372 161.978 306.18 160.511C301.32 159.35 292.873 148.721 289.578 144.356C290.967 142.885 292.703 141.73 294.652 140.981V140.981Z" fill="#F9BE00"/>
<path d="M373.034 186.404C372.417 187.235 372.042 188.2 371.947 189.204C371.851 190.209 372.038 191.219 372.49 192.137C372.49 192.137 370.604 195.035 371.654 196.745C372.704 198.455 377.535 196.925 377.535 196.925C377.535 196.925 380.217 192.929 378.021 189.788L376.222 185.675L373.034 186.404Z" fill="#DD8C6A"/>
<path d="M372.549 183.857L371.693 186.557C373.878 187.578 376.4 187.794 378.75 187.16L378.05 184.01L372.549 183.857Z" fill="#02A1FC"/>
<path d="M372.208 184.289C372.423 178.26 371.435 172.246 369.292 166.55C369.292 166.55 356.364 159.431 352.379 155.606C351.85 155.096 351.456 154.478 351.229 153.803C351.002 153.127 350.947 152.412 351.07 151.714C351.192 151.015 351.488 150.353 351.935 149.779C352.382 149.205 352.966 148.735 353.643 148.406V148.406C354.453 148.016 355.364 147.842 356.275 147.902C357.186 147.963 358.062 148.255 358.804 148.748C363.518 151.907 373.569 158.837 376.455 162.401C379.469 166.136 378.847 179.303 378.458 184.622C376.374 184.955 374.236 184.841 372.208 184.289Z" fill="#263238"/>
<path d="M372.208 184.289C372.423 178.26 371.435 172.246 369.292 166.55C369.292 166.55 356.364 159.431 352.379 155.606C351.85 155.096 351.456 154.478 351.229 153.803C351.002 153.127 350.947 152.412 351.07 151.714C351.192 151.015 351.488 150.353 351.935 149.779C352.382 149.205 352.966 148.735 353.643 148.406V148.406C354.453 148.016 355.364 147.842 356.275 147.902C357.186 147.963 358.062 148.255 358.804 148.748C363.518 151.907 373.569 158.837 376.455 162.401C379.469 166.136 378.847 179.303 378.458 184.622C376.374 184.955 374.236 184.841 372.208 184.289Z" fill="#F9BE00"/>
<path d="M157.998 218.597L164.442 247.118L153.226 247.649L157.998 218.597Z" fill="#02A1FC"/>
<path opacity="0.6" d="M157.998 218.597L164.442 247.118L153.226 247.649L157.998 218.597Z" fill="white"/>
<path d="M174.581 306.878L174.202 319.073L168.088 319.019L167.427 306.257L174.581 306.878Z" fill="#FFB573"/>
<path opacity="0.1" d="M167.845 314.285L167.68 311.27L174.455 311.081L174.348 314.339L167.845 314.285Z" fill="black"/>
<path d="M175.348 318.821C175.316 318.811 175.288 318.793 175.266 318.769C175.244 318.745 175.229 318.717 175.222 318.686C175.217 318.655 175.221 318.623 175.235 318.594C175.249 318.565 175.271 318.541 175.3 318.524C175.397 318.461 177.701 317.129 178.809 317.444C178.916 317.472 179.016 317.521 179.103 317.586C179.189 317.65 179.261 317.731 179.314 317.822C179.387 317.925 179.426 318.045 179.426 318.168C179.426 318.292 179.387 318.412 179.314 318.515C179.052 318.875 178.196 319.028 177.37 319.019C176.691 319.01 176.014 318.944 175.348 318.821V318.821ZM175.863 318.605C177.098 318.767 178.779 318.767 179.081 318.326C179.081 318.272 179.159 318.173 179.081 317.975C179.049 317.919 179.005 317.871 178.951 317.832C178.897 317.793 178.836 317.765 178.77 317.75C178.67 317.737 178.568 317.737 178.468 317.75C177.545 317.864 176.658 318.155 175.863 318.605V318.605Z" fill="#02A1FC"/>
<path d="M175.271 318.812C175.248 318.795 175.228 318.773 175.215 318.748C175.201 318.723 175.194 318.696 175.193 318.668C175.193 318.578 175.359 316.76 176.165 316.058C176.281 315.957 176.42 315.882 176.571 315.837C176.722 315.792 176.883 315.778 177.04 315.797C177.478 315.842 177.614 316.058 177.633 316.247C177.779 317.003 176.204 318.461 175.417 318.812H175.349C175.323 318.819 175.296 318.819 175.271 318.812V318.812ZM176.972 316.112C176.77 316.112 176.576 316.182 176.428 316.31C175.933 316.905 175.635 317.621 175.572 318.371C176.389 317.885 177.419 316.742 177.371 316.283C177.371 316.283 177.371 316.13 177.06 316.103L176.972 316.112Z" fill="#02A1FC"/>
<path d="M174.668 317.876H167.417C167.279 317.88 167.147 317.928 167.043 318.012C166.939 318.095 166.868 318.209 166.844 318.335L165.551 324.356C165.487 324.605 165.528 324.867 165.665 325.09C165.802 325.312 166.026 325.478 166.29 325.553H166.494C169.128 325.553 171.471 325.382 174.746 325.4C178.634 325.4 177.662 325.886 182.182 325.976C184.913 326.021 185.351 322.853 184.194 322.691C178.887 321.989 178.313 320.351 176.243 318.425C175.817 318.057 175.251 317.859 174.668 317.876V317.876Z" fill="#263238"/>
<path d="M142.923 304.799L139.424 316.472L133.533 314.978L136.158 302.522L142.923 304.799Z" fill="#FFB573"/>
<path opacity="0.1" d="M140.707 312.17L134.418 310.757L135.419 306.005L142.155 307.364L140.707 312.17Z" fill="black"/>
<path d="M140.367 317.003C140.334 316.993 140.306 316.974 140.287 316.948C140.268 316.922 140.258 316.89 140.26 316.859C140.259 316.826 140.269 316.794 140.288 316.767C140.307 316.74 140.335 316.718 140.367 316.706C140.484 316.706 143.001 315.806 144.031 316.274C144.23 316.37 144.38 316.535 144.449 316.733C144.501 316.846 144.517 316.969 144.496 317.09C144.476 317.211 144.419 317.324 144.333 317.417C144.025 317.564 143.688 317.653 143.342 317.677C142.997 317.702 142.649 317.662 142.321 317.561C141.65 317.438 140.996 317.251 140.367 317.003V317.003ZM140.901 316.886C142.087 317.264 143.73 317.561 144.119 317.183C144.119 317.138 144.226 317.057 144.119 316.832C144.101 316.771 144.068 316.715 144.022 316.668C143.977 316.621 143.92 316.585 143.856 316.562C143.768 316.515 143.673 316.482 143.574 316.463C142.675 316.445 141.781 316.589 140.94 316.886H140.901Z" fill="#02A1FC"/>
<path d="M140.279 316.985C140.268 316.961 140.262 316.935 140.262 316.908C140.262 316.882 140.268 316.856 140.279 316.832C140.279 316.751 140.823 315.032 141.786 314.456C141.918 314.377 142.068 314.326 142.225 314.307C142.381 314.289 142.54 314.303 142.69 314.348C143.108 314.465 143.195 314.708 143.176 314.897C143.176 315.662 141.339 316.805 140.493 317.012H140.425C140.374 317.019 140.323 317.009 140.279 316.985V316.985ZM142.495 314.6C142.397 314.581 142.296 314.579 142.198 314.596C142.099 314.613 142.006 314.648 141.922 314.699C141.317 315.194 140.881 315.841 140.668 316.562C141.572 316.229 142.806 315.293 142.855 314.843C142.855 314.798 142.855 314.681 142.583 314.609L142.495 314.6Z" fill="#02A1FC"/>
<path d="M139.881 315.959L132.785 314.645C132.649 314.621 132.508 314.643 132.388 314.707C132.269 314.772 132.178 314.874 132.134 314.996L129.675 320.648C129.563 320.881 129.55 321.145 129.638 321.386C129.726 321.628 129.909 321.83 130.151 321.953L130.345 322.016C132.931 322.448 135.205 322.727 138.452 323.33C142.233 324.041 141.183 324.32 145.635 325.22C148.318 325.76 149.387 322.727 148.279 322.358C143.195 320.729 142.962 319.028 141.319 316.769C140.972 316.336 140.456 316.045 139.881 315.959V315.959Z" fill="#263238"/>
<path d="M169.983 201.641C169.983 201.641 176.787 249.656 177.506 264.965C178.05 276.953 177.312 309.533 177.312 309.533L166.377 309.434L166.153 305.249C164.72 277.837 160.838 250.582 154.547 223.763L149.688 202.847L169.983 201.641Z" fill="#02A1FC"/>
<path d="M169.983 201.641C169.983 201.641 176.787 249.656 177.506 264.965C178.05 276.953 177.312 309.533 177.312 309.533L166.377 309.434L166.153 305.249C164.72 277.837 160.838 250.582 154.547 223.763L149.688 202.847L169.983 201.641Z" fill="#263238"/>
<path opacity="0.1" d="M155.131 232.817L159.651 213.071L160.321 215.609C163.51 227.682 164.15 240.211 162.207 252.509L161.381 257.702C160.73 254.93 157.765 239.9 155.131 232.817Z" fill="black"/>
<path d="M162.742 201.794C162.742 201.794 159.126 260.24 157.269 269.213C155.102 279.77 143.195 307.571 143.195 307.571L134.758 305.456C134.758 305.456 138.422 283.964 140.687 271.193C142.631 260.321 143.253 241.673 143.72 229.451C143.72 229.451 140.804 209.165 142.748 203.927L162.742 201.794Z" fill="#263238"/>
<path d="M162.742 201.794C162.742 201.794 159.126 260.24 157.269 269.213C155.102 279.77 143.195 307.571 143.195 307.571L134.758 305.456C134.758 305.456 138.422 283.964 140.687 271.193C142.631 260.321 143.253 241.673 143.72 229.451C143.72 229.451 140.804 209.165 142.748 203.927L162.742 201.794Z" fill="#263238"/>
<path d="M146.568 305.951L144.255 310.487L132.318 307.166L132.892 303.152L146.568 305.951Z" fill="#585757"/>
<path d="M178.46 307.22L178.1 312.179L164.793 311.945L164.424 307.301L178.46 307.22Z" fill="#585757"/>
<path d="M194.07 143.6L196.218 140.144L200.592 137.273C200.966 137.018 201.256 136.672 201.428 136.272C201.599 135.873 201.647 135.437 201.564 135.014L201.059 132.197C200.951 131.614 200.61 131.09 200.104 130.73C199.598 130.369 198.963 130.199 198.327 130.253L197.239 130.352C196.685 130.4 196.166 130.62 195.766 130.977C195.365 131.333 195.106 131.804 195.032 132.314V132.314C194.958 132.83 194.694 133.307 194.284 133.664L193.681 134.204C193.419 134.434 193.214 134.714 193.081 135.025C192.949 135.336 192.891 135.67 192.913 136.004L193.039 137.462L190.425 141.53L194.07 143.6Z" fill="#FFB573"/>
<path d="M195.148 143.537L196.295 141.476L191.251 138.587L190.162 140.927L195.148 143.537Z" fill="#263238"/>
<path opacity="0.7" d="M195.148 143.537L196.295 141.476L191.251 138.587L190.162 140.927L195.148 143.537Z" fill="white"/>
<path d="M159.748 156.794L167.923 156.92C171.923 156.257 175.715 154.784 179.029 152.606C182.343 150.428 185.096 147.598 187.09 144.32L190.084 139.415L196.276 143.303L189.909 154.346C188.894 156.237 187.432 157.893 185.632 159.189C183.831 160.485 181.738 161.389 179.509 161.834L161.488 166.235L159.748 156.794Z" fill="#263238"/>
<path opacity="0.5" d="M159.748 156.794L167.923 156.92C171.923 156.257 175.715 154.784 179.029 152.606C182.343 150.428 185.096 147.598 187.09 144.32L190.084 139.415L196.276 143.303L189.909 154.346C188.894 156.237 187.432 157.893 185.632 159.189C183.831 160.485 181.738 161.389 179.509 161.834L161.488 166.235L159.748 156.794Z" fill="#E94235"/>
<path opacity="0.2" d="M180.569 161.465L162.315 166.118L162.13 164.48L165.299 163.814L180.569 161.465Z" fill="black"/>
<path d="M169.497 165.785L171.441 202.622C162.829 205.07 157.989 205.115 144.789 205.124L141.727 204.854L136.381 166.514C136.218 165.312 136.54 164.097 137.284 163.1C138.028 162.104 139.143 161.397 140.415 161.114L159.612 156.713L164.569 157.379C167.825 156.65 169.342 162.68 169.497 165.785Z" fill="white"/>
<path d="M118.264 203.207L114.716 205.907C114.716 205.907 111.187 206.924 110.74 208.85C110.468 210.02 112.082 211.154 113.404 211.865C113.906 212.136 114.475 212.283 115.057 212.294C115.638 212.305 116.213 212.179 116.728 211.928C118.196 211.19 119.741 208.688 119.741 208.688L121.685 205.151L118.264 203.207Z" fill="#FFB573"/>
<path d="M118.282 203.207C118.467 202.91 122.637 197.537 122.637 197.537L125.874 199.526L120.897 206.213C120.897 206.213 116.892 205.484 118.282 203.207Z" fill="#FFB573"/>
<path d="M118.749 201.164L117.68 202.874L122.151 205.781L123.589 203.675L118.749 201.164Z" fill="black"/>
<path opacity="0.7" d="M118.749 201.164L117.68 202.874L122.151 205.781L123.589 203.675L118.749 201.164Z" fill="white"/>
<path d="M135.41 165.443L128.751 187.313L117.816 201.2L123.697 204.557L137.781 190.094L145.334 169.277C145.334 169.277 145.499 160.34 139.803 161.6C138.783 161.85 137.846 162.333 137.079 163.004C136.311 163.675 135.738 164.514 135.41 165.443V165.443Z" fill="#263238"/>
<path opacity="0.5" d="M135.41 165.443L128.751 187.313L117.816 201.2L123.697 204.557L137.781 190.094L145.334 169.277C145.334 169.277 145.499 160.34 139.803 161.6C138.783 161.85 137.846 162.333 137.079 163.004C136.311 163.675 135.738 164.514 135.41 165.443V165.443Z" fill="#E94235"/>
<path opacity="0.2" d="M137.781 190.076L138.189 188.96L138.316 176.171L135.04 192.893L137.781 190.076Z" fill="black"/>
<path d="M147.404 205.799C147.404 206.285 147.404 206.771 147.404 207.275C147.404 208.013 147.356 208.778 147.336 209.552L137.402 209.471C137.558 207.707 137.687 205.94 137.791 204.17C137.791 204.071 137.791 203.981 137.791 203.882C137.869 202.682 137.927 201.482 137.966 200.282C138.412 188.984 137.879 177.67 136.372 166.451C136.358 166.238 136.358 166.025 136.372 165.812C136.388 164.716 136.797 163.657 137.534 162.8C138.271 161.943 139.295 161.337 140.445 161.078L146.549 159.674C146.549 159.674 146.831 167.153 147.093 175.874C147.356 184.595 147.628 194.567 147.589 199.553C147.511 201.299 147.472 203.405 147.404 205.799Z" fill="#263238"/>
<path opacity="0.5" d="M147.404 205.799C147.404 206.285 147.404 206.771 147.404 207.275C147.404 208.013 147.356 208.778 147.336 209.552L137.402 209.471C137.558 207.707 137.687 205.94 137.791 204.17C137.791 204.071 137.791 203.981 137.791 203.882C137.869 202.682 137.927 201.482 137.966 200.282C138.412 188.984 137.879 177.67 136.372 166.451C136.358 166.238 136.358 166.025 136.372 165.812C136.388 164.716 136.797 163.657 137.534 162.8C138.271 161.943 139.295 161.337 140.445 161.078L146.549 159.674C146.549 159.674 146.831 167.153 147.093 175.874C147.356 184.595 147.628 194.567 147.589 199.553C147.511 201.299 147.472 203.405 147.404 205.799Z" fill="#E94235"/>
<path d="M173.483 205.7L164.443 207.572L159.583 156.704L164.54 157.37C167.835 156.614 169.352 162.644 169.517 165.749L170.1 177.836C170.1 178.421 170.158 178.997 170.197 179.591C170.197 180.023 170.256 180.491 170.275 180.905C170.333 181.652 170.382 182.408 170.44 183.155C170.44 183.713 170.528 184.271 170.576 184.829C170.771 187.169 171.014 189.491 171.296 191.822C171.577 194.153 171.898 196.322 172.268 198.626C172.268 198.734 172.268 198.851 172.268 198.968C172.608 201.137 172.997 203.288 173.415 205.448C173.453 205.565 173.473 205.646 173.483 205.7Z" fill="#263238"/>
<g opacity="0.5">
<path opacity="0.5" d="M173.483 205.7L164.443 207.572L159.583 156.704L164.54 157.37C167.835 156.614 169.352 162.644 169.517 165.749L170.1 177.836C170.1 178.421 170.158 178.997 170.197 179.591C170.197 180.023 170.256 180.491 170.275 180.905C170.333 181.652 170.382 182.408 170.44 183.155C170.44 183.713 170.528 184.271 170.576 184.829C170.771 187.169 171.014 189.491 171.296 191.822C171.577 194.153 171.898 196.322 172.268 198.626C172.268 198.734 172.268 198.851 172.268 198.968C172.608 201.137 172.997 203.288 173.415 205.448C173.453 205.565 173.473 205.646 173.483 205.7Z" fill="#E94235"/>
</g>
<path d="M158.338 160.682L155.16 165.299L149.901 162.293L151.087 160.619L156.793 159.836L158.338 160.682Z" fill="#263238"/>
<path opacity="0.5" d="M158.338 160.682L155.16 165.299L149.901 162.293L151.087 160.619L156.793 159.836L158.338 160.682Z" fill="white"/>
<path d="M158.358 138.56C158.358 138.56 158.115 132.737 152.944 135.464L158.358 138.56Z" fill="#263238"/>
<path opacity="0.7" d="M158.358 138.56C158.358 138.56 158.115 132.737 152.944 135.464L158.358 138.56Z" fill="white"/>
<path d="M157.522 159.386L155.831 161.321L152.992 161.708L148.414 160.403C148.431 160.335 148.454 160.269 148.482 160.205C149.717 157.244 148.298 152.105 147.209 149.162L155.15 153.851C154.897 155.984 155.306 158.288 157.522 159.386Z" fill="#FFB573"/>
<path opacity="0.1" d="M152.089 153.086C152.089 153.086 153.596 153.401 155.151 153.869C155.009 154.875 155.085 155.897 155.374 156.875C153.992 157.021 152.594 156.777 151.365 156.175C150.135 155.573 149.13 154.64 148.483 153.5C148.386 153.041 148.279 152.6 148.162 152.168L152.089 153.086Z" fill="black"/>
<path d="M144.692 143.825C146.101 148.577 146.636 151.43 149.882 153.392C154.742 156.362 160.71 152.915 160.875 147.884C161.021 143.321 158.698 136.337 153.099 135.392C151.197 135.051 149.227 135.422 147.62 136.424C146.013 137.426 144.9 138.978 144.526 140.738C144.318 141.765 144.375 142.822 144.692 143.825V143.825Z" fill="#FFB573"/>
<path d="M159.913 140.144C159.913 139.784 159.709 138.992 158.766 139.298C158.766 139.298 157.95 138.398 157.269 139.235C157.269 139.235 156.142 139.235 156.181 139.892C156.181 140.792 157.065 140.063 158.193 140.315C159.32 140.567 159.884 140.765 159.913 140.144Z" fill="#263238"/>
<path opacity="0.6" d="M159.913 140.144C159.913 139.784 159.709 138.992 158.766 139.298C158.766 139.298 157.95 138.398 157.269 139.235C157.269 139.235 156.142 139.235 156.181 139.892C156.181 140.792 157.065 140.063 158.193 140.315C159.32 140.567 159.884 140.765 159.913 140.144Z" fill="white"/>
<path d="M150.884 142.034C150.68 141.737 150.437 140.945 151.418 140.783C151.418 140.783 151.632 139.613 152.692 140.036C152.692 140.036 153.664 139.505 153.984 140.108C154.412 140.882 153.314 140.666 152.468 141.395C151.622 142.124 151.243 142.556 150.884 142.034Z" fill="#263238"/>
<path opacity="0.6" d="M150.884 142.034C150.68 141.737 150.437 140.945 151.418 140.783C151.418 140.783 151.632 139.613 152.692 140.036C152.692 140.036 153.664 139.505 153.984 140.108C154.412 140.882 153.314 140.666 152.468 141.395C151.622 142.124 151.243 142.556 150.884 142.034Z" fill="white"/>
<path d="M157.085 142.7C157.967 143.726 158.997 144.634 160.147 145.4C159.919 145.667 159.632 145.885 159.305 146.041C158.978 146.196 158.618 146.284 158.251 146.3L157.085 142.7Z" fill="#ED893E"/>
<path d="M151.359 132.998C149.814 132.521 146.15 133.07 145.323 134.366C144.193 134.323 143.078 134.63 142.156 135.238C141.234 135.845 140.557 136.72 140.23 137.723C140.006 138.731 140.366 140 141.416 140.324C140.562 140.831 139.782 141.435 139.093 142.124C138.758 142.454 138.5 142.844 138.333 143.269C138.166 143.695 138.094 144.147 138.121 144.599C138.171 145.042 138.377 145.459 138.707 145.784C139.037 146.109 139.473 146.325 139.948 146.399C139.496 147.131 139.168 147.923 138.976 148.748C138.858 149.191 138.843 149.651 138.932 150.1C139.021 150.548 139.212 150.974 139.491 151.349C139.789 151.712 140.214 151.967 140.694 152.069C141.174 152.171 141.677 152.113 142.116 151.907H142.718C142.653 152.136 142.676 152.379 142.784 152.593C142.893 152.808 143.079 152.98 143.311 153.08C143.543 153.18 143.806 153.201 144.053 153.139C144.3 153.078 144.516 152.938 144.662 152.744C144.973 152.375 145.139 151.736 145.634 151.79C145.77 152.348 145.907 153.122 146.509 153.266C146.812 153.335 147.129 153.329 147.428 153.246C147.728 153.164 147.997 153.009 148.21 152.798C147.53 151.061 149.542 148.478 148.861 146.732C148.271 145.391 147.872 143.984 147.676 142.547C147.549 141.098 145.265 140.243 146.295 139.154C146.77 138.601 147.431 138.211 148.173 138.048C148.915 137.885 149.695 137.957 150.387 138.254C150.387 137.21 151.019 137.255 151.019 137.255C151.285 137.147 151.577 137.107 151.865 137.137C152.154 137.167 152.428 137.266 152.662 137.426C152.516 137.12 152.992 136.643 153.546 137.336C153.624 137.183 153.44 136.904 153.702 136.805C153.964 136.706 154.091 136.913 154.363 136.985C154.266 136.706 152.915 133.466 151.359 132.998Z" fill="#263238"/>
<path opacity="0.7" d="M151.359 132.998C149.814 132.521 146.15 133.07 145.323 134.366C144.193 134.323 143.078 134.63 142.156 135.238C141.234 135.845 140.557 136.72 140.23 137.723C140.006 138.731 140.366 140 141.416 140.324C140.562 140.831 139.782 141.435 139.093 142.124C138.758 142.454 138.5 142.844 138.333 143.269C138.166 143.695 138.094 144.147 138.121 144.599C138.171 145.042 138.377 145.459 138.707 145.784C139.037 146.109 139.473 146.325 139.948 146.399C139.496 147.131 139.168 147.923 138.976 148.748C138.858 149.191 138.843 149.651 138.932 150.1C139.021 150.548 139.212 150.974 139.491 151.349C139.789 151.712 140.214 151.967 140.694 152.069C141.174 152.171 141.677 152.113 142.116 151.907H142.718C142.653 152.136 142.676 152.379 142.784 152.593C142.893 152.808 143.079 152.98 143.311 153.08C143.543 153.18 143.806 153.201 144.053 153.139C144.3 153.078 144.516 152.938 144.662 152.744C144.973 152.375 145.139 151.736 145.634 151.79C145.77 152.348 145.907 153.122 146.509 153.266C146.812 153.335 147.129 153.329 147.428 153.246C147.728 153.164 147.997 153.009 148.21 152.798C147.53 151.061 149.542 148.478 148.861 146.732C148.271 145.391 147.872 143.984 147.676 142.547C147.549 141.098 145.265 140.243 146.295 139.154C146.77 138.601 147.431 138.211 148.173 138.048C148.915 137.885 149.695 137.957 150.387 138.254C150.387 137.21 151.019 137.255 151.019 137.255C151.285 137.147 151.577 137.107 151.865 137.137C152.154 137.167 152.428 137.266 152.662 137.426C152.516 137.12 152.992 136.643 153.546 137.336C153.624 137.183 153.44 136.904 153.702 136.805C153.964 136.706 154.091 136.913 154.363 136.985C154.266 136.706 152.915 133.466 151.359 132.998Z" fill="white"/>
<path d="M159.34 146.3C157.775 146.12 155.326 146.408 151.895 148.406C151.301 148.477 150.699 148.371 150.175 148.104C149.651 147.837 149.232 147.423 148.979 146.921L148.123 145.634L146.976 146.201L146.724 150.26C146.724 150.26 148.366 154.175 149.698 154.184C150.206 154.694 150.861 155.06 151.586 155.239C152.31 155.418 153.075 155.401 153.79 155.192C153.79 155.192 158.543 156.092 159.068 153.959C159.068 153.959 161.702 155.111 161.012 151.772C161.012 151.772 161.469 151.115 161.498 148.523C161.499 147.971 161.279 147.438 160.88 147.027C160.482 146.617 159.933 146.358 159.34 146.3Z" fill="#263238"/>
<g opacity="0.7">
<path opacity="0.7" d="M159.34 146.3C157.775 146.12 155.326 146.408 151.895 148.406C151.301 148.477 150.699 148.371 150.175 148.104C149.651 147.837 149.232 147.423 148.979 146.921L148.123 145.634L146.976 146.201L146.724 150.26C146.724 150.26 148.366 154.175 149.698 154.184C150.206 154.694 150.861 155.06 151.586 155.239C152.31 155.418 153.075 155.401 153.79 155.192C153.79 155.192 158.543 156.092 159.068 153.959C159.068 153.959 161.702 155.111 161.012 151.772C161.012 151.772 161.469 151.115 161.498 148.523C161.499 147.971 161.279 147.438 160.88 147.027C160.482 146.617 159.933 146.358 159.34 146.3Z" fill="white"/>
</g>
<path opacity="0.1" d="M159.602 148.613C159.051 148.465 158.571 148.147 158.241 147.713C158.222 147.8 158.184 147.883 158.129 147.956C158.073 148.029 158.002 148.09 157.92 148.137C157.838 148.183 157.747 148.214 157.651 148.226C157.556 148.238 157.459 148.232 157.366 148.208C157.076 148.563 156.721 148.867 156.317 149.108C156.107 149.224 155.867 149.286 155.622 149.286C155.377 149.286 155.137 149.224 154.927 149.108C155.086 149.308 155.294 149.471 155.534 149.584C155.773 149.696 156.038 149.755 156.307 149.756C156.599 149.755 156.887 149.693 157.149 149.574C157.412 149.456 157.642 149.284 157.823 149.072C157.905 149.125 157.998 149.162 158.097 149.181C158.195 149.2 158.296 149.2 158.394 149.182C158.492 149.163 158.585 149.126 158.668 149.073C158.75 149.02 158.82 148.953 158.873 148.874C159.077 149.037 159.34 149.122 159.609 149.112C159.878 149.102 160.133 148.998 160.321 148.82C160.224 148.919 160.001 148.82 159.874 148.82C159.816 148.805 159.761 148.779 159.714 148.744C159.667 148.708 159.629 148.663 159.602 148.613V148.613Z" fill="black"/>
<path d="M154.257 142.349C154.364 142.736 154.257 143.096 153.965 143.159C153.674 143.222 153.392 142.961 153.275 142.583C153.158 142.205 153.275 141.836 153.576 141.773C153.878 141.71 154.14 141.989 154.257 142.349Z" fill="#263238"/>
<path d="M159.126 141.566C159.233 141.953 159.126 142.313 158.834 142.376C158.542 142.439 158.251 142.187 158.144 141.8C158.037 141.413 158.144 141.062 158.445 140.99C158.747 140.918 158.999 141.215 159.126 141.566Z" fill="#263238"/>
<path d="M160.652 156.551L157.493 156.11L153.586 159.8L146.053 158.135L144.187 160.196L151.36 164.3L153.858 160.844L157.863 163.004L160.652 156.551Z" fill="#263238"/>
<path opacity="0.7" d="M160.652 156.551L157.493 156.11L153.586 159.8L146.053 158.135L144.187 160.196L151.36 164.3L153.858 160.844L157.863 163.004L160.652 156.551Z" fill="white"/>
<path d="M108.72 200.633L99.2939 210.98L115.899 223.95L125.325 213.603L108.72 200.633Z" fill="#02A1FC"/>
<path opacity="0.2" d="M108.72 200.633L99.2939 210.98L115.899 223.95L125.325 213.603L108.72 200.633Z" fill="black"/>
<path d="M107.349 202.135L97.9229 212.481L114.528 225.451L123.954 215.105L107.349 202.135Z" fill="#02A1FC"/>
<path opacity="0.2" d="M107.349 202.135L97.9229 212.481L114.528 225.451L123.954 215.105L107.349 202.135Z" fill="black"/>
<path d="M106.622 205.995L102.034 211.031C101.719 211.376 101.767 211.893 102.14 212.185L103.596 213.322C103.97 213.614 104.528 213.57 104.843 213.224L109.43 208.189C109.745 207.843 109.698 207.326 109.325 207.035L107.868 205.897C107.495 205.606 106.937 205.649 106.622 205.995Z" fill="white"/>
<path d="M124.737 213.656L123.94 214.574L107.97 202.091L108.689 201.272L124.737 213.656Z" fill="white"/>
<path d="M108.456 207.923L104.733 212.108L104.267 211.739L108.048 207.599L108.456 207.923Z" fill="#263238"/>
<path d="M144.75 145.49L145.051 145.715C145.372 145.301 146.422 144.059 146.995 143.915L150.815 143.069C150.802 143.195 150.802 143.321 150.815 143.447C150.902 143.761 151.056 144.057 151.267 144.316C151.479 144.575 151.744 144.792 152.047 144.956C152.35 145.119 152.685 145.225 153.032 145.267C153.38 145.309 153.733 145.287 154.071 145.202C154.77 145.061 155.381 144.674 155.777 144.123C156.172 143.572 156.32 142.9 156.19 142.25C156.17 142.164 156.144 142.08 156.113 141.998L157.289 141.737C157.289 141.818 157.289 141.908 157.289 141.998C157.375 142.313 157.527 142.609 157.739 142.869C157.95 143.128 158.215 143.346 158.518 143.51C158.821 143.673 159.157 143.779 159.505 143.821C159.853 143.863 160.207 143.839 160.545 143.753C161.244 143.61 161.855 143.221 162.251 142.669C162.646 142.116 162.794 141.443 162.664 140.792C162.275 139.154 160.321 139.595 159.583 139.757C158.844 139.919 157.444 140.234 157.26 141.35L155.889 141.656C155.209 140.756 153.702 141.071 153.07 141.206C152.439 141.341 151.049 141.665 150.776 142.682L146.83 143.582C146.257 143.717 145.129 145.013 144.75 145.49ZM157.687 141.944C157.473 141.044 158.076 140.504 159.699 140.144C161.323 139.784 162.11 140.009 162.324 140.909C162.43 141.466 162.298 142.04 161.955 142.509C161.612 142.978 161.085 143.304 160.487 143.42C160.198 143.496 159.896 143.518 159.598 143.485C159.3 143.452 159.013 143.364 158.752 143.226C158.491 143.089 158.263 142.905 158.08 142.684C157.897 142.464 157.764 142.212 157.687 141.944V141.944ZM151.175 143.393C150.961 142.493 151.564 141.962 153.187 141.593C154.81 141.224 155.598 141.458 155.811 142.358C155.92 142.916 155.789 143.491 155.446 143.96C155.102 144.429 154.574 144.756 153.974 144.869C153.686 144.945 153.384 144.967 153.086 144.934C152.788 144.901 152.5 144.813 152.24 144.675C151.979 144.538 151.751 144.354 151.568 144.133C151.385 143.913 151.251 143.661 151.175 143.393V143.393Z" fill="#263238"/>
<path d="M309.504 88.7719C309.4 72.302 302.234 56.545 289.582 44.9674C276.931 33.3897 259.83 26.9398 242.043 27.0365C224.255 27.1331 207.238 33.7685 194.734 45.4829C182.23 57.1972 175.264 73.031 175.368 89.5009C175.524 114.386 197.015 131.117 210.662 150.746C214.89 156.821 214.55 179.645 214.55 179.645L271.46 179.339C271.46 179.339 270.858 156.524 274.998 150.395C288.383 130.622 309.66 113.657 309.504 88.7719Z" fill="#02A1FC"/>
<path opacity="0.5" d="M309.504 88.7719C309.4 72.302 302.234 56.545 289.582 44.9674C276.931 33.3897 259.83 26.9398 242.043 27.0365C224.255 27.1331 207.238 33.7685 194.734 45.4829C182.23 57.1972 175.264 73.031 175.368 89.5009C175.524 114.386 197.015 131.117 210.662 150.746C214.89 156.821 214.55 179.645 214.55 179.645L271.46 179.339C271.46 179.339 270.858 156.524 274.998 150.395C288.383 130.622 309.66 113.657 309.504 88.7719Z" fill="white"/>
<path opacity="0.3" d="M301.534 77.297C301.534 116.393 275.174 160.727 242.553 160.754C209.933 160.781 183.436 111.254 183.407 77.396C183.407 56.5339 209.816 39.5959 242.437 39.5959C275.057 39.5959 301.515 56.4349 301.534 77.297Z" fill="white"/>
<path opacity="0.4" d="M280.772 115.385C280.78 122.351 278.556 129.162 274.383 134.957C270.21 140.753 264.274 145.272 257.326 147.944C250.379 150.616 242.732 151.32 235.352 149.968C227.972 148.615 221.191 145.266 215.867 140.345C210.543 135.424 206.914 129.152 205.44 122.321C203.966 115.491 204.713 108.409 207.586 101.971C210.459 95.5333 215.33 90.0292 221.581 86.1547C227.833 82.2801 235.185 80.2092 242.708 80.2039C247.703 80.1991 252.649 81.1055 257.265 82.871C261.881 84.6366 266.076 87.2268 269.611 90.4938C273.145 93.7608 275.95 97.6405 277.865 101.911C279.78 106.182 280.768 110.761 280.772 115.385V115.385Z" fill="white"/>
<path opacity="0.4" d="M269.166 124.295C269.166 137.957 257.221 142.115 242.466 142.133C227.711 142.151 215.784 138.002 215.784 124.34C215.784 110.678 227.681 106.7 242.436 106.7C257.191 106.7 269.157 110.633 269.166 124.295Z" fill="white"/>
<path d="M258.29 225.131H226.291L217.407 214.367H267.183L258.29 225.131Z" fill="#02A1FC"/>
<path opacity="0.5" d="M258.29 225.131H226.291L217.407 214.367H267.183L258.29 225.131Z" fill="white"/>
<path d="M211.653 172.229C211.652 171.973 211.705 171.718 211.81 171.481C211.915 171.244 212.069 171.028 212.264 170.845C212.459 170.663 212.691 170.518 212.946 170.419C213.202 170.32 213.476 170.268 213.753 170.267L270.625 169.997C271.182 169.995 271.718 170.197 272.115 170.56C272.513 170.922 272.738 171.416 272.744 171.932V171.932C272.746 172.189 272.694 172.444 272.589 172.682C272.485 172.919 272.331 173.136 272.135 173.318C271.94 173.501 271.708 173.646 271.452 173.744C271.196 173.843 270.921 173.894 270.644 173.894L213.772 174.173C213.495 174.174 213.221 174.125 212.964 174.028C212.708 173.931 212.475 173.788 212.278 173.607C212.081 173.427 211.925 173.212 211.818 172.976C211.71 172.739 211.655 172.486 211.653 172.229V172.229Z" fill="#02A1FC"/>
<path d="M277.787 180.41C277.787 182.319 276.968 184.151 275.51 185.501C274.052 186.851 272.074 187.61 270.011 187.61H262.119C261.543 187.74 260.952 187.807 260.359 187.808L214.812 187.88C212.859 187.761 211.026 186.965 209.679 185.65C208.332 184.335 207.57 182.598 207.546 180.786C207.521 178.973 208.235 177.219 209.546 175.873C210.857 174.528 212.668 173.689 214.617 173.525H222.685C223.203 173.404 223.735 173.337 224.269 173.327H224.444L270.021 173.255C272.073 173.257 274.041 174.011 275.496 175.351C276.951 176.691 277.775 178.51 277.787 180.41Z" fill="#02A1FC"/>
<path d="M277.787 180.41C277.787 182.319 276.968 184.151 275.51 185.501C274.052 186.851 272.074 187.61 270.011 187.61H262.119C261.543 187.74 260.952 187.807 260.359 187.808L214.812 187.88C212.859 187.761 211.026 186.965 209.679 185.65C208.332 184.335 207.57 182.598 207.546 180.786C207.521 178.973 208.235 177.219 209.546 175.873C210.857 174.528 212.668 173.689 214.617 173.525H222.685C223.203 173.404 223.735 173.337 224.269 173.327H224.444L270.021 173.255C272.073 173.257 274.041 174.011 275.496 175.351C276.951 176.691 277.775 178.51 277.787 180.41Z" fill="#02A1FC"/>
<g opacity="0.2">
<path opacity="0.2" d="M277.787 180.41C277.787 182.319 276.968 184.151 275.51 185.501C274.052 186.851 272.074 187.61 270.011 187.61H262.119C261.543 187.74 260.952 187.807 260.359 187.808L214.812 187.88C212.859 187.761 211.026 186.965 209.679 185.65C208.332 184.335 207.57 182.598 207.546 180.786C207.521 178.973 208.235 177.219 209.546 175.873C210.857 174.528 212.668 173.689 214.617 173.525H222.685C223.203 173.404 223.735 173.337 224.269 173.327H224.444L270.021 173.255C272.073 173.257 274.041 174.011 275.496 175.351C276.951 176.691 277.775 178.51 277.787 180.41Z" fill="white"/>
</g>
<path d="M275.076 194.405C275.115 195.316 274.959 196.225 274.618 197.08C274.277 197.936 273.757 198.72 273.088 199.389C272.419 200.058 271.614 200.598 270.719 200.978C269.824 201.358 268.857 201.571 267.873 201.605H260.544C260.008 201.736 259.456 201.802 258.902 201.803H216.522C214.58 201.674 212.761 200.874 211.424 199.563C210.088 198.252 209.331 196.524 209.304 194.721C209.278 192.918 209.982 191.171 211.279 189.826C212.576 188.481 214.371 187.636 216.309 187.457H223.812C224.296 187.343 224.791 187.28 225.29 187.268H267.834C271.829 187.214 275.076 190.4 275.076 194.405Z" fill="#02A1FC"/>
<path opacity="0.3" d="M275.076 194.405C275.115 195.316 274.959 196.225 274.618 197.08C274.277 197.936 273.757 198.72 273.088 199.389C272.419 200.058 271.614 200.598 270.719 200.978C269.824 201.358 268.857 201.571 267.873 201.605H260.544C260.008 201.736 259.456 201.802 258.902 201.803H216.522C214.58 201.674 212.761 200.874 211.424 199.563C210.088 198.252 209.331 196.524 209.304 194.721C209.278 192.918 209.982 191.171 211.279 189.826C212.576 188.481 214.371 187.636 216.309 187.457H223.812C224.296 187.343 224.791 187.28 225.29 187.268H267.834C271.829 187.214 275.076 190.4 275.076 194.405Z" fill="white"/>
<path d="M272.374 208.04C272.374 212.009 269.409 215.24 265.735 215.195H258.931C258.438 215.327 257.927 215.39 257.415 215.384L218.233 215.312C214.54 215.312 211.536 212.081 211.517 208.112C211.497 204.143 214.433 201.047 218.01 200.966H224.94C225.384 200.853 225.841 200.79 226.301 200.777H226.476L265.667 200.849C269.351 200.849 272.354 204.071 272.374 208.04Z" fill="#02A1FC"/>
<path opacity="0.4" d="M272.374 208.04C272.374 212.009 269.409 215.24 265.735 215.195H258.931C258.438 215.327 257.927 215.39 257.415 215.384L218.233 215.312C214.54 215.312 211.536 212.081 211.517 208.112C211.497 204.143 214.433 201.047 218.01 200.966H224.94C225.384 200.853 225.841 200.79 226.301 200.777H226.476L265.667 200.849C269.351 200.849 272.354 204.071 272.374 208.04Z" fill="white"/>
<path d="M216.027 217.229C216.025 216.972 216.077 216.717 216.181 216.478C216.286 216.24 216.44 216.023 216.635 215.84C216.83 215.656 217.062 215.511 217.318 215.411C217.574 215.311 217.849 215.259 218.127 215.258L266.251 215.168C266.808 215.17 267.341 215.376 267.736 215.739C268.131 216.103 268.355 216.596 268.36 217.112C268.362 217.369 268.31 217.623 268.206 217.861C268.101 218.099 267.947 218.316 267.752 218.498C267.557 218.681 267.324 218.825 267.068 218.924C266.812 219.023 266.538 219.074 266.26 219.074L218.137 219.164C217.861 219.165 217.588 219.116 217.332 219.019C217.077 218.923 216.845 218.781 216.649 218.601C216.453 218.421 216.298 218.208 216.191 217.972C216.084 217.737 216.029 217.484 216.027 217.229V217.229Z" fill="#02A1FC"/>
<path d="M230.87 83.8039L226.797 85.9009C227.031 87.0937 227.355 88.2696 227.769 89.4199L232.425 89.3479C233.257 91.2206 234.355 92.9822 235.691 94.5859L233.3 98.2849C234.165 99.2005 235.097 100.06 236.089 100.859L240.084 98.6449C241.81 99.8846 243.71 100.902 245.731 101.669L245.654 105.98C246.898 106.378 248.171 106.694 249.464 106.925L251.729 103.154C253.893 103.43 256.087 103.43 258.251 103.154L260.516 106.925C261.828 106.696 263.121 106.38 264.384 105.98L264.306 101.669C266.327 100.9 268.226 99.8827 269.954 98.6449L273.949 100.859C274.94 100.06 275.873 99.2005 276.738 98.2849L274.337 94.5859C275.679 92.9845 276.781 91.2225 277.613 89.3479L282.269 89.4199C282.694 88.2695 283.035 87.0938 283.29 85.9009L279.207 83.8039C279.505 81.7973 279.505 79.7624 279.207 77.7559L283.29 75.6589C283.035 74.4659 282.694 73.2903 282.269 72.1399L277.613 72.2119C276.781 70.3391 275.683 68.5776 274.347 66.9739L276.738 63.2749C275.873 62.3564 274.941 61.4934 273.949 60.6919L269.954 62.9149C268.226 61.6771 266.327 60.66 264.306 59.8909L264.384 55.5709C263.136 55.1964 261.863 54.8958 260.574 54.6709L258.309 58.4509C256.145 58.1748 253.951 58.1748 251.787 58.4509L249.522 54.6709C248.233 54.8958 246.96 55.1964 245.712 55.5709L245.79 59.8909C243.768 60.6579 241.869 61.6752 240.142 62.9149L236.148 60.6919C235.156 61.4934 234.224 62.3564 233.358 63.2749L235.749 66.9739C234.414 68.5776 233.315 70.3391 232.483 72.2119L227.827 72.1399C227.414 73.2901 227.089 74.4661 226.855 75.6589L230.928 77.7559C230.63 79.7624 230.63 81.7973 230.928 83.8039H230.87ZM241.97 81.3199C241.97 78.8898 242.748 76.5142 244.207 74.4938C245.665 72.4733 247.738 70.8987 250.162 69.9692C252.587 69.0396 255.256 68.7969 257.83 69.2716C260.404 69.7464 262.768 70.9173 264.623 72.6363C266.478 74.3553 267.741 76.5451 268.252 78.9287C268.763 81.3124 268.498 83.7828 267.493 86.0274C266.487 88.272 264.785 90.1901 262.602 91.5389C260.419 92.8877 257.852 93.6067 255.228 93.6049C251.711 93.6025 248.339 92.3071 245.852 90.0035C243.366 87.6999 241.97 84.5765 241.97 81.3199V81.3199Z" fill="#263238"/>
<path d="M210.331 116.204L205.831 118.517C205.98 119.161 206.165 119.798 206.385 120.425L211.537 120.353C211.982 121.288 212.536 122.175 213.189 122.999L210.536 127.085C211.014 127.577 211.52 128.046 212.052 128.489L216.465 126.032C217.354 126.637 218.313 127.15 219.322 127.562L219.245 132.332C219.922 132.536 220.609 132.707 221.305 132.845L223.803 128.678C224.902 128.786 226.01 128.786 227.108 128.678L229.606 132.845C230.305 132.707 230.996 132.536 231.677 132.332L231.589 127.562C232.599 127.15 233.557 126.637 234.447 126.032L238.86 128.489C239.394 128.048 239.9 127.58 240.376 127.085L237.722 122.999C238.375 122.175 238.93 121.288 239.375 120.353L244.526 120.425C244.751 119.799 244.936 119.162 245.08 118.517L240.58 116.204C240.697 115.187 240.697 114.161 240.58 113.144L245.08 110.831C244.936 110.183 244.751 109.543 244.526 108.914L239.375 108.995C238.93 108.06 238.375 107.173 237.722 106.349L240.376 102.263C239.9 101.768 239.394 101.3 238.86 100.859L234.447 103.316C233.557 102.711 232.599 102.198 231.589 101.786L231.677 97.0159C230.998 96.8081 230.306 96.6368 229.606 96.5029L227.108 100.67C226.01 100.562 224.902 100.562 223.803 100.67L221.305 96.5029C220.608 96.6368 219.92 96.8081 219.245 97.0159L219.322 101.786C218.313 102.198 217.354 102.711 216.465 103.316L212.052 100.859C211.518 101.3 211.011 101.768 210.536 102.263L213.189 106.349C212.536 107.173 211.982 108.06 211.537 108.995L206.385 108.914C206.165 109.544 205.98 110.184 205.831 110.831L210.331 113.144C210.215 114.161 210.215 115.187 210.331 116.204V116.204ZM216.465 114.674C216.465 113.027 216.992 111.418 217.98 110.049C218.968 108.68 220.372 107.613 222.015 106.983C223.658 106.353 225.466 106.188 227.21 106.509C228.954 106.83 230.556 107.623 231.813 108.787C233.071 109.952 233.927 111.435 234.274 113.05C234.621 114.665 234.443 116.339 233.762 117.86C233.082 119.381 231.929 120.681 230.451 121.596C228.972 122.511 227.234 122.999 225.456 122.999C224.275 122.999 223.106 122.784 222.015 122.365C220.924 121.947 219.933 121.334 219.098 120.561C218.263 119.788 217.601 118.87 217.149 117.86C216.697 116.85 216.465 115.767 216.465 114.674V114.674Z" fill="#263238"/>
<path opacity="0.5" d="M210.331 116.204L205.831 118.517C205.98 119.161 206.165 119.798 206.385 120.425L211.537 120.353C211.982 121.288 212.536 122.175 213.189 122.999L210.536 127.085C211.014 127.577 211.52 128.046 212.052 128.489L216.465 126.032C217.354 126.637 218.313 127.15 219.322 127.562L219.245 132.332C219.922 132.536 220.609 132.707 221.305 132.845L223.803 128.678C224.902 128.786 226.01 128.786 227.108 128.678L229.606 132.845C230.305 132.707 230.996 132.536 231.677 132.332L231.589 127.562C232.599 127.15 233.557 126.637 234.447 126.032L238.86 128.489C239.394 128.048 239.9 127.58 240.376 127.085L237.722 122.999C238.375 122.175 238.93 121.288 239.375 120.353L244.526 120.425C244.751 119.799 244.936 119.162 245.08 118.517L240.58 116.204C240.697 115.187 240.697 114.161 240.58 113.144L245.08 110.831C244.936 110.183 244.751 109.543 244.526 108.914L239.375 108.995C238.93 108.06 238.375 107.173 237.722 106.349L240.376 102.263C239.9 101.768 239.394 101.3 238.86 100.859L234.447 103.316C233.557 102.711 232.599 102.198 231.589 101.786L231.677 97.0159C230.998 96.8081 230.306 96.6368 229.606 96.5029L227.108 100.67C226.01 100.562 224.902 100.562 223.803 100.67L221.305 96.5029C220.608 96.6368 219.92 96.8081 219.245 97.0159L219.322 101.786C218.313 102.198 217.354 102.711 216.465 103.316L212.052 100.859C211.518 101.3 211.011 101.768 210.536 102.263L213.189 106.349C212.536 107.173 211.982 108.06 211.537 108.995L206.385 108.914C206.165 109.544 205.98 110.184 205.831 110.831L210.331 113.144C210.215 114.161 210.215 115.187 210.331 116.204V116.204ZM216.465 114.674C216.465 113.027 216.992 111.418 217.98 110.049C218.968 108.68 220.372 107.613 222.015 106.983C223.658 106.353 225.466 106.188 227.21 106.509C228.954 106.83 230.556 107.623 231.813 108.787C233.071 109.952 233.927 111.435 234.274 113.05C234.621 114.665 234.443 116.339 233.762 117.86C233.082 119.381 231.929 120.681 230.451 121.596C228.972 122.511 227.234 122.999 225.456 122.999C224.275 122.999 223.106 122.784 222.015 122.365C220.924 121.947 219.933 121.334 219.098 120.561C218.263 119.788 217.601 118.87 217.149 117.86C216.697 116.85 216.465 115.767 216.465 114.674V114.674Z" fill="#263238"/>
</svg>
