<svg width="672" height="768" viewBox="0 0 672 768" fill="none" xmlns="http://www.w3.org/2000/svg">
<g filter="url(#filter0_d_2855_18383)">
<circle cx="356" cy="728" r="512" fill="#EEFAF8"/>
</g>
<g filter="url(#filter1_d_2855_18383)">
<circle cx="356" cy="728" r="376" fill="#DAF5F2"/>
</g>
<g filter="url(#filter2_d_2855_18383)">
<circle cx="356" cy="728" r="264" fill="#B6E2FC"/>
</g>
<g filter="url(#filter3_d_2855_18383)">
<path d="M681.153 734.137C662.549 731.341 642.564 729.677 622.163 729.225C564.331 727.906 510.28 719.328 467.128 706.499C465.348 705.971 463.569 705.458 461.789 704.959C434.252 697.335 405.38 685.356 399.508 673.671C377.265 630.256 360.894 570.435 362.05 539H348.704C348.704 539 347.236 615.404 304.218 680.019C301.969 683.209 297.424 686.173 290.966 688.661C284.508 691.149 276.328 693.089 267.116 694.315C225 700.183 190.092 710.547 168 723.742C161.75 727.415 152.259 730.375 140.786 732.229C129.312 734.083 116.399 734.744 103.761 734.122C64.9702 732.347 25.6029 735.6 -6.05867 743.197C-37.7202 750.794 -59.2076 762.142 -66 774.853L778 775C772.714 766.162 761.194 757.859 744.369 750.76C727.545 743.661 705.889 737.967 681.153 734.137Z" fill="#EBEBEB"/>
<path d="M307.515 526.255H248.767V327.025C248.767 319.26 251.851 311.813 257.342 306.322C262.833 300.831 270.28 297.746 278.046 297.746C285.811 297.746 293.258 300.831 298.749 306.322C304.24 311.813 307.325 319.26 307.325 327.025L307.515 526.255Z" fill="#FF725E"/>
<path d="M307.515 526.255H248.767V327.025C248.767 319.26 251.851 311.813 257.342 306.322C262.833 300.831 270.28 297.746 278.046 297.746C285.811 297.746 293.258 300.831 298.749 306.322C304.24 311.813 307.325 319.26 307.325 327.025L307.515 526.255Z" fill="#D6DDEB"/>
<path d="M307.515 323.833C307.515 324.038 294.413 324.214 278.236 324.214C262.059 324.214 248.957 324.038 248.957 323.833C248.957 323.628 262.133 323.453 278.236 323.453C294.34 323.453 307.515 323.614 307.515 323.833Z" fill="#263238"/>
<path d="M307.515 374.691C307.515 374.911 294.413 375.072 278.236 375.072C262.059 375.072 248.957 374.911 248.957 374.691C248.957 374.472 262.133 374.311 278.236 374.311C294.34 374.311 307.515 374.486 307.515 374.691Z" fill="#263238"/>
<path d="M291.222 374.691C291.017 374.691 290.842 363.302 290.842 349.262C290.842 335.223 291.017 323.833 291.222 323.833C291.427 323.833 291.603 335.208 291.603 349.262C291.603 363.316 291.457 374.691 291.222 374.691Z" fill="#263238"/>
<path d="M284.356 338.634C284.356 339.042 284.235 339.441 284.008 339.78C283.781 340.12 283.459 340.384 283.082 340.541C282.704 340.697 282.289 340.738 281.889 340.658C281.489 340.578 281.121 340.382 280.832 340.093C280.543 339.804 280.347 339.437 280.267 339.036C280.188 338.636 280.228 338.221 280.385 337.844C280.541 337.466 280.805 337.144 281.145 336.917C281.484 336.69 281.883 336.569 282.292 336.569C282.839 336.569 283.364 336.787 283.751 337.174C284.138 337.561 284.356 338.086 284.356 338.634Z" fill="#263238"/>
<path d="M284.356 356.216C284.356 356.624 284.235 357.023 284.008 357.363C283.781 357.702 283.459 357.967 283.082 358.123C282.704 358.279 282.289 358.32 281.889 358.241C281.489 358.161 281.121 357.964 280.832 357.676C280.543 357.387 280.347 357.019 280.267 356.619C280.188 356.218 280.228 355.803 280.385 355.426C280.541 355.049 280.805 354.727 281.145 354.5C281.484 354.273 281.883 354.152 282.292 354.152C282.839 354.152 283.364 354.369 283.751 354.756C284.138 355.144 284.356 355.669 284.356 356.216Z" fill="#263238"/>
<path d="M307.515 478.194C307.515 478.399 294.413 478.574 278.236 478.574C262.059 478.574 248.957 478.399 248.957 478.194C248.957 477.989 262.133 477.813 278.236 477.813C294.34 477.813 307.515 477.945 307.515 478.194Z" fill="#263238"/>
<path d="M291.222 478.193C291.017 478.193 290.842 466.803 290.842 452.764C290.842 438.725 291.017 427.335 291.222 427.335C291.427 427.335 291.603 438.71 291.603 452.764C291.603 466.818 291.457 478.193 291.222 478.193Z" fill="#263238"/>
<path d="M282.292 444.141C283.432 444.141 284.356 443.217 284.356 442.077C284.356 440.937 283.432 440.013 282.292 440.013C281.152 440.013 280.228 440.937 280.228 442.077C280.228 443.217 281.152 444.141 282.292 444.141Z" fill="#263238"/>
<path d="M282.292 461.738C283.432 461.738 284.356 460.814 284.356 459.674C284.356 458.534 283.432 457.61 282.292 457.61C281.152 457.61 280.228 458.534 280.228 459.674C280.228 460.814 281.152 461.738 282.292 461.738Z" fill="#263238"/>
<path d="M249.001 426.955C249.001 426.75 262.177 426.574 278.28 426.574C294.384 426.574 307.559 426.75 307.559 426.955C307.559 427.16 294.457 427.335 278.28 427.335C262.103 427.335 249.001 427.087 249.001 426.955Z" fill="#263238"/>
<path d="M265.265 426.954C265.06 426.954 264.885 415.565 264.885 401.525C264.885 387.486 265.06 376.096 265.265 376.096C265.47 376.096 265.646 387.471 265.646 401.525C265.646 415.579 265.485 426.954 265.265 426.954Z" fill="#263238"/>
<path d="M272.19 390.824C272.193 391.232 272.317 391.629 272.545 391.967C272.774 392.304 273.097 392.567 273.475 392.721C273.852 392.875 274.267 392.913 274.666 392.832C275.066 392.751 275.432 392.553 275.719 392.264C276.007 391.974 276.202 391.607 276.28 391.207C276.359 390.807 276.317 390.392 276.16 390.016C276.004 389.64 275.739 389.318 275.4 389.092C275.061 388.866 274.662 388.745 274.255 388.745C273.982 388.745 273.713 388.799 273.461 388.904C273.21 389.008 272.982 389.162 272.79 389.355C272.598 389.548 272.446 389.777 272.343 390.03C272.241 390.282 272.189 390.552 272.19 390.824Z" fill="#263238"/>
<path d="M272.19 408.406C272.19 408.814 272.311 409.213 272.538 409.553C272.765 409.892 273.088 410.157 273.465 410.313C273.842 410.469 274.257 410.51 274.657 410.43C275.058 410.351 275.426 410.154 275.714 409.866C276.003 409.577 276.199 409.209 276.279 408.809C276.359 408.408 276.318 407.993 276.162 407.616C276.005 407.239 275.741 406.916 275.401 406.69C275.062 406.463 274.663 406.342 274.255 406.342C273.707 406.342 273.182 406.559 272.795 406.946C272.408 407.333 272.19 407.859 272.19 408.406Z" fill="#263238"/>
<path d="M252.675 328.869C252.619 328.481 252.619 328.086 252.675 327.698C252.741 326.633 252.868 325.572 253.056 324.521C253.644 321.035 254.734 317.652 256.291 314.478C257.171 312.74 258.22 311.092 259.424 309.56C260.426 308.318 261.555 307.185 262.791 306.178C263.26 305.796 263.749 305.44 264.255 305.109C264.628 304.838 265.025 304.603 265.441 304.406C265.772 304.193 266.132 304.031 266.51 303.923C266.583 304.055 265.119 304.846 263.128 306.602C261.967 307.634 260.903 308.771 259.951 309.999C258.815 311.521 257.811 313.137 256.95 314.83C255.438 317.947 254.307 321.236 253.583 324.624C253.012 327.215 252.807 328.869 252.675 328.869Z" fill="#FAFAFA"/>
<path d="M276.436 301.42C276.436 301.625 275.557 301.947 274.386 302.152C273.215 302.357 272.249 302.342 272.219 302.152C272.19 301.962 273.098 301.61 274.269 301.405C275.44 301.2 276.406 301.2 276.436 301.42Z" fill="#FAFAFA"/>
<path d="M401.882 526.254H460.572V327.024C460.572 323.173 459.812 319.36 458.336 315.803C456.86 312.246 454.697 309.015 451.97 306.295C449.244 303.575 446.007 301.42 442.447 299.953C438.886 298.486 435.071 297.736 431.22 297.745C423.454 297.745 416.007 300.83 410.516 306.321C405.025 311.812 401.94 319.259 401.94 327.024L401.882 526.254Z" fill="#FF725E"/>
<path d="M401.882 526.254H460.572V327.024C460.572 323.173 459.812 319.36 458.336 315.803C456.86 312.246 454.697 309.015 451.97 306.295C449.244 303.575 446.007 301.42 442.447 299.953C438.886 298.486 435.071 297.736 431.22 297.745C423.454 297.745 416.007 300.83 410.516 306.321C405.025 311.812 401.94 319.259 401.94 327.024L401.882 526.254Z" fill="#D6DDEB"/>
<path d="M401.882 323.833C401.882 323.614 415.057 323.453 431.161 323.453C447.265 323.453 460.44 323.614 460.44 323.833C460.44 324.053 447.338 324.214 431.161 324.214C414.984 324.214 401.882 324.038 401.882 323.833Z" fill="#263238"/>
<path d="M401.882 374.691C401.882 374.486 415.057 374.311 431.161 374.311C447.265 374.311 460.44 374.486 460.44 374.691C460.44 374.896 447.338 375.072 431.161 375.072C414.984 375.072 401.882 374.911 401.882 374.691Z" fill="#263238"/>
<path d="M418.146 374.691C417.941 374.691 417.766 363.302 417.766 349.262C417.766 335.223 417.941 323.833 418.146 323.833C418.351 323.833 418.527 335.208 418.527 349.262C418.527 363.316 418.366 374.691 418.146 374.691Z" fill="#263238"/>
<path d="M425.026 338.634C425.026 339.042 425.147 339.441 425.374 339.78C425.601 340.12 425.923 340.384 426.301 340.541C426.678 340.697 427.093 340.738 427.493 340.658C427.894 340.578 428.261 340.382 428.55 340.093C428.839 339.804 429.035 339.437 429.115 339.036C429.195 338.636 429.154 338.221 428.998 337.844C428.841 337.466 428.577 337.144 428.237 336.917C427.898 336.69 427.499 336.569 427.091 336.569C426.543 336.569 426.018 336.787 425.631 337.174C425.244 337.561 425.026 338.086 425.026 338.634Z" fill="#263238"/>
<path d="M425.026 356.216C425.026 356.624 425.147 357.023 425.374 357.363C425.601 357.702 425.923 357.967 426.301 358.123C426.678 358.279 427.093 358.32 427.493 358.241C427.894 358.161 428.261 357.964 428.55 357.676C428.839 357.387 429.035 357.019 429.115 356.619C429.195 356.218 429.154 355.803 428.998 355.426C428.841 355.049 428.577 354.727 428.237 354.5C427.898 354.273 427.499 354.152 427.091 354.152C426.543 354.152 426.018 354.369 425.631 354.756C425.244 355.144 425.026 355.669 425.026 356.216Z" fill="#263238"/>
<path d="M401.882 478.194C401.882 477.989 415.057 477.813 431.161 477.813C447.265 477.813 460.44 477.989 460.44 478.194C460.44 478.399 447.338 478.574 431.161 478.574C414.984 478.574 401.882 478.355 401.882 478.194Z" fill="#263238"/>
<path d="M418.146 478.193C417.941 478.193 417.766 466.803 417.766 452.764C417.766 438.725 417.941 427.335 418.146 427.335C418.351 427.335 418.585 438.666 418.585 452.72C418.585 466.774 418.366 478.193 418.146 478.193Z" fill="#263238"/>
<path d="M427.091 444.141C428.231 444.141 429.155 443.217 429.155 442.077C429.155 440.937 428.231 440.013 427.091 440.013C425.951 440.013 425.026 440.937 425.026 442.077C425.026 443.217 425.951 444.141 427.091 444.141Z" fill="#263238"/>
<path d="M427.091 461.738C428.231 461.738 429.155 460.814 429.155 459.674C429.155 458.534 428.231 457.61 427.091 457.61C425.951 457.61 425.026 458.534 425.026 459.674C425.026 460.814 425.951 461.738 427.091 461.738Z" fill="#263238"/>
<path d="M460.396 426.955C460.396 427.16 447.294 427.335 431.117 427.335C414.94 427.335 401.838 427.16 401.838 426.955C401.838 426.75 415.014 426.574 431.117 426.574C447.221 426.574 460.396 426.677 460.396 426.955Z" fill="#263238"/>
<path d="M444.117 426.954C443.912 426.954 443.736 415.565 443.736 401.525C443.736 387.486 443.912 376.096 444.117 376.096C444.322 376.096 444.498 387.471 444.498 401.525C444.498 415.579 444.337 426.954 444.117 426.954Z" fill="#263238"/>
<path d="M437.237 390.824C437.234 391.232 437.11 391.629 436.882 391.967C436.653 392.304 436.33 392.567 435.952 392.721C435.575 392.875 435.16 392.913 434.761 392.832C434.361 392.751 433.995 392.553 433.708 392.264C433.421 391.974 433.225 391.607 433.147 391.207C433.069 390.807 433.11 390.392 433.267 390.016C433.424 389.64 433.688 389.318 434.027 389.092C434.366 388.866 434.765 388.745 435.173 388.745C435.445 388.745 435.714 388.799 435.966 388.904C436.217 389.008 436.445 389.162 436.637 389.355C436.829 389.548 436.981 389.777 437.084 390.03C437.187 390.282 437.239 390.552 437.237 390.824Z" fill="#263238"/>
<path d="M437.237 408.406C437.237 408.814 437.116 409.213 436.889 409.553C436.662 409.892 436.34 410.157 435.963 410.313C435.585 410.469 435.17 410.51 434.77 410.43C434.369 410.351 434.002 410.154 433.713 409.866C433.424 409.577 433.228 409.209 433.148 408.809C433.068 408.408 433.109 407.993 433.266 407.616C433.422 407.239 433.686 406.916 434.026 406.69C434.365 406.463 434.764 406.342 435.173 406.342C435.444 406.342 435.712 406.395 435.963 406.499C436.213 406.603 436.441 406.755 436.632 406.946C436.824 407.138 436.976 407.366 437.08 407.616C437.183 407.866 437.237 408.135 437.237 408.406Z" fill="#263238"/>
<path d="M456.649 328.869C456.531 328.869 456.312 327.23 455.741 324.624C455.011 321.235 453.875 317.947 452.359 314.83C451.509 313.131 450.504 311.514 449.358 309.999C448.411 308.772 447.352 307.635 446.196 306.602C444.205 304.846 442.726 304.055 442.799 303.923C443.184 304.025 443.55 304.188 443.883 304.406C444.299 304.603 444.696 304.838 445.069 305.109C445.575 305.44 446.064 305.796 446.533 306.178C447.769 307.185 448.898 308.318 449.9 309.56C451.104 311.092 452.153 312.74 453.033 314.478C454.581 317.655 455.665 321.037 456.253 324.521C456.445 325.572 456.577 326.632 456.649 327.698C456.721 328.085 456.721 328.482 456.649 328.869Z" fill="white"/>
<path d="M432.948 301.421C432.948 301.201 433.958 301.201 435.129 301.421C436.3 301.64 437.208 301.948 437.179 302.167C437.15 302.387 436.169 302.372 434.997 302.167C433.826 301.962 432.919 301.626 432.948 301.421Z" fill="white"/>
<path d="M337.336 219.292L316.753 258.146C310.683 269.589 307.511 282.347 307.516 295.301V565.621L343.602 588.678H368.621L402.292 565.621V296.487C402.263 284.062 399.32 271.817 393.699 260.737L372.75 219.073C371.585 216.76 369.801 214.816 367.596 213.459C365.39 212.102 362.851 211.384 360.262 211.387H349.897C347.273 211.393 344.703 212.137 342.481 213.535C340.26 214.933 338.477 216.928 337.336 219.292Z" fill="#F7F8FA"/>
<path d="M307.515 544.071H216.75C216.75 544.071 216.75 504.061 254.71 475.587C292.671 447.113 307.53 382.713 307.53 382.713L307.515 544.071Z" fill="#E94235"/>
<path d="M402.263 544.071H493.028C493.028 544.071 493.028 504.061 455.068 475.587C417.107 447.113 402.263 382.713 402.263 382.713V544.071Z" fill="#E94235"/>
<path d="M314.191 402.784C313.986 402.784 313.811 382.831 313.811 358.207C313.811 333.583 313.986 313.629 314.191 313.629C314.396 313.629 314.645 333.583 314.645 358.148C314.645 382.714 314.396 402.784 314.191 402.784Z" fill="#FAFAFA"/>
<path d="M315.187 287.19C315.568 288.506 315.697 289.881 315.568 291.245C315.697 292.609 315.568 293.985 315.187 295.3C314.815 293.983 314.686 292.609 314.806 291.245C314.686 289.881 314.815 288.507 315.187 287.19Z" fill="#FAFAFA"/>
<path d="M344.48 218.165C344.671 218.253 338.463 230.711 330.631 245.98C322.799 261.249 316.299 273.561 316.109 273.458C315.918 273.356 322.126 260.912 329.958 245.643C337.79 230.374 344.29 218.062 344.48 218.165Z" fill="#FAFAFA"/>
<path d="M297.692 424.919C297.711 425.036 297.711 425.154 297.692 425.271C297.692 425.549 297.59 425.886 297.516 426.31L297.194 427.979C297.06 428.747 296.874 429.505 296.638 430.248C295.35 435.044 293.451 439.654 290.987 443.966C287.308 450.338 282.923 456.275 277.914 461.665C272.336 467.813 265.675 474.035 258.634 480.477C252.004 486.498 245.983 493.157 240.656 500.357C238.356 503.511 236.225 506.785 234.274 510.166C232.598 513.13 231.078 516.179 229.721 519.301C227.756 523.822 226.202 528.511 225.08 533.311C224.641 534.994 224.465 536.341 224.245 537.234L224.026 538.259C224.015 538.382 223.98 538.501 223.923 538.61C223.907 538.494 223.907 538.376 223.923 538.259L224.07 537.22C224.231 536.312 224.363 534.951 224.758 533.238C225.767 528.39 227.237 523.649 229.15 519.081C230.479 515.928 231.979 512.849 233.644 509.858C235.586 506.442 237.712 503.133 240.012 499.947C245.343 492.684 251.385 485.97 258.048 479.906C265.09 473.479 271.751 467.286 277.328 461.182C282.35 455.852 286.768 449.985 290.504 443.687C292.99 439.434 294.956 434.897 296.36 430.175C296.604 429.44 296.809 428.692 296.975 427.935C297.121 427.291 297.253 426.749 297.355 426.281C297.458 425.812 297.546 425.534 297.619 425.256C297.625 425.141 297.65 425.027 297.692 424.919Z" fill="#FAFAFA"/>
<path d="M362.707 304.129H347.057C342.507 304.129 338.142 302.321 334.925 299.103C331.707 295.886 329.899 291.522 329.899 286.971C329.899 282.421 331.707 278.056 334.925 274.839C338.142 271.621 342.507 269.813 347.057 269.813H362.707C364.96 269.812 367.192 270.254 369.275 271.116C371.357 271.977 373.25 273.241 374.843 274.835C376.437 276.428 377.701 278.32 378.562 280.403C379.424 282.485 379.866 284.717 379.864 286.971C379.864 291.522 378.057 295.886 374.839 299.103C371.621 302.321 367.257 304.129 362.707 304.129Z" fill="#FFCECB"/>
<path opacity="0.4" d="M307.516 565.621L343.602 588.663H368.621L402.263 565.621V556.12H307.516V565.621Z" fill="#585757"/>
</g>
<path d="M622.417 743.19C625.146 745.3 630.439 744.6 632.891 743.31C635.13 741.903 636.656 740.204 637.317 738.38C639.475 734.31 641.651 730.05 640.046 725.9C639.655 724.646 638.641 723.475 637.114 722.51C636.337 722.036 635.343 721.681 634.233 721.481C633.123 721.281 631.935 721.243 630.789 721.37C628.115 721.75 626.455 723.17 625.257 724.52C621.729 728.503 619.877 732.861 619.835 737.28C619.591 739.345 620.49 741.403 622.417 743.19Z" fill="#28BB46"/>
<g opacity="0.2">
<path opacity="0.2" d="M622.417 743.19C625.146 745.3 630.439 744.6 632.891 743.31C635.13 741.903 636.656 740.204 637.317 738.38C639.475 734.31 641.651 730.05 640.046 725.9C639.655 724.646 638.641 723.475 637.114 722.51C636.337 722.036 635.343 721.681 634.233 721.481C633.123 721.281 631.935 721.243 630.789 721.37C628.115 721.75 626.455 723.17 625.257 724.52C621.729 728.503 619.877 732.861 619.835 737.28C619.591 739.345 620.49 741.403 622.417 743.19Z" fill="black"/>
</g>
<path d="M632.616 753.87C637.171 752.692 642.306 752.341 647.258 752.87C649.969 752.992 652.524 753.609 654.505 754.62C656.349 755.7 656.644 757.62 654.505 758.53C653.165 759.025 651.545 759.248 649.932 759.16C646.059 759.16 641.781 758.77 638.683 760.03C636.839 760.75 635.732 761.95 633.63 762.3C632.569 762.438 631.453 762.383 630.454 762.145C629.455 761.906 628.628 761.497 628.098 760.98C627.096 759.927 626.879 758.707 627.489 757.57C627.762 756.781 628.366 756.037 629.255 755.395C630.144 754.753 631.294 754.231 632.616 753.87Z" fill="#28BB46"/>
<path d="M614.931 746.21C616.333 745.22 617.267 744.059 617.652 742.829C618.038 741.599 617.863 740.336 617.144 739.15C615.639 736.782 612.967 734.683 609.417 733.08C605.384 731.136 600.693 729.635 595.605 728.66C593.633 728.23 591.513 728.035 589.39 728.09C588.33 728.124 587.301 728.298 586.391 728.596C585.482 728.893 584.72 729.307 584.172 729.8C582.733 731.3 584.171 733.13 585.628 734.61C588.287 737.235 591.32 739.743 594.701 742.11C597.412 744.01 600.529 745.89 604.678 746.74C608.827 747.59 613.124 747.5 615.337 745.94" fill="#28BB46"/>
<path d="M622.234 775C622.382 774.673 622.463 774.337 622.474 774C622.603 773.3 622.75 772.43 622.953 771.39C623.189 770.101 623.546 768.819 624.023 767.55C624.666 766.006 625.529 764.491 626.604 763.02C627.658 761.551 629.093 760.17 630.864 758.92C632.308 757.902 634.155 757.071 636.268 756.49C637.696 756.106 639.227 755.847 640.804 755.72C641.394 755.704 641.98 755.661 642.556 755.59C641.944 755.546 641.324 755.546 640.712 755.59C639.071 755.658 637.466 755.885 635.972 756.26C633.756 756.828 631.812 757.667 630.293 758.71C628.446 759.978 626.954 761.386 625.867 762.89C624.776 764.381 623.925 765.92 623.322 767.49C622.859 768.775 622.545 770.074 622.381 771.38C622.216 772.49 622.16 773.38 622.142 774.01C622.094 774.341 622.125 774.674 622.234 775Z" fill="#28BB46"/>
<path d="M622.564 773C622.591 772.85 622.591 772.7 622.564 772.55V771.28C622.564 770.18 622.564 768.58 622.674 766.61C622.859 762.66 623.467 757.22 624.684 751.23C625.901 745.24 627.524 739.86 629 735.99C629.332 734.99 629.682 734.15 630.014 733.39C630.346 732.63 630.604 731.96 630.862 731.39L631.415 730.15C631.488 730.006 631.538 729.859 631.563 729.71C631.427 729.841 631.327 729.983 631.268 730.13L630.585 731.35C630.29 731.88 629.977 732.53 629.627 733.3C629.276 734.07 628.87 734.93 628.483 735.89C626.476 740.929 624.967 746.023 623.965 751.15C622.748 757.15 622.121 762.61 622.121 766.56C622.121 768.56 622.121 770.14 622.25 771.24C622.25 771.76 622.342 772.18 622.379 772.52C622.398 772.684 622.46 772.846 622.564 773Z" fill="#28BB46"/>
<path d="M622.602 762.46C622.675 762.017 622.675 761.572 622.602 761.13C622.51 760.28 622.289 759.05 621.846 757.53C621.304 755.763 620.583 754.014 619.689 752.29C618.608 750.17 617.252 748.095 615.632 746.08C612.823 742.384 608.799 738.996 603.756 736.08C602.886 735.58 601.955 735.113 600.971 734.68C600.547 734.48 600.16 734.28 599.773 734.13L598.685 733.72C598.04 733.447 597.349 733.209 596.619 733.01C599.008 734.016 601.269 735.108 603.387 736.28C608.27 739.231 612.187 742.613 614.968 746.28C616.569 748.28 617.93 750.334 619.043 752.43C620.094 754.36 620.795 756.13 621.33 757.62C621.865 759.11 622.141 760.34 622.307 761.19C622.358 761.616 622.457 762.04 622.602 762.46Z" fill="#28BB46"/>
<path d="M58.9371 668.1C59.2844 668.045 59.6448 668.018 60.0066 668.02C61.0788 668.008 62.1407 668.135 63.1047 668.39C64.6822 668.801 66.0593 669.407 67.1248 670.16C68.5574 671.201 69.7007 672.349 70.5179 673.57C72.4542 676.33 73.3763 679.92 74.4459 684.1C75.7037 688.881 76.51 693.694 76.8616 698.52C77.3042 699.33 78.3 700.29 79.9412 700.36C80.779 700.342 81.5904 700.196 82.2832 699.94C83.0577 699.7 83.8138 699.43 84.5699 699.15C86.1075 698.557 87.7153 698.019 89.383 697.54C91.1256 696.97 93.2067 696.788 95.1918 697.03C96.1658 697.24 97.0462 697.56 97.7743 697.968C98.5025 698.377 99.0617 698.865 99.4148 699.4C100.059 700.496 100.173 701.663 99.7467 702.79C99.046 705.07 96.9437 707.15 95.3209 709.33C93.6981 711.51 91.8172 713.75 90.0284 716.03L87.2807 719.5C86.8197 720.08 86.3587 720.67 85.8792 721.26C85.63 721.532 85.4501 721.822 85.3444 722.12C85.2346 722.397 85.2795 722.686 85.4735 722.95C85.8239 723.44 87.0963 723.34 88.129 723.06L91.4483 722.26C93.7061 721.699 96.0211 721.208 98.3821 720.79C100.805 720.339 103.345 720.1 105.906 720.08C107.245 720.084 108.563 720.255 109.76 720.58C110.996 720.922 111.979 721.483 112.545 722.17C113.497 723.547 113.627 725.051 112.914 726.47C112.332 727.881 111.499 729.257 110.424 730.58C108.227 733.273 105.63 735.865 102.66 738.33C101.876 738.917 101.197 739.543 100.632 740.2C100.518 740.344 100.459 740.499 100.459 740.655C100.459 740.811 100.518 740.966 100.632 741.11C100.688 741.179 100.762 741.243 100.853 741.3C100.853 741.35 101.111 741.47 101.093 741.43C101.309 741.467 101.541 741.467 101.757 741.43C104.279 740.827 106.714 740.122 109.041 739.32C111.484 738.525 114.058 737.855 116.731 737.32C118.114 737.038 119.57 736.876 121.046 736.84C121.827 736.806 122.612 736.865 123.348 737.012C124.083 737.158 124.751 737.39 125.306 737.69C126.353 738.325 126.931 739.148 126.929 740C126.967 740.81 126.818 741.62 126.486 742.41C125.813 743.977 124.798 745.494 123.462 746.93C120.775 749.829 117.463 752.544 113.596 755.02C109.724 757.557 105.514 759.937 101.001 762.14C98.7172 763.228 96.3288 764.249 93.8457 765.2L86.4693 768.3L86.248 768.39L86.0083 768.34L77.3595 766.53C74.4648 765.976 71.627 765.339 68.8582 764.62C63.3661 763.212 58.0717 761.588 53.0175 759.76C48.0001 757.989 43.3883 755.901 39.2791 753.54C37.2258 752.378 35.4479 751.081 33.9865 749.68C33.2385 748.977 32.662 748.224 32.2715 747.44C31.8176 746.626 31.9359 745.75 32.6035 744.98C32.9852 744.603 33.5121 744.274 34.1485 744.017C34.7849 743.76 35.5158 743.58 36.2916 743.49C37.727 743.301 39.2065 743.23 40.6806 743.28C43.5334 743.39 46.361 743.645 49.1265 744.04C51.7807 744.443 54.4868 744.737 57.222 744.92C57.4431 744.93 57.6652 744.909 57.8675 744.86C57.8675 744.86 57.9966 744.74 58.0335 744.69C58.0874 744.62 58.1246 744.546 58.1441 744.47C58.1758 744.317 58.1496 744.161 58.0672 744.013C57.9848 743.865 57.8478 743.728 57.6646 743.61C56.7795 743.062 55.7906 742.566 54.7141 742.13C50.5748 740.225 46.7209 738.145 43.1885 735.91C41.4541 734.81 39.9224 733.621 38.6152 732.36C37.2074 731.106 36.5623 729.644 36.7711 728.18C36.9348 727.417 37.5875 726.709 38.6152 726.18C39.6033 725.688 40.7815 725.323 42.0636 725.11C44.5263 724.73 47.0845 724.565 49.6428 724.62C52.1108 724.651 54.5735 724.758 57.0192 724.94L60.7074 725.2C61.8323 725.3 63.1047 725.2 63.1785 724.67C63.2085 724.39 63.1003 724.11 62.865 723.86C62.5913 723.592 62.2568 723.343 61.8692 723.12C61.1192 722.62 60.3631 722.13 59.6009 721.65L55.1382 718.75L46.5263 713.16C43.7971 711.33 40.6806 709.66 38.818 707.58C37.8087 706.571 37.3003 705.437 37.3428 704.29C37.3964 703.722 37.6725 703.167 38.1526 702.662C38.6328 702.157 39.306 701.713 40.1273 701.36C41.8964 700.845 43.9611 700.717 45.8993 701C47.7742 701.195 49.6225 701.459 51.4316 701.79C52.2983 701.94 53.1651 702.08 54.0318 702.19C54.8382 702.319 55.6965 702.319 56.5029 702.19C58.0334 701.88 58.476 700.8 58.476 699.95C56.2603 695.282 54.4877 690.556 53.1651 685.79C51.8831 682.273 51.2652 678.695 51.321 675.11C51.4164 673.816 51.8766 672.538 52.6856 671.32C53.2678 670.428 54.2205 669.62 55.4702 668.96C56.242 668.558 57.1767 668.26 58.1994 668.09C58.5466 668.033 58.9065 668.003 59.269 668C57.8734 668.11 56.5802 668.461 55.5808 669C54.3723 669.659 53.4578 670.46 52.9069 671.34C52.1399 672.552 51.7111 673.819 51.6345 675.1C51.6329 678.67 52.2939 682.232 53.6076 685.73C54.93 690.532 56.7027 695.295 58.9186 700C58.9276 700.49 58.7778 700.978 58.476 701.44C58.3311 701.687 58.092 701.914 57.7742 702.107C57.4565 702.3 57.0672 702.454 56.6319 702.56C55.7119 702.71 54.7305 702.71 53.8105 702.56C52.9069 702.44 51.9664 702.3 51.155 702.15C49.3897 701.836 47.5916 701.579 45.7703 701.38C43.9654 701.133 42.0551 701.265 40.4224 701.75C39.6885 702.073 39.0877 702.475 38.6589 702.932C38.2301 703.388 37.9827 703.888 37.9329 704.4C37.9074 705.485 38.3963 706.556 39.3528 707.51C41.1969 709.51 44.2397 711.15 46.9873 712.99L55.6361 718.58L60.1173 721.47L62.3855 722.93C62.8664 723.17 63.2482 723.462 63.5056 723.788C63.7631 724.114 63.8904 724.466 63.8792 724.82C63.8367 725.024 63.6794 725.216 63.4286 725.37C63.1779 725.524 62.8459 725.632 62.4777 725.68C61.8333 725.754 61.1674 725.754 60.523 725.68L56.8348 725.43C54.388 725.255 51.9257 725.152 49.4584 725.12C46.9681 725.065 44.4775 725.227 42.0821 725.6C40.908 725.747 39.839 726.078 39.0067 726.55C38.1745 727.023 37.6153 727.617 37.3981 728.26C37.2478 729.626 37.8929 730.983 39.2422 732.14C40.5275 733.377 42.0347 734.543 43.7418 735.62C47.244 737.832 51.0673 739.889 55.1751 741.77C56.3027 742.228 57.3353 742.751 58.2547 743.33C58.512 743.5 58.7034 743.697 58.8174 743.908C58.9315 744.12 58.9659 744.341 58.9186 744.56C58.8829 744.669 58.8273 744.777 58.7526 744.88C58.6839 745 58.5638 745.11 58.4023 745.2C58.2264 745.283 58.0211 745.345 57.799 745.383C57.577 745.421 57.3429 745.433 57.1114 745.42C54.2924 745.249 51.5044 744.951 48.7761 744.53C46.0689 744.149 43.3039 743.902 40.5146 743.79C39.1331 743.745 37.7469 743.812 36.4023 743.99C35.7652 744.066 35.1649 744.213 34.6405 744.424C34.1161 744.634 33.6796 744.902 33.3595 745.21C32.8055 745.877 32.7203 746.631 33.1198 747.33C33.483 748.068 34.0224 748.778 34.7242 749.44C36.1564 750.803 37.8904 752.065 39.8876 753.2C43.9513 755.529 48.5069 757.59 53.4601 759.34C58.4865 761.146 63.7431 762.757 69.1902 764.16C71.9424 764.873 74.7616 765.507 77.6361 766.06L86.2665 767.86H85.8054H85.8976L93.1633 764.77C95.6202 763.785 97.9837 762.734 100.245 761.62C104.717 759.431 108.89 757.068 112.729 754.55C116.556 752.103 119.831 749.418 122.484 746.55C123.792 745.15 124.783 743.669 125.435 742.14C125.758 741.397 125.901 740.633 125.859 739.87C125.871 739.135 125.386 738.424 124.494 737.87C124.028 737.622 123.469 737.432 122.855 737.311C122.241 737.19 121.586 737.142 120.935 737.17C119.555 737.211 118.194 737.362 116.897 737.62C114.282 738.161 111.763 738.83 109.373 739.62C106.98 740.443 104.47 741.162 101.867 741.77C101.429 741.865 100.941 741.865 100.503 741.77C100.31 741.704 100.141 741.619 100.005 741.52C99.8724 741.433 99.7665 741.335 99.6914 741.23C99.5272 741.03 99.4423 740.814 99.4423 740.595C99.4423 740.376 99.5272 740.16 99.6914 739.96C100.265 739.254 100.976 738.584 101.812 737.96C104.752 735.518 107.329 732.953 109.52 730.29C110.571 729.002 111.392 727.663 111.973 726.29C112.647 724.973 112.544 723.574 111.678 722.29C111.132 721.705 110.282 721.221 109.233 720.895C108.185 720.57 106.983 720.419 105.777 720.46C103.31 720.476 100.863 720.706 98.5296 721.14C96.202 721.551 93.918 722.032 91.6881 722.58L88.3503 723.39C87.7737 723.542 87.1467 723.631 86.5062 723.65C86.1217 723.667 85.737 723.618 85.4062 723.511C85.0753 723.403 84.8151 723.242 84.6621 723.05C84.4744 722.719 84.4152 722.37 84.4882 722.026C84.5612 721.682 84.7648 721.349 85.0862 721.05C85.5473 720.46 86.0083 719.88 86.4878 719.29L89.2354 715.83L94.5649 709.13C96.2245 706.93 98.253 704.89 98.9722 702.69C99.3917 701.628 99.2964 700.526 98.6956 699.49C98.3861 699.012 97.8991 698.574 97.2647 698.203C96.6303 697.831 95.862 697.534 95.0074 697.33C93.1829 697.119 91.2786 697.29 89.678 697.81C88.0409 698.284 86.4582 698.812 84.9387 699.39C84.1642 699.67 83.4081 699.94 82.6152 700.19C81.8186 700.48 80.8822 700.637 79.9228 700.64C79.4406 700.616 78.9742 700.534 78.5568 700.401C78.1393 700.268 77.7809 700.087 77.507 699.87C76.9595 699.478 76.5529 699.034 76.3084 698.56C76.0318 693.17 74.9806 688.35 74.0217 684.17C73.0628 679.99 72.1776 676.41 70.3335 673.67C69.5517 672.459 68.4457 671.317 67.051 670.28C66.0129 669.534 64.6762 668.925 63.1416 668.5C61.8563 668.124 60.3814 667.984 58.9371 668.1Z" fill="#28BB46"/>
<path d="M87.6494 775.2C85.0677 765.98 79.0929 744.49 75.4416 730.39C71.7903 716.29 68.4894 703.53 65.9998 694.3C64.7459 689.7 63.7316 685.97 63.0124 683.37C62.6805 682.09 62.4039 681.09 62.2195 680.37L62.0166 679.6C62.0166 679.42 62.0166 679.33 62.0166 679.33C62.0166 679.33 62.0166 679.42 62.0166 679.59C62.0166 679.76 62.1641 680.03 62.2748 680.36C62.4776 681.05 62.7727 682.05 63.1599 683.36C63.9529 685.93 65.004 689.66 66.3133 694.27C68.8951 703.5 72.2697 716.27 75.921 730.35C79.5723 744.43 85.4734 765.94 87.9629 775.17" fill="#28BB46"/>
<path d="M50.2334 705.54C50.5653 705.632 50.8749 705.747 51.1554 705.88C51.7456 706.12 52.557 706.47 53.5712 706.88C55.5628 707.76 58.2736 709.03 61.2057 710.46L68.7112 714.13L70.9794 715.23C71.2802 715.356 71.5525 715.5 71.7908 715.66C71.4595 715.562 71.1448 715.448 70.8503 715.32C70.2786 715.08 69.4488 714.73 68.453 714.32C66.4798 713.42 63.7875 712.14 60.8554 710.71L53.2761 707.07L51.0264 706C50.7297 705.864 50.4636 705.71 50.2334 705.54Z" fill="#28BB46"/>
<path d="M73.1172 715.38C73.0066 715.33 77.5615 712.19 83.2966 708.38C89.0317 704.57 93.7894 701.49 93.9001 701.54C94.0107 701.59 89.4558 704.74 83.7207 708.54C77.9856 712.34 73.2279 715.43 73.1172 715.38Z" fill="#28BB46"/>
<path d="M76.917 737.16C77.1917 737.016 77.4947 736.889 77.8206 736.78L80.3839 735.78C82.5415 734.96 85.5289 733.83 88.7376 732.51C91.9463 731.19 94.7862 729.96 96.8332 729.06L99.2489 727.99C99.5339 727.851 99.8426 727.727 100.171 727.62C100.171 727.62 99.9128 727.8 99.378 728.07C98.8432 728.34 98.0687 728.74 97.0729 729.21C95.0813 730.16 92.2783 731.43 89.0511 732.74C85.8239 734.05 82.8181 735.17 80.5867 735.94C79.4803 736.33 78.5767 736.63 77.9312 736.84C77.6219 736.972 77.2806 737.079 76.917 737.16Z" fill="#28BB46"/>
<path d="M52.5928 730.74C52.9451 730.779 53.2862 730.842 53.607 730.93L56.2441 731.56C58.4754 732.1 61.5366 732.86 64.8929 733.72C68.2491 734.58 71.2918 735.38 73.4679 735.97C74.5743 736.26 75.441 736.5 76.0496 736.68C76.377 736.757 76.6866 736.854 76.9716 736.97C76.6183 736.934 76.2766 736.87 75.9574 736.78L73.3203 736.15C71.089 735.61 68.0278 734.84 64.6716 733.98C61.3153 733.12 58.2726 732.33 56.0781 731.74C54.9901 731.45 54.1234 731.2 53.5148 731.03C53.1889 730.952 52.8797 730.855 52.5928 730.74Z" fill="#28BB46"/>
<path d="M51.4316 750.2C51.8723 750.261 52.299 750.348 52.7041 750.46L56.0972 751.25C58.9555 751.94 62.8834 752.9 67.1617 753.98C71.44 755.06 75.4048 756.06 78.2263 756.79L81.5456 757.67C81.9665 757.768 82.3681 757.889 82.7443 758.03C82.3015 757.973 81.8739 757.886 81.4719 757.77L78.0603 756.97C75.202 756.29 71.274 755.33 66.9958 754.24C62.7175 753.15 58.7527 752.17 55.9312 751.44L52.6119 750.56C52.1979 750.461 51.8026 750.341 51.4316 750.2Z" fill="#28BB46"/>
<path d="M82.1533 757.73C82.4947 757.543 82.8718 757.375 83.2782 757.23L86.4685 755.94C89.1424 754.85 92.8306 753.34 96.8138 751.62C100.797 749.9 104.356 748.28 106.901 747.11L109.925 745.72C110.272 745.538 110.656 745.377 111.069 745.24C110.766 745.445 110.426 745.633 110.054 745.8C109.391 746.16 108.395 746.66 107.141 747.26C104.651 748.48 101.147 750.12 97.1458 751.84C93.1441 753.56 89.419 755.06 86.6713 756.1C85.3067 756.63 84.1818 757.04 83.4073 757.32C83.0094 757.474 82.5902 757.611 82.1533 757.73Z" fill="#28BB46"/>
<path d="M500.612 181.165C500.952 172.014 493.81 164.32 484.659 163.98C475.509 163.64 467.815 170.782 467.475 179.932C467.134 189.083 474.276 196.777 483.427 197.117C492.577 197.458 500.271 190.315 500.612 181.165Z" fill="#F9BE00"/>
<path d="M489.41 174.17C489.42 173.633 489.589 173.112 489.896 172.671C490.203 172.231 490.634 171.892 491.134 171.696C491.634 171.501 492.181 171.459 492.705 171.575C493.229 171.691 493.707 171.96 494.078 172.348C494.449 172.735 494.696 173.225 494.789 173.754C494.881 174.282 494.815 174.827 494.598 175.317C494.38 175.808 494.022 176.224 493.569 176.511C493.115 176.798 492.586 176.944 492.05 176.93C491.695 176.922 491.346 176.844 491.021 176.702C490.696 176.559 490.403 176.353 490.158 176.097C489.913 175.841 489.721 175.538 489.592 175.208C489.464 174.877 489.402 174.524 489.41 174.17Z" fill="#F7F8FA"/>
<path d="M494.82 180.5C494.826 180.187 494.924 179.883 495.103 179.627C495.282 179.37 495.534 179.172 495.825 179.059C496.117 178.945 496.435 178.92 496.741 178.988C497.046 179.056 497.325 179.212 497.541 179.439C497.757 179.665 497.902 179.95 497.956 180.258C498.01 180.566 497.971 180.884 497.844 181.17C497.718 181.456 497.509 181.698 497.245 181.865C496.98 182.033 496.672 182.118 496.36 182.11C495.942 182.1 495.546 181.924 495.258 181.623C494.969 181.321 494.812 180.918 494.82 180.5Z" fill="#F7F8FA"/>
<path d="M492.71 185.33C492.864 185.33 493.011 185.391 493.12 185.5C493.229 185.609 493.29 185.756 493.29 185.91C493.29 186.064 493.229 186.211 493.12 186.32C493.011 186.429 492.864 186.49 492.71 186.49C492.634 186.489 492.559 186.472 492.49 186.442C492.421 186.411 492.358 186.367 492.306 186.313C492.254 186.258 492.213 186.193 492.186 186.122C492.16 186.051 492.147 185.976 492.15 185.9C492.152 185.751 492.212 185.609 492.316 185.503C492.42 185.397 492.561 185.335 492.71 185.33Z" fill="#F7F8FA"/>
<path d="M451.21 254.64L451.78 255.64C452.416 256.806 453.374 257.764 454.54 258.4L455.54 258.97L454.54 259.54C453.372 260.173 452.413 261.132 451.78 262.3L451.21 263.3L450.64 262.3C450.01 261.13 449.05 260.17 447.88 259.54L446.88 258.97L447.88 258.4C449.048 257.767 450.007 256.808 450.64 255.64L451.21 254.64Z" fill="#F9BE00"/>
<path d="M227.83 167.84L228.83 169.64C229.932 171.65 231.588 173.301 233.6 174.4L235.39 175.4L233.6 176.4C231.586 177.501 229.931 179.156 228.83 181.17L227.83 182.96L226.83 181.17C225.731 179.158 224.079 177.503 222.07 176.4L220.27 175.4L222.07 174.4C224.078 173.3 225.73 171.648 226.83 169.64L227.83 167.84Z" fill="#F9BE00"/>
<path d="M163.89 108.73L164.26 109.39C164.661 110.142 165.273 110.76 166.02 111.17L166.68 111.53L166.02 111.89C165.276 112.294 164.665 112.905 164.26 113.65L163.89 114.31L163.53 113.65C163.126 112.905 162.515 112.294 161.77 111.89L161.15 111.51L161.81 111.15C162.555 110.746 163.166 110.135 163.57 109.39L163.89 108.73Z" fill="#F9BE00"/>
<path d="M264.28 389.99L264.46 390.32C264.665 390.69 264.97 390.995 265.34 391.2L265.67 391.38L265.34 391.56C264.972 391.768 264.667 392.072 264.46 392.44L264.28 392.77L264.1 392.44C263.894 392.07 263.59 391.765 263.22 391.56L262.89 391.38L263.22 391.2C263.592 390.998 263.898 390.692 264.1 390.32L264.28 389.99Z" fill="#F9BE00"/>
<path d="M228.01 269.41L228.19 269.74C228.395 270.11 228.7 270.415 229.07 270.62L229.4 270.8L229.07 270.98C228.7 271.185 228.395 271.49 228.19 271.86L228.01 272.19L227.83 271.86C227.628 271.488 227.322 271.182 226.95 270.98L226.62 270.8L226.95 270.62C227.322 270.418 227.628 270.112 227.83 269.74L228.01 269.41Z" fill="#F9BE00"/>
<path d="M520.79 235.68L520.97 236.01C521.172 236.382 521.478 236.688 521.85 236.89L522.18 237.07L521.85 237.25C521.478 237.452 521.172 237.758 520.97 238.13L520.79 238.46L520.61 238.13C520.408 237.758 520.103 237.452 519.73 237.25L519.4 237.07L519.73 236.89C520.103 236.688 520.408 236.382 520.61 236.01L520.79 235.68Z" fill="#F9BE00"/>
<path d="M139.82 234.17L140.19 234.83C140.594 235.574 141.205 236.186 141.95 236.59L142.61 236.95L141.95 237.31C141.186 237.716 140.56 238.339 140.15 239.1L139.78 239.76L139.42 239.1C139.016 238.355 138.405 237.744 137.66 237.34L137 236.98L137.66 236.62C138.405 236.216 139.016 235.604 139.42 234.86L139.82 234.17Z" fill="#F9BE00"/>
<path d="M414.48 381.17L414.85 381.83C415.253 382.572 415.861 383.182 416.6 383.59L417.27 383.95L416.6 384.31C415.861 384.717 415.253 385.328 414.85 386.07L414.48 386.73L414.12 386.07C413.713 385.328 413.102 384.717 412.36 384.31L411.7 383.95L412.36 383.59C413.102 383.183 413.713 382.572 414.12 381.83L414.48 381.17Z" fill="#F9BE00"/>
<path d="M435.69 102L436.69 103.79C437.788 105.802 439.44 107.457 441.45 108.56L443.24 109.56L441.45 110.56C439.442 111.66 437.79 113.312 436.69 115.32L435.69 117.11L434.69 115.32C433.587 113.31 431.932 111.658 429.92 110.56L428.13 109.56L429.92 108.56C431.933 107.459 433.589 105.803 434.69 103.79L435.69 102Z" fill="#F9BE00"/>
<path d="M196.35 318.9C192.43 317.841 188.886 315.702 186.122 312.726C183.358 309.751 181.486 306.059 180.717 302.072C179.949 298.084 180.317 293.961 181.777 290.172C183.238 286.383 185.734 283.08 188.98 280.64C186.155 281.836 183.615 283.617 181.53 285.867C179.445 288.118 177.861 290.785 176.883 293.693C175.906 296.601 175.557 299.683 175.86 302.736C176.163 305.789 177.11 308.743 178.64 311.402C180.17 314.062 182.247 316.366 184.733 318.163C187.22 319.959 190.06 321.208 193.065 321.825C196.07 322.442 199.172 322.414 202.166 321.742C205.16 321.071 207.976 319.772 210.43 317.93C205.978 319.822 201.02 320.163 196.35 318.9Z" fill="#F9BE00"/>
<path d="M503.15 374.605H627.41C627.41 374.605 616.41 354.605 584.41 357.525C553.86 360.305 552.31 347.685 536.78 346.135C521.25 344.585 508.33 356.525 503.15 374.605Z" fill="white"/>
<path d="M168 400.285H247.39C247.39 400.285 240.39 387.495 219.92 389.355C200.39 391.135 199.4 383.075 189.47 382.075C179.54 381.075 171.26 388.695 168 400.285Z" fill="white"/>
<path d="M136.128 87H158.64V79.8H144.72V51.24H136.128V87ZM173.082 69.144C173.994 65.592 174.954 61.416 175.818 57.672H176.01C176.97 61.32 177.882 65.592 178.842 69.144L179.61 72.168H172.314L173.082 69.144ZM159.882 87H168.618L170.682 78.792H181.242L183.306 87H192.33L181.242 51.24H170.97L159.882 87ZM209.776 87.672C219.28 87.672 224.08 82.248 224.08 70.2V51.24H215.824V71.112C215.824 77.88 213.664 80.28 209.776 80.28C205.84 80.28 203.824 77.88 203.824 71.112V51.24H195.28V70.2C195.28 82.248 200.224 87.672 209.776 87.672ZM232.081 87H240.241V75.144C240.241 70.824 239.521 65.928 239.137 61.944H239.377L242.881 69.768L251.713 87H260.449V51.24H252.289V63.096C252.289 67.368 253.009 72.504 253.441 76.296H253.201L249.697 68.376L240.817 51.24H232.081V87ZM283.857 87.672C288.513 87.672 292.497 85.896 295.521 82.392L291.009 77.016C289.329 78.84 287.073 80.28 284.193 80.28C279.153 80.28 275.889 76.152 275.889 69.048C275.889 62.088 279.681 57.96 284.289 57.96C286.833 57.96 288.705 59.112 290.529 60.744L294.993 55.272C292.545 52.776 288.801 50.616 284.145 50.616C275.073 50.616 267.105 57.432 267.105 69.336C267.105 81.432 274.785 87.672 283.857 87.672ZM300.753 87H309.345V72.312H321.105V87H329.649V51.24H321.105V64.872H309.345V51.24H300.753V87ZM337.925 87H346.517V51.24H337.925V87ZM354.706 87H362.866V75.144C362.866 70.824 362.146 65.928 361.762 61.944H362.002L365.506 69.768L374.338 87H383.074V51.24H374.914V63.096C374.914 67.368 375.634 72.504 376.066 76.296H375.826L372.322 68.376L363.442 51.24H354.706V87ZM407.442 87.672C412.434 87.672 416.85 85.704 419.346 83.304V66.6H406.05V73.608H411.714V79.368C410.946 79.944 409.602 80.28 408.354 80.28C401.682 80.28 398.514 76.152 398.514 69.048C398.514 62.088 402.306 57.96 407.586 57.96C410.562 57.96 412.434 59.16 414.21 60.744L418.722 55.272C416.274 52.824 412.53 50.616 407.298 50.616C397.746 50.616 389.73 57.432 389.73 69.336C389.73 81.432 397.554 87.672 407.442 87.672ZM448.622 87.672C457.262 87.672 462.254 82.44 462.254 76.488C462.254 71.448 459.614 68.472 455.198 66.696L450.734 64.92C447.566 63.672 445.358 62.904 445.358 60.888C445.358 59.016 446.942 57.96 449.582 57.96C452.366 57.96 454.574 58.92 456.926 60.696L461.198 55.32C458.078 52.2 453.71 50.616 449.582 50.616C441.998 50.616 436.622 55.416 436.622 61.416C436.622 66.6 440.126 69.72 443.87 71.208L448.43 73.128C451.502 74.424 453.47 75.096 453.47 77.16C453.47 79.08 451.982 80.28 448.814 80.28C445.982 80.28 442.67 78.792 440.174 76.632L435.278 82.536C438.974 85.944 443.966 87.672 448.622 87.672ZM482.927 87.672C492.671 87.672 499.295 80.664 499.295 68.952C499.295 57.288 492.671 50.616 482.927 50.616C473.183 50.616 466.559 57.24 466.559 68.952C466.559 80.664 473.183 87.672 482.927 87.672ZM482.927 80.28C478.223 80.28 475.343 75.864 475.343 68.952C475.343 62.04 478.223 57.96 482.927 57.96C487.631 57.96 490.559 62.04 490.559 68.952C490.559 75.864 487.631 80.28 482.927 80.28ZM520.661 87.672C530.405 87.672 537.029 80.664 537.029 68.952C537.029 57.288 530.405 50.616 520.661 50.616C510.917 50.616 504.293 57.24 504.293 68.952C504.293 80.664 510.917 87.672 520.661 87.672ZM520.661 80.28C515.957 80.28 513.077 75.864 513.077 68.952C513.077 62.04 515.957 57.96 520.661 57.96C525.365 57.96 528.293 62.04 528.293 68.952C528.293 75.864 525.365 80.28 520.661 80.28ZM543.659 87H551.819V75.144C551.819 70.824 551.099 65.928 550.715 61.944H550.955L554.459 69.768L563.291 87H572.027V51.24H563.867V63.096C563.867 67.368 564.587 72.504 565.019 76.296H564.779L561.275 68.376L552.395 51.24H543.659V87Z" fill="#28BB46"/>
<path d="M313.844 21H317.764L320.48 9.548C320.816 7.924 321.152 6.384 321.46 4.816H321.572C321.852 6.384 322.16 7.924 322.524 9.548L325.296 21H329.3L333.36 0.363999H330.252L328.292 11.116C327.956 13.272 327.592 15.484 327.256 17.724H327.116C326.64 15.484 326.192 13.272 325.716 11.116L323.056 0.363999H320.172L317.512 11.116C317.036 13.3 316.56 15.512 316.112 17.724H316C315.636 15.512 315.272 13.3 314.908 11.116L312.976 0.363999H309.644L313.844 21ZM342.868 21.364C344.884 21.364 346.648 20.692 348.076 19.74L346.956 17.696C345.836 18.424 344.66 18.844 343.288 18.844C340.628 18.844 338.78 17.08 338.528 14.14H348.524C348.608 13.748 348.692 13.132 348.692 12.488C348.692 8.148 346.48 5.208 342.392 5.208C338.808 5.208 335.364 8.316 335.364 13.3C335.364 18.396 338.696 21.364 342.868 21.364ZM338.5 11.9C338.808 9.212 340.516 7.728 342.448 7.728C344.688 7.728 345.892 9.268 345.892 11.9H338.5ZM362.217 21.364C364.065 21.364 365.717 20.44 367.117 19.236H367.229L367.481 21H370.113V11.732C370.113 7.644 368.349 5.208 364.513 5.208C362.049 5.208 359.893 6.216 358.297 7.224L359.501 9.408C360.817 8.568 362.329 7.84 363.953 7.84C366.221 7.84 366.865 9.408 366.893 11.2C360.481 11.9 357.681 13.608 357.681 16.912C357.681 19.628 359.557 21.364 362.217 21.364ZM363.197 18.816C361.825 18.816 360.789 18.2 360.789 16.688C360.789 14.952 362.329 13.776 366.893 13.244V17.024C365.633 18.172 364.541 18.816 363.197 18.816ZM374.682 21H377.902V11.396C378.854 8.96 380.366 8.092 381.626 8.092C382.242 8.092 382.634 8.176 383.166 8.344L383.754 5.544C383.278 5.32 382.774 5.208 382.018 5.208C380.366 5.208 378.742 6.384 377.65 8.372H377.566L377.314 5.6H374.682V21ZM392.25 21.364C394.266 21.364 396.03 20.692 397.458 19.74L396.338 17.696C395.218 18.424 394.042 18.844 392.67 18.844C390.01 18.844 388.162 17.08 387.91 14.14H397.906C397.99 13.748 398.074 13.132 398.074 12.488C398.074 8.148 395.862 5.208 391.774 5.208C388.19 5.208 384.746 8.316 384.746 13.3C384.746 18.396 388.078 21.364 392.25 21.364ZM387.882 11.9C388.19 9.212 389.898 7.728 391.83 7.728C394.07 7.728 395.274 9.268 395.274 11.9H387.882Z" fill="#2E2C2C"/>
<defs>
<filter id="filter0_d_2855_18383" x="-204" y="170" width="1120" height="1120" filterUnits="userSpaceOnUse" color-interpolation-filters="sRGB">
<feFlood flood-opacity="0" result="BackgroundImageFix"/>
<feColorMatrix in="SourceAlpha" type="matrix" values="0 0 0 0 0 0 0 0 0 0 0 0 0 0 0 0 0 0 127 0" result="hardAlpha"/>
<feOffset dy="2"/>
<feGaussianBlur stdDeviation="24"/>
<feComposite in2="hardAlpha" operator="out"/>
<feColorMatrix type="matrix" values="0 0 0 0 0 0 0 0 0 0 0 0 0 0 0 0 0 0 0.15 0"/>
<feBlend mode="normal" in2="BackgroundImageFix" result="effect1_dropShadow_2855_18383"/>
<feBlend mode="normal" in="SourceGraphic" in2="effect1_dropShadow_2855_18383" result="shape"/>
</filter>
<filter id="filter1_d_2855_18383" x="-62" y="311" width="836" height="836" filterUnits="userSpaceOnUse" color-interpolation-filters="sRGB">
<feFlood flood-opacity="0" result="BackgroundImageFix"/>
<feColorMatrix in="SourceAlpha" type="matrix" values="0 0 0 0 0 0 0 0 0 0 0 0 0 0 0 0 0 0 127 0" result="hardAlpha"/>
<feOffset dy="1"/>
<feGaussianBlur stdDeviation="21"/>
<feComposite in2="hardAlpha" operator="out"/>
<feColorMatrix type="matrix" values="0 0 0 0 0 0 0 0 0 0 0 0 0 0 0 0 0 0 0.15 0"/>
<feBlend mode="normal" in2="BackgroundImageFix" result="effect1_dropShadow_2855_18383"/>
<feBlend mode="normal" in="SourceGraphic" in2="effect1_dropShadow_2855_18383" result="shape"/>
</filter>
<filter id="filter2_d_2855_18383" x="50" y="424" width="612" height="612" filterUnits="userSpaceOnUse" color-interpolation-filters="sRGB">
<feFlood flood-opacity="0" result="BackgroundImageFix"/>
<feColorMatrix in="SourceAlpha" type="matrix" values="0 0 0 0 0 0 0 0 0 0 0 0 0 0 0 0 0 0 127 0" result="hardAlpha"/>
<feOffset dy="2"/>
<feGaussianBlur stdDeviation="21"/>
<feComposite in2="hardAlpha" operator="out"/>
<feColorMatrix type="matrix" values="0 0 0 0 0 0 0 0 0 0 0 0 0 0 0 0 0 0 0.14 0"/>
<feBlend mode="normal" in2="BackgroundImageFix" result="effect1_dropShadow_2855_18383"/>
<feBlend mode="normal" in="SourceGraphic" in2="effect1_dropShadow_2855_18383" result="shape"/>
</filter>
<filter id="filter3_d_2855_18383" x="-125" y="154.387" width="962" height="681.613" filterUnits="userSpaceOnUse" color-interpolation-filters="sRGB">
<feFlood flood-opacity="0" result="BackgroundImageFix"/>
<feColorMatrix in="SourceAlpha" type="matrix" values="0 0 0 0 0 0 0 0 0 0 0 0 0 0 0 0 0 0 127 0" result="hardAlpha"/>
<feOffset dy="2"/>
<feGaussianBlur stdDeviation="29.5"/>
<feComposite in2="hardAlpha" operator="out"/>
<feColorMatrix type="matrix" values="0 0 0 0 0 0 0 0 0 0 0 0 0 0 0 0 0 0 0.32 0"/>
<feBlend mode="normal" in2="BackgroundImageFix" result="effect1_dropShadow_2855_18383"/>
<feBlend mode="normal" in="SourceGraphic" in2="effect1_dropShadow_2855_18383" result="shape"/>
</filter>
</defs>
</svg>
