<svg width="43" height="44" viewBox="0 0 43 44" fill="none" xmlns="http://www.w3.org/2000/svg">
<path d="M26.5 17.5H37.2188C40.564 17.5 42.7398 21.0204 41.2437 24.0125L33.3687 39.7625C32.6065 41.287 31.0483 42.25 29.3438 42.25H20.3039C19.936 42.25 19.5695 42.2049 19.2125 42.1156L10.75 40M26.5 17.5V6.25C26.5 3.76472 24.4852 1.75 22 1.75H21.7851C20.6611 1.75 19.75 2.66118 19.75 3.78518C19.75 5.39237 19.2742 6.96359 18.3827 8.30085L10.75 19.75V40M26.5 17.5H22M10.75 40H6.24996C3.76468 40 1.74996 37.9853 1.74996 35.5V22C1.74996 19.5147 3.76468 17.5 6.24996 17.5H11.875" stroke="#F9BE00" stroke-width="2" stroke-linecap="round" stroke-linejoin="round"/>
</svg>
