<svg width="328" height="234" viewBox="0 0 328 234" fill="none" xmlns="http://www.w3.org/2000/svg">
<path fill-rule="evenodd" clip-rule="evenodd" d="M66.1066 64.6357C65.7853 64.4485 63.2767 65.6206 62.8556 65.7999C61.1737 66.5163 59.5895 67.7066 58.0049 68.675C59.2193 70.3716 60.4341 72.0687 61.6481 73.7657C62.8384 70.4139 64.3682 67.6482 66.1066 64.6357ZM66.9346 85.49C66.5215 85.5434 70.0098 95.1667 70.4171 96.2472C71.8995 100.177 73.4558 104.069 74.9578 107.989C76.413 111.788 78.259 115.283 80.1188 118.831C81.7095 121.866 83.3457 126.576 85.7452 128.824C84.2301 121.108 84.4297 112.236 80.084 105.757C75.5795 99.0406 71.1258 92.4819 66.9346 85.49ZM241.955 188.394C235.224 176.157 226.798 165.331 219.778 153.313C215.848 146.583 212.022 139.767 208.714 132.604C206.307 127.393 204.812 119.959 201.095 115.975C199.457 114.22 197.707 112.502 195.509 111.716C192.501 110.64 188.36 111.706 185.338 112.557C179.708 114.142 174.207 116.603 168.874 119.188C163.464 121.809 158.849 126.518 153.961 130.302C148.718 134.361 143.042 137.318 137.168 139.906C132.053 142.16 127.503 145.396 122.415 147.664C121.401 148.116 119.332 148.05 118.482 148.64C117.566 149.274 117.926 151.149 116.814 151.84C116.312 152.152 116.145 151.021 115.759 151.04C115.288 151.062 114.858 151.697 114.404 152.099C112.555 153.737 113.688 154.829 114.42 157.083C116.807 164.425 118.089 171.896 121.44 178.828C124.195 184.525 128.138 189.631 132.78 193.403C133.486 193.977 135.788 196.201 136.617 196.053C137.363 195.921 138.881 193.643 139.396 193.025C141.734 190.219 143.871 187.2 146.207 184.389C149.817 180.045 153.292 175.585 156.796 171.182C160.863 166.07 164.462 160.278 168.125 154.817C169.81 152.304 171.979 150.258 173.852 147.928C176.371 144.795 178.683 141.428 181.072 138.165C181.795 137.178 183.006 134.652 184.129 134.682C184.916 134.703 186.304 136.83 186.716 137.497C188.246 139.975 188.239 144.451 189 147.544C190.857 155.087 194.205 162.455 198.798 168.276C203.364 174.064 209.214 178.181 214.615 182.833C220.466 187.874 226.009 193.033 230.649 199.544C232.491 197.587 234.497 195.855 236.346 193.874C238.107 191.987 240.402 190.457 241.955 188.394ZM155.308 223.013C156.616 223.029 158.833 223.953 160.003 223.396C156.531 218.985 153.342 215.201 148.948 211.968C144.389 208.614 139.845 205.289 135.417 201.711C126.492 194.5 119.929 185.949 116.201 173.941C115.241 170.848 114.598 167.605 113.895 164.426C113.516 162.714 112.763 154.705 111.483 154.014C110.725 153.604 105.022 158.206 104.118 158.779C102.005 160.121 99.884 161.161 97.6995 162.211C93.004 164.468 88.1633 166.189 83.184 167.626C77.2142 169.35 73.1479 166.499 69.4497 161.112C65.2541 155.001 61.7675 148.106 57.9313 141.688C56.1868 138.769 54.7416 135.855 53.4532 132.635C52.61 130.529 49.2658 124.845 50.4214 122.601C53.7181 125.482 54.9043 131.212 57.1501 135.07C59.949 139.878 63.1033 144.412 65.9167 149.216C68.2825 153.255 70.6961 158.15 74.1913 161.054C77.2658 163.608 80.1865 162.823 83.4953 161.675C87.5055 160.284 91.6623 159.598 95.5924 157.873C99.8455 156.006 103.869 153.358 108.019 151.198C109.953 150.191 112.27 149.619 114.093 148.363C115.664 147.282 115.43 146.711 115.545 144.408C115.68 141.721 115.835 139.033 115.938 136.343C116.008 134.537 115.157 132.087 115.734 130.738C111.023 131.676 106.419 132.932 101.741 134.043C99.1798 134.651 96.7101 135.403 94.1227 135.881C93.1364 136.063 91.7882 136.058 90.9051 136.551C90.2006 136.319 89.8414 136.466 89.8277 136.994C89.794 137.28 89.7406 137.562 89.6674 137.84C88.2228 138.594 87.3827 136.976 86.1298 135.424C84.5838 133.509 83.4262 131.352 82.2919 129.101C79.7558 124.069 76.8327 119.336 74.4858 114.162C72.0939 108.887 70.1512 103.24 68.1232 97.7681C66.2628 92.7477 65.0714 87.3182 63.0156 82.4167C62.0981 80.2288 60.9353 78.4196 59.5774 76.5713C58.457 75.0461 56.7331 71.7559 55.0598 71.0553C54.6174 70.8701 53.4587 71.1813 52.9561 71.1402C51.9543 71.058 51.0616 70.6359 50.0364 70.7283C47.8168 70.9277 45.397 72.539 43.6233 73.9557C44.7695 75.1286 47.6369 76.5543 45.5773 78.6672C43.5785 80.7185 42.4746 77.0389 41.7119 75.4268C38.1203 78.8125 38.6395 83.481 38.2246 88.2648C38.0078 90.7624 37.4378 93.222 37.07 95.6821C36.8052 97.4525 36.9909 99.2838 36.9152 101.091C36.7222 105.685 36.3201 110.082 36.3397 114.611C36.3603 119.452 36.6476 124.127 36.9851 128.933C37.5531 137.024 38.8545 145.118 39.9705 153.145C40.5983 157.658 41.4577 162.041 42.2919 166.48C43.2386 171.519 44.99 176.291 45.9722 181.316C46.973 179.855 47.7257 179.848 49.3443 180.042C50.5893 180.19 51.4256 179.85 51.3527 181.834C51.3055 183.121 50.3168 184.103 49.2228 184.328C47.7962 184.621 47.3115 183.804 46.5763 182.563C46.4043 184.912 47.7804 187.368 48.3246 189.662C48.8396 191.837 49.1809 193.968 50.0464 196.049C50.891 198.079 51.6141 200.081 52.4686 202.091C52.8622 203.016 53.2303 203.956 53.6283 204.878C53.8296 205.346 54.0666 205.989 54.3669 206.383C55.0715 207.306 54.9593 206.859 55.784 207.385C57.5804 208.53 56.9058 208.245 56.9478 210.611C56.9887 212.944 58.0311 214.659 59.7027 215.97C63.2492 218.754 66.7471 219.528 70.779 220.934C74.5357 222.244 78.4926 223.369 82.4705 223.343C87.3425 223.312 92.1498 222.579 97.0218 222.504C102.397 222.423 107.823 222.456 113.187 222.669C115.397 222.757 117.449 222.87 119.582 223.518C122.059 224.27 124.456 223.972 127.009 223.858C132.456 223.614 138.091 223.131 143.467 223.087C147.338 223.056 151.422 222.746 155.308 223.013ZM296.558 225.437C297.526 226.025 299.697 225.784 300.67 225.621C302.385 225.334 302.569 224.553 303.657 222.798C305.53 219.775 307.05 216.879 308.152 213.377C310.261 206.675 311.122 199.818 312.048 192.807C313.077 185.017 311.198 176.941 310.526 169.204C310.371 167.429 310.16 165.67 309.916 163.908C309.77 162.854 309.731 159.271 309.128 158.359C307.968 156.607 302.573 158.021 300.453 158.179C294.533 158.623 288.574 158.727 282.657 158.804C279.502 158.845 276.329 158.997 273.206 159.025C271.771 159.038 270.368 158.956 268.929 158.796C268.447 158.742 267.977 158.615 267.492 158.584C265.831 158.479 265.956 158.203 265.526 159.891C264.774 162.849 265.353 166.612 265.156 169.682C264.891 173.785 264.749 177.946 264.814 182.057C264.875 185.856 264.762 189.647 264.885 193.454C264.937 195.031 265.087 196.317 265.449 197.823C265.859 199.525 266.309 203.503 267.33 204.681C267.446 204.815 268.313 204.503 268.543 204.837C268.898 205.351 268.833 206.44 269.076 206.773C269.864 207.849 271.493 207.934 272.675 208.418C275.917 209.746 278.892 211.187 281.948 212.977C284.678 214.576 289.081 215.937 290.722 219.091C291.475 220.538 291.577 222.445 292.269 223.937C293.057 225.637 291.48 224.748 293.411 225.437C294.281 225.748 295.666 225.437 296.558 225.437ZM8.69851 206.213C8.45288 210.138 6.52672 213.877 5.85623 217.736C5.54249 219.543 5.01029 221.32 4.6415 223.116C4.28785 224.84 3.01017 226.881 3.13952 228.586C7.85532 226.657 12.632 226.172 17.5608 225.652C22.2322 225.159 27.1671 224.963 31.7993 224.96C36.5196 224.958 41.5667 224.428 46.427 224.346C51.5099 224.261 56.6695 224.109 61.6787 223.504C59.0594 221.277 55.7819 219.186 53.8478 216.087C51.7452 212.719 50.6533 208.498 48.8031 204.944C45.0905 197.811 42.7302 188.96 40.7841 180.947C36.855 164.77 32.4643 148.891 31.4061 132.111C29.3922 133.295 27.7936 137.888 26.7853 140.176C25.4983 143.096 24.8244 146.262 23.9877 149.366C22.2649 155.76 21.0725 162.389 18.963 168.722C14.9311 180.827 12.3396 193.871 8.69851 206.213ZM264.687 111.928C265.559 119.163 267.388 126.492 267.458 133.814C267.473 135.425 267.236 137.214 267.528 138.803C267.84 140.499 268.856 141.998 269.443 143.609C270.374 146.168 272.731 151.412 270.458 153.58C270.411 151.522 268.772 148.91 267.946 147.111C266.701 144.401 265.065 141.922 263.715 139.279C260.89 133.746 257.724 128.332 254.084 123.455C250.538 118.704 246.451 114.49 242.69 109.966C241.56 108.606 232.497 95.5233 232.137 95.7062C234.948 108.152 239.727 118.981 246.267 129.402C249.474 134.51 253.322 137.872 257.226 142.2C260.477 145.804 266.603 149.657 265.479 155.563C270.561 155.002 275.609 154.106 280.737 154.106C279.893 146.656 279.248 139.323 277.742 131.995C276.033 123.674 274.875 115.105 273.429 106.71C271.953 98.1401 269.45 89.8434 267.893 81.2896C266.401 73.0987 265.12 64.9224 264.027 56.6402C263.123 61.2294 263.457 66.2699 263.136 70.9522C262.809 75.736 262.84 80.4318 262.949 85.2436C263.151 94.1813 263.981 103.011 264.687 111.928ZM286.706 69.3156C286.734 65.4899 287.38 61.7159 287.579 57.8993C287.641 56.7283 288.656 48.7392 287.709 48.3222C286.93 50.2724 286.748 52.7679 286.041 54.8141C285.334 56.8582 284.388 58.8057 283.71 60.864C282.24 65.3232 281.733 70.3689 281.575 75.1096C281.216 85.8328 281.031 96.532 281.659 107.255C281.928 111.851 282.135 116.456 282.061 121.061C281.98 126.128 281.304 130.527 282.125 135.552C282.938 140.529 283.448 145.486 283.719 150.535C283.909 154.08 283.985 153.829 286.931 153.58C289.057 153.399 291.204 153.592 293.334 153.48C292.338 139.667 292.175 125.825 290.585 112.065C289.774 105.045 289.752 97.9237 288.744 90.9298C288.243 87.4556 287.403 84.0513 286.92 80.5731C286.401 76.8387 286.656 73.0789 286.706 69.3156ZM71.3133 60.6227C76.9837 61.1867 83.0154 63.1329 88.8276 61.8478C87.8695 61.4023 85.3623 60.7878 86.4907 59.0296C87.638 57.2417 89.5714 59.5094 90.7156 59.2752C91.4212 59.1307 92.9803 55.7449 93.4151 55.0439C94.4021 53.4508 94.5211 53.1731 96.2959 52.7648C98.0153 52.3698 98.4051 52.7976 98.6228 50.8351C98.8729 48.5785 98.1928 46.0414 98.2602 43.7339C98.4051 38.766 99.8011 34.4095 101.1 29.7355C95.58 31.1142 90.182 32.7492 84.5373 33.6378C82.1244 34.0177 78.3705 34.8941 76.1784 33.0111C75.6084 32.5213 75.6995 31.8602 75.233 31.2927C74.4507 30.3405 72.9997 29.3556 71.8902 29.0842C65.0625 27.4157 64.3965 38.5895 67.8181 42.7706C68.675 43.8184 69.8674 44.3357 70.745 45.2958C71.9164 46.5762 72.0123 47.9249 72.1833 49.8794C72.5039 53.5444 72.0684 57.2236 70.7064 60.5761L71.3133 60.6227ZM154.168 113.374C156.184 113.813 158.288 113.713 160.308 114.087C161.026 114.221 163.179 114.685 163.81 114.203C164.774 113.467 165.117 110.769 165.573 109.512C166.374 107.302 167.508 105.374 168.273 103.123C171.396 93.9297 174.309 84.6998 178.087 75.8205C176.639 75.3885 175.527 75.3715 174.068 75.1483C172.548 74.9157 171.17 73.8838 169.719 73.4403C168.341 73.0189 166.897 73.1263 165.531 72.6362C164.779 72.3664 164.133 71.7665 163.391 71.5568C162.209 71.2231 160.829 71.028 160.126 71.919C159.405 72.8329 159.152 75.3387 158.76 76.5192C157.716 79.664 156.502 82.6991 155.627 85.9162C154.838 88.8177 154.088 91.6885 153.393 94.6165C152.659 97.7077 151.212 100.255 150.331 103.208C149.66 105.456 149.027 107.754 148.927 110.15C148.83 112.488 148.533 112.637 150.57 113.011C151.599 113.199 153.201 113.901 154.168 113.374ZM286.784 222.816C287.309 223.097 287.804 223.06 288.268 222.704C283.717 220.497 279.29 217.436 274.542 215.922C270.088 214.502 265.759 212.806 261.468 211.057C257.981 209.636 254.846 208.53 251.694 206.029C249.781 204.511 248.081 202.804 246.766 200.586C245.302 198.116 244.976 194.601 243.391 192.376C241.251 195.074 238.738 197.117 236.206 199.261C235.33 200.003 233.229 201.619 232.93 202.767C232.552 204.215 233.564 205.601 234.065 207.066C235.348 210.82 235.975 214.571 236.671 218.474C236.95 220.038 237.552 222.389 238.671 223.044C239.69 223.64 242.641 223.206 243.909 223.096C250.525 222.52 257.023 221.931 263.678 222.455C271.21 223.048 279.272 223.458 286.784 222.816ZM299.997 153.264C301.2 153.268 302.374 153.096 303.572 153.096C302.881 149.389 304.497 144.593 305.07 140.894C305.712 136.755 306.2 132.476 306.627 128.304C307.529 119.517 307.937 110.837 307.949 101.986C307.96 93.4207 309.318 85.5939 311.22 77.3604C313.263 68.5178 316.608 60.5659 319.374 52.0381C316.34 53.8793 314.661 58.1876 313.067 61.4813C311.051 65.6459 309.709 70.2571 308.886 74.9323C307.299 83.9514 305.557 92.9977 303.725 102.002C301.818 111.377 300.696 120.838 298.511 130.137C297.445 134.672 295.996 140.251 295.916 144.927C295.882 146.861 295.374 150.913 296.138 152.593C296.852 154.164 298.431 153.424 299.997 153.264ZM118.51 141.631C118.447 142.594 118.387 143.51 118.238 144.461C119.903 144.443 122.013 142.459 123.441 141.568C125.181 140.484 126.923 139.287 128.625 138.197C131.91 136.091 135.64 134.703 139.148 132.974C143.178 130.986 146.882 128.585 150.736 126.193C152.082 125.357 161.756 120.543 161.594 119.228C159.47 119.146 157.346 119.065 155.222 118.984C153.401 118.915 150.581 119.387 148.837 118.741C147.882 118.387 146.809 117.083 146.449 116.062C146.092 115.052 146.894 110.406 146.428 110.109C144.051 112.896 142.556 116.599 140.431 119.605C138.082 122.927 135.047 124.867 131.702 126.632C128.009 128.582 124.185 130.092 120.411 131.763C118.818 132.467 118.85 132.87 118.711 134.874C118.556 137.114 118.573 139.386 118.51 141.631ZM310.454 225.894C314.458 226.387 318.562 226.106 322.597 226.491C324.065 226.631 326.101 226.839 324.624 229.101C323.693 230.526 320.714 230.069 319.362 230.168C315.733 230.433 311.89 230.29 308.253 230.229C307.487 230.216 306.641 229.955 305.867 230.014C304.974 230.081 303.904 230.819 303.089 230.813C302.588 230.81 302.408 230.202 301.975 230.146C301.032 230.025 300.089 229.936 299.138 229.936C284.762 229.94 270.583 229.608 256.242 229.59C249.385 229.582 242.417 229.446 235.563 229.076C234.123 228.999 225.926 229.337 226.153 226.361C226.27 224.829 228.945 224.613 229.922 224.45C230.645 224.33 231.396 224.349 232.121 224.304C234.046 224.186 234.89 224.717 234.484 222.299C232.943 213.123 230.182 205.541 224.282 198.944C219.459 193.549 213.65 188.656 208.186 184.152C201.552 178.682 196.171 172.929 192.232 164.559C189.932 159.672 188.006 154.675 186.825 149.27C186.399 147.326 186.389 145.115 185.868 143.241C185.468 141.798 184.554 140.788 184.016 139.293C177.415 151.949 168.667 162.537 160.646 173.949C156.814 179.4 152.441 184.578 147.862 189.321C146.503 190.728 145.235 192.198 143.967 193.713C142.906 194.98 141.222 196.107 140.326 197.513C139.466 198.862 139.678 198.798 140.986 199.87C142.715 201.285 144.621 202.462 146.377 203.843C149.184 206.05 152.248 207.915 154.758 210.571C157.473 213.444 159.844 216.771 162.217 220.011C163.798 222.17 165.874 224.94 166.271 227.67C166.403 228.573 166.903 230.807 166.243 231.468C165.679 232.034 165.736 231.819 165.035 231.474C164.117 231.023 163.847 229.986 162.726 229.492C159.857 228.228 156.386 228.662 153.401 228.647C150.415 228.631 147.404 229.016 144.419 229.002C137.604 228.97 130.933 229.604 124.119 229.944C116.883 230.305 109.557 229.438 102.344 229.561C97.0005 229.652 91.514 229.193 86.0225 229.534C83.1977 229.709 80.4236 229.303 77.6694 229.258C74.0634 229.198 70.36 229.762 66.723 229.842C60.7536 229.974 54.8572 229.973 48.8513 230.138C35.9327 230.493 23.084 230.859 10.1578 231.094C8.43362 231.126 6.54599 231.059 4.84206 231.281C3.03356 231.518 3.96723 231.959 2.72635 232.707C-0.747545 234.799 0.0547059 227.044 0.137958 225.519C0.584494 217.345 2.39197 209.329 4.5641 201.569C6.62477 194.21 8.29773 186.507 10.0429 178.988C11.9533 170.759 14.4422 162.867 16.7024 154.719C19.0184 146.369 20.9039 137.694 25.1102 130.292C26.0683 128.607 27.0584 126.793 28.5996 125.73C30.3273 124.539 30.4016 125.234 30.4002 123.054C30.3992 121 30.5093 118.257 30.0872 116.297C29.7056 114.527 29.7645 115.576 28.9055 114.305C28.2064 113.27 27.475 112.563 26.9735 111.308C23.8924 114.894 16.8397 113.001 13.8629 110.419C10.2194 107.258 7.44422 101.925 6.4273 96.8463C5.6106 92.7679 6.61273 84.9936 10.5449 83.0324C12.4617 82.0763 19.5024 81.3535 19.7842 78.2375C19.9293 76.629 17.4514 74.3672 16.8796 72.9841C15.82 70.4218 14.8024 67.0135 14.5079 64.2048C13.9327 58.7223 16.1008 52.5918 19.5544 48.8885C25.8898 42.0949 37.037 38.6084 45.1865 42.9187C43.4643 35.3664 42.4247 28.8512 43.292 20.9952C44.0392 14.2273 47.5175 10.4407 52.3039 7.06953C60.4715 1.31604 71.5785 -0.954816 80.9176 0.718116C83.0398 1.09844 85.0764 1.91397 87.0415 2.56284C89.8961 3.50555 93.3136 3.19158 96.009 4.72324C97.9634 5.8334 99.4475 8.04502 101.164 9.52167C103.168 11.2455 104.833 13.8185 106.225 16.198C109.202 21.2863 108.039 30.7299 105.547 35.8376C105.013 36.9331 104.352 37.8553 103.468 38.6029C102.548 39.3809 101.145 39.623 100.67 40.6321C99.455 43.2169 100.627 48.8127 100.789 51.6064C100.978 54.8504 99.5493 57.2871 96.3451 57.5458C94.4915 57.6959 94.4324 56.4613 93.5448 59.0016C92.9696 60.648 92.447 62.4418 91.6169 63.9512C89.9054 67.0621 86.7707 66.7584 83.9154 66.6743C80.61 66.5763 77.3543 65.9768 74.0472 65.5985C74.9207 68.8113 77.3116 71.3049 78.8046 74.1669C80.8233 78.0381 82.0384 81.2469 82.3666 85.757C82.6184 89.2222 82.0749 91.9586 80.0094 94.5375C79.1545 95.605 78.3966 95.6576 78.6089 96.889C78.7382 97.6401 79.8697 98.8794 80.2701 99.4789C81.3294 101.065 82.5592 102.521 83.4915 104.215C87.079 110.732 88.1385 120.667 88.1475 128.253C88.1478 128.601 88.3095 129.341 88.1757 129.701C88.0766 129.967 87.3239 130.808 87.3129 130.88C87.1657 131.856 87.9941 133.528 89.2941 133.694C90.6595 133.867 93.1602 132.559 94.4303 132.129C96.4628 131.441 98.5344 130.933 100.562 130.227C103.838 129.086 107.098 128.176 110.428 127.282C111.933 126.878 113.446 126.542 114.955 126.164C116.675 125.734 117.473 124.904 118.361 126.912C119.122 128.636 118.649 128.948 120.493 128.08C122.324 127.217 124.114 126.147 125.901 125.173C129.055 123.456 132.81 121.925 135.53 119.39C140.067 115.161 141.748 108.426 146.09 103.938C147.299 102.689 148.021 102.666 148.785 100.935C149.604 99.0828 150.026 96.7069 150.456 94.7141C151.209 91.2245 151.746 87.7226 152.429 84.2361C153.281 79.8927 155.121 75.9592 156.464 71.8163C156.987 70.2022 157.258 68.1505 158.102 66.7C158.326 66.3153 158.753 66.0985 158.927 65.7802C159.528 64.6874 159.521 64.3872 159.677 63.0725C160.404 56.9293 163.599 60.1611 167.089 61.5698C168.56 62.1634 175.543 66.0128 172.876 68.5727C176.055 69.6315 181.146 69.0561 181.104 74.2858C181.082 76.9654 179.686 79.8319 178.936 82.3401C178.271 84.5671 177.627 86.8028 176.951 89.0263C175.47 93.897 173.674 98.6219 172.228 103.508C171.57 105.734 171.026 108.013 170.109 110.114C169.3 111.968 167.342 114.012 167.019 116.039C175.49 111.89 183.326 105.892 192.807 106.274C196.959 106.441 200.727 108.445 203.02 112.635C205.894 117.888 207.786 123.769 210.595 129.07C220.816 148.354 233.007 165.873 244.228 184.359C245.089 185.78 246.198 187.123 246.497 188.879C246.692 190.024 246.313 191.17 246.547 192.27C247.033 194.557 249.485 197.411 251.148 198.725C254.336 201.244 259.518 204.797 263.496 204.483C260.999 197.595 261.033 190.048 261.148 182.701C261.259 175.723 261.916 168.8 262.696 161.893C262.872 160.33 263.026 158.881 263.417 157.367C263.866 155.629 264.483 155.794 263.138 154.232C261.068 151.827 258.607 149.848 256.52 147.413C252.008 142.147 247.383 138.019 243.831 131.731C240.453 125.749 236.89 119.595 234.39 113.045C231.816 106.303 230.787 99.1018 229.509 91.961C228.991 89.0634 227.1 85.8285 227.48 82.8025C227.96 78.9784 229.505 81.7631 230.133 83.8211C232.052 90.1033 236.546 95.7259 240.267 100.778C244.288 106.236 249.206 110.803 253.403 116.102C257.973 121.874 261.104 128.506 265.168 134.667C265.168 127.022 262.894 119.236 261.964 111.672C261.145 105.015 260.888 98.3364 260.371 91.6502C259.196 76.4619 260.211 60.8261 261.86 45.7464C262.644 38.5847 262.199 31.5917 262.223 24.4055C262.231 22.1184 261.406 16.8473 262.457 14.8177C264.47 10.9304 265.644 19.4305 265.746 20.6979C266.354 28.2474 265.263 35.7128 265.821 43.2299C266.403 51.08 267.668 58.7097 268.744 66.4689C269.91 74.8703 271.808 83.0821 273.625 91.3224C275.533 99.9742 277.137 108.806 279.259 117.389C279.831 114.691 279.028 111.377 278.87 108.63C278.643 104.698 278.201 100.765 278.163 96.8226C278.102 90.5397 278.059 84.1402 278.369 77.8864C278.674 71.7223 278.582 65.2632 280.228 59.3246C281.01 56.506 282.156 53.7561 283.278 51.1009C284.661 47.8269 285.151 44.6525 285.917 41.1704C286.573 38.1882 287.534 35.2847 287.971 32.2429C288.243 30.3512 289.001 24.7668 290.888 28.9978C291.983 31.4534 291.51 35.0939 291.54 37.7321C291.58 41.1143 291.129 44.4029 291.059 47.7709C290.925 54.3789 290.828 60.979 290.399 67.5759C289.949 74.4971 290.342 80.6999 291.489 87.5196C292.744 94.9846 293.112 102.466 293.762 110.022C294.097 113.924 294.663 117.803 294.936 121.71C295.081 123.78 294.34 129.713 295.631 131.186C295.756 127.602 296.65 124.016 297.329 120.524C298.132 116.387 298.456 112.038 299.048 107.842C300.007 101.043 301.867 94.551 303.098 87.8288C305.636 73.9718 307.744 56.1624 318.377 47.0924C319.768 45.9056 321.297 45.0296 322.801 44.053C323.652 43.5001 324.917 42.0696 325.891 41.82C326.955 41.5475 327.398 41.7592 327.829 43.1754C328.43 45.1497 327.331 46.0719 326.305 47.5059C322.754 52.4678 321.236 58.8286 319.044 64.6479C314.022 77.9733 311.801 92.0281 311.775 106.432C311.762 113.973 311.309 121.245 310.608 128.74C309.855 136.806 308.862 145.336 306.727 153.095C308.868 153.646 311.191 152.825 311.772 155.682C311.915 156.384 311.657 157.213 311.815 158.127C311.968 159.015 312.337 159.898 312.556 160.771C313.007 162.577 313.246 164.359 313.465 166.213C314.314 173.381 315.771 180.198 315.926 187.465C316.069 194.182 314.924 200.988 313.868 207.576C312.805 214.212 309.755 219.869 307.354 225.87C308.388 225.87 309.421 225.882 310.454 225.894Z" fill="#28BB46"/>
</svg>
