<svg width="120" height="35" viewBox="0 0 120 35" fill="none" xmlns="http://www.w3.org/2000/svg">
<path d="M7.1936 11.6252C6.37956 11.6252 5.72479 11.8973 5.23814 12.4321C4.77803 12.9763 4.53913 13.6612 4.51259 14.4963V19.8819C4.51259 20.7733 4.75149 21.5051 5.23814 22.0681C5.72479 22.6311 6.37071 22.9219 7.1936 22.9219H8.72434C9.53838 22.9219 10.202 22.6405 10.7152 22.0681C11.2284 21.5051 11.4761 20.7733 11.4761 19.8819V14.6182C11.4761 13.7269 11.2195 13.0138 10.7152 12.4696C10.202 11.9066 9.53838 11.6158 8.72434 11.6158H7.1936V11.6252ZM8.72434 6.97134C9.84806 6.97134 10.8391 7.159 11.7062 7.53431C12.5999 7.88147 13.352 8.38813 13.9625 9.03554C14.5996 9.68295 15.0862 10.4711 15.4136 11.3812C15.741 12.3007 15.9091 13.3422 15.9091 14.4963V20.0415C15.9091 21.1768 15.741 22.2182 15.4136 23.1565C15.0862 24.076 14.5996 24.8735 13.9625 25.5491C13.352 26.1965 12.5999 26.6938 11.7062 27.0503C10.8391 27.3975 9.84806 27.5758 8.72434 27.5758H7.1936C6.06987 27.5758 5.06118 27.3975 4.16751 27.0503C3.30038 26.7032 2.54829 26.1965 1.91122 25.5491C1.30069 24.8735 0.822885 24.076 0.495501 23.1565C0.168117 22.2089 0 21.1674 0 20.0415V14.4963V14.1679V0H4.51259V7.49678C5.45935 7.14962 6.45035 6.97134 7.49444 6.97134H8.72434Z" fill="#28BB46"/>
<path d="M28.1235 11.5837C27.4176 11.5837 26.8341 11.6775 26.3729 11.8651C25.9399 12.0245 25.6011 12.259 25.3564 12.5498C25.1117 12.8499 24.9329 13.2157 24.8293 13.6472C24.7446 14.0505 24.707 14.5007 24.707 14.9791V27.5664H20.1516V0H24.707V7.40981C25.1117 7.2785 25.5352 7.16595 25.9682 7.08153C26.4294 6.99711 26.9188 6.9596 27.4364 6.9596H29.8741C31.0694 6.9596 32.1142 7.16595 33.0083 7.56927C33.9307 7.97258 34.693 8.51659 35.286 9.19192C35.9072 9.83911 36.3684 10.5988 36.6695 11.4618C36.9707 12.2965 37.1213 13.1501 37.1213 14.013V27.5758H32.5189V14.9791C32.5189 14.4913 32.4812 14.0505 32.3965 13.6472C32.3118 13.2157 32.1424 12.8499 31.8695 12.5498C31.6247 12.2496 31.2859 12.0245 30.853 11.8651C30.42 11.6775 29.8459 11.5837 29.14 11.5837H28.1235Z" fill="#28BB46"/>
<path d="M43.8194 21.4607C43.8194 22.1483 43.958 22.6617 44.2453 23.0009C44.5624 23.3218 44.8992 23.4777 45.2756 23.4777H52.3392V19.4437H45.2756C44.9091 19.4437 44.5624 19.6179 44.2453 19.9571C43.958 20.2964 43.8194 20.8006 43.8194 21.4607ZM39.4009 13.787C39.4901 12.9435 39.6882 12.1367 40.0053 11.3758C40.352 10.6148 40.8374 9.93638 41.4615 9.35879C42.0857 8.7812 42.8782 8.31362 43.8194 7.9744C44.7605 7.60768 45.8502 7.42432 47.0787 7.42432H49.6445C50.9324 7.42432 52.042 7.62601 52.9831 8.02024C53.954 8.41447 54.7564 8.94622 55.3805 9.60633C56.0047 10.2389 56.4802 10.9815 56.7972 11.825C57.1142 12.641 57.2727 13.4753 57.2727 14.3187V27.5758H45.1072C44.1661 27.5758 43.324 27.42 42.581 27.0991C41.838 26.7599 41.2139 26.3198 40.6987 25.7972C40.2133 25.2471 39.8467 24.5962 39.5892 23.8536C39.3613 23.111 39.2424 22.3225 39.2424 21.479C39.2424 20.6631 39.3712 19.893 39.6288 19.187C39.8864 18.4719 40.2529 17.8668 40.7384 17.3625C41.2238 16.8308 41.8281 16.4274 42.5414 16.134C43.2844 15.8131 44.1166 15.6573 45.028 15.6573H52.3491V15.2631C52.3491 14.7863 52.3094 14.3554 52.2203 13.9612C52.1311 13.5394 51.9726 13.1819 51.7448 12.8885C51.5169 12.5951 51.1702 12.3751 50.7145 12.2192C50.2587 12.0359 49.6445 11.9442 48.8718 11.9442H47.8019C46.6626 11.9442 45.8502 12.1001 45.3648 12.4209C44.8794 12.7143 44.5525 13.1727 44.384 13.8053H39.4009V13.787Z" fill="#28BB46"/>
<path d="M64.637 11.6749C65.0283 11.0742 65.5565 10.5463 66.202 10.1003C66.877 9.62697 67.6106 9.23559 68.4029 8.92612C69.2246 8.60756 70.0853 8.38001 70.9853 8.21618C71.8852 8.06145 72.7949 7.97953 73.6948 7.97953H74.2425V12.849H73.6948C72.6775 12.849 71.6406 13.0493 70.5646 13.4406C69.4887 13.8047 68.5105 14.3053 67.6008 14.9333C66.7303 15.5341 66.0064 16.2167 65.4391 16.9722C64.9011 17.7276 64.637 18.4922 64.637 19.2476V27.5758H59.394V7.42432H64.637V11.6749Z" fill="#28BB46"/>
<path d="M82.7273 4.73665H77.4243V0H82.7273V4.73665ZM82.7273 27.5758H77.4243V6.96897H82.7273V27.5758Z" fill="#28BB46"/>
<path d="M92.9931 35.0001H88.7925L90.738 27.891L84.8484 7.42432H89.0932L92.8074 20.5387L96.4773 7.42432H100.757L92.9931 35.0001Z" fill="#28BB46"/>
<path d="M107.177 21.4607C107.177 22.1483 107.308 22.6617 107.578 23.0009C107.877 23.3218 108.194 23.4777 108.548 23.4777H115.196V19.4437H108.548C108.203 19.4437 107.877 19.6179 107.578 19.9571C107.317 20.2964 107.177 20.8006 107.177 21.4607ZM103.028 13.787C103.112 12.9435 103.298 12.1367 103.597 11.3758C103.923 10.6148 104.38 9.93638 104.967 9.35879C105.555 8.7812 106.301 8.31362 107.187 7.9744C108.072 7.60768 109.098 7.42432 110.254 7.42432H112.669C113.881 7.42432 114.926 7.62601 115.811 8.02024C116.725 8.41447 117.48 8.94622 118.068 9.60633C118.655 10.2389 119.103 10.9815 119.401 11.825C119.699 12.641 119.849 13.4753 119.849 14.3187V27.5758H108.399C107.513 27.5758 106.72 27.42 106.021 27.0991C105.322 26.7599 104.734 26.3198 104.25 25.7972C103.793 25.2471 103.448 24.5962 103.205 23.8536C102.991 23.111 102.879 22.3225 102.879 21.479C102.879 20.6631 103 19.893 103.243 19.187C103.485 18.4719 103.83 17.8668 104.287 17.3625C104.744 16.8308 105.312 16.4274 105.984 16.134C106.683 15.8131 107.466 15.6573 108.324 15.6573H115.215V15.2631C115.215 14.7863 115.177 14.3554 115.093 13.9612C115.009 13.5394 114.86 13.1819 114.646 12.8885C114.431 12.5951 114.105 12.3751 113.676 12.2192C113.247 12.0359 112.669 11.9442 111.942 11.9442H110.935C109.863 11.9442 109.098 12.1001 108.641 12.4209C108.184 12.7143 107.877 13.1727 107.718 13.8053H103.028V13.787Z" fill="#28BB46"/>
</svg>
