<svg width="43" height="43" viewBox="0 0 43 43" fill="none" xmlns="http://www.w3.org/2000/svg">
<path d="M21.25 6C21.25 3.51472 19.2353 1.5 16.75 1.5C14.2647 1.5 12.25 3.51472 12.25 6V8.25C12.25 9.49264 11.2426 10.5 10 10.5H3.25C2.00736 10.5 1 11.5074 1 12.75V19.5C1 20.7426 2.00736 21.75 3.25 21.75H5.5C7.98528 21.75 10 23.7647 10 26.25C10 28.7353 7.98528 30.75 5.5 30.75H3.25C2.00736 30.75 1 31.7574 1 33V39.75C1 40.9926 2.00736 42 3.25 42H10C11.2426 42 12.25 40.9926 12.25 39.75V37.5C12.25 35.0147 14.2647 33 16.75 33C19.2353 33 21.25 35.0147 21.25 37.5V39.75C21.25 40.9926 22.2574 42 23.5 42H30.25C31.4926 42 32.5 40.9926 32.5 39.75V33C32.5 31.7574 33.5074 30.75 34.75 30.75H37C39.4853 30.75 41.5 28.7353 41.5 26.25C41.5 23.7647 39.4853 21.75 37 21.75H34.75C33.5074 21.75 32.5 20.7426 32.5 19.5V12.75C32.5 11.5074 31.4926 10.5 30.25 10.5H23.5C22.2574 10.5 21.25 9.49264 21.25 8.25V6Z" stroke="#02A1FC" stroke-width="2" stroke-linecap="round" stroke-linejoin="round"/>
</svg>
