<svg width="350" height="350" viewBox="0 0 350 350" fill="none" xmlns="http://www.w3.org/2000/svg">
<path d="M270.361 54.061C270.361 54.061 238.238 27.825 196.455 39.459C154.672 51.093 137.179 87.0589 113.218 111.832C100.667 124.789 82.1309 129.563 67.2209 139.538C19.5509 171.43 26.6209 243.138 63.3709 270.186C95.1929 293.601 134.953 296.051 186.704 278.782C238.455 261.513 275.478 251.132 307.566 201.663C339.654 152.194 309.932 89.67 270.361 54.061Z" fill="#28BB46"/>
<path opacity="0.7" d="M270.361 54.061C270.361 54.061 238.238 27.825 196.455 39.459C154.672 51.093 137.179 87.0589 113.218 111.832C100.667 124.789 82.1309 129.563 67.2209 139.538C19.5509 171.43 26.6209 243.138 63.3709 270.186C95.1929 293.601 134.953 296.051 186.704 278.782C238.455 261.513 275.478 251.132 307.566 201.663C339.654 152.194 309.932 89.67 270.361 54.061Z" fill="white"/>
<path d="M276.5 321.3H72.0996L92.5396 291.9H256.06L276.5 321.3Z" fill="#E94235" stroke="#263238" stroke-linecap="round" stroke-linejoin="round"/>
<path d="M283.597 281.806C283.597 281.806 262.919 250.271 265.999 243.033C269.079 235.795 279.999 248.206 279.999 248.206C279.999 248.206 263.969 205.814 274.826 196.504C285.683 187.194 289.302 234.766 289.302 234.766C289.302 234.766 299.102 207.361 306.879 217.7C314.656 228.039 294.979 249.753 294.979 249.753C294.979 249.753 308.419 250.271 304.779 259.063C301.139 267.855 291.339 277.158 291.339 277.158L283.597 281.806Z" fill="#28BB46"/>
<path d="M277.899 274.568C277.899 274.568 265.495 256.991 271.697 253.372C277.899 249.753 281 260.61 281 260.61C281 260.61 281.518 213.052 291.346 216.671C301.174 220.29 297.548 249.235 297.548 249.235C297.548 249.235 309.952 240.968 309.448 252.854C308.944 264.74 292.382 275.1 292.382 275.1" stroke="#263238" stroke-linecap="round" stroke-linejoin="round"/>
<path d="M289.282 275.604L278.425 263.711" stroke="#263238" stroke-linecap="round" stroke-linejoin="round"/>
<path d="M289.799 281.288L289.281 251.825" stroke="#263238" stroke-linecap="round" stroke-linejoin="round"/>
<path d="M290.317 271.467L300.138 258.545" stroke="#263238" stroke-linecap="round" stroke-linejoin="round"/>
<path d="M299.102 272.503H271.704L274.441 296.8H296.365L299.102 272.503Z" fill="#263238" stroke="#263238" stroke-linecap="round" stroke-linejoin="round"/>
<path d="M63.7976 281.806C63.7976 281.806 43.1195 250.271 46.1995 243.033C49.2795 235.795 60.1996 248.206 60.1996 248.206C60.1996 248.206 44.1485 205.8 55.0056 196.504C65.8626 187.208 69.4816 234.766 69.4816 234.766C69.4816 234.766 79.2816 207.361 87.0586 217.7C94.8356 228.039 75.1586 249.753 75.1586 249.753C75.1586 249.753 88.5986 250.271 84.9586 259.063C81.3186 267.855 71.5186 277.158 71.5186 277.158L63.7976 281.806Z" fill="#28BB46"/>
<path d="M59.6047 274.96C59.6047 274.96 46.7527 262.885 46.3607 257.46C45.9687 252.035 54.5437 258.629 58.0437 260.96C61.5437 263.291 49.0907 245.77 49.4757 232.918C49.8607 220.066 56.8747 225.134 59.2127 230.587C61.5507 236.04 62.7127 241.087 63.8887 242.27C65.0647 243.453 67.0037 233.31 72.0647 236.033C80.1567 240.394 67.0037 255.115 69.7267 257.845C72.4497 260.575 78.6867 246.162 81.8017 253.953C84.9167 261.744 71.6727 275.758 71.6727 275.758" stroke="#263238" stroke-linecap="round" stroke-linejoin="round"/>
<path d="M67.781 274.176L58.0439 244.972" stroke="#263238" stroke-linecap="round" stroke-linejoin="round"/>
<path d="M62.7197 259.378L66.6117 250.425" stroke="#263238" stroke-linecap="round" stroke-linejoin="round"/>
<path d="M54.9287 265.223L65.8347 267.946L71.2877 264.054" stroke="#263238" stroke-linecap="round" stroke-linejoin="round"/>
<path d="M79.3023 272.503H51.9043L54.6413 296.8H76.5653L79.3023 272.503Z" fill="#263238" stroke="#263238" stroke-linecap="round" stroke-linejoin="round"/>
<path d="M157.969 205.8C157.969 205.8 147.7 206.731 143.969 200.2C140.238 193.669 146.769 185.731 139.769 182.931C132.769 180.131 124.369 189.469 110.369 181.531C96.3692 173.593 103.831 163.331 107.569 155.4C111.307 147.469 113.169 143.731 104.3 138.6C95.4312 133.469 85.6312 118.531 91.7002 104.069C97.7692 89.6069 113.169 96.1309 121.1 88.6689C129.031 81.207 122.031 72.331 121.569 60.2C121.107 48.069 137.431 38.731 153.3 41.069C169.169 43.407 172.431 60.2 172.431 70.931C172.431 81.662 189.231 84.469 197.169 72.331C205.107 60.193 211.631 57.4 223.3 62.531C234.969 67.662 225.169 84.931 230.769 87.731C236.369 90.531 241.031 77 257.831 84.931C274.631 92.862 265.3 113.862 256.9 119C244.678 126.483 259.091 140.994 261.408 149.877C264.803 162.862 254.352 173.25 241.5 172.669C220.969 171.731 215.831 168.469 211.631 174.531C207.431 180.593 220.5 182 218.631 191.8C216.762 201.6 213.031 205.331 204.631 205.331C196.231 205.331 191.1 197.869 182.231 201.6C173.362 205.331 162.169 208.131 157.969 205.8Z" fill="#263238" stroke="#263238" stroke-linecap="round" stroke-linejoin="round"/>
<path d="M141.75 272.65C140.245 278.234 139.712 284.035 140.175 289.8C141.05 298.725 145.6 303.45 165.375 306.425C185.15 309.4 198.8 306.95 209.825 301.7C220.85 296.45 218.351 277.613 215.488 273.294C212.625 268.975 201.6 268.1 183.75 269.675C165.9 271.25 154.875 268.45 148.4 269.5C141.925 270.55 141.75 272.65 141.75 272.65Z" fill="#696969" stroke="#263238" stroke-linecap="round" stroke-linejoin="round"/>
<path opacity="0.3" d="M204.75 275.45C204.75 275.45 195.3 277.9 188.65 279.65C182 281.4 181.3 282.1 187.25 282.8C193.2 283.5 204.4 282.8 204.4 282.8C204.4 282.8 188.65 290.15 180.25 291.9C171.85 293.65 156.45 288.05 154.7 286.65C152.95 285.25 162.05 285.25 164.5 284.2C166.95 283.15 165.55 281.75 156.8 280.35C148.05 278.95 149.8 287 157.5 292.6C165.2 298.2 169.75 299.95 179.725 298.2C189.7 296.45 203.35 292.25 207.9 283.85C212.45 275.45 204.75 275.45 204.75 275.45Z" fill="black"/>
<path d="M137.292 219.415L136.13 242.795C136.13 242.795 134.03 248.227 137.81 251.713C141.59 255.199 146.462 254.17 149.01 249.648C151.558 245.126 151.208 234.661 151.852 230.524C152.496 226.387 147.463 222.124 143.326 220.577C139.189 219.03 137.292 219.415 137.292 219.415Z" fill="white" stroke="#263238" stroke-linecap="round" stroke-linejoin="round"/>
<path d="M219.149 219.415L220.311 242.795C220.311 242.795 222.376 248.227 218.631 251.713C214.886 255.199 209.972 254.17 207.389 249.648C204.806 245.126 205.191 234.661 204.547 230.524C203.903 226.387 208.943 222.124 213.073 220.577C217.203 219.03 219.149 219.415 219.149 219.415Z" fill="white" stroke="#263238" stroke-linecap="round" stroke-linejoin="round"/>
<path d="M168.924 184.576C168.924 184.576 169.365 194.306 167.006 198.429C164.647 202.552 157.129 202.3 152.271 202.3C147.413 202.3 140.182 206.276 137.823 210.259C136.043 213.525 134.517 216.923 133.259 220.423L149.471 229.117C149.471 229.117 147.7 232.512 149.471 237.517C151.242 242.522 153.888 244.447 153.153 246.953C152.418 249.459 142.835 267.288 141.953 270.088C141.507 271.385 141.163 272.714 140.924 274.064C140.924 274.064 161.406 278.047 179.235 277.459C197.064 276.871 215.488 273.329 215.488 273.329C215.488 273.329 210.035 263.753 207.088 258.3C204.141 252.847 201.488 247.247 202.076 245.329C202.664 243.411 206.059 238.259 205.912 229.264C205.912 229.264 219.023 225.876 223.888 220.423C223.888 220.423 218.141 206.129 212.247 203.77C206.353 201.411 199.577 203.77 194.747 202.447C189.917 201.124 187.376 198.758 186.641 196.994C185.906 195.23 185.164 186.97 185.458 185.059L168.924 184.576Z" fill="#F9BE00" stroke="#263238" stroke-linecap="round" stroke-linejoin="round"/>
<path opacity="0.3" d="M154 241.5C154 241.5 149.1 236.25 154.7 235.55C160.3 234.85 168.35 240.45 177.1 242.55C185.85 244.65 196.35 235.2 200.9 236.6C205.45 238 202.65 245 197.75 248.15C192.85 251.3 179.2 250.95 171.5 250.6C163.8 250.25 159.95 248.15 154 241.5Z" fill="black"/>
<path d="M160.3 244.748C160.3 244.748 162.967 246.883 170.1 246.883C177.233 246.883 182.7 243.684 187.698 244.573" stroke="#263238" stroke-linecap="round" stroke-linejoin="round"/>
<path d="M157.276 245.28C157.276 245.28 160.293 247.772 166.516 247.947" stroke="#263238" stroke-linecap="round" stroke-linejoin="round"/>
<path d="M149.472 229.082C149.472 229.082 149.983 226.443 153.364 223.951" stroke="#263238" stroke-linecap="round" stroke-linejoin="round"/>
<path d="M205.912 229.229C205.912 229.229 204.729 224.133 201.53 223.062" stroke="#263238" stroke-linecap="round" stroke-linejoin="round"/>
<path d="M178.353 220.388C189.882 219.933 193.501 208.838 194.635 202.391C189.826 201.061 187.341 198.716 186.606 196.959C185.871 195.202 185.129 186.935 185.423 185.024L168.924 184.576C168.924 184.576 169.365 194.306 167.006 198.429C165.802 200.529 163.24 201.495 160.377 201.929C161.469 206.556 165.9 220.885 178.353 220.388Z" fill="white"/>
<path opacity="0.3" d="M185.71 191.842C185.416 189.582 185.32 187.301 185.423 185.024L168.924 184.576C169.011 187.083 168.924 189.592 168.665 192.087C171.563 193.984 177.436 196.252 185.71 191.842Z" fill="black"/>
<path d="M178.353 220.388C189.882 219.933 193.501 208.838 194.635 202.391C189.826 201.061 187.341 198.716 186.606 196.959C185.871 195.202 185.129 186.935 185.423 185.024L168.924 184.576C168.924 184.576 169.365 194.306 167.006 198.429C165.802 200.529 163.24 201.495 160.377 201.929C161.469 206.556 165.9 220.885 178.353 220.388Z" stroke="#263238" stroke-linecap="round" stroke-linejoin="round"/>
<path d="M161.925 164.5C161.925 164.5 159.825 161.077 157.759 163.163C155.694 165.249 157.76 169.407 159.097 171.339C160.434 173.271 162.961 174.755 163.556 174.013C164.151 173.271 161.925 164.5 161.925 164.5Z" fill="white" stroke="#263238" stroke-linecap="round" stroke-linejoin="round"/>
<path d="M194.18 164.192C194.18 164.192 197.155 160.328 198.793 164.045C200.431 167.762 195.993 173.411 193.893 174.454C191.793 175.497 192.85 172.074 192.997 170.884C193.144 169.694 194.18 164.192 194.18 164.192Z" fill="white" stroke="#263238" stroke-linecap="round" stroke-linejoin="round"/>
<path d="M160.3 151.41C160.3 151.41 161.343 165.536 162.085 172.669C162.827 179.802 165.487 186.2 173.663 188.3C181.839 190.4 188.363 187.558 190.764 182.798C193.165 178.038 194.481 168.973 194.481 161.539V149.639C194.481 149.639 173.369 143.682 160.3 151.41Z" fill="white" stroke="#263238" stroke-linecap="round" stroke-linejoin="round"/>
<path d="M176.043 171.626C176.799 172.128 177.667 172.435 178.57 172.522C179.516 172.424 180.429 172.118 181.244 171.626" stroke="#263238" stroke-linecap="round" stroke-linejoin="round"/>
<path d="M174.111 176.239C174.111 176.239 177.828 178.619 183.211 175.938" stroke="#263238" stroke-linecap="round" stroke-linejoin="round"/>
<path d="M168.168 164.192C168.168 164.192 171.29 163.751 173.068 164.941" stroke="#263238" stroke-width="2" stroke-linecap="round" stroke-linejoin="round"/>
<path d="M182.735 164.787C182.735 164.787 185.71 163.303 188.531 164.64" stroke="#263238" stroke-width="2" stroke-linecap="round" stroke-linejoin="round"/>
<path d="M161.182 162.841C162.201 161.122 162.999 159.28 163.555 157.36C164.459 154.847 164.74 152.152 164.374 149.506C162.961 150.015 161.597 150.653 160.3 151.41C160.3 151.41 160.692 156.947 161.182 162.841Z" fill="#263238" stroke="#263238" stroke-linecap="round" stroke-linejoin="round"/>
<path d="M194.475 161.658C194.475 161.609 194.475 161.567 194.475 161.518V149.618C194.475 149.618 193.019 149.212 190.646 148.75C190.8 151.06 191.493 158.025 194.475 161.658Z" fill="#263238" stroke="#263238" stroke-linecap="round" stroke-linejoin="round"/>
<path d="M166.979 158.991C166.979 158.991 169.506 155.575 174.854 156.611" stroke="#263238" stroke-linecap="round" stroke-linejoin="round"/>
<path d="M182.435 157.059C183.655 156.613 184.972 156.501 186.25 156.736C187.528 156.971 188.719 157.544 189.701 158.396" stroke="#263238" stroke-linecap="round" stroke-linejoin="round"/>
<path d="M179.725 298.2C179.725 298.2 172.9 298.2 160.65 286.125C148.4 274.05 140.7 263.9 131.25 259.7C121.8 255.5 112.7 264.775 113.225 274.75C113.75 284.725 121.1 298.725 142.975 306.775C164.85 314.825 183.575 311.5 185.5 311.5C187.425 311.5 196.875 316.225 202.475 316.75C205.558 317.08 208.667 317.08 211.75 316.75C211.75 316.75 213.325 316.925 214.2 316.925C215.075 316.925 216.125 315.875 216.125 315.875C216.125 315.875 217.896 316.337 218.596 315.112C219.296 313.887 218.75 313.425 218.75 313.425C218.75 313.425 221.746 313.684 222.796 311.759C223.846 309.834 222.348 309.911 222.348 309.911C222.348 309.911 224.399 309.512 224.35 307.86C224.388 307.245 224.268 306.63 224 306.075C224 306.075 225.225 304.15 224.7 302.575C224.175 301 222.25 300.475 220.325 301.35C218.4 302.225 209.125 301.875 201.6 301.35C194.075 300.825 179.725 298.2 179.725 298.2Z" fill="white" stroke="#263238" stroke-linecap="round" stroke-linejoin="round"/>
<path d="M176.68 297.5C173.558 296.373 168.112 293.503 160.65 286.146C148.4 274.05 140.7 263.9 131.25 259.7C121.8 255.5 112.7 264.775 113.225 274.75C113.75 284.725 121.1 298.725 142.975 306.775C151.133 309.755 159.685 311.521 168.357 312.018C176.309 308.7 177.051 301.7 176.68 297.5Z" fill="#696969"/>
<path opacity="0.3" d="M173.705 308.238C170.254 306.929 166.222 305.529 161.7 304.15C145.6 299.25 133.7 293.3 125.65 284.2C117.6 275.1 120.4 263.55 120.4 263.55L118.545 261.87C116.764 263.492 115.364 265.488 114.444 267.715C113.524 269.941 113.108 272.344 113.225 274.75C113.75 284.725 121.1 298.725 142.975 306.775C151.134 309.755 159.686 311.522 168.357 312.018C170.415 311.201 172.248 309.905 173.705 308.238Z" fill="black"/>
<path d="M176.68 297.5C173.558 296.373 168.112 293.503 160.65 286.146C148.4 274.05 140.7 263.9 131.25 259.7C121.8 255.5 112.7 264.775 113.225 274.75C113.75 284.725 121.1 298.725 142.975 306.775C151.133 309.755 159.685 311.521 168.357 312.018C176.309 308.7 177.051 301.7 176.68 297.5Z" stroke="#263238" stroke-linecap="round" stroke-linejoin="round"/>
<path d="M224.001 306.075C223.463 305.833 222.879 305.716 222.29 305.73C221.701 305.745 221.123 305.891 220.599 306.159" fill="white"/>
<path d="M224.001 306.075C223.463 305.833 222.879 305.716 222.29 305.73C221.701 305.745 221.123 305.891 220.599 306.159" stroke="#263238" stroke-linecap="round" stroke-linejoin="round"/>
<path d="M222.348 309.911C221.443 309.583 220.452 309.583 219.548 309.911H222.348Z" fill="white"/>
<path d="M222.348 309.911C221.443 309.583 220.452 309.583 219.548 309.911" stroke="#263238" stroke-linecap="round" stroke-linejoin="round"/>
<path d="M218.75 313.425C218.104 312.939 217.303 312.702 216.496 312.76L218.75 313.425Z" fill="white"/>
<path d="M218.75 313.425C218.104 312.939 217.303 312.702 216.496 312.76" stroke="#263238" stroke-linecap="round" stroke-linejoin="round"/>
<path d="M215.943 315.7C215.943 315.7 215.194 314.349 214.095 314.349L215.943 315.7Z" fill="white"/>
<path d="M215.943 315.7C215.943 315.7 215.194 314.349 214.095 314.349" stroke="#263238" stroke-linecap="round" stroke-linejoin="round"/>
<path d="M171.962 298.2C171.962 298.2 178.787 298.2 191.037 286.125C203.287 274.05 210.987 263.9 220.437 259.7C229.887 255.5 238.987 264.775 238.462 274.75C237.937 284.725 230.587 298.725 208.712 306.775C186.837 314.825 168.112 311.5 166.187 311.5C164.262 311.5 154.812 316.225 149.212 316.75C146.129 317.08 143.02 317.08 139.937 316.75C139.937 316.75 138.362 316.925 137.487 316.925C136.612 316.925 135.562 315.875 135.562 315.875C135.562 315.875 133.791 316.337 133.091 315.112C132.391 313.887 132.937 313.425 132.937 313.425C132.937 313.425 129.934 313.684 128.884 311.759C127.834 309.834 129.332 309.911 129.332 309.911C129.332 309.911 127.281 309.512 127.33 307.86C127.29 307.244 127.413 306.628 127.687 306.075C127.687 306.075 126.462 304.15 126.987 302.575C127.512 301 129.437 300.475 131.362 301.35C133.287 302.225 142.562 301.875 150.087 301.35C157.612 300.825 171.962 298.2 171.962 298.2Z" fill="white" stroke="#263238" stroke-linecap="round" stroke-linejoin="round"/>
<path d="M175 297.5C178.115 296.373 183.561 293.503 191.03 286.146C203.28 274.071 210.98 263.921 220.43 259.721C229.88 255.521 238.98 264.796 238.455 274.771C237.93 284.746 230.58 298.746 208.705 306.796C200.544 309.777 191.99 311.543 183.316 312.039C175.371 308.7 174.636 301.7 175 297.5Z" fill="#696969"/>
<path opacity="0.3" d="M238.463 274.75C238.827 267.799 234.515 261.198 228.663 259.245L226.101 261.1C226.101 261.1 234.851 266.35 232.751 276.5C230.651 286.65 213.501 297.15 199.851 302.75C193.054 305.414 186.079 307.596 178.977 309.281C180.252 310.443 181.724 311.37 183.324 312.018C191.998 311.522 200.552 309.756 208.713 306.775C230.588 298.725 237.938 284.725 238.463 274.75Z" fill="black"/>
<path d="M175 297.5C178.115 296.373 183.561 293.503 191.03 286.146C203.28 274.071 210.98 263.921 220.43 259.721C229.88 255.521 238.98 264.796 238.455 274.771C237.93 284.746 230.58 298.746 208.705 306.796C200.544 309.777 191.99 311.543 183.316 312.039C175.371 308.7 174.636 301.7 175 297.5Z" stroke="#263238" stroke-linecap="round" stroke-linejoin="round"/>
<path d="M127.688 306.075C128.225 305.833 128.809 305.716 129.398 305.73C129.987 305.745 130.565 305.891 131.09 306.159" fill="white"/>
<path d="M127.688 306.075C128.225 305.833 128.809 305.716 129.398 305.73C129.987 305.745 130.565 305.891 131.09 306.159" stroke="#263238" stroke-linecap="round" stroke-linejoin="round"/>
<path d="M129.332 309.911C130.237 309.583 131.227 309.583 132.132 309.911H129.332Z" fill="white"/>
<path d="M129.332 309.911C130.237 309.583 131.227 309.583 132.132 309.911" stroke="#263238" stroke-linecap="round" stroke-linejoin="round"/>
<path d="M132.938 313.425C133.584 312.939 134.385 312.702 135.191 312.76L132.938 313.425Z" fill="white"/>
<path d="M132.938 313.425C133.584 312.939 134.385 312.702 135.191 312.76" stroke="#263238" stroke-linecap="round" stroke-linejoin="round"/>
<path d="M135.744 315.7C135.744 315.7 136.5 314.3 137.592 314.3L135.744 315.7Z" fill="white"/>
<path d="M135.744 315.7C135.744 315.7 136.5 314.3 137.592 314.3" stroke="#263238" stroke-linecap="round" stroke-linejoin="round"/>
<path d="M140.259 244.349C140.259 244.349 137.676 243.831 133.028 246.155C128.38 248.479 124.11 252.616 121.653 254.037C119.196 255.458 117.523 256.368 115.353 254.17C113.183 251.972 108.507 245.896 104.111 246.029C99.7149 246.162 98.1679 252.231 98.9449 253.519C99.7219 254.807 100.884 255.073 101.787 254.037C102.69 253.001 103.852 250.936 105.014 251.713C106.176 252.49 105.532 256.109 103.726 256.753C101.92 257.397 97.0059 260.498 98.1679 262.311C99.3299 264.124 105.924 266.574 110.831 266.959C115.738 267.344 121.814 263.991 125.818 263.34C129.822 262.689 140.679 261.94 145.712 257.789C147.161 256.61 148.272 255.067 148.931 253.318C149.59 251.57 149.774 249.678 149.464 247.835" fill="white"/>
<path d="M140.259 244.349C140.259 244.349 137.676 243.831 133.028 246.155C128.38 248.479 124.11 252.616 121.653 254.037C119.196 255.458 117.523 256.368 115.353 254.17C113.183 251.972 108.507 245.896 104.111 246.029C99.7149 246.162 98.1679 252.231 98.9449 253.519C99.7219 254.807 100.884 255.073 101.787 254.037C102.69 253.001 103.852 250.936 105.014 251.713C106.176 252.49 105.532 256.109 103.726 256.753C101.92 257.397 97.0059 260.498 98.1679 262.311C99.3299 264.124 105.924 266.574 110.831 266.959C115.738 267.344 121.814 263.991 125.818 263.34C129.822 262.689 140.679 261.94 145.712 257.789C147.161 256.61 148.272 255.067 148.931 253.318C149.59 251.57 149.774 249.678 149.464 247.835" stroke="#263238" stroke-linecap="round" stroke-linejoin="round"/>
<path d="M98.7844 259.595C98.7844 259.595 98.2734 253.911 96.5934 253.519C94.9134 253.127 94.6544 257.019 94.9134 260.757C95.1724 264.495 97.2374 265.538 98.5254 264.502C99.8134 263.466 98.7844 259.595 98.7844 259.595Z" fill="white" stroke="#263238" stroke-linecap="round" stroke-linejoin="round"/>
<path d="M102.824 261.198C102.824 261.198 103.314 255.507 101.732 254.828C100.15 254.149 99.2117 257.922 98.7987 261.653C98.3857 265.384 100.248 266.77 101.704 265.986C103.16 265.202 102.824 261.198 102.824 261.198Z" fill="white" stroke="#263238" stroke-linecap="round" stroke-linejoin="round"/>
<path d="M106.309 262.5C106.309 262.5 106.806 256.816 105.217 256.137C103.628 255.458 102.697 259.231 102.291 262.962C101.885 266.693 103.733 268.079 105.189 267.288C106.645 266.497 106.309 262.5 106.309 262.5Z" fill="white" stroke="#263238" stroke-linecap="round" stroke-linejoin="round"/>
<path d="M115.451 266.7C113.105 267.782 110.544 268.313 107.961 268.254C107.812 267.182 107.725 266.102 107.702 265.02C107.702 263.62 110.67 257.789 115.066 258.174" fill="white"/>
<path d="M115.451 266.7C113.105 267.782 110.544 268.313 107.961 268.254C107.812 267.182 107.725 266.102 107.702 265.02C107.702 263.62 110.67 257.789 115.066 258.174" stroke="#263238" stroke-linecap="round" stroke-linejoin="round"/>
<path d="M110.012 264.719C110.012 264.719 111.657 260.267 110.299 259.231C108.941 258.195 107.268 260.953 106.099 263.851C104.93 266.749 106.407 268.443 107.947 268.254C109.487 268.065 110.012 264.719 110.012 264.719Z" fill="white" stroke="#263238" stroke-linecap="round" stroke-linejoin="round"/>
<path d="M216.174 244.349C216.174 244.349 218.757 243.831 223.412 246.155C228.067 248.479 232.323 252.616 234.78 254.037C237.237 255.458 238.917 256.368 241.115 254.17C243.313 251.972 247.961 245.896 252.35 246.029C256.739 246.162 258.293 252.231 257.523 253.519C256.753 254.807 255.584 255.073 254.681 254.037C253.778 253.001 252.581 250.936 251.447 251.713C250.313 252.49 250.929 256.109 252.742 256.753C254.555 257.397 259.462 260.498 258.293 262.311C257.124 264.124 250.544 266.574 245.637 266.959C240.73 267.344 234.654 263.991 230.643 263.34C226.632 262.689 215.789 261.94 210.749 257.789C209.3 256.61 208.19 255.067 207.532 253.318C206.874 251.569 206.692 249.677 207.004 247.835" fill="white"/>
<path d="M216.174 244.349C216.174 244.349 218.757 243.831 223.412 246.155C228.067 248.479 232.323 252.616 234.78 254.037C237.237 255.458 238.917 256.368 241.115 254.17C243.313 251.972 247.961 245.896 252.35 246.029C256.739 246.162 258.293 252.231 257.523 253.519C256.753 254.807 255.584 255.073 254.681 254.037C253.778 253.001 252.581 250.936 251.447 251.713C250.313 252.49 250.929 256.109 252.742 256.753C254.555 257.397 259.462 260.498 258.293 262.311C257.124 264.124 250.544 266.574 245.637 266.959C240.73 267.344 234.654 263.991 230.643 263.34C226.632 262.689 215.789 261.94 210.749 257.789C209.3 256.61 208.19 255.067 207.532 253.318C206.874 251.569 206.692 249.677 207.004 247.835" stroke="#263238" stroke-linecap="round" stroke-linejoin="round"/>
<path d="M257.649 259.595C257.649 259.595 258.167 253.911 259.847 253.519C261.527 253.127 261.786 257.019 261.527 260.757C261.268 264.495 259.203 265.538 257.908 264.502C256.613 263.466 257.649 259.595 257.649 259.595Z" fill="white" stroke="#263238" stroke-linecap="round" stroke-linejoin="round"/>
<path d="M253.617 261.198C253.617 261.198 253.12 255.507 254.702 254.828C256.284 254.149 257.229 257.922 257.635 261.653C258.041 265.384 256.2 266.77 254.737 266C253.274 265.23 253.617 261.198 253.617 261.198Z" fill="white" stroke="#263238" stroke-linecap="round" stroke-linejoin="round"/>
<path d="M250.124 262.5C250.124 262.5 249.634 256.816 251.216 256.137C252.798 255.458 253.743 259.231 254.149 262.962C254.555 266.693 252.7 268.079 251.251 267.288C249.802 266.497 250.124 262.5 250.124 262.5Z" fill="white" stroke="#263238" stroke-linecap="round" stroke-linejoin="round"/>
<path d="M240.982 266.7C243.337 267.785 245.909 268.317 248.5 268.254C248.65 267.182 248.736 266.102 248.759 265.02C248.759 263.62 245.784 257.789 241.388 258.174" fill="white"/>
<path d="M240.982 266.7C243.337 267.785 245.909 268.317 248.5 268.254C248.65 267.182 248.736 266.102 248.759 265.02C248.759 263.62 245.784 257.789 241.388 258.174" stroke="#263238" stroke-linecap="round" stroke-linejoin="round"/>
<path d="M246.4 264.719C246.4 264.719 244.755 260.267 246.113 259.231C247.471 258.195 249.137 260.953 250.313 263.851C251.489 266.749 250.005 268.443 248.465 268.254C246.925 268.065 246.4 264.719 246.4 264.719Z" fill="white" stroke="#263238" stroke-linecap="round" stroke-linejoin="round"/>
<path d="M191.1 142.8C189.455 140.413 186.9 142.737 186.242 143.451C185.542 142.751 183.029 140.413 181.391 142.8C179.606 145.397 186.186 150.808 186.242 150.78C186.298 150.752 192.864 145.397 191.1 142.8Z" stroke="#F7F8FA" stroke-linecap="round" stroke-linejoin="round"/>
<path d="M174.755 144.942C172.7 142.176 169.932 140.02 166.747 138.705C161.623 136.703 164.962 132.699 167.188 133.805C168.625 134.511 170.113 135.105 171.64 135.583C171.64 135.583 165.851 130.907 165.634 126.903C165.417 122.899 171.64 128.016 171.64 128.016C171.64 128.016 164.073 117.6 166.523 115.78C168.973 113.96 171.192 117.341 172.753 120.232C173.862 122.393 174.827 124.623 175.644 126.91C175.644 126.91 175.203 119.567 177.653 121.793C180.103 124.019 178.542 135.149 178.542 135.149C178.542 135.149 181.881 126.049 183.442 130.949C185.003 135.849 175.427 144.27 174.755 144.942Z" stroke="#F7F8FA" stroke-linecap="round" stroke-linejoin="round"/>
<path d="M174.756 144.942C174.756 144.942 178.319 134.253 170.976 120.442" stroke="#F7F8FA" stroke-linecap="round" stroke-linejoin="round"/>
<path d="M162.541 73.9831C159.989 73.9637 157.479 74.6388 155.282 75.9361C151.782 78.0361 150.942 74.3051 152.594 73.4861C153.65 72.9506 154.666 72.3376 155.632 71.6521C155.632 71.6521 150.284 72.9821 147.82 71.3231C145.356 69.6641 151.159 68.2711 151.159 68.2711C151.159 68.2711 141.604 68.0751 141.646 65.8351C141.688 63.5951 144.649 63.735 147.057 64.141C148.827 64.4511 150.576 64.8743 152.293 65.4081C152.293 65.4081 147.757 62.3911 150.158 61.9081C152.559 61.4251 158.446 67.34 158.446 67.34C158.446 67.34 154.547 61.2991 158.131 62.5591C161.715 63.8191 162.443 73.2901 162.541 73.9831Z" stroke="#F7F8FA" stroke-linecap="round" stroke-linejoin="round"/>
<path d="M162.541 73.9831C162.541 73.9831 157.823 67.1091 146.392 65.2891" stroke="#F7F8FA" stroke-linecap="round" stroke-linejoin="round"/>
<path d="M206.752 118.209C206.554 118.213 206.357 118.239 206.164 118.286C206.46 118.004 206.684 117.654 206.817 117.267C206.95 116.881 206.988 116.467 206.928 116.063C206.868 115.658 206.712 115.273 206.473 114.942C206.233 114.61 205.918 114.341 205.552 114.156C205.187 113.972 204.783 113.878 204.374 113.882C203.965 113.886 203.563 113.989 203.201 114.181C202.84 114.373 202.53 114.649 202.298 114.986C202.066 115.323 201.918 115.71 201.866 116.116C201.702 115.77 201.463 115.466 201.165 115.225C200.868 114.984 200.52 114.813 200.147 114.725C199.775 114.636 199.388 114.633 199.014 114.714C198.64 114.796 198.289 114.96 197.987 115.195C197.685 115.431 197.44 115.731 197.27 116.074C197.099 116.416 197.008 116.793 197.003 117.176C196.997 117.558 197.078 117.937 197.239 118.285C197.4 118.632 197.637 118.939 197.932 119.182C197.602 119.347 197.311 119.583 197.081 119.871C196.85 120.16 196.685 120.495 196.596 120.853C196.507 121.212 196.498 121.586 196.567 121.948C196.637 122.311 196.785 122.655 197 122.955C197.215 123.255 197.493 123.505 197.814 123.688C198.135 123.87 198.492 123.981 198.86 124.012C199.228 124.044 199.599 123.995 199.946 123.869C200.293 123.743 200.609 123.544 200.872 123.284C200.93 123.925 201.229 124.521 201.708 124.951C202.187 125.382 202.812 125.614 203.455 125.603C204.099 125.591 204.715 125.336 205.179 124.889C205.642 124.442 205.919 123.836 205.954 123.193C206.212 123.279 206.481 123.326 206.752 123.333C207.432 123.333 208.083 123.063 208.564 122.583C209.044 122.102 209.314 121.45 209.314 120.771C209.314 120.092 209.044 119.44 208.564 118.959C208.083 118.479 207.432 118.209 206.752 118.209V118.209Z" stroke="#F7F8FA" stroke-linecap="round" stroke-linejoin="round"/>
<path d="M202.391 121.996C203.369 121.996 204.162 121.203 204.162 120.225C204.162 119.247 203.369 118.454 202.391 118.454C201.413 118.454 200.62 119.247 200.62 120.225C200.62 121.203 201.413 121.996 202.391 121.996Z" stroke="#F7F8FA" stroke-linecap="round" stroke-linejoin="round"/>
<path d="M155.527 138.362C155.326 138.366 155.126 138.392 154.932 138.439C155.229 138.157 155.455 137.808 155.59 137.421C155.724 137.034 155.764 136.62 155.705 136.214C155.646 135.809 155.49 135.423 155.25 135.09C155.011 134.758 154.695 134.487 154.329 134.302C153.964 134.117 153.559 134.023 153.149 134.028C152.739 134.032 152.336 134.135 151.974 134.328C151.613 134.521 151.303 134.798 151.07 135.136C150.838 135.473 150.691 135.862 150.641 136.269C150.39 135.747 149.968 135.325 149.446 135.074C148.924 134.822 148.332 134.756 147.767 134.885C147.202 135.014 146.698 135.332 146.337 135.786C145.977 136.24 145.781 136.802 145.783 137.382C145.783 137.756 145.866 138.124 146.026 138.462C146.186 138.8 146.418 139.098 146.707 139.335C146.376 139.501 146.086 139.736 145.855 140.024C145.624 140.313 145.459 140.648 145.371 141.007C145.282 141.365 145.272 141.739 145.342 142.102C145.411 142.464 145.559 142.808 145.774 143.108C145.989 143.408 146.267 143.658 146.588 143.841C146.909 144.023 147.266 144.134 147.634 144.165C148.003 144.197 148.373 144.148 148.72 144.022C149.068 143.896 149.384 143.697 149.647 143.437C149.715 144.07 150.017 144.655 150.494 145.076C150.972 145.497 151.589 145.724 152.226 145.713C152.862 145.701 153.471 145.452 153.933 145.014C154.395 144.576 154.676 143.981 154.722 143.346C154.98 143.436 155.252 143.484 155.527 143.486C156.206 143.486 156.858 143.216 157.338 142.736C157.819 142.255 158.089 141.604 158.089 140.924C158.089 140.245 157.819 139.593 157.338 139.112C156.858 138.632 156.206 138.362 155.527 138.362V138.362Z" stroke="#F7F8FA" stroke-linecap="round" stroke-linejoin="round"/>
<path d="M151.158 142.149C152.136 142.149 152.929 141.356 152.929 140.378C152.929 139.4 152.136 138.607 151.158 138.607C150.18 138.607 149.387 139.4 149.387 140.378C149.387 141.356 150.18 142.149 151.158 142.149Z" stroke="#F7F8FA" stroke-linecap="round" stroke-linejoin="round"/>
<path d="M154.127 106.526C154.001 106.528 153.877 106.545 153.756 106.575C153.913 106.428 154.039 106.251 154.124 106.053C154.21 105.855 154.253 105.642 154.253 105.427C154.272 105.011 154.127 104.604 153.849 104.294C153.571 103.983 153.182 103.795 152.767 103.768C152.351 103.742 151.942 103.879 151.626 104.151C151.311 104.424 151.116 104.809 151.082 105.224C150.979 105.009 150.83 104.82 150.645 104.67C150.459 104.521 150.243 104.415 150.011 104.36C149.779 104.306 149.538 104.304 149.306 104.355C149.073 104.406 148.855 104.509 148.668 104.655C148.48 104.802 148.328 104.989 148.222 105.202C148.117 105.416 148.061 105.65 148.058 105.888C148.055 106.126 148.106 106.362 148.206 106.578C148.307 106.793 148.455 106.984 148.639 107.135C148.376 107.263 148.154 107.462 147.998 107.709C147.842 107.957 147.758 108.243 147.757 108.535C147.747 108.857 147.835 109.174 148.009 109.445C148.184 109.716 148.436 109.928 148.733 110.053C149.03 110.178 149.357 110.21 149.673 110.145C149.988 110.081 150.277 109.922 150.501 109.69C150.545 110.084 150.734 110.447 151.032 110.708C151.33 110.969 151.715 111.11 152.111 111.102C152.507 111.094 152.886 110.938 153.174 110.665C153.461 110.393 153.636 110.022 153.665 109.627C153.824 109.686 153.992 109.717 154.162 109.718C154.585 109.718 154.991 109.55 155.29 109.251C155.589 108.951 155.758 108.545 155.758 108.122C155.758 107.699 155.589 107.293 155.29 106.993C154.991 106.694 154.585 106.526 154.162 106.526H154.127Z" stroke="#F7F8FA" stroke-linecap="round" stroke-linejoin="round"/>
<path d="M151.41 108.885C152.021 108.885 152.516 108.39 152.516 107.779C152.516 107.168 152.021 106.673 151.41 106.673C150.799 106.673 150.304 107.168 150.304 107.779C150.304 108.39 150.799 108.885 151.41 108.885Z" stroke="#F7F8FA" stroke-linecap="round" stroke-linejoin="round"/>
<path d="M139.699 155.4C139.576 155.402 139.454 155.419 139.335 155.449C139.49 155.301 139.614 155.123 139.698 154.925C139.782 154.728 139.825 154.516 139.825 154.301C139.823 153.898 139.669 153.512 139.393 153.219C139.116 152.926 138.739 152.748 138.338 152.723C137.936 152.697 137.539 152.825 137.228 153.08C136.917 153.335 136.714 153.699 136.661 154.098C136.558 153.885 136.408 153.697 136.223 153.549C136.038 153.401 135.822 153.297 135.591 153.243C135.36 153.189 135.12 153.188 134.889 153.239C134.657 153.29 134.44 153.392 134.254 153.538C134.067 153.683 133.915 153.869 133.809 154.081C133.703 154.293 133.646 154.526 133.642 154.763C133.638 155 133.687 155.235 133.785 155.451C133.884 155.666 134.029 155.857 134.211 156.009C134.007 156.112 133.827 156.259 133.684 156.438C133.542 156.617 133.439 156.825 133.385 157.048C133.33 157.27 133.324 157.502 133.367 157.727C133.411 157.952 133.502 158.165 133.635 158.351C133.769 158.538 133.941 158.693 134.139 158.807C134.338 158.92 134.56 158.99 134.788 159.01C135.016 159.03 135.246 159.001 135.462 158.924C135.677 158.847 135.874 158.724 136.038 158.564C136.082 158.958 136.272 159.321 136.57 159.582C136.868 159.843 137.253 159.984 137.649 159.976C138.045 159.968 138.424 159.812 138.711 159.539C138.998 159.267 139.174 158.896 139.202 158.501C139.361 158.559 139.529 158.59 139.699 158.592C140.122 158.592 140.528 158.424 140.828 158.125C141.127 157.825 141.295 157.419 141.295 156.996C141.295 156.573 141.127 156.167 140.828 155.867C140.528 155.568 140.122 155.4 139.699 155.4V155.4Z" stroke="#F7F8FA" stroke-linecap="round" stroke-linejoin="round"/>
<path d="M136.983 157.759C137.594 157.759 138.089 157.264 138.089 156.653C138.089 156.042 137.594 155.547 136.983 155.547C136.372 155.547 135.877 156.042 135.877 156.653C135.877 157.264 136.372 157.759 136.983 157.759Z" stroke="#F7F8FA" stroke-linecap="round" stroke-linejoin="round"/>
<path d="M170.681 80.0031C170.558 80.0052 170.436 80.0216 170.317 80.0521C170.5 79.8765 170.639 79.6596 170.721 79.4195C170.803 79.1793 170.827 78.9229 170.79 78.6718C170.753 78.4207 170.656 78.1822 170.508 77.9761C170.359 77.7701 170.164 77.6026 169.937 77.4877C169.711 77.3727 169.46 77.3137 169.207 77.3155C168.953 77.3173 168.703 77.3799 168.478 77.498C168.254 77.6161 168.061 77.7864 167.915 77.9945C167.77 78.2026 167.676 78.4425 167.643 78.6941C167.487 78.367 167.225 78.1028 166.899 77.9454C166.572 77.7879 166.202 77.7466 165.849 77.8282C165.497 77.9099 165.182 78.1097 164.958 78.3945C164.735 78.6793 164.615 79.0319 164.619 79.3941C164.619 79.6259 164.67 79.8549 164.769 80.0643C164.869 80.2738 165.013 80.4585 165.193 80.6051C164.87 80.7628 164.61 81.0254 164.455 81.35C164.301 81.6746 164.261 82.042 164.342 82.3922C164.423 82.7425 164.621 83.0548 164.902 83.2782C165.184 83.5015 165.533 83.6228 165.893 83.6221C166.1 83.6223 166.304 83.5816 166.495 83.5023C166.687 83.423 166.86 83.3067 167.006 83.1601C167.049 83.5538 167.238 83.9171 167.536 84.1787C167.833 84.4404 168.217 84.5816 168.613 84.5745C169.009 84.5675 169.389 84.4129 169.676 84.1409C169.964 83.8688 170.14 83.4991 170.17 83.1041C170.33 83.1592 170.498 83.1899 170.667 83.1951C171.09 83.1951 171.496 83.027 171.795 82.7276C172.095 82.4283 172.263 82.0224 172.263 81.5991C172.263 81.1758 172.095 80.7699 171.795 80.4706C171.496 80.1713 171.09 80.0031 170.667 80.0031H170.681Z" stroke="#F7F8FA" stroke-linecap="round" stroke-linejoin="round"/>
<path d="M167.965 82.362C168.576 82.362 169.071 81.8668 169.071 81.256C169.071 80.6452 168.576 80.15 167.965 80.15C167.355 80.15 166.859 80.6452 166.859 81.256C166.859 81.8668 167.355 82.362 167.965 82.362Z" stroke="#F7F8FA" stroke-linecap="round" stroke-linejoin="round"/>
<path d="M204.876 90.0761C204.751 90.0781 204.626 90.0946 204.505 90.1251C204.662 89.9783 204.788 89.8006 204.873 89.603C204.959 89.4055 205.003 89.1924 205.002 88.9771C205.021 88.561 204.876 88.1541 204.598 87.8438C204.32 87.5335 203.932 87.3448 203.516 87.3182C203.1 87.2916 202.691 87.4292 202.376 87.7015C202.061 87.9738 201.865 88.359 201.831 88.7741C201.729 88.5591 201.579 88.3698 201.394 88.2203C201.209 88.0708 200.992 87.9648 200.76 87.9102C200.529 87.8556 200.288 87.8538 200.055 87.9049C199.823 87.9559 199.605 88.0586 199.417 88.2053C199.23 88.352 199.077 88.5389 198.972 88.7523C198.866 88.9657 198.81 89.2001 198.807 89.4382C198.804 89.6763 198.855 89.9119 198.956 90.1277C199.056 90.3435 199.204 90.534 199.388 90.6851C199.125 90.813 198.903 91.0119 198.747 91.2593C198.591 91.5067 198.508 91.7927 198.506 92.0851C198.506 92.3986 198.599 92.7051 198.773 92.9662C198.947 93.2272 199.193 93.4314 199.482 93.5531C199.771 93.6748 200.09 93.7087 200.398 93.6505C200.706 93.5924 200.99 93.4447 201.215 93.2261C201.259 93.6198 201.449 93.9829 201.747 94.244C202.045 94.5052 202.429 94.6456 202.826 94.6377C203.222 94.6298 203.601 94.4742 203.888 94.2014C204.175 93.9286 204.35 93.5583 204.379 93.1631C204.538 93.2222 204.706 93.253 204.876 93.2541C205.299 93.2541 205.705 93.0859 206.004 92.7866C206.304 92.4873 206.472 92.0814 206.472 91.6581C206.472 91.2348 206.304 90.8288 206.004 90.5295C205.705 90.2302 205.299 90.0621 204.876 90.0621V90.0761Z" stroke="#F7F8FA" stroke-linecap="round" stroke-linejoin="round"/>
<path d="M202.16 92.435C202.771 92.435 203.266 91.9399 203.266 91.329C203.266 90.7182 202.771 90.223 202.16 90.223C201.549 90.223 201.054 90.7182 201.054 91.329C201.054 91.9399 201.549 92.435 202.16 92.435Z" stroke="#F7F8FA" stroke-linecap="round" stroke-linejoin="round"/>
<path d="M184.101 110.6C184.992 108.179 186.085 105.837 187.37 103.6C189.001 101.031 194.832 100.569 194.832 100.569C194.832 100.569 191.801 105.469 190.401 107.8C189.001 110.131 184.101 110.6 184.101 110.6Z" stroke="#F7F8FA" stroke-linecap="round" stroke-linejoin="round"/>
<path d="M184.101 110.6C184.101 110.6 188.532 104.3 193.67 101.269" stroke="#F7F8FA" stroke-linecap="round" stroke-linejoin="round"/>
<path d="M116.81 133.308C119.326 132.738 121.885 132.38 124.461 132.237C127.499 132.237 131.076 136.843 131.076 136.843C131.076 136.843 125.308 136.969 122.592 137.067C119.876 137.165 116.81 133.308 116.81 133.308Z" stroke="#F7F8FA" stroke-linecap="round" stroke-linejoin="round"/>
<path d="M116.81 133.308C116.81 133.308 124.51 133.595 129.851 136.241" stroke="#F7F8FA" stroke-linecap="round" stroke-linejoin="round"/>
<path d="M220.661 127.981C220.661 127.981 219.527 122.71 217.056 123.018C214.585 123.326 216.58 129.528 216.58 129.528C216.58 129.528 213.332 130.452 213.486 131.845C213.64 133.238 215.95 132.076 217.952 131.768C217.952 131.768 217.147 135.387 219.31 135.968C221.473 136.549 221.06 131.194 221.06 131.194C221.06 131.194 225.89 132.181 227.248 130.018C228.823 127.533 222.67 127.666 220.661 127.981Z" stroke="#F7F8FA" stroke-linecap="round" stroke-linejoin="round"/>
<path d="M220.662 126.357C220.662 126.357 216.154 133.21 216.42 133.931C216.686 134.652 221.565 127.981 222.377 127.169C223.189 126.357 221.747 125.181 220.662 126.357Z" fill="#263238" stroke="#F7F8FA" stroke-linecap="round" stroke-linejoin="round"/>
<path d="M222.376 127.169C222.376 127.169 225.351 124.46 226.793 125.545C228.235 126.63 226.527 126.805 226.345 126.448" stroke="#F7F8FA" stroke-linecap="round" stroke-linejoin="round"/>
<path d="M220.934 125.811C220.934 125.811 221.746 121.842 220.843 121.03C219.94 120.218 219.576 121.303 220.213 121.933" stroke="#F7F8FA" stroke-linecap="round" stroke-linejoin="round"/>
<path d="M177.801 94.8921C175.393 91.3921 171.669 94.8011 170.668 95.8441C169.66 94.8011 165.936 91.3781 163.528 94.8921C160.903 98.7071 170.577 106.659 170.668 106.624C170.759 106.589 180.412 98.7001 177.801 94.8921Z" stroke="#F7F8FA" stroke-linecap="round" stroke-linejoin="round"/>
<path d="M144.389 81.242C141.897 79.758 140.574 82.929 140.245 83.853C139.328 83.496 136.045 82.453 135.562 85.295C135.03 88.396 143.262 90.566 143.311 90.517C143.36 90.468 147.091 82.852 144.389 81.242Z" stroke="#F7F8FA" stroke-linecap="round" stroke-linejoin="round"/>
<path d="M121.157 110.11C118.266 109.893 118.49 113.323 118.616 114.31C117.636 114.401 114.234 114.912 115.067 117.684C115.97 120.701 124.314 118.965 124.328 118.902C124.342 118.839 124.293 110.348 121.157 110.11Z" stroke="#F7F8FA" stroke-linecap="round" stroke-linejoin="round"/>
<path d="M212.919 155.456C215.215 153.685 212.758 151.256 212.016 150.64C212.716 149.94 214.879 147.266 212.408 145.74C209.72 144.095 204.666 150.955 204.708 151.011C204.75 151.067 210.427 157.374 212.919 155.456Z" stroke="#F7F8FA" stroke-linecap="round" stroke-linejoin="round"/>
<path d="M199.535 108.346C201.104 106.89 202.857 105.648 204.75 104.65" stroke="#F7F8FA" stroke-linecap="round" stroke-linejoin="round"/>
<path d="M186.55 136.5C186.55 136.5 188.188 122.563 195.86 112.413" stroke="#F7F8FA" stroke-linecap="round" stroke-linejoin="round"/>
<path d="M165.858 142.415C166.52 143.439 167.118 144.503 167.65 145.6" stroke="#F7F8FA" stroke-linecap="round" stroke-linejoin="round"/>
<path d="M139.797 125.874C140.804 126.679 141.937 127.313 143.15 127.75C148.687 129.85 156.415 131.95 162.428 138.124" stroke="#F7F8FA" stroke-linecap="round" stroke-linejoin="round"/>
<path d="M137.201 119.35C136.928 120.818 137.176 122.336 137.901 123.641" stroke="#F7F8FA" stroke-linecap="round" stroke-linejoin="round"/>
<path d="M201.887 82.9921C203.646 81.393 205.092 79.4796 206.15 77.3501" stroke="#F7F8FA" stroke-linecap="round" stroke-linejoin="round"/>
<path d="M181.146 103.446C182.287 100.582 183.874 97.9166 185.85 95.5501C189.833 90.8111 194.124 88.5501 197.939 85.9951" stroke="#F7F8FA" stroke-linecap="round" stroke-linejoin="round"/>
<path d="M178.851 114.8C178.85 113.156 179.003 111.516 179.306 109.9" stroke="#F7F8FA" stroke-linecap="round" stroke-linejoin="round"/>
<path d="M200.676 143.206C203.588 141.736 207.676 140.63 213.15 141.05C226.8 142.1 233.1 146.3 239.05 138.25" stroke="#F7F8FA" stroke-linecap="round" stroke-linejoin="round"/>
<path d="M194.601 148.4C195.229 147.429 195.993 146.552 196.869 145.796" stroke="#F7F8FA" stroke-linecap="round" stroke-linejoin="round"/>
<path d="M223.622 111.545H221.753C220.626 111.545 218.568 110.236 219.506 109.109C220.444 107.982 223.622 110.607 223.622 110.607L220.822 101.808L226.814 99.0081L229.25 107.247C229.25 107.247 225.505 105.749 225.127 107.429C224.749 109.109 227.563 108.927 229.25 108.178" stroke="#F7F8FA" stroke-linecap="round" stroke-linejoin="round"/>
<path d="M221.375 103.677L227.178 100.87" stroke="#F7F8FA" stroke-linecap="round" stroke-linejoin="round"/>
<path d="M236.496 108.745H235.264C234.515 108.745 233.164 107.877 233.773 107.135C234.382 106.393 236.496 108.122 236.496 108.122L234.641 102.305L238.603 100.45L240.213 105.896C240.213 105.896 237.735 104.909 237.49 106.022C237.245 107.135 239.1 107.009 240.213 106.512" stroke="#F7F8FA" stroke-linecap="round" stroke-linejoin="round"/>
<path d="M235.011 103.544L238.847 101.689" stroke="#F7F8FA" stroke-linecap="round" stroke-linejoin="round"/>
<path d="M127.645 102.445H126.413C125.664 102.445 124.313 101.577 124.922 100.835C125.531 100.093 127.645 101.822 127.645 101.822L125.79 96.005L129.752 94.15L131.362 99.596C131.362 99.596 128.884 98.609 128.639 99.722C128.394 100.835 130.249 100.709 131.362 100.212" stroke="#F7F8FA" stroke-linecap="round" stroke-linejoin="round"/>
<path d="M126.161 97.244L129.997 95.389" stroke="#F7F8FA" stroke-linecap="round" stroke-linejoin="round"/>
<path d="M245 122.122C245 122.122 250.068 120.596 249.263 117.6C248.563 115.066 246.197 117.6 246.197 117.6C246.197 117.6 247.667 115.22 245.497 114.1C243.327 112.98 242.697 116.046 242.697 116.046C242.697 116.046 242.263 113.204 240.289 114.513C238.315 115.822 242.48 122.836 242.48 122.836L245 122.122Z" stroke="#F7F8FA" stroke-linecap="round" stroke-linejoin="round"/>
<path d="M238.504 132.937C240.486 129.878 241.827 126.449 242.445 122.857L244.601 116.193" stroke="#F7F8FA" stroke-linecap="round" stroke-linejoin="round"/>
<path d="M241.129 127.68C241.339 126.301 241.027 124.893 240.254 123.732C239.481 122.434 238.524 121.255 237.412 120.232C237.412 120.232 236.754 122.64 237.188 124.173C237.622 125.706 241.129 127.68 241.129 127.68Z" stroke="#F7F8FA" stroke-linecap="round" stroke-linejoin="round"/>
<path d="M240.479 129.43C241.33 128.699 242.423 128.31 243.545 128.338H247.702C247.702 128.338 242.446 132.496 240.479 129.43Z" stroke="#F7F8FA" stroke-linecap="round" stroke-linejoin="round"/>
<path d="M241.773 117.32L242.431 122.5L246.106 119.77" stroke="#F7F8FA" stroke-linecap="round" stroke-linejoin="round"/>
<path d="M127.029 144.711C127.029 144.711 123.711 140.595 121.24 142.464C119.14 144.053 122.395 145.306 122.395 145.306C122.395 145.306 119.63 144.844 119.441 147.287C119.252 149.73 122.29 149.1 122.29 149.1C122.29 149.1 119.819 150.577 121.779 151.9C123.739 153.223 128.667 146.734 128.667 146.734L127.029 144.711Z" stroke="#F7F8FA" stroke-linecap="round" stroke-linejoin="round"/>
<path d="M139.482 146.636C135.905 145.949 132.225 145.997 128.667 146.776L121.667 147.294" stroke="#F7F8FA" stroke-linecap="round" stroke-linejoin="round"/>
<path d="M133.623 146.181C132.267 146.506 131.082 147.325 130.298 148.477C129.386 149.683 128.655 151.015 128.128 152.432C128.128 152.432 130.606 152.138 131.859 151.151C133.112 150.164 133.623 146.181 133.623 146.181Z" stroke="#F7F8FA" stroke-linecap="round" stroke-linejoin="round"/>
<path d="M135.492 146.132C134.492 145.62 133.719 144.754 133.322 143.703C132.587 141.876 131.761 139.846 131.761 139.846C131.761 139.846 137.592 143.15 135.492 146.132Z" stroke="#F7F8FA" stroke-linecap="round" stroke-linejoin="round"/>
<path d="M123.788 149.485L128.338 146.923L124.425 144.55" stroke="#F7F8FA" stroke-linecap="round" stroke-linejoin="round"/>
<path d="M159.749 125.952L159.749 125.952L159.753 125.959C160.001 126.398 160.226 126.848 160.429 127.31C160.753 128.086 160.999 128.889 160.966 129.432C160.95 129.69 160.876 129.804 160.807 129.859C160.733 129.917 160.548 129.998 160.112 129.936L160.111 129.936C160.015 129.922 159.771 129.827 159.373 129.592C158.999 129.371 158.545 129.06 158.051 128.685C157.065 127.935 155.95 126.949 155.039 125.954C154.109 124.937 153.463 123.985 153.305 123.299C153.231 122.975 153.282 122.789 153.374 122.67C153.478 122.537 153.722 122.374 154.274 122.295C156.831 121.93 158.516 123.685 159.749 125.952Z" fill="#F7F8FA" stroke="#F7F8FA"/>
<path d="M156.018 97.0214L156.026 97.0359L156.034 97.0498C156.196 97.3052 156.45 97.796 156.696 98.3765C157.021 99.149 157.268 99.9539 157.234 100.498C157.218 100.757 157.145 100.872 157.075 100.927C157.001 100.985 156.816 101.067 156.38 101.005L156.38 101.005C156.284 100.991 156.039 100.896 155.642 100.661C155.267 100.44 154.813 100.129 154.32 99.7543C153.333 99.0044 152.218 98.0183 151.308 97.0229C150.378 96.0058 149.732 95.0541 149.574 94.3683C149.499 94.0445 149.55 93.8578 149.643 93.739C149.746 93.6064 149.99 93.4429 150.542 93.364C153.099 92.9987 154.777 94.7469 156.018 97.0214Z" fill="#F7F8FA" stroke="#F7F8FA"/>
<path d="M209.125 131.025L209.125 131.025C209.235 130.607 209.174 130.423 209.127 130.349C209.082 130.278 208.977 130.193 208.72 130.149C208.181 130.056 207.353 130.208 206.547 130.436C205.948 130.611 205.42 130.813 205.125 130.93C202.728 131.895 200.793 133.366 200.861 135.948L209.125 131.025ZM209.125 131.025C209.1 131.119 208.977 131.352 208.697 131.72M209.125 131.025L208.697 131.72M208.697 131.72C208.434 132.067 208.073 132.482 207.644 132.929M208.697 131.72L207.644 132.929M207.644 132.929C206.786 133.824 205.678 134.818 204.584 135.608M207.644 132.929L204.584 135.608M204.584 135.608C203.467 136.416 202.447 136.948 201.748 137.026M204.584 135.608L201.748 137.026M201.748 137.026C201.418 137.063 201.238 136.991 201.13 136.885M201.748 137.026L201.13 136.885M201.13 136.885C201.011 136.767 200.876 136.505 200.861 135.948L201.13 136.885Z" fill="#F7F8FA" stroke="#F7F8FA"/>
<path d="M212.849 104.304L212.848 104.304C212.367 104.444 211.892 104.609 211.428 104.798L211.426 104.799L211.426 104.799C209.027 105.764 207.093 107.229 207.161 109.81L212.849 104.304ZM212.849 104.304C213.653 104.07 214.481 103.917 215.019 104.01C215.276 104.054 215.381 104.14 215.426 104.212C215.474 104.288 215.535 104.475 215.425 104.894M212.849 104.304L215.425 104.894M215.425 104.894C215.4 104.987 215.277 105.219 214.998 105.586M215.425 104.894L214.998 105.586M214.998 105.586C214.734 105.932 214.374 106.348 213.944 106.794M214.998 105.586L213.944 106.794M213.944 106.794C213.086 107.688 211.978 108.681 210.884 109.471M213.944 106.794L210.884 109.471M210.884 109.471C209.767 110.278 208.747 110.81 208.048 110.888M210.884 109.471L208.048 110.888M208.048 110.888C207.718 110.925 207.538 110.853 207.43 110.747M208.048 110.888L207.43 110.747M207.43 110.747C207.31 110.629 207.176 110.367 207.161 109.81L207.43 110.747Z" fill="#F7F8FA" stroke="#F7F8FA"/>
<path d="M248.722 102.681L248.722 102.681C248.243 102.818 247.772 102.982 247.312 103.173L247.308 103.175L247.308 103.175C244.909 104.14 242.975 105.605 243.043 108.186L248.722 102.681ZM248.722 102.681L248.729 102.679M248.722 102.681L248.729 102.679M248.729 102.679C249.535 102.434 250.363 102.277 250.9 102.37C251.155 102.414 251.261 102.5 251.307 102.575C251.356 102.654 251.416 102.846 251.306 103.27M248.729 102.679L251.306 103.27M251.306 103.27C251.281 103.364 251.158 103.595 250.879 103.962C250.616 104.308 250.255 104.724 249.826 105.17C248.967 106.064 247.86 107.057 246.766 107.847C245.649 108.654 244.629 109.186 243.93 109.264C243.599 109.301 243.42 109.229 243.312 109.123C243.192 109.005 243.058 108.743 243.043 108.186L251.306 103.27Z" fill="#F7F8FA" stroke="#F7F8FA"/>
<path d="M149.75 126.189L149.75 126.189L149.753 126.196C149.828 126.372 149.895 126.554 149.941 126.722C149.987 126.893 150.004 127.023 150 127.108C149.976 127.107 149.943 127.104 149.899 127.096L149.887 127.094L149.875 127.093C149.878 127.093 149.877 127.093 149.87 127.09C149.847 127.081 149.767 127.05 149.617 126.963C149.445 126.863 149.233 126.719 148.997 126.541C148.526 126.185 147.994 125.715 147.561 125.243C147.109 124.749 146.836 124.328 146.775 124.064C146.763 124.01 146.764 123.982 146.765 123.969C146.782 123.955 146.848 123.911 147.034 123.884C148.117 123.741 148.857 124.459 149.444 125.538C149.558 125.749 149.66 125.966 149.75 126.189ZM149.993 127.165C149.993 127.165 149.993 127.164 149.994 127.162C149.993 127.164 149.993 127.165 149.993 127.165ZM146.768 123.96C146.768 123.96 146.768 123.962 146.766 123.965C146.767 123.961 146.768 123.96 146.768 123.96Z" stroke="#F7F8FA"/>
<path d="M129.345 107.391C130.236 106.773 131.213 107.079 132.235 107.788C132.246 107.796 132.257 107.804 132.269 107.813C132.402 107.908 132.601 108.052 132.8 108.221C133.109 108.489 133.344 108.752 133.422 108.936C133.425 108.943 133.428 108.95 133.43 108.956C133.41 108.967 133.379 108.982 133.333 108.998C133.333 108.998 133.332 108.998 133.328 108.998C133.307 109.001 133.219 109.01 133.033 108.997C132.834 108.983 132.578 108.949 132.287 108.895C131.705 108.787 131.018 108.607 130.42 108.379C130.121 108.266 129.853 108.144 129.635 108.018C129.412 107.889 129.268 107.772 129.191 107.679C129.154 107.634 129.142 107.607 129.139 107.595C129.146 107.578 129.183 107.505 129.345 107.391ZM133.44 108.994C133.44 108.994 133.44 108.993 133.44 108.991C133.44 108.993 133.44 108.994 133.44 108.994ZM133.461 108.934C133.462 108.933 133.462 108.932 133.463 108.932C133.463 108.932 133.462 108.933 133.461 108.934ZM129.138 107.588C129.138 107.588 129.138 107.59 129.138 107.593C129.137 107.589 129.137 107.588 129.138 107.588Z" stroke="#F7F8FA"/>
<path d="M157.919 116.619L157.919 116.619L157.921 116.623C157.994 116.799 158.06 116.982 158.105 117.152C158.151 117.322 158.168 117.453 158.164 117.54C158.141 117.538 158.111 117.535 158.072 117.528L158.06 117.526L158.048 117.524C158.051 117.525 158.049 117.524 158.043 117.522C158.022 117.513 157.94 117.482 157.786 117.392C157.615 117.292 157.402 117.147 157.166 116.969C156.695 116.613 156.163 116.143 155.73 115.671C155.514 115.436 155.329 115.206 155.19 114.996C155.048 114.781 154.972 114.612 154.944 114.494C154.932 114.441 154.932 114.412 154.934 114.4C154.951 114.386 155.018 114.342 155.203 114.315C156.279 114.172 157.02 114.883 157.614 115.969C157.727 116.18 157.829 116.397 157.919 116.619ZM158.156 117.6C158.156 117.6 158.156 117.599 158.157 117.597C158.156 117.599 158.156 117.6 158.156 117.6ZM158.223 117.537C158.225 117.537 158.225 117.537 158.225 117.537L158.223 117.537ZM154.937 114.391C154.937 114.391 154.937 114.393 154.935 114.396C154.936 114.392 154.936 114.391 154.937 114.391Z" fill="#F7F8FA" stroke="#F7F8FA"/>
<path d="M116.709 100.853L116.709 100.853L116.713 100.863C116.788 101.039 116.855 101.221 116.901 101.389C116.947 101.56 116.964 101.69 116.96 101.775C116.936 101.774 116.903 101.771 116.859 101.763L116.847 101.761L116.835 101.76C116.838 101.76 116.836 101.76 116.83 101.757C116.807 101.748 116.727 101.717 116.577 101.63C116.405 101.53 116.193 101.386 115.957 101.208C115.486 100.852 114.954 100.382 114.521 99.9102C114.069 99.4164 113.796 98.995 113.735 98.7312C113.723 98.6775 113.723 98.6487 113.725 98.6357C113.742 98.6224 113.808 98.5783 113.994 98.5514C115.078 98.4076 115.818 99.1206 116.404 100.205L116.404 100.205L116.405 100.206C116.519 100.415 116.62 100.631 116.709 100.853ZM116.953 101.832C116.953 101.832 116.953 101.831 116.954 101.829C116.953 101.831 116.953 101.832 116.953 101.832ZM113.728 98.6271C113.728 98.6273 113.728 98.6292 113.726 98.6322C113.727 98.6285 113.728 98.6269 113.728 98.6271Z" stroke="#F7F8FA"/>
<path d="M127.391 125.266L127.391 125.267L127.402 125.272C127.625 125.374 127.841 125.488 128.051 125.615C128.213 125.714 128.373 125.823 128.507 125.933C128.646 126.047 128.733 126.144 128.777 126.215C128.777 126.215 128.777 126.216 128.777 126.216C128.754 126.233 128.717 126.257 128.659 126.285L128.659 126.285L128.647 126.291C128.649 126.291 128.647 126.291 128.642 126.292C128.62 126.298 128.535 126.32 128.353 126.336C128.154 126.353 127.896 126.358 127.6 126.349C127.009 126.331 126.301 126.257 125.674 126.124C125.018 125.984 124.551 125.799 124.348 125.619C124.307 125.582 124.29 125.558 124.284 125.546C124.29 125.526 124.318 125.451 124.454 125.32C125.261 124.569 126.285 124.727 127.391 125.266ZM128.798 126.258C128.798 126.258 128.798 126.258 128.798 126.256C128.798 126.258 128.798 126.258 128.798 126.258ZM124.282 125.538C124.282 125.538 124.283 125.54 124.283 125.543C124.281 125.54 124.281 125.538 124.282 125.538Z" stroke="#F7F8FA"/>
<path d="M155.819 89.0886L155.819 89.0886L155.821 89.0923C155.895 89.2687 155.961 89.451 156.006 89.62C156.052 89.7912 156.068 89.9216 156.065 90.0075C156.041 90.0065 156.01 90.0035 155.969 89.9964L155.957 89.9943L155.945 89.9927C155.948 89.9931 155.946 89.9925 155.939 89.9899C155.916 89.9811 155.836 89.9504 155.686 89.8627C155.515 89.7627 155.302 89.6187 155.067 89.4408C154.596 89.0848 154.063 88.6151 153.631 88.1431C153.178 87.6493 152.905 87.2279 152.845 86.9641C152.832 86.9104 152.833 86.8816 152.835 86.8686C152.851 86.8553 152.918 86.8111 153.103 86.7842C154.178 86.6409 154.919 87.357 155.514 88.4386C155.627 88.6498 155.729 88.8667 155.819 89.0886ZM156.056 90.0658C156.056 90.0657 156.057 90.0647 156.057 90.063C156.057 90.065 156.057 90.0659 156.056 90.0658ZM156.122 90.0045C156.123 90.0041 156.123 90.004 156.123 90.004L156.122 90.0045ZM152.837 86.86C152.837 86.8602 152.837 86.8621 152.835 86.8651C152.836 86.8614 152.837 86.8598 152.837 86.86Z" stroke="#F7F8FA"/>
<path d="M181.91 121.464C183.366 123.396 184.514 117.691 184.227 116.935M181.91 121.464L182.311 121.165C182.31 121.165 182.31 121.165 182.31 121.164M181.91 121.464L182.309 121.163C182.309 121.163 182.309 121.164 182.31 121.164M181.91 121.464C181.049 120.309 181.476 119.042 182.176 117.964C182.26 117.831 182.421 117.593 182.61 117.348M184.227 116.935L183.745 116.981C183.745 116.981 183.744 116.982 183.742 116.982M184.227 116.935C183.877 115.997 183.121 116.704 182.61 117.348M184.227 116.935L182.61 117.348M182.31 121.164C182.424 121.315 182.495 121.352 182.514 121.36M182.31 121.164C181.649 120.277 181.922 119.273 182.595 118.236L182.595 118.236L182.598 118.231C182.674 118.111 182.826 117.887 183.003 117.656M182.514 121.36C182.513 121.36 182.512 121.361 182.511 121.361M182.514 121.36C182.518 121.361 182.52 121.362 182.52 121.362C182.52 121.362 182.519 121.362 182.519 121.362C182.516 121.361 182.513 121.361 182.511 121.361M182.514 121.36C182.526 121.355 182.552 121.342 182.593 121.305C182.684 121.224 182.795 121.075 182.916 120.846C183.033 120.623 183.145 120.351 183.248 120.047C183.454 119.44 183.609 118.746 183.696 118.16C183.739 117.868 183.763 117.611 183.769 117.411C183.775 117.226 183.763 117.139 183.76 117.117C183.759 117.112 183.759 117.111 183.759 117.113L183.758 117.11L183.758 117.11C183.737 117.054 183.719 117.018 183.705 116.995M182.511 121.361C182.507 121.361 182.506 121.361 182.506 121.362C182.506 121.362 182.507 121.362 182.511 121.361ZM183.705 116.995C183.725 116.986 183.737 116.983 183.742 116.982M183.705 116.995C183.701 116.996 183.696 116.998 183.692 117C183.614 117.037 183.505 117.115 183.375 117.241C183.249 117.361 183.122 117.507 183.003 117.656M183.705 116.995C183.689 116.968 183.679 116.96 183.679 116.96C183.679 116.96 183.685 116.966 183.699 116.972C183.721 116.981 183.736 116.982 183.742 116.982M183.742 116.982L183.003 117.656M183.003 117.656C183.003 117.657 183.002 117.658 183.001 117.659L182.61 117.348M183.003 117.656C183.004 117.655 183.005 117.654 183.006 117.653L182.61 117.348M183.003 117.656L182.61 117.348" stroke="#F7F8FA"/>
<path d="M193.109 136.164C194.565 138.096 195.713 132.391 195.426 131.635C195.076 130.697 194.32 131.404 193.809 132.048C193.62 132.293 193.459 132.531 193.375 132.664L193.109 136.164ZM193.798 132.931C193.874 132.811 194.025 132.587 194.203 132.356C194.321 132.207 194.448 132.061 194.574 131.941C194.705 131.815 194.813 131.737 194.891 131.7C194.896 131.698 194.9 131.696 194.904 131.695C194.918 131.717 194.937 131.754 194.957 131.81L194.957 131.81L194.958 131.812C194.958 131.811 194.958 131.812 194.959 131.817C194.962 131.839 194.974 131.926 194.969 132.111C194.963 132.311 194.938 132.568 194.895 132.86C194.809 133.446 194.653 134.14 194.447 134.747C194.345 135.051 194.233 135.323 194.115 135.546C193.995 135.775 193.883 135.924 193.792 136.005C193.751 136.042 193.726 136.055 193.713 136.06C193.694 136.052 193.623 136.015 193.509 135.864C192.848 134.977 193.121 133.973 193.794 132.936L193.794 132.936L193.798 132.931ZM194.944 131.681C194.944 131.681 194.943 131.681 194.941 131.682L194.944 131.681ZM193.705 136.062C193.705 136.061 193.707 136.061 193.71 136.061C193.707 136.062 193.705 136.062 193.705 136.062Z" fill="#2E2C2C" stroke="#F7F8FA"/>
<path d="M209.536 94.2826L209.546 94.2799L209.556 94.2769C209.946 94.1536 210.296 94.0997 210.488 94.1369C210.5 94.1392 210.51 94.1415 210.517 94.1436C210.518 94.1688 210.515 94.2116 210.499 94.278C210.499 94.2787 210.498 94.2799 210.497 94.2816C210.487 94.3004 210.444 94.3782 210.329 94.5232C210.204 94.6797 210.03 94.8712 209.82 95.08C209.399 95.4979 208.859 95.961 208.33 96.3248C208.066 96.5066 207.813 96.6584 207.586 96.7671C207.352 96.8786 207.174 96.9313 207.053 96.9421C207.001 96.9468 206.973 96.943 206.96 96.9397C206.949 96.9199 206.916 96.8472 206.916 96.6631L206.916 96.6606C206.911 95.5769 207.723 94.9392 208.883 94.4985L208.883 94.4985L208.887 94.4969C209.099 94.414 209.316 94.3424 209.536 94.2826ZM210.544 94.1539C210.544 94.1539 210.543 94.1534 210.542 94.1523C210.543 94.1532 210.544 94.1538 210.544 94.1539ZM210.514 94.1152C210.514 94.1145 210.514 94.1141 210.514 94.114L210.514 94.1152ZM206.951 96.9359C206.951 96.9357 206.953 96.9364 206.956 96.9384C206.952 96.9371 206.951 96.9361 206.951 96.9359ZM208.705 94.0311C207.508 94.4861 206.409 95.2421 206.416 96.6631L208.705 94.0311Z" stroke="#F7F8FA"/>
<path d="M182.221 85.878L182.221 85.8779C182.317 85.7691 182.503 85.5702 182.716 85.3637C183.014 85.0869 183.304 84.8782 183.497 84.8203C183.504 84.8184 183.51 84.8167 183.515 84.8154C183.525 84.8384 183.536 84.8738 183.547 84.9262C183.547 84.9254 183.547 84.927 183.547 84.9315C183.547 84.9533 183.545 85.0413 183.511 85.2211C183.474 85.4164 183.41 85.6653 183.322 85.9465C183.147 86.5091 182.887 87.1677 182.591 87.7342C182.282 88.3263 181.98 88.7274 181.751 88.8768C181.704 88.9081 181.675 88.9178 181.662 88.9205C181.644 88.9097 181.582 88.8637 181.495 88.7036C180.978 87.7499 181.4 86.8075 182.221 85.878ZM183.557 84.8087C183.557 84.8088 183.556 84.8088 183.554 84.8086C183.556 84.8086 183.557 84.8087 183.557 84.8087ZM183.496 84.7792C183.495 84.7782 183.495 84.7776 183.495 84.7776C183.495 84.7775 183.495 84.778 183.496 84.7792ZM181.654 88.9212C181.654 88.9209 181.655 88.9207 181.659 88.9211C181.655 88.9216 181.654 88.9214 181.654 88.9212Z" stroke="#F7F8FA"/>
<path d="M134.988 134.496L134.988 134.496L134.983 134.492C134.798 134.352 134.622 134.201 134.454 134.04C134.156 133.75 133.929 133.469 133.858 133.278C133.857 133.276 133.856 133.273 133.855 133.271C133.877 133.261 133.908 133.25 133.952 133.239L133.952 133.239L133.958 133.238C133.957 133.238 133.958 133.238 133.96 133.237C133.976 133.236 134.067 133.23 134.264 133.254C134.463 133.278 134.718 133.326 135.005 133.396C135.581 133.535 136.256 133.754 136.841 134.013C137.132 134.143 137.393 134.28 137.603 134.417C137.819 134.557 137.956 134.682 138.028 134.779C138.06 134.822 138.071 134.848 138.075 134.861C138.065 134.88 138.021 134.947 137.862 135.046L137.861 135.046C136.937 135.618 135.969 135.26 134.988 134.496ZM133.843 133.221C133.843 133.221 133.843 133.222 133.843 133.224C133.843 133.222 133.843 133.221 133.843 133.221ZM133.812 133.294C133.811 133.295 133.81 133.296 133.81 133.296C133.81 133.296 133.81 133.295 133.812 133.294ZM138.076 134.87C138.076 134.87 138.076 134.868 138.076 134.865C138.077 134.868 138.076 134.87 138.076 134.87Z" stroke="#F7F8FA"/>
<path d="M222.442 94.8342L222.441 94.8347C222.442 94.8332 222.441 94.8343 222.437 94.838C222.421 94.8534 222.358 94.9142 222.207 95.0165C222.042 95.1283 221.82 95.259 221.558 95.3954C221.034 95.6685 220.382 95.9489 219.771 96.1382C219.131 96.3362 218.633 96.403 218.368 96.3451C218.312 96.3329 218.285 96.3196 218.275 96.3123C218.27 96.2928 218.256 96.2143 218.311 96.0324C218.631 95.0014 219.59 94.6357 220.824 94.5591H220.824H220.825H220.826H220.827H220.828H220.829H220.83H220.831H220.832H220.833H220.834H220.835H220.836H220.837H220.838H220.839H220.84H220.841H220.842H220.843H220.844H220.845H220.846H220.847H220.848H220.849H220.85H220.851H220.853H220.854H220.855H220.856H220.857H220.858H220.859H220.86H220.861H220.862H220.863H220.864H220.866H220.867H220.868H220.869H220.87H220.871H220.872H220.873H220.874H220.875H220.877H220.878H220.879H220.88H220.881H220.882H220.883H220.885H220.886H220.887H220.888H220.889H220.89H220.891H220.893H220.894H220.895H220.896H220.897H220.898H220.9H220.901H220.902H220.903H220.904H220.905H220.907H220.908H220.909H220.91H220.911H220.913H220.914H220.915H220.916H220.917H220.919H220.92H220.921H220.922H220.924H220.925H220.926H220.927H220.928H220.93H220.931H220.932H220.933H220.935H220.936H220.937H220.938H220.94H220.941H220.942H220.943H220.945H220.946H220.947H220.948H220.95H220.951H220.952H220.954H220.955H220.956H220.957H220.959H220.96H220.961H220.963H220.964H220.965H220.966H220.968H220.969H220.97H220.972H220.973H220.974H220.976H220.977H220.978H220.98H220.981H220.982H220.984H220.985H220.986H220.988H220.989H220.99H220.992H220.993H220.994H220.996H220.997H220.998H221H221.001H221.002H221.004H221.005H221.006H221.008H221.009H221.011H221.012H221.013H221.015H221.016H221.017H221.019H221.02H221.022H221.023H221.024H221.026H221.027H221.029H221.03H221.031H221.033H221.034H221.036H221.037H221.038H221.04H221.041H221.043H221.044H221.046H221.047H221.048H221.05H221.051H221.053H221.054H221.056H221.057H221.058H221.06H221.061H221.063H221.064H221.066H221.067H221.069H221.07H221.071H221.073H221.074H221.076H221.077H221.079H221.08H221.082H221.083H221.085H221.086H221.088H221.089H221.091H221.092H221.094H221.095H221.096H221.098H221.099H221.101H221.102H221.104H221.105H221.107H221.108H221.11H221.111H221.113H221.114H221.116H221.117H221.119H221.121H221.122H221.124H221.125H221.127H221.128H221.13H221.131H221.133H221.134H221.136H221.137H221.139H221.14H221.142H221.143H221.145H221.147H221.148H221.15H221.151H221.153H221.154H221.156H221.157H221.159H221.16H221.162H221.164H221.165H221.167H221.168H221.17H221.171H221.173H221.175H221.176H221.178H221.179H221.181H221.182H221.184H221.186H221.187H221.189H221.19H221.192H221.194H221.195H221.197H221.198H221.2H221.202H221.203H221.205H221.206H221.208H221.21H221.211H221.213H221.214H221.216H221.218H221.219H221.221H221.222H221.224H221.226H221.227H221.229H221.231H221.232H221.234H221.235H221.237H221.239H221.24H221.242H221.244H221.245H221.247H221.249H221.25H221.252H221.253H221.255H221.257H221.258H221.26H221.262H221.263H221.265H221.267H221.268H221.27H221.272H221.273H221.275H221.277H221.278H221.28H221.282H221.283H221.285H221.287H221.288H221.29H221.292H221.293H221.295H221.297H221.298H221.3H221.302H221.303H221.305H221.307H221.308H221.31H221.312H221.313H221.315H221.317H221.318H221.32H221.322H221.324H221.325H221.327H221.329H221.33H221.332H221.334H221.335H221.337H221.339H221.341H221.342H221.344H221.346H221.347H221.349H221.351H221.353H221.354H221.356H221.358H221.359H221.361H221.363H221.365H221.366H221.368H221.37H221.371H221.373H221.375H221.377H221.378H221.38H221.382H221.384H221.385H221.387H221.389H221.39H221.392H221.394H221.396H221.397H221.399H221.401H221.403H221.404H221.406H221.408H221.41H221.411H221.413H221.415H221.417H221.418H221.42H221.422H221.424H221.425H221.427H221.429H221.431H221.432H221.434H221.436H221.438H221.439H221.441H221.443H221.445H221.446H221.448H221.45H221.452H221.454H221.455H221.457H221.459H221.461H221.462H221.464H221.466H221.468H221.469H221.471H221.473H221.475H221.477H221.478H221.48H221.482H221.484H221.485H221.487H221.489H221.491H221.493H221.494H221.496H221.498H221.5H221.501H221.503H221.505H221.507H221.509H221.51H221.512H221.514H221.516H221.518H221.519H221.521H221.523H221.525H221.527H221.528H221.53H221.532H221.534H221.535H221.537H221.539H221.541H221.543H221.544H221.546H221.548H221.55H221.552H221.553H221.553C221.962 94.5771 222.311 94.6351 222.486 94.7298C222.49 94.732 222.493 94.734 222.497 94.736C222.487 94.7589 222.47 94.7912 222.442 94.8342ZM218.268 96.3067C218.269 96.3066 218.27 96.3077 218.272 96.3105C218.269 96.3082 218.268 96.3068 218.268 96.3067ZM222.534 94.7622C222.534 94.7622 222.533 94.7615 222.532 94.7601C222.533 94.7614 222.534 94.7622 222.534 94.7622Z" stroke="#F7F8FA"/>
</svg>
