<svg width="695" height="876" viewBox="0 0 695 876" fill="none" xmlns="http://www.w3.org/2000/svg">
<ellipse cx="211" cy="438" rx="484" ry="438" fill="#DAF5F2"/>
<path d="M363.65 254.2C363.286 254.229 362.937 254.357 362.641 254.571C362.345 254.784 362.113 255.074 361.97 255.41L358.35 264.33C358.237 264.607 358.189 264.906 358.211 265.205C358.234 265.503 358.325 265.792 358.478 266.049C358.632 266.306 358.843 266.524 359.094 266.686C359.346 266.847 359.632 266.948 359.93 266.98C360.744 267.085 361.528 267.355 362.233 267.775C362.938 268.195 363.55 268.754 364.03 269.42C364.484 270.001 364.815 270.669 365.002 271.383C365.19 272.096 365.23 272.84 365.12 273.57C364.96 274.296 364.657 274.982 364.227 275.588C363.798 276.194 363.251 276.708 362.62 277.1C361.258 277.996 359.598 278.319 358 278C356.428 277.536 355.061 276.553 354.121 275.21C353.182 273.867 352.727 272.245 352.83 270.61C352.833 270.118 352.65 269.644 352.316 269.283C351.983 268.921 351.525 268.7 351.035 268.663C350.545 268.626 350.059 268.777 349.676 269.084C349.293 269.392 349.04 269.834 348.97 270.32C348.809 272.875 349.532 275.408 351.018 277.493C352.504 279.578 354.662 281.088 357.13 281.77C358.442 282.051 359.798 282.064 361.115 281.81C362.433 281.556 363.686 281.039 364.8 280.29C365.866 279.609 366.784 278.721 367.501 277.678C368.217 276.635 368.716 275.459 368.97 274.22C369.175 272.969 369.122 271.689 368.814 270.46C368.506 269.23 367.95 268.077 367.18 267.07C366.068 265.563 364.558 264.396 362.82 263.7L365.61 256.82C365.801 256.344 365.796 255.811 365.595 255.339C365.395 254.867 365.015 254.493 364.54 254.3C364.254 254.202 363.95 254.168 363.65 254.2Z" fill="#E0E0E0"/>
<path d="M367.64 251.45C367.763 251.164 367.799 250.847 367.743 250.54C367.686 250.234 367.541 249.95 367.324 249.726C367.107 249.502 366.829 249.347 366.524 249.281C366.219 249.215 365.902 249.24 365.611 249.354C365.321 249.468 365.071 249.665 364.893 249.921C364.714 250.177 364.615 250.48 364.609 250.791C364.602 251.103 364.688 251.41 364.855 251.673C365.023 251.936 365.264 252.144 365.549 252.27C365.935 252.438 366.372 252.446 366.764 252.292C367.156 252.138 367.471 251.835 367.64 251.45Z" fill="#E0E0E0"/>
<path d="M307.67 184.07C307.813 183.742 307.861 183.381 307.808 183.027C307.755 182.673 307.603 182.341 307.37 182.07L301.16 174.8C300.963 174.578 300.719 174.403 300.445 174.287C300.172 174.171 299.876 174.117 299.58 174.13C299.285 174.155 298.999 174.245 298.743 174.394C298.487 174.542 298.268 174.746 298.1 174.99C297.639 175.656 297.046 176.221 296.358 176.649C295.67 177.078 294.901 177.36 294.1 177.48C293.38 177.619 292.639 177.608 291.923 177.448C291.207 177.288 290.532 176.982 289.94 176.55C289.366 176.083 288.893 175.505 288.55 174.85C288.206 174.195 287.998 173.477 287.94 172.74C287.843 171.933 287.908 171.115 288.132 170.334C288.355 169.553 288.732 168.824 289.24 168.19C290.365 167.013 291.857 166.253 293.471 166.037C295.085 165.821 296.725 166.16 298.12 167C298.335 167.15 298.578 167.254 298.834 167.306C299.091 167.358 299.355 167.358 299.612 167.304C299.868 167.25 300.11 167.145 300.324 166.994C300.538 166.843 300.719 166.65 300.856 166.427C300.992 166.203 301.082 165.954 301.119 165.695C301.156 165.436 301.139 165.172 301.07 164.919C301.001 164.667 300.881 164.431 300.718 164.226C300.555 164.022 300.351 163.853 300.12 163.73C297.936 162.424 295.368 161.911 292.85 162.275C290.331 162.639 288.015 163.859 286.29 165.73C285.442 166.759 284.812 167.948 284.435 169.226C284.059 170.505 283.945 171.846 284.1 173.17C284.211 174.421 284.572 175.637 285.163 176.745C285.754 177.853 286.563 178.831 287.54 179.62C288.551 180.372 289.705 180.909 290.931 181.198C292.157 181.486 293.43 181.521 294.67 181.3C296.519 181.016 298.251 180.219 299.67 179L304.46 184.6C304.791 184.985 305.261 185.223 305.767 185.262C306.273 185.301 306.773 185.139 307.16 184.81C307.387 184.608 307.562 184.354 307.67 184.07Z" fill="#E0E0E0"/>
<path d="M308.28 188.85C308.545 189.173 308.928 189.378 309.344 189.42C309.761 189.461 310.176 189.335 310.5 189.07C310.823 188.805 311.028 188.422 311.07 188.005C311.111 187.589 310.985 187.173 310.72 186.85C310.589 186.69 310.427 186.557 310.244 186.459C310.062 186.361 309.862 186.301 309.655 186.28C309.449 186.26 309.241 186.28 309.043 186.34C308.845 186.4 308.66 186.499 308.5 186.63C308.34 186.761 308.207 186.923 308.109 187.105C308.011 187.288 307.95 187.488 307.93 187.694C307.91 187.901 307.93 188.109 307.99 188.307C308.05 188.505 308.149 188.69 308.28 188.85Z" fill="#E0E0E0"/>
<path d="M524.82 189.36H435.99V318.12H524.82V189.36Z" fill="#E0E0E0"/>
<path d="M520.37 189.36H431.54V318.12H520.37V189.36Z" fill="#F5F5F5"/>
<path d="M509.34 203.3H442.58V304.17H509.34V203.3Z" fill="white"/>
<path d="M509.34 304.17C509.34 304.17 509.34 304 509.34 303.68C509.34 303.36 509.34 302.87 509.34 302.25C509.34 300.98 509.34 299.13 509.34 296.72C509.34 291.88 509.34 284.84 509.28 275.94C509.28 258.15 509.22 232.94 509.18 203.3L509.4 203.53H442.64L442.88 203.28C442.88 241.34 442.88 276.42 442.83 304.15L442.64 303.96L491.23 304.06H504.65H508.18H509.4C509.4 304.06 509 304.06 508.22 304.06H504.73H491.35L442.64 304.17H442.44V303.97C442.44 276.24 442.44 241.16 442.44 203.1V202.86H442.68H509.44H509.66V203.08C509.61 232.8 509.58 258.08 509.55 275.86C509.55 284.74 509.5 291.77 509.49 296.59C509.49 298.98 509.49 300.82 509.49 302.08C509.49 302.69 509.49 303.16 509.49 303.49C509.49 303.82 509.34 304.17 509.34 304.17Z" fill="#E0E0E0"/>
<path d="M520.62 189.36C520.163 190.172 519.634 190.942 519.04 191.66C518.04 193.04 516.54 194.92 514.87 196.95C513.2 198.98 511.64 200.77 510.48 202.05C509.879 202.779 509.209 203.449 508.48 204.05C508.981 203.267 509.546 202.528 510.17 201.84L514.45 196.65L518.72 191.46C519.293 190.708 519.929 190.005 520.62 189.36Z" fill="#E0E0E0"/>
<path d="M509.68 303.85C512.997 309.127 516.902 314.012 521.32 318.41L509.68 303.85Z" fill="white"/>
<path d="M521.32 318.41C520.589 317.867 519.918 317.247 519.32 316.56C517.774 314.985 516.308 313.333 514.93 311.61C513.546 309.886 512.254 308.09 511.06 306.23C510.524 305.488 510.071 304.69 509.71 303.85C510.309 304.536 510.854 305.269 511.34 306.04C512.34 307.42 513.7 309.3 515.34 311.31C516.98 313.32 518.47 315.07 519.6 316.31C520.222 316.969 520.797 317.67 521.32 318.41Z" fill="#E0E0E0"/>
<path d="M431.53 318L443.16 303.64L431.53 318Z" fill="white"/>
<path d="M443.16 303.66C441.417 306.203 439.538 308.65 437.53 310.99C435.651 313.425 433.649 315.761 431.53 317.99C433.269 315.444 435.149 312.997 437.16 310.66C439.038 308.225 441.041 305.889 443.16 303.66Z" fill="#E0E0E0"/>
<path d="M431.54 189.36C433.541 191.509 435.427 193.762 437.19 196.11C439.068 198.349 440.827 200.686 442.46 203.11C440.452 200.967 438.565 198.714 436.81 196.36C434.927 194.124 433.168 191.787 431.54 189.36Z" fill="#E0E0E0"/>
<path d="M488.53 223.78H466.18V287.25H488.53V223.78Z" fill="#E0E0E0"/>
<path d="M182.399 195.012L175.29 195.051L175.481 230.41L182.591 230.372L182.399 195.012Z" fill="#E0E0E0"/>
<path d="M132.121 195.105L113.721 195.204L113.827 214.724L132.227 214.624L132.121 195.105Z" fill="#EBEBEB"/>
<path d="M150.44 195.005L132.04 195.105L132.146 214.625L150.545 214.525L150.44 195.005Z" fill="#F5F5F5"/>
<path d="M113.75 200.6C125.983 200.7 138.223 200.643 150.47 200.43C150.514 200.42 150.554 200.395 150.582 200.36C150.61 200.324 150.626 200.28 150.626 200.235C150.626 200.19 150.61 200.146 150.582 200.11C150.554 200.075 150.514 200.05 150.47 200.04C138.23 200 126 200 113.75 200.27C113.706 200.27 113.664 200.287 113.633 200.318C113.602 200.349 113.585 200.391 113.585 200.435C113.585 200.479 113.602 200.521 113.633 200.552C113.664 200.583 113.706 200.6 113.75 200.6Z" fill="#E0E0E0"/>
<path d="M135.695 214.305L102.255 214.486L102.341 230.396L135.781 230.215L135.695 214.305Z" fill="#EBEBEB"/>
<path d="M168.963 214.125L135.524 214.306L135.61 230.216L169.05 230.035L168.963 214.125Z" fill="#F5F5F5"/>
<path d="M102.27 218.91C124.48 219.16 146.77 218.91 168.98 218.58C169.024 218.57 169.064 218.545 169.092 218.51C169.12 218.474 169.136 218.43 169.136 218.385C169.136 218.34 169.12 218.296 169.092 218.26C169.064 218.225 169.024 218.2 168.98 218.19C146.77 218.07 124.47 218.09 102.27 218.58C102.226 218.58 102.184 218.597 102.153 218.628C102.122 218.659 102.105 218.701 102.105 218.745C102.105 218.789 102.122 218.831 102.153 218.862C102.184 218.893 102.226 218.91 102.27 218.91Z" fill="#E0E0E0"/>
<path d="M219.3 230.4H89.7598V236.1H219.3V230.4Z" fill="#E0E0E0"/>
<path d="M116.23 233.14H110.97V252.59H116.23V233.14Z" fill="#E0E0E0"/>
<path d="M194.73 233.14H189.47V252.59H194.73V233.14Z" fill="#E0E0E0"/>
<path d="M189.328 181.825L182.218 181.863L182.481 230.503L189.591 230.464L189.328 181.825Z" fill="#EBEBEB"/>
<path d="M200.427 190.885L189.387 190.945L189.6 230.354L200.64 230.294L200.427 190.885Z" fill="#F5F5F5"/>
<path d="M200.35 198.48C198.516 198.673 196.672 198.736 194.83 198.67C192.987 198.736 191.143 198.673 189.31 198.48C191.143 198.287 192.987 198.224 194.83 198.29C196.672 198.224 198.516 198.287 200.35 198.48Z" fill="#E0E0E0"/>
<path d="M200.35 196.82C198.517 197.019 196.672 197.086 194.83 197.02C192.987 197.086 191.142 197.019 189.31 196.82C191.143 196.633 192.987 196.57 194.83 196.63C196.672 196.57 198.516 196.633 200.35 196.82Z" fill="#E0E0E0"/>
<path d="M200.35 224.37C198.516 224.563 196.672 224.626 194.83 224.56C192.987 224.626 191.143 224.563 189.31 224.37C191.143 224.177 192.987 224.114 194.83 224.18C196.672 224.114 198.516 224.177 200.35 224.37Z" fill="#E0E0E0"/>
<path d="M200.35 222.71C198.517 222.909 196.672 222.976 194.83 222.91C192.987 222.976 191.142 222.909 189.31 222.71C191.143 222.523 192.987 222.46 194.83 222.52C196.672 222.46 198.516 222.523 200.35 222.71Z" fill="#E0E0E0"/>
<path d="M195 219.1C194.9 219.1 194.81 215.1 194.81 210.22C194.81 205.34 194.9 201.34 195 201.34C195.1 201.34 195.19 205.34 195.19 210.22C195.19 215.1 195.12 219.1 195 219.1Z" fill="#E0E0E0"/>
<path d="M212.49 200.57H200.47V230.32H212.49V200.57Z" fill="#EBEBEB"/>
<path d="M187.71 190.14C187.71 190.535 187.593 190.922 187.373 191.251C187.153 191.58 186.841 191.836 186.475 191.988C186.11 192.139 185.708 192.179 185.32 192.101C184.932 192.024 184.575 191.834 184.296 191.554C184.016 191.274 183.826 190.918 183.748 190.53C183.671 190.142 183.711 189.74 183.862 189.375C184.014 189.009 184.27 188.697 184.599 188.477C184.928 188.257 185.314 188.14 185.71 188.14C186.24 188.14 186.749 188.351 187.124 188.726C187.499 189.101 187.71 189.609 187.71 190.14Z" fill="#E0E0E0"/>
<path d="M186.3 195.76H185.04V224.69H186.3V195.76Z" fill="#E0E0E0"/>
<path d="M437.48 358.3H147.27V367.59H437.48V358.3Z" fill="#E0E0E0"/>
<path d="M173.6 598.29L164.18 598.25V366.37H173.6V598.29Z" fill="#E0E0E0"/>
<path d="M423.68 598.27H414.17L414.26 366.37H423.68V598.27Z" fill="#E0E0E0"/>
<path d="M259.73 272.86C259.73 272.86 311.53 327.13 310.62 339.18C309.71 351.23 298.11 353.83 294.33 353.36C290.55 352.89 262.06 321.18 262.06 321.18L259.73 272.86Z" fill="#F9BE00"/>
<g opacity="0.4">
<path opacity="0.4" d="M259.73 272.86C259.73 272.86 311.53 327.13 310.62 339.18C309.71 351.23 298.11 353.83 294.33 353.36C290.55 352.89 262.06 321.18 262.06 321.18L259.73 272.86Z" fill="black"/>
</g>
<path d="M287.33 540.98L301.38 587.97L317.16 579.4L308.19 536.38L287.33 540.98Z" fill="#FFBE9D"/>
<path d="M315.23 558.72L320.06 581C320.06 581 344.3 583.56 345.59 587.58L302.8 598.47L293.8 564.12L315.23 558.72Z" fill="#7D7B7B"/>
<path d="M306.36 582.49C305.98 582.72 305.699 583.082 305.57 583.506C305.44 583.931 305.473 584.388 305.66 584.79C305.874 585.178 306.23 585.468 306.652 585.601C307.075 585.733 307.533 585.697 307.93 585.5C308.332 585.256 308.629 584.871 308.764 584.42C308.899 583.97 308.862 583.485 308.66 583.06C308.393 582.679 307.989 582.416 307.532 582.326C307.075 582.237 306.601 582.328 306.21 582.58" fill="#E0E0E0"/>
<g opacity="0.4">
<path opacity="0.4" d="M302.8 598.47L302 595L343.32 585.83C343.32 585.83 345.43 586.18 345.56 587.57L302.8 598.47Z" fill="black"/>
</g>
<path d="M320.7 580.57C320.75 580.78 319.7 581.14 318.87 582.08C318.04 583.02 317.69 584.03 317.48 583.99C317.27 583.95 317.27 582.67 318.32 581.56C319.37 580.45 320.7 580.37 320.7 580.57Z" fill="#263238"/>
<path d="M325.66 581.28C325.76 581.47 324.95 582.06 324.46 583.12C323.97 584.18 324.01 585.17 323.8 585.22C323.59 585.27 323.16 584.11 323.8 582.8C324.44 581.49 325.61 581.08 325.66 581.28Z" fill="#263238"/>
<path d="M329.58 586C329.4 586.09 328.85 585.12 329.09 583.84C329.33 582.56 330.2 581.84 330.33 582.01C330.46 582.18 330.01 582.93 329.83 584.01C329.65 585.09 329.79 585.93 329.58 586Z" fill="#263238"/>
<path d="M319 575.62C319 575.84 317.92 575.79 316.76 576.17C315.6 576.55 314.76 577.17 314.62 577.01C314.48 576.85 315.16 575.89 316.54 575.46C317.92 575.03 319.1 575.43 319 575.62Z" fill="#263238"/>
<path d="M318 571.15C317.346 571.524 316.603 571.711 315.85 571.69C315.041 571.75 314.229 571.709 313.43 571.57C312.958 571.497 312.493 571.383 312.04 571.23C311.764 571.163 311.5 571.051 311.26 570.9C311.084 570.786 310.952 570.618 310.883 570.42C310.814 570.223 310.813 570.008 310.88 569.81C310.946 569.638 311.052 569.484 311.19 569.36C311.327 569.237 311.492 569.148 311.67 569.1C311.944 569.026 312.227 568.993 312.51 569C312.993 568.998 313.474 569.038 313.95 569.12C314.757 569.257 315.537 569.524 316.26 569.91C317.49 570.58 318.03 571.27 317.97 571.33C317.91 571.39 317.24 570.89 316.04 570.39C315.337 570.103 314.602 569.905 313.85 569.8C313.409 569.744 312.964 569.724 312.52 569.74C312.04 569.74 311.65 569.83 311.59 570.06C311.53 570.29 311.59 570.18 311.7 570.29C311.876 570.402 312.068 570.486 312.27 570.54C312.693 570.682 313.123 570.799 313.56 570.89C314.31 571.049 315.073 571.139 315.84 571.16C316.559 571.111 317.281 571.107 318 571.15Z" fill="#263238"/>
<path d="M317.78 571.52C317.72 571.57 317.11 570.93 316.69 569.6C316.448 568.817 316.343 567.999 316.38 567.18C316.403 566.691 316.474 566.206 316.59 565.73C316.637 565.418 316.763 565.123 316.955 564.873C317.148 564.623 317.401 564.426 317.69 564.3C317.875 564.261 318.067 564.275 318.244 564.341C318.421 564.406 318.575 564.52 318.69 564.67C318.865 564.892 319.006 565.138 319.11 565.4C319.313 565.86 319.438 566.35 319.48 566.85C319.569 567.68 319.449 568.519 319.13 569.29C318.58 570.62 317.77 571.09 317.74 571.02C318.074 570.405 318.371 569.77 318.63 569.12C318.844 568.411 318.902 567.664 318.8 566.93C318.737 566.505 318.616 566.092 318.44 565.7C318.26 565.26 317.99 564.94 317.84 565.03C317.69 565.12 317.35 565.52 317.27 565.92C317.149 566.345 317.068 566.78 317.03 567.22C316.967 567.969 317.011 568.723 317.16 569.46C317.46 570.74 317.89 571.46 317.78 571.52Z" fill="#263238"/>
<path d="M249.2 407C249.72 409.08 286.4 558.75 286.4 558.75L319.71 548.69L288.26 397.09L249.2 407Z" fill="#263238"/>
<path d="M244.29 215.75L238.47 260.47C238.237 262.272 238.372 264.102 238.867 265.85C239.362 267.599 240.207 269.228 241.35 270.64C242.494 272.052 243.912 273.217 245.519 274.064C247.127 274.912 248.889 275.424 250.7 275.57C254.136 275.845 257.545 274.787 260.223 272.617C262.9 270.446 264.639 267.328 265.08 263.91C265.51 260.54 265.88 257.74 265.95 257.39C265.95 257.39 277.48 257.81 279.76 246.65C280.87 241.25 282.24 229.96 283.37 219.73C283.95 214.428 282.513 209.103 279.344 204.813C276.176 200.523 271.508 197.584 266.27 196.58L265.19 196.37C253.42 194.81 245.53 203.94 244.29 215.75Z" fill="#FFBE9D"/>
<path d="M266 257.24C260.811 256.326 256.011 253.89 252.21 250.24C252.21 250.24 254.11 258.95 265.47 260.09L266 257.24Z" fill="#EB996E"/>
<path d="M280.17 226.05C280.092 226.466 279.855 226.835 279.51 227.079C279.165 227.324 278.738 227.424 278.32 227.36C277.912 227.301 277.544 227.082 277.297 226.752C277.05 226.423 276.943 226.008 277 225.6C277.076 225.183 277.312 224.812 277.658 224.568C278.003 224.323 278.432 224.223 278.85 224.29C279.258 224.349 279.626 224.568 279.873 224.898C280.12 225.228 280.227 225.642 280.17 226.05Z" fill="#263238"/>
<path d="M280.26 224.12C280.03 224.29 278.99 223.12 277.26 222.84C275.53 222.56 274.11 223.13 273.97 222.84C273.83 222.55 274.17 222.39 274.79 222.1C275.636 221.732 276.575 221.63 277.48 221.81C278.375 221.974 279.192 222.423 279.81 223.09C280.27 223.64 280.38 224.05 280.26 224.12Z" fill="#263238"/>
<path d="M262.88 223.59C262.802 224.008 262.564 224.38 262.217 224.626C261.87 224.873 261.441 224.974 261.02 224.91C260.814 224.887 260.614 224.822 260.433 224.721C260.251 224.619 260.092 224.482 259.965 224.318C259.837 224.154 259.744 223.966 259.689 223.766C259.635 223.565 259.622 223.356 259.65 223.15C259.728 222.734 259.965 222.365 260.31 222.121C260.655 221.876 261.082 221.776 261.5 221.84C261.706 221.862 261.906 221.925 262.088 222.026C262.269 222.126 262.429 222.262 262.558 222.425C262.686 222.588 262.781 222.775 262.836 222.975C262.892 223.175 262.906 223.384 262.88 223.59Z" fill="#263238"/>
<path d="M263.07 221.42C262.83 221.59 261.79 220.42 260.07 220.14C258.35 219.86 256.92 220.43 256.77 220.14C256.62 219.85 256.97 219.7 257.6 219.4C258.442 219.031 259.378 218.93 260.28 219.11C261.176 219.279 261.995 219.727 262.62 220.39C263.08 220.94 263.19 221.35 263.07 221.42Z" fill="#263238"/>
<path d="M266.74 235.78C267.7 235.659 268.671 235.659 269.63 235.78C270.07 235.78 270.51 235.78 270.63 235.52C270.764 235.08 270.764 234.61 270.63 234.17L269.97 230.57C269.08 225.47 268.53 221.3 268.73 221.27C268.93 221.24 269.83 225.35 270.73 230.45C270.93 231.71 271.13 232.91 271.32 234.06C271.495 234.64 271.46 235.264 271.22 235.82C271.126 235.964 271.001 236.084 270.854 236.172C270.706 236.261 270.541 236.315 270.37 236.33C270.118 236.357 269.863 236.357 269.61 236.33C268.635 236.259 267.672 236.075 266.74 235.78Z" fill="#263238"/>
<path d="M264.25 217.92C263.99 218.36 262.32 217.81 260.25 217.66C258.18 217.51 256.45 217.75 256.25 217.28C256.16 217.06 256.53 216.67 257.25 216.35C258.231 215.95 259.295 215.792 260.35 215.89C261.411 215.96 262.439 216.282 263.35 216.83C264.06 217.28 264.37 217.71 264.25 217.92Z" fill="#263238"/>
<path d="M281.06 217.87C280.68 218.2 279.57 217.56 278.15 217.27C276.73 216.98 275.47 217.03 275.27 216.57C275.19 216.35 275.45 215.99 276.05 215.72C276.839 215.41 277.702 215.339 278.531 215.517C279.36 215.695 280.118 216.114 280.71 216.72C281.14 217.27 281.23 217.7 281.06 217.87Z" fill="#263238"/>
<path d="M243.62 224.21C243.44 224.09 236.37 220.46 235.14 228.15C233.91 235.84 241.89 235.49 241.94 235.27C241.99 235.05 243.62 224.21 243.62 224.21Z" fill="#FFBE9D"/>
<path d="M240.05 232C240.05 232 239.91 232.07 239.66 232.14C239.492 232.185 239.318 232.195 239.146 232.171C238.974 232.147 238.809 232.089 238.66 232C237.89 231.58 237.41 230.18 237.6 228.78C237.684 228.117 237.917 227.481 238.28 226.92C238.389 226.692 238.553 226.494 238.757 226.343C238.961 226.193 239.199 226.096 239.45 226.06C239.61 226.044 239.77 226.084 239.903 226.174C240.036 226.263 240.134 226.396 240.18 226.55C240.25 226.78 240.18 226.93 240.18 226.95C240.18 226.97 240.36 226.84 240.35 226.52C240.336 226.319 240.255 226.129 240.12 225.98C239.929 225.793 239.677 225.683 239.41 225.67C239.082 225.687 238.763 225.787 238.484 225.962C238.206 226.137 237.977 226.381 237.82 226.67C237.388 227.284 237.113 227.995 237.02 228.74C236.82 230.3 237.38 231.88 238.44 232.38C238.638 232.471 238.852 232.519 239.07 232.519C239.288 232.519 239.503 232.471 239.7 232.38C240 232.17 240.08 232 240.05 232Z" fill="#EB996E"/>
<path d="M239.41 223.13C240.147 223.222 240.845 223.513 241.43 223.97C242.014 224.428 242.464 225.037 242.73 225.73C243.02 226.91 242.89 228.17 243.17 229.36C243.45 230.55 244.39 231.75 245.61 231.7C246.03 231.65 246.429 231.491 246.768 231.238C247.106 230.986 247.373 230.648 247.54 230.26C247.862 229.479 248.031 228.644 248.04 227.8C248.27 224.14 248.2 220.45 248.75 216.8C249.151 213.119 250.633 209.639 253.01 206.8C255.49 204.1 259.39 202.52 262.92 203.5C265.26 204.14 267.2 205.8 269.5 206.59C270.87 207.046 272.326 207.183 273.757 206.993C275.188 206.802 276.557 206.288 277.76 205.49C277.893 205.404 278.033 205.33 278.18 205.27C278.598 205.078 278.942 204.754 279.157 204.347C279.372 203.94 279.447 203.474 279.37 203.02C279.331 202.726 279.225 202.446 279.06 202.2C275.21 197 267 194.2 260.52 194.57C254.04 194.94 247.39 198.19 243.61 203.48C239.83 208.77 239.07 216.98 239.41 223.13Z" fill="#263238"/>
<path d="M270.2 241C268.53 240.756 266.929 240.167 265.5 239.27C266.348 239.304 267.179 239.516 267.94 239.89C268.762 240.1 269.531 240.478 270.2 241Z" fill="#263238"/>
<path d="M278.56 249.62C278.412 250.379 278.087 251.092 277.61 251.7C276.524 253.217 275.091 254.451 273.43 255.3C271.785 256.134 270.031 256.734 268.22 257.08C267.485 257.285 266.723 257.383 265.96 257.37C266.664 257.093 267.39 256.876 268.13 256.72C269.878 256.274 271.574 255.644 273.19 254.84C274.783 254.021 276.187 252.876 277.31 251.48C278.16 250.39 278.48 249.58 278.56 249.62Z" fill="#EB996E"/>
<path d="M273.14 255.33C270.43 256.68 268.44 260.33 266.72 262.75C266.136 263.443 265.718 264.26 265.5 265.14C265.419 266.097 265.588 267.058 265.99 267.93C266.48 269.26 266.99 270.57 267.59 271.87C267.75 272.25 267.96 272.66 268.36 272.75C268.76 272.84 269.28 272.37 269.49 271.9C269.873 270.682 270.085 269.416 270.12 268.14C270.154 267.503 270.342 266.884 270.67 266.337C270.998 265.789 271.454 265.33 272 265" fill="#EB996E"/>
<path d="M277.42 265.31L274.79 263.31C274.631 263.178 274.427 263.114 274.222 263.131C274.016 263.148 273.825 263.244 273.69 263.4L272.29 265.02L273.03 269.11C273.89 274.36 270.03 273.54 270.03 273.54L269.72 272.54L268.01 266.14C267.67 263.08 267.91 262.72 269.4 260.51L272.66 255.85C272.987 255.36 273.471 254.995 274.031 254.813C274.592 254.632 275.197 254.645 275.75 254.85C280.43 256.58 290.52 259.7 291.66 263.67C293.73 270.89 295.4 289.32 295.43 289.67L281.14 291L281.21 278.71C279.953 277.927 279.006 276.732 278.53 275.33C277.93 273.16 277.42 265.33 277.42 265.33" fill="#FFBE9D"/>
<path d="M287.29 267.72C287.29 267.72 287.14 267.97 286.75 268.3C286.194 268.785 285.528 269.128 284.81 269.3C284.3 269.415 283.77 269.415 283.26 269.3C282.655 269.147 282.12 268.795 281.74 268.3C280.9 267.3 280.74 265.88 280.04 264.85C279.61 264.379 279.115 263.971 278.57 263.64C278.056 263.309 277.522 263.012 276.97 262.75C276.529 262.485 276.025 262.344 275.51 262.34C275.076 262.479 274.679 262.715 274.35 263.03C273.06 264.22 272.35 265.12 272.28 265.03C272.21 264.94 272.41 264.78 272.71 264.37C273.132 263.793 273.597 263.248 274.1 262.74C274.466 262.36 274.919 262.075 275.42 261.91C275.579 261.879 275.742 261.879 275.9 261.91C276.049 261.936 276.196 261.973 276.34 262.02C276.625 262.103 276.903 262.21 277.17 262.34C277.75 262.591 278.308 262.889 278.84 263.23C279.447 263.585 279.994 264.034 280.46 264.56C281.3 265.78 281.4 267.17 282.11 268.02C282.428 268.392 282.839 268.671 283.302 268.83C283.765 268.988 284.261 269.019 284.74 268.92C285.417 268.793 286.061 268.527 286.63 268.14C287 267.86 287.26 267.69 287.29 267.72Z" fill="#EB996E"/>
<path d="M285.71 272.06C282.978 271.899 280.317 271.131 277.92 269.81C279.254 270.052 280.565 270.407 281.84 270.87C283.16 271.16 284.455 271.558 285.71 272.06Z" fill="#EB996E"/>
<path d="M280.64 265.37C276.9 265.37 276.46 265.2 272.23 265.43C271.598 265.434 270.971 265.535 270.37 265.73C270.069 265.83 269.796 266 269.573 266.226C269.351 266.452 269.185 266.727 269.09 267.03C268.8 268.19 269.97 269.24 271.09 269.51C272.21 269.78 273.49 269.57 274.65 269.84C276.492 270.166 278.156 271.142 279.34 272.59C281.78 276.04 284.34 274.38 286 275.59L290.36 272.83L288.82 266.39L280.6 265.39" fill="#FFBE9D"/>
<path d="M286.42 275.62C286.042 275.445 285.641 275.321 285.23 275.25C284.051 275.235 282.883 275.029 281.77 274.64C281.028 274.265 280.379 273.728 279.87 273.07C279.36 272.331 278.703 271.704 277.94 271.23C277.087 270.727 276.164 270.357 275.2 270.13C274.131 269.964 273.052 269.871 271.97 269.85C271.371 269.815 270.795 269.607 270.31 269.252C269.826 268.898 269.455 268.411 269.24 267.85C269.159 267.558 269.156 267.249 269.229 266.955C269.303 266.66 269.451 266.39 269.66 266.17C270.033 265.768 270.517 265.486 271.05 265.36C271.976 265.21 272.912 265.133 273.85 265.13C274.71 265.13 275.52 265.13 276.26 265.13C277.74 265.13 278.92 265.23 279.74 265.27C280.169 265.262 280.598 265.296 281.02 265.37C280.599 265.457 280.169 265.491 279.74 265.47C278.92 265.47 277.74 265.47 276.26 265.47C275.53 265.47 274.73 265.47 273.87 265.56C272.965 265.574 272.062 265.661 271.17 265.82C270.32 266 269.45 266.82 269.73 267.7C269.925 268.158 270.245 268.551 270.654 268.834C271.062 269.118 271.543 269.279 272.04 269.3C273.139 269.321 274.235 269.422 275.32 269.6C276.337 269.847 277.309 270.252 278.2 270.8C279.001 271.317 279.683 271.999 280.2 272.8C280.659 273.424 281.25 273.94 281.93 274.31C283.001 274.709 284.121 274.958 285.26 275.05C285.583 275.108 285.892 275.227 286.17 275.4C286.35 275.53 286.43 275.6 286.42 275.62Z" fill="#EB996E"/>
<path d="M280.22 262.45C280.22 262.39 280.49 262.34 280.88 262.51C281.132 262.632 281.351 262.814 281.516 263.041C281.682 263.267 281.789 263.531 281.829 263.808C281.868 264.086 281.839 264.369 281.743 264.633C281.647 264.896 281.488 265.132 281.28 265.32C280.96 265.6 280.69 265.62 280.66 265.56C280.63 265.5 280.82 265.36 281.01 265.08C281.252 264.729 281.362 264.304 281.32 263.88C281.236 263.482 281.013 263.127 280.69 262.88C280.43 262.61 280.21 262.53 280.22 262.45Z" fill="#EB996E"/>
<path d="M288.59 430.08L270.35 475.61L288.05 478.72L307.79 439.45L288.59 430.08Z" fill="#FFBE9D"/>
<path d="M299.39 461.32L289.39 481.75C289.39 481.75 306.77 498.82 305.28 502.75L264.98 484.68L279.33 452.22L299.39 461.32Z" fill="#7D7B7B"/>
<path d="M277.67 474.42C277.227 474.356 276.776 474.459 276.406 474.711C276.036 474.963 275.773 475.344 275.67 475.78C275.59 476.221 275.683 476.675 275.932 477.048C276.18 477.421 276.563 477.684 277 477.78C277.468 477.839 277.94 477.722 278.326 477.453C278.713 477.183 278.985 476.779 279.09 476.32C279.121 475.855 278.969 475.396 278.666 475.041C278.364 474.686 277.934 474.463 277.47 474.42" fill="#E0E0E0"/>
<g opacity="0.4">
<path opacity="0.4" d="M264.94 484.71L266.39 481.44L304.57 500C304.57 500 306.01 501.58 305.24 502.76L264.94 484.71Z" fill="black"/>
</g>
<path d="M290.09 481.83C290 482.03 288.97 481.68 287.72 481.88C286.47 482.08 285.58 482.67 285.44 482.51C285.3 482.35 286.09 481.35 287.61 481.13C289.13 480.91 290.21 481.67 290.09 481.83Z" fill="#263238"/>
<path d="M293.53 485.48C293.53 485.69 292.53 485.64 291.45 486.17C290.37 486.7 289.82 487.5 289.63 487.4C289.44 487.3 289.81 486.14 291.12 485.5C292.43 484.86 293.61 485.29 293.53 485.48Z" fill="#263238"/>
<path d="M293.67 491.61C293.47 491.61 293.67 490.47 294.67 489.61C295.67 488.75 296.78 488.74 296.79 488.94C296.8 489.14 295.97 489.46 295.17 490.17C294.37 490.88 293.87 491.68 293.67 491.61Z" fill="#263238"/>
<path d="M291.86 476.93C291.7 477.07 290.92 476.39 289.77 475.93C288.62 475.47 287.6 475.47 287.58 475.25C287.56 475.03 288.7 474.71 290.04 475.25C291.38 475.79 292 476.81 291.86 476.93Z" fill="#263238"/>
<path d="M293.82 472.77C293.084 472.646 292.394 472.328 291.82 471.85C291.15 471.398 290.538 470.864 290 470.26C289.678 469.903 289.384 469.522 289.12 469.12C288.945 468.895 288.81 468.641 288.72 468.37C288.652 468.174 288.653 467.96 288.722 467.764C288.791 467.568 288.924 467.401 289.1 467.29C289.259 467.196 289.438 467.141 289.622 467.129C289.806 467.117 289.99 467.148 290.16 467.22C290.416 467.337 290.655 467.489 290.87 467.67C291.255 467.972 291.613 468.307 291.94 468.67C292.482 469.284 292.924 469.979 293.25 470.73C293.625 471.388 293.783 472.147 293.7 472.9C293.58 472.9 293.4 472.1 292.77 470.96C292.407 470.296 291.956 469.684 291.43 469.14C291.117 468.824 290.783 468.53 290.43 468.26C290.05 467.96 289.69 467.79 289.5 467.94C289.31 468.09 289.41 468.02 289.44 468.18C289.509 468.377 289.607 468.562 289.73 468.73C289.975 469.107 290.238 469.47 290.52 469.82C291.011 470.407 291.553 470.949 292.14 471.44C293.13 472.27 293.87 472.66 293.82 472.77Z" fill="#263238"/>
<path d="M293.43 472.93C293.306 472.186 293.425 471.421 293.77 470.75C294.069 469.985 294.499 469.278 295.04 468.66C295.359 468.292 295.714 467.957 296.1 467.66C296.33 467.443 296.611 467.289 296.918 467.212C297.224 467.135 297.545 467.138 297.85 467.22C298.025 467.308 298.172 467.442 298.276 467.607C298.38 467.773 298.437 467.964 298.44 468.16C298.437 468.445 298.393 468.728 298.31 469C298.18 469.481 297.978 469.94 297.71 470.36C297.253 471.061 296.636 471.643 295.91 472.06C295.598 472.28 295.246 472.436 294.873 472.519C294.501 472.601 294.115 472.608 293.74 472.54C294.386 472.264 295.017 471.954 295.63 471.61C296.236 471.181 296.744 470.629 297.12 469.99C297.332 469.62 297.493 469.223 297.6 468.81C297.73 468.36 297.72 467.94 297.54 467.91C297.359 467.894 297.176 467.916 297.004 467.975C296.832 468.033 296.674 468.127 296.54 468.25C296.182 468.511 295.848 468.802 295.54 469.12C295.026 469.67 294.592 470.289 294.25 470.96C293.67 472.12 293.55 473 293.43 472.93Z" fill="#263238"/>
<path d="M253.68 375.48L309.84 348C314.653 345.642 320.099 344.901 325.367 345.886C330.636 346.872 335.445 349.532 339.08 353.47C342.475 357.151 344.682 361.77 345.411 366.724C346.141 371.678 345.36 376.737 343.17 381.24L305.91 457.86L274.74 448L302.15 389.6L271.31 413.1C262.982 419.44 252.826 422.913 242.36 423L234.28 423.07C227.627 422.793 221.158 420.808 215.496 417.305C209.833 413.802 205.168 408.899 201.95 403.07L253.68 375.48Z" fill="#263238"/>
<path d="M305.91 457.84C305.91 457.84 305.71 457.84 305.33 457.69L303.68 457.2L297.39 455.28L274.67 448.21L274.45 448.14L274.55 447.92C280.05 436.16 286.91 421.51 294.32 405.66C296.95 400.08 299.5 394.66 301.92 389.5L302.3 389.81C288.16 400.35 275.5 409.1 266.16 414.86C262.533 417.166 258.758 419.23 254.86 421.04C253.806 421.517 252.707 421.888 251.58 422.15C251.288 422.218 250.99 422.258 250.69 422.27H250.39C250.39 422.27 250.8 422.27 251.56 422.05C252.669 421.751 253.75 421.356 254.79 420.87C258.649 419.001 262.389 416.897 265.99 414.57C275.27 408.74 287.88 399.94 301.99 389.4L302.81 388.79L302.38 389.71C299.96 394.86 297.38 400.29 294.8 405.87C287.35 421.71 280.46 436.34 274.93 448.09L274.8 447.8L297.46 455.04L303.72 457.04L305.35 457.59L305.91 457.84Z" fill="#455A64"/>
<path d="M312.71 376.92C310.321 378.488 308.146 380.36 306.24 382.49C304.472 384.737 303.009 387.208 301.89 389.84C302.011 388.997 302.261 388.177 302.63 387.41C304.247 383.592 306.966 380.343 310.44 378.08C311.132 377.577 311.898 377.186 312.71 376.92Z" fill="#455A64"/>
<path d="M193.65 485.34H274.43C274.969 485.337 275.488 485.545 275.876 485.918C276.264 486.291 276.492 486.802 276.51 487.34C276.517 487.618 276.468 487.894 276.366 488.153C276.265 488.412 276.113 488.648 275.919 488.847C275.726 489.046 275.494 489.205 275.239 489.313C274.983 489.422 274.708 489.479 274.43 489.48H193.65C193.1 489.477 192.574 489.257 192.186 488.867C191.798 488.478 191.58 487.95 191.58 487.4C191.583 486.853 191.802 486.329 192.19 485.943C192.578 485.557 193.103 485.34 193.65 485.34Z" fill="#E0E0E0"/>
<path d="M263.81 433.91H200.62C200.62 432.303 200.937 430.711 201.552 429.226C202.167 427.741 203.069 426.392 204.205 425.255C205.342 424.118 206.691 423.217 208.176 422.602C209.661 421.987 211.253 421.67 212.86 421.67H251.56C253.168 421.669 254.761 421.984 256.247 422.599C257.733 423.213 259.084 424.115 260.222 425.251C261.359 426.388 262.262 427.738 262.877 429.224C263.493 430.709 263.81 432.302 263.81 433.91Z" fill="#455A64"/>
<path d="M265.79 433.91H199.13V437.62H265.79V433.91Z" fill="#E0E0E0"/>
<path d="M205.06 437.63L188.76 598.29H192.6L212.49 437.63H205.06Z" fill="#E0E0E0"/>
<path d="M259.36 437.63L275.65 598.21L271.82 598.23L251.94 437.69L259.36 437.63Z" fill="#E0E0E0"/>
<path d="M236.66 436.21L233.91 598.28H229.98L228.26 435.77L236.66 436.21Z" fill="#E0E0E0"/>
<path d="M235.38 260.07L239.34 248.05L265.47 260.14L264.27 272.86L251.25 276.56L238.47 268.73L235.38 260.07Z" fill="#F9BE00"/>
<path d="M202 403.1C200.839 402.278 199.898 401.183 199.26 399.912C198.622 398.641 198.306 397.232 198.34 395.81C198.34 390.99 202.64 390.59 202.78 387.92C204.21 360.37 207.33 303.3 209.39 285.29C211.98 262.59 238.58 257.8 238.58 257.8L260.53 263.19V264.85C268.13 274.62 271.42 289.35 271.43 301.73L270.43 367.31L202 403.1Z" fill="#F9BE00"/>
<path d="M226.63 366.37C226.392 366.768 226.118 367.143 225.81 367.49C225.27 368.19 224.44 369.18 223.4 370.38C221.32 372.79 218.33 376.02 214.81 379.38C211.29 382.74 207.93 385.58 205.43 387.54C204.17 388.54 203.15 389.3 202.43 389.82C202.072 390.114 201.683 390.369 201.27 390.58C201.572 390.241 201.907 389.933 202.27 389.66L205.16 387.26C207.6 385.26 210.92 382.35 214.42 379C217.92 375.65 220.95 372.48 223.1 370.14L225.63 367.35C225.928 366.989 226.263 366.661 226.63 366.37Z" fill="#263238"/>
<g opacity="0.2">
<path opacity="0.2" d="M205 387.83C205.08 383.68 208.19 380.26 211.27 377.47C214.869 374.199 218.699 371.191 222.73 368.47C222.93 370.47 221.55 372.3 220.21 373.84C215.706 378.983 210.723 383.688 205.33 387.89" fill="black"/>
</g>
<path d="M243.43 258.08C243.527 256.883 243.8 255.707 244.24 254.59C244.51 253.423 244.948 252.301 245.54 251.26C245.443 252.457 245.17 253.633 244.73 254.75C244.455 255.915 244.017 257.036 243.43 258.08Z" fill="#263238"/>
<path d="M253.62 254.67C253.619 255.847 253.44 257.017 253.09 258.14C252.921 259.299 252.584 260.428 252.09 261.49C252.092 260.313 252.27 259.144 252.62 258.02C252.789 256.861 253.126 255.732 253.62 254.67Z" fill="#263238"/>
<path d="M261.21 258.46C261.242 259.517 261.152 260.574 260.94 261.61C260.906 262.671 260.752 263.724 260.48 264.75C260.253 263.695 260.253 262.605 260.48 261.55C260.507 260.481 260.756 259.429 261.21 258.46Z" fill="#263238"/>
<path d="M234.83 322.64C234.468 322.713 234.099 322.74 233.73 322.72C233.01 322.72 231.98 322.72 230.73 322.72C228.18 322.72 224.66 322.72 220.73 322.61C216.8 322.5 213.31 322.44 210.73 322.34C209.45 322.34 208.42 322.25 207.73 322.2C207.356 322.209 206.983 322.169 206.62 322.08C206.986 322.015 207.358 321.988 207.73 322C208.45 322 209.48 322 210.73 322C213.28 322 216.8 322 220.73 322.11C224.66 322.22 228.15 322.27 230.73 322.37L233.73 322.51C234.101 322.504 234.471 322.547 234.83 322.64Z" fill="#FAFAFA"/>
<path d="M229.26 314.25C229.26 314.4 224.26 314.4 218.06 314.25C211.86 314.1 206.88 313.9 206.88 313.75C206.88 313.6 211.88 313.6 218.07 313.75C224.26 313.9 229.26 314.11 229.26 314.25Z" fill="#FAFAFA"/>
<g opacity="0.2">
<path opacity="0.2" d="M219.75 301.32C227.75 318.74 237.53 334.38 248.9 349.8C251.83 353.8 254.97 357.8 259.2 360.29C263.43 362.78 266.2 362.12 270.47 359.57C265.74 358.06 264.47 357.57 260.47 354.68C256.57 351.634 253.166 348 250.38 343.91C240.38 330.15 230.62 315.98 220.6 302.22" fill="black"/>
</g>
<path d="M302.92 326.09C303.028 324.933 303.343 323.806 303.85 322.76C304.107 322.237 304.497 321.791 304.982 321.468C305.467 321.145 306.028 320.956 306.61 320.92C306.897 320.917 307.181 320.977 307.443 321.093C307.705 321.21 307.939 321.382 308.129 321.598C308.319 321.813 308.46 322.067 308.543 322.342C308.626 322.616 308.649 322.906 308.61 323.19C308.36 323.827 307.982 324.405 307.5 324.89C306.23 326.63 306.35 328.98 306.36 331.13C306.37 333.28 306.1 335.74 304.36 337.03" fill="#FFBE9D"/>
<path d="M223.58 275.89C221.576 277.291 219.875 279.082 218.579 281.156C217.284 283.23 216.421 285.545 216.041 287.961C215.662 290.376 215.775 292.844 216.373 295.215C216.971 297.587 218.041 299.813 219.52 301.76L256.06 349.88C259.911 354.889 265.374 358.412 271.525 359.853C277.675 361.295 284.135 360.566 289.81 357.79C294.636 355.424 298.66 351.691 301.38 347.056C304.101 342.42 305.398 337.087 305.11 331.72L297.06 281.12L277.4 282.34L279.26 323.55L248.84 280.32C246.072 276.391 241.859 273.718 237.125 272.888C232.391 272.058 227.52 273.137 223.58 275.89Z" fill="#F9BE00"/>
<path d="M302.34 346.07C297.5 344.94 296.68 344.07 291.85 342.98C290.41 342.64 288.56 341.71 289.2 340.18C289.378 339.792 289.671 339.469 290.04 339.254C290.409 339.039 290.835 338.943 291.26 338.98C293.14 339.14 296.17 340.26 297.99 340.43C298.44 340.43 298.43 340.02 298.23 339.71C295.287 338.822 292.278 338.173 289.23 337.77C288.801 337.713 288.398 337.531 288.071 337.248C287.744 336.964 287.506 336.591 287.388 336.174C287.27 335.758 287.277 335.316 287.407 334.903C287.537 334.49 287.785 334.124 288.12 333.85C288.522 333.644 288.96 333.518 289.41 333.48C291.35 333.76 291.35 333.76 293.41 334.12C299.2 335.12 298.41 333.98 298.41 333.98C298.41 333.54 291.82 332.9 288.41 332.49C287.672 332.497 286.958 332.226 286.41 331.73C286.166 331.363 286.056 330.923 286.098 330.484C286.139 330.045 286.331 329.634 286.64 329.32C286.932 328.98 287.288 328.702 287.688 328.501C288.088 328.3 288.524 328.181 288.97 328.15C292.74 328.08 305.12 329.46 305.12 329.46C305.12 329.46 306.74 331.66 306.24 336.17C305.73 341.11 302.34 346.07 302.34 346.07Z" fill="#FFBE9D"/>
<path d="M284.83 359.57C284.83 359.57 284.65 359.57 284.31 359.65L282.77 359.81C281.41 359.93 279.41 360.12 276.77 360.15C273.614 360.231 270.465 359.796 267.45 358.86C263.509 357.385 259.98 354.984 257.16 351.86C253.731 348.161 250.509 344.275 247.51 340.22C244.22 335.89 240.78 331.22 237.2 326.27C233.62 321.32 229.92 316.09 226.11 310.64L220.34 302.31C219.85 301.6 219.34 300.89 218.88 300.17L218.18 299.06C217.945 298.688 217.734 298.3 217.55 297.9C216.752 296.309 216.199 294.606 215.91 292.85C215.602 291.096 215.568 289.304 215.81 287.54C215.922 286.667 216.089 285.802 216.31 284.95C216.556 284.112 216.853 283.291 217.2 282.49C217.548 281.697 217.949 280.929 218.4 280.19C218.861 279.462 219.372 278.767 219.93 278.11C221.018 276.803 222.288 275.658 223.7 274.71C225.091 273.782 226.597 273.039 228.18 272.5C229.741 271.999 231.362 271.706 233 271.63C236.185 271.485 239.353 272.175 242.19 273.63C244.873 275.031 247.176 277.062 248.9 279.55C250.553 281.923 252.15 284.23 253.69 286.47L262.29 298.89L274.71 316.89L278.07 321.8C278.44 322.35 278.72 322.8 278.93 323.08L279.21 323.53C279.093 323.396 278.983 323.256 278.88 323.11L277.98 321.86L274.6 317L262 299.11L253.35 286.72L248.53 279.82C246.843 277.402 244.596 275.43 241.98 274.07C237.748 271.946 232.847 271.586 228.35 273.07C226.813 273.599 225.35 274.325 224 275.23C222.622 276.144 221.385 277.256 220.33 278.53C219.792 279.162 219.298 279.831 218.85 280.53C218.41 281.248 218.023 281.997 217.69 282.77C217.345 283.546 217.055 284.344 216.82 285.16C216.601 285.988 216.437 286.83 216.33 287.68C215.908 291.108 216.499 294.584 218.03 297.68C218.84 299.193 219.756 300.646 220.77 302.03L226.54 310.37C230.34 315.82 234.04 321.05 237.6 326C241.16 330.95 244.6 335.64 247.86 340C250.841 344.053 254.039 347.943 257.44 351.65C260.207 354.753 263.672 357.152 267.55 358.65C270.534 359.596 273.65 360.055 276.78 360.01C279.36 360.01 281.36 359.85 282.72 359.76L284.26 359.66C284.65 359.57 284.83 359.57 284.83 359.57Z" fill="#263238"/>
<path d="M281.35 338.65C282.607 333.25 281.703 327.572 278.83 322.83C279.411 323.412 279.887 324.088 280.24 324.83C281.197 326.568 281.843 328.46 282.15 330.42C282.462 332.377 282.435 334.373 282.07 336.32C281.964 337.132 281.72 337.92 281.35 338.65Z" fill="#263238"/>
<path d="M281.84 287.71C281.373 286.887 281.131 285.956 281.14 285.01C280.976 284.078 281.059 283.12 281.38 282.23C281.575 283.13 281.669 284.049 281.66 284.97C281.823 285.874 281.883 286.793 281.84 287.71Z" fill="#263238"/>
<path d="M287.26 287.21C286.419 285.553 286.172 283.657 286.56 281.84C286.796 282.715 286.931 283.614 286.96 284.52C287.16 285.403 287.261 286.305 287.26 287.21Z" fill="#263238"/>
<path d="M292.63 286C292.33 285.307 292.2 284.553 292.25 283.8C292.126 283.056 292.174 282.293 292.39 281.57C292.684 282.264 292.814 283.017 292.77 283.77C292.888 284.515 292.841 285.276 292.63 286Z" fill="#263238"/>
<path d="M259.52 297.19C259.6 297.3 253.4 301.74 245.67 307.1C237.94 312.46 231.61 316.71 231.52 316.59C231.43 316.47 237.64 312.03 245.37 306.67C253.1 301.31 259.44 297.07 259.52 297.19Z" fill="#FAFAFA"/>
<path d="M254.68 289.93C254.346 290.246 253.981 290.527 253.59 290.77L250.54 292.91C247.95 294.71 244.4 297.23 240.54 300.08C236.68 302.93 233.24 305.61 230.76 307.55C229.58 308.48 228.6 309.25 227.82 309.85C227.476 310.155 227.101 310.423 226.7 310.65C226.997 310.282 227.332 309.946 227.7 309.65C228.36 309.06 229.33 308.23 230.54 307.22C232.96 305.22 236.37 302.48 240.24 299.62C244.11 296.76 247.7 294.28 250.34 292.55C251.66 291.69 252.73 291 253.49 290.55C253.865 290.304 254.264 290.097 254.68 289.93Z" fill="#FAFAFA"/>
<path d="M494.81 540.65H426.77V550H494.81V540.65Z" fill="#02A1FC"/>
<path d="M494.92 550.11H426.65V540.53H494.92V550.11ZM426.92 549.88H494.73V540.76H426.88L426.92 549.88Z" fill="#02A1FC"/>
<path d="M433.07 546.88L442.87 595.2H479.11L488.57 550L433.07 546.88Z" fill="#02A1FC"/>
<path d="M433.07 590.63L438.3 597.81H482.35L488.57 590.63H433.07Z" fill="#455A64"/>
<path d="M458.23 548.3C458.1 548.3 457.93 525.91 457.85 498.3C457.77 470.69 457.85 448.3 457.95 448.3C458.05 448.3 458.26 470.68 458.33 498.3C458.4 525.92 458.37 548.29 458.23 548.3Z" fill="#585757"/>
<path d="M473.39 492.28C473.345 492.458 473.285 492.632 473.21 492.8L472.6 494.25C472.46 494.57 472.31 494.91 472.15 495.25L471.7 496.52C471.54 496.98 471.36 497.47 471.18 497.98C471 498.49 470.85 499.06 470.67 499.64C469.865 502.375 469.23 505.157 468.77 507.97C468.257 511.424 467.923 514.902 467.77 518.39C467.523 524.728 467.7 531.076 468.3 537.39C468.52 539.82 468.74 541.78 468.91 543.14C468.98 543.77 469.03 544.29 469.08 544.7C469.104 544.883 469.104 545.068 469.08 545.25C469.028 545.076 468.988 544.899 468.96 544.72C468.89 544.31 468.81 543.79 468.7 543.16C468.48 541.81 468.21 539.85 467.94 537.42C467.233 531.086 467.005 524.708 467.26 518.34C467.435 514.833 467.802 511.337 468.36 507.87C468.837 505.041 469.506 502.248 470.36 499.51C470.55 498.93 470.7 498.37 470.9 497.85C471.1 497.33 471.28 496.85 471.46 496.4L471.95 495.13C472.12 494.75 472.29 494.41 472.44 494.13L473.13 492.72C473.198 492.563 473.285 492.415 473.39 492.28Z" fill="#585757"/>
<path d="M471.65 474.17C471.595 474.422 471.521 474.669 471.43 474.91L470.72 476.99C470.57 477.45 470.39 477.99 470.2 478.49C470.01 478.99 469.85 479.65 469.66 480.3C469.26 481.6 468.8 483.07 468.39 484.72L467.7 487.31C467.5 488.22 467.29 489.16 467.07 490.14C466.59 492.09 466.25 494.21 465.81 496.42C465.06 500.86 464.4 505.78 463.94 510.96C463.48 516.14 463.33 521.11 463.26 525.62C463.19 530.13 463.26 534.19 463.49 537.62C463.55 539.33 463.66 540.87 463.75 542.22C463.84 543.57 463.91 544.74 464 545.69C464.09 546.64 464.12 547.33 464.16 547.88C464.187 548.136 464.187 548.394 464.16 548.65C464.095 548.401 464.055 548.147 464.04 547.89C463.97 547.35 463.89 546.62 463.78 545.71C463.67 544.8 463.55 543.59 463.45 542.24C463.35 540.89 463.2 539.35 463.12 537.64C462.89 534.23 462.8 530.16 462.78 525.64C462.76 521.12 463 516.14 463.43 510.94C463.86 505.74 464.56 500.81 465.34 496.36C465.79 494.14 466.15 492.02 466.64 490.07C466.87 489.07 467.1 488.15 467.31 487.24L468.03 484.65C468.46 483 468.94 481.53 469.37 480.24C469.58 479.6 469.77 479 469.95 478.44L470.52 476.95L471.31 474.9C471.402 474.647 471.516 474.403 471.65 474.17Z" fill="#585757"/>
<path d="M453.93 552.26C453.92 552.17 453.92 552.08 453.93 551.99C453.93 551.79 453.93 551.54 453.86 551.22C453.86 550.51 453.75 549.52 453.66 548.22C453.5 545.61 453.27 541.89 452.98 537.32C452.39 528.11 451.54 515.39 449.98 501.41C449.19 494.41 448.27 487.78 447.32 481.76C446.81 478.76 446.32 475.89 445.83 473.23C445.34 470.57 444.83 468.09 444.36 465.84C443.89 463.59 443.41 461.55 443.01 459.76C442.61 457.97 442.23 456.44 441.92 455.19L441.21 452.31C441.14 452 441.08 451.75 441.04 451.56C441.017 451.471 441.001 451.381 440.99 451.29C441.031 451.37 441.065 451.454 441.09 451.54C441.14 451.74 441.21 451.98 441.3 452.28L442.1 455.15C442.45 456.39 442.85 457.92 443.27 459.7C443.69 461.48 444.22 463.5 444.69 465.76C445.16 468.02 445.69 470.49 446.22 473.16C446.75 475.83 447.22 478.68 447.76 481.69C448.76 487.69 449.67 494.36 450.46 501.36C452.01 515.36 452.81 528.08 453.31 537.3C453.56 541.9 453.74 545.63 453.84 548.21C453.89 549.47 453.93 550.46 453.95 551.21V551.98C453.955 552.074 453.948 552.168 453.93 552.26Z" fill="#585757"/>
<path d="M457.68 459.07C457.38 455.9 454.18 453.5 450.99 453.47C449.395 453.542 447.837 453.975 446.434 454.738C445.03 455.5 443.819 456.571 442.89 457.87C441.056 460.485 439.733 463.423 438.99 466.53C436.84 474 435.67 481.85 436.59 489.53C437.51 497.21 440.64 504.84 446.18 510.3C447.08 511.18 448.24 512.07 449.48 511.81C450.144 511.607 450.744 511.235 451.22 510.73C456.649 505.775 460.955 499.717 463.849 492.961C466.743 486.205 468.158 478.908 468 471.56C467.92 468.63 467.53 465.56 465.91 463.13C464.29 460.7 460.49 458.13 457.73 459.07" fill="#28BB46"/>
<path d="M433.89 433.67L429.41 441.79C429.3 441.98 429.17 442.19 428.95 442.21C428.73 442.23 428.54 442.01 428.41 441.81L416.55 423.61L419.28 422.06L433.89 433.67Z" fill="#28BB46"/>
<g opacity="0.2">
<path opacity="0.2" d="M433.89 433.67L429.41 441.79C429.3 441.98 429.17 442.19 428.95 442.21C428.73 442.23 428.54 442.01 428.41 441.81L416.55 423.61L419.28 422.06L433.89 433.67Z" fill="black"/>
</g>
<path d="M458 448.31L417.5 424.44C417.052 424.245 416.695 423.888 416.5 423.44C416.34 422.84 416.79 422.27 417.22 421.82C420.001 418.933 423.372 416.681 427.103 415.215C430.834 413.75 434.838 413.107 438.84 413.33C442.839 413.617 446.707 414.873 450.112 416.99C453.516 419.107 456.354 422.021 458.38 425.48C462.29 432.48 462.38 441.68 457.94 448.31" fill="#28BB46"/>
<path d="M423.33 416.82C423.503 416.773 423.681 416.75 423.86 416.75C424.21 416.75 424.72 416.67 425.39 416.68C427.27 416.649 429.148 416.797 431 417.12C437.169 418.16 442.912 420.943 447.551 425.14C452.19 429.338 455.531 434.775 457.18 440.81C457.687 442.624 458.022 444.483 458.18 446.36C458.225 446.748 458.248 447.139 458.25 447.53C458.214 447.847 458.104 448.152 457.93 448.42C458.056 447.761 458.079 447.086 458 446.42C457.765 444.569 457.38 442.739 456.85 440.95C455.159 435.008 451.835 429.66 447.254 425.514C442.673 421.368 437.021 418.592 430.94 417.5C429.106 417.153 427.246 416.952 425.38 416.9C424.06 416.84 423.33 416.86 423.33 416.82Z" fill="#585757"/>
<path d="M452.47 431.83C451.842 432.216 451.17 432.528 450.47 432.76C449.18 433.27 447.38 433.92 445.36 434.56C443.34 435.2 441.5 435.71 440.16 436.04C439.44 436.258 438.7 436.398 437.95 436.46C438.629 436.134 439.339 435.88 440.07 435.7L445.22 434.1L450.35 432.44C451.035 432.167 451.745 431.963 452.47 431.83Z" fill="#585757"/>
<path d="M446.1 414.72C446.658 417.688 446.736 420.727 446.33 423.72C446.135 422.222 446.058 420.71 446.1 419.2C445.988 417.709 445.988 416.211 446.1 414.72Z" fill="#585757"/>
<path d="M417.14 424C418.091 423.587 419.074 423.253 420.08 423C421.92 422.43 424.48 421.72 427.33 421C430.18 420.28 432.79 419.78 434.69 419.45C435.704 419.227 436.734 419.086 437.77 419.03C436.791 419.359 435.788 419.613 434.77 419.79C432.9 420.2 430.31 420.79 427.47 421.47C424.63 422.15 422.05 422.82 420.2 423.3C419.199 423.61 418.176 423.844 417.14 424Z" fill="#585757"/>
<path d="M440.89 452.19C437.41 449.55 433.73 449.03 429.36 449.19C424.994 449.483 420.721 450.589 416.76 452.45C409.93 455.45 403.52 459.84 399.45 466.07C395.38 472.3 394 480.56 397 487.36C397.238 488.071 397.734 488.667 398.39 489.03C399.146 489.248 399.955 489.187 400.67 488.86C408.43 486.33 416.24 483.77 423.37 479.81C430.5 475.85 437 470.34 440.83 463.13C441.818 461.43 442.444 459.544 442.67 457.59C442.776 456.615 442.672 455.629 442.365 454.697C442.058 453.766 441.555 452.911 440.89 452.19Z" fill="#28BB46"/>
<path d="M441 451.37C440.827 451.469 440.642 451.546 440.45 451.6L438.82 452.15L437.64 452.55C437.22 452.7 436.76 452.89 436.27 453.08C435.27 453.48 434.15 453.88 432.95 454.46L431.04 455.33C430.39 455.63 429.73 456 429.04 456.33C427.63 457.02 426.21 457.9 424.7 458.8C418.191 462.827 412.404 467.918 407.58 473.86C406.5 475.25 405.44 476.54 404.58 477.86C404.14 478.51 403.68 479.11 403.3 479.73C402.92 480.35 402.55 480.94 402.19 481.5C401.46 482.62 400.92 483.7 400.41 484.62C400.15 485.09 399.91 485.52 399.7 485.92L399.16 487.04L398.4 488.58C398.324 488.766 398.223 488.941 398.1 489.1C398.156 488.908 398.226 488.721 398.31 488.54L398.99 486.96L399.49 485.82C399.69 485.41 399.92 484.97 400.17 484.5C400.66 483.56 401.17 482.5 401.9 481.33C402.24 480.75 402.61 480.15 402.98 479.53C403.35 478.91 403.81 478.29 404.25 477.63C405.1 476.31 406.15 474.99 407.25 473.63C409.693 470.65 412.368 467.868 415.25 465.31C418.151 462.788 421.251 460.504 424.52 458.48C426.05 457.59 427.52 456.71 428.91 456.03C429.62 455.68 430.29 455.32 430.91 455.03L432.84 454.19C434.06 453.62 435.21 453.24 436.2 452.87C436.7 452.69 437.2 452.51 437.6 452.37L438.79 452.02L440.45 451.54C440.627 451.463 440.811 451.406 441 451.37Z" fill="#585757"/>
<path d="M413.77 466.09C411.003 467.153 408.178 468.061 405.31 468.81C402.485 469.717 399.614 470.475 396.71 471.08C399.478 470.016 402.302 469.105 405.17 468.35C407.993 467.441 410.864 466.686 413.77 466.09Z" fill="#585757"/>
<path d="M413.43 484.76C413.274 483.893 413.21 483.011 413.24 482.13C413.19 480.5 413.19 478.24 413.24 475.75C413.29 473.26 413.44 471.02 413.58 469.39C413.599 468.508 413.71 467.63 413.91 466.77C413.99 467.648 413.99 468.532 413.91 469.41C413.85 471.2 413.79 473.41 413.71 475.77C413.63 478.13 413.6 480.34 413.55 482.13C413.581 483.009 413.541 483.888 413.43 484.76Z" fill="#585757"/>
<path d="M429.42 476.61C429.29 476.61 428.86 472.04 428.47 466.39C428.08 460.74 427.87 456.13 428.01 456.12C428.15 456.11 428.57 460.69 428.96 466.35C429.35 472.01 429.56 476.6 429.42 476.61Z" fill="#585757"/>
<path d="M409.51 455.68C410.409 455.571 411.316 455.545 412.22 455.6C413.89 455.6 416.22 455.66 418.75 455.74C421.28 455.82 423.61 455.93 425.28 456.03C426.186 456.034 427.09 456.121 427.98 456.29C427.081 456.399 426.174 456.426 425.27 456.37C423.6 456.37 421.27 456.31 418.74 456.23C416.21 456.15 413.88 456.04 412.21 455.94C411.304 455.936 410.4 455.849 409.51 455.68Z" fill="#585757"/>
<path d="M447.91 511.4C447.871 511.223 447.851 511.042 447.85 510.86C447.85 510.45 447.85 509.94 447.78 509.3C447.72 507.95 447.71 505.99 447.78 503.57C447.85 501.15 447.99 498.28 448.28 495.09C448.57 491.9 449.05 488.41 449.7 484.77C450.35 481.13 451.18 477.7 452 474.61C452.82 471.52 453.72 468.76 454.53 466.47C455.34 464.18 456.04 462.35 456.53 461.11L457.15 459.67C457.213 459.499 457.294 459.335 457.39 459.18C457.362 459.362 457.312 459.54 457.24 459.71C457.1 460.09 456.92 460.57 456.71 461.17C456.23 462.44 455.58 464.29 454.81 466.58C454.04 468.87 453.22 471.63 452.4 474.72C451.58 477.81 450.81 481.23 450.14 484.86C449.47 488.49 449 492 448.7 495.13C448.4 498.26 448.19 501.13 448.1 503.59C448.01 506.05 448 508 448 509.3C448 509.93 448 510.45 448 510.86C447.994 511.043 447.964 511.225 447.91 511.4Z" fill="#585757"/>
<path d="M450.05 484.91C449.574 485.558 449.031 486.155 448.43 486.69C447.38 487.69 445.9 489.13 444.2 490.62C442.5 492.11 440.92 493.39 439.75 494.3C439.138 494.829 438.467 495.286 437.75 495.66C438.284 495.066 438.87 494.521 439.5 494.03L443.85 490.25L448.17 486.44C448.748 485.873 449.377 485.361 450.05 484.91Z" fill="#585757"/>
<path d="M462.85 495.23C462.214 494.484 461.638 493.688 461.13 492.85C460.03 491.23 458.65 489.23 457.13 487.01L453.05 481.24C452.442 480.472 451.897 479.656 451.42 478.8C452.121 479.485 452.761 480.232 453.33 481.03C454.45 482.46 455.95 484.47 457.53 486.74C459.11 489.01 460.47 491.12 461.42 492.66C461.978 493.469 462.457 494.33 462.85 495.23Z" fill="#585757"/>
<path d="M456.14 462.79C456.21 462.9 451.96 465.79 446.64 469.19C441.32 472.59 436.95 475.29 436.88 475.19C436.81 475.09 441.06 472.19 446.38 468.8C451.7 465.41 456.07 462.68 456.14 462.79Z" fill="#585757"/>
<path d="M468.14 475.74C463.739 471.896 459.556 467.809 455.61 463.5C460.011 467.344 464.194 471.43 468.14 475.74Z" fill="#585757"/>
<path d="M471.15 475.48L474.8 475.17C477.393 474.958 479.91 474.191 482.18 472.92C483.285 472.27 484.43 471.692 485.61 471.19C490.13 469.38 495.16 469.7 500.02 469.46C507.995 469.062 515.809 467.07 523 463.6C523.419 463.407 523.768 463.089 524 462.69C524.76 461.32 523.36 460.11 522.16 459.37C516.01 455.58 509.75 451.74 502.77 449.86C495.79 447.98 487.88 448.29 481.93 452.39C474.93 457.2 472.39 467.08 471.21 475.48" fill="#28BB46"/>
<path d="M524 462.24C523.782 462.17 523.574 462.072 523.38 461.95L521.65 461.05C520.15 460.26 517.99 459.05 515.26 457.78C512.077 456.225 508.765 454.95 505.36 453.97C501.195 452.791 496.838 452.451 492.54 452.97C488.233 453.448 484.163 455.187 480.84 457.97C478.254 460.377 476.185 463.287 474.76 466.52C473.762 468.693 472.877 470.916 472.11 473.18L471.46 475.02C471.401 475.24 471.313 475.452 471.2 475.65C471.239 475.426 471.295 475.205 471.37 474.99C471.51 474.52 471.7 473.9 471.93 473.12C472.634 470.825 473.476 468.574 474.45 466.38C475.849 463.072 477.927 460.094 480.55 457.64C483.918 454.766 488.07 452.965 492.47 452.47C496.833 451.954 501.255 452.325 505.47 453.56C508.895 454.562 512.22 455.881 515.4 457.5C518.12 458.85 520.25 460.06 521.73 460.9L523.42 461.9C523.622 461.998 523.816 462.111 524 462.24Z" fill="#585757"/>
<path d="M515.26 467C515.18 467.11 510.41 464 504.59 460.1C498.77 456.2 494.12 452.91 494.2 452.8C494.28 452.69 499.05 455.8 504.86 459.7C510.67 463.6 515.33 466.84 515.26 467Z" fill="#585757"/>
<path d="M510.16 452.5C509.043 452.89 507.873 453.102 506.69 453.13C505.511 453.293 504.314 453.276 503.14 453.08C504.299 452.866 505.472 452.746 506.65 452.72C507.813 452.563 508.986 452.489 510.16 452.5Z" fill="#585757"/>
<path d="M489.26 449.78C488.865 450.669 488.336 451.492 487.69 452.22C487.132 453.063 486.459 453.824 485.69 454.48C486.077 453.584 486.607 452.756 487.26 452.03C487.809 451.183 488.484 450.425 489.26 449.78Z" fill="#585757"/>
<path d="M493.54 469.77C492.734 469.431 491.963 469.012 491.24 468.52C489.86 467.68 488 466.46 486 465.01C484 463.56 482.26 462.19 481 461.19C480.279 460.69 479.61 460.121 479 459.49C479.772 459.899 480.505 460.377 481.19 460.92L486.28 464.62C488.28 466.06 490.09 467.32 491.42 468.23C492.166 468.686 492.875 469.201 493.54 469.77Z" fill="#585757"/>
<path d="M476.53 491C473.05 490.08 468.89 493.47 468.18 497C467.47 500.53 468.78 504.14 470.33 507.39C473.646 514.677 478.569 521.118 484.73 526.23C490.939 531.337 498.692 534.195 506.73 534.34C505.25 527.5 507.12 520.34 506.29 513.41C505.566 507.289 502.787 501.594 498.408 497.257C494.029 492.919 488.308 490.195 482.18 489.53C479.96 489.29 477.39 488.95 476.5 491" fill="#28BB46"/>
<path d="M506.76 534.33C506.587 534.268 506.42 534.191 506.26 534.1C505.801 533.846 505.366 533.552 504.96 533.22C503.498 531.954 502.325 530.389 501.52 528.63C500.96 527.55 500.34 526.38 499.74 525.08L497.86 520.94C497.189 519.416 496.421 517.936 495.56 516.51C494.616 514.994 493.556 513.553 492.39 512.2C490.01 509.4 487.45 506.98 485.23 504.66C483.223 502.64 481.396 500.448 479.77 498.11C478.677 496.521 477.781 494.805 477.1 493C476.88 492.35 476.72 491.85 476.64 491.5C476.579 491.329 476.542 491.151 476.53 490.97C476.53 490.97 476.77 491.68 477.28 492.97C478.019 494.733 478.948 496.409 480.05 497.97C481.705 500.259 483.545 502.41 485.55 504.4C487.78 506.69 490.35 509.11 492.76 511.94C493.941 513.312 495.014 514.773 495.97 516.31C496.827 517.759 497.595 519.258 498.27 520.8C498.91 522.27 499.53 523.66 500.1 524.96C500.67 526.26 501.29 527.43 501.82 528.52C502.584 530.261 503.693 531.83 505.08 533.13C506.1 534 506.78 534.28 506.76 534.33Z" fill="#585757"/>
<path d="M488.75 528.65C488.759 527.856 488.866 527.067 489.07 526.3C489.34 524.87 489.79 522.9 490.39 520.75C490.99 518.6 491.64 516.7 492.16 515.33C492.391 514.572 492.71 513.844 493.11 513.16C492.967 513.937 492.757 514.7 492.48 515.44C492.05 516.83 491.48 518.75 490.86 520.89C490.24 523.03 489.76 524.97 489.4 526.38C489.246 527.153 489.029 527.912 488.75 528.65Z" fill="#585757"/>
<path d="M506.1 511.86C505.265 511.749 504.441 511.562 503.64 511.3C502.14 510.9 500.07 510.37 497.76 509.85C495.45 509.33 493.36 508.92 491.83 508.64C490.995 508.531 490.172 508.347 489.37 508.09C490.215 508.071 491.06 508.141 491.89 508.3C493.43 508.5 495.55 508.85 497.89 509.37C500.23 509.89 502.28 510.49 503.76 510.97C504.57 511.181 505.355 511.479 506.1 511.86Z" fill="#585757"/>
<path d="M475.82 516.74C475.86 515.823 475.987 514.912 476.2 514.02C476.51 512.36 476.99 510.08 477.64 507.58C478.29 505.08 478.99 502.85 479.53 501.25C479.783 500.37 480.118 499.517 480.53 498.7C480.382 499.601 480.158 500.487 479.86 501.35C479.4 502.97 478.76 505.21 478.11 507.7C477.46 510.19 476.93 512.45 476.53 514.09C476.368 514.992 476.13 515.878 475.82 516.74Z" fill="#585757"/>
<path d="M498.11 497.23C498.11 497.36 493.74 497.01 488.4 496.44C483.06 495.87 478.72 495.31 478.74 495.18C481.988 495.277 485.229 495.538 488.45 495.96C493.8 496.53 498.12 497.1 498.11 497.23Z" fill="#585757"/>
<path d="M494.92 550C494.92 550.13 479.64 550.24 460.79 550.24C441.94 550.24 426.65 550.13 426.65 550C426.65 549.87 441.93 549.75 460.79 549.75C479.65 549.75 494.92 549.82 494.92 550Z" fill="#455A64"/>
<path d="M484.29 569.62C484.29 569.76 473.99 569.87 461.29 569.87C448.59 569.87 438.29 569.76 438.29 569.62C438.29 569.48 448.59 569.38 461.29 569.38C473.99 569.38 484.29 569.49 484.29 569.62Z" fill="#455A64"/>
<path d="M483.89 572.44C483.89 572.57 473.77 572.68 461.29 572.68C448.81 572.68 438.69 572.57 438.69 572.44C438.69 572.31 448.81 572.19 461.29 572.19C473.77 572.19 483.89 572.3 483.89 572.44Z" fill="#455A64"/>
<path d="M484.69 567.31C484.69 567.44 474.04 567.55 460.9 567.55C447.76 567.55 437.11 567.44 437.11 567.31C437.11 567.18 447.76 567.06 460.9 567.06C474.04 567.06 484.69 567.17 484.69 567.31Z" fill="#455A64"/>
<path d="M348 166.2C339.08 164.2 327.63 170.4 324.55 178.74C321.47 187.08 324.81 197.4 331.55 203.23C326.31 209.97 326.09 219.99 330.55 227.29C335.01 234.59 343.55 238.97 352.1 238.92C356.378 238.804 360.584 237.783 364.439 235.925C368.295 234.067 371.713 231.414 374.47 228.14C378.109 229.933 382.175 230.678 386.213 230.293C390.251 229.908 394.103 228.407 397.337 225.958C400.571 223.509 403.061 220.209 404.527 216.427C405.993 212.644 406.378 208.529 405.64 204.54C415.72 200.85 421.28 187.92 417 178C412.72 168.08 399.48 163.33 389.87 168.19C390.08 157.42 380.69 147.37 369.93 146.85C359.17 146.33 348.85 155.46 348 166.2Z" fill="#FAFAFA"/>
<path d="M348 166.2H347.85C347.85 166.15 347.85 166.2 347.85 166.2H347.91H348.05H348.21C348.21 166.28 348.1 166.2 348.04 166.27C348.182 164.111 348.686 161.992 349.53 160C350.322 158.204 351.351 156.522 352.59 155C354.174 153.03 356.077 151.34 358.22 150C360.792 148.36 363.695 147.309 366.72 146.92L367.95 146.78H369.22C370.087 146.785 370.952 146.848 371.81 146.97C373.6 147.232 375.346 147.737 377 148.47C377.438 148.644 377.863 148.851 378.27 149.09C378.68 149.32 379.11 149.54 379.52 149.79C380.344 150.315 381.136 150.889 381.89 151.51C382.665 152.137 383.406 152.805 384.11 153.51C384.799 154.275 385.447 155.076 386.05 155.91C388.655 159.47 390.056 163.769 390.05 168.18L389.75 167.99C394.206 165.891 399.28 165.51 404 166.92C409.137 168.289 413.547 171.589 416.31 176.13C417.661 178.592 418.462 181.319 418.658 184.121C418.853 186.923 418.437 189.734 417.44 192.36C416.467 195.106 414.957 197.632 413 199.79C410.999 202.013 408.496 203.727 405.7 204.79L405.87 204.5C406.608 208.749 406.104 213.12 404.42 217.09C402.721 221.194 399.812 224.682 396.08 227.09C392.85 229.105 389.165 230.275 385.365 230.493C381.564 230.712 377.77 229.971 374.33 228.34L374.64 228.28C369.946 233.782 363.489 237.486 356.37 238.76C349.636 239.896 342.724 238.364 337.1 234.49C334.462 232.682 332.216 230.359 330.5 227.66C328.888 225.056 327.839 222.144 327.42 219.11C327 216.227 327.143 213.289 327.84 210.46C328.512 207.785 329.72 205.275 331.39 203.08V203.35C328.317 200.603 325.985 197.126 324.61 193.24C323.967 191.466 323.547 189.618 323.36 187.74C323.154 185.974 323.184 184.188 323.45 182.43C323.871 179.241 325.216 176.244 327.32 173.81C329.078 171.776 331.18 170.066 333.53 168.76C335.401 167.708 337.401 166.904 339.48 166.37C341.005 165.986 342.568 165.778 344.14 165.75C345.108 165.735 346.076 165.812 347.03 165.98C347.67 166.09 348.03 166.17 348.03 166.17L347.03 166.04C346.077 165.898 345.113 165.841 344.15 165.87C342.59 165.918 341.04 166.143 339.53 166.54C337.475 167.102 335.502 167.929 333.66 169C331.348 170.299 329.281 171.991 327.55 174C325.496 176.403 324.189 179.354 323.79 182.49C323.532 184.219 323.506 185.974 323.71 187.71C323.918 189.569 324.352 191.396 325 193.15C326.362 196.971 328.667 200.386 331.7 203.08L331.84 203.2L331.73 203.35C330.099 205.505 328.922 207.968 328.27 210.59C327.594 213.368 327.459 216.251 327.87 219.08C328.279 222.048 329.301 224.898 330.87 227.45C332.558 230.09 334.762 232.363 337.35 234.13C342.877 237.921 349.661 239.416 356.27 238.3C363.285 237.044 369.647 233.393 374.27 227.97L374.4 227.82L374.58 227.91C377.941 229.498 381.646 230.217 385.357 230.002C389.068 229.788 392.665 228.645 395.82 226.68C399.468 224.314 402.307 220.892 403.96 216.87C405.615 212.998 406.108 208.728 405.38 204.58V204.37L405.59 204.3C408.251 203.223 410.648 201.585 412.617 199.496C414.586 197.408 416.081 194.919 417 192.2C417.98 189.643 418.392 186.904 418.207 184.172C418.023 181.44 417.245 178.781 415.93 176.38C413.235 171.95 408.938 168.727 403.93 167.38C399.319 165.992 394.357 166.359 390 168.41L389.69 168.56V168.22C389.692 163.908 388.327 159.707 385.79 156.22C385.197 155.396 384.559 154.605 383.88 153.85C383.196 153.142 382.471 152.474 381.71 151.85C380.969 151.236 380.191 150.668 379.38 150.15C378.97 149.9 378.56 149.68 378.15 149.45C377.749 149.214 377.331 149.006 376.9 148.83C375.274 148.086 373.555 147.564 371.79 147.28C370.948 147.163 370.1 147.1 369.25 147.09H368L366.78 147.22C363.796 147.587 360.93 148.611 358.39 150.22C354.575 152.54 351.539 155.945 349.67 160C348.789 161.965 348.226 164.058 348 166.2C348.07 166.2 348.16 166.13 348.19 166.2H348.02H347.89H347.82H348Z" fill="#263238"/>
<path d="M364.81 210.32C366.89 211.504 369.295 211.987 371.67 211.7C373.093 211.475 374.456 210.967 375.679 210.206C376.902 209.445 377.96 208.447 378.79 207.27C379.599 206.184 380.18 204.945 380.5 203.629C380.819 202.313 380.871 200.946 380.65 199.61C380.377 198.281 379.834 197.021 379.055 195.91C378.276 194.799 377.277 193.86 376.12 193.15C374.255 191.951 372.065 191.358 369.85 191.45L370.03 182.45C370.008 182.047 369.835 181.668 369.546 181.387C369.256 181.106 368.871 180.946 368.468 180.937C368.064 180.928 367.673 181.072 367.371 181.339C367.069 181.607 366.88 181.979 366.84 182.38L366.61 193.3C366.607 193.547 366.66 193.792 366.765 194.016C366.871 194.239 367.027 194.436 367.22 194.59C367.413 194.743 367.639 194.85 367.881 194.9C368.122 194.95 368.372 194.943 368.61 194.88C369.594 194.639 370.616 194.603 371.614 194.775C372.612 194.947 373.564 195.323 374.41 195.88C375.195 196.354 375.875 196.984 376.408 197.73C376.941 198.477 377.316 199.324 377.51 200.22C377.653 201.133 377.609 202.065 377.382 202.96C377.156 203.855 376.75 204.695 376.19 205.43C375.612 206.263 374.871 206.97 374.011 207.508C373.152 208.046 372.192 208.404 371.19 208.56C367.39 209.09 363.19 206.27 362.07 202.41C361.949 202.003 361.672 201.66 361.299 201.458C360.926 201.255 360.487 201.209 360.08 201.33C359.673 201.451 359.331 201.728 359.128 202.101C358.925 202.475 358.879 202.913 359 203.32C359.957 206.318 362.04 208.827 364.81 210.32Z" fill="#E94235"/>
<path d="M370.64 175.86C370.657 175.504 370.569 175.151 370.385 174.846C370.202 174.54 369.932 174.296 369.61 174.144C369.288 173.992 368.928 173.939 368.575 173.992C368.223 174.045 367.894 174.201 367.631 174.44C367.367 174.68 367.181 174.993 367.095 175.338C367.009 175.684 367.028 176.048 367.149 176.383C367.27 176.718 367.487 177.01 367.774 177.221C368.061 177.432 368.404 177.554 368.76 177.57C369.236 177.592 369.701 177.424 370.053 177.103C370.406 176.783 370.617 176.336 370.64 175.86Z" fill="#E94235"/>
<path d="M311.24 216.22C309.523 216.03 307.789 216.352 306.256 217.147C304.723 217.942 303.459 219.173 302.625 220.685C301.791 222.197 301.423 223.922 301.569 225.642C301.714 227.363 302.366 229.002 303.442 230.353C304.518 231.704 305.97 232.705 307.615 233.231C309.259 233.757 311.023 233.785 312.683 233.309C314.343 232.834 315.826 231.878 316.943 230.561C318.06 229.244 318.762 227.625 318.96 225.91C319.137 223.618 318.439 221.344 317.006 219.546C315.574 217.748 313.513 216.56 311.24 216.22Z" fill="#FAFAFA"/>
<path d="M311.29 216.23C312.011 216.255 312.722 216.407 313.39 216.68C314.95 217.313 316.311 218.353 317.331 219.692C318.351 221.031 318.993 222.619 319.19 224.29C319.333 225.878 319.01 227.473 318.26 228.88C317.861 229.638 317.356 230.335 316.76 230.95C316.148 231.602 315.444 232.161 314.67 232.61C313.061 233.629 311.152 234.066 309.26 233.85C307.368 233.633 305.607 232.776 304.27 231.42C303.612 230.813 303.053 230.108 302.61 229.33C302.16 228.602 301.823 227.809 301.61 226.98C301.189 225.442 301.235 223.813 301.74 222.3C302.305 220.714 303.287 219.31 304.582 218.235C305.877 217.16 307.438 216.454 309.1 216.19C309.808 216.061 310.533 216.061 311.24 216.19C311.24 216.26 310.47 216.13 309.13 216.36C307.238 216.724 305.507 217.672 304.18 219.07C303.272 220.016 302.589 221.154 302.18 222.4C301.722 223.834 301.694 225.371 302.1 226.82C302.55 228.427 303.432 229.879 304.65 231.02C305.912 232.292 307.569 233.095 309.348 233.299C311.128 233.503 312.924 233.094 314.44 232.14C315.182 231.72 315.856 231.19 316.44 230.57C317.009 229.993 317.49 229.336 317.87 228.62C318.6 227.304 318.924 225.8 318.8 224.3C318.667 222.988 318.247 221.722 317.57 220.59C316.589 218.934 315.118 217.624 313.36 216.84C312.683 216.595 311.992 216.391 311.29 216.23Z" fill="#263238"/>
<path d="M294.22 235.24C293.479 235.158 292.731 235.297 292.07 235.64C291.409 235.983 290.864 236.514 290.504 237.166C290.144 237.818 289.985 238.562 290.048 239.304C290.111 240.047 290.392 240.754 290.856 241.336C291.32 241.919 291.946 242.351 292.656 242.578C293.365 242.805 294.126 242.817 294.842 242.612C295.558 242.407 296.198 241.994 296.68 241.426C297.161 240.858 297.464 240.16 297.55 239.42C297.626 238.431 297.325 237.45 296.707 236.675C296.09 235.899 295.201 235.386 294.22 235.24Z" fill="#FAFAFA"/>
<path d="M294.24 235.25C294.557 235.205 294.88 235.254 295.17 235.39C295.865 235.654 296.474 236.103 296.932 236.688C297.39 237.273 297.68 237.972 297.77 238.71C297.839 239.422 297.696 240.139 297.36 240.77C296.987 241.491 296.405 242.081 295.689 242.463C294.973 242.845 294.158 243 293.352 242.908C292.546 242.815 291.787 242.48 291.176 241.947C290.564 241.413 290.13 240.706 289.93 239.92C289.746 239.228 289.771 238.498 290 237.82C290.216 237.245 290.558 236.726 291 236.3C291.622 235.681 292.43 235.284 293.3 235.17C293.614 235.111 293.938 235.135 294.24 235.24C294.24 235.29 293.9 235.24 293.34 235.37C292.547 235.551 291.826 235.966 291.27 236.56C290.856 236.975 290.559 237.493 290.409 238.06C290.26 238.628 290.264 239.225 290.42 239.79C290.581 240.494 290.956 241.131 291.495 241.613C292.033 242.094 292.707 242.397 293.425 242.479C294.142 242.562 294.867 242.419 295.501 242.072C296.134 241.725 296.644 241.189 296.96 240.54C297.24 240.024 297.378 239.443 297.361 238.857C297.343 238.27 297.17 237.698 296.86 237.2C296.461 236.49 295.849 235.923 295.11 235.58C294.57 235.33 294.23 235.29 294.24 235.25Z" fill="#263238"/>
</svg>
