<svg width="41" height="34" viewBox="0 0 41 34" fill="none" xmlns="http://www.w3.org/2000/svg">
<path d="M9.52598 33.958C13.925 33.958 17.079 30.804 17.079 25.907C17.079 21.425 13.676 18.603 9.52598 18.603C9.19398 18.603 8.94498 18.603 8.61298 18.686C8.61298 13.208 11.435 9.473 17.328 6.734L14.174 0.259997C4.71198 4.908 0.146977 11.88 0.146977 21.01C0.146977 29.227 3.38398 33.958 9.52598 33.958ZM32.766 33.958C37.165 33.958 40.319 30.804 40.319 25.907C40.319 21.425 36.916 18.603 32.766 18.603C32.434 18.603 32.185 18.603 31.853 18.686C31.853 13.208 34.675 9.473 40.568 6.734L37.414 0.259997C27.952 4.908 23.387 11.88 23.387 21.01C23.387 29.227 26.624 33.958 32.766 33.958Z" fill="#AAE9BA"/>
</svg>
