<svg width="41" height="34" viewBox="0 0 41 34" fill="none" xmlns="http://www.w3.org/2000/svg">
<path d="M31.476 0.0420023C27.077 0.0420027 23.923 3.196 23.923 8.093C23.923 12.575 27.326 15.397 31.476 15.397C31.808 15.397 32.057 15.397 32.389 15.314C32.389 20.792 29.567 24.527 23.674 27.266L26.828 33.74C36.29 29.092 40.855 22.12 40.855 12.99C40.855 4.773 37.618 0.0420018 31.476 0.0420023ZM8.23597 0.0420044C3.83697 0.0420048 0.682971 3.19601 0.682971 8.09301C0.682971 12.575 4.08597 15.397 8.23597 15.397C8.56797 15.397 8.81697 15.397 9.14897 15.314C9.14897 20.792 6.32697 24.527 0.433971 27.266L3.58797 33.74C13.05 29.092 17.615 22.12 17.615 12.99C17.615 4.773 14.378 0.0420038 8.23597 0.0420044Z" fill="#AAE9BA"/>
</svg>
