<svg width="50" height="48" viewBox="0 0 50 48" fill="none" xmlns="http://www.w3.org/2000/svg">
<path d="M25.951 1.92664C25.6517 1.00538 24.3483 1.00538 24.049 1.92664L19.1621 16.9649C19.0282 17.3769 18.6443 17.6558 18.2111 17.6558L2.39876 17.6564C1.43008 17.6565 1.02732 18.896 1.81098 19.4654L14.6031 28.7602C14.9535 29.0148 15.1002 29.4661 14.9663 29.8781L10.0806 44.9167C9.78132 45.838 10.8357 46.6041 11.6194 46.0348L24.4122 36.741C24.7627 36.4864 25.2373 36.4864 25.5878 36.741L38.3806 46.0348C39.1643 46.6041 40.2187 45.838 39.9194 44.9167L35.0337 29.8781C34.8998 29.4661 35.0465 29.0148 35.3969 28.7602L48.189 19.4654C48.9727 18.896 48.5699 17.6565 47.6012 17.6564L31.7889 17.6558C31.3557 17.6558 30.9718 17.3769 30.8379 16.9649L25.951 1.92664Z" stroke="#28BB46" stroke-width="2"/>
</svg>
