<svg width="57" height="57" viewBox="0 0 57 57" fill="none" xmlns="http://www.w3.org/2000/svg">
<rect width="57" height="57" rx="6" fill="#F9BE00"/>
<path d="M39.3246 15.7327C39.0648 15.3018 38.6983 14.9451 38.2604 14.6971C37.8226 14.4491 37.3283 14.318 36.8251 14.3167H20.9759C19.958 14.3167 18.9998 14.8592 18.4763 15.7327L14.5257 22.3156C14.389 22.5423 14.3169 22.802 14.3171 23.0667C14.323 24.4743 14.8414 25.8315 15.7755 26.8846V39.1083C15.7755 40.7169 17.0836 42.025 18.6921 42.025H39.1088C40.7173 42.025 42.0255 40.7169 42.0255 39.1083V26.8846C42.9595 25.8315 43.478 24.4743 43.4838 23.0667C43.4841 22.802 43.412 22.5423 43.2753 22.3156L39.3246 15.7327ZM40.5438 23.4327C40.4538 24.1368 40.1105 24.784 39.578 25.2535C39.0455 25.7229 38.3603 25.9823 37.6505 25.9833C36.0419 25.9833 34.7338 24.6752 34.7338 23.0667C34.7338 22.9675 34.6973 22.88 34.6769 22.7867L34.7061 22.7808L33.5963 17.2333H36.8251L40.5438 23.4327ZM27.1782 17.2333H30.6213L31.8069 23.1614C31.7559 24.7248 30.4755 25.9833 28.9005 25.9833C27.3255 25.9833 26.0451 24.7248 25.994 23.1614L27.1782 17.2333ZM20.9759 17.2333H24.2046L23.0963 22.7808L23.1255 22.7867C23.1036 22.88 23.0671 22.9675 23.0671 23.0667C23.0671 24.6752 21.759 25.9833 20.1505 25.9833C19.4406 25.9823 18.7554 25.7229 18.223 25.2535C17.6905 24.784 17.3472 24.1368 17.2571 23.4327L20.9759 17.2333ZM25.9838 39.1083V34.7333H31.8171V39.1083H25.9838ZM34.7338 39.1083V34.7333C34.7338 33.1248 33.4257 31.8167 31.8171 31.8167H25.9838C24.3753 31.8167 23.0671 33.1248 23.0671 34.7333V39.1083H18.6921V28.6929C19.1603 28.8139 19.643 28.9 20.1505 28.9C20.9785 28.9004 21.7972 28.7241 22.5516 28.3828C23.3061 28.0416 23.979 27.5432 24.5255 26.921C25.5944 28.1344 27.1607 28.9 28.9005 28.9C30.6403 28.9 32.2065 28.1344 33.2755 26.921C33.8219 27.5432 34.4949 28.0416 35.2493 28.3828C36.0038 28.7241 36.8224 28.9004 37.6505 28.9C38.158 28.9 38.6407 28.8139 39.1088 28.6929V39.1083H34.7338Z" fill="#F7F8FA"/>
</svg>
