<svg width="290" height="268" viewBox="0 0 290 268" fill="none" xmlns="http://www.w3.org/2000/svg">
<path d="M290 204.966H0V205.1H290V204.966Z" fill="#EBEBEB"/>
<path d="M260.942 213.591H241.732V213.725H260.942V213.591Z" fill="#EBEBEB"/>
<path d="M192.108 215.049H187.067V215.183H192.108V215.049Z" fill="#EBEBEB"/>
<path d="M241.153 208.616H230.022V208.75H241.153V208.616Z" fill="#EBEBEB"/>
<path d="M55.477 209.517H30.4268V209.651H55.477V209.517Z" fill="#EBEBEB"/>
<path d="M64.3159 209.517H60.6445V209.651H64.3159V209.517Z" fill="#EBEBEB"/>
<path d="M130.587 211.779H76.2529V211.913H130.587V211.779Z" fill="#EBEBEB"/>
<path d="M137.46 181.061H25.4681C24.5908 181.059 23.7499 180.736 23.1301 180.162C22.5102 179.589 22.1621 178.811 22.1621 178V32.5137C22.1697 31.7076 22.5212 30.9368 23.1402 30.3688C23.7593 29.8008 24.5958 29.4814 25.4681 29.48H137.46C138.339 29.48 139.181 29.8024 139.802 30.3764C140.423 30.9504 140.772 31.7288 140.772 32.5405V178C140.772 178.812 140.423 179.59 139.802 180.164C139.181 180.738 138.339 181.061 137.46 181.061ZM25.4681 29.5872C24.6292 29.5886 23.8252 29.8976 23.2326 30.4462C22.64 30.9949 22.3071 31.7385 22.3071 32.5137V178C22.3071 178.775 22.64 179.519 23.2326 180.068C23.8252 180.616 24.6292 180.925 25.4681 180.927H137.46C138.3 180.925 139.104 180.617 139.698 180.068C140.291 179.52 140.626 178.776 140.627 178V32.5137C140.626 31.738 140.291 30.9944 139.698 30.4459C139.104 29.8974 138.3 29.5886 137.46 29.5872H25.4681Z" fill="#EBEBEB"/>
<path d="M262.92 181.061H150.922C150.044 181.059 149.203 180.736 148.582 180.163C147.961 179.589 147.612 178.811 147.61 178V32.5137C147.62 31.7071 147.972 30.9363 148.592 30.3685C149.212 29.8006 150.049 29.4813 150.922 29.48H262.92C263.791 29.4828 264.627 29.8028 265.244 30.3707C265.862 30.9385 266.213 31.7085 266.22 32.5137V178C266.22 178.81 265.873 179.587 265.254 180.161C264.636 180.734 263.796 181.058 262.92 181.061ZM150.922 29.5872C150.083 29.5886 149.278 29.8974 148.685 30.4459C148.091 30.9944 147.757 31.738 147.755 32.5137V178C147.757 178.776 148.091 179.52 148.685 180.068C149.278 180.617 150.083 180.925 150.922 180.927H262.92C263.76 180.925 264.564 180.617 265.158 180.068C265.751 179.52 266.085 178.776 266.087 178V32.5137C266.085 31.738 265.751 30.9944 265.158 30.4459C264.564 29.8974 263.76 29.5886 262.92 29.5872H150.922Z" fill="#EBEBEB"/>
<path d="M155.312 204.966H175.67V134.895H155.312V204.966Z" fill="#E6E6E6"/>
<path d="M158.7 204.966H155.312V198.658H162.255L158.7 204.966Z" fill="#F0F0F0"/>
<path d="M238.171 204.966H258.529V134.895H238.171V204.966Z" fill="#E6E6E6"/>
<path d="M155.312 202.544H241.129V134.895H155.312V202.544Z" fill="#F0F0F0"/>
<path d="M157.946 156.442H238.502V137.891H157.946V156.442Z" fill="#E6E6E6"/>
<path d="M194.416 143.648H202.026C205.332 143.648 208.493 141.359 210.767 137.318H185.676C187.949 141.37 191.11 143.648 194.416 143.648Z" fill="#F0F0F0"/>
<path d="M237.742 204.966H241.129V198.658H234.187L237.742 204.966Z" fill="#F0F0F0"/>
<path d="M157.946 177.995H238.502V159.444H157.946V177.995Z" fill="#E6E6E6"/>
<path d="M194.416 165.206H202.026C205.332 165.206 208.493 162.917 210.767 158.876H185.676C187.949 162.944 191.11 165.206 194.416 165.206Z" fill="#F0F0F0"/>
<path d="M157.946 199.547H238.502V180.996H157.946V199.547Z" fill="#E6E6E6"/>
<path d="M194.416 186.758H202.026C205.332 186.758 208.493 184.47 210.767 180.428H185.676C187.949 184.47 191.11 186.758 194.416 186.758Z" fill="#F0F0F0"/>
<path d="M45.2343 119.003L122.978 119.003L122.978 46.305L45.2343 46.305L45.2343 119.003Z" fill="#E6E6E6"/>
<path d="M39.8345 119.003L121.545 119.003L121.545 46.305L39.8345 46.305L39.8345 119.003Z" fill="#F0F0F0"/>
<path d="M114.707 112.678V52.6299L46.6904 52.6299V112.678H114.707Z" fill="white"/>
<path d="M80.2258 60.568L67.7442 72.1242C64.728 74.9186 63.0342 78.7044 63.0342 82.6512C63.0342 86.5981 64.728 90.3839 67.7442 93.1783L80.2258 104.718C80.2867 104.775 80.359 104.82 80.4386 104.85C80.5183 104.881 80.6036 104.896 80.6898 104.896C80.776 104.896 80.8614 104.881 80.941 104.85C81.0206 104.82 81.0929 104.775 81.1538 104.718L93.6412 93.1783C96.6574 90.3839 98.3513 86.5981 98.3513 82.6512C98.3513 78.7044 96.6574 74.9186 93.6412 72.1242L81.1596 60.568C81.0349 60.4551 80.8673 60.3918 80.6927 60.3918C80.5181 60.3918 80.3505 60.4551 80.2258 60.568ZM68.6722 92.2992C65.9029 89.7331 64.3477 86.2567 64.3477 82.6325C64.3477 79.0083 65.9029 75.5319 68.6722 72.9657V92.2992ZM92.7132 92.2992V72.9872C95.4826 75.5534 97.0377 79.0297 97.0377 82.6539C97.0377 86.2782 95.4826 89.7545 92.7132 92.3207V92.2992Z" fill="#F0F0F0"/>
<path d="M235.973 109.88H192.537L190.061 133.582H233.497L235.973 109.88Z" fill="#E6E6E6"/>
<path d="M233.497 133.582L233.323 134.895H189.881L190.061 133.582H233.497Z" fill="#E6E6E6"/>
<path d="M234.639 109.88H191.203L188.721 133.582H232.157L234.639 109.88Z" fill="#F0F0F0"/>
<path d="M231.281 132.038L233.097 111.488C233.101 111.42 233.091 111.351 233.066 111.286C233.041 111.222 233.002 111.163 232.952 111.113C232.901 111.062 232.84 111.022 232.772 110.995C232.705 110.967 232.631 110.952 232.557 110.952H192.624C192.487 110.951 192.355 110.999 192.254 111.084C192.153 111.169 192.091 111.287 192.079 111.413L190.24 131.958C190.236 132.027 190.246 132.096 190.271 132.16C190.297 132.225 190.336 132.285 190.387 132.335C190.438 132.385 190.5 132.425 190.569 132.453C190.637 132.48 190.711 132.494 190.786 132.494H230.719C230.858 132.5 230.994 132.456 231.099 132.371C231.204 132.286 231.269 132.167 231.281 132.038Z" fill="white"/>
<path d="M220.841 133.582L220.667 134.895H172.834L173.008 133.582H220.841Z" fill="#F0F0F0"/>
<path d="M162.452 97.209L244.018 97.209V47.0983L162.452 47.0983V97.209Z" fill="#E6E6E6"/>
<path d="M160.643 97.209L242.208 97.209V47.0983L160.643 47.0983V97.209Z" fill="#F5F5F5"/>
<path d="M238.954 93.8322V50.4805L163.896 50.4805V93.8322H238.954Z" fill="white"/>
<path d="M165.26 93.8268V50.4751H163.891V93.8268H165.26Z" fill="#E6E6E6"/>
<path d="M161.988 88.0808L240.862 88.0808V83.5462L161.988 83.5462V88.0808Z" fill="#F5F5F5"/>
<path d="M157.093 41.5132H247.573C247.705 41.5146 247.831 41.5636 247.924 41.6497C248.018 41.7359 248.071 41.8523 248.072 41.9741C248.072 42.0964 248.02 42.2136 247.926 42.3001C247.833 42.3865 247.706 42.4351 247.573 42.4351H157.093C157.027 42.4358 156.962 42.4244 156.901 42.4016C156.84 42.3787 156.784 42.3449 156.737 42.302C156.69 42.2591 156.653 42.2081 156.627 42.1518C156.602 42.0955 156.589 42.0351 156.589 41.9741C156.59 41.8514 156.644 41.7342 156.739 41.6479C156.833 41.5616 156.961 41.5132 157.093 41.5132Z" fill="#E6E6E6"/>
<path d="M155.342 41.9742C155.342 42.2029 155.415 42.4266 155.553 42.6168C155.69 42.8071 155.885 42.9555 156.114 43.0433C156.342 43.1311 156.594 43.1543 156.837 43.1101C157.08 43.0658 157.303 42.9561 157.478 42.7947C157.654 42.6333 157.774 42.4275 157.823 42.2033C157.872 41.9791 157.848 41.7465 157.754 41.5348C157.66 41.3232 157.5 41.142 157.295 41.0141C157.09 40.8863 156.848 40.8175 156.6 40.8164C156.435 40.8157 156.272 40.8451 156.119 40.903C155.967 40.9609 155.828 41.046 155.711 41.1536C155.594 41.2612 155.501 41.3891 155.438 41.5299C155.374 41.6707 155.342 41.8217 155.342 41.9742Z" fill="#E6E6E6"/>
<path d="M243.339 44.5684C243.517 44.5684 243.688 44.5038 243.815 44.3885C243.942 44.2732 244.014 44.1164 244.017 43.952V42.612C244.017 42.4457 243.946 42.2861 243.819 42.1685C243.691 42.0509 243.519 41.9849 243.339 41.9849C243.25 41.9849 243.162 42.0011 243.08 42.0327C242.998 42.0643 242.924 42.1106 242.861 42.1689C242.798 42.2272 242.749 42.2963 242.716 42.3724C242.682 42.4485 242.665 42.5299 242.666 42.612V43.952C242.669 44.1155 242.741 44.2715 242.867 44.3866C242.992 44.5018 243.162 44.567 243.339 44.5684Z" fill="#E6E6E6"/>
<path d="M164.644 44.5684C164.818 44.5616 164.982 44.4942 165.104 44.3798C165.225 44.2653 165.295 44.1124 165.3 43.952V42.612C165.3 42.4457 165.228 42.2861 165.101 42.1685C164.974 42.0509 164.801 41.9849 164.621 41.9849C164.532 41.9849 164.444 42.0011 164.362 42.0327C164.28 42.0643 164.206 42.1106 164.143 42.1689C164.081 42.2272 164.031 42.2963 163.998 42.3724C163.964 42.4485 163.948 42.5299 163.948 42.612V43.952C163.95 44.0348 163.969 44.1165 164.005 44.1924C164.041 44.2683 164.093 44.3369 164.157 44.3942C164.222 44.4516 164.298 44.4965 164.382 44.5263C164.465 44.5562 164.555 44.5705 164.644 44.5684Z" fill="#E6E6E6"/>
<path opacity="0.4" d="M157.255 90.6589L240.862 90.6589V41.9741L157.255 41.9741V90.6589Z" fill="#E0E0E0"/>
<path d="M234.036 41.9742C234.036 42.2031 234.11 42.427 234.247 42.6174C234.385 42.8078 234.581 42.9562 234.81 43.0438C235.038 43.1314 235.29 43.1544 235.533 43.1097C235.776 43.065 236 42.9547 236.175 42.7928C236.35 42.6309 236.469 42.4246 236.518 42.2C236.566 41.9754 236.541 41.7427 236.446 41.5311C236.352 41.3196 236.191 41.1387 235.985 41.0115C235.779 40.8843 235.537 40.8164 235.289 40.8164C234.957 40.8164 234.638 40.9384 234.403 41.1555C234.168 41.3726 234.036 41.6671 234.036 41.9742Z" fill="#E6E6E6"/>
<path d="M115.71 201.493H122.415L122.415 147.748H115.71V201.493Z" fill="#F0F0F0"/>
<path d="M42.9782 204.897H119.84V201.493H42.9782V204.897Z" fill="#F0F0F0"/>
<path d="M115.71 147.748H40.4023V201.493H115.71V147.748Z" fill="#F5F5F5"/>
<path d="M106.308 154.363H49.8044C47.5237 154.363 45.6748 156.071 45.6748 158.179V168.17C45.6748 170.278 47.5237 171.986 49.8044 171.986H106.308C108.589 171.986 110.438 170.278 110.438 168.17V158.179C110.438 156.071 108.589 154.363 106.308 154.363Z" fill="#F0F0F0"/>
<path d="M106.308 177.25H49.8044C47.5237 177.25 45.6748 178.958 45.6748 181.066V191.057C45.6748 193.165 47.5237 194.873 49.8044 194.873H106.308C108.589 194.873 110.438 193.165 110.438 191.057V181.066C110.438 178.958 108.589 177.25 106.308 177.25Z" fill="#F0F0F0"/>
<path d="M64.0266 164.386H92.087C92.4337 164.386 92.7662 164.259 93.0119 164.033C93.2575 163.807 93.3963 163.5 93.3978 163.18C93.3963 162.859 93.2577 162.552 93.0122 162.325C92.7667 162.098 92.4342 161.97 92.087 161.969H64.0266C63.6794 161.97 63.3469 162.098 63.1014 162.325C62.8559 162.552 62.7173 162.859 62.7158 163.18C62.7174 163.5 62.8561 163.807 63.1018 164.033C63.3474 164.259 63.68 164.386 64.0266 164.386Z" fill="#F5F5F5"/>
<path d="M64.0266 187.273H92.087C92.4337 187.273 92.7662 187.146 93.0119 186.92C93.2575 186.694 93.3963 186.387 93.3978 186.067C93.3963 185.746 93.2577 185.439 93.0122 185.212C92.7667 184.985 92.4342 184.857 92.087 184.856H64.0266C63.6794 184.857 63.3469 184.985 63.1014 185.212C62.8559 185.439 62.7173 185.746 62.7158 186.067C62.7174 186.387 62.8561 186.694 63.1018 186.92C63.3474 187.146 63.68 187.273 64.0266 187.273Z" fill="#F5F5F5"/>
<path d="M145 229.172C207.108 229.172 257.456 226.456 257.456 223.105C257.456 219.754 207.108 217.037 145 217.037C82.8923 217.037 32.5439 219.754 32.5439 223.105C32.5439 226.456 82.8923 229.172 145 229.172Z" fill="#F5F5F5"/>
<path d="M169.853 54.3772H62.6689L70.9977 189.272H178.176L169.853 54.3772Z" fill="#263238"/>
<path d="M171.935 54.3772H64.751L73.0798 189.272H180.264L171.935 54.3772Z" fill="#02A1FC"/>
<path opacity="0.5" d="M164.552 58.9119H69.6523L76.4558 181.018H173.82L164.552 58.9119Z" fill="black"/>
<path d="M69.6523 58.9119C76.7051 99.6157 71.8679 140.32 78.9323 181.018H176.285C169.233 140.32 174.07 99.6157 167.005 58.9119H69.6523Z" fill="white"/>
<g opacity="0.3">
<path opacity="0.3" d="M89.5576 95.4992C91.7075 95.5151 93.7689 96.293 95.3164 97.6723C96.864 99.0516 97.7797 100.927 97.8748 102.912C97.9181 103.867 97.7507 104.82 97.3828 105.713C97.0148 106.606 96.454 107.421 95.7346 108.107C95.0151 108.794 94.1519 109.338 93.1977 109.706C92.2434 110.074 91.2181 110.26 90.184 110.25C88.0473 110.234 85.9994 109.458 84.4649 108.084C82.9304 106.71 82.027 104.842 81.9422 102.869C81.8975 101.917 82.0609 100.967 82.4226 100.074C82.7844 99.1818 83.337 98.366 84.0476 97.6754C84.7603 96.991 85.6165 96.4479 86.5638 96.0793C87.5111 95.7107 88.5297 95.5243 89.5576 95.5314V95.4992ZM89.4996 93.9823C88.2494 93.9751 87.0108 94.2036 85.8594 94.6539C84.7081 95.1041 83.6682 95.7667 82.8034 96.601C81.9386 97.4353 81.267 98.4239 80.8297 99.5063C80.3924 100.589 80.1986 101.742 80.2602 102.896C80.3614 105.278 81.4511 107.533 83.3031 109.193C85.1552 110.852 87.6275 111.79 90.2072 111.81C91.463 111.819 92.708 111.593 93.8665 111.145C95.0251 110.697 96.0732 110.036 96.9473 109.203C97.8214 108.37 98.5034 107.381 98.952 106.297C99.4005 105.213 99.6063 104.056 99.5568 102.896C99.4322 100.503 98.3202 98.2459 96.4494 96.5879C94.5787 94.9299 92.0915 93.9974 89.4996 93.9823Z" fill="#02A1FC"/>
</g>
<path d="M143.388 162.365H112.648C112.418 162.362 112.189 162.403 111.978 162.488C111.767 162.572 111.578 162.697 111.423 162.854C111.268 163.011 111.152 163.197 111.081 163.399C111.01 163.602 110.986 163.816 111.012 164.027C111.068 164.479 111.299 164.896 111.663 165.203C112.026 165.509 112.498 165.684 112.99 165.694H143.73C143.96 165.698 144.188 165.656 144.399 165.571C144.61 165.486 144.799 165.361 144.953 165.203C145.107 165.045 145.223 164.858 145.292 164.655C145.361 164.452 145.382 164.238 145.354 164.027C145.299 163.577 145.07 163.16 144.708 162.855C144.347 162.549 143.877 162.375 143.388 162.365Z" fill="#E0E0E0"/>
<path d="M159.83 155.37H112.027C111.795 155.366 111.566 155.408 111.353 155.491C111.14 155.575 110.949 155.7 110.791 155.856C110.634 156.013 110.515 156.199 110.441 156.402C110.367 156.604 110.34 156.819 110.362 157.032C110.404 157.482 110.625 157.902 110.983 158.21C111.341 158.519 111.81 158.693 112.299 158.699H160.08C160.311 158.705 160.542 158.666 160.756 158.584C160.97 158.502 161.163 158.378 161.322 158.223C161.481 158.067 161.602 157.881 161.678 157.679C161.754 157.476 161.782 157.261 161.762 157.048C161.724 156.596 161.505 156.174 161.148 155.863C160.79 155.553 160.321 155.377 159.83 155.37Z" fill="#E0E0E0"/>
<g opacity="0.3">
<path opacity="0.3" d="M90.5381 124.352C92.6722 124.366 94.7179 125.142 96.2474 126.517C97.7769 127.893 98.6718 129.762 98.7451 131.733C98.7842 132.687 98.6148 133.639 98.2471 134.531C97.8794 135.423 97.3209 136.238 96.6049 136.926C95.8884 137.612 95.0283 138.156 94.077 138.525C93.1257 138.893 92.1032 139.079 91.0717 139.07C88.9324 139.057 86.8809 138.283 85.343 136.908C83.8051 135.534 82.8989 133.665 82.8125 131.69C82.7773 130.734 82.9515 129.782 83.3245 128.89C83.6976 127.998 84.2618 127.185 84.9834 126.5C85.7049 125.814 86.5689 125.271 87.5235 124.902C88.478 124.533 89.5034 124.346 90.5381 124.352ZM90.5381 122.798C89.2814 122.79 88.0361 123.018 86.8768 123.466C85.7176 123.915 84.6683 124.575 83.7919 125.408C82.9155 126.24 82.2301 127.227 81.7768 128.311C81.3234 129.394 81.1115 130.55 81.1537 131.711C81.2567 134.1 82.3522 136.36 84.2125 138.021C86.0728 139.682 88.5545 140.617 91.1413 140.63C92.3943 140.635 93.6353 140.405 94.7895 139.954C95.9437 139.503 96.9872 138.841 97.857 138.008C98.7269 137.175 99.4051 136.187 99.8508 135.105C100.296 134.023 100.5 132.868 100.45 131.711C100.363 129.33 99.2831 127.072 97.4354 125.411C95.5878 123.749 93.1161 122.813 90.5381 122.798Z" fill="#02A1FC"/>
</g>
<path d="M126.324 101.031H109.881C109.398 101.027 108.935 100.852 108.587 100.542C108.24 100.232 108.034 99.8099 108.014 99.3637C108.006 99.1481 108.045 98.9332 108.129 98.7319C108.213 98.5306 108.34 98.347 108.502 98.1919C108.665 98.0369 108.859 97.9136 109.074 97.8295C109.289 97.7453 109.52 97.702 109.754 97.7021H126.191C126.674 97.7056 127.138 97.8796 127.487 98.1884C127.836 98.4972 128.045 98.9176 128.07 99.3637C128.079 99.5803 128.04 99.7962 127.956 99.9985C127.872 100.201 127.745 100.385 127.582 100.541C127.418 100.697 127.223 100.82 127.007 100.904C126.791 100.989 126.559 101.032 126.324 101.031Z" fill="#E0E0E0"/>
<path d="M145.301 101.031H134.165C133.682 101.027 133.218 100.852 132.869 100.542C132.521 100.232 132.314 99.8103 132.292 99.3637C132.284 99.1481 132.323 98.9332 132.407 98.7319C132.491 98.5306 132.618 98.347 132.781 98.1919C132.943 98.0369 133.137 97.9136 133.352 97.8295C133.567 97.7453 133.799 97.702 134.032 97.7021H145.174C145.657 97.7057 146.12 97.8798 146.468 98.1888C146.816 98.4977 147.023 98.9181 147.047 99.3637C147.056 99.5803 147.017 99.7962 146.933 99.9985C146.849 100.201 146.722 100.385 146.559 100.541C146.396 100.697 146.2 100.82 145.984 100.904C145.768 100.989 145.536 101.032 145.301 101.031Z" fill="#E0E0E0"/>
<path d="M154.28 108.025H110.142C109.659 108.023 109.196 107.848 108.849 107.537C108.502 107.227 108.298 106.804 108.28 106.358C108.272 106.143 108.312 105.928 108.396 105.727C108.48 105.525 108.607 105.342 108.769 105.187C108.931 105.031 109.126 104.908 109.341 104.824C109.556 104.74 109.787 104.697 110.02 104.697H154.152C154.634 104.699 155.096 104.873 155.442 105.183C155.787 105.493 155.991 105.914 156.008 106.358C156.017 106.574 155.979 106.788 155.896 106.989C155.813 107.191 155.687 107.374 155.526 107.53C155.365 107.685 155.171 107.809 154.957 107.894C154.743 107.98 154.513 108.024 154.28 108.025Z" fill="#E0E0E0"/>
<g opacity="0.3">
<path opacity="0.3" d="M91.7964 153.167C93.96 153.207 96.0319 153.982 97.6157 155.344C99.1995 156.707 100.184 158.562 100.38 160.553C100.484 161.486 100.378 162.429 100.067 163.322C99.7569 164.216 99.2493 165.039 98.5766 165.742C97.8983 166.432 97.0683 166.981 96.142 167.35C95.2157 167.72 94.2146 167.903 93.2058 167.886C91.0235 167.853 88.9292 167.085 87.3165 165.726C85.7037 164.367 84.6836 162.51 84.4478 160.505C84.3484 159.565 84.4654 158.616 84.7913 157.721C85.1172 156.826 85.6445 156.005 86.3386 155.311C87.037 154.623 87.8831 154.077 88.8229 153.707C89.7626 153.338 90.7754 153.154 91.7964 153.167ZM91.7152 151.618C90.4731 151.596 89.2399 151.816 88.0964 152.265C86.9529 152.714 85.9249 153.381 85.0799 154.222C84.2349 155.064 83.5919 156.061 83.1931 157.149C82.7943 158.236 82.6487 159.389 82.7658 160.532C83.2124 165.452 88.0438 169.446 93.3682 169.446C98.6926 169.446 102.509 165.452 102.068 160.532C101.838 158.128 100.654 155.888 98.7437 154.242C96.8335 152.596 94.3321 151.662 91.721 151.618H91.7152Z" fill="#02A1FC"/>
</g>
<path d="M161.82 133.534H110.89C110.657 133.534 110.426 133.577 110.211 133.661C109.996 133.745 109.801 133.868 109.639 134.024C109.477 134.179 109.35 134.362 109.266 134.564C109.182 134.765 109.143 134.98 109.15 135.195C109.171 135.64 109.376 136.06 109.722 136.37C110.069 136.679 110.531 136.853 111.012 136.857H161.965C162.199 136.857 162.43 136.814 162.645 136.73C162.86 136.646 163.054 136.522 163.217 136.367C163.379 136.212 163.506 136.029 163.59 135.827C163.674 135.626 163.713 135.411 163.705 135.195C163.687 134.746 163.48 134.321 163.128 134.011C162.776 133.7 162.307 133.529 161.82 133.534Z" fill="#E0E0E0"/>
<path d="M149.75 126.533H110.67C110.436 126.533 110.204 126.577 109.989 126.661C109.774 126.746 109.579 126.869 109.416 127.025C109.254 127.181 109.127 127.365 109.044 127.567C108.96 127.769 108.921 127.984 108.93 128.2C108.946 128.645 109.148 129.066 109.493 129.375C109.838 129.685 110.299 129.86 110.78 129.862H149.866C150.1 129.862 150.331 129.819 150.546 129.735C150.761 129.651 150.955 129.527 151.118 129.372C151.28 129.217 151.407 129.034 151.491 128.832C151.575 128.631 151.614 128.416 151.606 128.2C151.593 127.754 151.391 127.33 151.045 127.019C150.698 126.707 150.234 126.533 149.75 126.533Z" fill="#E0E0E0"/>
<path d="M90.4393 108.122L89.7549 107.082C88.2527 104.815 85.1149 102.794 84.0361 102.199L84.8481 100.87C86.9785 102.062 88.8766 103.576 90.4625 105.351C92.9275 102.29 96.5293 99.1438 101.407 95.7456L102.457 96.9998C97.2369 100.629 93.5365 103.968 91.1643 107.146C90.9265 107.473 90.6829 107.8 90.4393 108.122Z" fill="#02A1FC"/>
<path d="M91.3095 136.959C91.0833 136.61 90.8513 136.262 90.6193 135.919C89.1113 133.652 85.9793 131.631 84.9121 131.031L85.7357 129.701C87.8551 130.896 89.743 132.411 91.3211 134.182C93.7919 131.127 97.4227 127.975 102.376 124.577L103.403 125.831C98.1129 129.46 94.3893 132.799 92.0287 135.978L91.3095 136.959Z" fill="#02A1FC"/>
<path d="M93.2987 165.86L92.5331 164.82C90.8627 162.553 87.6263 160.532 86.5127 159.937L87.2667 158.608C89.4584 159.808 91.4331 161.318 93.1189 163.083C95.3925 160.028 98.8493 156.877 103.652 153.484L104.736 154.738C99.6091 158.367 96.0885 161.706 93.9483 164.884L93.2987 165.86Z" fill="#02A1FC"/>
<path d="M129.978 69.144C128.957 71.2023 127.911 73.2587 126.84 75.3134C129.048 76.3283 130.936 77.8518 132.321 79.737C133.707 81.6221 134.544 83.8054 134.751 86.0763H142.459C141.949 78.792 136.88 72.4512 129.978 69.144Z" fill="#F9BE00"/>
<path d="M100.612 86.0871H108.32C108.131 84.0722 108.529 82.0472 109.471 80.2218C110.413 78.3964 111.866 76.8369 113.68 75.7048C112.179 73.6465 110.656 71.5883 109.109 69.53C103.483 72.8961 100.119 79.0655 100.612 86.0871Z" fill="#E94235"/>
<path d="M119.549 66.7535C115.851 66.7197 112.223 67.6847 109.109 69.53C110.656 71.5883 112.18 73.6465 113.68 75.7048C115.689 74.4912 118.042 73.8534 120.443 73.8716C122.664 73.8835 124.85 74.3813 126.823 75.3242C127.89 73.2659 128.936 71.2095 129.96 69.1548C126.747 67.5982 123.177 66.7749 119.549 66.7535Z" fill="#02A1FC"/>
<path opacity="0.5" d="M119.549 66.7535C115.851 66.7197 112.223 67.6847 109.109 69.53C110.656 71.5883 112.18 73.6465 113.68 75.7048C115.689 74.4912 118.042 73.8534 120.443 73.8716C122.664 73.8835 124.85 74.3813 126.823 75.3242C127.89 73.2659 128.936 71.2095 129.96 69.1548C126.747 67.5982 123.177 66.7749 119.549 66.7535Z" fill="#02A1FC"/>
<path d="M128.968 81.2095C128.968 81.2095 121.185 84.1521 120.361 84.6881C120.165 84.8258 120 84.9984 119.876 85.1958C119.753 85.3933 119.673 85.6115 119.642 85.8378C119.612 86.064 119.63 86.2937 119.697 86.5132C119.763 86.7328 119.877 86.9378 120.031 87.1162C120.321 87.4975 120.761 87.7594 121.257 87.8464C121.752 87.9334 122.265 87.8388 122.687 87.5825C123.54 87.0143 128.98 81.2095 128.968 81.2095ZM120.79 86.5695C120.715 86.4817 120.659 86.3808 120.626 86.2727C120.593 86.1646 120.584 86.0516 120.599 85.9402C120.614 85.8288 120.653 85.7214 120.714 85.6242C120.775 85.527 120.856 85.442 120.953 85.3742C121.162 85.25 121.414 85.2047 121.658 85.2476C121.902 85.2905 122.119 85.4183 122.264 85.6047C122.339 85.6925 122.395 85.7934 122.428 85.9014C122.461 86.0095 122.47 86.1226 122.455 86.2339C122.44 86.3453 122.401 86.4528 122.34 86.55C122.279 86.6472 122.198 86.7322 122.101 86.8C121.895 86.9264 121.645 86.9751 121.401 86.9363C121.157 86.8974 120.939 86.7738 120.79 86.5909V86.5695Z" fill="#28BB46"/>
<path d="M138.196 77.8057C138.234 78.1283 138.197 78.4547 138.088 78.7632C137.979 79.0716 137.8 79.3549 137.563 79.5943C137.325 79.8337 137.036 80.0237 136.713 80.1515C136.39 80.2793 136.042 80.3421 135.691 80.3356C134.947 80.3221 134.234 80.0573 133.687 79.5911C133.139 79.125 132.796 78.4899 132.721 77.8057C132.681 77.4848 132.716 77.1598 132.823 76.8524C132.931 76.545 133.108 76.2623 133.343 76.0233C133.578 75.7842 133.865 75.5944 134.186 75.4664C134.507 75.3384 134.854 75.2752 135.203 75.2811C135.949 75.2928 136.665 75.5557 137.216 76.0206C137.767 76.4854 138.116 77.1202 138.196 77.8057Z" fill="white"/>
<path d="M134.803 77.2268C134.809 77.2777 134.803 77.3292 134.786 77.3778C134.769 77.4265 134.741 77.4712 134.703 77.5091C134.666 77.5471 134.621 77.5773 134.57 77.5979C134.519 77.6186 134.464 77.6291 134.409 77.6288C134.29 77.628 134.176 77.5865 134.088 77.5122C134 77.438 133.945 77.3363 133.933 77.2268C133.927 77.1757 133.932 77.1239 133.949 77.0749C133.966 77.0258 133.994 76.9807 134.031 76.9426C134.069 76.9045 134.115 76.8742 134.166 76.8539C134.217 76.8336 134.272 76.8237 134.328 76.8248C134.447 76.8256 134.561 76.8671 134.649 76.9414C134.737 77.0156 134.792 77.1173 134.803 77.2268Z" fill="#263238"/>
<path d="M136.88 77.227C136.885 77.2783 136.879 77.3302 136.862 77.3793C136.844 77.4283 136.815 77.4733 136.778 77.5113C136.74 77.5493 136.694 77.5795 136.642 77.5997C136.591 77.62 136.535 77.63 136.479 77.6289C136.361 77.6258 136.248 77.5835 136.161 77.5097C136.073 77.4359 136.018 77.3356 136.004 77.227C135.997 77.1754 136.002 77.1231 136.02 77.0737C136.037 77.0243 136.066 76.9789 136.104 76.9407C136.142 76.9025 136.188 76.8723 136.24 76.8524C136.292 76.8324 136.348 76.823 136.404 76.825C136.523 76.8258 136.637 76.8673 136.725 76.9415C136.813 77.0158 136.868 77.1175 136.88 77.227Z" fill="#263238"/>
<path d="M135.586 79.328C135.012 79.3238 134.461 79.1233 134.038 78.7652C133.998 78.7281 133.976 78.678 133.976 78.6259C133.976 78.5737 133.998 78.5236 134.038 78.4865C134.057 78.4677 134.08 78.4527 134.106 78.4425C134.132 78.4323 134.16 78.427 134.188 78.427C134.216 78.427 134.244 78.4323 134.27 78.4425C134.296 78.4527 134.32 78.4677 134.339 78.4865C134.682 78.7789 135.131 78.9431 135.598 78.9475C135.814 78.9519 136.03 78.9142 136.23 78.8366C136.429 78.759 136.609 78.6434 136.758 78.4972C136.797 78.4588 136.851 78.4364 136.908 78.4349C136.936 78.4342 136.965 78.4386 136.991 78.4479C137.017 78.4572 137.042 78.4712 137.062 78.4892C137.083 78.5071 137.099 78.5286 137.111 78.5525C137.122 78.5764 137.129 78.6021 137.13 78.6282C137.13 78.6543 137.126 78.6804 137.116 78.7048C137.106 78.7292 137.09 78.7516 137.071 78.7706C136.88 78.9549 136.649 79.0999 136.393 79.1959C136.137 79.292 135.862 79.337 135.586 79.328Z" fill="#263238"/>
<path d="M122.739 70.2697C122.787 70.5886 122.759 70.9134 122.658 71.2215C122.557 71.5297 122.385 71.8138 122.153 72.0544C121.922 72.295 121.636 72.4862 121.317 72.6149C120.997 72.7435 120.651 72.8066 120.303 72.7996C119.553 72.7835 118.834 72.5194 118.276 72.0552C117.719 71.591 117.359 70.9576 117.264 70.2697C117.212 69.9522 117.236 69.6281 117.335 69.3201C117.433 69.0122 117.603 68.7279 117.833 68.4872C118.063 68.2465 118.347 68.0554 118.666 67.9272C118.984 67.799 119.329 67.7368 119.677 67.7451C120.428 67.7615 121.149 68.0244 121.71 68.487C122.271 68.9495 122.636 69.5814 122.739 70.2697Z" fill="white"/>
<path d="M119.33 69.68C119.337 69.7303 119.333 69.7815 119.317 69.8302C119.301 69.8789 119.274 69.9238 119.238 69.9619C119.201 70.0001 119.157 70.0305 119.106 70.0512C119.056 70.072 119.002 70.0824 118.947 70.082C118.827 70.0792 118.713 70.0373 118.623 69.9636C118.534 69.89 118.476 69.7895 118.46 69.68C118.451 69.6295 118.455 69.5779 118.47 69.5288C118.486 69.4798 118.513 69.4344 118.549 69.3961C118.586 69.3577 118.631 69.3272 118.681 69.3068C118.732 69.2864 118.787 69.2766 118.842 69.278C118.962 69.2796 119.078 69.3212 119.167 69.395C119.257 69.4689 119.314 69.57 119.33 69.68Z" fill="#263238"/>
<path d="M121.4 69.6799C121.407 69.7307 121.403 69.7824 121.387 69.8315C121.371 69.8805 121.343 69.9257 121.306 69.964C121.269 70.0022 121.224 70.0326 121.173 70.0529C121.122 70.0733 121.067 70.0832 121.011 70.0819C120.892 70.0781 120.778 70.0358 120.689 69.9624C120.6 69.8889 120.542 69.789 120.524 69.6799C120.517 69.6291 120.521 69.5774 120.537 69.5284C120.553 69.4794 120.581 69.4342 120.618 69.3959C120.655 69.3577 120.7 69.3273 120.751 69.3069C120.802 69.2866 120.857 69.2767 120.913 69.2779C121.032 69.2807 121.147 69.3226 121.236 69.3963C121.325 69.4699 121.383 69.5704 121.4 69.6799Z" fill="#263238"/>
<path d="M121.458 71.288H118.743C118.692 71.2802 118.645 71.2557 118.611 71.2189C118.577 71.182 118.559 71.1353 118.559 71.087C118.559 71.0387 118.577 70.9919 118.611 70.9551C118.645 70.9183 118.692 70.8938 118.743 70.886H121.458C121.509 70.8938 121.556 70.9183 121.59 70.9551C121.624 70.9919 121.643 71.0387 121.643 71.087C121.643 71.1353 121.624 71.182 121.59 71.2189C121.556 71.2557 121.509 71.2802 121.458 71.288Z" fill="#263238"/>
<path d="M108.965 77.8057C109.003 78.1283 108.966 78.4547 108.857 78.7632C108.747 79.0716 108.568 79.3549 108.331 79.5943C108.094 79.8337 107.804 80.0237 107.482 80.1515C107.159 80.2793 106.81 80.3421 106.459 80.3356C105.715 80.3221 105.002 80.0573 104.455 79.5911C103.908 79.125 103.565 78.4899 103.49 77.8057C103.45 77.4848 103.485 77.1598 103.592 76.8524C103.699 76.545 103.876 76.2623 104.111 76.0233C104.346 75.7842 104.634 75.5944 104.955 75.4664C105.276 75.3384 105.622 75.2752 105.972 75.2811C106.718 75.2939 107.433 75.5573 107.983 76.0219C108.534 76.4865 108.883 77.1207 108.965 77.8057Z" fill="white"/>
<path d="M105.56 77.2268C105.566 77.2777 105.56 77.3292 105.543 77.3778C105.526 77.4265 105.497 77.4712 105.46 77.5091C105.423 77.5471 105.378 77.5773 105.327 77.5979C105.276 77.6186 105.221 77.6291 105.166 77.6288C105.047 77.628 104.932 77.5865 104.845 77.5122C104.757 77.438 104.702 77.3363 104.69 77.2268C104.684 77.1757 104.689 77.1239 104.706 77.0749C104.723 77.0258 104.751 76.9807 104.788 76.9426C104.826 76.9045 104.871 76.8742 104.923 76.8539C104.974 76.8336 105.029 76.8237 105.085 76.8248C105.204 76.8256 105.318 76.8671 105.406 76.9414C105.494 77.0156 105.549 77.1173 105.56 77.2268Z" fill="#263238"/>
<path d="M107.636 77.2268C107.643 77.2779 107.638 77.3297 107.621 77.3787C107.604 77.4277 107.576 77.4729 107.539 77.511C107.501 77.5491 107.455 77.5793 107.404 77.5997C107.353 77.62 107.298 77.6299 107.242 77.6288C107.124 77.6257 107.011 77.5834 106.923 77.5096C106.836 77.4358 106.78 77.3354 106.766 77.2268C106.76 77.1757 106.765 77.1239 106.782 77.0749C106.799 77.0258 106.827 76.9807 106.864 76.9426C106.902 76.9045 106.948 76.8742 106.999 76.8539C107.05 76.8336 107.105 76.8237 107.161 76.8248C107.28 76.8244 107.395 76.8655 107.484 76.94C107.572 77.0145 107.626 77.1168 107.636 77.2268Z" fill="#263238"/>
<path d="M104.98 79.328C104.954 79.3284 104.927 79.3238 104.902 79.3146C104.877 79.3054 104.854 79.2918 104.835 79.2744C104.796 79.2373 104.773 79.1872 104.773 79.1351C104.773 79.0829 104.796 79.0328 104.835 78.9957C105.023 78.8109 105.251 78.664 105.504 78.5644C105.756 78.4647 106.028 78.4145 106.303 78.4168C106.877 78.4225 107.429 78.6249 107.851 78.985C107.872 79.003 107.888 79.0246 107.899 79.0486C107.91 79.0725 107.916 79.0983 107.916 79.1243C107.916 79.1504 107.91 79.1762 107.899 79.2001C107.888 79.2241 107.872 79.2457 107.851 79.2637C107.81 79.2995 107.755 79.3194 107.698 79.3194C107.641 79.3194 107.586 79.2995 107.544 79.2637C107.201 78.9678 106.749 78.8031 106.28 78.8027C106.063 78.7982 105.849 78.8355 105.649 78.9121C105.449 78.9887 105.269 79.103 105.12 79.2476C105.086 79.2896 105.036 79.3183 104.98 79.328Z" fill="#263238"/>
<path d="M148.909 59.2602C147.099 55.7387 142.877 53.4071 138.324 53.4071H129.044C128.407 53.4331 127.773 53.303 127.208 53.03C126.643 52.7571 126.166 52.3509 125.825 51.8527C124.531 49.6122 121.446 48.0149 117.943 48.0149C114.439 48.0149 111.563 49.6229 110.542 51.8527C110.118 52.796 108.906 53.4071 107.514 53.4071H98.2342C93.6812 53.4071 89.743 55.7387 88.3742 59.2602C88.3234 59.3831 88.3036 59.5151 88.3162 59.6461C88.3311 59.921 88.4598 60.1801 88.6758 60.3697C88.8917 60.5593 89.1783 60.6648 89.4762 60.6645H147.987C148.165 60.6649 148.341 60.6226 148.497 60.5417C148.653 60.4608 148.784 60.3441 148.876 60.2028C148.969 60.0616 149.021 59.9006 149.027 59.7354C149.032 59.5703 148.992 59.4066 148.909 59.2602ZM118.32 54.3772C117.627 54.364 116.965 54.1119 116.464 53.6705C115.963 53.2291 115.659 52.6303 115.611 51.992C115.588 51.6846 115.634 51.376 115.746 51.0858C115.858 50.7956 116.034 50.5301 116.263 50.3059C116.492 50.0818 116.769 49.904 117.076 49.7836C117.383 49.6633 117.713 49.6031 118.047 49.6068C118.744 49.6135 119.412 49.8628 119.918 50.305C120.425 50.7471 120.732 51.3496 120.779 51.992C120.802 52.3013 120.756 52.6117 120.642 52.9034C120.528 53.1951 120.35 53.4617 120.119 53.6861C119.887 53.9106 119.608 54.0879 119.298 54.2069C118.988 54.3259 118.655 54.3839 118.32 54.3772Z" fill="#263238"/>
<path d="M209.043 219.283C208.589 219.335 208.131 219.23 207.755 218.988C207.706 218.931 207.676 218.862 207.669 218.79C207.661 218.718 207.678 218.645 207.715 218.581C207.743 218.526 207.784 218.477 207.835 218.439C207.886 218.401 207.946 218.374 208.011 218.361C208.695 218.184 210.278 218.967 210.331 219.004C210.35 219.012 210.367 219.026 210.377 219.043C210.388 219.061 210.392 219.081 210.389 219.101C210.388 219.118 210.38 219.136 210.368 219.149C210.355 219.163 210.338 219.172 210.319 219.176C209.898 219.245 209.471 219.281 209.043 219.283ZM208.277 218.522C208.214 218.513 208.15 218.513 208.086 218.522C208.046 218.529 208.009 218.544 207.977 218.566C207.945 218.588 207.919 218.617 207.9 218.65C207.842 218.768 207.9 218.827 207.9 218.859C208.132 219.111 209.211 219.117 209.988 219.015C209.455 218.757 208.875 218.59 208.277 218.522Z" fill="#407BFF"/>
<path d="M210.319 219.176H210.278C209.739 218.961 208.614 218.104 208.637 217.664C208.637 217.557 208.707 217.428 208.985 217.402C209.193 217.385 209.401 217.443 209.565 217.562C209.999 217.983 210.293 218.509 210.412 219.079C210.419 219.093 210.423 219.107 210.423 219.122C210.423 219.137 210.419 219.152 210.412 219.165C210.399 219.174 210.383 219.179 210.367 219.181C210.351 219.183 210.334 219.181 210.319 219.176ZM209.084 217.568H209.026C208.846 217.568 208.84 217.648 208.84 217.67C208.84 217.938 209.6 218.608 210.162 218.897C210.052 218.439 209.805 218.02 209.449 217.686C209.344 217.613 209.215 217.575 209.084 217.579V217.568Z" fill="#407BFF"/>
<path d="M214.994 219.085H210.731L209.206 209.962H213.469L214.994 219.085Z" fill="#FFC3BD"/>
<path d="M210.702 218.629H215.342C215.429 218.631 215.514 218.658 215.584 218.706C215.655 218.754 215.708 218.821 215.736 218.897L217.001 222.397C217.027 222.476 217.034 222.559 217.021 222.64C217.007 222.721 216.974 222.799 216.923 222.866C216.872 222.933 216.805 222.989 216.727 223.028C216.649 223.068 216.562 223.09 216.473 223.094C214.791 223.094 212.355 222.981 210.244 222.981C207.779 222.981 207.999 223.105 205.105 223.105C203.365 223.105 202.675 221.47 203.365 221.32C206.619 220.65 206.996 220.575 209.675 218.935C209.975 218.738 210.334 218.631 210.702 218.629Z" fill="#263238"/>
<path opacity="0.2" d="M209.206 209.967L209.995 214.668H214.258L213.469 209.967H209.206Z" fill="black"/>
<path d="M214.506 120.841L211.606 123.548L216.049 125C216.049 125 217.789 122.792 216.565 121.281L214.506 120.841Z" fill="#FFC3BD"/>
<path d="M210.633 127.332L215.07 127.933L216.062 125.001L211.619 123.548L210.633 127.332Z" fill="#FFC3BD"/>
<path d="M216.444 87.5127C216.821 88.2631 217.123 88.9009 217.424 89.5977C217.726 90.2945 218.004 90.9645 218.294 91.6506C218.845 93.0281 219.338 94.4325 219.796 95.8529C220.263 97.2899 220.65 98.7479 220.956 100.221L221.177 101.347L221.357 102.494C221.42 102.874 221.461 103.271 221.496 103.662C221.531 104.054 221.589 104.407 221.589 104.901V105.597V106.214L221.554 106.819L221.49 107.393C221.415 108.165 221.304 108.888 221.2 109.623C220.968 111.07 220.701 112.485 220.405 113.911C219.791 116.714 219.118 119.453 218.306 122.213L213.022 121.249C213.358 118.526 213.706 115.76 213.985 113.037C214.118 111.676 214.263 110.319 214.344 108.99C214.379 108.336 214.42 107.672 214.42 107.045V106.573V106.139V105.705L214.379 105.351C214.353 105.068 214.31 104.787 214.252 104.509C214.199 104.209 214.153 103.909 214.078 103.603L213.863 102.687L213.614 101.765C213.254 100.532 212.848 99.294 212.384 98.0558C211.92 96.8177 211.404 95.5849 210.859 94.3628C210.592 93.7464 210.313 93.1353 210.023 92.535C209.733 91.9347 209.443 91.3076 209.159 90.7877L216.444 87.5127Z" fill="#263238"/>
<path d="M196.417 118.922C196.417 118.922 197.125 149.067 199.039 161.073C201.034 173.562 208.319 213.757 208.319 213.757H215.534C215.534 213.757 212.947 175.503 212.123 163.212C211.224 149.812 211.422 118.922 211.422 118.922H196.417Z" fill="#407BFF"/>
<path d="M206.584 211.098C206.549 211.098 207.327 213.869 207.327 213.869H216.108L216.044 211.398L206.584 211.098Z" fill="#263238"/>
<path d="M194.791 70.0548C194.813 69.7209 194.639 69.4393 194.402 69.4259C194.166 69.4124 193.956 69.6722 193.934 70.0061C193.912 70.3399 194.085 70.6215 194.322 70.6349C194.559 70.6484 194.768 70.3887 194.791 70.0548Z" fill="#263238"/>
<path d="M194.613 70.634C194.143 71.6559 193.526 72.6149 192.78 73.4856C193.024 73.6491 193.304 73.7608 193.599 73.8127C193.895 73.8646 194.2 73.8554 194.491 73.7857L194.613 70.634Z" fill="#ED847E"/>
<path d="M196.144 68.1792C196.099 68.1792 196.055 68.1681 196.016 68.147C195.808 67.9961 195.565 67.8939 195.305 67.8491C195.045 67.8043 194.778 67.8182 194.525 67.8897C194.5 67.8992 194.472 67.9037 194.444 67.9032C194.416 67.9026 194.389 67.8969 194.363 67.8864C194.338 67.8759 194.315 67.8609 194.296 67.8421C194.277 67.8233 194.262 67.8013 194.253 67.7771C194.244 67.7525 194.24 67.7265 194.242 67.7005C194.243 67.6745 194.251 67.649 194.263 67.6257C194.275 67.6023 194.293 67.5814 194.314 67.5641C194.335 67.5469 194.36 67.5337 194.386 67.5252C194.704 67.4297 195.042 67.4071 195.372 67.4594C195.701 67.5116 196.012 67.6373 196.277 67.8254C196.321 67.8572 196.35 67.9035 196.357 67.9545C196.365 68.0055 196.351 68.0572 196.318 68.0988C196.297 68.1236 196.271 68.1437 196.241 68.1577C196.211 68.1716 196.177 68.1789 196.144 68.1792Z" fill="#263238"/>
<path d="M206.074 73.7107C205.355 76.5944 204.543 81.874 206.654 83.7929C206.654 83.7929 205.691 86.7141 199.897 86.7141C193.517 86.7141 196.968 83.7929 196.968 83.7929C200.448 83.0264 200.477 80.6465 199.955 78.4061L206.074 73.7107Z" fill="#FFC3BD"/>
<path d="M208.898 85.1436C209.524 83.9697 210.214 82.619 208.898 82.2009C207.459 81.7346 199.508 81.2629 196.718 82.1313C195.973 82.3068 195.333 82.7488 194.941 83.36C194.548 83.9711 194.434 84.7014 194.624 85.3901L208.898 85.1436Z" fill="#407BFF"/>
<path d="M214.999 84.9239C218.671 86.4891 220.538 98.3561 220.538 98.3561L213.143 100.5C211.822 97.3603 210.75 94.1358 209.936 90.8521C208.799 85.8995 211.241 83.3267 214.999 84.9239Z" fill="#263238"/>
<path d="M169.551 103.389L166.14 100.677L163.072 104.804C163.072 104.804 165.827 106.846 168.872 106.01L169.551 103.389Z" fill="#FFC3BD"/>
<path d="M161.646 99.3638L161.176 103.443L163.072 104.804L166.141 100.677L161.646 99.3638Z" fill="#FFC3BD"/>
<path d="M206.856 69.3208C206.427 73.4159 206.398 75.8279 204.078 77.929C203.331 78.613 202.396 79.0964 201.375 79.3274C200.353 79.5583 199.283 79.5282 198.278 79.2403C197.274 78.9523 196.373 78.4173 195.672 77.6925C194.971 76.9677 194.497 76.0805 194.299 75.1257C193.487 71.4488 194.299 65.3705 198.725 63.7411C199.667 63.3657 200.699 63.2258 201.718 63.3353C202.737 63.4448 203.707 63.8 204.531 64.3652C205.354 64.9303 206.003 65.6857 206.411 66.5555C206.819 67.4252 206.973 68.3789 206.856 69.3208Z" fill="#FFC3BD"/>
<path d="M197.779 70.6341C197.391 67.804 197.455 66.732 199.09 66.1049C197.391 65.794 195.918 65.7511 195.216 64.8345C194.514 63.918 194.346 61.5757 197.756 60.5037C197.443 61.0397 198.435 62.1545 201.573 61.1469C204.71 60.1392 209.281 60.032 209.693 62.98C211.351 62.444 214.13 67.1769 210.853 70.6341C208.121 73.5285 206.3 75.5277 205.76 77.0661C205.735 77.1381 205.694 77.2044 205.639 77.2606C205.584 77.3167 205.516 77.3615 205.441 77.3919C205.366 77.4223 205.285 77.4376 205.203 77.4369C205.121 77.4362 205.04 77.4194 204.966 77.3877C203.835 76.8999 201.81 77.318 200.906 77.5431C200.778 77.5736 200.643 77.5632 200.523 77.5135C200.403 77.4639 200.305 77.3779 200.244 77.2697C199.659 76.1549 198.075 72.971 197.779 70.6341Z" fill="#263238"/>
<path d="M209.078 63.3392C209.078 63.3392 210.424 61.5865 213.005 62.8889C211.678 62.8318 210.35 62.9841 209.078 63.3392Z" fill="#263238"/>
<path d="M209.299 63.7143C209.299 63.7143 211.172 62.6423 209.711 60.6216C209.8 61.6676 209.66 62.7196 209.299 63.7143Z" fill="#263238"/>
<path d="M199.949 70.752C199.745 71.7653 199.201 72.6937 198.394 73.4051C197.321 74.3431 196.393 73.6785 196.364 72.4725C196.335 71.4005 196.857 69.5888 198.104 69.1064C199.351 68.624 200.169 69.5406 199.949 70.752Z" fill="#FFC3BD"/>
<path opacity="0.3" d="M197.014 135.672C197.431 144.666 198.087 155.108 199.038 161.073C199.403 163.346 199.937 166.53 200.575 170.223C203.139 157.295 204.67 140.636 197.014 135.672Z" fill="black"/>
<path d="M193.818 219.283C193.273 219.283 192.745 219.213 192.577 218.988C192.533 218.928 192.51 218.857 192.51 218.784C192.51 218.712 192.533 218.641 192.577 218.581C192.655 218.473 192.772 218.395 192.908 218.361C193.621 218.184 195.083 218.967 195.146 219.004C195.164 219.013 195.178 219.028 195.186 219.046C195.193 219.063 195.194 219.083 195.187 219.101C195.183 219.119 195.173 219.136 195.159 219.149C195.144 219.163 195.126 219.172 195.106 219.176C194.681 219.244 194.25 219.28 193.818 219.283ZM193.174 218.522C193.109 218.513 193.043 218.513 192.977 218.522C192.936 218.529 192.896 218.544 192.861 218.566C192.826 218.589 192.797 218.617 192.774 218.65C192.699 218.768 192.722 218.827 192.745 218.859C192.937 219.111 194.01 219.117 194.81 219.015C194.305 218.753 193.749 218.585 193.174 218.522Z" fill="#407BFF"/>
<path d="M195.111 219.176H195.071C194.566 218.961 193.574 218.104 193.673 217.664C193.673 217.557 193.777 217.428 194.056 217.402C194.159 217.39 194.264 217.398 194.364 217.425C194.464 217.453 194.556 217.5 194.636 217.562C195.163 217.975 195.216 219.036 195.216 219.079C195.215 219.096 195.211 219.112 195.203 219.127C195.195 219.142 195.183 219.155 195.169 219.165C195.151 219.173 195.131 219.177 195.111 219.176ZM194.131 217.568H194.073C193.887 217.568 193.876 217.648 193.87 217.67C193.812 217.938 194.479 218.608 194.995 218.897C194.963 218.454 194.783 218.03 194.479 217.686C194.38 217.613 194.257 217.575 194.131 217.579V217.568Z" fill="#407BFF"/>
<path d="M199.798 219.085H195.541L195.46 209.962H199.723L199.798 219.085Z" fill="#FFC3BD"/>
<path d="M195.581 218.629H200.221C200.304 218.628 200.385 218.654 200.449 218.703C200.513 218.753 200.555 218.821 200.569 218.897L201.283 222.397C201.299 222.483 201.294 222.572 201.269 222.656C201.244 222.74 201.199 222.819 201.138 222.885C201.076 222.952 201 223.005 200.914 223.041C200.827 223.077 200.734 223.095 200.639 223.094C198.963 223.094 196.538 222.981 194.433 222.981C191.962 222.981 189.828 223.104 186.933 223.104C185.193 223.104 184.764 221.47 185.501 221.32C188.859 220.65 191.585 220.575 194.526 218.934C194.841 218.746 195.206 218.64 195.581 218.629Z" fill="#263238"/>
<path opacity="0.2" d="M195.466 209.967L195.501 214.668H199.764L199.729 209.967H195.466Z" fill="black"/>
<path d="M188.813 118.922C188.813 118.922 187.073 148.365 187.108 160.371C187.108 172.86 193.952 213.757 193.952 213.757H201.167C201.167 213.757 199.288 173.589 200.1 161.336C200.964 147.936 205.152 118.933 205.152 118.933L188.813 118.922Z" fill="#407BFF"/>
<path d="M192.664 211.098C192.629 211.098 192.96 213.869 192.96 213.869H201.741L202.077 211.398L192.664 211.098Z" fill="#263238"/>
<path d="M190.367 84.8862C190.367 84.8862 183.106 101.84 186.267 131.143H212.784C213.063 127.927 210.29 99.9157 214.246 84.6825C211.737 84.2337 209.199 83.9364 206.648 83.7928C203.422 83.6212 200.188 83.6212 196.962 83.7928C194.737 83.9997 192.532 84.3653 190.367 84.8862Z" fill="#263238"/>
<path opacity="0.2" d="M186.615 100.232C186.22 102.912 185.895 105.972 185.687 109.344C190.837 104.97 192.6 94.0732 192.6 94.0732L186.615 100.232Z" fill="black"/>
<path d="M193.099 92.9584C192.055 95.4669 190.999 97.8842 189.839 100.312C188.679 102.74 187.478 105.136 186.127 107.538L185.599 108.433L185.332 108.883C185.222 109.065 185.234 109.076 184.932 109.542C184.412 110.298 183.691 110.918 182.838 111.343C182.133 111.686 181.363 111.901 180.571 111.976C179.481 112.068 178.382 111.986 177.323 111.734C176.485 111.543 175.663 111.296 174.863 110.995C173.428 110.446 172.038 109.801 170.705 109.065C170.049 108.717 169.423 108.342 168.802 107.993C168.182 107.645 167.619 107.2 166.952 106.771L170.084 102.333C172.332 103.478 174.691 104.423 177.131 105.158C177.649 105.306 178.178 105.417 178.715 105.49C179.02 105.55 179.337 105.55 179.643 105.49C179.677 105.49 179.567 105.458 179.376 105.549C179.143 105.659 178.943 105.821 178.796 106.021C178.674 106.208 178.831 105.93 178.883 105.822L179.092 105.399L179.509 104.557C180.611 102.285 181.632 99.9318 182.624 97.5895C183.616 95.2471 184.578 92.803 185.466 90.4392L193.099 92.9584Z" fill="#263238"/>
<path d="M195.981 86.6659C197.339 90.1713 187.734 104.284 187.734 104.284L182.038 99.0689C182.038 99.0689 183.494 94.6362 185.414 89.2977C187.304 84.0502 194.688 83.3159 195.981 86.6659Z" fill="#263238"/>
</svg>
