<svg width="542" height="542" viewBox="0 0 542 542" fill="none" xmlns="http://www.w3.org/2000/svg">
<path d="M226.263 47.7065H82.0698V268.799H226.263V47.7065Z" fill="#DBDBDB"/>
<path d="M150.817 56.563H89.9287V154.903H150.817V56.563Z" fill="white"/>
<path d="M218.404 56.563H157.516V154.903H218.404V56.563Z" fill="white"/>
<path d="M150.817 161.603H89.9287V259.943H150.817V161.603Z" fill="white"/>
<path d="M218.404 161.603H157.516V259.943H218.404V161.603Z" fill="white"/>
<path d="M116.227 47.7065H82.0698V364.018H116.227V47.7065Z" fill="#EBEBEB"/>
<path d="M109.744 62.7417L110.004 96.9419L110.102 131.142L110.286 199.542L110.102 267.943L110.015 302.143L109.744 336.343L109.484 302.143L109.386 267.943L109.202 199.542L109.386 131.142L109.484 96.9419L109.744 62.7417Z" fill="white"/>
<path d="M94.0693 70.6768L94.3295 101.213L94.4813 131.749L94.6005 192.822L94.4813 253.905L94.3295 284.442L94.0693 314.978L93.7983 284.442L93.6466 253.905L93.5273 192.822L93.6466 131.749L93.7983 101.213L94.0693 70.6768Z" fill="white"/>
<path d="M101.907 77.8853L102.167 113.646L102.264 149.397L102.449 220.919L102.264 292.431L102.167 328.192L101.907 363.942L101.636 328.192L101.549 292.431L101.365 220.919L101.549 149.397L101.647 113.646L101.907 77.8853Z" fill="white"/>
<path d="M88.227 64.5518L88.498 101.971L88.5955 139.391L88.769 214.241L88.5955 289.092L88.498 326.522L88.227 363.942L87.9668 326.522L87.8692 289.092L87.6958 214.241L87.8692 139.391L87.9668 101.971L88.227 64.5518Z" fill="white"/>
<path d="M192.106 364.018H226.263L226.263 47.7064H192.106L192.106 364.018Z" fill="#EBEBEB"/>
<path d="M198.578 62.7417L198.849 96.9419L198.947 131.142L199.12 199.542L198.947 267.943L198.849 302.143L198.578 336.343L198.318 302.143L198.22 267.943L198.036 199.542L198.22 131.142L198.318 96.9419L198.578 62.7417Z" fill="white"/>
<path d="M214.264 70.6768L214.524 101.213L214.676 131.749L214.806 192.822L214.686 253.905L214.535 284.442L214.264 314.978L214.004 284.442L213.852 253.905L213.722 192.822L213.852 131.749L214.004 101.213L214.264 70.6768Z" fill="white"/>
<path d="M206.426 77.8853L206.686 113.646L206.784 149.397L206.968 220.919L206.784 292.431L206.686 328.192L206.426 363.942L206.155 328.192L206.058 292.431L205.884 220.919L206.069 149.397L206.166 113.646L206.426 77.8853Z" fill="white"/>
<path d="M220.095 64.5518L220.355 101.971L220.453 139.391L220.637 214.241L220.453 289.092L220.366 326.522L220.095 363.942L219.835 326.522L219.738 289.092L219.553 214.241L219.738 139.391L219.835 101.971L220.095 64.5518Z" fill="white"/>
<path d="M386.968 145.836C409.413 123.391 409.413 87.0006 386.968 64.5558C364.524 42.1109 328.133 42.1109 305.688 64.5558C283.243 87.0007 283.244 123.391 305.688 145.836C328.133 168.281 364.524 168.281 386.968 145.836Z" fill="#F9BE00"/>
<path opacity="0.5" d="M363.834 159.944C355.251 162.681 346.144 163.361 337.249 161.929C328.355 160.497 319.921 156.993 312.631 151.701C305.34 146.409 299.396 139.476 295.279 131.462C291.162 123.449 288.987 114.58 288.93 105.571C288.873 96.5618 290.935 87.6656 294.951 79.6008C298.966 71.536 304.822 64.5285 312.045 59.1443C319.268 53.7601 327.657 50.1501 336.533 48.6057C345.408 47.0614 354.523 47.6261 363.14 50.2542C351.546 47.1905 339.237 48.4076 328.468 53.6823C317.698 58.957 309.19 67.936 304.503 78.9738C299.816 90.0116 299.264 102.369 302.948 113.781C306.631 125.193 314.304 134.895 324.56 141.109C334.816 147.324 346.968 149.634 358.789 147.617C370.61 145.6 381.308 139.39 388.922 130.126C396.537 120.862 400.558 109.165 400.248 97.1769C399.939 85.1892 395.32 73.7145 387.238 64.8557C394.138 71.8491 399.129 80.495 401.735 89.9674C404.341 99.4399 404.474 109.422 402.122 118.961C399.77 128.499 395.011 137.276 388.3 144.451C381.589 151.626 373.151 156.96 363.791 159.944H363.834Z" fill="#F9BE00"/>
<path d="M324.431 100.259C324.921 101.784 324.948 103.421 324.508 104.962C324.068 106.503 323.181 107.878 321.959 108.915C320.736 109.951 319.234 110.601 317.642 110.783C316.05 110.965 314.44 110.671 313.015 109.937C311.59 109.204 310.415 108.064 309.639 106.662C308.862 105.26 308.519 103.66 308.653 102.063C308.786 100.466 309.391 98.9449 310.389 97.6917C311.388 96.4385 312.736 95.5098 314.263 95.0231C316.305 94.372 318.523 94.5575 320.429 95.539C322.335 96.5205 323.774 98.2179 324.431 100.259Z" fill="#F7F8FA"/>
<path d="M376.712 83.5434C377.2 85.0692 377.225 86.7057 376.783 88.2457C376.342 89.7857 375.453 91.1601 374.23 92.1948C373.007 93.2296 371.504 93.8783 369.912 94.0588C368.32 94.2393 366.711 93.9435 365.287 93.2088C363.863 92.4742 362.689 91.3337 361.914 89.9317C361.138 88.5297 360.796 86.9292 360.931 85.3327C361.066 83.7363 361.671 82.2156 362.67 80.9632C363.669 79.7107 365.017 78.7828 366.544 78.2969C367.556 77.9732 368.622 77.8522 369.681 77.9407C370.74 78.0293 371.771 78.3256 372.715 78.8129C373.659 79.3001 374.498 79.9687 375.184 80.7804C375.87 81.5921 376.389 82.531 376.712 83.5434V83.5434Z" fill="#F7F8FA"/>
<path d="M353.731 88.3135C354.242 89.845 354.444 91.4628 354.325 93.073C354.206 94.6832 353.769 96.2537 353.038 97.6935C352.308 99.1333 351.298 100.414 350.069 101.46C348.839 102.507 347.414 103.299 345.876 103.791C344.339 104.282 342.718 104.463 341.11 104.324C339.501 104.184 337.936 103.727 336.506 102.978C335.076 102.229 333.808 101.203 332.778 99.9606C331.747 98.718 330.973 97.283 330.501 95.7389L353.731 88.3135Z" fill="#F7F8FA"/>
<path d="M353.492 96.4106C352.837 98.1122 351.808 99.645 350.481 100.896C349.155 102.148 347.564 103.085 345.827 103.641C344.091 104.196 342.251 104.355 340.445 104.105C338.638 103.856 336.911 103.205 335.39 102.199C337.219 99.2324 340.05 97.018 343.37 95.9564C346.69 94.8948 350.281 95.0559 353.492 96.4106V96.4106Z" fill="#E94235"/>
<path d="M479.03 228.746C484.437 206.531 470.812 184.139 448.597 178.732C426.382 173.325 403.99 186.95 398.583 209.165C393.175 231.38 406.801 253.772 429.016 259.179C451.23 264.586 473.623 250.961 479.03 228.746Z" fill="#F9BE00"/>
<path opacity="0.5" d="M428.288 258.978C422.006 257.329 416.2 254.224 411.339 249.915C406.479 245.606 402.7 240.214 400.309 234.175C397.919 228.135 396.983 221.618 397.577 215.15C398.171 208.681 400.279 202.444 403.731 196.941C407.182 191.438 411.88 186.825 417.444 183.474C423.009 180.123 429.283 178.128 435.761 177.651C442.239 177.174 448.738 178.228 454.734 180.728C460.729 183.228 466.052 187.104 470.272 192.041C464.408 185.701 456.456 181.685 447.872 180.731C439.289 179.777 430.649 181.948 423.536 186.847C416.423 191.745 411.313 199.043 409.144 207.402C406.974 215.762 407.89 224.623 411.722 232.362C415.555 240.102 422.048 246.201 430.013 249.541C437.977 252.882 446.878 253.241 455.085 250.553C463.292 247.864 470.256 242.308 474.7 234.902C479.143 227.497 480.769 218.738 479.28 210.231C480.765 217.144 480.456 224.323 478.382 231.083C476.307 237.843 472.537 243.959 467.429 248.85C462.321 253.74 456.047 257.241 449.203 259.02C442.359 260.798 435.174 260.795 428.332 259.011L428.288 258.978Z" fill="#F9BE00"/>
<path d="M465.632 217.504C465.34 218.617 464.724 219.619 463.863 220.382C463.002 221.146 461.934 221.637 460.793 221.793C459.653 221.95 458.492 221.765 457.457 221.262C456.422 220.759 455.559 219.96 454.978 218.967C454.397 217.974 454.123 216.83 454.191 215.682C454.259 214.533 454.666 213.43 455.361 212.512C456.056 211.595 457.007 210.904 458.094 210.527C459.181 210.149 460.356 210.103 461.47 210.393C462.21 210.586 462.905 210.923 463.516 211.385C464.126 211.847 464.639 212.425 465.025 213.085C465.412 213.746 465.665 214.476 465.769 215.234C465.873 215.993 465.826 216.764 465.632 217.504V217.504Z" fill="#F7F8FA"/>
<path d="M427.389 207.477C427.097 208.594 426.481 209.599 425.618 210.366C424.755 211.132 423.683 211.625 422.54 211.782C421.396 211.939 420.232 211.753 419.194 211.248C418.156 210.743 417.292 209.942 416.71 208.945C416.128 207.948 415.855 206.801 415.925 205.649C415.995 204.497 416.406 203.391 417.105 202.473C417.804 201.554 418.76 200.864 419.851 200.489C420.943 200.114 422.121 200.071 423.237 200.366C423.977 200.56 424.671 200.898 425.28 201.361C425.889 201.823 426.401 202.401 426.786 203.062C427.172 203.722 427.423 204.452 427.527 205.209C427.63 205.967 427.583 206.738 427.389 207.477V207.477Z" fill="#F7F8FA"/>
<path d="M431.324 205.895C431.311 208.407 432.027 210.869 433.383 212.984C434.799 214.909 436.856 216.266 439.183 216.81C441.46 217.537 443.925 217.402 446.11 216.431C448.356 215.295 450.266 213.591 451.649 211.488C450.86 214.101 449.145 216.337 446.825 217.775C445.607 218.501 444.246 218.952 442.836 219.098C441.431 219.208 440.018 219.069 438.663 218.686C437.317 218.307 436.042 217.71 434.89 216.919C433.737 216.091 432.782 215.017 432.093 213.775C430.82 211.349 430.544 208.521 431.324 205.895V205.895Z" fill="#F7F8FA"/>
<path d="M466.684 298.165H371.032V430.532H466.684V298.165Z" fill="#EBEBEB"/>
<path d="M471.312 293.254H366.392V298.165H471.312V293.254Z" fill="#DBDBDB"/>
<path d="M504.309 293.254H471.312V298.165H504.309V293.254Z" fill="#EBEBEB"/>
<path d="M499.095 298.165H466.684V430.532H499.095V298.165Z" fill="#DBDBDB"/>
<path d="M456.364 359.443H381.308V316.994H456.364V359.443ZM381.568 359.172H456.114V317.265H381.568V359.172Z" fill="#C7C7C7"/>
<path d="M422.988 329.406H408.375V337.807H422.988V329.406Z" fill="#C7C7C7"/>
<path d="M427.443 337.308H412.56V329.904H427.443V337.308ZM412.831 337.037H427.172V330.175H412.831V337.037Z" fill="#C7C7C7"/>
<path d="M456.364 412.733H381.308V370.283H456.364V412.733ZM381.568 412.462H456.114V370.554H381.568V412.462Z" fill="#C7C7C7"/>
<path d="M422.988 382.695H408.375V391.096H422.988V382.695Z" fill="#C7C7C7"/>
<path d="M427.443 390.598H412.56V383.194H427.443V390.598ZM412.831 390.327H427.172V383.465H412.831V390.327Z" fill="#C7C7C7"/>
<path d="M70.6877 259.683L56.4548 259.975L49.2354 260.106C46.8289 260.106 44.4007 260.106 41.9834 260.16H41.4956V259.683L41.4414 247.553V247H41.9834L56.3356 247.065C61.116 247.065 65.8964 247.184 70.6877 247.238H70.9804V247.531C70.9804 249.58 70.8828 251.629 70.8395 253.656L70.6877 259.683ZM70.6877 259.683L70.536 253.547C70.536 251.531 70.4059 249.537 70.3842 247.553L70.6877 247.846C65.8964 247.9 61.116 248.019 56.3356 248.019L41.9834 248.095L42.5254 247.553L42.4604 259.683L41.9834 259.195C44.3465 259.195 46.6988 259.195 49.0728 259.195L56.2055 259.325L70.6877 259.683Z" fill="#EBEBEB"/>
<path d="M54.677 274.978L40.4441 275.271L33.2246 275.401C30.8073 275.401 28.39 275.401 25.9727 275.455H25.4849V274.978L25.4307 262.848V262.328H26.016H40.3248C45.1053 262.328 49.8857 262.447 54.677 262.501H54.9697V262.794C54.9697 264.843 54.8721 266.891 54.8287 268.918L54.677 274.978ZM54.677 274.978L54.5144 268.832C54.5144 266.815 54.3951 264.821 54.3735 262.837L54.677 263.13C49.8857 263.184 45.1053 263.303 40.3248 263.303L26.016 263.412L26.5472 262.88L26.493 275.01L26.016 274.523C28.3791 274.523 30.7314 274.523 33.1054 274.577L40.2381 274.707L54.677 274.978Z" fill="#EBEBEB"/>
<path d="M500.017 274.978L485.795 275.271L478.575 275.401C476.158 275.401 473.73 275.401 471.313 275.455H470.836V274.978L470.771 262.848V262.328H471.313H485.632C490.423 262.328 495.204 262.447 499.984 262.501H500.288V262.794C500.288 264.843 500.19 266.891 500.147 268.918L500.017 274.978ZM500.017 274.978L499.865 268.842C499.865 266.826 499.746 264.832 499.724 262.848L500.017 263.141C495.236 263.195 490.456 263.314 485.665 263.314L471.313 263.379L471.855 262.848L471.8 274.978L471.313 274.49C473.676 274.49 476.039 274.49 478.413 274.544L485.545 274.674L500.017 274.978Z" fill="#EBEBEB"/>
<path d="M484.006 59.8366L469.784 60.1401L462.565 60.2594C460.147 60.2594 457.719 60.2594 455.302 60.3244H454.825V59.8366L454.76 47.6958V47.1538H455.302L469.654 47.2189C474.434 47.2189 479.226 47.3489 484.006 47.4031H484.31V47.6958C484.31 49.7554 484.223 51.8042 484.169 53.8204L484.006 59.8366ZM484.006 59.8366L483.854 53.712C483.8 51.6849 483.735 49.6904 483.713 47.7066L484.006 47.9993C479.226 47.9993 474.434 48.1728 469.654 48.1836L455.28 48.2486L455.822 47.7066V59.8366L455.334 59.3488C457.697 59.3488 460.061 59.3488 462.434 59.4138L469.567 59.5331L484.006 59.8366Z" fill="#EBEBEB"/>
<path d="M500.017 75.1319L485.795 75.4354L478.575 75.5547C476.158 75.5547 473.73 75.5547 471.313 75.6197H470.836V75.1319L470.771 63.002V62.46H471.313L485.665 62.525C490.456 62.525 495.236 62.6551 500.017 62.7093H500.32V63.002C500.32 65.0616 500.223 67.1103 500.179 69.1266L500.017 75.1319ZM500.017 75.1319L499.865 69.0073C499.865 66.9802 499.746 64.9857 499.724 63.002L500.017 63.2946C495.236 63.2946 490.456 63.4681 485.665 63.4789L471.313 63.544L471.855 63.002L471.8 75.1319L471.313 74.6441C473.676 74.6441 476.039 74.6441 478.413 74.7092L485.545 74.8284L500.017 75.1319Z" fill="#EBEBEB"/>
<path d="M70.6877 59.8366L56.4548 60.1401L49.2354 60.2594C46.8289 60.2594 44.4007 60.2594 41.9834 60.3244H41.4956V59.8366L41.4414 47.6958V47.1538H41.9834L56.3681 47.2297C61.1485 47.2297 65.929 47.3598 70.7203 47.414H71.0129V47.6958C71.0129 49.7554 70.9154 51.8042 70.872 53.8204L70.6877 59.8366ZM70.6877 59.8366L70.536 53.712C70.536 51.6849 70.4059 49.6904 70.3842 47.7066L70.6877 47.9993C65.8965 47.9993 61.116 48.1728 56.3356 48.1836L41.9834 48.2486L42.5254 47.7066L42.4604 59.8366L41.9834 59.3488C44.3465 59.3488 46.6988 59.3488 49.0728 59.4138L56.2055 59.5331L70.6877 59.8366Z" fill="#EBEBEB"/>
<path d="M271 509.729C340.333 509.729 396.538 501.576 396.538 491.518C396.538 481.461 340.333 473.307 271 473.307C201.667 473.307 145.462 481.461 145.462 491.518C145.462 501.576 201.667 509.729 271 509.729Z" fill="#EBEBEB"/>
<path d="M37.4629 430.532L95.8471 430.272L154.231 430.174L271 429.99L387.768 430.174L446.153 430.272L504.537 430.532L446.153 430.803L387.768 430.89L271 431.074L154.231 430.89L95.8471 430.803L37.4629 430.532Z" fill="#263238"/>
<path d="M107.099 343.964C105.965 348.11 105.214 352.352 104.855 356.636C104.974 356.853 104.953 357.633 104.855 357.416C104.855 358.11 103.771 357.991 103.771 357.297C103.771 356.853 103.771 356.408 103.771 355.975C101.299 352.896 97.7006 350.945 94.7846 348.267C92.4459 346.169 90.7412 343.458 89.8633 340.441C87.4568 332.127 89.7115 323.314 86.8172 315.021C84.3132 307.878 79.8254 301.655 76.0314 295.184C72.0206 288.333 69.0722 281.092 68.7686 273.114C68.541 266.967 69.2673 258.783 73.9502 254.176C78.904 249.298 85.0503 252.962 88.8552 257.309C99.8794 269.916 104.974 285.927 107.034 302.252C108.118 311.292 109.343 320.387 109.072 329.503C108.899 334.377 108.239 339.222 107.099 343.964Z" fill="#28BB46"/>
<path d="M104.909 359.964C105.508 351.435 105.406 342.872 104.606 334.36C104.606 334.36 104.606 334.36 104.606 334.273C104.747 327.346 105.289 320.452 105.018 313.525C104.682 306.033 103.663 298.588 101.972 291.281C101.972 291.195 101.82 291.216 101.842 291.281C103.19 298.463 103.994 305.735 104.248 313.037C104.393 316.954 104.36 320.864 104.151 324.766C104.086 326.034 103.966 327.314 103.891 328.604C101.015 309.172 93.9908 290.587 83.2945 274.111C83.1536 273.883 82.7525 274.111 82.8934 274.36C90.5538 286.883 96.2324 300.514 99.728 314.772C94.4272 304.961 86.4381 296.897 80.4978 287.466C80.4978 287.412 80.3894 287.466 80.4111 287.52C85.7444 298.013 94.5031 306.295 100.162 316.625C101.137 320.842 101.928 325.102 102.525 329.373C103.313 335.246 103.741 341.161 103.804 347.086C100.552 341.059 97.2239 335.292 94.5898 328.918C94.5248 328.744 94.2754 328.864 94.3296 329.026C96.5735 335.65 99.5979 342.782 103.815 348.43C103.815 352.625 103.717 356.82 103.468 361.004C102.817 372.18 100.899 383.215 100.021 394.348C100.023 394.41 100.047 394.469 100.088 394.514C100.13 394.56 100.186 394.59 100.248 394.597C100.309 394.605 100.371 394.591 100.423 394.557C100.475 394.523 100.513 394.472 100.53 394.413C102.763 383.042 104.226 371.532 104.909 359.964Z" fill="#263238"/>
<path d="M93.0393 273.764C93.0393 273.688 92.8876 273.764 92.9201 273.764C94.958 279.412 96.1071 285.135 97.5813 290.924C97.5975 290.974 97.6312 291.016 97.6761 291.043C97.7211 291.07 97.7742 291.079 97.8257 291.07C97.8773 291.061 97.9237 291.033 97.9565 290.992C97.9893 290.952 98.0062 290.9 98.0041 290.848C97.4079 285.092 95.3157 279.173 93.0393 273.764Z" fill="#263238"/>
<path d="M144.876 297.428C143.518 300.74 141.95 303.963 140.182 307.076C136.508 313.753 132.67 319.867 131.977 327.672C131.673 331.14 131.565 334.631 130.502 337.97C129.54 340.847 128.155 343.565 126.394 346.034C122.416 351.845 117.429 356.874 113.744 362.869C109.902 369.147 107.064 375.986 105.332 383.14C105.234 383.53 104.627 383.432 104.714 383.042C104.719 383.014 104.719 382.984 104.714 382.956C104.706 382.927 104.706 382.897 104.714 382.869C104.129 366.197 105.462 349.406 110.546 333.438C112.79 326.406 115.487 319.526 118.622 312.842C121.343 307.054 124.735 301.482 129.462 297.157C132.562 294.36 139.294 289.07 143.705 291.867C145.873 293.222 145.711 295.347 144.876 297.428Z" fill="#28BB46"/>
<path d="M128.129 335.216C125.19 340.052 121.953 344.701 118.438 349.135C116.833 351.249 115.186 353.33 113.581 355.444C112.822 356.441 111.966 357.427 111.272 358.501C111.706 356.744 112.14 354.999 112.584 353.243C114.752 344.82 116.801 336.322 120.009 328.224C123.294 320.384 127.16 312.8 131.576 305.536C131.695 305.352 131.381 305.211 131.261 305.395C127.749 311.184 124.172 316.973 121.213 323.075C119.578 326.483 118.151 329.988 116.942 333.569C118.298 325.956 120.196 318.45 122.622 311.108C122.622 311.043 122.546 311 122.524 311.108C119.346 318.522 117.356 326.391 116.627 334.425C115.901 336.593 115.24 338.761 114.622 340.929C111.999 350.251 109.69 359.671 107.554 369.113C107.514 362.898 108.051 356.692 109.159 350.577C109.159 350.436 108.974 350.403 108.942 350.577C107.317 356.945 106.771 363.54 107.327 370.089C106.524 373.702 105.737 377.315 104.963 380.929C103.327 388.614 101.321 396.43 100.356 404.234C100.357 404.272 100.371 404.308 100.396 404.337C100.421 404.365 100.454 404.384 100.491 404.391C100.528 404.397 100.567 404.39 100.599 404.372C100.632 404.353 100.657 404.324 100.671 404.289C101.809 400.083 102.503 395.714 103.435 391.465C104.367 387.216 105.343 382.923 106.329 378.674C107.782 372.462 109.299 366.284 110.839 360.105C111.923 357.839 113.874 355.823 115.37 353.926C117.007 351.845 118.622 349.753 120.248 347.639C123.243 343.719 125.925 339.568 128.269 335.227C128.324 335.184 128.183 335.13 128.129 335.216Z" fill="#263238"/>
<path d="M128.844 328.083C125.171 332.766 121.993 337.815 119.359 343.151C119.359 343.216 119.435 343.281 119.478 343.216C122.665 338.219 125.798 333.178 128.985 328.181C128.996 328.094 128.898 328.007 128.844 328.083Z" fill="#263238"/>
<path d="M57.8854 313.276C60.0534 316.994 62.5141 321.46 61.5818 325.926C60.9965 328.755 58.926 331.053 58.5575 333.937C57.712 340.3 64.0642 344.506 68.6495 347.519C80.0966 355.032 95.7495 361.72 97.9175 377.058C97.9934 377.6 98.9365 377.46 98.8714 376.928C98.8765 376.896 98.8765 376.863 98.8714 376.831C98.8714 376.831 98.8714 376.831 98.8714 376.744C100.374 368.985 100.297 361.003 98.6438 353.275C96.9419 345.373 93.484 338.273 89.419 331.324C82.5247 319.574 75.2294 307.541 64.823 298.544C61.9396 296.051 56.0318 291.574 53.7337 297.189C51.4356 302.804 55.2838 308.691 57.8854 313.276Z" fill="#28BB46"/>
<path d="M68.357 338.143C75.945 346.36 88.01 350.967 94.5465 360.17C90.8999 346.16 84.0036 333.207 74.4166 322.36C74.3848 322.306 74.3713 322.243 74.3779 322.18C74.3846 322.118 74.4112 322.06 74.4537 322.013C74.4962 321.967 74.5524 321.936 74.614 321.924C74.6757 321.912 74.7395 321.921 74.796 321.948C81.7871 328.743 87.3744 336.846 91.2403 345.796C89.4372 339.555 87.0678 333.492 84.1618 327.682C84.1413 327.638 84.1381 327.588 84.1527 327.542C84.1673 327.495 84.1988 327.456 84.2408 327.432C84.2829 327.407 84.3326 327.399 84.3801 327.41C84.4276 327.42 84.4696 327.448 84.4978 327.487C88.0822 333.832 90.643 340.702 92.0858 347.845C100.693 368.679 101.495 393.113 99.6738 415.053C99.6738 415.119 99.6475 415.182 99.6008 415.229C99.554 415.276 99.4906 415.302 99.4245 415.302C99.3584 415.302 99.2949 415.276 99.2482 415.229C99.2014 415.182 99.1752 415.119 99.1752 415.053C99.6738 397.709 99.392 380.137 95.2511 363.238C95.1644 362.891 95.0668 362.544 94.9801 362.154C87.869 352.246 75.8583 347.66 68.1294 338.251C68.1511 338.208 68.292 338.056 68.357 338.143Z" fill="#263238"/>
<path d="M66.6009 331.086C70.59 334.739 74.5032 338.479 78.5249 342.132C78.5249 342.132 78.5249 342.24 78.5249 342.208C74.0136 339.176 69.9489 335.527 66.4491 331.368C66.2323 331.162 66.4383 330.934 66.6009 331.086Z" fill="#263238"/>
<path d="M65.9722 315.249C69.4975 321.029 73.4852 326.514 77.8962 331.65C77.8962 331.715 77.8962 331.812 77.7878 331.747C72.8457 327.041 68.7725 321.5 65.7554 315.379C65.7467 315.351 65.7476 315.321 65.758 315.294C65.7684 315.266 65.7877 315.243 65.8127 315.228C65.8377 315.213 65.867 315.207 65.8959 315.211C65.9249 315.215 65.9517 315.228 65.9722 315.249Z" fill="#263238"/>
<path d="M83.9121 430.532H118.795L114.102 383.595H89.2779L83.9121 430.532Z" fill="#455A64"/>
<path d="M88.4106 391.215H114.871L114.101 383.595H89.2778L88.4106 391.215Z" fill="#263238"/>
<path d="M85.0071 385.882H117.711V378.392H85.0071V385.882Z" fill="#455A64"/>
<path d="M253.374 380.484L284.225 421.232C290.165 428.993 295.228 435.898 297.515 439.714C297.515 439.714 297.515 439.714 297.515 439.779C298.148 440.613 298.582 441.581 298.783 442.608C298.783 442.608 298.783 442.673 298.783 442.695C297.699 446.023 237.071 495.269 234.372 496.277C231.673 497.285 228.605 489.697 229.429 485.903C230.253 482.109 245.039 452.874 245.039 452.874L214.632 411.834L253.374 380.484Z" fill="#F2B7AB"/>
<path d="M277.894 412.831L284.225 421.188C290.165 428.95 295.228 435.855 297.515 439.67C297.515 439.67 297.515 439.67 297.515 439.735C298.043 440.628 298.468 441.577 298.783 442.565C298.783 442.565 298.783 442.63 298.783 442.651C297.699 445.979 237.071 495.225 234.372 496.234C231.673 497.242 228.605 489.654 229.429 485.86C230.253 482.066 245.038 452.83 245.038 452.83L238.48 444.44L277.894 412.831Z" fill="#EBEBEB"/>
<path d="M234.393 496.233C237.093 495.236 297.688 445.99 298.805 442.651C299.249 441.383 292.593 432.137 284.225 421.199L283.954 420.852L244.507 452.191L245.06 452.841C245.06 452.841 230.296 482.109 229.45 485.87C228.605 489.632 231.705 497.252 234.393 496.233Z" fill="#7D7B7B"/>
<path d="M233.169 493.329C243.185 484.776 284.366 451.237 294.957 443.541C295.043 443.476 295.097 443.541 295.011 443.606C285.255 452.278 243.813 485.513 233.353 493.47C233.06 493.665 232.963 493.513 233.169 493.329Z" fill="#263238"/>
<path d="M241.873 455.627C245.277 451.605 250.697 448.234 256.095 448.603C256.312 448.603 256.28 448.906 256.095 448.971C251.247 450.857 246.613 453.255 242.274 456.126C242.208 456.151 242.135 456.155 242.066 456.137C241.998 456.118 241.937 456.078 241.892 456.023C241.847 455.967 241.822 455.899 241.818 455.828C241.815 455.757 241.834 455.687 241.873 455.627Z" fill="#263238"/>
<path d="M240.388 459.736C243.803 455.714 249.223 452.343 254.621 452.711C254.827 452.711 254.805 453.015 254.621 453.08C249.772 454.961 245.139 457.356 240.8 460.223C240.734 460.26 240.658 460.273 240.583 460.259C240.509 460.246 240.442 460.207 240.393 460.149C240.344 460.092 240.317 460.019 240.316 459.943C240.316 459.868 240.341 459.794 240.388 459.736Z" fill="#263238"/>
<path d="M238.914 463.844C242.317 459.822 247.737 456.44 253.136 456.809C253.342 456.809 253.32 457.123 253.136 457.188C248.289 459.074 243.656 461.469 239.315 464.332C239.249 464.363 239.175 464.372 239.104 464.356C239.033 464.34 238.969 464.301 238.923 464.245C238.877 464.189 238.851 464.119 238.849 464.046C238.848 463.973 238.87 463.902 238.914 463.844Z" fill="#263238"/>
<path d="M281.938 415.855L239.716 451.237C239.716 451.237 191.131 389.156 180.172 357.861C172.378 335.563 208.356 223.976 208.356 223.976L254.393 220.865C254.393 220.865 224.594 328.333 227.9 338.772C231.976 351.487 281.938 415.855 281.938 415.855Z" fill="#585757"/>
<path d="M235.022 441.08C241.581 435.66 239.618 437.101 246.253 431.736C249.505 429.101 270.805 411.844 274.263 409.915C274.339 409.915 274.426 409.99 274.372 410.055C271.716 412.982 250.101 429.871 246.816 432.44C240.085 437.687 241.96 436.104 235.174 441.275C235.161 441.285 235.147 441.292 235.131 441.296C235.115 441.301 235.099 441.302 235.083 441.3C235.067 441.298 235.051 441.293 235.037 441.285C235.023 441.277 235.011 441.266 235.001 441.253C234.991 441.24 234.983 441.226 234.979 441.21C234.975 441.194 234.974 441.178 234.976 441.162C234.978 441.146 234.983 441.13 234.991 441.116C234.999 441.102 235.01 441.09 235.022 441.08Z" fill="#263238"/>
<path d="M267.922 408.191C260.052 398.392 252.406 388.397 244.984 378.208C237.613 368.105 230.339 357.85 223.727 347.238C222.134 344.854 220.855 342.274 219.922 339.563C219.061 336.472 218.95 333.221 219.597 330.078C220.627 323.802 221.938 317.558 223.25 311.336C225.895 298.848 228.901 286.44 232.269 274.111C235.629 261.797 239.391 249.591 243.369 237.461C243.857 235.976 244.356 234.48 244.854 232.984C244.93 232.767 244.583 232.681 244.507 232.898C240.041 245.053 236.03 257.36 232.475 269.819C228.919 282.277 225.75 294.761 222.968 307.271C221.581 313.58 220.291 319.917 219.098 326.284C218.36 329.38 217.996 332.554 218.014 335.737C218.231 338.51 219.001 341.212 220.28 343.682C221.649 346.335 223.203 348.889 224.93 351.325C226.679 353.955 228.45 356.578 230.242 359.194C233.855 364.463 237.541 369.677 241.299 374.837C248.778 385.07 256.475 395.205 264.746 404.82C265.754 406.002 266.773 407.172 267.781 408.343C267.813 408.451 268.008 408.3 267.922 408.191Z" fill="#263238"/>
<path d="M254.437 220.865C254.437 220.865 245.765 252.215 238.263 282.653C229.884 265.309 215.597 235.434 210.795 223.77L254.437 220.865Z" fill="#263238"/>
<path d="M309.189 292.323L336.701 256.16C343.119 248.8 348.875 242.448 352.159 239.445C352.177 239.438 352.196 239.438 352.213 239.445C353.449 238.361 354.327 237.656 354.739 237.646C354.739 237.646 354.793 237.646 354.815 237.646C358.305 238.068 418.673 287.607 420.191 290.046C421.709 292.485 414.89 297.016 411.01 296.962C407.129 296.908 375.53 288.29 375.53 288.29L346.262 324.463L309.189 292.323Z" fill="#F2B7AB"/>
<path d="M354.739 237.602H354.815C358.306 238.036 418.674 287.574 420.191 290.013C421.709 292.452 414.89 296.984 411.02 296.929C407.151 296.875 375.53 288.257 375.53 288.257L370.262 295.509C360.311 287.455 342.165 272.745 331.151 263.499C334.219 259.163 336.701 256.214 336.712 256.204C343.119 248.832 348.864 242.491 352.148 239.499L352.214 239.445C353.449 238.263 354.327 237.613 354.739 237.602Z" fill="#EBEBEB"/>
<path d="M420.191 289.992C418.674 287.553 358.306 238.014 354.815 237.591C353.493 237.407 345.764 245.776 336.713 256.16L336.431 256.496L375.064 288.886L375.596 288.214C375.596 288.214 407.183 296.886 411.075 296.886C414.966 296.886 421.731 292.42 420.191 289.992Z" fill="#7D7B7B"/>
<path d="M417.589 291.769C407.216 283.672 366.11 250.014 356.463 241.222C356.387 241.147 356.463 241.092 356.517 241.157C366.977 248.962 407.812 282.946 417.73 291.607C417.936 291.78 417.806 291.943 417.589 291.769Z" fill="#263238"/>
<path d="M378.912 290.783C374.294 288.246 369.893 283.607 369.156 278.241C369.156 278.035 369.427 278.003 369.525 278.143C372.338 282.518 375.608 286.58 379.281 290.263C379.332 290.317 379.363 290.388 379.369 290.463C379.374 290.538 379.353 290.612 379.31 290.674C379.266 290.735 379.203 290.779 379.13 290.799C379.058 290.819 378.981 290.813 378.912 290.783Z" fill="#263238"/>
<path d="M383.227 291.412C378.609 288.875 374.219 284.236 373.471 278.87C373.471 278.664 373.731 278.632 373.828 278.783C376.641 283.155 379.912 287.214 383.584 290.892C383.624 290.948 383.646 291.015 383.647 291.084C383.647 291.153 383.627 291.22 383.588 291.277C383.549 291.334 383.493 291.377 383.428 291.401C383.364 291.426 383.293 291.429 383.227 291.412Z" fill="#263238"/>
<path d="M387.541 292.041C382.934 289.504 378.533 284.865 377.785 279.51C377.785 279.293 378.056 279.26 378.154 279.412C380.964 283.785 384.235 287.844 387.91 291.52C387.952 291.577 387.974 291.646 387.975 291.716C387.975 291.787 387.954 291.856 387.913 291.913C387.872 291.971 387.814 292.014 387.748 292.037C387.681 292.06 387.609 292.061 387.541 292.041Z" fill="#263238"/>
<path d="M209.212 223.879V223.933C209.483 224.865 213.711 239.575 217.884 252.182C220.941 261.385 223.998 269.45 225.472 270.209C227.153 271.055 235.293 274.025 238.025 274.946C238.025 274.946 255.543 335.553 270.133 355.271C275.13 362.035 297.894 368.799 309.027 361.493C335.152 344.365 373.839 299.824 373.839 299.824L328.767 262.968L296.854 305.244C288.951 290.577 284.659 260.973 284.659 260.973C284.659 260.973 282.87 231.705 272.139 219.554L209.212 223.879Z" fill="#585757"/>
<path d="M362.978 305.2C356.192 300.04 358.067 301.612 351.335 296.376C348.083 293.807 326.403 276.951 323.758 274.014C323.749 273.999 323.744 273.981 323.745 273.963C323.745 273.946 323.751 273.929 323.762 273.915C323.773 273.9 323.787 273.89 323.804 273.884C323.821 273.879 323.839 273.878 323.856 273.883C327.314 275.802 348.647 293.038 351.899 295.661C358.522 301.027 356.56 299.563 363.129 305.005C363.142 305.015 363.153 305.027 363.161 305.042C363.169 305.056 363.174 305.071 363.176 305.087C363.178 305.103 363.177 305.12 363.173 305.135C363.168 305.151 363.161 305.166 363.151 305.179C363.141 305.191 363.129 305.202 363.114 305.21C363.1 305.218 363.085 305.223 363.069 305.225C363.053 305.227 363.036 305.226 363.021 305.222C363.005 305.218 362.99 305.21 362.978 305.2Z" fill="#263238"/>
<path d="M270.827 253.797C269.374 253.526 267.846 253.515 266.382 253.385C265.19 253.277 264.008 253.147 262.827 252.973C260.575 252.731 258.405 251.99 256.475 250.805C254.361 249.385 253.223 247.076 252.052 244.854C251.38 243.543 250.697 242.231 250.003 240.93L248.973 239.044C248.512 238.313 248.092 237.557 247.716 236.778C247.716 236.67 247.488 236.778 247.543 236.844C247.782 237.38 247.988 237.93 248.16 238.491C248.399 239.131 248.627 239.781 248.876 240.421C249.309 241.505 249.743 242.697 250.209 243.835C250.935 245.927 251.907 247.924 253.103 249.786C255.477 253.038 259.412 254.177 263.282 254.404C264.366 254.459 265.504 254.469 266.61 254.459C268.013 254.497 269.417 254.41 270.805 254.198C270.858 254.201 270.91 254.183 270.95 254.147C270.99 254.112 271.014 254.062 271.017 254.009C271.019 253.955 271.001 253.903 270.965 253.864C270.93 253.824 270.88 253.8 270.827 253.797Z" fill="#263238"/>
<path d="M221.136 268.399C226.919 270.074 232.545 272.25 237.949 274.903C237.972 274.911 237.993 274.924 238.011 274.941C238.028 274.957 238.043 274.977 238.053 274.999C238.063 275.022 238.068 275.045 238.069 275.07C238.07 275.094 238.066 275.118 238.058 275.141C238.049 275.164 238.036 275.185 238.019 275.203C238.003 275.22 237.983 275.235 237.961 275.245C237.939 275.255 237.915 275.26 237.89 275.261C237.866 275.262 237.842 275.258 237.819 275.25C232.171 273.266 226.426 271.391 220.887 269.092C220.795 269.059 220.72 268.991 220.678 268.903C220.637 268.814 220.632 268.713 220.665 268.621C220.698 268.529 220.766 268.454 220.855 268.412C220.943 268.37 221.044 268.366 221.136 268.399Z" fill="#263238"/>
<path d="M216.973 230.892C216.973 230.697 217.309 230.632 217.32 230.838C217.721 237.342 218.524 243.066 219.488 249.114C219.944 251.933 223.271 267.401 228.095 265.927C228.908 265.678 229.266 264.843 229.32 263.597C229.187 261.981 228.859 260.386 228.345 258.849C227.575 255.597 226.914 252.345 226.415 249.093C225.415 242.979 225.052 236.778 225.331 230.589C225.34 230.554 225.361 230.523 225.389 230.502C225.418 230.48 225.452 230.468 225.488 230.468C225.524 230.468 225.559 230.48 225.587 230.502C225.616 230.523 225.636 230.554 225.645 230.589C226.082 239.132 227.169 247.63 228.897 256.009C229.786 260.03 232.247 266.014 228.041 266.924C223.835 267.835 220.258 257.797 219.543 255C217.649 247.109 216.786 239.006 216.973 230.892Z" fill="#263238"/>
<path d="M227.987 266.382C228.495 267.408 228.936 268.466 229.31 269.547C229.681 270.376 229.898 271.265 229.949 272.171C229.943 272.207 229.927 272.24 229.902 272.267C229.878 272.294 229.847 272.314 229.812 272.324C229.777 272.334 229.74 272.334 229.705 272.324C229.669 272.315 229.638 272.295 229.613 272.268C229.047 271.504 228.605 270.655 228.302 269.753C227.857 268.778 227.391 267.813 226.979 266.827C226.934 266.696 226.94 266.552 226.996 266.425C227.051 266.299 227.152 266.197 227.279 266.141C227.406 266.085 227.549 266.079 227.68 266.124C227.811 266.168 227.921 266.261 227.987 266.382Z" fill="#263238"/>
<path d="M324.008 278.827C317.085 288.785 309.739 298.462 301.97 307.856C299.867 310.371 297.728 312.857 295.553 315.314C288.496 305.558 285.06 293.894 282.317 282.274C281.613 279.293 280.951 276.301 280.269 273.309C279.423 270.13 278.739 266.91 278.22 263.662C277.797 260.29 277.981 256.854 277.678 253.461C277.367 250.18 276.849 246.921 276.128 243.705C274.481 236.417 271.993 229.345 268.713 222.632C268.713 222.545 268.518 222.632 268.551 222.697C271.211 228.882 273.385 235.264 275.055 241.786C275.86 245.103 276.461 248.466 276.854 251.857C277.244 255.271 277.201 258.686 277.428 262.111C277.78 265.36 278.389 268.575 279.25 271.727C279.933 274.708 280.594 277.699 281.277 280.68C282.562 286.571 284.168 292.386 286.09 298.1C288.206 304.481 291.295 310.496 295.249 315.932C295.28 315.972 295.319 316.005 295.364 316.028C295.409 316.05 295.459 316.062 295.51 316.062C295.56 316.062 295.61 316.05 295.655 316.028C295.7 316.005 295.739 315.972 295.77 315.932C303.726 306.794 311.325 297.331 318.36 287.423C320.369 284.604 322.339 281.757 324.268 278.881C324.366 278.816 324.116 278.675 324.008 278.827Z" fill="#263238"/>
<path d="M247.553 150.329C239.044 156.465 199.283 172.627 184.79 165.321C170.026 157.863 155.402 117.809 152.497 114.373C144.53 104.855 178.795 91.3705 181.928 97.972C187.164 108.996 198.285 138.438 203.391 139.077C214.134 140.421 223.987 139.023 240.789 138.817C252.572 138.655 256.908 143.554 247.553 150.329Z" fill="#F2B7AB"/>
<path d="M185.527 105.246C185.527 105.246 199.467 136.682 202.61 137.549C207.846 139.045 236.214 138.058 246.404 138.232C256.594 138.405 266.404 147.424 242.274 156.432C218.144 165.44 197.83 170.134 184.703 167.185C176.551 165.343 154.167 130.004 154.167 130.004L185.527 105.246Z" fill="#02A1FC"/>
<path opacity="0.1" d="M185.527 105.246C185.527 105.246 199.467 136.682 202.61 137.549C207.846 139.045 236.214 138.058 246.404 138.232C256.594 138.405 266.404 147.424 242.274 156.432C218.144 165.44 197.83 170.134 184.703 167.185C176.551 165.343 154.167 130.004 154.167 130.004L185.527 105.246Z" fill="#02A1FC"/>
<path d="M160.237 135.76C171.413 125.224 184.703 115.945 186.903 114.156C187.012 114.069 187.131 114.254 187.023 114.34C184.768 115.977 170.698 128.324 160.356 136.02C160.237 136.053 160.129 135.858 160.237 135.76Z" fill="#263238"/>
<path opacity="0.1" d="M257.266 145.419C256.832 148.606 252.767 152.519 242.274 156.432C218.155 165.451 197.83 170.134 184.714 167.186C183.088 166.817 180.887 165.115 178.416 162.611C197.006 158.6 241.83 148.953 257.266 145.419Z" fill="black"/>
<path d="M154.698 117.95C158.058 120.454 181.798 106.482 182.34 102.221C182.392 100.764 182.253 99.3067 181.928 97.8855C181.928 97.8855 183.597 88.4547 187.782 81.0943C191.283 74.9155 197.191 66.1351 193.939 64.1297C189.202 61.1812 180.4 71.3925 175.695 77.5497C174.026 73.6798 172.237 70.5145 170.503 69.0402C164.768 64.2164 139.836 87.0455 141.267 94.5468C142.666 101.788 151.338 115.457 154.698 117.95Z" fill="#F2B7AB"/>
<path d="M177.841 78.3517C176.497 82.0156 172.942 78.3517 172.942 78.3517C172.942 78.3517 176.779 84.8557 173.928 88.1077C171.077 91.3597 167.045 86.6334 166.741 86.3082C166.936 86.6551 170.307 92.7472 167.11 95.7173C163.912 98.6875 160.421 93.4626 160.205 93.1157C160.291 93.506 161.343 98.6441 158.394 100.346C153.332 103.262 150.297 90.1889 146.188 87.8583C146.188 87.8583 141.44 94.3623 141.256 94.5466C141.256 94.5466 138.113 82.1673 141.571 76.7907C142.06 75.999 142.805 75.3984 143.682 75.0888C144.56 74.7792 145.517 74.7792 146.394 75.0888C146.394 75.0888 144.942 71.2081 147.381 68.8016C148.638 67.5659 151.717 68.4764 151.717 68.4764C151.717 68.4764 150.633 65.322 152.985 63.3057C154.828 61.6906 157.646 62.8613 157.646 62.8613C157.646 62.8613 158.058 59.3708 160.476 58.341C165.354 56.2381 180.714 70.4601 177.841 78.3517Z" fill="#F2B7AB"/>
<path d="M158.145 62.9807C158.145 62.9807 158.145 62.8506 158.199 62.8831C164.654 66.4525 169.871 71.9002 173.158 78.5036C173.256 78.7204 172.952 78.9697 172.801 78.7638C168.706 72.8206 163.769 67.5041 158.145 62.9807Z" fill="#263238"/>
<path d="M151.695 68.3681C151.63 68.3681 151.695 68.2164 151.782 68.2597C158.156 71.8586 164.454 78.4493 167.045 86.3192C167.132 86.5902 166.936 86.9154 166.817 86.6119C164.693 81.5171 157.029 72.5415 151.695 68.3681Z" fill="#263238"/>
<path d="M160.194 93.7229C157.419 86.2759 152.541 80.4656 146.665 75.2191C146.59 75.154 146.665 75.0565 146.774 75.089C150.34 76.8776 153.744 80.6065 156.14 83.761C158.418 86.6286 159.912 90.039 160.476 93.6579C160.432 93.7771 160.259 93.8855 160.194 93.7229Z" fill="#263238"/>
<path d="M173.072 78.3516C173.191 78.6117 172.692 78.5033 172.801 78.7635C173.267 79.8475 175.489 86.6333 173.419 88.1076C171.749 89.2891 169.007 87.8691 168.172 86.9043L166.058 84.552L167.207 87.5547C167.725 88.8812 168.022 90.2838 168.085 91.7064C168.155 92.3633 168.084 93.0274 167.879 93.6551C167.673 94.2829 167.337 94.86 166.893 95.3487C166.474 95.7972 165.914 96.0883 165.306 96.1731C164.698 96.258 164.08 96.1315 163.554 95.8148C162.388 95.0869 161.429 94.0716 160.768 92.8663L158.817 89.6143L159.587 93.3108C159.8 94.3406 159.884 95.393 159.836 96.4435C159.824 97.4417 159.518 98.4142 158.958 99.2403C158.69 99.6006 158.327 99.8789 157.909 100.044C157.492 100.208 157.037 100.253 156.595 100.172C155.634 99.8425 154.785 99.249 154.145 98.4598C152.747 96.753 151.482 94.9409 150.362 93.0398C149.755 92.1075 149.159 91.1644 148.508 90.2539C147.911 89.3048 147.121 88.4922 146.188 87.8691C147.033 88.5812 147.733 89.4498 148.248 90.4273C148.823 91.3704 149.332 92.346 149.874 93.3324C150.887 95.3388 152.089 97.2443 153.462 99.0234C154.187 100.011 155.186 100.765 156.335 101.191C156.981 101.349 157.66 101.316 158.287 101.094C158.915 100.873 159.464 100.473 159.869 99.9448C160.605 98.935 161.017 97.7253 161.05 96.476C161.126 95.304 161.05 94.1271 160.822 92.9747L159.652 93.4192C160.407 94.8562 161.529 96.0679 162.904 96.9313C163.678 97.3969 164.592 97.5735 165.484 97.43C166.351 97.2644 167.148 96.8413 167.771 96.2159C168.338 95.6007 168.767 94.8713 169.028 94.0766C169.29 93.282 169.379 92.4406 169.289 91.6089C169.187 90.041 168.82 88.5017 168.205 87.0561L167.24 87.6414C168.324 88.823 171.24 90.7417 174.047 89.2458C177.484 86.72 173.83 79.609 173.072 78.3516Z" fill="#263238"/>
<path d="M172.941 78.3298C173.605 78.7983 174.336 79.1638 175.109 79.4138C175.415 79.5197 175.743 79.5413 176.06 79.4764C176.376 79.4116 176.67 79.2627 176.909 79.0453C177.369 78.5011 177.659 77.834 177.744 77.1266C177.874 76.3461 177.982 75.5223 178.047 74.6768C178.408 75.4697 178.593 76.3313 178.589 77.2025C178.617 77.6807 178.551 78.1597 178.392 78.6119C178.234 79.064 177.988 79.4803 177.668 79.8366C177.276 80.1945 176.784 80.4251 176.258 80.4978C175.758 80.5349 175.256 80.4376 174.806 80.216C173.999 79.8023 173.346 79.1414 172.941 78.3298Z" fill="#263238"/>
<path d="M277.873 236.312C277.645 236.486 207.716 228.724 207.142 227.824C206.339 226.502 227.174 154.015 243.174 139.131C247.174 135.413 258.241 137.072 262.686 141.874C284.756 165.711 278.664 235.694 277.873 236.312Z" fill="#EBEBEB"/>
<path d="M242.567 139.153L215.716 237.039L201.982 227.185C201.982 227.185 224.388 163.771 230.892 153.679C237.396 143.587 242.567 139.153 242.567 139.153Z" fill="#02A1FC"/>
<path opacity="0.1" d="M242.566 138.651L215.716 236.537L201.981 226.683C201.981 226.683 224.388 163.269 230.892 153.177C237.396 143.085 242.566 138.651 242.566 138.651Z" fill="#02A1FC"/>
<path d="M258.382 138.459C258.382 138.459 257.298 176.118 257.298 184.963C257.298 193.809 255.25 242.112 255.25 242.112L287.065 236.312C287.065 236.312 281.255 189.472 279.238 178.654C277.222 167.836 268.702 141.646 258.382 138.459Z" fill="#02A1FC"/>
<path opacity="0.1" d="M258.382 138.459C258.382 138.459 257.298 176.118 257.298 184.963C257.298 193.809 255.25 242.112 255.25 242.112L287.065 236.312C287.065 236.312 281.255 189.472 279.238 178.654C277.222 167.836 268.702 141.646 258.382 138.459Z" fill="#02A1FC"/>
<path d="M265.927 159.63C284.42 178.568 308.929 198.827 322.555 195.933C334.88 193.31 352.593 178.86 371.92 163.283C375.758 160.194 350.143 131.598 346.381 135.305C338.978 142.6 323.78 161.224 318.111 163.283C315.682 164.161 288.496 150.579 270.675 143.771C249.038 135.5 258.556 152.085 265.927 159.63Z" fill="#F2B7AB"/>
<path d="M388.896 150.112C383.823 156.215 366.219 167.662 361.796 168.28C357.373 168.898 342.132 143.446 343.823 139.142C345.514 134.839 364.17 115.598 372.105 113.961C380.04 112.324 394.153 143.782 388.896 150.112Z" fill="#F2B7AB"/>
<path d="M360.365 118.926C359.748 123.077 365.005 121.441 365.005 121.441C365.005 121.441 358.002 125.625 359.021 130.113C360.008 134.449 366.284 132.281 366.739 132.118C366.371 132.346 360.04 136.367 361.536 140.79C363.086 145.419 369.005 142.123 369.395 141.874C369.113 142.199 365.471 146.514 367.368 149.635C370.62 155.055 380.257 144.215 385.352 144.15C385.352 144.15 388.441 150.232 388.528 150.47C388.528 150.47 395.91 142.947 395.422 136.085C395.378 135.083 394.988 134.126 394.318 133.379C393.648 132.632 392.739 132.14 391.747 131.988C391.747 131.988 395.129 129.072 394.067 125.484C393.514 123.663 390.121 122.926 390.121 122.926C390.121 122.926 392.723 120.476 391.585 117.386C390.685 114.915 387.422 114.557 387.422 114.557C387.422 114.557 388.831 111.045 387.086 108.823C383.585 104.498 361.71 110.015 360.365 118.926Z" fill="#F2B7AB"/>
<path d="M386.912 114.59C386.924 114.585 386.934 114.577 386.941 114.566C386.948 114.555 386.952 114.543 386.952 114.53C386.952 114.518 386.948 114.505 386.941 114.495C386.934 114.484 386.924 114.476 386.912 114.471C378.974 114.505 371.235 116.955 364.723 121.495C364.517 121.647 364.669 122.037 364.929 121.918C371.862 118.421 379.268 115.952 386.912 114.59Z" fill="#263238"/>
<path d="M390.24 123.013C390.327 123.013 390.305 122.861 390.24 122.861C382.37 122.969 373.015 125.939 366.501 132.031C366.284 132.237 366.295 132.649 366.566 132.433C371.151 128.704 383.021 124.194 390.24 123.013Z" fill="#263238"/>
<path d="M369.081 142.568C375.585 136.964 383.173 134.004 391.422 132.086C391.53 132.086 391.487 131.912 391.422 131.901C387.086 131.739 381.991 133.517 378.11 135.229C374.476 136.754 371.306 139.206 368.918 142.34C368.788 142.46 368.94 142.687 369.081 142.568Z" fill="#263238"/>
<path d="M365.005 121.408C363.732 122.328 362.552 123.37 361.482 124.519C360.39 125.584 359.6 126.919 359.194 128.389C359.049 129.074 359.161 129.788 359.509 130.395C359.865 131.005 360.372 131.513 360.983 131.869C361.621 132.17 362.315 132.336 363.02 132.354C363.726 132.373 364.427 132.245 365.081 131.977L368.333 130.785L365.709 133.029C364.533 134.01 363.526 135.178 362.728 136.487C362.325 137.074 362.05 137.739 361.922 138.44C361.793 139.14 361.813 139.86 361.98 140.552C362.145 141.19 362.523 141.753 363.051 142.147C363.58 142.541 364.227 142.743 364.885 142.72C366.361 142.63 367.789 142.168 369.037 141.375L372.56 139.305L369.926 142.394C369.19 143.258 368.567 144.213 368.072 145.235C367.571 146.182 367.356 147.256 367.455 148.324C367.522 148.802 367.721 149.252 368.029 149.623C368.337 149.994 368.742 150.273 369.2 150.427C370.277 150.619 371.387 150.498 372.398 150.08C374.597 149.207 376.724 148.163 378.761 146.958C379.845 146.384 380.864 145.809 381.948 145.278C382.999 144.677 384.167 144.308 385.373 144.194C384.213 144.429 383.109 144.885 382.121 145.538C381.037 146.145 380.094 146.795 379.086 147.446C377.092 148.818 374.972 149.998 372.755 150.969C371.564 151.52 370.237 151.709 368.94 151.511C368.246 151.327 367.622 150.945 367.142 150.412C366.663 149.879 366.349 149.217 366.24 148.508C366.077 147.185 366.307 145.843 366.902 144.649C367.438 143.507 368.115 142.436 368.918 141.462L369.807 142.492C368.344 143.454 366.655 144.019 364.907 144.129C363.938 144.158 362.988 143.852 362.219 143.262C361.481 142.659 360.944 141.846 360.68 140.931C360.467 140.056 360.441 139.147 360.604 138.261C360.766 137.376 361.113 136.535 361.623 135.793C362.525 134.367 363.652 133.097 364.961 132.031L365.579 133.115C364.757 133.422 363.878 133.544 363.004 133.475C362.129 133.406 361.28 133.146 360.517 132.714C359.784 132.239 359.186 131.581 358.783 130.806C358.379 130.009 358.279 129.092 358.501 128.227C359.017 126.666 359.959 125.28 361.222 124.227C362.373 123.148 363.642 122.202 365.005 121.408Z" fill="#263238"/>
<path d="M346.381 135.305C346.381 135.305 355.953 103.013 366.739 112.942C369.991 115.89 379.584 131.825 376.43 133.831C372.343 136.411 367.075 130.503 364.354 126.243C364.354 126.243 362.641 137.679 354.327 138.871C352.803 139.065 351.255 138.834 349.853 138.205C348.451 137.576 347.25 136.572 346.381 135.305Z" fill="#F2B7AB"/>
<path d="M365.796 112.172C367.189 113.18 368.426 114.385 369.471 115.75C370.552 117.09 371.541 118.502 372.43 119.977C374.263 122.898 375.837 125.974 377.135 129.169C377.475 130.02 377.694 130.914 377.785 131.825C377.832 132.35 377.765 132.879 377.59 133.375C377.491 133.65 377.349 133.906 377.167 134.134C376.984 134.354 376.768 134.544 376.528 134.698C375.645 135.235 374.599 135.438 373.579 135.272C372.649 135.1 371.754 134.77 370.934 134.297C369.407 133.372 368.05 132.191 366.924 130.806C365.797 129.483 364.772 128.077 363.856 126.6L364.94 126.351C364.697 127.65 364.334 128.924 363.856 130.156C363.392 131.379 362.8 132.549 362.089 133.646C361.374 134.744 360.501 135.73 359.498 136.573C358.505 137.412 357.361 138.052 356.127 138.459C357.268 137.911 358.312 137.178 359.216 136.291C360.092 135.391 360.843 134.377 361.449 133.278C362.058 132.183 362.559 131.033 362.945 129.842C363.329 128.662 363.605 127.45 363.769 126.221L363.953 124.703L364.853 125.972C365.794 127.355 366.823 128.676 367.932 129.928C368.993 131.169 370.244 132.234 371.639 133.083C372.972 133.831 374.642 134.232 375.747 133.516C376.777 132.974 376.376 131.142 375.856 129.636C375.288 128.056 374.637 126.507 373.905 124.996C373.2 123.457 372.463 121.928 371.661 120.443C369.991 117.495 368.311 114.481 365.796 112.172Z" fill="#263238"/>
<path d="M342.62 138.958C342.62 138.958 320.203 161.82 316.929 161.614C311.509 161.267 278.567 145.646 268.908 142.394C259.25 139.142 248.898 141.061 264.16 159.099C281.385 179.445 300.669 197.57 320.604 197.592C331.347 197.592 364.799 174.242 364.799 174.242L342.62 138.958Z" fill="#02A1FC"/>
<path opacity="0.1" d="M342.62 138.958C342.62 138.958 320.203 161.82 316.929 161.614C311.509 161.267 278.567 145.646 268.908 142.394C259.25 139.142 248.898 141.061 264.16 159.099C281.385 179.445 300.669 197.57 320.604 197.592C331.347 197.592 364.799 174.242 364.799 174.242L342.62 138.958Z" fill="#02A1FC"/>
<path d="M356.235 176.183C349.232 162.503 339.823 149.321 338.338 146.915C338.273 146.796 338.1 146.915 338.176 147.045C339.747 149.343 348.875 165.69 356.051 176.313C356.137 176.454 356.311 176.313 356.235 176.183Z" fill="#263238"/>
<path d="M278.458 174.589C277.949 174.053 277.472 173.489 277.027 172.898C276.496 172.324 275.943 171.749 275.434 171.175C274.35 170.091 273.364 169.007 272.334 167.847C270.285 165.625 268.106 163.511 265.981 161.343C265.981 161.343 265.906 161.343 265.981 161.343C267.922 163.684 269.83 166.036 271.933 168.237L272.074 168.389L270.838 167.554C269.981 166.98 269.125 166.405 268.28 165.82C268.28 165.82 268.171 165.874 268.215 165.906C269.006 166.557 269.819 167.175 270.675 167.749C271.109 168.042 271.542 168.324 271.998 168.595L272.626 168.963L275 171.424C275.542 171.977 276.084 172.508 276.648 173.072C277.212 173.635 277.884 174.047 278.382 174.643C278.404 174.795 278.588 174.665 278.458 174.589Z" fill="#263238"/>
<path d="M244.897 152.421C248.214 153.223 256.388 148.324 260.138 143.587C260.388 143.261 260.474 139.392 260.81 134.698C261.016 131.847 261.32 128.682 261.808 125.809L243.076 127.142C243.494 130.902 243.45 134.699 242.946 138.449C242.877 138.845 242.768 139.234 242.621 139.608C242.621 139.663 242.621 139.728 242.621 139.804C241.819 142.004 239.705 151.164 244.897 152.421Z" fill="#F2B7AB"/>
<path d="M242.632 139.608C242.601 139.67 242.579 139.736 242.567 139.804C243.165 139.991 243.778 140.129 244.399 140.216C254.675 141.711 259.282 129.657 260.453 125.907L243.109 127.132C243.533 130.898 243.497 134.702 243 138.459C242.909 138.852 242.786 139.236 242.632 139.608Z" fill="#263238"/>
<path d="M270.122 104.27C270.393 111.023 262.339 128.248 256.833 131.11C248.843 135.262 238.123 133.05 235.153 123.988C232.312 115.197 243.196 92.9422 249.136 90.5899C257.917 87.1103 269.721 94.308 270.122 104.27Z" fill="#F2B7AB"/>
<path d="M255.011 107.945C254.575 107.585 254.159 107.201 253.765 106.796C253.255 106.461 252.873 105.965 252.681 105.386C252.659 105.194 252.702 104.999 252.802 104.833C252.902 104.666 253.053 104.537 253.233 104.465C253.609 104.379 254.001 104.395 254.369 104.511C254.737 104.628 255.067 104.84 255.325 105.126C255.94 105.622 256.346 106.33 256.464 107.11C256.475 107.284 256.438 107.458 256.356 107.612C256.273 107.766 256.149 107.894 255.998 107.981C255.847 108.068 255.674 108.111 255.499 108.104C255.325 108.098 255.156 108.043 255.011 107.945Z" fill="#A6A6A6"/>
<path d="M243.434 102.98C243.998 103.121 244.518 103.153 245.114 103.24C245.691 103.409 246.307 103.387 246.87 103.175C247.033 103.072 247.158 102.92 247.226 102.74C247.295 102.56 247.303 102.363 247.25 102.178C247.082 101.829 246.823 101.531 246.501 101.315C246.179 101.1 245.805 100.975 245.418 100.953C244.646 100.777 243.836 100.901 243.152 101.3C243.002 101.399 242.884 101.54 242.812 101.706C242.74 101.871 242.717 102.054 242.747 102.232C242.777 102.409 242.858 102.575 242.98 102.708C243.102 102.84 243.259 102.935 243.434 102.98Z" fill="#A6A6A6"/>
<path d="M248.301 121.257C247.918 121.499 247.46 121.595 247.011 121.528C246.578 121.331 246.191 121.047 245.873 120.693C245.873 120.693 245.797 120.693 245.797 120.693C245.869 120.996 246.02 121.274 246.236 121.499C246.451 121.724 246.723 121.887 247.022 121.972C247.288 122.016 247.561 121.978 247.804 121.864C248.048 121.75 248.252 121.564 248.388 121.332C248.442 121.3 248.356 121.235 248.301 121.257Z" fill="#263238"/>
<path d="M244.399 117.072C244.616 117.932 245.053 118.72 245.667 119.36C246.013 119.699 246.456 119.923 246.935 119.999C248.019 120.162 248.377 119.305 248.518 118.492C248.59 118.059 248.612 117.619 248.583 117.181C247.212 117.59 245.747 117.552 244.399 117.072Z" fill="#263238"/>
<path d="M245.667 119.349C246.013 119.689 246.456 119.912 246.935 119.988C248.019 120.151 248.377 119.294 248.518 118.481C248.014 118.287 247.46 118.266 246.943 118.423C246.426 118.581 245.977 118.906 245.667 119.349Z" fill="#FF9BBC"/>
<path d="M253.656 110.818C253.722 110.477 253.696 110.125 253.58 109.799C253.505 109.623 253.395 109.465 253.257 109.333C253.119 109.201 252.956 109.097 252.778 109.029C252.597 108.974 252.405 108.96 252.218 108.988C252.03 109.016 251.851 109.086 251.694 109.192C251.419 109.386 251.192 109.642 251.033 109.94C250.942 110.123 250.863 110.311 250.794 110.503C250.648 110.898 250.596 111.321 250.643 111.739C250.729 111.446 250.845 111.163 250.99 110.893C251.122 110.653 251.271 110.421 251.434 110.2C251.77 109.755 252.214 109.441 252.616 109.614C252.827 109.717 253 109.885 253.108 110.095C253.215 110.304 253.252 110.542 253.212 110.774C253.184 111.359 253.101 111.94 252.962 112.509C253.319 112.005 253.556 111.427 253.656 110.818Z" fill="#263238"/>
<path d="M242.231 105.582C242.436 105.305 242.708 105.085 243.022 104.942C243.194 104.87 243.378 104.833 243.564 104.833C243.75 104.833 243.935 104.87 244.106 104.942C244.279 105.033 244.429 105.162 244.543 105.32C244.658 105.478 244.735 105.66 244.767 105.853C244.813 106.188 244.78 106.53 244.67 106.85C244.61 107.044 244.534 107.233 244.442 107.414C244.256 107.792 243.985 108.122 243.651 108.379C243.807 108.116 243.931 107.836 244.019 107.544C244.105 107.282 244.17 107.014 244.215 106.742C244.301 106.189 244.215 105.658 243.824 105.484C243.603 105.4 243.361 105.391 243.134 105.457C242.907 105.524 242.708 105.663 242.567 105.853C242.16 106.278 241.797 106.743 241.483 107.24C241.596 106.636 241.853 106.067 242.231 105.582Z" fill="#263238"/>
<g opacity="0.2">
<path opacity="0.2" d="M253.006 101.43C252.321 101.272 251.648 101.069 250.99 100.823C250.328 100.541 249.732 100.14 249.071 99.88C247.79 99.4479 246.444 99.2424 245.093 99.273C244.973 99.273 244.962 99.3489 245.093 99.3489C246.514 99.37 247.915 99.6952 249.201 100.303C250.219 100.884 251.314 101.318 252.453 101.593C255.077 102.015 257.499 103.26 259.369 105.148C257.665 103.303 255.45 102.008 253.006 101.43Z" fill="black"/>
<path opacity="0.2" d="M253.71 99.7282C253.062 99.5796 252.425 99.3877 251.802 99.1537C251.174 98.8827 250.61 98.5033 249.981 98.2539C248.767 97.8431 247.49 97.6486 246.209 97.6794C246.101 97.6794 246.09 97.7445 246.209 97.7553C247.556 97.7726 248.883 98.0794 250.101 98.655C251.06 99.2061 252.093 99.6185 253.168 99.8799C255.662 100.264 257.969 101.429 259.759 103.208C258.135 101.471 256.028 100.259 253.71 99.7282Z" fill="black"/>
</g>
<path d="M243.781 95.2731C248.55 101.885 259.553 98.4384 259.553 98.4384C259.597 100.013 260.149 101.532 261.125 102.768C262.102 104.004 263.451 104.892 264.973 105.3C264.973 105.3 262.371 116.444 265.201 117.43C269.537 118.958 276.041 104.856 275.759 101.495C275.477 98.1348 272.052 96.0752 272.052 96.0752C272.275 94.1949 271.775 92.2998 270.653 90.7745C268.485 87.5225 257.298 86.8504 257.298 86.8504C257.204 85.2891 256.747 83.7712 255.965 82.4168C255.779 82.0829 255.527 81.7903 255.225 81.5568C254.922 81.3232 254.575 81.1537 254.205 81.0583C253.835 80.963 253.45 80.944 253.072 81.0024C252.694 81.0607 252.332 81.1953 252.008 81.3979C252.264 82.3796 252.29 83.4072 252.084 84.4006C251.466 87.7176 248.908 86.7854 249.916 83.9561C250.266 82.883 250.994 81.9737 251.965 81.3979C251.369 79.0889 249.526 77.734 247.911 78.2868C244.984 79.2949 239.813 89.788 243.781 95.2731Z" fill="#2E2C2C"/>
<path d="M249.645 116.118C248.485 115.375 247.667 114.202 247.371 112.857C247.074 111.512 247.323 110.104 248.063 108.942C248.586 108.123 249.328 107.468 250.205 107.05C251.083 106.633 252.059 106.469 253.025 106.579C253.99 106.689 254.905 107.067 255.666 107.671C256.427 108.275 257.003 109.081 257.329 109.996C257.655 110.911 257.718 111.899 257.51 112.848C257.302 113.797 256.833 114.669 256.154 115.364C255.476 116.06 254.616 116.551 253.672 116.782C252.729 117.013 251.739 116.974 250.816 116.671C250.403 116.54 250.009 116.354 249.645 116.118ZM248.648 109.311C248.168 110.06 247.922 110.935 247.939 111.825C247.957 112.714 248.238 113.579 248.747 114.309C249.256 115.039 249.97 115.601 250.799 115.925C251.628 116.249 252.534 116.32 253.403 116.129C254.272 115.938 255.065 115.493 255.682 114.852C256.298 114.21 256.71 113.4 256.866 112.523C257.022 111.647 256.915 110.745 256.557 109.93C256.2 109.115 255.609 108.424 254.859 107.945C254.546 107.742 254.207 107.582 253.851 107.468C252.902 107.155 251.877 107.166 250.935 107.5C249.993 107.834 249.189 108.47 248.648 109.311Z" fill="#455A64"/>
<path d="M239.716 111.457C237.787 110.557 237.19 107.707 238.404 105.116C238.931 103.933 239.814 102.944 240.93 102.287C241.394 101.981 241.928 101.8 242.482 101.759C243.035 101.719 243.59 101.821 244.094 102.055C244.597 102.29 245.031 102.65 245.356 103.1C245.681 103.55 245.885 104.076 245.949 104.628C246.171 105.903 245.985 107.215 245.418 108.379C244.269 110.839 241.917 112.205 239.998 111.631L239.716 111.457ZM241.266 102.894C240.277 103.477 239.496 104.357 239.033 105.408C237.949 107.652 238.426 110.091 240.009 110.828C241.591 111.566 243.738 110.341 244.789 108.086C245.29 107.053 245.457 105.89 245.266 104.758C245.207 104.318 245.044 103.898 244.789 103.534C244.535 103.17 244.196 102.872 243.803 102.666L243.564 102.568C243.18 102.46 242.777 102.433 242.381 102.489C241.985 102.545 241.606 102.682 241.266 102.894Z" fill="#455A64"/>
<path d="M247.965 109.56L248.594 109.267C248.16 108.335 246.881 106.763 245.158 107.457L245.418 108.096C246.968 107.468 247.922 109.484 247.965 109.56Z" fill="#455A64"/>
<path d="M268.377 120.541H269.071C269.071 120.227 268.908 117.365 267.607 116.476C266.306 115.587 257.58 112.519 257.212 112.378L256.973 113.04C259.499 113.939 266.274 116.411 267.217 117.05C268.16 117.69 268.344 119.76 268.377 120.541Z" fill="#455A64"/>
<path d="M262.393 117.994C262.393 117.994 268.106 113.333 270.339 115.533C272.572 117.734 267.087 125.289 263.683 125.571C263.246 125.639 262.799 125.618 262.37 125.508C261.941 125.398 261.54 125.201 261.189 124.93C260.839 124.659 260.548 124.319 260.334 123.932C260.12 123.544 259.987 123.117 259.943 122.677L262.393 117.994Z" fill="#F2B7AB"/>
<path d="M268.713 117.657C268.767 117.657 268.713 117.744 268.713 117.744C266.285 118.004 264.572 119.695 263.174 121.56C263.362 121.377 263.587 121.238 263.834 121.151C264.081 121.064 264.344 121.032 264.605 121.057C264.866 121.082 265.118 121.163 265.345 121.295C265.571 121.426 265.766 121.605 265.916 121.82C265.923 121.833 265.926 121.848 265.925 121.862C265.923 121.877 265.918 121.891 265.908 121.902C265.899 121.914 265.887 121.922 265.873 121.927C265.859 121.932 265.844 121.932 265.83 121.928C265.482 121.696 265.071 121.578 264.654 121.59C264.236 121.601 263.833 121.742 263.499 121.993C262.948 122.416 262.443 122.896 261.992 123.424C261.83 123.598 261.504 123.424 261.645 123.186C262.415 120.324 265.667 117.072 268.713 117.657Z" fill="#263238"/>
<path d="M242.469 139.262L246.48 150.481L260.745 137.029L264.464 141.668C264.464 141.668 250.176 163.348 250.133 162.351L245.949 152.595L239.12 158.969L240.29 142.351L242.469 139.262Z" fill="#EBEBEB"/>
<path d="M239.228 150.774C239.521 148.042 239.727 145.278 240.139 142.557C240.139 142.459 240.312 142.416 240.334 142.557C240.778 145.224 239.629 155.684 239.543 158.199C239.824 157.917 245.862 152.606 245.917 152.692C246.838 154.242 249.916 161.364 250.122 161.95C252.377 158.503 260.962 145.993 263.662 142.752C263.668 142.742 263.676 142.734 263.686 142.727C263.696 142.72 263.707 142.715 263.718 142.713C263.73 142.71 263.742 142.71 263.754 142.712C263.765 142.714 263.776 142.719 263.786 142.725C263.796 142.731 263.805 142.74 263.812 142.749C263.818 142.759 263.823 142.77 263.826 142.782C263.828 142.793 263.828 142.805 263.826 142.817C263.824 142.829 263.82 142.84 263.813 142.85C261.797 146.503 250.361 163.359 250.198 163.305C248.574 159.965 247.126 156.542 245.862 153.05C244.778 154.221 238.719 160.248 238.719 159.847C238.73 156.816 238.9 153.787 239.228 150.774Z" fill="#263238"/>
<path d="M304.452 280.983L300.073 281.796L299.098 286.403L298.122 281.796L293.753 280.983L298.1 279.921L299.098 275.563L300.095 279.921L304.452 280.983Z" fill="#FFC727"/>
<path d="M229.96 75.338L225.58 76.151L224.605 80.758L223.629 76.151L219.261 75.338L223.608 74.2756L224.605 69.918L225.602 74.2756L229.96 75.338Z" fill="#FFC727"/>
<path d="M177.495 223.315L173.115 224.117L172.14 228.724L171.164 224.117L166.795 223.315L171.142 222.252L172.14 217.895L173.137 222.252L177.495 223.315Z" fill="#FFC727"/>
<path d="M301.677 204.746L297.309 205.559L296.333 210.166L295.357 205.559L290.978 204.746L295.336 203.683L296.333 199.326L297.33 203.683L301.677 204.746Z" fill="#FFC727"/>
<path d="M358.176 186.545L355.736 186.99L355.184 189.57L354.642 186.99L352.203 186.545L354.631 185.949L355.184 183.51L355.747 185.949L358.176 186.545Z" fill="#FFC727"/>
<path d="M206.686 178.058L204.247 178.513L203.705 181.093L203.152 178.513L200.713 178.058L203.142 177.461L203.705 175.033L204.258 177.461L206.686 178.058Z" fill="#FFC727"/>
<path d="M282.415 92.3134L279.965 92.7687L279.423 95.3378L278.881 92.7687L276.431 92.3134L278.87 91.7172L279.423 89.2891L279.976 91.7172L282.415 92.3134Z" fill="#FFC727"/>
<path d="M339.411 228.214L336.972 228.659L336.43 231.239L335.877 228.659L333.438 228.214L335.867 227.618L336.43 225.179L336.983 227.618L339.411 228.214Z" fill="#FFC727"/>
<path d="M319.542 233.168L317.092 233.613L316.55 236.193L315.997 233.613L313.558 233.168L315.986 232.572L316.55 230.133L317.103 232.572L319.542 233.168Z" fill="#FFC727"/>
<path d="M319.542 130.568L317.092 131.023L316.55 133.603L315.997 131.023L313.558 130.568L315.986 129.972L316.55 127.543L317.103 129.972L319.542 130.568Z" fill="#FFC727"/>
<path d="M213.461 126.882L211.011 127.327L210.469 129.907L209.917 127.327L207.478 126.882L209.917 126.286L210.469 123.847L211.022 126.286L213.461 126.882Z" fill="#FFC727"/>
<path d="M153.256 124.215L150.817 124.671L150.264 127.25L149.722 124.671L147.283 124.215L149.711 123.619L150.264 121.191L150.828 123.619L153.256 124.215Z" fill="#FFC727"/>
<path d="M186.101 245.385L183.662 245.84L183.12 248.41L182.567 245.84L180.128 245.385L182.557 244.789L183.12 242.361L183.673 244.789L186.101 245.385Z" fill="#FFC727"/>
<path d="M309.46 244.681C309.274 244.681 309.094 244.755 308.962 244.887C308.83 245.019 308.756 245.198 308.756 245.385C308.756 245.572 308.83 245.751 308.962 245.883C309.094 246.016 309.274 246.09 309.46 246.09C309.647 246.09 309.827 246.016 309.959 245.883C310.091 245.751 310.165 245.572 310.165 245.385C310.165 245.198 310.091 245.019 309.959 244.887C309.827 244.755 309.647 244.681 309.46 244.681Z" fill="#FFC727"/>
<path d="M320.225 145.332C320.052 145.353 319.892 145.437 319.777 145.568C319.661 145.699 319.597 145.868 319.597 146.042C319.597 146.217 319.661 146.385 319.777 146.516C319.892 146.647 320.052 146.731 320.225 146.752C320.398 146.731 320.557 146.647 320.673 146.516C320.788 146.385 320.852 146.217 320.852 146.042C320.852 145.868 320.788 145.699 320.673 145.568C320.557 145.437 320.398 145.353 320.225 145.332Z" fill="#FFC727"/>
<path d="M195.554 84.5518C195.381 84.5732 195.221 84.6572 195.106 84.788C194.99 84.9187 194.926 85.0873 194.926 85.2618C194.926 85.4363 194.99 85.6048 195.106 85.7356C195.221 85.8663 195.381 85.9504 195.554 85.9718C195.727 85.9504 195.886 85.8663 196.002 85.7356C196.118 85.6048 196.181 85.4363 196.181 85.2618C196.181 85.0873 196.118 84.9187 196.002 84.788C195.886 84.6572 195.727 84.5732 195.554 84.5518Z" fill="#FFC727"/>
<path d="M141.495 129.159C141.308 129.159 141.129 129.233 140.996 129.365C140.864 129.497 140.79 129.676 140.79 129.863C140.79 130.05 140.864 130.229 140.996 130.362C141.129 130.494 141.308 130.568 141.495 130.568C141.681 130.568 141.861 130.494 141.993 130.362C142.125 130.229 142.199 130.05 142.199 129.863C142.199 129.676 142.125 129.497 141.993 129.365C141.861 129.233 141.681 129.159 141.495 129.159Z" fill="#FFC727"/>
<path d="M183.12 199.326C182.947 199.347 182.788 199.431 182.672 199.562C182.556 199.693 182.493 199.861 182.493 200.036C182.493 200.21 182.556 200.379 182.672 200.509C182.788 200.64 182.947 200.724 183.12 200.746C183.293 200.724 183.453 200.64 183.568 200.509C183.684 200.379 183.748 200.21 183.748 200.036C183.748 199.861 183.684 199.693 183.568 199.562C183.453 199.431 183.293 199.347 183.12 199.326Z" fill="#FFC727"/>
<path d="M162.145 186.372C162.012 186.372 161.886 186.425 161.792 186.518C161.699 186.612 161.646 186.738 161.646 186.871C161.646 187.003 161.699 187.13 161.792 187.223C161.886 187.317 162.012 187.369 162.145 187.369C162.277 187.369 162.404 187.317 162.497 187.223C162.591 187.13 162.643 187.003 162.643 186.871C162.643 186.738 162.591 186.612 162.497 186.518C162.404 186.425 162.277 186.372 162.145 186.372Z" fill="#FFC727"/>
<path d="M201.126 101.896C200.993 101.896 200.867 101.949 200.773 102.042C200.679 102.136 200.627 102.262 200.627 102.395C200.627 102.527 200.679 102.654 200.773 102.747C200.867 102.841 200.993 102.893 201.126 102.893C201.258 102.893 201.385 102.841 201.478 102.747C201.572 102.654 201.624 102.527 201.624 102.395C201.624 102.262 201.572 102.136 201.478 102.042C201.385 101.949 201.258 101.896 201.126 101.896Z" fill="#FFC727"/>
<path d="M215.987 172.269C215.866 172.287 215.756 172.348 215.676 172.44C215.596 172.533 215.552 172.651 215.552 172.773C215.552 172.895 215.596 173.014 215.676 173.106C215.756 173.199 215.866 173.259 215.987 173.277C216.108 173.259 216.219 173.199 216.299 173.106C216.379 173.014 216.422 172.895 216.422 172.773C216.422 172.651 216.379 172.533 216.299 172.44C216.219 172.348 216.108 172.287 215.987 172.269Z" fill="#FFC727"/>
<path d="M169.765 263C169.644 263.018 169.534 263.079 169.454 263.171C169.374 263.264 169.33 263.382 169.33 263.504C169.33 263.626 169.374 263.745 169.454 263.837C169.534 263.93 169.644 263.99 169.765 264.008C169.886 263.99 169.997 263.93 170.077 263.837C170.157 263.745 170.201 263.626 170.201 263.504C170.201 263.382 170.157 263.264 170.077 263.171C169.997 263.079 169.886 263.018 169.765 263Z" fill="#FFC727"/>
<path d="M294.393 251.65C294.053 251.681 293.737 251.837 293.506 252.089C293.276 252.341 293.148 252.67 293.148 253.011C293.148 253.352 293.276 253.681 293.506 253.933C293.737 254.184 294.053 254.341 294.393 254.371C294.733 254.341 295.049 254.184 295.279 253.933C295.509 253.681 295.637 253.352 295.637 253.011C295.637 252.67 295.509 252.341 295.279 252.089C295.049 251.837 294.733 251.681 294.393 251.65Z" fill="#FFC727"/>
<path d="M376.029 173.44C375.669 173.44 375.325 173.583 375.071 173.837C374.817 174.091 374.674 174.436 374.674 174.795C374.674 175.154 374.817 175.499 375.071 175.753C375.325 176.007 375.669 176.15 376.029 176.15C376.388 176.15 376.733 176.007 376.987 175.753C377.241 175.499 377.384 175.154 377.384 174.795C377.384 174.436 377.241 174.091 376.987 173.837C376.733 173.583 376.388 173.44 376.029 173.44Z" fill="#FFC727"/>
<path d="M238.968 65.7554C238.628 65.7857 238.312 65.9422 238.082 66.194C237.851 66.4457 237.724 66.7746 237.724 67.1158C237.724 67.457 237.851 67.7858 238.082 68.0376C238.312 68.2894 238.628 68.4458 238.968 68.4762C239.308 68.4458 239.624 68.2894 239.854 68.0376C240.084 67.7858 240.212 67.457 240.212 67.1158C240.212 66.7746 240.084 66.4457 239.854 66.194C239.624 65.9422 239.308 65.7857 238.968 65.7554Z" fill="#FFC727"/>
<path d="M221.136 119.869C220.796 119.899 220.48 120.055 220.25 120.307C220.019 120.559 219.892 120.888 219.892 121.229C219.892 121.57 220.019 121.899 220.25 122.151C220.48 122.403 220.796 122.559 221.136 122.589C221.476 122.559 221.792 122.403 222.022 122.151C222.252 121.899 222.38 121.57 222.38 121.229C222.38 120.888 222.252 120.559 222.022 120.307C221.792 120.055 221.476 119.899 221.136 119.869Z" fill="#FFC727"/>
<path d="M176.172 258.393C175.832 258.423 175.516 258.58 175.286 258.832C175.055 259.083 174.928 259.412 174.928 259.753C174.928 260.095 175.055 260.424 175.286 260.675C175.516 260.927 175.832 261.084 176.172 261.114C176.512 261.084 176.828 260.927 177.058 260.675C177.289 260.424 177.416 260.095 177.416 259.753C177.416 259.412 177.289 259.083 177.058 258.832C176.828 258.58 176.512 258.423 176.172 258.393Z" fill="#FFC727"/>
</svg>
