<svg width="182" height="182" viewBox="0 0 182 182" fill="none" xmlns="http://www.w3.org/2000/svg">
<path d="M50.1079 152.074H38.0522V152.173H50.1079V152.074Z" fill="#EBEBEB"/>
<path d="M77.1282 155.693H62.2952V155.792H77.1282V155.693Z" fill="#EBEBEB"/>
<path d="M37.6888 154.457H19.0957V154.555H37.6888V154.457Z" fill="#EBEBEB"/>
<path d="M163.763 152.738H129.86V152.837H163.763V152.738Z" fill="#EBEBEB"/>
<path d="M126.621 152.738H124.317V152.837H126.621V152.738Z" fill="#EBEBEB"/>
<path d="M116.277 154.405H100.905V154.504H116.277V154.405Z" fill="#EBEBEB"/>
<path d="M86.2682 131.761H15.9835C15.4329 131.76 14.9052 131.521 14.5162 131.098C14.1272 130.675 13.9087 130.102 13.9087 129.505V22.2564C13.9135 21.6622 14.1341 21.094 14.5226 20.6752C14.911 20.2565 15.436 20.021 15.9835 20.02H86.2682C86.8195 20.02 87.3482 20.2577 87.7379 20.6808C88.1277 21.1039 88.3467 21.6778 88.3467 22.2762V129.505C88.3467 130.103 88.1277 130.677 87.7379 131.1C87.3482 131.523 86.8195 131.761 86.2682 131.761ZM15.9835 20.099C15.457 20.1001 14.9524 20.3278 14.5805 20.7323C14.2086 21.1368 13.9997 21.6849 13.9997 22.2564V129.505C13.9997 130.076 14.2086 130.624 14.5805 131.029C14.9524 131.433 15.457 131.661 15.9835 131.662H86.2682C86.7948 131.66 87.2992 131.432 87.6715 131.028C88.0438 130.624 88.2538 130.076 88.2557 129.505V22.2564C88.2538 21.6849 88.0438 21.1374 87.6715 20.7332C87.2992 20.3291 86.7948 20.1011 86.2682 20.099H15.9835Z" fill="#EBEBEB"/>
<path d="M165.005 131.761H94.7164C94.1657 131.759 93.6382 131.52 93.2488 131.098C92.8595 130.675 92.6399 130.102 92.6379 129.505V22.2564C92.6437 21.6618 92.8651 21.0936 93.2541 20.675C93.6432 20.2563 94.1686 20.021 94.7164 20.02H165.005C165.552 20.0221 166.076 20.258 166.463 20.6766C166.851 21.0952 167.071 21.6628 167.076 22.2564V129.505C167.076 129.8 167.023 130.093 166.919 130.367C166.816 130.64 166.663 130.889 166.471 131.098C166.278 131.308 166.05 131.474 165.798 131.588C165.547 131.701 165.277 131.76 165.005 131.761ZM94.7164 20.099C94.1899 20.1011 93.6855 20.3291 93.3132 20.7332C92.9409 21.1374 92.7309 21.6849 92.7289 22.2564V129.505C92.7309 130.076 92.9409 130.624 93.3132 131.028C93.6855 131.432 94.1899 131.66 94.7164 131.662H165.005C165.531 131.66 166.036 131.432 166.408 131.028C166.78 130.624 166.99 130.076 166.992 129.505V22.2564C166.99 21.6849 166.78 21.1374 166.408 20.7332C166.036 20.3291 165.531 20.1011 165.005 20.099H94.7164Z" fill="#EBEBEB"/>
<path d="M25.7239 65.894H57.3045C57.3045 65.894 55.6046 61.6029 49.9262 62.9384C49.9262 62.9384 48.7323 58.0587 44.4007 58.7343C44.4007 58.7343 40.8153 54.5144 35.5846 56.1502C30.354 57.7861 30.8053 62.9384 30.8053 62.9384C30.8053 62.9384 26.936 61.84 25.7239 65.894Z" fill="#FAFAFA"/>
<path d="M110.252 39.7526H78.675C78.675 39.7526 80.3713 35.4577 86.0497 36.7932C86.0497 36.7932 87.2436 31.9134 91.5788 32.5891C91.5788 32.5891 95.1642 28.3731 100.391 30.0089C105.618 31.6447 105.174 36.7932 105.174 36.7932C105.174 36.7932 109.058 35.6987 110.252 39.7526Z" fill="#FAFAFA"/>
<path d="M133.54 38.6344H157.699C157.699 38.6344 156.774 35.0349 153.28 36.2202C153.28 36.2202 154.008 31.376 151.431 30.8149C148.854 30.2539 148.035 33.9404 148.035 33.9404C147.445 33.2149 146.68 32.6825 145.827 32.4033C144.974 32.124 144.065 32.109 143.204 32.3599C142.358 32.5991 141.587 33.0818 140.972 33.757C140.357 34.4322 139.921 35.275 139.71 36.1965C139.71 36.1965 135.408 33.5215 133.54 38.6344Z" fill="#FAFAFA"/>
<path d="M46.1191 86.0728H16.7297V149.281H46.1191V86.0728Z" fill="#E6E6E6"/>
<path d="M40.7756 86.0728H16.7297V149.281H40.7756V86.0728Z" fill="#F0F0F0"/>
<path d="M46.4647 86.0728H16.0962V87.104H46.4647V86.0728Z" fill="#E0E0E0"/>
<path d="M46.4647 84.0103H16.0962V85.0415H46.4647V84.0103Z" fill="#E0E0E0"/>
<path d="M45.8279 85.0415H16.7297V86.0728H45.8279V85.0415Z" fill="#F0F0F0"/>
<path d="M23.529 89.791H19.0117V94.7696H23.529V89.791Z" fill="#E6E6E6"/>
<path d="M23.5253 89.791H19.4084V94.7696H23.5253V89.791Z" fill="#F5F5F5"/>
<path d="M30.3683 89.791H25.8511V94.7696H30.3683V89.791Z" fill="#E6E6E6"/>
<path d="M30.3646 89.791H26.2478V94.7696H30.3646V89.791Z" fill="#F5F5F5"/>
<path d="M37.2082 89.791H32.6909V94.7696H37.2082V89.791Z" fill="#E6E6E6"/>
<path d="M37.2045 89.791H33.0876V94.7696H37.2045V89.791Z" fill="#F5F5F5"/>
<path d="M23.529 97.1201H19.0117V102.099H23.529V97.1201Z" fill="#E6E6E6"/>
<path d="M23.5253 97.1201H19.4084V102.099H23.5253V97.1201Z" fill="#F5F5F5"/>
<path d="M30.3683 97.1201H25.8511V102.099H30.3683V97.1201Z" fill="#E6E6E6"/>
<path d="M30.3646 97.1201H26.2478V102.099H30.3646V97.1201Z" fill="#F5F5F5"/>
<path d="M37.2082 97.1201H32.6909V102.099H37.2082V97.1201Z" fill="#E6E6E6"/>
<path d="M37.2045 97.1201H33.0876V102.099H37.2045V97.1201Z" fill="#F5F5F5"/>
<path d="M23.529 110.543H19.0117V115.521H23.529V110.543Z" fill="#E6E6E6"/>
<path d="M23.5253 110.543H19.4084V115.521H23.5253V110.543Z" fill="#F5F5F5"/>
<path d="M30.3683 110.543H25.8511V115.521H30.3683V110.543Z" fill="#E6E6E6"/>
<path d="M30.3646 110.543H26.2478V115.521H30.3646V110.543Z" fill="#F5F5F5"/>
<path d="M37.2082 110.543H32.6909V115.521H37.2082V110.543Z" fill="#E6E6E6"/>
<path d="M37.2045 110.543H33.0876V115.521H37.2045V110.543Z" fill="#F5F5F5"/>
<path d="M23.529 117.872H19.0117V122.851H23.529V117.872Z" fill="#E6E6E6"/>
<path d="M23.5253 117.872H19.4084V122.851H23.5253V117.872Z" fill="#F5F5F5"/>
<path d="M30.3683 117.872H25.8511V122.851H30.3683V117.872Z" fill="#E6E6E6"/>
<path d="M30.3646 117.872H26.2478V122.851H30.3646V117.872Z" fill="#F5F5F5"/>
<path d="M37.2082 117.872H32.6909V122.851H37.2082V117.872Z" fill="#E6E6E6"/>
<path d="M37.2045 117.872H33.0876V122.851H37.2045V117.872Z" fill="#F5F5F5"/>
<path d="M23.529 132.788H19.0117V137.766H23.529V132.788Z" fill="#E6E6E6"/>
<path d="M23.5253 132.788H19.4084V137.766H23.5253V132.788Z" fill="#F5F5F5"/>
<path d="M30.3683 132.788H25.8511V137.766H30.3683V132.788Z" fill="#E6E6E6"/>
<path d="M30.3646 132.788H26.2478V137.766H30.3646V132.788Z" fill="#F5F5F5"/>
<path d="M37.2082 132.788H32.6909V137.766H37.2082V132.788Z" fill="#E6E6E6"/>
<path d="M37.2045 132.788H33.0876V137.766H37.2045V132.788Z" fill="#F5F5F5"/>
<path d="M23.529 140.117H19.0117V145.096H23.529V140.117Z" fill="#E6E6E6"/>
<path d="M23.5253 140.117H19.4084V145.096H23.5253V140.117Z" fill="#F5F5F5"/>
<path d="M30.3683 140.117H25.8511V145.096H30.3683V140.117Z" fill="#E6E6E6"/>
<path d="M30.3646 140.117H26.2478V145.096H30.3646V140.117Z" fill="#F5F5F5"/>
<path d="M37.2082 140.117H32.6909V145.096H37.2082V140.117Z" fill="#E6E6E6"/>
<path d="M37.2045 140.117H33.0876V145.096H37.2045V140.117Z" fill="#F5F5F5"/>
<path d="M46.1191 105.6H16.7297V106.062H46.1191V105.6Z" fill="#E0E0E0"/>
<path d="M46.1191 128.54H16.7297V129.003H46.1191V128.54Z" fill="#E0E0E0"/>
<path d="M161.616 73.1641H132.496V149.24H161.616V73.1641Z" fill="#E0E0E0"/>
<path d="M153.419 73.0298H132.652V149.727H153.419V73.0298Z" fill="#F0F0F0"/>
<path d="M142.521 79.332H134.793V83.4057H142.521V79.332Z" fill="#E6E6E6"/>
<path d="M142.521 79.332H135.306V83.4057H142.521V79.332Z" fill="#F5F5F5"/>
<path d="M151.46 79.332H143.732V83.4057H151.46V79.332Z" fill="#E6E6E6"/>
<path d="M151.46 79.332H144.246V83.4057H151.46V79.332Z" fill="#F5F5F5"/>
<path d="M142.521 86.9971H134.793V91.0708H142.521V86.9971Z" fill="#E6E6E6"/>
<path d="M142.521 86.9971H135.306V91.0708H142.521V86.9971Z" fill="#F5F5F5"/>
<path d="M151.46 86.9971H143.732V91.0708H151.46V86.9971Z" fill="#E6E6E6"/>
<path d="M151.46 86.9971H144.246V91.0708H151.46V86.9971Z" fill="#F5F5F5"/>
<path d="M142.521 96.7925H134.793V100.866H142.521V96.7925Z" fill="#E6E6E6"/>
<path d="M142.521 96.7925H135.306V100.866H142.521V96.7925Z" fill="#F5F5F5"/>
<path d="M151.46 96.7925H143.732V100.866H151.46V96.7925Z" fill="#E6E6E6"/>
<path d="M151.46 96.7925H144.246V100.866H151.46V96.7925Z" fill="#F5F5F5"/>
<path d="M142.521 102.423H134.793V106.497H142.521V102.423Z" fill="#E6E6E6"/>
<path d="M142.521 102.423H135.306V106.497H142.521V102.423Z" fill="#F5F5F5"/>
<path d="M151.46 102.423H143.732V106.497H151.46V102.423Z" fill="#E6E6E6"/>
<path d="M151.46 102.423H144.246V106.497H151.46V102.423Z" fill="#F5F5F5"/>
<path d="M142.521 111.673H134.793V115.746H142.521V111.673Z" fill="#E6E6E6"/>
<path d="M142.521 111.673H135.306V115.746H142.521V111.673Z" fill="#F5F5F5"/>
<path d="M151.46 111.673H143.732V115.746H151.46V111.673Z" fill="#E6E6E6"/>
<path d="M151.46 111.673H144.246V115.746H151.46V111.673Z" fill="#F5F5F5"/>
<path d="M142.521 117.299H134.793V121.373H142.521V117.299Z" fill="#E6E6E6"/>
<path d="M142.521 117.299H135.306V121.373H142.521V117.299Z" fill="#F5F5F5"/>
<path d="M151.46 117.299H143.732V121.373H151.46V117.299Z" fill="#E6E6E6"/>
<path d="M151.46 117.299H144.246V121.373H151.46V117.299Z" fill="#F5F5F5"/>
<path d="M142.521 127.367H134.793V131.441H142.521V127.367Z" fill="#E6E6E6"/>
<path d="M142.521 127.367H135.306V131.441H142.521V127.367Z" fill="#F5F5F5"/>
<path d="M151.46 127.367H143.732V131.441H151.46V127.367Z" fill="#E6E6E6"/>
<path d="M151.46 127.367H144.246V131.441H151.46V127.367Z" fill="#F5F5F5"/>
<path d="M142.521 134.799H134.793V138.873H142.521V134.799Z" fill="#E6E6E6"/>
<path d="M142.521 134.799H135.306V138.873H142.521V134.799Z" fill="#F5F5F5"/>
<path d="M151.46 134.799H143.732V138.873H151.46V134.799Z" fill="#E6E6E6"/>
<path d="M151.46 134.799H144.246V138.873H151.46V134.799Z" fill="#F5F5F5"/>
<path opacity="0.05" d="M161.689 93.5801H132.652V94.2794H161.689V93.5801Z" fill="black"/>
<path opacity="0.05" d="M161.689 108.733H132.652V109.432H161.689V108.733Z" fill="black"/>
<path opacity="0.05" d="M161.689 124.02H132.652V124.72H161.689V124.02Z" fill="black"/>
<path d="M161.689 70.7617H131.284V73.2115H161.689V70.7617Z" fill="#E0E0E0"/>
<path opacity="0.05" d="M161.689 70.7617H154.74V73.2115H161.689V70.7617Z" fill="black"/>
<path d="M91.364 55.6919H58.604V149.604H91.364V55.6919Z" fill="#E6E6E6"/>
<path d="M78.988 55.6919H46.228V149.604H78.988V55.6919Z" fill="#F0F0F0"/>
<path d="M76.2873 62.0967H49.1875V66.8144H76.2873V62.0967Z" fill="#E6E6E6"/>
<path d="M76.2869 62.0967H50.239V66.8144H76.2869V62.0967Z" fill="#F5F5F5"/>
<path d="M76.2873 70.0386H49.1875V74.7563H76.2873V70.0386Z" fill="#E6E6E6"/>
<path d="M76.2869 70.0386H50.239V74.7563H76.2869V70.0386Z" fill="#F5F5F5"/>
<path d="M76.2873 78.2886H49.1875V83.0063H76.2873V78.2886Z" fill="#E6E6E6"/>
<path d="M76.2869 78.2886H50.239V83.0063H76.2869V78.2886Z" fill="#F5F5F5"/>
<path d="M76.2873 86.543H49.1875V91.2607H76.2873V86.543Z" fill="#E6E6E6"/>
<path d="M76.2869 86.543H50.239V91.2607H76.2869V86.543Z" fill="#F5F5F5"/>
<path d="M76.2873 94.793H49.1875V99.5107H76.2873V94.793Z" fill="#E6E6E6"/>
<path d="M76.2869 94.793H50.239V99.5107H76.2869V94.793Z" fill="#F5F5F5"/>
<path d="M76.2873 103.047H49.1875V107.765H76.2873V103.047Z" fill="#E6E6E6"/>
<path d="M76.2869 103.047H50.239V107.765H76.2869V103.047Z" fill="#F5F5F5"/>
<path d="M76.2873 112.143H49.1875V116.861H76.2873V112.143Z" fill="#E6E6E6"/>
<path d="M76.2869 112.143H50.239V116.861H76.2869V112.143Z" fill="#F5F5F5"/>
<path d="M76.2873 121.235H49.1875V125.952H76.2873V121.235Z" fill="#E6E6E6"/>
<path d="M76.2869 121.235H50.239V125.952H76.2869V121.235Z" fill="#F5F5F5"/>
<path d="M76.2873 130.33H49.1875V135.048H76.2873V130.33Z" fill="#E6E6E6"/>
<path d="M76.2869 130.33H50.239V135.048H76.2869V130.33Z" fill="#F5F5F5"/>
<path d="M76.2873 139.426H49.1875V144.144H76.2873V139.426Z" fill="#E6E6E6"/>
<path d="M76.2869 139.426H50.239V144.144H76.2869V139.426Z" fill="#F5F5F5"/>
<path d="M92.1542 54.8779H45.3948V57.138H92.1542V54.8779Z" fill="#F5F5F5"/>
<path d="M92.1542 50.7998H45.3948V53.0599H92.1542V50.7998Z" fill="#F5F5F5"/>
<path d="M90.5995 52.6177H46.3225V54.8778H90.5995V52.6177Z" fill="#F0F0F0"/>
<path d="M91.3016 62.0967H82.1543V66.8144H91.3016V62.0967Z" fill="#E0E0E0"/>
<path d="M91.3016 69.8608H82.1543V74.5786H91.3016V69.8608Z" fill="#E0E0E0"/>
<path d="M91.3016 77.625H82.1543V82.3428H91.3016V77.625Z" fill="#E0E0E0"/>
<path d="M91.3016 86.5391H82.1543V91.2568H91.3016V86.5391Z" fill="#E0E0E0"/>
<path d="M91.3016 94.793H82.1543V99.5107H91.3016V94.793Z" fill="#E0E0E0"/>
<path d="M91.3016 103.047H82.1543V107.765H91.3016V103.047Z" fill="#E0E0E0"/>
<path d="M91.3016 112.139H82.1543V116.857H91.3016V112.139Z" fill="#E0E0E0"/>
<path d="M91.3016 121.235H82.1543V125.952H91.3016V121.235Z" fill="#E0E0E0"/>
<path d="M91.3016 130.33H82.1543V135.048H91.3016V130.33Z" fill="#E0E0E0"/>
<path d="M91.3016 139.426H82.1543V144.144H91.3016V139.426Z" fill="#E0E0E0"/>
<path d="M133.497 88.1748H129.886V94.3071H133.497V88.1748Z" fill="#E0E0E0"/>
<path d="M133.497 98.2109H129.886V104.343H133.497V98.2109Z" fill="#E0E0E0"/>
<path d="M133.497 107.966H129.886V114.099H133.497V107.966Z" fill="#E0E0E0"/>
<path d="M133.497 118.279H129.886V124.411H133.497V118.279Z" fill="#E0E0E0"/>
<path d="M133.497 128.315H129.886V134.447H133.497V128.315Z" fill="#E0E0E0"/>
<path d="M133.497 82.0107H95.4988V144.74H133.497V82.0107Z" fill="#E6E6E6"/>
<path d="M127.036 81.8999H95.3679V149.24H127.036V81.8999Z" fill="#F0F0F0"/>
<path d="M124.018 88.1787H98.3418V94.311H124.018V88.1787Z" fill="#EBEBEB"/>
<path d="M124.018 98.2109H98.3418V104.343H124.018V98.2109Z" fill="#EBEBEB"/>
<path d="M124.018 108.247H98.3418V114.379H124.018V108.247Z" fill="#EBEBEB"/>
<path d="M124.018 118.279H98.3418V124.411H124.018V118.279Z" fill="#EBEBEB"/>
<path d="M124.018 128.315H98.3418V134.447H124.018V128.315Z" fill="#EBEBEB"/>
<path d="M124.018 88.1787H99.2881V94.311H124.018V88.1787Z" fill="#F5F5F5"/>
<path d="M124.018 98.2109H99.2881V104.343H124.018V98.2109Z" fill="#F5F5F5"/>
<path d="M124.018 108.247H99.2881V114.379H124.018V108.247Z" fill="#F5F5F5"/>
<path d="M124.018 118.279H99.2881V124.411H124.018V118.279Z" fill="#F5F5F5"/>
<path d="M124.018 128.315H99.2881V134.447H124.018V128.315Z" fill="#F5F5F5"/>
<path d="M137.519 64.3812L96.6848 65.0776L97.1736 95.3983L138.007 94.7019L137.519 64.3812Z" fill="#28BB46"/>
<path opacity="0.3" d="M121.335 64.6536L96.647 65.0747L97.1358 95.3954L121.824 94.9743L121.335 64.6536Z" fill="white"/>
<path opacity="0.3" d="M125.052 66.6965L117.942 66.8428L117.982 68.8812L125.092 68.7349L125.052 66.6965Z" fill="white"/>
<path opacity="0.3" d="M125.265 90.2743L118.156 90.3955L118.189 92.4336L125.298 92.3124L125.265 90.2743Z" fill="white"/>
<path d="M129.999 83.7892C132.303 83.7892 134.171 81.6152 134.171 78.9334C134.171 76.2516 132.303 74.0776 129.999 74.0776C127.695 74.0776 125.827 76.2516 125.827 78.9334C125.827 81.6152 127.695 83.7892 129.999 83.7892Z" stroke="white" stroke-miterlimit="10"/>
<path d="M130.18 74.8169V75.6323" stroke="white" stroke-linecap="round" stroke-linejoin="round"/>
<path d="M130.358 82.2861V83.1015" stroke="white" stroke-linecap="round" stroke-linejoin="round"/>
<path d="M126.487 78.7734H127.284" stroke="white" stroke-linecap="round" stroke-linejoin="round"/>
<path d="M132.879 78.7769H133.675" stroke="white" stroke-linecap="round" stroke-linejoin="round"/>
<path d="M130.173 78.7733L130.178 76.2617" stroke="white" stroke-width="0.5" stroke-linecap="round" stroke-linejoin="round"/>
<path d="M130.33 78.937L132.057 80.7133" stroke="white" stroke-width="0.5" stroke-linecap="round" stroke-linejoin="round"/>
<path d="M130.554 78.7771C130.554 78.8556 130.532 78.9323 130.489 78.9976C130.447 79.0628 130.387 79.1137 130.316 79.1437C130.246 79.1737 130.168 79.1816 130.093 79.1663C130.019 79.151 129.95 79.1132 129.896 79.0577C129.842 79.0022 129.805 78.9315 129.79 78.8546C129.775 78.7776 129.783 78.6978 129.812 78.6253C129.842 78.5528 129.891 78.4909 129.954 78.4473C130.018 78.4037 130.092 78.3804 130.169 78.3804C130.219 78.3799 130.27 78.3898 130.317 78.4096C130.364 78.4294 130.407 78.4586 130.443 78.4955C130.478 78.5325 130.507 78.5764 130.526 78.6247C130.545 78.6731 130.555 78.7249 130.554 78.7771Z" fill="white"/>
<path opacity="0.3" d="M130.001 85.0743C133.052 85.0743 135.526 82.3251 135.526 78.9337C135.526 75.5422 133.052 72.793 130.001 72.793C126.95 72.793 124.477 75.5422 124.477 78.9337C124.477 82.3251 126.95 85.0743 130.001 85.0743Z" fill="white"/>
<path d="M84.1243 132.187C84.74 132.671 97.1015 131.302 93.9059 108.745C93.9059 108.745 99.7699 110.278 100.4 110.176C100.4 110.176 109.003 123.742 102.739 130.461C96.4751 137.181 87.1394 137.592 87.1394 137.592L84.1243 132.187Z" fill="#F9BE00"/>
<path opacity="0.3" d="M84.1243 132.187C84.74 132.671 97.1015 131.302 93.9059 108.745C93.9059 108.745 99.7699 110.278 100.4 110.176C100.4 110.176 109.003 123.742 102.739 130.461C96.4751 137.181 87.1394 137.592 87.1394 137.592L84.1243 132.187Z" fill="#2E2C2C"/>
<path d="M97.8208 112.236C97.8526 112.236 94.3668 112.305 93.1989 110.813C92.0311 109.32 91.2419 106.652 93.3653 104.832C95.4886 103.012 107.956 95.1498 113.827 94.531C119.698 93.9122 125.984 97.807 125.984 97.807L118.297 103.653L101.745 107.773L97.8208 112.236Z" fill="#263238"/>
<path d="M86.5503 128.634L86.8723 131.896L90.6802 131.564L90.1069 128.212L86.5503 128.634Z" fill="#FFC3BD"/>
<path d="M85.8121 131.659L91.3364 131.579L91.7292 134.447C91.7292 134.447 86.5553 134.52 84.4284 134.229C82.3015 133.938 82.6341 132.798 82.6341 132.798C82.6341 132.798 85.1255 132.86 85.8121 131.659Z" fill="#263238"/>
<path d="M134.023 139.915C134.848 131.577 129.953 124.235 123.091 123.517C116.229 122.799 109.998 128.976 109.173 137.314C108.348 145.652 113.242 152.993 120.104 153.711C126.966 154.43 133.198 148.253 134.023 139.915Z" fill="#263238"/>
<path d="M112.913 92.1976C112.913 92.1976 113.486 105.727 105.835 106.113C98.1841 106.499 89.9632 105.636 89.9632 105.636L92.3732 129.948L85.1998 130.403C85.1998 130.403 80.0506 109.779 79.2402 104.595C78.4298 99.412 79.134 95.7466 84.4531 93.4461C89.7721 91.1456 112.913 92.1976 112.913 92.1976Z" fill="#585757"/>
<path d="M70.1022 135.124L79.6326 106.652L92.3727 92.187C92.3727 92.187 81.2534 92.2307 75.9096 95.3902C70.5658 98.5497 70.3677 102.346 69.3874 106.863C68.4071 111.381 64.4753 132.762 64.4753 132.762L70.1022 135.124Z" fill="#585757"/>
<path opacity="0.7" d="M112.92 92.1976C112.92 92.1976 101.079 91.6552 92.394 92.1976C92.394 92.1976 81.2747 92.2413 75.9309 95.4008C70.5871 98.5603 70.3677 102.346 69.3874 106.863C68.4071 111.38 64.4753 132.762 64.4753 132.762L70.1022 135.124L79.6326 106.652C81.2357 114.544 85.2064 130.388 85.2064 130.388L92.3798 129.948L89.9663 105.651C89.9663 105.651 98.1837 106.514 105.838 106.128C113.493 105.742 112.92 92.1976 112.92 92.1976Z" fill="#2E2C2C"/>
<path d="M93.3675 70.252L88.9686 70.8016C88.9686 70.8016 88.2042 79.119 87.4929 80.7351C87.4929 80.7351 73.9635 82.6461 68.4216 82.4824L65.6081 84.4479L65.509 87.8659L68.2659 87.9496L69.1541 85.7838C69.1541 85.7838 71.0156 85.7001 71.4474 84.6227C71.4474 84.6227 85.8225 88.1935 91.1167 84.1167C91.1238 84.1203 94.3159 79.2973 93.3675 70.252Z" fill="#FFC3BD"/>
<path d="M105.97 47.979C105.97 47.979 107.347 49.799 106.823 51.3751C106.678 51.8246 106.424 52.2282 106.083 52.547C105.743 52.8658 105.328 53.089 104.88 53.1951C104.88 53.1951 104.622 55.7176 103.174 55.7904C101.727 55.8632 102.212 50.2322 102.212 50.2322L105.97 47.979Z" fill="#263238"/>
<path d="M94.8256 92.2597L93.8595 75.9998L87.8645 71.9012C87.8645 71.9012 89.8251 64.7922 93.5763 63.5874C97.3276 62.3826 105.51 59.6198 110.471 60.9921C115.433 62.3644 114.863 68.3849 114.01 72.8512L113.055 73.0842C113.055 73.0842 112.906 90.6836 112.899 92.1978L94.8256 92.2597Z" fill="#28BB46"/>
<path d="M105.619 61.9965C103.655 63.9511 99.6488 65.1159 98.5411 64.1441C97.4334 63.1722 98.8313 62.2804 99.8717 61.1811C100.434 60.5769 100.417 59.4448 100.286 58.5421C100.217 58.0872 100.115 57.6383 99.9814 57.1989C96.3045 56.9915 94.7792 55.2224 94.627 52.1029C94.4748 48.9834 95.8479 45.3616 95.8479 45.3616L98.4455 43.083C98.4455 43.083 101.984 43.629 104.816 45.631C106.5 46.8104 106.001 49.1327 105.304 50.8471C105.009 51.5769 104.653 52.2795 104.242 52.9474C103.846 57.2171 105.619 61.9965 105.619 61.9965Z" fill="#FFC3BD"/>
<path d="M96.6682 52.962C96.6682 52.962 98.0838 53.0311 98.7031 52.1284" stroke="#263238" stroke-linecap="round" stroke-linejoin="round"/>
<path d="M98.9245 49.2787C98.9245 49.5553 98.7617 49.7737 98.5706 49.7701C98.3795 49.7664 98.2415 49.5371 98.2486 49.2605C98.2556 48.9839 98.4113 48.7654 98.6024 48.7691C98.7935 48.7727 98.9351 49.0021 98.9245 49.2787Z" fill="#263238"/>
<path d="M95.693 49.3661C95.693 49.6427 95.5303 49.8611 95.3391 49.8575C95.148 49.8538 95.01 49.6245 95.0171 49.3479C95.0242 49.0713 95.1799 48.8529 95.371 48.8565C95.5621 48.8601 95.7037 49.0931 95.693 49.3661Z" fill="#263238"/>
<path d="M96.8165 51.6263L96.6714 49.395L95.6345 51.5135C95.7964 51.655 95.9967 51.7417 96.2082 51.7619C96.4197 51.7821 96.6321 51.7348 96.8165 51.6263Z" fill="#ED847E"/>
<path d="M98.7522 47.5315C99.0237 47.4548 99.3128 47.4796 99.5681 47.6016C99.8234 47.7236 100.028 47.9348 100.147 48.1976" stroke="#263238" stroke-linecap="round" stroke-linejoin="round"/>
<path d="M94.7007 47.9428C94.7007 47.9428 95.3519 47.2148 96.1163 47.4004" stroke="#263238" stroke-linecap="round" stroke-linejoin="round"/>
<path d="M105.325 50.8473C101.276 50.9966 100.773 46.2755 100.773 46.2755C98.7704 47.3675 95.8579 45.3655 95.8579 45.3655L98.4555 43.0796C98.4555 43.0796 101.994 43.6329 104.826 45.6276C106.521 46.8106 106.022 49.1402 105.325 50.8473Z" fill="#263238"/>
<path d="M94.5559 46.7485C94.5559 46.7485 92.4609 45.3143 93.3845 44.2806C94.3082 43.2468 99.9669 45.2124 104.196 47.6221C104.196 47.6221 94.5099 40.9572 91.8769 43.0648C89.7005 44.8084 94.5276 47.229 94.3825 47.2253L94.5559 46.7485Z" fill="#28BB46"/>
<path d="M106.37 46.2609C106.365 47.0157 106.225 47.7631 105.96 48.4668L96.4473 43.7348C96.8414 43.2667 97.3136 42.8747 97.8416 42.5773C98.4046 42.246 99.0168 42.0124 99.6535 41.8857C100.329 41.7529 101.02 41.7283 101.703 41.8129C105.181 42.2242 106.388 44.976 106.37 46.2609Z" fill="#28BB46"/>
<path d="M64.2419 94.4473C64.2419 94.4473 53.4977 109.735 62.345 133.268" stroke="#263238" stroke-linecap="round" stroke-linejoin="round"/>
<path d="M78.4262 102.39C78.4262 102.39 78.4262 102.419 78.4262 102.477C78.4262 102.535 78.4262 102.568 78.4262 102.633V102.67C78.2984 104.142 78.0618 105.602 77.7184 107.038C77.23 109.16 76.5824 111.18 76.048 112.804C73.7831 119.701 74.045 127.134 74.045 127.134C73.2947 126.173 71.9216 125.489 70.2052 125.009C63.9555 123.243 53.3458 124.19 53.3458 124.19C51.2649 116.68 52.008 104.927 54.0783 98.3456C56.1486 91.7645 61.8887 93.2496 61.8887 93.2496C61.8887 93.2496 67.9474 93.4316 68.7083 93.3479C70.1008 93.1741 71.5103 93.2035 72.8948 93.4352C77.5733 94.3161 78.6987 98.1199 78.4262 102.39Z" fill="#F9BE00"/>
<path d="M125.071 131.04C114.454 140.898 93.9599 141.931 78.7106 140.839L70.1676 125.031L66.7065 118.628L77.8259 103.213L78.4133 102.401C78.4133 102.401 78.4133 102.43 78.4133 102.488C78.4133 102.546 78.4133 102.579 78.4133 102.645V102.681C78.2612 105.429 77.2773 127.484 85.1373 132.893L85.201 132.94C86.2646 133.647 87.4986 134.036 88.7647 134.062C103.186 134.491 102.782 115.134 99.1161 110.988L124.14 105.815C124.14 105.815 129.08 118.61 125.071 131.04Z" fill="#F9BE00"/>
<path d="M97.2408 106.79C97.2408 106.79 94.8945 108.792 96.1049 111.479C97.3152 114.165 108.983 108.949 113.577 107.999C118.17 107.049 123.486 106.121 125.772 105.636C128.058 105.152 127.86 98.4074 125.991 97.8105C124.123 97.2135 105.819 100.54 102.783 102.368C100.778 103.62 98.9185 105.104 97.2408 106.79Z" fill="#263238"/>
<path d="M103.111 52.5146C102.887 52.2673 102.752 51.9495 102.727 51.613C102.702 51.2765 102.789 50.9412 102.973 50.6618C103.539 49.7882 104.682 48.4014 105.779 49.4388C107.315 50.8948 104.693 53.5411 103.606 52.9004C103.424 52.7964 103.257 52.6665 103.111 52.5146Z" fill="#FFC3BD"/>
<path opacity="0.2" d="M94.5605 46.7485C94.5605 46.7485 92.4654 45.3143 93.3891 44.2806C93.7996 43.8219 95.0276 43.9166 96.6874 44.4043C97.7547 44.6998 98.8001 45.0733 99.8158 45.5218C101.274 46.1734 102.824 47.0069 104.201 47.6221C104.201 47.6221 94.5145 40.9572 91.8815 43.0648C89.7051 44.8084 94.2314 47.0688 94.3906 47.2217L94.4685 46.9268L94.5605 46.7485Z" fill="black"/>
<path d="M95.5512 46.1265C95.5512 46.1265 93.4278 46.4905 94.893 48.8419L95.5512 46.1265Z" fill="#263238"/>
<path d="M97.5896 44.6919C97.5896 44.6919 94.3869 43.5344 93.4951 44.1896C92.6033 44.8448 93.5375 46.0933 94.5568 46.7376L95.3742 46.8468L95.8555 45.3544L97.1012 45.1979L97.5896 44.6919Z" fill="#263238"/>
<path opacity="0.3" d="M101.952 42.912L101.184 44.0805L97.8469 42.5881C98.4099 42.2568 99.0221 42.0232 99.6589 41.8965L101.952 42.912Z" fill="white"/>
<path opacity="0.1" d="M101.208 56.8789C100.988 57.483 100.671 58.0452 100.271 58.5424C100.202 58.0875 100.1 57.6386 99.9663 57.1992C100.395 57.1684 100.816 57.06 101.208 56.8789Z" fill="black"/>
<path d="M69.4816 88.8887C69.34 91.4113 68.2784 93.4752 66.976 93.9848C66.7507 94.074 66.5093 94.1125 66.2682 94.0976C64.6616 94.003 63.4937 91.5241 63.6565 88.5648C63.8193 85.6055 65.2561 83.2832 66.8628 83.3778C67.5175 83.4142 68.0943 83.8474 68.5438 84.5426C69.2056 85.54 69.5771 87.1343 69.4816 88.8887Z" fill="#F5F5F5"/>
<path d="M69.48 88.889C69.3385 91.4115 68.2768 93.4754 66.9745 93.985C65.4881 93.8976 64.4088 91.6081 64.5609 88.889C64.7131 86.1699 66.0367 84.0114 67.523 84.0988C67.906 84.1282 68.2684 84.2883 68.5528 84.5538C69.204 85.5402 69.5756 87.1345 69.48 88.889Z" fill="white"/>
<path d="M126.835 124.645C124.099 122.668 113.515 120.728 113.515 120.728C107.084 120.728 101.44 126.679 100.661 134.582C100.024 141.01 102.784 146.845 107.233 149.506C107.233 149.506 107.604 149.666 108.227 149.917C110.584 150.875 116.565 153.193 120.1 153.703" fill="#263238"/>
<path opacity="0.3" d="M134.023 139.915C134.848 131.577 129.953 124.235 123.091 123.517C116.229 122.799 109.998 128.976 109.173 137.314C108.348 145.652 113.242 152.993 120.104 153.711C126.966 154.43 133.198 148.253 134.023 139.915Z" fill="black"/>
<path d="M79.0039 139.429C79.8288 131.091 74.9347 123.75 68.0727 123.032C61.2107 122.314 54.9793 128.491 54.1544 136.829C53.3296 145.167 58.2236 152.508 65.0856 153.226C71.9476 153.944 78.1791 147.767 79.0039 139.429Z" fill="#263238"/>
<path d="M74.2155 125.813L67.8879 153.139C66.9648 153.292 66.026 153.321 65.0957 153.222H65.0249C63.811 152.902 64.3525 153.248 63.1351 152.833C60.0385 151.781 55.5406 149.921 55.5406 149.921C50.7736 147.537 48.0805 141.738 48.7352 135.113C49.5279 127.087 55.1265 121.092 61.716 121.583C61.716 121.583 64.8444 122.177 68.0648 123.039C69.4804 123.403 70.896 123.837 72.0603 124.288C72.8312 124.713 73.554 125.224 74.2155 125.813Z" fill="#263238"/>
<path opacity="0.3" d="M79.0085 139.412C78.3007 146.601 73.5692 152.181 67.8821 153.124C66.959 153.278 66.0202 153.306 65.0899 153.208H65.0191C63.7234 153.064 62.4641 152.678 61.3032 152.068C56.5222 149.575 53.4964 143.518 54.1581 136.82C54.9827 128.488 61.2006 122.319 68.0591 123.025H68.0768C69.4693 123.169 70.8207 123.594 72.0545 124.273C72.8256 124.7 73.5484 125.212 74.2097 125.802C77.5965 128.831 79.5677 133.912 79.0085 139.412Z" fill="black"/>
<path d="M77.2833 129.839C77.0759 129.499 76.839 129.178 76.5755 128.882C74.9936 126.661 71.3769 125.831 69.0093 126.028C67.1944 126.21 65.4518 126.853 63.938 127.899C62.211 129.049 60.9759 130.811 59.2631 132.019C56.0144 134.327 51.0846 134.262 47.8217 131.885C47.6377 131.75 47.4627 131.603 47.298 131.444C46.9654 131.088 46.7437 130.638 46.661 130.152C46.5361 129.545 46.5815 128.914 46.7919 128.332C47.4997 126.286 49.8602 124.488 51.35 123.393C54.3706 121.201 57.9235 119.914 61.6129 119.676C72.1342 118.93 76.6216 128.172 77.2833 129.839Z" fill="#F9BE00"/>
<path opacity="0.3" d="M76.5543 130.13C74.293 126.774 71.391 125.831 69.0235 126.028C67.2085 126.21 65.466 126.853 63.9522 127.899C62.2252 129.049 60.9901 130.811 59.2773 132.019C56.0285 134.327 51.0988 134.262 47.8359 131.885C47.6519 131.75 47.4769 131.603 47.3121 131.444C46.9796 131.088 46.7578 130.638 46.6751 130.152C46.5503 129.545 46.5957 128.914 46.8061 128.332C47.8996 129.632 51.0846 132.762 55.3986 131.244C60.7778 129.333 62.0907 123.655 67.8415 123.706C72.4102 123.76 75.2237 127.4 76.5543 130.13Z" fill="black"/>
<g opacity="0.3">
<path opacity="0.3" d="M52.8892 122.392C54.4237 121.27 56.1502 120.456 57.9781 119.993C59.8078 119.514 61.7027 119.354 63.5838 119.52C65.4619 119.706 67.3011 120.187 69.0373 120.947L69.6814 121.238L70.3113 121.562C70.736 121.766 71.1359 122.02 71.5464 122.253C71.9569 122.486 72.3356 122.774 72.7284 123.032C73.1212 123.291 73.4893 123.593 73.8644 123.88C72.321 122.817 70.6735 121.923 68.9488 121.212C67.2275 120.502 65.4138 120.057 63.5661 119.891C61.7223 119.71 59.8621 119.833 58.056 120.255C57.1493 120.462 56.2604 120.744 55.3983 121.099C54.5233 121.446 53.683 121.879 52.8892 122.392Z" fill="black"/>
</g>
<g opacity="0.3">
<path opacity="0.3" d="M64.346 119.789C63.9047 118.271 63.6398 116.705 63.5568 115.122C63.44 113.546 63.4152 111.963 63.4471 110.39C63.4789 108.818 63.5851 107.231 63.7266 105.658L63.985 103.307C64.0982 102.524 64.1973 101.742 64.3389 100.963L64.0168 105.695L63.8894 108.054C63.8682 108.84 63.8222 109.626 63.8186 110.412C63.7585 111.985 63.7868 113.557 63.8434 115.144C63.8682 115.931 63.9284 116.713 64.0062 117.496C64.0684 118.267 64.1819 119.033 64.346 119.789Z" fill="black"/>
</g>
<path opacity="0.3" d="M85.1197 132.86C77.7304 127.972 77.4367 115.359 77.6879 107.038C77.7339 105.608 77.7906 104.308 77.833 103.191C77.9106 102.072 77.9106 100.949 77.833 99.831C77.0863 94.1162 72.8396 93.4282 72.8396 93.4282H72.8573C77.5605 94.3164 78.6859 98.1202 78.4134 102.39C78.4134 102.39 78.4134 102.419 78.4134 102.477C78.4134 102.535 78.4134 102.568 78.4134 102.634V102.67C78.2542 105.418 77.2703 127.473 85.1197 132.86Z" fill="black"/>
<path opacity="0.2" d="M84.5172 89.7844C83.8978 90.4505 75.8892 88.7433 74.4914 89.5077C73.9004 89.828 73.642 90.9637 73.0475 92.2086C71.3771 94.9386 69.0273 95.3681 68.8822 95.39C71.685 93.206 72.4671 87.9498 71.0763 84.6265C69.6855 81.3032 64.7062 82.1658 64.4231 82.2641C65.2722 81.8802 66.1855 81.6688 67.1127 81.6417C69.8058 81.4961 73.0899 82.275 74.0101 84.0295C75.8786 87.6076 83.8908 86.8032 84.6269 87.7423C85.363 88.6814 85.1365 89.1182 84.5172 89.7844Z" fill="black"/>
<path d="M78.2514 86.6064C77.7646 87.5306 77.5704 88.5881 77.6958 89.6313L84.48 90.4175C84.8268 90.0047 85.0831 89.5198 85.2315 88.996C85.3799 88.4722 85.4169 87.9216 85.3399 87.3818C85.3399 87.3818 78.6195 86.6865 78.2514 86.6064Z" fill="#263238"/>
<path d="M57.6529 86.348C57.6529 86.348 56.977 84.8702 57.7874 83.9347C55.9755 83.7673 54.8537 83.5707 53.6858 83.396C53.5124 83.9384 53.4275 84.4589 54.0397 85.2852C54.6519 86.1114 57.6529 86.348 57.6529 86.348Z" fill="#263238"/>
<path d="M53.8815 95.5977C52.7066 97.5669 51.7015 100.719 51.613 105.753" stroke="#28BB46" stroke-linecap="round" stroke-linejoin="round"/>
<path d="M57.7523 92.3506C56.8976 92.5545 56.1117 92.9907 55.4768 93.6137" stroke="#28BB46" stroke-linecap="round" stroke-linejoin="round"/>
<path d="M110.522 73.3755L106.056 73.936C106.056 73.936 105.277 82.3772 104.555 84.0188C104.555 84.0188 90.8206 85.9626 85.1901 85.7915L82.3342 87.7862L82.2351 91.2588L85.0344 91.3425L85.9368 89.1585C85.9368 89.1585 87.8266 89.0748 88.2619 87.9792C88.2619 87.9792 102.856 91.6192 108.232 87.4696C108.229 87.455 111.474 82.5592 110.522 73.3755Z" fill="#FFC3BD"/>
<path opacity="0.2" d="M74.163 138.32C74.0356 142.899 71.1195 146.525 67.6478 146.423C67.1812 146.409 66.7189 146.326 66.2747 146.179C63.4931 145.269 61.49 141.895 61.5998 137.945C61.7095 134.123 63.7585 130.964 66.4516 130.087C66.9898 129.909 67.5534 129.826 68.1185 129.843C71.5902 129.948 74.2939 133.756 74.163 138.32Z" fill="#FAFAFA"/>
<path d="M70.9673 138.32C70.8576 142.23 68.8439 145.444 66.2747 146.19C63.4931 145.28 61.49 141.906 61.5998 137.956C61.7095 134.134 63.7585 130.975 66.4516 130.097C69.1271 130.844 71.077 134.272 70.9673 138.32Z" fill="#263238"/>
<path opacity="0.2" d="M128.685 138.684C128.554 143.263 125.638 146.892 122.17 146.787C121.703 146.774 121.241 146.692 120.797 146.543C118.012 145.633 116.009 142.262 116.122 138.309C116.228 134.491 118.277 131.328 120.97 130.451C121.508 130.273 122.072 130.19 122.637 130.207C126.109 130.312 128.813 134.112 128.685 138.684Z" fill="#FAFAFA"/>
<path d="M125.49 138.684C125.376 142.59 123.366 145.804 120.797 146.55C118.012 145.64 116.009 142.27 116.122 138.317C116.228 134.498 118.277 131.335 120.97 130.458C123.649 131.204 125.603 134.633 125.49 138.684Z" fill="#263238"/>
<path d="M134.156 126.621C134.216 131.124 127.552 134.105 116.401 135.983C113.395 136.527 110.323 136.564 107.306 136.093C102.351 135.252 99.9307 133.097 99.9307 133.097C99.9307 133.097 101.191 117.536 113.658 115.563C122.152 114.223 128.543 117.747 131.785 121.544C133.31 123.327 134.138 125.18 134.156 126.621Z" fill="#F9BE00"/>
<path opacity="0.3" d="M134.157 126.621C134.217 131.124 127.553 134.105 116.402 135.983C113.396 136.527 110.324 136.564 107.307 136.093C107.841 131.867 110.24 120.783 120.67 119.632C125.401 119.108 129.053 120.091 131.785 121.543C133.311 123.327 134.139 125.18 134.157 126.621Z" fill="black"/>
<g opacity="0.3">
<path opacity="0.3" d="M100.656 133.166C100.885 131.048 101.376 128.968 102.117 126.978C102.846 124.967 103.852 123.074 105.104 121.358C105.737 120.505 106.448 119.716 107.228 119.003C108 118.278 108.851 117.648 109.765 117.124C111.583 116.07 113.597 115.424 115.675 115.228C114.657 115.404 113.655 115.669 112.681 116.022C112.189 116.174 111.726 116.411 111.265 116.611C110.804 116.839 110.354 117.09 109.917 117.365C109.471 117.627 109.061 117.943 108.64 118.238C108.218 118.533 107.829 118.883 107.458 119.25C106.702 119.957 106.013 120.735 105.401 121.576C104.158 123.26 103.145 125.11 102.39 127.076C101.998 128.056 101.66 129.057 101.378 130.076C101.077 131.09 100.836 132.122 100.656 133.166Z" fill="black"/>
</g>
<path d="M83.9224 128.026L84.6585 130.596L92.3769 129.933L92.4795 126.341L83.9224 128.026Z" fill="#2E2C2C"/>
<path d="M129.642 110.5L147.111 109.79" stroke="#28BB46" stroke-linecap="round" stroke-linejoin="round"/>
<path d="M152.884 106.608L155.479 106.503" stroke="#28BB46" stroke-linecap="round" stroke-linejoin="round"/>
<path d="M138.014 107.213L150.893 106.688" stroke="#28BB46" stroke-linecap="round" stroke-linejoin="round"/>
<path d="M147.027 116.254L157.819 115.818" stroke="#28BB46" stroke-linecap="round" stroke-linejoin="round"/>
<path d="M140.355 116.527L145.058 116.334" stroke="#28BB46" stroke-linecap="round" stroke-linejoin="round"/>
</svg>
