<svg width="647" height="500" viewBox="0 0 647 500" fill="none" xmlns="http://www.w3.org/2000/svg">
<rect x="-288" y="66" width="935" height="345" rx="172.5" fill="#D8E7FF"/>
<path d="M137.659 417.785H104.539V418.057H137.659V417.785Z" fill="#EBEBEB"/>
<path d="M211.891 427.729H171.141V428H211.891V427.729Z" fill="#EBEBEB"/>
<path d="M103.541 424.331H52.4609V424.602H103.541V424.331Z" fill="#EBEBEB"/>
<path d="M449.9 419.609H356.76V419.881H449.9V419.609Z" fill="#EBEBEB"/>
<path d="M347.859 419.609H341.529V419.881H347.859V419.609Z" fill="#EBEBEB"/>
<path d="M319.441 424.19H277.211V424.461H319.441V424.19Z" fill="#EBEBEB"/>
<path d="M237.001 361.98H43.9109C42.3983 361.977 40.9485 361.323 39.8798 360.161C38.8112 358.998 38.2109 357.424 38.2109 355.782V61.1439C38.2241 59.5114 38.8301 57.9504 39.8974 56.8C40.9646 55.6496 42.4069 55.0028 43.9109 55H237.001C238.515 55 239.968 55.653 241.039 56.8154C242.109 57.9778 242.711 59.5543 242.711 61.1982V355.782C242.711 357.425 242.109 359.002 241.039 360.164C239.968 361.327 238.515 361.98 237.001 361.98ZM43.9109 55.2171C42.4646 55.22 41.0784 55.8457 40.0566 56.9569C39.0348 58.068 38.4609 59.5739 38.4609 61.1439V355.782C38.4609 357.352 39.0348 358.857 40.0566 359.969C41.0784 361.08 42.4646 361.706 43.9109 361.708H237.001C238.447 361.703 239.833 361.076 240.856 359.966C241.879 358.856 242.456 357.352 242.461 355.782V61.1439C242.456 59.5738 241.879 58.0696 240.856 56.9594C239.833 55.8491 238.447 55.2228 237.001 55.2171H43.9109Z" fill="#EBEBEB"/>
<path d="M453.31 361.98H260.21C258.697 361.974 257.248 361.319 256.178 360.158C255.109 358.997 254.505 357.424 254.5 355.782V61.1439C254.516 59.5104 255.124 57.9494 256.193 56.7993C257.262 55.6492 258.705 55.0028 260.21 55H453.31C454.812 55.0056 456.252 55.6537 457.317 56.8038C458.382 57.9539 458.987 59.5132 459 61.1439V355.782C459.001 356.594 458.855 357.399 458.57 358.15C458.285 358.901 457.866 359.584 457.338 360.16C456.809 360.735 456.182 361.192 455.491 361.505C454.799 361.817 454.059 361.978 453.31 361.98ZM260.21 55.2171C258.764 55.2228 257.378 55.8491 256.355 56.9594C255.332 58.0696 254.755 59.5738 254.75 61.1439V355.782C254.755 357.352 255.332 358.856 256.355 359.966C257.378 361.076 258.764 361.703 260.21 361.708H453.31C454.756 361.703 456.142 361.076 457.165 359.966C458.188 358.856 458.765 357.352 458.77 355.782V61.1439C458.765 59.5738 458.188 58.0696 457.165 56.9594C456.142 55.8491 454.756 55.2228 453.31 55.2171H260.21Z" fill="#EBEBEB"/>
<path d="M70.6699 181.027H157.43C157.43 181.027 152.76 169.238 137.16 172.907C137.16 172.907 133.88 159.501 121.98 161.358C121.98 161.358 112.13 149.764 97.7599 154.258C83.3899 158.752 84.6299 172.907 84.6299 172.907C84.6299 172.907 73.9999 169.89 70.6699 181.027Z" fill="#FAFAFA"/>
<path d="M302.891 109.21H216.141C216.141 109.21 220.801 97.4108 236.401 101.08C236.401 101.08 239.681 87.6738 251.591 89.53C251.591 89.53 261.441 77.9477 275.801 82.4417C290.161 86.9357 288.941 101.08 288.941 101.08C288.941 101.08 299.611 98.0729 302.891 109.21Z" fill="#FAFAFA"/>
<path d="M366.869 106.138H433.239C433.239 106.138 430.699 96.2489 421.099 99.5054C421.099 99.5054 423.099 86.1972 416.019 84.6557C408.939 83.1143 406.689 93.2421 406.689 93.2421C405.069 91.2489 402.968 89.7864 400.624 89.0193C398.279 88.2521 395.784 88.2109 393.419 88.9001C391.094 89.5574 388.974 90.8833 387.285 92.7383C385.595 94.5933 384.398 96.9086 383.819 99.4403C383.819 99.4403 371.999 92.0914 366.869 106.138Z" fill="#FAFAFA"/>
<path d="M126.701 236.463H45.9609V410.111H126.701V236.463Z" fill="#E6E6E6"/>
<path d="M112.021 236.463H45.9609V410.111H112.021V236.463Z" fill="#F0F0F0"/>
<path d="M127.651 236.463H44.2207V239.297H127.651V236.463Z" fill="#E0E0E0"/>
<path d="M127.651 230.797H44.2207V233.63H127.651V230.797Z" fill="#E0E0E0"/>
<path d="M125.901 233.63H45.9609V236.464H125.901V233.63Z" fill="#F0F0F0"/>
<path d="M64.6405 246.678H52.2305V260.355H64.6405V246.678Z" fill="#E6E6E6"/>
<path d="M64.6303 246.678H53.3203V260.355H64.6303V246.678Z" fill="#F5F5F5"/>
<path d="M83.4295 246.678H71.0195V260.355H83.4295V246.678Z" fill="#E6E6E6"/>
<path d="M83.4194 246.678H72.1094V260.355H83.4194V246.678Z" fill="#F5F5F5"/>
<path d="M102.221 246.678H89.8105V260.355H102.221V246.678Z" fill="#E6E6E6"/>
<path d="M102.21 246.678H90.9004V260.355H102.21V246.678Z" fill="#F5F5F5"/>
<path d="M64.6405 266.814H52.2305V280.491H64.6405V266.814Z" fill="#E6E6E6"/>
<path d="M64.6303 266.814H53.3203V280.491H64.6303V266.814Z" fill="#F5F5F5"/>
<path d="M83.4295 266.814H71.0195V280.491H83.4295V266.814Z" fill="#E6E6E6"/>
<path d="M83.4194 266.814H72.1094V280.491H83.4194V266.814Z" fill="#F5F5F5"/>
<path d="M102.221 266.814H89.8105V280.491H102.221V266.814Z" fill="#E6E6E6"/>
<path d="M102.21 266.814H90.9004V280.491H102.21V266.814Z" fill="#F5F5F5"/>
<path d="M64.6405 303.688H52.2305V317.366H64.6405V303.688Z" fill="#E6E6E6"/>
<path d="M64.6303 303.688H53.3203V317.366H64.6303V303.688Z" fill="#F5F5F5"/>
<path d="M83.4295 303.688H71.0195V317.366H83.4295V303.688Z" fill="#E6E6E6"/>
<path d="M83.4194 303.688H72.1094V317.366H83.4194V303.688Z" fill="#F5F5F5"/>
<path d="M102.221 303.688H89.8105V317.366H102.221V303.688Z" fill="#E6E6E6"/>
<path d="M102.21 303.688H90.9004V317.366H102.21V303.688Z" fill="#F5F5F5"/>
<path d="M64.6405 323.824H52.2305V337.502H64.6405V323.824Z" fill="#E6E6E6"/>
<path d="M64.6303 323.824H53.3203V337.502H64.6303V323.824Z" fill="#F5F5F5"/>
<path d="M83.4295 323.824H71.0195V337.502H83.4295V323.824Z" fill="#E6E6E6"/>
<path d="M83.4194 323.824H72.1094V337.502H83.4194V323.824Z" fill="#F5F5F5"/>
<path d="M102.221 323.824H89.8105V337.502H102.221V323.824Z" fill="#E6E6E6"/>
<path d="M102.21 323.824H90.9004V337.502H102.21V323.824Z" fill="#F5F5F5"/>
<path d="M64.6405 364.802H52.2305V378.479H64.6405V364.802Z" fill="#E6E6E6"/>
<path d="M64.6303 364.802H53.3203V378.479H64.6303V364.802Z" fill="#F5F5F5"/>
<path d="M83.4295 364.802H71.0195V378.479H83.4295V364.802Z" fill="#E6E6E6"/>
<path d="M83.4194 364.802H72.1094V378.479H83.4194V364.802Z" fill="#F5F5F5"/>
<path d="M102.221 364.802H89.8105V378.479H102.221V364.802Z" fill="#E6E6E6"/>
<path d="M102.21 364.802H90.9004V378.479H102.21V364.802Z" fill="#F5F5F5"/>
<path d="M64.6405 384.938H52.2305V398.615H64.6405V384.938Z" fill="#E6E6E6"/>
<path d="M64.6303 384.938H53.3203V398.615H64.6303V384.938Z" fill="#F5F5F5"/>
<path d="M83.4295 384.938H71.0195V398.615H83.4295V384.938Z" fill="#E6E6E6"/>
<path d="M83.4194 384.938H72.1094V398.615H83.4194V384.938Z" fill="#F5F5F5"/>
<path d="M102.221 384.938H89.8105V398.615H102.221V384.938Z" fill="#E6E6E6"/>
<path d="M102.21 384.938H90.9004V398.615H102.21V384.938Z" fill="#F5F5F5"/>
<path d="M126.701 290.109H45.9609V291.379H126.701V290.109Z" fill="#E0E0E0"/>
<path d="M126.701 353.133H45.9609V354.403H126.701V353.133Z" fill="#E0E0E0"/>
<path d="M444 201H364V410H444V201Z" fill="#E0E0E0"/>
<path d="M421.48 200.631H364.43V411.338H421.48V200.631Z" fill="#F0F0F0"/>
<path d="M391.541 217.945H370.311V229.136H391.541V217.945Z" fill="#E6E6E6"/>
<path d="M391.541 217.945H371.721V229.136H391.541V217.945Z" fill="#F5F5F5"/>
<path d="M416.099 217.945H394.869V229.136H416.099V217.945Z" fill="#E6E6E6"/>
<path d="M416.099 217.945H396.279V229.136H416.099V217.945Z" fill="#F5F5F5"/>
<path d="M391.541 239.003H370.311V250.195H391.541V239.003Z" fill="#E6E6E6"/>
<path d="M391.541 239.003H371.721V250.195H391.541V239.003Z" fill="#F5F5F5"/>
<path d="M416.099 239.003H394.869V250.195H416.099V239.003Z" fill="#E6E6E6"/>
<path d="M416.099 239.003H396.279V250.195H416.099V239.003Z" fill="#F5F5F5"/>
<path d="M391.541 265.913H370.311V277.105H391.541V265.913Z" fill="#E6E6E6"/>
<path d="M391.541 265.913H371.721V277.105H391.541V265.913Z" fill="#F5F5F5"/>
<path d="M416.099 265.913H394.869V277.105H416.099V265.913Z" fill="#E6E6E6"/>
<path d="M416.099 265.913H396.279V277.105H416.099V265.913Z" fill="#F5F5F5"/>
<path d="M391.541 281.381H370.311V292.573H391.541V281.381Z" fill="#E6E6E6"/>
<path d="M391.541 281.381H371.721V292.573H391.541V281.381Z" fill="#F5F5F5"/>
<path d="M416.099 281.381H394.869V292.573H416.099V281.381Z" fill="#E6E6E6"/>
<path d="M416.099 281.381H396.279V292.573H416.099V281.381Z" fill="#F5F5F5"/>
<path d="M391.541 306.793H370.311V317.984H391.541V306.793Z" fill="#E6E6E6"/>
<path d="M391.541 306.793H371.721V317.984H391.541V306.793Z" fill="#F5F5F5"/>
<path d="M416.099 306.793H394.869V317.984H416.099V306.793Z" fill="#E6E6E6"/>
<path d="M416.099 306.793H396.279V317.984H416.099V306.793Z" fill="#F5F5F5"/>
<path d="M391.541 322.25H370.311V333.442H391.541V322.25Z" fill="#E6E6E6"/>
<path d="M391.541 322.25H371.721V333.442H391.541V322.25Z" fill="#F5F5F5"/>
<path d="M416.099 322.25H394.869V333.442H416.099V322.25Z" fill="#E6E6E6"/>
<path d="M416.099 322.25H396.279V333.442H416.099V322.25Z" fill="#F5F5F5"/>
<path d="M391.541 349.909H370.311V361.1H391.541V349.909Z" fill="#E6E6E6"/>
<path d="M391.541 349.909H371.721V361.1H391.541V349.909Z" fill="#F5F5F5"/>
<path d="M416.099 349.909H394.869V361.1H416.099V349.909Z" fill="#E6E6E6"/>
<path d="M416.099 349.909H396.279V361.1H416.099V349.909Z" fill="#F5F5F5"/>
<path d="M391.541 370.327H370.311V381.519H391.541V370.327Z" fill="#E6E6E6"/>
<path d="M391.541 370.327H371.721V381.519H391.541V370.327Z" fill="#F5F5F5"/>
<path d="M416.099 370.327H394.869V381.519H416.099V370.327Z" fill="#E6E6E6"/>
<path d="M416.099 370.327H396.279V381.519H416.099V370.327Z" fill="#F5F5F5"/>
<path opacity="0.05" d="M444.2 257.088H364.43V259.009H444.2V257.088Z" fill="black"/>
<path opacity="0.05" d="M444.2 298.717H364.43V300.638H444.2V298.717Z" fill="black"/>
<path opacity="0.05" d="M444.2 340.715H364.43V342.636H444.2V340.715Z" fill="black"/>
<path d="M444.2 194.4H360.67V201.13H444.2V194.4Z" fill="#E0E0E0"/>
<path opacity="0.05" d="M444.199 194.4H425.109V201.13H444.199V194.4Z" fill="black"/>
<path d="M251 153H161V411H251V153Z" fill="#E6E6E6"/>
<path d="M217 153H127V411H217V153Z" fill="#F0F0F0"/>
<path d="M209.581 170.595H135.131V183.556H209.581V170.595Z" fill="#E6E6E6"/>
<path d="M209.58 170.595H138.02V183.556H209.58V170.595Z" fill="#F5F5F5"/>
<path d="M209.581 192.414H135.131V205.374H209.581V192.414Z" fill="#E6E6E6"/>
<path d="M209.58 192.414H138.02V205.374H209.58V192.414Z" fill="#F5F5F5"/>
<path d="M209.581 215.079H135.131V228.04H209.581V215.079Z" fill="#E6E6E6"/>
<path d="M209.58 215.079H138.02V228.04H209.58V215.079Z" fill="#F5F5F5"/>
<path d="M209.581 237.755H135.131V250.716H209.581V237.755Z" fill="#E6E6E6"/>
<path d="M209.58 237.755H138.02V250.716H209.58V237.755Z" fill="#F5F5F5"/>
<path d="M209.581 260.42H135.131V273.381H209.581V260.42Z" fill="#E6E6E6"/>
<path d="M209.58 260.42H138.02V273.381H209.58V260.42Z" fill="#F5F5F5"/>
<path d="M209.581 283.096H135.131V296.057H209.581V283.096Z" fill="#E6E6E6"/>
<path d="M209.58 283.096H138.02V296.057H209.58V283.096Z" fill="#F5F5F5"/>
<path d="M209.581 308.084H135.131V321.045H209.581V308.084Z" fill="#E6E6E6"/>
<path d="M209.58 308.084H138.02V321.045H209.58V308.084Z" fill="#F5F5F5"/>
<path d="M209.581 333.062H135.131V346.023H209.581V333.062Z" fill="#E6E6E6"/>
<path d="M209.58 333.062H138.02V346.023H209.58V333.062Z" fill="#F5F5F5"/>
<path d="M209.581 358.05H135.131V371.011H209.581V358.05Z" fill="#E6E6E6"/>
<path d="M209.58 358.05H138.02V371.011H209.58V358.05Z" fill="#F5F5F5"/>
<path d="M209.581 383.039H135.131V395.999H209.581V383.039Z" fill="#E6E6E6"/>
<path d="M209.58 383.039H138.02V395.999H209.58V383.039Z" fill="#F5F5F5"/>
<path d="M253.171 150.763H124.711V156.972H253.171V150.763Z" fill="#F5F5F5"/>
<path d="M253.171 139.561H124.711V145.77H253.171V139.561Z" fill="#F5F5F5"/>
<path d="M248.9 144.554H127.26V150.763H248.9V144.554Z" fill="#F0F0F0"/>
<path d="M250.829 170.595H225.699V183.556H250.829V170.595Z" fill="#E0E0E0"/>
<path d="M250.829 191.925H225.699V204.886H250.829V191.925Z" fill="#E0E0E0"/>
<path d="M250.829 213.255H225.699V226.216H250.829V213.255Z" fill="#E0E0E0"/>
<path d="M250.829 237.744H225.699V250.705H250.829V237.744Z" fill="#E0E0E0"/>
<path d="M250.829 260.42H225.699V273.381H250.829V260.42Z" fill="#E0E0E0"/>
<path d="M250.829 283.096H225.699V296.057H250.829V283.096Z" fill="#E0E0E0"/>
<path d="M250.829 308.074H225.699V321.035H250.829V308.074Z" fill="#E0E0E0"/>
<path d="M250.829 333.062H225.699V346.023H250.829V333.062Z" fill="#E0E0E0"/>
<path d="M250.829 358.05H225.699V371.011H250.829V358.05Z" fill="#E0E0E0"/>
<path d="M250.829 383.039H225.699V395.999H250.829V383.039Z" fill="#E0E0E0"/>
<path d="M366.75 242.238H356.83V259.085H366.75V242.238Z" fill="#E0E0E0"/>
<path d="M366.75 269.81H356.83V286.657H366.75V269.81Z" fill="#E0E0E0"/>
<path d="M366.75 296.611H356.83V313.458H366.75V296.611Z" fill="#E0E0E0"/>
<path d="M366.75 324.942H356.83V341.789H366.75V324.942Z" fill="#E0E0E0"/>
<path d="M366.75 352.514H356.83V369.361H366.75V352.514Z" fill="#E0E0E0"/>
<path d="M366.749 225.304H262.359V397.638H366.749V225.304Z" fill="#E6E6E6"/>
<path d="M349 225H262V410H349V225Z" fill="#F0F0F0"/>
<path d="M340.71 242.249H270.17V259.096H340.71V242.249Z" fill="#EBEBEB"/>
<path d="M340.71 269.81H270.17V286.657H340.71V269.81Z" fill="#EBEBEB"/>
<path d="M340.71 297.382H270.17V314.229H340.71V297.382Z" fill="#EBEBEB"/>
<path d="M340.71 324.942H270.17V341.789H340.71V324.942Z" fill="#EBEBEB"/>
<path d="M340.71 352.514H270.17V369.361H340.71V352.514Z" fill="#EBEBEB"/>
<path d="M340.71 242.249H272.77V259.096H340.71V242.249Z" fill="#F5F5F5"/>
<path d="M340.71 269.81H272.77V286.657H340.71V269.81Z" fill="#F5F5F5"/>
<path d="M340.71 297.382H272.77V314.229H340.71V297.382Z" fill="#F5F5F5"/>
<path d="M340.71 324.942H272.77V341.789H340.71V324.942Z" fill="#F5F5F5"/>
<path d="M340.71 352.514H272.77V369.361H340.71V352.514Z" fill="#F5F5F5"/>
<path d="M377.798 176.871L265.618 178.784L266.961 262.083L379.141 260.169L377.798 176.871Z" fill="#28BB46"/>
<path opacity="0.3" d="M333.337 177.619L265.513 178.776L266.856 262.074L334.68 260.918L333.337 177.619Z" fill="white"/>
<path opacity="0.3" d="M343.55 183.232L324.018 183.634L324.126 189.234L343.659 188.832L343.55 183.232Z" fill="white"/>
<path opacity="0.3" d="M344.135 248.006L324.605 248.339L324.695 253.939L344.225 253.606L344.135 248.006Z" fill="white"/>
<path d="M357.14 230.19C363.471 230.19 368.603 224.217 368.603 216.85C368.603 209.482 363.471 203.51 357.14 203.51C350.81 203.51 345.678 209.482 345.678 216.85C345.678 224.217 350.81 230.19 357.14 230.19Z" stroke="white" stroke-miterlimit="10"/>
<path d="M357.637 205.54V207.78" stroke="white" stroke-linecap="round" stroke-linejoin="round"/>
<path d="M358.126 226.06V228.3" stroke="white" stroke-linecap="round" stroke-linejoin="round"/>
<path d="M347.492 216.41H349.68" stroke="white" stroke-linecap="round" stroke-linejoin="round"/>
<path d="M365.053 216.42H367.24" stroke="white" stroke-linecap="round" stroke-linejoin="round"/>
<path d="M357.617 216.41L357.63 209.51" stroke="white" stroke-width="0.5" stroke-linecap="round" stroke-linejoin="round"/>
<path d="M358.048 216.86L362.793 221.74" stroke="white" stroke-width="0.5" stroke-linecap="round" stroke-linejoin="round"/>
<path d="M358.666 216.42C358.666 216.636 358.604 216.846 358.488 217.026C358.371 217.205 358.206 217.345 358.012 217.427C357.819 217.51 357.605 217.531 357.4 217.489C357.194 217.447 357.005 217.343 356.857 217.191C356.709 217.038 356.608 216.844 356.567 216.633C356.526 216.421 356.547 216.202 356.628 216.003C356.708 215.804 356.844 215.634 357.018 215.514C357.192 215.394 357.397 215.33 357.607 215.33C357.746 215.329 357.885 215.356 358.014 215.41C358.143 215.465 358.26 215.545 358.359 215.646C358.458 215.748 358.536 215.869 358.588 216.001C358.641 216.134 358.668 216.277 358.666 216.42Z" fill="white"/>
<path opacity="0.3" d="M357.146 233.72C365.528 233.72 372.323 226.167 372.323 216.85C372.323 207.533 365.528 199.98 357.146 199.98C348.764 199.98 341.97 207.533 341.97 216.85C341.97 226.167 348.764 233.72 357.146 233.72Z" fill="white"/>
<path d="M231.11 363.15C232.802 364.48 266.762 360.72 257.983 298.75C257.983 298.75 274.093 302.96 275.823 302.68C275.823 302.68 299.458 339.95 282.25 358.41C265.041 376.87 239.394 378 239.394 378L231.11 363.15Z" fill="#F9BE00"/>
<path opacity="0.3" d="M231.11 363.15C232.802 364.48 266.762 360.72 257.983 298.75C257.983 298.75 274.093 302.96 275.823 302.68C275.823 302.68 299.458 339.95 282.25 358.41C265.041 376.87 239.394 378 239.394 378L231.11 363.15Z" fill="#2E2C2C"/>
<path d="M268.738 308.34C268.825 308.34 259.249 308.53 256.04 304.43C252.832 300.33 250.664 293 256.497 288C262.331 283 296.583 261.4 312.712 259.7C328.841 258 346.108 268.7 346.108 268.7L324.991 284.76L279.52 296.08L268.738 308.34Z" fill="#263238"/>
<path d="M237.775 353.39L238.66 362.35L249.121 361.44L247.546 352.23L237.775 353.39Z" fill="#FFC3BD"/>
<path d="M235.748 361.7L250.924 361.48L252.004 369.36C252.004 369.36 237.79 369.56 231.946 368.76C226.103 367.96 227.017 364.83 227.017 364.83C227.017 364.83 233.862 365 235.748 361.7Z" fill="#263238"/>
<path d="M368.194 384.38C370.46 361.474 357.014 341.305 338.163 339.332C319.311 337.359 302.192 354.329 299.926 377.235C297.66 400.142 311.105 420.311 329.957 422.284C348.808 424.257 365.928 407.287 368.194 384.38Z" fill="#263238"/>
<path d="M310.201 253.29C310.201 253.29 311.776 290.46 290.756 291.52C269.737 292.58 247.152 290.21 247.152 290.21L253.773 357L234.065 358.25C234.065 358.25 219.919 301.59 217.693 287.35C215.467 273.11 217.401 263.04 232.014 256.72C246.627 250.4 310.201 253.29 310.201 253.29Z" fill="#585757"/>
<path d="M192.588 371.22L218.771 293L253.771 253.26C253.771 253.26 223.224 253.38 208.543 262.06C193.862 270.74 193.318 281.17 190.624 293.58C187.931 305.99 177.13 364.73 177.13 364.73L192.588 371.22Z" fill="#585757"/>
<path opacity="0.7" d="M310.219 253.29C310.219 253.29 277.688 251.8 253.829 253.29C253.829 253.29 223.282 253.41 208.601 262.09C193.92 270.77 193.318 281.17 190.624 293.58C187.931 305.99 177.13 364.73 177.13 364.73L192.588 371.22L218.771 293C223.175 314.68 234.083 358.21 234.083 358.21L253.791 357L247.16 290.25C247.16 290.25 269.735 292.62 290.765 291.56C311.794 290.5 310.219 253.29 310.219 253.29Z" fill="#2E2C2C"/>
<path d="M256.504 193L244.419 194.51C244.419 194.51 242.319 217.36 240.365 221.8C240.365 221.8 203.196 227.05 187.971 226.6L180.242 232L179.97 241.39L187.543 241.62L189.984 235.67C189.984 235.67 195.098 235.44 196.284 232.48C196.284 232.48 235.776 242.29 250.321 231.09C250.34 231.1 259.11 217.85 256.504 193Z" fill="#FFC3BD"/>
<path d="M291.126 131.81C291.126 131.81 294.908 136.81 293.469 141.14C293.072 142.375 292.372 143.484 291.437 144.359C290.502 145.235 289.364 145.848 288.131 146.14C288.131 146.14 287.422 153.07 283.445 153.27C279.469 153.47 280.801 138 280.801 138L291.126 131.81Z" fill="#263238"/>
<path d="M260.51 253.46L257.855 208.79L241.386 197.53C241.386 197.53 246.772 178 257.078 174.69C267.383 171.38 289.861 163.79 303.492 167.56C317.123 171.33 315.557 187.87 313.214 200.14L310.589 200.78C310.589 200.78 310.181 249.13 310.162 253.29L260.51 253.46Z" fill="#28BB46"/>
<path d="M290.162 170.32C284.766 175.69 273.76 178.89 270.717 176.22C267.674 173.55 271.514 171.1 274.373 168.08C275.918 166.42 275.87 163.31 275.51 160.83C275.321 159.58 275.041 158.347 274.674 157.14C264.572 156.57 260.382 151.71 259.964 143.14C259.546 134.57 263.318 124.62 263.318 124.62L270.454 118.36C270.454 118.36 280.177 119.86 287.955 125.36C292.582 128.6 291.212 134.98 289.296 139.69C288.485 141.695 287.509 143.625 286.38 145.46C285.291 157.19 290.162 170.32 290.162 170.32Z" fill="#FFC3BD"/>
<path d="M265.572 145.5C265.572 145.5 269.461 145.69 271.162 143.21" stroke="#263238" stroke-linecap="round" stroke-linejoin="round"/>
<path d="M271.771 135.38C271.771 136.14 271.324 136.74 270.799 136.73C270.274 136.72 269.894 136.09 269.914 135.33C269.933 134.57 270.361 133.97 270.886 133.98C271.411 133.99 271.8 134.62 271.771 135.38Z" fill="#263238"/>
<path d="M262.893 135.62C262.893 136.38 262.446 136.98 261.921 136.97C261.396 136.96 261.016 136.33 261.036 135.57C261.055 134.81 261.483 134.21 262.008 134.22C262.533 134.23 262.922 134.87 262.893 135.62Z" fill="#263238"/>
<path d="M265.98 141.83L265.581 135.7L262.732 141.52C263.177 141.909 263.727 142.147 264.308 142.203C264.889 142.258 265.473 142.128 265.98 141.83Z" fill="#ED847E"/>
<path d="M271.297 130.58C272.043 130.369 272.837 130.438 273.538 130.773C274.24 131.108 274.803 131.688 275.127 132.41" stroke="#263238" stroke-linecap="round" stroke-linejoin="round"/>
<path d="M260.167 131.71C260.167 131.71 261.956 129.71 264.056 130.22" stroke="#263238" stroke-linecap="round" stroke-linejoin="round"/>
<path d="M289.353 139.69C278.231 140.1 276.85 127.13 276.85 127.13C271.347 130.13 263.346 124.63 263.346 124.63L270.482 118.35C270.482 118.35 280.204 119.87 287.982 125.35C292.639 128.6 291.268 135 289.353 139.69Z" fill="#263238"/>
<path d="M259.769 128.43C259.769 128.43 254.013 124.49 256.551 121.65C259.088 118.81 274.634 124.21 286.253 130.83C286.253 130.83 259.643 112.52 252.409 118.31C246.43 123.1 259.691 129.75 259.293 129.74L259.769 128.43Z" fill="#28BB46"/>
<path d="M292.226 127.09C292.21 129.164 291.828 131.217 291.099 133.15L264.965 120.15C266.048 118.864 267.345 117.787 268.795 116.97C270.342 116.06 272.024 115.418 273.773 115.07C275.628 114.705 277.527 114.638 279.403 114.87C288.96 116 292.275 123.56 292.226 127.09Z" fill="#28BB46"/>
<path d="M176.489 259.47C176.489 259.47 146.972 301.47 171.278 366.12" stroke="#263238" stroke-linecap="round" stroke-linejoin="round"/>
<path d="M215.456 281.29C215.456 281.29 215.456 281.37 215.456 281.53C215.456 281.69 215.456 281.78 215.456 281.96V282.06C215.105 286.105 214.455 290.117 213.512 294.06C212.17 299.89 210.391 305.44 208.923 309.9C202.701 328.85 203.42 349.27 203.42 349.27C201.359 346.63 197.587 344.75 192.871 343.43C175.702 338.58 146.554 341.18 146.554 341.18C140.837 320.55 142.879 288.26 148.567 270.18C154.254 252.1 170.024 256.18 170.024 256.18C170.024 256.18 186.668 256.68 188.759 256.45C192.584 255.973 196.457 256.054 200.26 256.69C213.113 259.11 216.205 269.56 215.456 281.29Z" fill="#F9BE00"/>
<path d="M343.601 360C314.434 387.08 258.132 389.92 216.238 386.92L192.768 343.49L183.26 325.9L213.807 283.55L215.421 281.32C215.421 281.32 215.421 281.4 215.421 281.56C215.421 281.72 215.421 281.81 215.421 281.99V282.09C215.003 289.64 212.3 350.23 233.894 365.09L234.069 365.22C236.991 367.162 240.381 368.229 243.859 368.3C283.478 369.48 282.369 316.3 272.297 304.91L341.044 290.7C341.044 290.7 354.616 325.85 343.601 360Z" fill="#F9BE00"/>
<path d="M267.145 293.38C267.145 293.38 260.699 298.88 264.025 306.26C267.35 313.64 299.404 299.31 312.024 296.7C324.643 294.09 339.246 291.54 345.527 290.21C351.808 288.88 351.263 270.35 346.13 268.71C340.996 267.07 290.712 276.21 282.371 281.23C276.862 284.671 271.754 288.747 267.145 293.38Z" fill="#263238"/>
<path d="M283.271 144.27C282.658 143.591 282.286 142.718 282.217 141.793C282.148 140.869 282.386 139.948 282.892 139.18C284.447 136.78 287.588 132.97 290.602 135.82C294.821 139.82 287.617 147.09 284.632 145.33C284.132 145.044 283.674 144.688 283.271 144.27Z" fill="#FFC3BD"/>
<path opacity="0.2" d="M259.782 128.43C259.782 128.43 254.026 124.49 256.563 121.65C257.691 120.39 261.065 120.65 265.625 121.99C268.557 122.802 271.429 123.828 274.219 125.06C278.225 126.85 282.483 129.14 286.265 130.83C286.265 130.83 259.655 112.52 252.422 118.31C246.442 123.1 258.877 129.31 259.315 129.73L259.529 128.92L259.782 128.43Z" fill="black"/>
<path d="M262.503 126.72C262.503 126.72 256.67 127.72 260.695 134.18L262.503 126.72Z" fill="#263238"/>
<path d="M268.103 122.78C268.103 122.78 259.304 119.6 256.854 121.4C254.404 123.2 256.971 126.63 259.771 128.4L262.017 128.7L263.339 124.6L266.761 124.17L268.103 122.78Z" fill="#263238"/>
<path opacity="0.3" d="M280.088 117.89L277.978 121.1L268.81 117C270.357 116.09 272.038 115.448 273.788 115.1L280.088 117.89Z" fill="white"/>
<path opacity="0.1" d="M278.045 156.26C277.439 157.919 276.568 159.464 275.469 160.83C275.279 159.58 275 158.347 274.633 157.14C275.812 157.055 276.967 156.757 278.045 156.26Z" fill="black"/>
<path d="M190.883 244.2C190.495 251.13 187.578 256.8 184 258.2C183.381 258.445 182.718 258.551 182.056 258.51C177.642 258.25 174.433 251.44 174.88 243.31C175.328 235.18 179.275 228.8 183.689 229.06C185.488 229.16 187.072 230.35 188.307 232.26C190.125 235 191.146 239.38 190.883 244.2Z" fill="#F5F5F5"/>
<path d="M190.879 244.2C190.49 251.13 187.573 256.8 183.996 258.2C179.912 257.96 176.947 251.67 177.365 244.2C177.783 236.73 181.419 230.8 185.503 231.04C186.555 231.121 187.55 231.561 188.332 232.29C190.121 235 191.142 239.38 190.879 244.2Z" fill="white"/>
<path d="M348.448 342.43C340.932 337 311.853 331.67 311.853 331.67C294.187 331.67 278.68 348.02 276.541 369.73C274.791 387.39 282.375 403.42 294.596 410.73C294.596 410.73 295.616 411.17 297.327 411.86C303.803 414.49 320.233 420.86 329.946 422.26" fill="#263238"/>
<path opacity="0.3" d="M368.194 384.38C370.46 361.474 357.014 341.305 338.163 339.332C319.311 337.359 302.192 354.329 299.926 377.235C297.66 400.142 311.105 420.311 329.957 422.284C348.808 424.257 365.928 407.287 368.194 384.38Z" fill="black"/>
<path d="M217.044 383.047C219.31 360.14 205.865 339.972 187.013 337.999C168.161 336.026 151.042 352.996 148.776 375.902C146.51 398.809 159.955 418.977 178.807 420.95C197.658 422.923 214.778 405.953 217.044 383.047Z" fill="#263238"/>
<path d="M203.889 345.64L186.505 420.71C183.969 421.133 181.39 421.21 178.834 420.94H178.64C175.305 420.06 176.792 421.01 173.448 419.87C164.941 416.98 152.584 411.87 152.584 411.87C139.488 405.32 132.089 389.39 133.888 371.19C136.066 349.14 151.446 332.67 169.549 334.02C169.549 334.02 178.144 335.65 186.991 338.02C190.88 339.02 194.769 340.21 197.968 341.45C200.086 342.618 202.071 344.023 203.889 345.64Z" fill="#263238"/>
<path opacity="0.3" d="M217.056 383C215.112 402.75 202.113 418.08 186.489 420.67C183.953 421.093 181.374 421.17 178.818 420.9H178.624C175.064 420.505 171.604 419.444 168.415 417.77C155.28 410.92 146.968 394.28 148.786 375.88C151.051 352.99 168.133 336.04 186.975 337.98H187.024C190.849 338.377 194.562 339.543 197.952 341.41C200.07 342.581 202.056 343.99 203.873 345.61C213.177 353.93 218.592 367.89 217.056 383Z" fill="black"/>
<path d="M212.317 356.7C211.747 355.765 211.096 354.885 210.372 354.07C206.026 347.97 196.09 345.69 189.586 346.23C184.6 346.73 179.812 348.497 175.654 351.37C170.909 354.53 167.516 359.37 162.811 362.69C153.885 369.03 140.342 368.85 131.378 362.32C130.873 361.95 130.392 361.546 129.939 361.11C129.026 360.132 128.417 358.896 128.189 357.56C127.846 355.892 127.971 354.158 128.549 352.56C130.494 346.94 136.978 342 141.071 338.99C149.37 332.968 159.13 329.433 169.266 328.78C198.171 326.73 210.499 352.12 212.317 356.7Z" fill="#F9BE00"/>
<path opacity="0.3" d="M210.314 357.5C204.102 348.28 196.129 345.69 189.625 346.23C184.639 346.731 179.852 348.497 175.693 351.37C170.948 354.53 167.555 359.37 162.85 362.69C153.925 369.03 140.381 368.85 131.417 362.32C130.912 361.95 130.431 361.546 129.978 361.11C129.065 360.132 128.456 358.896 128.228 357.56C127.885 355.892 128.01 354.158 128.588 352.56C131.592 356.13 140.342 364.73 152.194 360.56C166.972 355.31 170.579 339.71 186.378 339.85C198.929 340 206.659 350 210.314 357.5Z" fill="black"/>
<g opacity="0.3">
<path opacity="0.3" d="M145.3 336.24C149.516 333.158 154.259 330.923 159.281 329.65C164.307 328.334 169.513 327.895 174.681 328.35C179.84 328.861 184.893 330.183 189.663 332.27L191.432 333.07L193.163 333.96C194.33 334.52 195.428 335.22 196.556 335.86C197.684 336.5 198.724 337.29 199.803 338C200.882 338.71 201.894 339.54 202.924 340.33C198.684 337.408 194.158 334.951 189.42 333C184.691 331.049 179.708 329.825 174.632 329.37C169.567 328.872 164.456 329.209 159.494 330.37C157.003 330.938 154.561 331.714 152.193 332.69C149.789 333.642 147.481 334.831 145.3 336.24Z" fill="black"/>
</g>
<g opacity="0.3">
<path opacity="0.3" d="M176.774 329.09C175.562 324.92 174.834 320.616 174.606 316.27C174.286 311.94 174.218 307.59 174.305 303.27C174.393 298.95 174.684 294.59 175.073 290.27L175.783 283.81C176.094 281.66 176.366 279.51 176.755 277.37L175.87 290.37L175.52 296.85C175.462 299.01 175.336 301.17 175.326 303.33C175.161 307.65 175.238 311.97 175.394 316.33C175.462 318.49 175.627 320.64 175.841 322.79C176.012 324.909 176.324 327.014 176.774 329.09Z" fill="black"/>
</g>
<path opacity="0.3" d="M233.845 365C213.545 351.57 212.738 316.92 213.428 294.06C213.555 290.13 213.71 286.56 213.827 283.49C214.04 280.417 214.04 277.333 213.827 274.26C211.776 258.56 200.109 256.67 200.109 256.67H200.158C213.078 259.11 216.17 269.56 215.422 281.29C215.422 281.29 215.422 281.37 215.422 281.53C215.422 281.69 215.422 281.78 215.422 281.96V282.06C214.984 289.61 212.281 350.2 233.845 365Z" fill="black"/>
<path opacity="0.2" d="M232.19 246.66C230.488 248.49 208.487 243.8 204.646 245.9C203.023 246.78 202.313 249.9 200.68 253.32C196.091 260.82 189.635 262 189.236 262.06C196.937 256.06 199.085 241.62 195.264 232.49C191.443 223.36 177.764 225.73 176.986 226C179.319 224.945 181.828 224.364 184.375 224.29C191.774 223.89 200.796 226.03 203.324 230.85C208.458 240.68 230.469 238.47 232.491 241.05C234.513 243.63 233.891 244.83 232.19 246.66Z" fill="black"/>
<path d="M214.976 237.93C213.639 240.469 213.105 243.374 213.45 246.24L232.087 248.4C233.04 247.266 233.744 245.934 234.152 244.495C234.56 243.056 234.661 241.543 234.45 240.06C234.45 240.06 215.987 238.15 214.976 237.93Z" fill="#263238"/>
<path d="M158.387 237.22C158.387 237.22 156.53 233.16 158.756 230.59C153.779 230.13 150.697 229.59 147.488 229.11C147.012 230.6 146.779 232.03 148.461 234.3C150.142 236.57 158.387 237.22 158.387 237.22Z" fill="#263238"/>
<path d="M148.026 262.63C144.798 268.04 142.037 276.7 141.794 290.53" stroke="#28BB46" stroke-linecap="round" stroke-linejoin="round"/>
<path d="M158.66 253.71C156.311 254.27 154.152 255.469 152.408 257.18" stroke="#28BB46" stroke-linecap="round" stroke-linejoin="round"/>
<path d="M303.631 201.58L291.361 203.12C291.361 203.12 289.223 226.31 287.239 230.82C287.239 230.82 249.507 236.16 234.039 235.69L226.193 241.17L225.92 250.71L233.611 250.94L236.09 244.94C236.09 244.94 241.282 244.71 242.478 241.7C242.478 241.7 282.573 251.7 297.341 240.3C297.331 240.26 306.246 226.81 303.631 201.58Z" fill="#FFC3BD"/>
<path opacity="0.2" d="M203.744 380C203.394 392.58 195.383 402.54 185.846 402.26C184.564 402.221 183.294 401.995 182.073 401.59C174.432 399.09 168.929 389.82 169.23 378.97C169.531 368.47 175.161 359.79 182.559 357.38C184.038 356.891 185.586 356.664 187.139 356.71C196.676 357 204.104 367.46 203.744 380Z" fill="#FAFAFA"/>
<path d="M194.965 380C194.664 390.74 189.132 399.57 182.073 401.62C174.432 399.12 168.929 389.85 169.23 379C169.531 368.5 175.161 359.82 182.559 357.41C189.909 359.46 195.267 368.88 194.965 380Z" fill="#263238"/>
<path opacity="0.2" d="M353.531 381C353.171 393.58 345.16 403.55 335.632 403.26C334.35 403.226 333.079 403 331.86 402.59C324.208 400.09 318.705 390.83 319.016 379.97C319.308 369.48 324.937 360.79 332.336 358.38C333.814 357.891 335.363 357.664 336.915 357.71C346.453 358 353.881 368.44 353.531 381Z" fill="#FAFAFA"/>
<path d="M344.752 381C344.44 391.73 338.918 400.56 331.86 402.61C324.208 400.11 318.705 390.85 319.016 379.99C319.308 369.5 324.937 360.81 332.336 358.4C339.696 360.45 345.063 369.87 344.752 381Z" fill="#263238"/>
<path d="M368.56 347.86C368.725 360.23 350.418 368.42 319.783 373.58C311.525 375.073 303.086 375.175 294.797 373.88C281.185 371.57 274.535 365.65 274.535 365.65C274.535 365.65 277.996 322.9 312.248 317.48C335.582 313.8 353.14 323.48 362.046 333.91C366.236 338.81 368.511 343.9 368.56 347.86Z" fill="#F9BE00"/>
<path opacity="0.3" d="M368.561 347.86C368.727 360.23 350.419 368.42 319.784 373.58C311.526 375.073 303.087 375.175 294.798 373.88C296.266 362.27 302.858 331.82 331.509 328.66C344.508 327.22 354.542 329.92 362.047 333.91C366.238 338.81 368.513 343.9 368.561 347.86Z" fill="black"/>
<g opacity="0.3">
<path opacity="0.3" d="M276.527 365.84C277.157 360.021 278.506 354.308 280.542 348.84C282.544 343.316 285.307 338.116 288.748 333.4C290.486 331.056 292.44 328.889 294.581 326.93C296.703 324.939 299.043 323.207 301.552 321.77C306.546 318.874 312.079 317.098 317.788 316.56C314.991 317.042 312.239 317.772 309.563 318.74C308.212 319.16 306.938 319.81 305.674 320.36C304.406 320.985 303.17 321.676 301.97 322.43C300.745 323.15 299.617 324.02 298.46 324.83C297.304 325.64 296.234 326.6 295.213 327.61C293.137 329.551 291.246 331.69 289.565 334C286.149 338.625 283.365 343.709 281.291 349.11C280.214 351.801 279.285 354.552 278.51 357.35C277.685 360.137 277.023 362.972 276.527 365.84Z" fill="black"/>
</g>
<path d="M230.556 351.72L232.578 358.78L253.782 356.96L254.064 347.09L230.556 351.72Z" fill="#2E2C2C"/>
<path d="M356.16 303.57L404.15 301.62" stroke="#28BB46" stroke-linecap="round" stroke-linejoin="round"/>
<path d="M420.01 292.88L427.14 292.59" stroke="#28BB46" stroke-linecap="round" stroke-linejoin="round"/>
<path d="M379.16 294.54L414.54 293.1" stroke="#28BB46" stroke-linecap="round" stroke-linejoin="round"/>
<path d="M403.92 319.38L433.57 318.18" stroke="#28BB46" stroke-linecap="round" stroke-linejoin="round"/>
<path d="M385.59 320.13L398.51 319.6" stroke="#28BB46" stroke-linecap="round" stroke-linejoin="round"/>
</svg>
