<svg width="346" height="346" viewBox="0 0 346 346" fill="none" xmlns="http://www.w3.org/2000/svg">
<path d="M196.189 66.3628H164.959V105.786H196.189V66.3628Z" fill="#EBEBEB"/>
<path d="M182.937 104.9H178.605V105.952H182.937V104.9Z" fill="#E0E0E0"/>
<path d="M181.574 79.9331L175.824 80.7773L173.679 86.1819L177.284 90.7421L183.035 89.8979L185.18 84.4934L181.574 79.9331Z" fill="#E0E0E0"/>
<path d="M184.266 83.4275L178.515 84.2717L176.363 89.6693L179.969 94.2365L185.726 93.3923L187.871 87.9878L184.266 83.4275Z" fill="#FAFAFA"/>
<path d="M183.554 65.8301H179.222V66.7297H183.554V65.8301Z" fill="#E0E0E0"/>
<path d="M235.709 82.3274H214.492V127.736H235.709V82.3274Z" fill="#F5F5F5"/>
<path d="M262.656 130.913H236.588V174.785H262.656V130.913Z" fill="#F5F5F5"/>
<path d="M265.825 81.5453H290.578V41.264H291.457V81.5453H314.369V40.3713H265.825V81.5453Z" fill="#F5F5F5"/>
<path d="M235.709 130.913H214.492V174.785H235.709V130.913Z" fill="#F5F5F5"/>
<path d="M314.362 130.913H291.457V174.785H314.362V130.913Z" fill="#F5F5F5"/>
<path d="M262.656 82.3274H236.588V127.736H262.656V82.3274Z" fill="#F5F5F5"/>
<path d="M314.362 82.3274H291.457V127.736H314.362V82.3274Z" fill="#F5F5F5"/>
<path d="M235.709 175.574H214.492V215.108H235.709V175.574Z" fill="#F5F5F5"/>
<path d="M235.702 81.5453V41.264H236.588V81.5453H262.655V40.3713H214.492V81.5453H235.702Z" fill="#F5F5F5"/>
<path d="M262.656 175.574H236.588V215.108H262.656V175.574Z" fill="#F5F5F5"/>
<path d="M314.362 175.574H291.457V215.108H314.362V175.574Z" fill="#F5F5F5"/>
<path d="M290.578 82.3274H265.825V127.736H290.578V82.3274Z" fill="#F5F5F5"/>
<path d="M290.578 175.574H265.825V215.108H290.578V175.574Z" fill="#F5F5F5"/>
<path d="M290.578 130.913H265.825V174.785H290.578V130.913Z" fill="#F5F5F5"/>
<path d="M71.5947 82.3274H50.3779V127.736H71.5947V82.3274Z" fill="#F5F5F5"/>
<path d="M98.5413 130.913H72.4736V174.785H98.5413V130.913Z" fill="#F5F5F5"/>
<path d="M101.711 81.5453H126.464V41.264H127.35V81.5453H150.255V40.3713H101.711V81.5453Z" fill="#F5F5F5"/>
<path d="M71.5947 130.913H50.3779V174.785H71.5947V130.913Z" fill="#F5F5F5"/>
<path d="M150.254 130.913H127.349V174.785H150.254V130.913Z" fill="#F5F5F5"/>
<path d="M98.5413 82.3274H72.4736V127.736H98.5413V82.3274Z" fill="#F5F5F5"/>
<path d="M150.254 82.3274H127.349V127.736H150.254V82.3274Z" fill="#F5F5F5"/>
<path d="M71.5947 175.574H50.3779V215.108H71.5947V175.574Z" fill="#F5F5F5"/>
<path d="M71.5946 81.5453V41.264H72.4735V81.5453H98.5411V40.3713H50.3779V81.5453H71.5946Z" fill="#F5F5F5"/>
<path d="M98.5413 175.574H72.4736V215.108H98.5413V175.574Z" fill="#F5F5F5"/>
<path d="M150.254 175.574H127.349V215.108H150.254V175.574Z" fill="#F5F5F5"/>
<path d="M126.464 82.3274H101.711V127.736H126.464V82.3274Z" fill="#F5F5F5"/>
<path d="M126.464 175.574H101.711V215.108H126.464V175.574Z" fill="#F5F5F5"/>
<path d="M126.464 130.913H101.711V174.785H126.464V130.913Z" fill="#F5F5F5"/>
<path d="M264.531 285.118V305.456H294.273H327.074V285.118H264.531Z" fill="#EBEBEB"/>
<path d="M261.908 279.43V285.118H329.26V279.43H294.273H261.908Z" fill="#E0E0E0"/>
<path d="M295.588 305.456H327.074V285.118H329.261V279.43H294.273V284.592L295.588 305.456Z" fill="#E0E0E0"/>
<path d="M285.969 288.398H273.285V291.457H285.969V288.398Z" fill="#E0E0E0"/>
<path d="M287.942 295.283H271.652V301.747H287.942V295.283Z" fill="#F5F5F5"/>
<path d="M279.984 256.974L279.894 249.334L306.681 251.625L307.518 259.189L279.984 256.974Z" fill="#EBEBEB"/>
<path d="M285.767 252.806L285.649 254.178L302.404 255.612L302.521 254.24L285.767 252.806Z" fill="#E0E0E0"/>
<path d="M276.793 249.715L276.779 242.069L303.546 244.65L304.224 251.487L276.793 249.715Z" fill="#E0E0E0"/>
<path d="M276.786 243.114L276.772 248.269L302.847 250.193L302.411 245.432L276.786 243.114Z" fill="white"/>
<path d="M300.868 247.418C300.553 247.447 300.235 247.447 299.92 247.418L297.36 247.217C295.194 247.03 292.211 246.753 288.91 246.421C285.61 246.089 282.634 245.764 280.475 245.515L277.921 245.196C277.607 245.175 277.296 245.119 276.994 245.03C277.307 245.001 277.622 245.001 277.935 245.03L280.496 245.231C282.662 245.418 285.651 245.702 288.945 246.034C292.239 246.366 295.228 246.684 297.387 246.94L299.941 247.252C300.255 247.274 300.566 247.33 300.868 247.418Z" fill="#F5F5F5"/>
<path d="M300.812 248.061C300.497 248.096 300.179 248.096 299.864 248.061L297.269 247.937C295.09 247.819 292.072 247.632 288.744 247.397C285.415 247.162 282.398 246.933 280.218 246.753L277.644 246.518C277.327 246.504 277.011 246.457 276.703 246.38C277.018 246.345 277.336 246.345 277.651 246.38L280.239 246.504C282.426 246.622 285.443 246.816 288.772 247.044C292.1 247.272 295.11 247.508 297.29 247.695L299.871 247.93C300.188 247.946 300.503 247.99 300.812 248.061Z" fill="#F5F5F5"/>
<path d="M280.295 264.026L280.191 256.379L306.986 258.649L307.747 265.472L280.295 264.026Z" fill="#E0E0E0"/>
<path d="M283.243 264.185C283.019 262.943 282.91 261.683 282.917 260.42C282.805 259.163 282.816 257.897 282.952 256.642C283.177 257.884 283.286 259.144 283.277 260.407C283.39 261.664 283.378 262.93 283.243 264.185Z" fill="#F5F5F5"/>
<path d="M284.253 256.732C284.457 257.974 284.545 259.232 284.516 260.489C284.599 261.745 284.567 263.005 284.419 264.254C284.208 263.013 284.119 261.755 284.156 260.496C284.069 259.241 284.101 257.981 284.253 256.732Z" fill="#F5F5F5"/>
<path d="M286.689 260.088C291.36 260.607 296.855 260.898 301.602 261.32L286.689 260.088Z" fill="white"/>
<path d="M301.602 261.32C300.871 261.363 300.137 261.345 299.408 261.265C298.024 261.195 296.191 261.078 294.128 260.926C292.066 260.773 290.205 260.6 288.862 260.434C288.129 260.389 287.401 260.273 286.689 260.088C287.422 260.066 288.155 260.098 288.883 260.185L294.156 260.566C296.232 260.718 298.08 260.87 299.429 261.016C300.161 261.056 300.888 261.158 301.602 261.32Z" fill="#F5F5F5"/>
<path d="M303.553 265.257C303.324 264.132 303.209 262.987 303.207 261.839C303.088 260.689 303.088 259.529 303.207 258.379C303.44 259.503 303.556 260.649 303.553 261.797C303.681 262.947 303.681 264.108 303.553 265.257Z" fill="#F5F5F5"/>
<path d="M305.207 265.341C304.737 263.085 304.505 260.787 304.515 258.483C304.808 259.599 304.982 260.742 305.034 261.894C305.21 263.034 305.268 264.189 305.207 265.341Z" fill="#F5F5F5"/>
<path d="M290.641 261.804C293.589 262.005 295.838 262.15 298.19 262.206L290.641 261.804Z" fill="white"/>
<path d="M298.252 262.206C295.728 262.312 293.2 262.178 290.702 261.804C291.961 261.682 293.229 261.682 294.487 261.804C295.752 261.82 297.012 261.954 298.252 262.206Z" fill="#F5F5F5"/>
<path d="M282.087 278.959L281.589 271.326L308.459 272.178L309.58 278.952L282.087 278.959Z" fill="#EBEBEB"/>
<path d="M283.152 277.997L309.303 277.624L308.577 272.876L282.661 272.392L283.152 277.997Z" fill="white"/>
<path d="M282.82 271.479L282.571 263.832L309.407 265.583L310.3 272.392L282.82 271.479Z" fill="#F5F5F5"/>
<path d="M288.499 267.17L288.409 268.544L305.189 269.635L305.279 268.261L288.499 267.17Z" fill="#E0E0E0"/>
<path d="M308.847 274.828C308.506 274.885 308.161 274.91 307.816 274.904L305.048 274.973C302.688 275.015 299.422 275.049 295.816 275.063C292.211 275.077 288.952 275.063 286.585 275.063L283.817 275.015C283.475 275.025 283.132 275.004 282.793 274.952C283.131 274.895 283.474 274.869 283.817 274.876L286.585 274.807C288.945 274.766 292.211 274.738 295.816 274.717C299.422 274.696 302.688 274.717 305.048 274.717L307.85 274.766C308.184 274.758 308.517 274.779 308.847 274.828Z" fill="#EBEBEB"/>
<path d="M309.151 276.309C308.811 276.364 308.465 276.382 308.12 276.364H305.297C302.923 276.364 299.636 276.364 296.003 276.288C292.37 276.212 289.083 276.17 286.71 276.108L283.893 276.011C283.548 276.018 283.202 275.99 282.862 275.928C283.204 275.878 283.549 275.859 283.893 275.873H286.71C289.09 275.873 292.377 275.873 296.01 275.949C299.643 276.025 302.93 276.067 305.304 276.129L308.12 276.226C308.466 276.228 308.81 276.255 309.151 276.309Z" fill="#EBEBEB"/>
<path d="M321.898 305.456C321.898 305.56 255.231 305.636 173.007 305.636C90.7837 305.636 24.1025 305.56 24.1025 305.456C24.1025 305.352 90.756 305.276 173.007 305.276C255.258 305.276 321.898 305.359 321.898 305.456Z" fill="#263238"/>
<path d="M47.0563 219.537C43.3956 220.125 41.7556 224.623 42.0739 228.318C42.3922 232.014 43.9146 235.626 43.5064 239.314C42.9943 243.992 39.4512 247.95 39.043 252.642C38.5586 258.178 42.503 263.084 43.6378 268.517C44.2053 271.16 44.1292 273.949 45.1118 276.468C45.9498 278.61 47.5049 280.396 49.512 281.521C51.5191 282.645 53.854 283.039 56.1189 282.635C58.3839 282.231 60.4386 281.054 61.9331 279.305C63.4276 277.556 64.2693 275.343 64.3148 273.042C64.3909 268.793 61.7752 264.787 62.0935 260.552C62.3288 257.417 64.1695 254.448 63.7681 251.334C63.2976 247.625 59.8652 244.996 58.6542 241.459C57.4432 237.923 58.6058 234.027 58.1837 230.311C57.4363 223.647 53.7203 218.997 47.0563 219.537Z" fill="#28BB46"/>
<path d="M28.331 251.805C27.6805 257.977 30.4485 265.243 33.6178 270.572C36.8384 275.941 41.6863 280.144 47.4578 282.571C48.1014 282.841 48.9041 283.062 49.4508 282.626C49.643 282.414 49.7875 282.162 49.8746 281.889C49.9618 281.615 49.9895 281.327 49.956 281.042C49.9978 274.487 47.9147 268.094 44.0187 262.822C40.1227 257.55 34.6235 253.682 28.3448 251.798" fill="#28BB46"/>
<g opacity="0.1">
<path opacity="0.1" d="M28.331 251.805C27.6805 257.977 30.4485 265.243 33.6178 270.572C36.8384 275.941 41.6863 280.144 47.4578 282.571C48.1014 282.841 48.9041 283.062 49.4508 282.626C49.643 282.414 49.7875 282.162 49.8746 281.889C49.9618 281.615 49.9895 281.327 49.956 281.042C49.9978 274.487 47.9147 268.094 44.0187 262.822C40.1227 257.55 34.6235 253.682 28.3448 251.798" fill="black"/>
</g>
<path d="M55.236 295.484C55.1618 295.379 55.1013 295.265 55.056 295.145C54.9453 294.875 54.7931 294.543 54.6201 294.135C54.2464 293.249 53.6928 291.982 52.987 290.419C51.603 287.305 49.4854 283.063 46.8558 278.551C44.5991 274.707 42.151 270.98 39.5206 267.382C38.5103 265.998 37.673 264.898 37.0917 264.143L36.3997 263.258C36.2475 263.057 36.1714 262.946 36.1852 262.939C36.2827 263.024 36.373 263.116 36.4551 263.216L37.1471 264.053C37.7699 264.787 38.6349 265.873 39.6729 267.237C42.3695 270.801 44.8535 274.521 47.1119 278.378C49.3638 282.236 51.3856 286.225 53.1669 290.322C53.8589 291.892 54.364 293.18 54.6962 294.079L55.0768 295.117C55.1415 295.234 55.1948 295.357 55.236 295.484Z" fill="#263238"/>
<path d="M51.2573 236.615C51.296 236.812 51.3192 237.011 51.3265 237.211C51.3542 237.63 51.3957 238.198 51.4511 238.913C51.548 240.421 51.6864 242.553 51.8524 245.141C52.1846 250.428 52.6552 257.721 53.2364 265.783C53.8177 273.845 54.3644 281.132 54.7727 286.412C54.9734 289.028 55.1325 291.152 55.2502 292.64C55.2986 293.332 55.3332 293.92 55.3678 294.335C55.3847 294.533 55.3847 294.732 55.3678 294.93C55.322 294.737 55.2919 294.54 55.2778 294.342C55.2363 293.927 55.1741 293.359 55.0979 292.647C54.9595 291.138 54.7588 289.014 54.5097 286.419C54.0392 281.146 53.4371 273.852 52.8697 265.79C52.3022 257.728 51.9009 250.504 51.6033 245.182C51.4857 242.56 51.3819 240.428 51.3127 238.92C51.3127 238.228 51.2712 237.633 51.2573 237.218C51.2437 237.017 51.2437 236.816 51.2573 236.615Z" fill="#263238"/>
<path d="M45.5752 286.682H61.0414V298.037C61.0414 300.005 60.2598 301.892 58.8686 303.283C57.4775 304.674 55.5906 305.456 53.6232 305.456C51.7227 305.457 49.8942 304.729 48.5141 303.422C47.1341 302.116 46.3076 300.329 46.2049 298.432L45.5752 286.682Z" fill="#455A64"/>
<path d="M246.989 193.269C246.128 192.633 245.067 192.328 244 192.411C244 191.829 244 191.477 244 191.477H227.668C227.668 191.477 227.156 202.251 235.405 202.632C239.1 202.805 241.211 201.151 242.422 199.068C243.03 199.212 243.652 199.289 244.276 199.296C245.188 199.336 246.088 199.082 246.844 198.57C247.26 198.244 247.589 197.821 247.804 197.339C248.019 196.856 248.112 196.328 248.075 195.802C248.098 195.325 248.012 194.849 247.824 194.41C247.636 193.971 247.35 193.581 246.989 193.269ZM245.868 197.275C245.176 197.794 243.923 197.718 243.1 197.573C243.511 196.427 243.778 195.235 243.896 194.023C244.611 193.94 245.333 194.109 245.937 194.501C246.114 194.665 246.251 194.868 246.338 195.093C246.424 195.319 246.457 195.561 246.435 195.802C246.468 196.075 246.433 196.352 246.334 196.609C246.235 196.865 246.075 197.094 245.868 197.275Z" fill="#E94235"/>
<path d="M239.204 190.494C239.285 190.372 239.333 190.231 239.342 190.086C239.317 189.877 239.241 189.678 239.12 189.507C238.999 189.335 238.838 189.197 238.65 189.103C238.375 188.969 238.084 188.869 237.785 188.805C237.408 188.723 237.052 188.563 236.74 188.335C236.568 188.184 236.431 187.998 236.339 187.789C236.247 187.579 236.202 187.352 236.207 187.124C236.208 186.62 236.35 186.126 236.616 185.698C237.176 184.792 238.186 184.217 238.899 183.318C239.258 182.826 239.497 182.257 239.599 181.657C239.701 181.056 239.663 180.441 239.487 179.858C239.315 179.224 238.984 178.645 238.525 178.176C238.006 177.718 237.417 177.345 236.782 177.069C236.072 176.777 235.44 176.325 234.934 175.747C234.693 175.424 234.527 175.05 234.45 174.654C234.357 174.237 234.413 173.802 234.609 173.422C234.717 173.227 234.872 173.061 235.059 172.938L235.245 173.249C234.652 173.618 234.185 174.158 233.904 174.798C233.624 175.438 233.544 176.147 233.675 176.834C233.787 177.485 234.108 178.082 234.588 178.536C235.128 178.95 235.606 179.439 236.007 179.989C236.176 180.298 236.257 180.648 236.242 181C236.231 181.348 236.139 181.69 235.972 181.996C235.667 182.539 235.235 182.999 234.713 183.339C233.709 183.975 232.678 184.293 231.91 184.875C231.563 185.122 231.273 185.442 231.062 185.813C230.851 186.183 230.722 186.595 230.685 187.02C230.62 187.668 230.732 188.321 231.01 188.909C231.264 189.405 231.626 189.838 232.069 190.175L231.965 190.127C231.871 190.074 231.781 190.014 231.695 189.947C231.357 189.685 231.081 189.352 230.886 188.971C230.573 188.364 230.436 187.681 230.491 186.999C230.521 186.57 230.637 186.151 230.83 185.767C231.055 185.339 231.372 184.966 231.758 184.674C232.554 184.051 233.612 183.705 234.526 183.096C235 182.776 235.394 182.35 235.674 181.851C235.819 181.598 235.895 181.312 235.895 181.02C235.895 180.729 235.819 180.443 235.674 180.19C235.278 179.668 234.812 179.203 234.29 178.806C233.754 178.3 233.401 177.631 233.287 176.903C233.144 176.144 233.233 175.36 233.545 174.653C233.856 173.947 234.374 173.351 235.031 172.945L235.211 173.256C235.075 173.347 234.961 173.468 234.879 173.609C234.752 173.931 234.713 174.281 234.767 174.623C234.82 174.964 234.964 175.286 235.183 175.554C235.657 176.083 236.243 176.499 236.899 176.771C237.567 177.063 238.184 177.461 238.726 177.948C239.224 178.46 239.582 179.091 239.764 179.782C239.943 180.414 239.974 181.078 239.854 181.724C239.734 182.37 239.467 182.979 239.072 183.505C238.29 184.453 237.294 185.006 236.775 185.83C236.256 186.653 236.207 187.691 236.809 188.183C237.411 188.674 238.193 188.66 238.664 188.978C238.866 189.087 239.036 189.246 239.157 189.44C239.278 189.634 239.347 189.857 239.356 190.086C239.349 190.203 239.308 190.316 239.238 190.411C239.238 190.473 239.211 190.494 239.204 190.494Z" fill="#263238"/>
<path d="M137.404 105.059H57.7752C56.5408 105.059 55.54 106.06 55.54 107.294V126.401C55.54 127.635 56.5408 128.636 57.7752 128.636H137.404C138.638 128.636 139.639 127.635 139.639 126.401V107.294C139.639 106.06 138.638 105.059 137.404 105.059Z" fill="#455A64"/>
<path d="M73.2695 120.782C72.6352 121.571 71.7812 122.154 70.8154 122.458C69.8496 122.762 68.8153 122.773 67.8434 122.489C66.8714 122.206 66.0054 121.64 65.3547 120.865C64.704 120.089 64.2979 119.138 64.1877 118.131C64.0774 117.125 64.2681 116.108 64.7354 115.21C65.2028 114.312 65.926 113.572 66.8135 113.085C67.701 112.598 68.7131 112.384 69.7218 112.472C70.7305 112.56 71.6905 112.945 72.4806 113.578C73.0058 113.999 73.4428 114.519 73.7668 115.109C74.0907 115.699 74.2951 116.347 74.3684 117.016C74.4417 117.685 74.3823 118.362 74.1938 119.008C74.0052 119.654 73.6911 120.257 73.2695 120.782Z" fill="#02A1FC"/>
<path d="M72.1552 115.834C71.3202 116.897 70.394 117.886 69.3872 118.789C69.152 119.01 68.9236 119.225 68.6952 119.439L68.5707 119.564L68.4461 119.439C67.6784 118.738 66.9829 117.961 66.3701 117.121C67.2103 117.734 67.9869 118.429 68.6883 119.197H68.4392L69.1312 118.505C70.0589 117.528 71.0709 116.634 72.1552 115.834Z" fill="#FF725E"/>
<path d="M131.439 115.121C131.439 115.218 120.747 115.301 107.558 115.301C94.3681 115.301 83.6836 115.218 83.6836 115.121C83.6836 115.024 94.3681 114.941 107.558 114.941C120.747 114.941 131.439 115.017 131.439 115.121Z" fill="#02A1FC"/>
<path d="M111.848 119.785C111.848 119.882 105.669 119.965 98.05 119.965C90.431 119.965 84.21 119.882 84.21 119.785C84.21 119.688 90.3895 119.605 98.05 119.605C105.71 119.605 111.848 119.716 111.848 119.785Z" fill="#02A1FC"/>
<path d="M137.404 132.027H57.7752C56.5408 132.027 55.54 133.027 55.54 134.262V153.368C55.54 154.602 56.5408 155.603 57.7752 155.603H137.404C138.638 155.603 139.639 154.602 139.639 153.368V134.262C139.639 133.027 138.638 132.027 137.404 132.027Z" fill="#455A64"/>
<path d="M73.2695 147.749C72.6352 148.538 71.7812 149.122 70.8154 149.426C69.8496 149.73 68.8154 149.74 67.8434 149.457C66.8714 149.173 66.0054 148.608 65.3547 147.832C64.704 147.056 64.2979 146.105 64.1877 145.098C64.0774 144.092 64.2681 143.075 64.7354 142.177C65.2028 141.279 65.926 140.54 66.8135 140.052C67.701 139.565 68.7131 139.352 69.7218 139.439C70.7305 139.527 71.6905 139.912 72.4806 140.545C73.5397 141.396 74.2176 142.633 74.3656 143.984C74.5135 145.335 74.1193 146.689 73.2695 147.749Z" fill="#02A1FC"/>
<path d="M72.1552 142.808C71.3211 143.87 70.3948 144.856 69.3872 145.756L68.6952 146.448L68.5707 146.565L68.4461 146.441C67.6784 145.739 66.9829 144.963 66.3701 144.123C67.2088 144.737 67.9853 145.433 68.6883 146.199H68.4392L69.1312 145.507C70.0555 144.517 71.0677 143.614 72.1552 142.808Z" fill="#FF725E"/>
<path d="M131.439 142.088C131.439 142.192 120.747 142.268 107.558 142.268C94.3681 142.268 83.6836 142.192 83.6836 142.088C83.6836 141.985 94.3681 141.908 107.558 141.908C120.747 141.908 131.439 141.991 131.439 142.088Z" fill="#02A1FC"/>
<path d="M111.848 146.752C111.848 146.856 105.669 146.932 98.05 146.932C90.431 146.932 84.21 146.856 84.21 146.752C84.21 146.649 90.3895 146.573 98.05 146.573C105.71 146.573 111.848 146.656 111.848 146.752Z" fill="#02A1FC"/>
<path d="M137.404 159.001H57.7752C56.5408 159.001 55.54 160.001 55.54 161.236V180.342C55.54 181.576 56.5408 182.577 57.7752 182.577H137.404C138.638 182.577 139.639 181.576 139.639 180.342V161.236C139.639 160.001 138.638 159.001 137.404 159.001Z" fill="#455A64"/>
<path d="M73.2695 174.723C72.6352 175.512 71.7812 176.096 70.8154 176.4C69.8496 176.704 68.8153 176.714 67.8434 176.431C66.8714 176.147 66.0054 175.582 65.3547 174.806C64.704 174.03 64.2979 173.079 64.1877 172.073C64.0774 171.066 64.2681 170.049 64.7354 169.151C65.2028 168.253 65.926 167.514 66.8135 167.026C67.701 166.539 68.7131 166.326 69.7218 166.414C70.7305 166.501 71.6905 166.886 72.4806 167.519C73.0058 167.94 73.4428 168.461 73.7668 169.051C74.0907 169.641 74.2951 170.289 74.3684 170.958C74.4417 171.627 74.3823 172.304 74.1938 172.95C74.0052 173.596 73.6911 174.198 73.2695 174.723Z" fill="#02A1FC"/>
<path d="M72.1552 169.775C71.3244 170.842 70.3978 171.831 69.3872 172.73L68.6952 173.38L68.5707 173.505L68.4461 173.38C67.6784 172.679 66.9829 171.902 66.3701 171.062C67.2103 171.675 67.9869 172.371 68.6883 173.138H68.4392L69.1312 172.446C70.0589 171.469 71.0709 170.575 72.1552 169.775Z" fill="#FF725E"/>
<path d="M131.439 169.062C131.439 169.159 120.747 169.242 107.558 169.242C94.3681 169.242 83.6836 169.159 83.6836 169.062C83.6836 168.966 94.3681 168.883 107.558 168.883C120.747 168.883 131.439 168.966 131.439 169.062Z" fill="#02A1FC"/>
<path d="M111.848 173.727C111.848 173.823 105.669 173.906 98.05 173.906C90.431 173.906 84.21 173.823 84.21 173.727C84.21 173.63 90.3895 173.547 98.05 173.547C105.71 173.547 111.848 173.63 111.848 173.727Z" fill="#02A1FC"/>
<path d="M187.303 248.276L185.982 305.456H183.463L183.622 248.421L187.303 248.276Z" fill="#263238"/>
<path d="M196.417 247.639L208.679 305.456H211.489L201.282 247.639H196.417Z" fill="#263238"/>
<path d="M173.429 248.276L159.859 305.456H157.05L169.36 248.041L173.429 248.276Z" fill="#263238"/>
<path d="M212.34 185.414C212.34 185.414 227.882 184.529 226.332 202.514C224.782 220.499 223.889 238.74 218.111 244.968C212.333 251.196 154.149 251.41 149.264 246.303C144.378 241.197 158.592 241.418 161.256 241.418C163.921 241.418 180.356 242.968 185.684 228.962C191.012 214.956 189.684 184.529 212.34 185.414Z" fill="#263238"/>
<path d="M213.337 185.456C213.337 185.456 225.219 187.892 224.112 200.327C223.004 212.762 219.89 234.533 214.112 240.083C208.334 245.632 185.74 246.843 173.471 246.082C159.257 245.189 150.289 242.484 150.289 242.484C150.289 242.484 147.694 244.151 148.476 245.252C149.258 246.352 156.192 250.649 189.788 249.93C223.385 249.21 221.053 244.255 222.444 238.858C223.835 233.46 226.769 204.576 226.361 198.23C225.952 191.885 222.755 186.536 213.337 185.456Z" fill="#455A64"/>
<path d="M179.955 132.677C181.825 132.033 183.855 132.022 185.732 132.648C187.608 133.273 189.226 134.5 190.335 136.137C191.837 138.462 192.19 141.383 193.719 143.687C194.805 145.313 196.411 146.51 197.739 147.95C199.068 149.389 200.155 151.292 199.815 153.223C199.497 155.029 197.968 156.634 198.272 158.447C198.563 160.143 200.348 161.25 200.729 162.938C201.137 164.924 199.227 166.779 197.22 167.09C195.214 167.402 193.221 166.627 191.332 165.879C189.442 165.132 187.436 164.385 185.436 164.744C183.118 165.167 181.339 166.987 179.312 168.204C177.174 169.426 174.727 169.999 172.269 169.852C169.811 169.706 167.449 168.847 165.472 167.381C163.949 166.211 162.614 164.398 162.987 162.537C163.333 160.779 165.063 159.561 165.52 157.838C166.253 155.278 164.136 152.662 164.447 150.012C164.876 146.455 169.291 144.829 170.869 141.618C171.637 140.075 171.706 138.275 172.378 136.691C173.049 135.106 174.82 133.694 176.398 134.373" fill="#263238"/>
<path d="M178.459 165.049C178.688 163.783 178.28 158.454 178.28 158.454C178.28 158.454 173.56 157.859 173.353 153.036C173.145 148.213 173.629 137.12 173.629 137.12L182.328 132.968L189.94 141.618L190.085 165L178.459 165.049Z" fill="#FFBE9D"/>
<path d="M174.246 145.625C174.247 145.743 174.284 145.858 174.35 145.956C174.416 146.053 174.51 146.13 174.619 146.174C174.729 146.219 174.849 146.231 174.965 146.208C175.081 146.185 175.187 146.129 175.271 146.046C175.355 145.963 175.413 145.857 175.437 145.741C175.462 145.625 175.451 145.505 175.408 145.395C175.364 145.285 175.289 145.191 175.192 145.123C175.095 145.056 174.98 145.018 174.862 145.016C174.7 145.016 174.544 145.08 174.429 145.194C174.314 145.308 174.248 145.462 174.246 145.625Z" fill="#263238"/>
<path d="M173.858 144.545C173.934 144.628 174.391 144.247 175.034 144.22C175.678 144.192 176.162 144.524 176.231 144.434C176.3 144.344 176.19 144.247 175.975 144.095C175.695 143.9 175.357 143.802 175.015 143.819C174.674 143.835 174.347 143.964 174.086 144.185C173.885 144.351 173.823 144.51 173.858 144.545Z" fill="#263238"/>
<path d="M181.304 145.624C181.295 145.709 181.304 145.793 181.33 145.874C181.356 145.954 181.398 146.028 181.455 146.091C181.511 146.154 181.58 146.204 181.658 146.239C181.735 146.273 181.818 146.291 181.903 146.291C181.987 146.291 182.071 146.273 182.148 146.239C182.225 146.204 182.294 146.154 182.351 146.091C182.407 146.028 182.45 145.954 182.476 145.874C182.502 145.793 182.511 145.709 182.501 145.624C182.511 145.54 182.502 145.456 182.476 145.375C182.45 145.295 182.407 145.221 182.351 145.158C182.294 145.095 182.225 145.045 182.148 145.01C182.071 144.976 181.987 144.958 181.903 144.958C181.818 144.958 181.735 144.976 181.658 145.01C181.58 145.045 181.511 145.095 181.455 145.158C181.398 145.221 181.356 145.295 181.33 145.375C181.304 145.456 181.295 145.54 181.304 145.624Z" fill="#263238"/>
<path d="M181.027 144.67C181.103 144.753 181.56 144.372 182.203 144.344C182.847 144.317 183.331 144.649 183.401 144.559C183.47 144.469 183.359 144.372 183.145 144.22C182.865 144.025 182.53 143.928 182.19 143.943C181.848 143.959 181.52 144.085 181.255 144.303C181.062 144.476 180.993 144.628 181.027 144.67Z" fill="#263238"/>
<path d="M178.599 150.233C178.257 150.132 177.903 150.078 177.547 150.074C177.381 150.074 177.222 150.032 177.194 149.915C177.179 149.731 177.215 149.547 177.298 149.382C177.443 148.953 177.602 148.496 177.761 147.998C178.195 146.834 178.544 145.641 178.806 144.427C178.283 145.546 177.846 146.702 177.498 147.887C177.346 148.372 177.194 148.828 177.049 149.271C176.952 149.489 176.928 149.731 176.979 149.963C177.001 150.024 177.038 150.079 177.087 150.123C177.135 150.166 177.193 150.197 177.256 150.212C177.348 150.225 177.441 150.225 177.533 150.212C177.885 150.27 178.244 150.277 178.599 150.233Z" fill="#263238"/>
<path d="M178.28 158.468C180.514 158.395 182.678 157.674 184.508 156.392C184.508 156.392 183.041 159.907 178.336 159.624L178.28 158.468Z" fill="#EB996E"/>
<path d="M178.833 151.936C178.873 151.732 178.962 151.541 179.092 151.379C179.222 151.218 179.39 151.09 179.581 151.008C179.712 150.948 179.855 150.917 179.999 150.917C180.144 150.917 180.287 150.948 180.418 151.008C180.544 151.071 180.649 151.171 180.717 151.295C180.785 151.418 180.813 151.56 180.799 151.7C180.76 151.862 180.673 152.008 180.549 152.119C180.426 152.23 180.271 152.301 180.107 152.323C179.785 152.366 179.457 152.342 179.145 152.254C179.057 152.24 178.972 152.21 178.896 152.164C178.858 152.14 178.828 152.106 178.81 152.065C178.791 152.025 178.785 151.98 178.792 151.936" fill="#EB996E"/>
<path d="M180.439 150.212C180.48 150.212 180.556 150.385 180.535 150.697C180.497 151.114 180.307 151.503 180.003 151.79C179.701 152.076 179.304 152.241 178.888 152.254C178.57 152.254 178.39 152.171 178.404 152.129C178.418 152.088 179.158 152.088 179.753 151.527C180.349 150.967 180.335 150.206 180.439 150.212Z" fill="#263238"/>
<path d="M173.235 136.573C173.409 137.97 174.086 139.256 175.139 140.19C176.193 141.123 177.551 141.641 178.958 141.645L177.65 138.767C178.813 140.116 180.017 141.535 181.616 142.31C183.214 143.085 185.297 143.209 186.653 142.047C187.096 143.23 187.089 144.538 187.498 145.728C187.906 146.918 188.882 151.846 190.099 151.652C191.317 151.458 192.058 146.524 192.348 145.424C192.698 143.859 192.675 142.235 192.282 140.681C191.889 139.127 191.137 137.686 190.086 136.476C188.847 135.032 187.289 133.895 185.536 133.155C183.783 132.415 181.882 132.093 179.982 132.213C178.289 132.288 176.656 132.864 175.291 133.867C174.124 134.798 173.311 136.099 172.986 137.556" fill="#263238"/>
<path d="M166.772 158.302C166.658 158.294 166.546 158.269 166.44 158.226C166.132 158.132 165.835 158.007 165.554 157.852C164.497 157.288 163.623 156.433 163.035 155.388C162.58 154.617 162.304 153.754 162.227 152.861C162.15 151.969 162.275 151.071 162.592 150.233C162.967 149.243 163.572 148.356 164.357 147.645C165.198 146.88 166.231 146.356 167.346 146.13C167.864 146.056 168.347 145.827 168.73 145.472C169.053 145.081 169.24 144.595 169.263 144.088C169.346 143.071 168.945 142.081 168.834 141.085C168.713 140.126 168.91 139.153 169.395 138.317C169.82 137.592 170.441 137.002 171.187 136.615C171.879 136.262 172.495 136.033 173.028 135.798C173.494 135.616 173.94 135.384 174.356 135.106C174.697 134.853 175.002 134.555 175.263 134.22C175.224 134.327 175.171 134.427 175.104 134.518C174.915 134.787 174.681 135.021 174.412 135.21C173.999 135.516 173.554 135.773 173.083 135.978C172.55 136.227 171.92 136.476 171.284 136.829C170.59 137.207 170.017 137.773 169.63 138.462C169.182 139.246 169.006 140.156 169.132 141.05C169.242 141.998 169.664 142.988 169.588 144.123C169.565 144.712 169.346 145.277 168.965 145.728C168.532 146.138 167.984 146.406 167.395 146.496C166.376 146.711 165.428 147.177 164.636 147.853C163.844 148.529 163.234 149.392 162.862 150.365C162.556 151.159 162.429 152.011 162.49 152.861C162.551 153.71 162.799 154.535 163.215 155.278C163.768 156.299 164.585 157.152 165.582 157.748C166.315 158.15 166.772 158.267 166.772 158.302Z" fill="#263238"/>
<path d="M198.099 164.641C198.099 164.641 198.507 164.364 199.22 163.852C200.252 163.168 201.072 162.21 201.586 161.084C201.901 160.302 201.95 159.439 201.725 158.627C201.6 158.188 201.361 157.789 201.033 157.472C200.659 157.144 200.245 156.865 199.801 156.641C199.29 156.367 198.859 155.964 198.551 155.473C198.243 154.981 198.068 154.418 198.043 153.839C197.995 152.586 198.77 151.548 199.047 150.434C199.283 149.314 199.098 148.146 198.528 147.154C198.001 146.209 197.296 145.375 196.452 144.697C194.867 143.369 193.213 142.393 192.071 141.237C191.13 140.377 190.429 139.288 190.037 138.075C189.942 137.743 189.887 137.402 189.871 137.058C189.853 136.938 189.853 136.817 189.871 136.698C189.928 137.149 190.021 137.596 190.148 138.033C190.58 139.197 191.294 140.235 192.224 141.057C193.358 142.144 194.992 143.078 196.639 144.427C197.513 145.128 198.243 145.99 198.791 146.967C199.41 148.035 199.61 149.296 199.351 150.503C199.033 151.714 198.292 152.711 198.348 153.811C198.365 154.349 198.526 154.872 198.815 155.326C199.103 155.78 199.508 156.148 199.988 156.392C200.454 156.632 200.889 156.93 201.282 157.278C201.639 157.64 201.896 158.088 202.029 158.579C202.256 159.452 202.193 160.375 201.849 161.208C201.558 161.881 201.132 162.486 200.597 162.987C200.195 163.365 199.759 163.705 199.296 164.004C198.922 164.246 198.604 164.419 198.417 164.523C198.316 164.576 198.209 164.616 198.099 164.641Z" fill="#263238"/>
<path d="M173.076 142.344C173.745 141.789 174.216 141.031 174.418 140.185C174.615 139.343 174.72 138.483 174.73 137.618C174.73 137.369 174.73 137.044 174.467 136.981C174.204 136.919 174.038 137.154 173.927 137.369C173.081 138.971 172.782 140.806 173.076 142.593L173.228 142.448" fill="#263238"/>
<path d="M161.001 302.03L160.87 295.802L172.523 295.484L172.807 304.584L172.115 304.653C168.904 304.916 155.77 305.774 153.604 305.179C151.161 304.521 161.001 302.03 161.001 302.03Z" fill="#7D7B7B"/>
<g opacity="0.5">
<path opacity="0.5" d="M168.578 304.618C168.724 303.629 169.232 302.729 170.004 302.093C170.754 301.455 171.719 301.126 172.702 301.172L172.792 304.425L168.578 304.618Z" fill="white"/>
</g>
<g opacity="0.4">
<path opacity="0.4" d="M156.198 303.421C156.198 303.421 152.738 304.515 153.202 305.075C153.666 305.636 166.952 305.269 172.806 304.591V304.335L157.285 304.895C157.285 304.895 156.876 303.428 156.198 303.421Z" fill="white"/>
</g>
<path d="M173 304.321H172.799L172.225 304.369L170.107 304.521C168.322 304.632 165.852 304.757 163.118 304.84C160.385 304.923 157.914 304.93 156.122 304.916H154.005H153.43H153.229H153.43H154.005H156.122C157.914 304.916 160.385 304.867 163.118 304.791C165.852 304.715 168.315 304.605 170.107 304.521L172.225 304.411H172.799L173 304.321Z" fill="#263238"/>
<path d="M157.278 305.075C157.171 304.726 157.028 304.39 156.849 304.072C156.635 303.779 156.387 303.514 156.108 303.283C156.463 303.427 156.765 303.675 156.974 303.996C157.183 304.316 157.289 304.693 157.278 305.075Z" fill="#263238"/>
<path d="M160.669 303.234C160.634 303.234 160.461 303.061 160.288 302.798C160.115 302.535 159.991 302.307 160.025 302.279C160.06 302.252 160.226 302.459 160.406 302.722C160.529 302.873 160.618 303.047 160.669 303.234Z" fill="#263238"/>
<path d="M161.596 302.708C161.596 302.743 161.381 302.625 161.181 302.445C160.98 302.266 160.828 302.106 160.849 302.079C160.869 302.051 161.063 302.162 161.271 302.342C161.478 302.522 161.624 302.681 161.596 302.708Z" fill="#263238"/>
<path d="M162.163 301.594C161.971 301.674 161.762 301.707 161.554 301.691C161.35 301.715 161.143 301.699 160.945 301.643C161.342 301.529 161.759 301.513 162.163 301.594Z" fill="#263238"/>
<path d="M162.343 300.812C162.142 300.958 161.899 301.033 161.651 301.027C161.418 301.071 161.178 301.046 160.959 300.958C161.187 300.913 161.419 300.89 161.651 300.889C161.879 300.846 162.111 300.82 162.343 300.812Z" fill="#263238"/>
<path d="M160.24 302.231C159.992 302.272 159.74 302.272 159.492 302.231C159.221 302.204 158.952 302.153 158.689 302.079C158.532 302.037 158.379 301.979 158.233 301.906C158.143 301.855 158.074 301.774 158.039 301.677C158.025 301.622 158.028 301.564 158.046 301.51C158.065 301.456 158.098 301.408 158.143 301.373C158.423 301.225 158.746 301.178 159.057 301.24C159.369 301.301 159.649 301.468 159.852 301.712C159.971 301.856 160.058 302.023 160.108 302.203C160.124 302.272 160.124 302.343 160.108 302.411C160.025 302.182 159.903 301.969 159.748 301.781C159.575 301.587 159.349 301.447 159.098 301.38C158.801 301.289 158.48 301.319 158.205 301.463C158.094 301.56 158.143 301.698 158.274 301.774C158.411 301.844 158.555 301.899 158.703 301.94C158.957 302.02 159.216 302.081 159.478 302.12C159.956 302.217 160.24 302.203 160.24 302.231Z" fill="#263238"/>
<path d="M160.052 302.272C159.95 302.12 159.913 301.933 159.949 301.753C159.967 301.557 160.031 301.368 160.136 301.2C160.196 301.087 160.285 300.992 160.392 300.923C160.5 300.854 160.624 300.814 160.751 300.805C160.828 300.819 160.896 300.862 160.942 300.925C160.987 300.989 161.006 301.068 160.994 301.144C160.976 301.264 160.936 301.379 160.876 301.484C160.78 301.65 160.664 301.803 160.53 301.94C160.421 302.08 160.278 302.189 160.115 302.259C160.115 302.259 160.26 302.12 160.461 301.878C160.572 301.734 160.672 301.582 160.758 301.421C160.855 301.255 160.917 300.972 160.758 300.944C160.599 300.916 160.385 301.124 160.274 301.276C160.174 301.424 160.106 301.592 160.073 301.767C160.047 301.934 160.04 302.104 160.052 302.272Z" fill="#263238"/>
<path d="M172.64 301.138C172.64 301.138 172.308 301.138 171.782 301.193C171.096 301.285 170.45 301.571 169.921 302.017C169.391 302.463 169 303.051 168.793 303.712C168.634 304.217 168.62 304.549 168.599 304.549C168.578 304.549 168.599 304.466 168.599 304.314C168.612 304.101 168.649 303.889 168.71 303.684C168.899 302.994 169.292 302.376 169.838 301.913C170.388 301.454 171.063 301.17 171.775 301.096C171.989 301.071 172.205 301.071 172.419 301.096C172.494 301.099 172.569 301.113 172.64 301.138Z" fill="#263238"/>
<path d="M171.297 296.321C171.404 297.115 171.459 297.915 171.464 298.716C171.513 299.513 171.513 300.313 171.464 301.11C171.361 300.318 171.306 299.521 171.297 298.723C171.252 297.923 171.252 297.121 171.297 296.321Z" fill="#263238"/>
<path d="M167.083 303.518C166.531 303.669 165.96 303.742 165.388 303.733C164.817 303.779 164.243 303.751 163.679 303.65C163.679 303.608 164.447 303.65 165.381 303.594C166.315 303.539 167.076 303.477 167.083 303.518Z" fill="#263238"/>
<path d="M169.367 303.456C169.367 303.456 169.312 303.615 169.236 303.795C169.159 303.975 169.125 304.127 169.083 304.127C169.042 304.127 169.021 303.94 169.083 303.74C169.146 303.539 169.339 303.428 169.367 303.456Z" fill="#263238"/>
<path d="M170.232 302.362C170.232 302.362 170.19 302.508 170.073 302.632C169.955 302.757 169.837 302.84 169.81 302.812C169.782 302.785 169.851 302.667 169.969 302.535C170.087 302.404 170.17 302.335 170.232 302.362Z" fill="#263238"/>
<path d="M171.415 301.837C171.415 301.878 171.256 301.878 171.083 301.94C170.91 302.003 170.792 302.106 170.765 302.079C170.737 302.051 170.827 301.885 171.035 301.809C171.242 301.733 171.429 301.802 171.415 301.837Z" fill="#263238"/>
<path d="M172.308 301.581C172.308 301.615 172.259 301.677 172.163 301.719C172.066 301.761 171.976 301.761 171.962 301.719C171.948 301.677 172.01 301.622 172.107 301.581C172.204 301.539 172.308 301.546 172.308 301.581Z" fill="#263238"/>
<path d="M132.864 268.738L135.563 263.133L146.102 268.129L142.234 276.371L141.542 276.101C138.559 274.89 126.456 269.707 124.795 268.199C122.955 266.517 132.864 268.738 132.864 268.738Z" fill="#7D7B7B"/>
<g opacity="0.5">
<path opacity="0.5" d="M138.448 274.475C139.026 273.662 139.884 273.09 140.856 272.869C141.815 272.645 142.822 272.788 143.68 273.271L142.296 276.219L138.448 274.475Z" fill="white"/>
</g>
<g opacity="0.4">
<path opacity="0.4" d="M127.944 267.804C127.944 267.804 124.38 267.223 124.526 267.922C124.671 268.62 136.698 274.316 142.227 276.364L142.324 276.122L128.235 269.596C128.235 269.596 128.546 268.122 127.944 267.804Z" fill="white"/>
</g>
<path d="M142.49 276.198C142.425 276.187 142.362 276.166 142.303 276.136L141.763 275.921L139.784 275.098C138.137 274.406 135.881 273.381 133.404 272.212C130.927 271.042 128.719 269.942 127.135 269.119L125.252 268.136L124.747 267.859L124.574 267.749L124.761 267.832L125.28 268.081L127.176 269.029C128.782 269.825 130.996 270.918 133.466 272.087C135.937 273.257 138.186 274.274 139.826 275.001L141.757 275.866L142.282 276.108L142.49 276.198Z" fill="#263238"/>
<path d="M128.158 269.769C128.224 269.413 128.25 269.051 128.234 268.69C128.169 268.332 128.067 267.982 127.93 267.645C128.195 267.925 128.353 268.29 128.373 268.676C128.44 269.054 128.364 269.444 128.158 269.769Z" fill="#263238"/>
<path d="M132.013 269.665C131.971 269.665 131.909 269.416 131.874 269.105C131.84 268.794 131.833 268.531 131.874 268.524C131.959 268.699 132.006 268.89 132.013 269.084C132.054 269.403 132.054 269.659 132.013 269.665Z" fill="#263238"/>
<path d="M133.079 269.617C133.044 269.617 132.934 269.444 132.823 269.195C132.712 268.946 132.664 268.731 132.705 268.718C132.747 268.704 132.85 268.891 132.954 269.14C133.058 269.389 133.113 269.603 133.079 269.617Z" fill="#263238"/>
<path d="M134.089 268.876C133.883 268.858 133.685 268.794 133.507 268.69C133.31 268.624 133.131 268.516 132.981 268.371C133.187 268.39 133.385 268.453 133.563 268.558C133.874 268.703 134.109 268.842 134.089 268.876Z" fill="#263238"/>
<path d="M134.608 268.268C134.369 268.276 134.132 268.236 133.91 268.15C133.687 268.065 133.485 267.935 133.313 267.769C133.744 267.937 134.176 268.103 134.608 268.268Z" fill="#263238"/>
<path d="M132.089 268.579C131.841 268.512 131.607 268.402 131.397 268.254C131.166 268.108 130.948 267.941 130.747 267.756C130.626 267.643 130.515 267.52 130.415 267.389C130.357 267.303 130.335 267.199 130.352 267.098C130.363 267.042 130.391 266.991 130.432 266.951C130.472 266.912 130.524 266.886 130.581 266.877C130.787 266.873 130.991 266.915 131.179 267.001C131.367 267.086 131.533 267.212 131.666 267.37C131.798 267.528 131.894 267.713 131.946 267.913C131.997 268.113 132.004 268.321 131.965 268.524C131.965 268.648 131.902 268.717 131.896 268.71C131.924 268.48 131.912 268.245 131.861 268.018C131.791 267.768 131.652 267.543 131.46 267.368C131.35 267.261 131.22 267.176 131.078 267.12C130.935 267.065 130.782 267.038 130.629 267.043C130.484 267.043 130.463 267.216 130.553 267.34C130.641 267.465 130.741 267.581 130.851 267.686C131.042 267.873 131.248 268.044 131.466 268.198C131.84 268.434 132.103 268.558 132.089 268.579Z" fill="#263238"/>
<path d="M131.903 268.531C131.883 268.349 131.933 268.166 132.041 268.018C132.149 267.853 132.294 267.713 132.463 267.61C132.568 267.537 132.689 267.492 132.817 267.478C132.944 267.465 133.072 267.484 133.19 267.534C133.251 267.582 133.292 267.652 133.304 267.729C133.315 267.806 133.297 267.885 133.252 267.949C133.185 268.047 133.097 268.13 132.996 268.191C132.835 268.301 132.66 268.389 132.477 268.454C132.315 268.523 132.14 268.554 131.965 268.544C131.965 268.544 132.152 268.489 132.442 268.358C132.61 268.284 132.77 268.194 132.92 268.088C133.079 267.991 133.266 267.762 133.107 267.652C133.01 267.621 132.908 267.612 132.808 267.625C132.707 267.638 132.611 267.673 132.525 267.728C132.371 267.817 132.235 267.935 132.124 268.074C132.033 268.217 131.959 268.37 131.903 268.531Z" fill="#263238"/>
<path d="M143.639 273.215C143.639 273.215 143.355 273.042 142.85 272.876C142.197 272.651 141.494 272.615 140.821 272.773C140.149 272.931 139.535 273.276 139.051 273.769C138.67 274.143 138.511 274.461 138.49 274.426C138.513 274.35 138.548 274.277 138.594 274.212C138.703 274.029 138.831 273.857 138.975 273.7C139.458 273.17 140.09 272.799 140.787 272.635C141.485 272.471 142.216 272.521 142.884 272.779C143.083 272.856 143.274 272.953 143.452 273.07C143.583 273.153 143.646 273.208 143.639 273.215Z" fill="#263238"/>
<path d="M144.628 268.316C144.36 269.07 144.048 269.807 143.694 270.524C143.382 271.259 143.029 271.975 142.635 272.669C142.903 271.915 143.215 271.178 143.569 270.461C143.877 269.725 144.23 269.008 144.628 268.316Z" fill="#263238"/>
<path d="M137.604 272.821C137.046 272.701 136.506 272.508 135.999 272.247C135.469 272.026 134.969 271.74 134.511 271.396C134.511 271.361 135.203 271.728 136.054 272.122C136.905 272.517 137.618 272.787 137.604 272.821Z" fill="#263238"/>
<path d="M139.673 273.797C139.673 273.838 139.548 273.914 139.403 274.039C139.258 274.163 139.154 274.288 139.119 274.267C139.085 274.246 139.119 274.073 139.313 273.935C139.507 273.797 139.666 273.762 139.673 273.797Z" fill="#263238"/>
<path d="M140.912 273.195C140.912 273.236 140.801 273.312 140.642 273.368C140.482 273.423 140.337 273.451 140.323 273.409C140.309 273.368 140.434 273.298 140.593 273.236C140.752 273.174 140.898 273.16 140.912 273.195Z" fill="#263238"/>
<path d="M142.234 273.285C142.234 273.285 142.068 273.243 141.888 273.229C141.708 273.216 141.556 273.229 141.542 273.229C141.528 273.229 141.68 273.091 141.909 273.119C142.137 273.146 142.262 273.257 142.234 273.285Z" fill="#263238"/>
<path d="M143.126 273.451C143.126 273.451 143.036 273.513 142.932 273.506C142.828 273.499 142.745 273.458 142.752 273.423C142.759 273.388 142.842 273.354 142.939 273.361C143.036 273.368 143.126 273.409 143.126 273.451Z" fill="#263238"/>
<path d="M209.676 187.297L207.198 174.841C205.399 164.696 191.144 164.004 191.144 164.004L179.92 163.817C179.92 163.817 171.616 162.703 166.502 168.474C161.208 174.446 154.696 181.512 154.696 181.512L159.665 194.016L171.429 184.328C170.445 186.054 169.903 187.996 169.851 189.982C169.851 193.296 173.311 194.826 173.311 194.826L174.384 204.88L170.924 221.163L207.468 219.696C206.851 214.235 205.004 208.985 202.064 204.341L202.756 187.297H209.676Z" fill="#02A1FC"/>
<path d="M194.017 173.367C194.114 173.623 194.18 173.89 194.21 174.162C194.328 174.751 194.466 175.477 194.639 176.342C195.013 178.266 195.497 180.771 196.023 183.539C196.549 186.307 197.02 188.909 197.31 190.764C197.463 191.691 197.566 192.445 197.629 192.964C197.679 193.233 197.695 193.508 197.677 193.781C197.586 193.523 197.523 193.256 197.49 192.985C197.373 192.397 197.227 191.67 197.061 190.805C196.688 188.881 196.203 186.376 195.677 183.608C195.151 180.84 194.681 178.245 194.39 176.384C194.238 175.457 194.134 174.709 194.072 174.183C194.027 173.914 194.008 173.64 194.017 173.367Z" fill="#263238"/>
<path d="M209.891 186.646C207.645 186.839 205.39 186.908 203.137 186.854C200.884 186.921 198.63 186.867 196.383 186.695C198.629 186.507 200.883 186.44 203.137 186.494C205.389 186.427 207.643 186.478 209.891 186.646Z" fill="#263238"/>
<path d="M211.281 197.912C210.589 191.947 209.6 186.84 209.6 186.84H196.659C196.659 186.84 198.265 194.452 197.912 196.182C197.594 197.711 172.522 198.722 165.99 198.826C165.596 198.535 165.035 199.026 164.53 198.583C164.084 198.187 163.707 197.72 163.416 197.199C163.03 196.568 162.73 195.889 162.523 195.179C162.499 195.046 162.436 194.923 162.342 194.825C162.249 194.728 162.129 194.66 161.997 194.63C161.865 194.599 161.728 194.608 161.601 194.656C161.474 194.703 161.364 194.786 161.284 194.895C161.021 195.455 161.319 197.317 162.558 199.116C163.796 200.915 160.544 199.981 159.354 199.663C158.163 199.345 154.427 198.535 154.046 198.832C153.479 199.268 153.832 199.967 155.029 200.258C156.226 200.549 159.762 201.642 159.568 202.334C159.374 203.026 153.34 201.248 153.34 201.248C153.34 201.248 152.108 200.673 151.859 201.4C151.416 202.715 157.97 204.043 158.599 204.168C159.035 204.251 158.849 204.95 158.385 204.86C157.921 204.77 152.392 203.012 151.929 204.348C151.569 205.372 157.312 205.496 158.26 206.507C159.208 207.517 153.915 205.96 153.61 206.95C153.499 207.323 155.686 207.489 158.869 207.939C162.123 208.25 165.393 208.365 168.661 208.285C176.003 208.687 201.967 209.226 207.51 208.832C213.959 208.341 211.531 199.988 211.281 197.912Z" fill="#FFBE9D"/>
<path d="M170.163 187.65C170.264 187.08 170.412 186.52 170.606 185.975C170.758 185.456 170.945 184.847 171.18 184.176C171.298 183.844 171.429 183.484 171.575 183.131C171.658 182.937 171.762 182.771 171.81 182.612C171.865 182.437 171.888 182.255 171.879 182.072C171.845 181.686 171.788 181.302 171.706 180.923C171.637 180.55 171.568 180.19 171.499 179.837C171.388 179.145 171.277 178.55 171.18 177.982C171.052 177.417 170.982 176.839 170.973 176.259C171.185 176.799 171.338 177.361 171.429 177.934C171.554 178.494 171.686 179.11 171.824 179.768L172.052 180.861C172.147 181.257 172.209 181.659 172.239 182.065C172.251 182.288 172.22 182.511 172.149 182.723C172.077 182.909 171.993 183.092 171.9 183.269C171.755 183.615 171.616 183.961 171.492 184.293C171.263 184.923 171.042 185.511 170.848 186.051C170.687 186.61 170.457 187.147 170.163 187.65Z" fill="#263238"/>
<path d="M185.248 140.476C186.244 141.763 187.324 143.244 187.109 144.856C186.936 146.24 185.809 147.521 185.995 148.932C186.217 150.559 188.071 151.624 188.196 153.264C188.272 154.648 187.103 155.672 186.279 156.724C185.675 157.502 185.23 158.391 184.97 159.341C184.71 160.291 184.64 161.283 184.764 162.26C184.9 163.232 185.255 164.16 185.803 164.974C186.351 165.788 187.077 166.467 187.926 166.959C188.787 167.435 189.756 167.68 190.739 167.671C191.723 167.661 192.687 167.397 193.538 166.904C195.038 165.857 196.131 164.324 196.631 162.565C197.406 160.336 197.614 157.721 196.292 155.755C195.753 154.967 194.971 154.288 194.798 153.347C194.576 152.157 195.42 151.036 195.552 149.832C195.732 148.22 194.618 146.746 193.386 145.68C192.154 144.614 190.701 143.77 189.781 142.434" fill="#263238"/>
<g opacity="0.3">
<path opacity="0.3" d="M194.452 176.737C194.902 183.657 195.144 190.058 195.31 196.999C196.234 196.959 197.131 196.677 197.912 196.182C198.265 193.22 196.023 184.203 194.452 176.737Z" fill="black"/>
</g>
<path d="M177.581 173.547C177.481 173.019 177.536 172.473 177.74 171.976C177.976 171.132 178.342 170.516 178.432 170.557C178.402 171.078 178.285 171.59 178.086 172.073C177.997 172.588 177.826 173.085 177.581 173.547Z" fill="#FAFAFA"/>
<path d="M170.232 173.526C170.176 173.609 169.685 173.367 169.208 172.91C168.73 172.453 168.453 171.976 168.516 171.921C168.578 171.865 168.979 172.218 169.436 172.647C169.893 173.076 170.28 173.443 170.232 173.526Z" fill="#FAFAFA"/>
<path d="M163.208 179.27C163.208 179.27 163.146 179.207 163.104 179.083H163.263C163.371 179.647 163.371 180.227 163.263 180.792C163.222 181.438 162.98 182.055 162.571 182.557C162.653 181.94 162.775 181.33 162.938 180.73C163.063 180.038 163.09 179.387 163.132 179.09H163.291C163.249 179.228 163.236 179.263 163.208 179.27Z" fill="#FAFAFA"/>
<path d="M162.897 186.453C162.368 186.431 161.851 186.294 161.381 186.051C160.578 185.74 159.956 185.415 159.997 185.318C160.528 185.338 161.048 185.475 161.519 185.719C162.308 186.03 162.931 186.356 162.897 186.453Z" fill="#FAFAFA"/>
<path d="M168.848 182.473C168.751 182.473 168.765 181.851 168.993 181.138C169.222 180.425 169.54 179.913 169.63 179.955C169.72 179.996 169.547 180.557 169.332 181.242C169.118 181.927 168.917 182.487 168.848 182.473Z" fill="#FAFAFA"/>
<path d="M175.076 166.724C175.076 166.82 174.557 166.924 173.907 166.959C173.257 166.993 172.731 166.959 172.724 166.834C172.717 166.71 173.243 166.627 173.893 166.599C174.544 166.571 175.076 166.62 175.076 166.724Z" fill="#FAFAFA"/>
<path d="M176.343 180.238C176.28 180.308 175.72 179.892 175.346 179.131C175.067 178.697 174.967 178.17 175.069 177.664C175.173 177.664 175.319 178.28 175.665 178.972C176.011 179.664 176.419 180.162 176.343 180.238Z" fill="#FAFAFA"/>
<path d="M188.632 177.339C188.702 177.408 188.266 177.962 187.608 178.529C186.951 179.097 186.335 179.443 186.28 179.36C186.224 179.276 186.729 178.806 187.373 178.252C188.016 177.699 188.563 177.27 188.632 177.339Z" fill="#FAFAFA"/>
<path d="M182.556 175.429C182.612 175.512 182.231 175.893 181.698 176.287C181.165 176.681 180.681 176.944 180.625 176.861C180.57 176.778 180.951 176.398 181.484 176.003C182.016 175.609 182.494 175.353 182.556 175.429Z" fill="#FAFAFA"/>
<path d="M185.539 170.46C184.977 170.342 184.463 170.058 184.065 169.644C183.373 169.028 182.951 168.364 183.034 168.308C183.117 168.253 183.615 168.786 184.3 169.367C184.985 169.948 185.587 170.37 185.539 170.46Z" fill="#FAFAFA"/>
<path d="M192.535 168.523C192.591 168.599 192.203 169 191.657 169.409C191.11 169.817 190.619 170.101 190.556 170.018C190.494 169.934 190.888 169.54 191.435 169.125C191.982 168.71 192.473 168.44 192.535 168.523Z" fill="#FAFAFA"/>
<path d="M198.376 171.291C198.367 170.79 198.442 170.292 198.597 169.817C198.756 169.021 198.86 168.363 198.964 168.37C199.117 168.864 199.117 169.392 198.964 169.886C198.791 170.716 198.466 171.325 198.376 171.291Z" fill="#FAFAFA"/>
<path d="M199.407 177.955C199.338 178.024 198.715 177.56 198.023 176.91C197.331 176.259 196.798 175.678 196.867 175.609C196.937 175.54 197.559 175.996 198.251 176.647C198.943 177.297 199.476 177.879 199.407 177.955Z" fill="#FAFAFA"/>
<path d="M204.14 175.152C204.05 175.111 204.23 174.46 204.542 173.768C204.853 173.076 205.185 172.467 205.275 172.509C205.25 172.995 205.113 173.468 204.874 173.893C204.556 174.626 204.223 175.194 204.14 175.152Z" fill="#FAFAFA"/>
<path d="M204.382 183.159C204.5 182.579 204.735 182.031 205.074 181.546C205.307 181.009 205.643 180.522 206.063 180.114C205.946 180.691 205.71 181.238 205.371 181.719C205.14 182.259 204.803 182.749 204.382 183.159Z" fill="#FAFAFA"/>
<path d="M199.719 184.383C199.635 184.446 199.165 183.947 198.653 183.269C198.141 182.591 197.802 182.003 197.878 181.941C197.954 181.878 198.438 182.377 198.944 183.055C199.449 183.733 199.795 184.321 199.719 184.383Z" fill="#FAFAFA"/>
<path d="M190.916 187.809C191.083 187.083 191.406 186.403 191.864 185.816C192.226 185.167 192.727 184.607 193.331 184.176C193.008 184.828 192.618 185.444 192.169 186.017C191.813 186.655 191.393 187.255 190.916 187.809Z" fill="#FAFAFA"/>
<path d="M184.591 187.172C184.168 186.706 183.837 186.163 183.615 185.574C183.289 185.034 183.066 184.438 182.958 183.816C183.711 184.821 184.265 185.96 184.591 187.172Z" fill="#FAFAFA"/>
<path d="M176.626 185.318C176.229 185.896 175.738 186.404 175.173 186.819C174.687 187.325 174.118 187.744 173.491 188.058C173.422 187.982 174.073 187.311 174.938 186.549C175.425 186.044 175.996 185.628 176.626 185.318Z" fill="#FAFAFA"/>
<path d="M179.65 193.968C179.567 194.03 179 193.386 178.266 192.639C177.533 191.892 176.882 191.31 176.945 191.255C177.558 191.495 178.104 191.88 178.536 192.376C179.032 192.807 179.415 193.354 179.65 193.968Z" fill="#FAFAFA"/>
<path d="M185.228 194.231C185.267 193.597 185.48 192.987 185.843 192.466C186.362 191.566 186.992 190.985 187.061 191.082C186.813 191.636 186.507 192.163 186.148 192.653C185.896 193.209 185.588 193.738 185.228 194.231Z" fill="#FAFAFA"/>
<path d="M193.068 195.144C192.434 194.845 191.856 194.44 191.359 193.947C190.784 193.542 190.282 193.043 189.871 192.473C190.507 192.771 191.087 193.176 191.587 193.67C192.16 194.075 192.66 194.574 193.068 195.144Z" fill="#FAFAFA"/>
<path d="M192.376 174.536C191.834 174.449 191.327 174.209 190.916 173.844C190.183 173.311 189.733 172.723 189.802 172.654C189.871 172.585 190.425 173.041 191.131 173.554C191.836 174.066 192.376 174.446 192.376 174.536Z" fill="#FAFAFA"/>
<path d="M181.048 210.001C181.09 210.098 180.529 210.396 179.906 210.859C179.283 211.323 178.82 211.759 178.744 211.697C178.667 211.634 179.02 211.06 179.692 210.569C180.363 210.077 181.02 209.911 181.048 210.001Z" fill="#FAFAFA"/>
<path d="M189.421 213.42C188.818 212.485 188.428 211.429 188.279 210.326C188.88 211.262 189.269 212.318 189.421 213.42Z" fill="#FAFAFA"/>
<path d="M197.864 210.43C197.94 210.5 197.504 211.067 196.902 211.697C196.3 212.326 195.753 212.783 195.684 212.714C195.615 212.645 196.044 212.077 196.646 211.448C197.248 210.818 197.795 210.368 197.864 210.43Z" fill="#FAFAFA"/>
<path d="M204.14 214.984C204.064 215.06 203.504 214.617 202.673 214.458C201.843 214.298 201.158 214.458 201.123 214.368C201.355 214.2 201.623 214.089 201.905 214.043C202.187 213.998 202.476 214.019 202.749 214.105C203.663 214.292 204.189 214.928 204.14 214.984Z" fill="#FAFAFA"/>
<path d="M207.552 218.063C207.552 218.063 159.762 208.05 155.133 210.243C150.503 212.437 129.169 265.174 129.169 265.174L146.351 272.565L164.835 227.751C164.835 227.751 198.293 239.972 204.14 238.74C209.988 237.508 207.552 218.063 207.552 218.063Z" fill="#455A64"/>
<path d="M186.189 220.873C185.463 221.115 157.817 232.484 155.866 236.131C153.915 239.778 158.703 300.446 158.703 300.446H174.425L173.457 246.532L204.14 238.74L186.189 220.873Z" fill="#455A64"/>
<path d="M204.299 238.885C204.148 238.879 203.998 238.861 203.85 238.83L202.563 238.602C201.448 238.394 199.836 238.076 197.85 237.653C193.885 236.816 188.418 235.577 182.467 233.841C179.491 232.982 176.682 232.083 174.163 231.211C171.644 230.339 169.367 229.467 167.506 228.671C166.565 228.291 165.727 227.91 164.994 227.578C164.26 227.246 163.61 226.962 163.119 226.699L161.956 226.111C161.815 226.049 161.68 225.973 161.555 225.883C161.702 225.926 161.845 225.982 161.984 226.049L163.181 226.575C163.693 226.81 164.33 227.087 165.07 227.398C165.81 227.709 166.655 228.09 167.596 228.436C169.471 229.204 171.748 230.014 174.274 230.9C176.799 231.785 179.616 232.636 182.578 233.495C188.522 235.204 193.968 236.505 197.919 237.404L202.604 238.463L203.877 238.754C204.022 238.783 204.164 238.827 204.299 238.885Z" fill="#263238"/>
<path d="M155.873 250.068C155.795 249.771 155.747 249.468 155.728 249.161C155.658 248.504 155.568 247.667 155.465 246.67C155.361 245.674 155.25 244.352 155.125 242.982C154.914 241.464 154.914 239.925 155.125 238.408C155.432 236.874 156.237 235.485 157.416 234.456C158.354 233.621 159.416 232.937 160.565 232.429C161.326 232.082 162.104 231.775 162.897 231.508C163.183 231.394 163.479 231.308 163.782 231.252C163.782 231.315 162.564 231.751 160.675 232.636C159.568 233.157 158.546 233.843 157.644 234.671C156.535 235.664 155.775 236.99 155.478 238.449C155.285 239.935 155.285 241.44 155.478 242.926C155.582 244.31 155.672 245.549 155.748 246.622C155.824 247.694 155.859 248.462 155.894 249.12C155.922 249.436 155.915 249.754 155.873 250.068Z" fill="#263238"/>
<path d="M169.665 244.857C170.993 245.181 172.253 245.736 173.388 246.497C172.061 246.171 170.801 245.616 169.665 244.857Z" fill="#263238"/>
<path d="M171.056 243.197C171.504 243.765 171.922 244.356 172.308 244.968C173 245.916 173.741 246.573 173.692 246.657C173.015 246.328 172.442 245.818 172.038 245.183C171.529 244.627 171.189 243.938 171.056 243.197Z" fill="#263238"/>
<path d="M177.09 245.66C177.09 245.66 177.041 245.791 176.848 245.909C176.567 246.058 176.252 246.132 175.934 246.124C175.498 246.108 175.061 246.12 174.626 246.158C174.393 246.193 174.182 246.315 174.037 246.5C173.891 246.686 173.822 246.92 173.844 247.155C173.897 248.558 173.833 249.963 173.651 251.355C173.473 249.955 173.418 248.543 173.484 247.134C173.488 246.813 173.592 246.5 173.782 246.241C173.986 246.012 174.266 245.864 174.571 245.826C175.033 245.801 175.496 245.815 175.955 245.868C176.345 245.896 176.735 245.825 177.09 245.66Z" fill="#263238"/>
<path opacity="0.3" d="M173.318 209.932L205.891 212.548L204.5 208.901L173.637 208.458L173.318 209.932Z" fill="black"/>
<path d="M261.479 202.784H69.4561V207.904H79.7253L74.4315 305.297L77.3518 305.456L82.6594 207.904H251.009L255.521 305.38H258.455L253.936 207.904H261.479V202.784Z" fill="#263238"/>
<path d="M125.46 172.502L136.11 203.614H184.328L183.969 202.016L164.475 201.407L155.493 172.481L125.46 172.502Z" fill="#263238"/>
<path d="M146.829 187.11C147.147 188.39 146.6 189.636 145.611 189.878C144.621 190.12 143.535 189.324 143.237 188.044C142.94 186.764 143.466 185.525 144.455 185.276C145.445 185.027 146.51 185.836 146.829 187.11Z" fill="white"/>
</svg>
